<svg width="49" height="49" viewBox="0 0 49 49" fill="none" xmlns="http://www.w3.org/2000/svg">
<g id="image" clip-path="url(#clip0_8_2626)">
<g id="ss3578821253_1">
<path id="Vector" d="M0.97998 24.5C0.97998 11.245 11.725 0.5 24.98 0.5C38.235 0.5 48.98 11.245 48.98 24.5C48.98 37.755 38.235 48.5 24.98 48.5C11.725 48.5 0.97998 37.755 0.97998 24.5Z" fill="#89A9F9" fill-opacity="0.19"/>
<g id="Group">
<path id="Vector_2" d="M34.578 15.967V29.833C34.578 30.116 34.466 30.387 34.266 30.587C34.066 30.787 33.795 30.9 33.512 30.9C33.229 30.9 32.958 30.787 32.758 30.587C32.557 30.387 32.445 30.116 32.445 29.833V18.542L17.2 33.788C17 33.988 16.729 34.1 16.446 34.1C16.163 34.1 15.891 33.988 15.691 33.788C15.491 33.588 15.378 33.316 15.378 33.033C15.378 32.75 15.491 32.479 15.691 32.278L30.937 17.034H19.646C19.363 17.034 19.091 16.921 18.891 16.721C18.691 16.521 18.579 16.25 18.579 15.967C18.579 15.684 18.691 15.413 18.891 15.213C19.091 15.013 19.363 14.9 19.646 14.9H33.512C33.795 14.9 34.066 15.013 34.266 15.213C34.466 15.413 34.578 15.684 34.578 15.967Z" fill="url(#paint0_linear_8_2626)"/>
</g>
</g>
</g>
<defs>
<linearGradient id="paint0_linear_8_2626" x1="-12.7223" y1="14.5889" x2="-13.1446" y2="33.7843" gradientUnits="userSpaceOnUse">
<stop stop-color="#F0F0F9"/>
<stop offset="1" stop-color="#ADABF5"/>
</linearGradient>
<clipPath id="clip0_8_2626">
<rect width="48" height="48" fill="white" transform="translate(0.97998 0.5)"/>
</clipPath>
</defs>
</svg>
