<svg width="149" height="63" viewBox="0 0 149 63" fill="none" xmlns="http://www.w3.org/2000/svg">
<g id="VSfmTHPtyztS2sAMMz6we4xLAjk.svg">
<path id="Vector" d="M0 26.3795L13.1714 20.5168L20.7539 24.9148L22.2848 39.3395L12.9425 39.2616L14.3206 29.2338L12.7127 28.3087L4.82448 34.479L0 26.3795Z" fill="#C0BDE0"/>
<path id="Vector_2" d="M21.5963 24.2964L33.2368 32.8585L37.8314 24.6051L28.4882 20.8256V18.9743L37.8314 15.1178L33.2368 6.94032L21.5963 15.5025V24.2964Z" fill="#461DB9"/>
<path id="Vector_3" d="M20.7529 14.8101L22.2857 0.385292L12.9425 0.539161L14.3206 10.567L12.7127 11.4921L4.74755 5.32274L0 13.3444L13.1714 19.207L20.7539 14.8101H20.7529Z" fill="#4876EF"/>
<path id="Vector_4" d="M32.6592 43.2642V48.0322H38.2686V50.2058H32.6592V55.1842H38.9698V57.3578H29.9948V41.0905H38.9698V43.2642H32.6592ZM46.7626 54.9738L50.4087 44.4796H53.2368L48.3286 57.3578H45.1499L40.265 44.4796H43.1165L46.7626 54.9738ZM60.3693 57.5682C59.154 57.5682 58.0554 57.2955 57.0738 56.7501C56.1019 56.1991 55.3012 55.3902 54.7599 54.4129C54.199 53.4001 53.9185 52.2315 53.9185 50.907C53.9185 49.5981 54.2068 48.4373 54.7833 47.4245C55.3334 46.4379 56.1519 45.6275 57.1439 45.0872C58.1411 44.5419 59.2552 44.2692 60.4862 44.2692C61.7171 44.2692 62.8312 44.5419 63.8285 45.0872C64.8205 45.6275 65.639 46.4379 66.1891 47.4245C66.7656 48.4373 67.0539 49.5981 67.0539 50.907C67.0539 52.2159 66.7578 53.3767 66.1657 54.3895C65.5899 55.3865 64.7484 56.2038 63.735 56.7501C62.7222 57.2955 61.6003 57.5682 60.3693 57.5682ZM60.3693 55.2543C61.0549 55.2543 61.6938 55.0907 62.2859 54.7635C62.8936 54.4363 63.3844 53.9454 63.7583 53.291C64.1323 52.6366 64.3193 51.8419 64.3193 50.907C64.3193 49.9721 64.1401 49.1852 63.7817 48.5464C63.4233 47.892 62.9481 47.4011 62.356 47.0739C61.77 46.7483 61.1099 46.5792 60.4394 46.5831C59.7539 46.5831 59.115 46.7467 58.5229 47.0739C57.9464 47.4011 57.4867 47.892 57.1439 48.5464C56.8011 49.1852 56.6297 49.9721 56.6297 50.907C56.6297 52.2938 56.9803 53.3689 57.6815 54.1324C58.3982 54.8803 59.2942 55.2543 60.3693 55.2543ZM68.3326 49.2008C68.3326 47.6115 68.6987 46.1858 69.4311 44.9236C70.1519 43.6879 71.1938 42.6703 72.4461 41.9787C73.7238 41.2619 75.1184 40.9036 76.6298 40.9036C78.3594 40.9036 79.8942 41.3321 81.2342 42.1891C82.5898 43.0305 83.5715 44.2303 84.1791 45.7884H80.9761C80.5554 44.9314 79.9711 44.2926 79.2232 43.8719C78.4753 43.4512 77.6105 43.2408 76.6288 43.2408C75.5537 43.2408 74.5954 43.4823 73.754 43.9654C72.9126 44.4484 72.2504 45.1418 71.7673 46.0455C71.2999 46.9493 71.0662 48.001 71.0662 49.2008C71.0662 50.4006 71.2999 51.4524 71.7673 52.3561C72.2504 53.2598 72.9126 53.961 73.754 54.4596C74.5954 54.9427 75.5537 55.1842 76.6288 55.1842C77.6105 55.1842 78.4753 54.9738 79.2232 54.5531C79.9711 54.1324 80.5554 53.4936 80.9761 52.6366H84.1782C83.5705 54.1947 82.5888 55.3945 81.2332 56.236C79.8932 57.0774 78.3584 57.4981 76.6288 57.4981C75.1018 57.4981 73.7073 57.1475 72.4451 56.4463C71.195 55.7414 70.1545 54.717 69.4301 53.478C68.6977 52.2159 68.3326 50.7901 68.3326 49.2008ZM92.416 57.5682C91.2006 57.5682 90.1021 57.2955 89.1205 56.7501C88.1486 56.1991 87.3479 55.3902 86.8066 54.4129C86.2457 53.4001 85.9652 52.2315 85.9652 50.907C85.9652 49.5981 86.2535 48.4373 86.83 47.4245C87.38 46.4379 88.1986 45.6275 89.1906 45.0872C90.1878 44.5419 91.3019 44.2692 92.5329 44.2692C93.7638 44.2692 94.8779 44.5419 95.8752 45.0872C96.8672 45.6274 97.6858 46.4379 98.2358 47.4245C98.8123 48.4373 99.1006 49.5981 99.1006 50.907C99.1006 52.2159 98.8045 53.3767 98.2124 54.3895C97.6366 55.3865 96.7951 56.2038 95.7817 56.7501C94.7688 57.2955 93.647 57.5682 92.416 57.5682ZM92.416 55.2543C93.1016 55.2543 93.7405 55.0907 94.3326 54.7635C94.9402 54.4363 95.4311 53.9454 95.805 53.291C96.179 52.6366 96.366 51.8419 96.366 50.907C96.366 49.9721 96.1868 49.1852 95.8284 48.5464C95.47 47.892 94.9948 47.4011 94.4027 47.0739C93.8166 46.7483 93.1566 46.5792 92.4861 46.5831C91.8005 46.5831 91.1617 46.7467 90.5696 47.0739C89.9931 47.4011 89.5334 47.892 89.1906 48.5464C88.8478 49.1852 88.6764 49.9721 88.6764 50.907C88.6764 52.2938 89.027 53.3689 89.7282 54.1324C90.4449 54.8803 91.3409 55.2543 92.416 55.2543ZM107.765 44.2692C108.778 44.2692 109.682 44.4796 110.476 44.9003C111.282 45.3169 111.943 45.9691 112.369 46.7701C112.821 47.5959 113.047 48.5931 113.047 49.7618V57.3578H110.406V50.1591C110.406 49.006 110.118 48.1257 109.541 47.518C108.965 46.8947 108.178 46.5831 107.181 46.5831C106.183 46.5831 105.389 46.8947 104.797 47.518C104.22 48.1257 103.932 49.006 103.932 50.1591V57.3578H101.267V44.4796H103.932V45.952C104.379 45.4138 104.948 44.9893 105.591 44.7133C106.278 44.4171 107.018 44.2659 107.765 44.2692ZM121.378 46.6532H118.994V57.3578H116.306V46.6532H114.786V44.4796H116.306V43.568C116.306 42.0878 116.695 41.0126 117.474 40.3426C118.269 39.657 119.508 39.3142 121.191 39.3142V41.5346C120.38 41.5346 119.812 41.6904 119.484 42.0021C119.157 42.2981 118.994 42.8201 118.994 43.568V44.4796H121.378V46.6532ZM124.394 53.7351C125.889 52.4418 127.066 51.3823 127.923 50.5564C128.795 49.715 129.52 48.8424 130.096 47.9387C130.673 47.035 130.961 46.1312 130.961 45.2275C130.961 44.2926 130.735 43.5602 130.283 43.0305C129.847 42.5007 129.154 42.2358 128.203 42.2358C127.284 42.2358 126.567 42.5318 126.053 43.124C125.554 43.7005 125.29 44.4796 125.258 45.4612H122.687C122.734 43.6849 123.264 42.3293 124.277 41.3944C125.305 40.4439 126.606 39.9687 128.18 39.9687C129.878 39.9687 131.203 40.4361 132.153 41.371C133.119 42.3059 133.602 43.5524 133.602 45.1106C133.602 46.2325 133.314 47.3154 132.738 48.3594C132.187 49.3733 131.503 50.3088 130.704 51.1407C129.925 51.951 128.928 52.8937 127.712 53.9688L126.661 54.9037H134.07V57.1241H122.711V55.1842L124.394 53.7351ZM135.896 44.5263C135.989 43.0772 136.542 41.9475 137.555 41.1373C138.584 40.327 139.892 39.9219 141.482 39.9219C142.573 39.9219 143.515 40.1167 144.31 40.5062C145.105 40.8958 145.704 41.4255 146.11 42.0956C146.515 42.7656 146.717 43.5213 146.717 44.3627C146.717 45.3288 146.46 46.1546 145.946 46.8402C145.432 47.5258 144.816 47.9854 144.1 48.2192V48.3127C145.019 48.5931 145.736 49.1073 146.25 49.8552C146.764 50.5876 147.021 51.5303 147.021 52.6833C147.021 53.6026 146.811 54.4207 146.39 55.1374C145.969 55.8542 145.346 56.4229 144.52 56.8436C143.694 57.2488 142.705 57.4513 141.552 57.4513C139.869 57.4513 138.482 57.0228 137.392 56.1658C136.316 55.2933 135.74 54.0467 135.662 52.4262H138.233C138.295 53.2521 138.615 53.9299 139.191 54.4596C139.768 54.9738 140.547 55.2309 141.529 55.2309C142.479 55.2309 143.211 54.9738 143.726 54.4596C144.24 53.9299 144.497 53.2521 144.497 52.4262C144.497 51.3355 144.146 50.5642 143.445 50.1123C142.76 49.6449 141.7 49.4112 140.266 49.4112H139.659V47.2141H140.29C141.552 47.1986 142.51 46.9882 143.165 46.5831C143.835 46.178 144.17 45.5391 144.17 44.6665C144.17 43.9186 143.928 43.3265 143.445 42.8902C142.962 42.4384 142.276 42.2124 141.388 42.2124C140.516 42.2124 139.838 42.4384 139.355 42.8902C138.879 43.3134 138.572 43.8945 138.49 44.5263H135.896Z" fill="white"/>
</g>
</svg>
