<svg width="294" height="104" viewBox="0 0 294 104" fill="none" xmlns="http://www.w3.org/2000/svg">
<g id="jackpot" filter="url(#filter0_d_50_28)">
<path id="Vector" d="M61.2727 67.4604C60.6753 67.4604 60.6753 67.4604 60.0779 67.4604C58.2857 66.9208 57.6883 64.7624 58.2857 63.6831L72.026 31.3067C72.6234 28.0691 75.013 28.0691 75.6104 28.0691C76.2078 28.0691 78.5974 28.0691 79.7922 31.3067L87.5584 51.2722L92.3377 63.1435C92.9351 64.7624 92.3377 66.3812 90.5455 66.9208C88.7533 67.4604 86.961 66.9208 86.3636 65.302L82.1818 55.0494H68.4416L64.2597 65.302C63.6623 66.9208 62.4675 67.4604 61.2727 67.4604ZM70.8312 49.1138H79.7922L75.6104 38.3216L70.8312 49.1138ZM167.61 67.4604C165.818 67.4604 164.026 65.8416 164.026 64.2228V33.4652C164.026 30.2275 167.013 27.5295 170.597 28.0691H181.351C188.519 28.0691 193.896 33.4652 193.896 39.9404C193.896 46.4157 188.519 51.2722 181.351 51.2722H171.195V64.2228C170.597 66.3812 169.403 67.4604 167.61 67.4604ZM171.195 45.3365H181.351C184.338 45.3365 187.325 42.6385 187.325 39.9404C187.325 36.7028 184.935 34.5444 181.351 34.5444H171.195V45.3365ZM213.013 67.4604C203.455 67.4604 194.494 61.5247 194.494 48.0345C194.494 34.5444 204.052 28.6087 213.013 28.6087C222.571 28.6087 231.532 34.5444 231.532 48.0345C232.13 61.5247 222.571 67.4604 213.013 67.4604ZM213.013 34.0048C205.247 34.0048 201.065 38.8612 201.065 47.4949C201.065 56.1287 205.844 60.9851 213.013 60.9851C220.779 60.9851 224.961 56.1287 224.961 47.4949C225.558 39.4008 220.779 34.0048 213.013 34.0048ZM110.857 67.4604C101.299 67.4604 92.3377 61.5247 92.3377 48.0345C92.3377 34.5444 101.896 28.6087 110.857 28.6087C119.818 28.6087 125.792 32.9256 127.584 39.9404C128.182 41.5593 126.987 43.1781 125.195 43.7177C123.403 44.2573 121.61 43.1781 121.013 41.5593C119.818 35.6236 113.844 35.084 110.857 35.084C103.091 35.084 98.9091 39.9404 98.9091 48.5742C98.9091 57.2079 103.688 62.0643 110.857 62.0643C112.649 62.0643 119.818 61.5247 121.013 55.0494C121.61 53.4306 122.805 52.3514 124.597 52.891C126.39 53.4306 127.584 54.5098 126.987 56.1287C126.39 62.6039 119.818 67.4604 110.857 67.4604ZM158.052 67.4604C156.857 67.4604 156.26 66.9208 155.662 66.3812L141.325 50.193L138.338 52.891V64.7624C138.338 66.3812 136.545 68 134.753 68C132.961 68 131.169 66.3812 131.169 64.7624V31.3067C131.169 29.6879 132.961 28.0691 134.753 28.0691C136.545 28.0691 138.338 29.6879 138.338 31.3067V44.2573L155.065 29.1483C156.26 28.0691 158.649 28.0691 159.844 29.1483C161.039 30.2275 161.039 32.386 159.844 33.4652L145.507 45.3365L160.442 62.0643C161.636 63.1435 161.039 65.302 159.844 66.3812C159.247 67.4604 158.649 67.4604 158.052 67.4604ZM44.5455 67.4604C37.3766 67.4604 32 62.0643 32 56.1287C32 54.5098 33.7922 52.891 35.5844 52.891C37.3766 52.891 39.1688 54.5098 39.1688 56.1287C39.1688 58.8267 41.5584 61.5247 45.1429 61.5247C48.7273 61.5247 51.1169 59.3663 51.1169 56.1287V31.3067C50.5195 29.6879 51.7143 28.0691 53.5065 28.0691C55.8961 28.0691 57.0909 29.6879 57.0909 31.3067V56.1287C57.0909 62.0643 51.7143 67.4604 44.5455 67.4604ZM245.273 67.4604C243.481 67.4604 241.688 65.8416 241.688 64.2228V34.0048H232.13C230.338 34.0048 228.545 32.386 228.545 30.7671C229.143 29.6879 230.338 28.0691 232.13 28.0691H258.416C260.208 28.0691 262 29.6879 262 31.3067C262 32.9256 260.208 34.5444 258.416 34.5444H248.857V64.7624C248.857 65.8416 247.065 67.4604 245.273 67.4604Z" fill="#FF0703"/>
<path id="Vector_2" d="M61.2723 66.3811H60.6749C59.4801 65.8414 58.8826 64.7622 59.48 63.683L73.2203 31.3066C73.8177 29.6878 75.0125 29.6878 75.6099 29.1482C76.2073 29.1482 77.4021 29.1482 78.5969 31.3066L86.3632 51.2721L91.7398 63.683C91.7398 64.7622 91.1424 65.8414 90.545 66.3811C89.3502 66.3811 88.1554 65.8414 87.558 65.3018L83.3762 54.5097H67.8437L63.0645 65.3018C63.0645 65.8414 61.8697 66.3811 61.2723 66.3811ZM69.0385 50.1929H81.5839L75.6099 34.5443L69.0385 50.1929ZM167.61 66.3811C166.415 66.3811 165.818 65.3018 165.818 64.7622V34.0047C165.818 31.3066 168.207 29.1482 170.597 29.6878H181.35C187.324 29.6878 192.701 34.5443 192.701 39.9403C192.701 45.876 187.922 50.1929 181.35 50.1929H169.402V64.7622C169.402 65.3018 168.805 66.3811 167.61 66.3811ZM169.402 46.4156H181.35C185.532 46.4156 188.519 43.178 188.519 39.4007C188.519 35.6235 185.532 32.3858 181.35 32.3858H170.597C170 32.9254 169.402 33.465 169.402 33.465V46.4156ZM213.012 66.3811C205.246 66.3811 195.688 61.5246 195.688 48.0344C195.688 34.5443 205.246 29.6878 213.012 29.6878C220.779 29.6878 230.337 34.5443 230.337 48.0344C230.935 61.5246 221.376 66.3811 213.012 66.3811ZM213.012 32.9254C206.441 32.9254 199.87 36.7027 199.87 48.0344C199.87 58.8266 207.038 63.1434 213.012 63.1434C219.584 63.1434 226.155 59.3662 226.155 48.0344C226.753 36.7027 219.584 32.9254 213.012 32.9254ZM110.857 66.3811C103.09 66.3811 93.532 61.5246 93.532 48.0344C93.532 34.5443 103.09 29.6878 110.857 29.6878C118.623 29.6878 124.597 34.0047 126.389 40.4799C126.389 41.5591 125.792 42.6384 124.597 42.6384C123.402 42.6384 122.207 42.0988 122.207 41.0195C120.415 34.0047 113.246 33.465 110.857 33.465C104.285 33.465 97.7138 37.2423 97.7138 48.574C97.7138 59.3662 104.883 63.683 110.857 63.683C115.636 63.683 121.013 61.5246 122.207 55.5889C122.207 54.5097 123.402 53.9701 124.597 53.9701C125.792 53.9701 126.389 55.0493 126.389 56.1285C125.194 62.0642 119.22 66.3811 110.857 66.3811ZM158.051 66.3811C157.454 66.3811 156.857 66.3811 156.259 65.8414L140.727 48.574L136.545 52.3513V64.7622C136.545 65.8415 135.35 66.3811 134.753 66.3811C133.558 66.3811 132.961 65.8415 132.961 64.7622V51.2721V31.3066C132.961 30.2274 134.155 29.6878 134.753 29.6878C135.948 29.6878 136.545 30.2274 136.545 31.3066V46.9552L155.662 30.2274C156.259 29.6878 157.454 29.6878 158.649 30.2274C159.246 30.767 159.246 31.8462 158.649 32.9254L144.311 45.876L159.844 63.683C160.441 64.2226 160.441 65.8414 159.246 66.3811C158.649 65.8414 158.051 66.3811 158.051 66.3811ZM44.545 66.3811C38.571 66.3811 33.1943 62.0642 33.1943 56.1285C33.1943 55.0493 33.7917 54.5097 34.9865 54.5097C36.1813 54.5097 36.7788 55.0493 36.7788 56.1285C36.7788 59.9058 39.7658 62.6038 43.9476 62.6038C48.1294 62.6038 51.1164 59.9058 51.1164 56.1285V31.3066C51.1164 30.2274 51.7138 29.6878 52.9086 29.6878C54.7008 29.1482 55.8956 30.2274 55.8956 31.3066V56.1285C55.8956 61.5246 50.519 66.3811 44.545 66.3811ZM245.272 66.3811C244.077 66.3811 243.48 65.8415 243.48 64.7622V32.9254H232.129C230.935 32.9254 230.337 32.3858 230.337 31.3066C230.337 30.2274 231.532 29.6878 232.129 29.6878H258.415C259.61 29.6878 260.207 30.2274 260.207 31.3066C260.207 32.3858 259.61 32.9254 258.415 32.9254H247.064V64.2226C247.064 65.3018 246.467 66.3811 245.272 66.3811Z" fill="#FF751F"/>
<path id="Vector_3" d="M61.2728 65.3022C60.6754 65.3022 60.6754 64.7626 60.6754 64.223L74.4156 31.8466C75.013 30.7674 75.6104 30.2278 76.2078 30.2278C76.8052 30.2278 77.4026 30.2278 78 31.8466L86.3637 51.8121L91.1429 63.6834C91.1429 64.223 91.1429 64.223 90.5455 64.223C89.9481 64.223 89.9481 64.223 89.9481 63.6834L84.5715 52.8913H66.6494L61.8702 64.7626L61.2728 65.3022ZM67.2468 51.8121H83.9741L76.2078 32.3862C76.2078 31.8466 75.6104 31.8466 75.6104 31.8466C75.6104 31.8466 75.6104 31.8466 75.013 32.3862L67.2468 51.8121ZM167.61 65.3022C167.013 65.3022 167.013 65.3022 167.013 64.7626V34.005C167.013 32.3862 168.805 30.7674 170.597 30.7674H181.351C186.727 30.7674 191.507 35.0842 191.507 39.9407C191.507 44.7972 187.325 49.114 181.351 49.114H168.805C168.805 49.114 168.805 49.114 168.208 49.114V64.7626L167.61 65.3022ZM168.208 47.4952H181.351C186.13 47.4952 189.714 43.718 189.714 39.4011C189.714 35.0842 186.13 31.307 181.351 31.307H170.597C169.403 31.307 168.805 32.3862 168.805 33.4654V47.4952H168.208ZM213.013 64.7626C205.844 64.7626 196.883 60.4458 196.883 47.4952C196.883 34.5446 205.844 30.2278 213.013 30.2278C220.182 30.2278 229.143 34.5446 229.143 47.4952C229.143 60.4458 220.779 64.7626 213.013 64.7626ZM213.013 31.8466C205.844 31.8466 198.078 36.1635 198.078 48.0348C198.078 59.9062 205.844 64.223 213.013 64.223C220.182 64.223 227.948 59.9062 227.948 48.0348C227.948 36.1635 220.182 31.8466 213.013 31.8466ZM110.857 64.7626C103.688 64.7626 94.7273 60.4458 94.7273 47.4952C94.7273 34.5446 103.091 30.2278 110.857 30.2278C116.831 30.2278 123.403 32.9258 124.597 39.9407C124.597 40.4803 124.597 40.4803 124 40.4803C123.403 40.4803 123.403 40.4803 123.403 39.9407C122.208 34.5446 117.429 31.307 110.857 31.307C103.688 31.307 95.9221 35.6238 95.9221 47.4952C95.9221 59.3665 103.688 63.6834 110.857 63.6834C116.234 63.6834 122.208 61.525 124 54.5101C124 53.9705 124.597 53.9705 124.597 53.9705C125.195 53.9705 125.195 54.5101 125.195 54.5101C123.403 62.6042 116.831 64.7626 110.857 64.7626ZM158.052 64.7626C157.455 64.7626 157.455 64.7626 158.052 64.7626L141.325 45.8764L135.351 51.2724V64.223C135.351 64.7626 135.351 64.7626 134.753 64.7626C134.156 64.7626 134.156 64.7626 134.156 64.223V31.307C134.156 30.7674 134.156 30.7674 134.753 30.7674C135.351 30.7674 135.351 30.7674 135.351 31.307V49.6536L156.26 30.7674C156.26 30.7674 156.857 30.7674 157.455 30.7674C157.455 30.7674 157.455 31.307 157.455 31.8466L141.922 45.8764L158.052 64.7626C158.649 64.7626 158.649 64.223 158.052 64.7626ZM44.5455 64.7626C39.1689 64.7626 34.3896 60.9854 34.3896 55.5893C34.3896 55.0497 34.3896 55.0497 34.9871 55.0497C35.5845 55.0497 35.5845 55.0497 35.5845 55.5893C35.5845 59.9062 39.1689 63.1438 43.9481 63.1438C48.7273 63.1438 52.3117 59.9062 52.3117 55.5893V31.307C52.3117 30.7674 52.3117 30.7674 52.9091 30.7674C53.5065 30.7674 53.5065 30.7674 53.5065 31.307V56.1289C54.7013 60.9854 49.9221 64.7626 44.5455 64.7626ZM245.273 64.7626C244.675 64.7626 244.675 64.7626 244.675 64.223V31.8466H232.13C231.533 31.8466 231.533 31.8466 231.533 31.307C231.533 30.7674 231.533 30.7674 232.13 30.7674H258.416C259.013 30.7674 259.013 30.7674 259.013 31.307C259.013 31.8466 259.013 31.8466 258.416 31.8466H245.87V64.223C245.87 64.7626 245.87 64.7626 245.273 64.7626Z" fill="#FFEB36"/>
</g>
<defs>
<filter id="filter0_d_50_28" x="0" y="0" width="294" height="104" filterUnits="userSpaceOnUse" color-interpolation-filters="sRGB">
<feFlood flood-opacity="0" result="BackgroundImageFix"/>
<feColorMatrix in="SourceAlpha" type="matrix" values="0 0 0 0 0 0 0 0 0 0 0 0 0 0 0 0 0 0 127 0" result="hardAlpha"/>
<feOffset dy="4"/>
<feGaussianBlur stdDeviation="16"/>
<feComposite in2="hardAlpha" operator="out"/>
<feColorMatrix type="matrix" values="0 0 0 0 1 0 0 0 0 0.243137 0 0 0 0 0.0666667 0 0 0 1 0"/>
<feBlend mode="normal" in2="BackgroundImageFix" result="effect1_dropShadow_50_28"/>
<feBlend mode="normal" in="SourceGraphic" in2="effect1_dropShadow_50_28" result="shape"/>
</filter>
</defs>
</svg>
