<svg width="105" height="108" viewBox="0 0 105 108" fill="none" xmlns="http://www.w3.org/2000/svg">
<g id="vector">
<path id="Vector" d="M56.9798 2.12L2.0498 30.38" stroke="#749C31" stroke-width="2"/>
<path id="Vector_2" d="M2.04993 30.38C1.7966 30.3267 1.57994 30.4367 1.39994 30.71C1.29994 30.8633 1.2566 31.0733 1.26993 31.34C2.52993 50.6733 3.75328 69.9933 4.93994 89.3" stroke="#1A7E42" stroke-width="2"/>
<path id="Vector_3" d="M4.93945 89.3C5.09279 89.56 5.12613 89.9667 5.03946 90.5201C4.97946 90.8534 5.07945 91.1334 5.33945 91.36C5.63278 91.6134 5.88944 91.7234 6.10944 91.6901" stroke="#51882D" stroke-width="2"/>
<path id="Vector_4" d="M6.10938 91.6899C8.48938 95.6799 11.1794 97.47 16.0194 98.2C25.206 99.5933 34.6727 101.12 44.4194 102.78" stroke="#1A6141" stroke-width="2"/>
<path id="Vector_5" d="M72.04 104.5L103.54 51.11C103.72 50.8033 103.687 50.5167 103.44 50.25L98.16 44.53" stroke="#51882D" stroke-width="2"/>
<path id="Vector_6" d="M98.16 44.53C98.44 44.21 98.59 43.88 98.61 43.54C98.63 43.1733 98.5133 42.8633 98.26 42.61L80.59 24.66C80.37 24.44 80.1767 24.1967 80.01 23.93C79.7433 23.4967 79.34 23.0033 78.8 22.45C74.6667 18.1567 69.52 12.2133 63.36 4.61999C63.1533 4.35999 62.9067 4.31665 62.62 4.48998C62.2533 4.70332 62.0467 5.04665 62 5.51998" stroke="#1A6141" stroke-width="2"/>
<path id="Vector_7" d="M62.0005 5.52003C58.9405 2.0267 57.2671 0.893372 56.9805 2.12004" stroke="#7F9C5F" stroke-width="2"/>
<path id="Vector_8" d="M62 5.52002L96.83 43.47" stroke="#6CC447" stroke-width="2"/>
<path id="Vector_9" d="M96.8298 43.47C96.5432 44.2633 96.5165 44.5766 96.7498 44.41" stroke="#A4EB33" stroke-width="2"/>
<path id="Vector_10" d="M96.7497 44.4099C90.4897 43.3299 84.5197 43.6499 78.3197 43.0199C75.6664 42.7532 73.0064 42.6699 70.3397 42.7699C70.0064 42.7832 69.7764 42.9466 69.6497 43.2599C67.5364 48.2599 64.733 52.7532 61.2397 56.7399C59.5997 58.6099 56.6597 58.8799 54.6197 60.0199C48.0997 63.6599 41.5331 67.1999 34.9197 70.6399C34.1331 71.0466 33.4831 71.9666 32.9697 73.3999" stroke="#C6FF37" stroke-width="2"/>
<path id="Vector_11" d="M32.97 73.4L15.29 71.01" stroke="#A4EB33" stroke-width="2"/>
<path id="Vector_12" d="M15.29 71.01L15.04 66.4" stroke="#6CE148" stroke-width="2"/>
<path id="Vector_13" d="M15.0403 66.4C19.0469 64.5667 23.767 62.0067 29.2003 58.72C38.8936 52.8667 50.0536 46.7733 62.6803 40.44C63.8803 39.84 64.7669 38.9633 65.3403 37.81C65.5269 37.4433 65.4803 37.1133 65.2003 36.82L55.3503 26.33C55.1169 26.0767 54.8469 26.0367 54.5403 26.21C43.7503 32.22 33.0103 38.93 21.6403 43.76C20.5336 44.2267 19.4769 44.99 18.4703 46.05C17.1636 47.41 15.6836 48.58 14.0303 49.56" stroke="#C6FF37" stroke-width="2"/>
<path id="Vector_14" d="M14.0302 49.56L12.9902 34.53" stroke="#6CE148" stroke-width="2"/>
<path id="Vector_15" d="M12.9902 34.53C15.2169 33.7367 17.3636 32.7833 19.4302 31.67C28.2236 26.8967 37.0902 22.26 46.0302 17.76C49.2802 16.12 55.0103 5.75 56.9803 2.12" stroke="#C6FF37" stroke-width="2"/>
<path id="Vector_16" d="M96.7495 44.41L64.2895 99.26C64.2549 99.3201 64.2096 99.3722 64.1563 99.4135C64.103 99.4547 64.0429 99.4842 63.9795 99.5C63.8928 99.52 63.7961 99.5434 63.6895 99.57" stroke="#99EA04" stroke-width="2"/>
<path id="Vector_17" d="M63.69 99.5701C63.3167 99.4034 63.1633 99.4134 63.23 99.6001" stroke="#61C318" stroke-width="2"/>
<path id="Vector_18" d="M63.2297 99.6C63.2831 98.9734 63.2164 98.4834 63.0297 98.13C59.1631 91.0167 55.2764 83.85 51.3697 76.63C51.2097 76.3234 50.9564 76.1434 50.6097 76.09L32.9697 73.4" stroke="#99EA04" stroke-width="2"/>
<path id="Vector_19" d="M15.2895 71.01C12.4761 77.1233 9.3528 83.1067 5.91946 88.96C5.80613 89.1533 5.47945 89.2667 4.93945 89.3" stroke="#3FCC15" stroke-width="2"/>
<path id="Vector_20" d="M98.1601 44.53L96.8301 43.47" stroke="#3FAF14" stroke-width="2"/>
<path id="Vector_21" d="M72.0396 104.5C71.5396 104.953 71.2829 105.563 71.2695 106.33" stroke="#4C8022" stroke-width="2"/>
<path id="Vector_22" d="M71.2694 106.33L63.6895 99.5701" stroke="#3FAF14" stroke-width="2"/>
<path id="Vector_23" d="M12.9901 34.53C9.44346 33.5033 5.9168 32.3733 2.41014 31.14C2.22347 31.0733 2.10014 30.9867 2.04014 30.88C1.95347 30.72 1.95679 30.5533 2.05012 30.38" stroke="#61E019" stroke-width="2"/>
<path id="Vector_24" d="M63.2294 99.5999L6.10938 91.6899" stroke="#3FAF14" stroke-width="2"/>
<path id="Vector_25" d="M15.0403 66.4001L14.0303 49.5601" stroke="#61E019" stroke-width="2"/>
<path id="Vector_26" d="M71.2699 106.33L44.4199 102.78" stroke="#155936" stroke-width="2"/>
<path id="Vector_27" d="M62.0002 5.52003L96.8302 43.47C96.5436 44.2634 96.5169 44.5767 96.7502 44.41C90.4902 43.33 84.5202 43.65 78.3203 43.02C75.6669 42.7534 73.0069 42.67 70.3402 42.77C70.0069 42.7834 69.7769 42.9467 69.6502 43.2601C67.5369 48.2601 64.7336 52.7534 61.2402 56.74C59.6002 58.61 56.6602 58.88 54.6202 60.02C48.1002 63.66 41.5336 67.2001 34.9203 70.6401C34.1336 71.0467 33.4836 71.9667 32.9702 73.4L15.2903 71.0101L15.0403 66.4C19.0469 64.5667 23.7669 62.0067 29.2003 58.72C38.8936 52.8667 50.0536 46.7734 62.6802 40.44C63.8802 39.84 64.7669 38.9634 65.3402 37.81C65.5269 37.4434 65.4803 37.1134 65.2003 36.82L55.3503 26.33C55.1169 26.0767 54.8469 26.0367 54.5403 26.21C43.7503 32.22 33.0103 38.9301 21.6403 43.7601C20.5336 44.2267 19.4769 44.99 18.4702 46.05C17.1636 47.41 15.6836 48.58 14.0302 49.56L12.9902 34.53C15.2169 33.7367 17.3636 32.7834 19.4302 31.6701C28.2236 26.8967 37.0902 22.2601 46.0302 17.7601C49.2802 16.1201 55.0103 5.75004 56.9803 2.12004C57.2669 0.893372 58.9402 2.0267 62.0002 5.52003Z" fill="#D1FF65"/>
<path id="Vector_28" d="M56.9801 2.12C55.0101 5.75 49.2801 16.12 46.0301 17.76C37.0901 22.26 28.2235 26.8967 19.4301 31.67C17.3635 32.7833 15.2168 33.7367 12.9901 34.53C9.44346 33.5033 5.9168 32.3733 2.41014 31.14C2.22347 31.0733 2.10014 30.9867 2.04014 30.88C1.95347 30.72 1.95679 30.5533 2.05012 30.38L56.9801 2.12Z" fill="#BBFE08"/>
<path id="Vector_29" d="M98.16 44.53L96.83 43.47L62 5.51998C62.0467 5.04665 62.2533 4.70332 62.62 4.48998C62.9067 4.31665 63.1533 4.35999 63.36 4.61999C69.52 12.2133 74.6667 18.1567 78.8 22.45C79.34 23.0033 79.7433 23.4967 80.01 23.93C80.1767 24.1967 80.37 24.44 80.59 24.66L98.26 42.61C98.5133 42.8633 98.63 43.1733 98.61 43.54C98.59 43.88 98.44 44.21 98.16 44.53Z" fill="#078828"/>
<path id="Vector_30" d="M15.0403 66.4L14.0303 49.56C15.6836 48.58 17.1636 47.41 18.4703 46.05C19.4769 44.99 20.5336 44.2267 21.6403 43.76C33.0103 38.93 43.7503 32.22 54.5403 26.21C54.847 26.0367 55.1169 26.0767 55.3503 26.33L65.2003 36.82C65.4803 37.1133 65.5269 37.4433 65.3403 37.81C64.7669 38.9633 63.8803 39.84 62.6803 40.44C50.0536 46.7733 38.8936 52.8667 29.2003 58.72C23.767 62.0067 19.0469 64.5667 15.0403 66.4Z" fill="#BBFE08"/>
<path id="Vector_31" d="M2.04993 30.38C1.9566 30.5533 1.95328 30.72 2.03995 30.88C2.09995 30.9867 2.22328 31.0733 2.40995 31.14C5.91661 32.3733 9.44327 33.5033 12.9899 34.53L14.0299 49.56L15.04 66.4L15.29 71.01C12.4766 77.1233 9.35329 83.1067 5.91996 88.96C5.80662 89.1533 5.47994 89.2667 4.93994 89.3C3.75328 69.9933 2.52993 50.6733 1.26993 31.34C1.2566 31.0733 1.29994 30.8633 1.39994 30.71C1.57994 30.4367 1.7966 30.3267 2.04993 30.38Z" fill="#07C22A"/>
<path id="Vector_32" d="M96.7497 44.4099L64.2897 99.2599C64.2551 99.3199 64.2099 99.3721 64.1566 99.4134C64.1033 99.4546 64.0432 99.484 63.9797 99.4999C63.8931 99.5199 63.7964 99.5433 63.6897 99.5699C63.3164 99.4033 63.1631 99.4133 63.2297 99.5999C63.2831 98.9733 63.2164 98.4833 63.0297 98.1299C59.1631 91.0166 55.2764 83.8499 51.3697 76.6299C51.2097 76.3233 50.9564 76.1433 50.6097 76.0899L32.9697 73.3999C33.4831 71.9666 34.1331 71.0466 34.9197 70.6399C41.5331 67.1999 48.0997 63.6599 54.6197 60.0199C56.6597 58.8799 59.5997 58.6099 61.2397 56.7399C64.733 52.7532 67.5364 48.2599 69.6497 43.2599C69.7764 42.9466 70.0064 42.7832 70.3397 42.7699C73.0064 42.6699 75.6664 42.7532 78.3197 43.0199C84.5197 43.6499 90.4897 43.3299 96.7497 44.4099Z" fill="#BBFE08"/>
<path id="Vector_33" d="M96.8294 43.47L98.1595 44.53L103.439 50.25C103.686 50.5166 103.719 50.8033 103.539 51.11L72.0395 104.5C71.5395 104.953 71.2828 105.563 71.2694 106.33L63.6895 99.57C63.7961 99.5433 63.8928 99.52 63.9795 99.5C64.0429 99.4841 64.103 99.4547 64.1563 99.4134C64.2096 99.3722 64.2549 99.32 64.2895 99.26L96.7495 44.41C96.5161 44.5766 96.5428 44.2633 96.8294 43.47Z" fill="#76D600"/>
<path id="Vector_34" d="M15.2895 71.01L32.9695 73.4L50.6094 76.09C50.9561 76.1433 51.2094 76.3233 51.3694 76.63C55.2761 83.85 59.1628 91.0167 63.0294 98.13C63.2161 98.4833 63.2828 98.9733 63.2295 99.6L6.10944 91.69C5.88944 91.7233 5.63278 91.6133 5.33945 91.36C5.07945 91.1333 4.97946 90.8533 5.03946 90.52C5.12613 89.9667 5.09279 89.56 4.93945 89.3C5.47945 89.2667 5.80613 89.1533 5.91946 88.96C9.3528 83.1067 12.4761 77.1233 15.2895 71.01Z" fill="#76D600"/>
<path id="Vector_35" d="M6.10938 91.6899L63.2294 99.5999C63.1627 99.4133 63.3161 99.4033 63.6894 99.5699L71.2694 106.33L44.4194 102.78C34.6727 101.12 25.206 99.5933 16.0194 98.2C11.1794 97.47 8.48938 95.6799 6.10938 91.6899Z" fill="#078828"/>
</g>
</svg>
