<svg width="390" height="336" viewBox="0 0 390 336" fill="none" xmlns="http://www.w3.org/2000/svg">
<path d="M0.894998 347.145C-103.742 163.797 177.695 163.797 36.9766 347.145C-67.66 155.254 213.776 155.254 73.0582 347.145C-31.5784 208.484 249.858 208.484 109.14 347.145C4.50316 -30.7229 285.94 -30.7229 145.221 347.145C40.5847 222.285 322.021 222.285 181.303 347.145C76.6663 -3.77924 358.103 -3.77924 217.385 347.145C112.748 176.283 394.184 176.283 253.466 347.145C148.83 -4.43642 430.266 -4.43642 289.548 347.145C184.911 -113.525 466.348 -113.525 325.629 347.145C220.993 -96.4391 502.429 -96.4391 361.711 347.145" stroke="#FFC700" stroke-width="2"/>
</svg>
