<svg width="49" height="54" viewBox="0 0 49 54" fill="none" xmlns="http://www.w3.org/2000/svg">
<g id="logo" clip-path="url(#clip0_214_3145)">
<g id="red_apple">
<g id="Group">
<path id="Vector" d="M31.7057 4.43471C31.2673 4.08622 30.8304 3.73773 30.392 3.39076C29.9671 3.05288 29.3555 3.08318 28.9759 3.47258C28.1895 4.28168 27.3353 5.3226 26.5398 6.59079C25.6645 5.09684 24.0375 4.13471 22.3833 3.56955C18.7843 2.34075 14.8748 2.56348 11.0814 2.79984C12.1631 3.39379 13.1996 4.10289 14.0101 5.03472C15.3268 6.54988 15.9927 8.58627 17.4676 9.94386C18.5251 10.9181 19.9608 11.4651 21.3951 11.4424C22.6048 11.4227 23.801 10.9924 24.7621 10.2545C23.7422 13.15 23.6368 15.7151 23.6684 17.1939C24.503 17.3242 25.3391 17.4545 26.1737 17.5849C26.0743 16.6 25.7474 12.2939 28.7228 8.6696C29.6583 7.52868 30.6933 6.73625 31.5972 6.18927C32.2345 5.80291 32.2872 4.89835 31.7042 4.43319L31.7057 4.43471Z" fill="url(#paint0_linear_214_3145)"/>
<g id="Group_2" opacity="0.2">
<path id="Vector_2" d="M27.3036 10.915C26.356 11.3166 25.3512 11.6075 24.3072 11.7772C23.7196 14.0348 23.6458 15.9833 23.6714 17.1954C24.506 17.3257 25.3421 17.456 26.1768 17.5863C26.0969 16.8 25.8785 13.8969 27.3036 10.915Z" fill="black"/>
</g>
<path id="Vector_3" d="M33.39 13.5032C30.4281 12.2804 26.9541 12.8971 24.6597 15.0199L24.5588 14.9274C22.3442 12.8774 19.0042 12.188 16.1132 13.3002C7.75202 16.5153 2.00917 24.3927 2.67656 33.4322C3.2641 41.3853 8.91355 48.1324 16.636 50.9036C19.3522 51.8778 22.4331 51.2885 24.4925 49.3809L24.4985 49.3854C26.5248 51.2627 29.5544 51.89 32.2345 50.9506C40.4917 48.0566 46.3626 40.6686 46.3626 32.0079C46.3626 23.3472 41.034 16.6593 33.39 13.5032Z" fill="url(#paint1_linear_214_3145)"/>
<path id="Vector_4" d="M15.6206 2.61376C17.9256 2.61376 20.2109 2.8274 22.3848 3.56832C24.039 4.13348 25.666 5.09561 26.5413 6.58957C27.3368 5.32137 28.191 4.28045 28.9774 3.47135C29.1808 3.26226 29.4534 3.15619 29.7261 3.15619C29.9611 3.15619 30.1961 3.23347 30.3935 3.38953C30.8319 3.73802 31.2688 4.08499 31.7072 4.43348C32.2902 4.89712 32.2375 5.80319 31.6002 6.18956C30.6963 6.73654 29.6628 7.53048 28.7258 8.66989C27.3217 10.3805 26.6573 12.2381 26.353 13.8321C27.5432 13.2078 28.8825 12.8821 30.2368 12.8821C31.3019 12.8821 32.3761 13.0836 33.39 13.5033C41.034 16.6594 46.3626 23.7564 46.3626 32.0065C46.3626 40.6672 40.4917 48.0552 32.2345 50.9492C31.4044 51.2401 30.5426 51.381 29.6854 51.381C27.7752 51.381 25.8965 50.681 24.4985 49.384L24.4925 49.3794C23.0914 50.6779 21.2158 51.3658 19.3055 51.3658C18.4091 51.3658 17.5037 51.2143 16.636 50.9022C8.91356 48.1309 3.26411 41.3839 2.67656 33.4308C2.00918 24.3928 7.75203 16.5139 16.1132 13.2987C17.0412 12.9427 18.0129 12.7715 18.9801 12.7715C20.7096 12.7715 22.4195 13.3169 23.816 14.3245C23.9637 13.1199 24.2439 11.732 24.7636 10.2548C23.8025 10.9926 22.6063 11.423 21.3966 11.4426C21.3679 11.4426 21.3378 11.4426 21.3092 11.4426C19.9051 11.4426 18.5056 10.8972 17.4691 9.94263C15.9942 8.58504 15.3283 6.54714 14.0116 5.03349C13.2011 4.10014 12.1646 3.39104 11.0829 2.79861C12.5864 2.70467 14.108 2.61225 15.6221 2.61225M15.6221 0.794046C13.9996 0.794046 12.3198 0.898593 10.9715 0.983442C10.167 1.03344 9.49356 1.61224 9.31881 2.40315C9.14405 3.19407 9.51013 4.0062 10.2182 4.39409C11.3119 4.99409 12.0848 5.57743 12.6527 6.23047C13.1258 6.77442 13.525 7.45321 13.9498 8.17292C14.5494 9.19111 15.2304 10.3457 16.2503 11.2851C16.2654 11.2987 16.2789 11.3123 16.294 11.3245C16.0153 11.4033 15.7411 11.4957 15.4699 11.6002C6.03912 15.226 0.174237 24.0534 0.876275 33.5656C1.50299 42.0581 7.45223 49.5355 16.0319 52.6143C17.0834 52.9916 18.1862 53.1825 19.3085 53.1825C21.1872 53.1825 22.9799 52.6537 24.4925 51.6719C26.008 52.6628 27.8083 53.1977 29.6885 53.1977C30.7656 53.1977 31.8232 53.0189 32.8326 52.6643C42.0088 49.4476 48.1734 41.146 48.1734 32.005C48.1734 22.864 42.6415 15.3533 34.0784 11.8184C32.8612 11.3169 31.5701 11.0608 30.2398 11.0608C29.9054 11.0608 29.5724 11.0775 29.2395 11.1093C29.4971 10.6563 29.7909 10.2275 30.1223 9.82445C30.7942 9.00626 31.6063 8.30625 32.5343 7.74412C33.3403 7.25624 33.857 6.40168 33.9172 5.45622C33.9775 4.50924 33.5708 3.59256 32.8311 3.00316L32.48 2.72437L31.5174 1.95921C31.0112 1.55618 30.3754 1.33345 29.7291 1.33345C28.9533 1.33345 28.2286 1.63951 27.6878 2.19558C27.2328 2.66225 26.7974 3.15771 26.3831 3.68044C25.4581 2.92134 24.3087 2.30012 22.9694 1.84254C20.8693 1.12587 18.5342 0.791016 15.6251 0.791016L15.6221 0.794046Z" fill="url(#paint2_linear_214_3145)"/>
<path id="Vector_5" d="M15.6206 0.795358C18.5312 0.795358 20.8648 1.13021 22.9648 1.84689C24.3041 2.30447 25.4536 2.92568 26.3786 3.68478C26.7929 3.16357 27.2298 2.66659 27.6833 2.19992C28.2241 1.64385 28.9487 1.33779 29.7246 1.33779C30.3709 1.33779 31.0051 1.56052 31.5128 1.96355L32.4755 2.72871L32.8265 3.0075C33.5677 3.5969 33.973 4.51358 33.9127 5.46056C33.8525 6.40451 33.3357 7.25907 32.5297 7.74847C31.6017 8.31059 30.7897 9.0106 30.1178 9.82879C29.7879 10.2318 29.4926 10.6606 29.235 11.1137C29.5664 11.0803 29.9009 11.0652 30.2353 11.0652C31.5656 11.0652 32.8582 11.3197 34.0739 11.8228C42.6355 15.3576 48.1689 23.2805 48.1689 32.0093C48.1689 40.7382 42.0042 49.452 32.828 52.6687C31.8202 53.0217 30.7626 53.202 29.6839 53.202C27.8038 53.202 26.0035 52.6671 24.4879 51.6762C22.9754 52.6581 21.1811 53.1868 19.304 53.1868C18.1817 53.1868 17.0789 52.9959 16.0273 52.6187C7.4477 49.5398 1.49996 42.0625 0.871746 33.57C0.169708 24.0577 6.03459 15.2304 15.4654 11.6046C15.7366 11.5 16.0123 11.4091 16.2895 11.3288C16.2744 11.3152 16.2608 11.3015 16.2458 11.2894C15.2259 10.35 14.5449 9.19545 13.9453 8.17726C13.522 7.45755 13.1213 6.77876 12.6482 6.23481C12.0802 5.58177 11.3074 4.99844 10.2137 4.39843C9.50711 4.01055 9.13952 3.19842 9.31428 2.4075C9.48904 1.61658 10.1625 1.03779 10.9669 0.987785C12.3153 0.902936 13.995 0.798389 15.6176 0.798389M15.6176 0.108987C13.9724 0.108987 12.2821 0.215049 10.9247 0.299898C9.82198 0.368081 8.88492 1.17415 8.64538 2.25901C8.40585 3.34387 8.91505 4.47267 9.88525 5.0045C10.9052 5.56359 11.6193 6.09996 12.1315 6.68936C12.5623 7.18634 12.948 7.83786 13.3548 8.52878C13.8263 9.32879 14.3461 10.2106 15.0451 11.0288C5.43198 14.8061 -0.532329 23.8623 0.187787 33.62C0.83559 42.3852 6.9611 50.0974 15.7953 53.2671C16.9207 53.6717 18.1018 53.8762 19.3025 53.8762C21.154 53.8762 22.9362 53.3975 24.4849 52.4853C26.0397 53.4065 27.8279 53.8914 29.6824 53.8914C30.8364 53.8914 31.9708 53.699 33.051 53.3202C42.5014 50.008 48.8514 41.4428 48.8514 32.0093C48.8514 22.5759 43.1522 14.8273 34.3315 11.1849C33.1293 10.6894 31.8608 10.4182 30.5532 10.3803C30.5833 10.3424 30.6134 10.3061 30.6436 10.2682C31.2658 9.50909 32.019 8.8606 32.8808 8.33938C33.8796 7.73483 34.5199 6.67573 34.5952 5.5045C34.669 4.33176 34.1658 3.1969 33.2499 2.4681L32.8988 2.18931L31.9362 1.42415C31.3095 0.925663 30.5231 0.649902 29.7231 0.649902C28.7619 0.649902 27.8625 1.03021 27.1921 1.7181C26.8758 2.04234 26.5669 2.38326 26.2671 2.73629C25.3828 2.10901 24.3478 1.59234 23.1833 1.19385C21.0094 0.451415 18.6065 0.105957 15.6176 0.105957V0.108987Z" fill="#683600"/>
<path id="Vector_6" opacity="0.2" d="M24.494 39.6066C15.5648 39.6066 7.69026 35.0701 3.02155 28.1655C2.67053 29.8565 2.54248 31.6186 2.67656 33.4307C3.2641 41.3839 8.91355 48.1309 16.636 50.9021C19.3522 51.8764 22.4331 51.287 24.4925 49.3794L24.4985 49.3839C26.5248 51.2612 29.5544 51.8885 32.2345 50.9491C40.4917 48.0551 46.3626 40.6672 46.3626 32.0065C46.3626 30.6959 46.2135 29.4186 45.9573 28.1776C41.2871 35.0747 33.4171 39.6066 24.494 39.6066Z" fill="#2B003A"/>
<g id="Group_3" opacity="0.3">
<path id="Vector_7" d="M31.5369 20.4C33.2201 20.4 34.5846 19.1749 34.5846 17.6636C34.5846 16.1524 33.2201 14.9272 31.5369 14.9272C29.8538 14.9272 28.4893 16.1524 28.4893 17.6636C28.4893 19.1749 29.8538 20.4 31.5369 20.4Z" fill="#F2F2F2"/>
</g>
<g id="Group_4" opacity="0.3">
<path id="Vector_8" d="M37.9924 19.4245C37.9924 19.9639 37.5058 20.4018 36.9032 20.4018C36.3006 20.4018 35.814 19.9639 35.814 19.4245C35.814 18.8851 36.3006 18.4473 36.9032 18.4473C37.5058 18.4473 37.9924 18.8851 37.9924 19.4245Z" fill="#F2F2F2"/>
</g>
<g id="Group_5" opacity="0.3">
<path id="Vector_9" d="M19.188 5.66062C19.7896 5.66062 20.2772 5.22308 20.2772 4.68334C20.2772 4.1436 19.7896 3.70605 19.188 3.70605C18.5864 3.70605 18.0988 4.1436 18.0988 4.68334C18.0988 5.22308 18.5864 5.66062 19.188 5.66062Z" fill="#F2F2F2"/>
</g>
</g>
<path id="Vector_10" d="M33.8901 4.68336C33.048 4.95912 32.3881 5.62428 32.114 6.46974C31.8398 5.62276 31.1784 4.95912 30.3378 4.68336C31.1799 4.4076 31.8398 3.74244 32.114 2.89697C32.3881 3.74395 33.0495 4.4076 33.8901 4.68336Z" fill="white"/>
<path id="Vector_11" d="M40.4495 16.9366C39.868 17.1275 39.4115 17.5866 39.2202 18.1729C39.0304 17.5881 38.5739 17.129 37.9909 16.9366C38.5724 16.7457 39.0289 16.2866 39.2202 15.7002C39.41 16.2851 39.8665 16.7441 40.4495 16.9366Z" fill="white"/>
</g>
</g>
<defs>
<linearGradient id="paint0_linear_214_3145" x1="21.5969" y1="17.5864" x2="21.5969" y2="2.61348" gradientUnits="userSpaceOnUse">
<stop stop-color="#3D6B00"/>
<stop offset="0.06" stop-color="#427302"/>
<stop offset="0.16" stop-color="#538A0A"/>
<stop offset="0.29" stop-color="#6DAF16"/>
<stop offset="0.43" stop-color="#91E227"/>
<stop offset="0.5" stop-color="#A6FF31"/>
<stop offset="0.69" stop-color="#83D11C"/>
<stop offset="0.89" stop-color="#61A407"/>
<stop offset="1" stop-color="#549300"/>
</linearGradient>
<linearGradient id="paint1_linear_214_3145" x1="24.494" y1="51.3809" x2="24.494" y2="12.7698" gradientUnits="userSpaceOnUse">
<stop stop-color="#6B0000"/>
<stop offset="0.06" stop-color="#730202"/>
<stop offset="0.16" stop-color="#8A0A0A"/>
<stop offset="0.29" stop-color="#AF1616"/>
<stop offset="0.43" stop-color="#E22727"/>
<stop offset="0.5" stop-color="#FF3131"/>
<stop offset="0.69" stop-color="#D11C1C"/>
<stop offset="0.89" stop-color="#A40707"/>
<stop offset="1" stop-color="#930000"/>
</linearGradient>
<linearGradient id="paint2_linear_214_3145" x1="24.494" y1="53.1992" x2="24.494" y2="0.795563" gradientUnits="userSpaceOnUse">
<stop stop-color="#BE6D00"/>
<stop offset="0.03" stop-color="#C57C0E"/>
<stop offset="0.12" stop-color="#DAA736"/>
<stop offset="0.21" stop-color="#EAC956"/>
<stop offset="0.29" stop-color="#F5E16C"/>
<stop offset="0.37" stop-color="#FCEF7A"/>
<stop offset="0.43" stop-color="#FFF57F"/>
<stop offset="0.57" stop-color="#E8C552"/>
<stop offset="0.7" stop-color="#D59F2E"/>
<stop offset="0.82" stop-color="#C88315"/>
<stop offset="0.92" stop-color="#C07205"/>
<stop offset="1" stop-color="#BE6D00"/>
</linearGradient>
<clipPath id="clip0_214_3145">
<rect width="49" height="54" fill="white"/>
</clipPath>
</defs>
</svg>
