<svg width="680" height="1179" viewBox="0 0 680 1179" fill="none" xmlns="http://www.w3.org/2000/svg">
<g style="mix-blend-mode:overlay">
<path d="M384.618 515.661C407.398 490.265 424.171 459.562 433.346 425.321C464.837 307.796 394.856 186.534 277.339 155.045C159.822 123.557 38.6225 193.592 7.13173 311.117C-2.00454 345.214 -2.75164 380.327 4.30466 413.757C-109.636 389.465 -224.274 458.717 -254.773 572.541C-286.264 690.066 -216.284 811.328 -98.767 842.817C-57.4996 853.875 -15.833 852.524 22.2347 841.043C-38.1944 928.364 -102.981 976.778 -103.894 977.457C-114.863 985.493 -120.279 999.099 -117.781 1012.48C-115.283 1025.85 -105.345 1036.6 -92.2 1040.13L154.866 1106.33C167.975 1109.84 181.957 1105.5 190.799 1095.2C199.641 1084.9 201.789 1070.42 196.344 1057.98C195.866 1056.89 164.003 982.581 155.303 876.699C182.521 905.711 217.93 927.714 259.197 938.772C376.678 970.251 497.914 900.225 529.405 782.7C559.914 668.839 495.322 551.601 384.618 515.661Z" fill="white"/>
<path d="M382.016 511.151C404.796 485.755 421.568 455.052 430.743 420.811C462.234 303.286 392.254 182.024 274.737 150.535C157.22 119.047 36.0198 189.082 4.52908 306.608C-4.60718 340.705 -5.35431 375.817 1.70198 409.247C-112.239 384.955 -226.877 454.207 -257.376 568.031C-288.867 685.557 -218.886 806.819 -101.37 838.307C-60.1022 849.365 -18.4356 848.014 19.6321 836.534C-40.833 923.844 -105.583 972.268 -106.497 972.947C-117.465 980.984 -122.882 994.589 -120.384 1007.97C-117.886 1021.34 -107.948 1032.09 -94.8026 1035.62L152.263 1101.82C165.372 1105.33 179.318 1100.98 188.196 1090.69C197.038 1080.39 199.186 1065.91 193.741 1053.47C193.254 1052.42 161.4 978.071 152.701 872.189C179.918 901.201 215.327 923.204 256.595 934.262C374.076 965.741 495.311 895.715 526.802 778.19C557.301 664.366 492.755 547.101 382.016 511.151Z" fill="#F1F1F1"/>
<path d="M379.449 506.652C402.229 481.255 419.002 450.552 428.177 416.311C459.667 298.786 389.687 177.524 272.17 146.036C154.653 114.547 33.4532 184.583 1.9624 302.108C-7.17386 336.205 -7.92096 371.317 -0.855039 404.711C-114.796 380.419 -229.398 449.681 -259.897 563.505C-291.388 681.03 -221.408 802.293 -103.891 833.781C-62.6234 844.839 -20.9568 843.488 17.1109 832.007C-43.3541 919.318 -108.104 967.742 -109.018 968.421C-119.986 976.457 -125.403 990.063 -122.905 1003.44C-120.407 1016.82 -110.469 1027.57 -97.3238 1031.09L149.742 1097.29C162.851 1100.8 176.797 1096.45 185.675 1086.16C194.517 1075.86 196.665 1061.38 191.23 1048.91C190.778 1047.87 158.888 973.509 150.189 867.627C177.407 896.639 212.816 918.642 254.083 929.7C371.564 961.179 492.8 891.153 524.291 773.628C554.735 659.866 490.143 542.627 379.449 506.652Z" fill="#E2E2E2"/>
<path d="M376.837 502.177C399.617 476.781 416.39 446.078 425.564 411.837C457.055 294.312 387.075 173.05 269.558 141.561C152.041 110.073 30.841 180.108 -0.649772 297.634C-9.78604 331.731 -10.5331 366.843 -3.46721 400.237C-117.408 375.945 -232.01 445.207 -262.509 559.031C-294 676.556 -224.02 797.818 -106.503 829.307C-65.2355 840.365 -23.5786 839.05 14.4988 827.533C-45.9304 914.854 -110.717 963.268 -111.63 963.947C-122.599 971.983 -128.015 985.589 -125.517 998.966C-123.019 1012.34 -113.081 1023.09 -99.936 1026.62L147.13 1092.82C160.239 1096.33 174.185 1091.98 183.063 1081.69C191.905 1071.39 194.053 1056.91 188.608 1044.47C188.156 1043.43 156.267 969.071 147.567 863.189C174.785 892.201 210.194 914.204 251.461 925.262C368.942 956.741 490.178 886.715 521.669 769.19C552.123 655.392 487.577 538.127 376.837 502.177Z" fill="#D4D4D4"/>
<path d="M374.27 497.677C397.05 472.281 413.823 441.578 422.998 407.337C454.488 289.812 384.508 168.55 266.991 137.061C149.474 105.573 28.284 175.573 -3.21642 293.134C-12.3527 327.231 -13.0998 362.343 -6.03387 395.737C-119.974 371.445 -234.577 440.707 -265.076 554.531C-296.567 672.056 -226.586 793.318 -109.07 824.807C-67.8022 835.865 -26.1356 834.514 11.9321 823.033C-48.4971 910.354 -113.283 958.768 -114.197 959.447C-125.165 967.483 -130.582 981.089 -128.084 994.466C-125.586 1007.84 -115.648 1018.59 -102.503 1022.12L144.563 1088.32C157.672 1091.83 171.618 1087.48 180.496 1077.19C189.338 1066.89 191.486 1052.41 186.041 1039.97C185.59 1038.93 153.7 964.571 145.001 858.689C172.218 887.701 207.627 909.704 248.895 920.762C366.376 952.241 487.612 882.215 519.102 764.69C549.556 650.892 484.964 533.653 374.27 497.677Z" fill="#C5C5C5"/>
<path d="M371.658 493.204C394.438 467.807 411.211 437.104 420.385 402.864C451.876 285.338 381.896 164.076 264.379 132.588C146.862 101.099 25.6622 171.135 -5.82858 288.66C-14.9649 322.757 -15.7119 357.869 -8.64603 391.263C-122.587 366.971 -237.225 436.223 -267.724 550.048C-299.215 667.573 -229.235 788.835 -111.718 820.324C-70.4503 831.381 -28.7837 830.03 9.28403 818.55C-51.1811 905.861 -115.931 954.284 -116.845 954.964C-127.813 963 -133.23 976.605 -130.732 989.983C-128.234 1003.36 -118.296 1014.11 -105.151 1017.63L141.915 1083.83C155.024 1087.35 169.006 1083.01 177.848 1072.71C186.69 1062.4 188.838 1047.92 183.393 1035.49C182.906 1034.43 151.052 960.087 142.352 854.206C169.57 883.218 204.979 905.221 246.247 916.278C363.728 947.757 484.963 877.731 516.454 760.206C546.944 646.418 482.398 529.153 371.658 493.204Z" fill="#B7B7B7"/>
<path d="M369.091 488.704C391.871 463.307 408.644 432.604 417.819 398.364C449.31 280.838 379.329 159.576 261.812 128.088C144.296 96.5991 23.1051 166.599 -8.39523 284.16C-17.5315 318.257 -18.2786 353.369 -11.2223 386.799C-125.163 362.507 -239.801 431.759 -270.3 545.584C-301.791 663.109 -231.811 784.371 -114.294 815.86C-73.0265 826.917 -31.3696 825.602 6.70777 814.086C-53.7573 901.397 -118.508 949.82 -119.421 950.5C-130.39 958.536 -135.806 972.141 -133.308 985.519C-130.81 998.896 -120.872 1009.65 -107.727 1013.17L139.339 1079.37C152.448 1082.88 166.394 1078.53 175.272 1068.24C184.114 1057.94 186.262 1043.46 180.817 1031.03C180.365 1029.98 148.476 955.623 139.776 849.742C166.994 878.754 202.403 900.757 243.67 911.814C361.151 943.293 482.387 873.267 513.878 755.742C544.377 641.918 479.786 524.68 369.091 488.704Z" fill="#A8A8A8"/>
<path d="M366.479 484.23C389.259 458.833 406.032 428.13 415.207 393.889C446.697 276.364 376.717 155.102 259.2 123.614C141.683 92.125 20.4833 162.161 -11.0074 279.686C-20.1437 313.783 -20.8908 348.895 -13.8345 382.325C-127.765 357.997 -242.404 427.249 -272.913 541.11C-304.403 658.635 -234.423 779.897 -116.906 811.385C-75.6388 822.443 -33.9721 821.092 4.0956 809.612C-56.3336 896.932 -121.12 945.346 -122.033 946.026C-133.002 954.062 -138.418 967.667 -135.92 981.045C-133.423 994.422 -123.484 1005.17 -110.339 1008.69L136.726 1074.89C149.836 1078.41 163.782 1074.06 172.66 1063.77C181.502 1053.47 183.65 1038.99 178.205 1026.55C177.717 1025.5 145.863 951.149 137.164 845.267C164.382 874.279 199.791 896.283 241.058 907.34C358.539 938.819 479.775 868.793 511.266 751.268C541.775 637.408 477.219 520.179 366.479 484.23Z" fill="#9A9A9A"/>
<path d="M363.912 479.73C386.692 454.333 403.465 423.63 412.64 389.389C444.131 271.864 374.15 150.602 256.633 119.114C139.117 87.625 17.9262 157.625 -13.5742 275.186C-22.7104 309.283 -23.4576 344.395 -16.3916 377.789C-130.342 353.533 -244.98 422.785 -275.479 536.61C-306.98 654.171 -236.99 775.397 -119.473 806.885C-78.2055 817.943 -36.5389 816.592 1.52883 805.112C-58.9003 892.432 -123.686 940.846 -124.6 941.526C-135.568 949.562 -140.985 963.167 -138.487 976.544C-135.989 989.922 -126.051 1000.67 -112.906 1004.19L134.16 1070.39C147.269 1073.91 161.215 1069.56 170.093 1059.27C178.935 1048.97 181.083 1034.49 175.638 1022.05C175.151 1021 143.297 946.649 134.597 840.767C161.815 869.779 197.224 891.783 238.491 902.84C355.972 934.319 477.199 864.329 508.699 746.768C539.198 632.944 474.607 515.706 363.912 479.73Z" fill="#8B8B8B"/>
<path d="M361.3 475.256C384.08 449.86 400.853 419.156 410.028 384.916C441.518 267.391 371.538 146.128 254.021 114.64C136.504 83.1513 15.3044 153.187 -16.1864 270.712C-25.3226 304.809 -26.0698 339.922 -19.0135 373.351C-132.944 349.024 -247.583 418.276 -278.092 532.136C-309.582 649.661 -239.602 770.923 -122.085 802.412C-80.8177 813.469 -39.1511 812.118 -1.08335 800.638C-61.5125 887.958 -126.299 936.372 -127.212 937.052C-138.181 945.088 -143.597 958.694 -141.099 972.071C-138.602 985.448 -128.663 996.198 -115.518 999.72L131.547 1065.92C144.657 1069.43 158.603 1065.08 167.481 1054.79C176.323 1044.49 178.471 1030.01 173.026 1017.58C172.538 1016.52 140.684 942.175 131.985 836.294C159.203 865.306 194.612 887.309 235.879 898.367C353.36 929.845 474.596 859.819 506.087 742.294C536.586 628.47 472.004 511.196 361.3 475.256Z" fill="#7D7D7D"/>
<path d="M358.734 470.756C381.514 445.359 398.286 414.656 407.461 380.415C438.952 262.89 368.962 141.664 251.445 110.175C133.928 78.6868 12.7018 148.677 -18.7889 266.202C-27.9252 300.299 -28.6723 335.412 -21.6064 368.805C-135.547 344.513 -250.185 413.766 -280.684 527.59C-312.175 645.115 -242.195 766.377 -124.678 797.866C-83.4106 808.923 -41.744 807.572 -3.67626 796.092C-64.1413 883.403 -128.892 931.826 -129.805 932.506C-140.774 940.542 -146.19 954.148 -143.692 967.525C-141.195 980.902 -131.256 991.652 -118.111 995.174L128.955 1061.38C142.064 1064.89 156.046 1060.55 164.888 1050.25C173.73 1039.95 175.878 1025.47 170.433 1013.03C169.981 1011.99 138.092 937.629 129.392 831.748C156.61 860.76 192.019 882.763 233.286 893.821C350.767 925.299 472.003 855.273 503.494 737.748C533.983 623.96 469.437 506.695 358.734 470.756Z" fill="#6E6E6E"/>
<path d="M356.121 466.282C378.901 440.885 395.674 410.182 404.849 375.942C436.34 258.417 366.359 137.154 248.842 105.666C131.326 74.1772 10.1256 144.213 -21.3652 261.738C-30.5015 295.835 -31.2486 330.947 -24.1827 364.341C-138.123 340.049 -252.762 409.302 -283.27 523.162C-314.761 640.687 -244.781 761.949 -127.264 793.438C-85.9965 804.495 -44.3299 803.144 -6.26218 791.664C-66.6914 878.984 -131.478 927.398 -132.391 928.078C-143.359 936.114 -148.776 949.72 -146.278 963.097C-143.78 976.474 -133.842 987.224 -120.697 990.746L126.369 1056.95C139.478 1060.46 153.424 1056.11 162.302 1045.82C171.144 1035.52 173.292 1021.04 167.847 1008.6C167.395 1007.56 135.506 933.201 126.806 827.32C154.024 856.332 189.433 878.335 230.7 889.392C348.181 920.871 469.417 850.845 500.908 733.32C531.417 619.46 466.825 502.222 356.121 466.282Z" fill="#606060"/>
<path d="M356.121 466.282C378.901 440.885 395.674 410.182 404.849 375.942C436.34 258.417 366.359 137.154 248.842 105.666C131.326 74.1772 10.1256 144.213 -21.3652 261.738C-30.5015 295.835 -31.2486 330.947 -24.1827 364.341C-138.123 340.049 -252.762 409.302 -283.27 523.162C-314.761 640.687 -244.781 761.949 -127.264 793.438C-85.9965 804.495 -44.3299 803.144 -6.26218 791.664C-66.6914 878.984 -131.478 927.398 -132.391 928.078C-143.359 936.114 -148.776 949.72 -146.278 963.097C-143.78 976.474 -133.842 987.224 -120.697 990.746L126.369 1056.95C139.478 1060.46 153.424 1056.11 162.302 1045.82C171.144 1035.52 173.292 1021.04 167.847 1008.6C167.395 1007.56 135.506 933.201 126.806 827.32C154.024 856.332 189.433 878.335 230.7 889.392C348.181 920.871 469.417 850.845 500.908 733.32C531.417 619.46 466.825 502.222 356.121 466.282Z" fill="white"/>
<path d="M98.9172 665.194C31.8401 851.743 -111.541 956.577 -111.541 956.577L11.9734 989.673L135.488 1022.77C135.524 1022.78 63.7694 860.298 98.9172 665.194Z" fill="black"/>
<path d="M83.244 723.687C32.6576 867.943 -70.1446 950.918 -70.1446 950.918L16.1613 974.043L102.467 997.169C102.513 997.143 54.9614 873.919 83.244 723.687Z" fill="url(#paint0_radial_1_793)"/>
<path d="M335.82 497.079C311.254 490.496 286.534 489.226 262.83 492.501C262.435 491.818 262.041 491.135 261.702 490.389C313.454 469.213 355.133 425.005 370.738 366.763C397.233 267.885 338.547 166.247 239.706 139.763C140.866 113.278 39.2684 171.931 12.7646 270.844C-3.92906 333.146 13.1916 396.537 52.8654 441.556C32.0103 422.99 6.65111 408.878 -22.1535 401.16C-121.03 374.666 -222.646 433.39 -249.141 532.268C-275.635 631.146 -216.985 732.775 -118.108 759.269C-21.8537 785.06 76.9483 730.087 106.574 635.9C106.699 636.01 106.787 636.111 106.892 636.293C85.6015 732.56 143.719 829.425 239.866 855.187C338.706 881.672 440.313 822.983 466.807 724.106C493.301 625.228 434.661 523.563 335.82 497.079Z" fill="black"/>
<path d="M306.831 502.405C285.785 496.765 264.634 495.68 244.355 498.526C244.013 497.934 243.671 497.342 243.375 496.723C287.688 478.598 323.397 440.723 336.75 390.889C359.442 306.204 309.194 219.188 224.541 196.505C139.887 173.822 52.8994 224.066 30.208 308.752C15.9211 362.071 30.5889 416.371 64.5369 454.888C46.6772 438.935 24.9633 426.878 0.324991 420.276C-84.3288 397.594 -171.326 447.873 -194.017 532.559C-216.699 617.209 -166.497 704.251 -81.8436 726.934C0.547469 749.011 85.1811 701.948 110.519 621.322C110.617 621.387 110.705 621.488 110.784 621.624C92.5868 704.048 142.308 786.995 224.663 809.062C309.281 831.735 396.268 781.491 418.96 696.806C441.651 612.12 391.449 525.078 306.831 502.405Z" fill="url(#paint1_radial_1_793)"/>
<path d="M63.1062 453.619C63.1062 453.619 21.7117 407.407 -62.9638 416.411C-62.9638 416.411 -176.646 429.658 -198.751 550.083C-198.751 550.083 -186.125 465.319 -101.801 433.924C-17.4774 402.529 64.5369 454.888 64.5369 454.888" fill="url(#paint2_radial_1_793)"/>
<path d="M288.002 230.183C288.002 230.183 246.607 183.972 161.941 192.94C161.941 192.94 48.259 206.186 26.1538 326.612C26.1538 326.612 38.7806 241.848 123.104 210.452C207.428 179.057 289.442 231.417 289.442 231.417" fill="url(#paint3_radial_1_793)"/>
<path d="M211.113 506.216C211.113 506.216 266.219 477.698 342.191 516.115C342.191 516.115 443.781 568.829 421.712 689.264C421.712 689.264 439.985 605.551 372.294 546.285C304.602 487.02 209.326 506.854 209.326 506.854" fill="url(#paint4_radial_1_793)"/>
<path d="M82.3257 726.253C82.3257 726.253 46.0971 871.659 -70.171 950.872C-70.1351 950.882 34.0964 866.595 82.3257 726.253Z" fill="url(#paint5_radial_1_793)"/>
</g>
<defs>
<radialGradient id="paint0_radial_1_793" cx="0" cy="0" r="1" gradientUnits="userSpaceOnUse" gradientTransform="translate(-376.979 326.058) rotate(15) scale(756.323 756.607)">
<stop stop-color="white"/>
<stop offset="1"/>
</radialGradient>
<radialGradient id="paint1_radial_1_793" cx="0" cy="0" r="1" gradientUnits="userSpaceOnUse" gradientTransform="translate(-442.169 -290.981) rotate(15) scale(1094.45 1094.86)">
<stop stop-color="white"/>
<stop offset="1"/>
</radialGradient>
<radialGradient id="paint2_radial_1_793" cx="0" cy="0" r="1" gradientUnits="userSpaceOnUse" gradientTransform="translate(-127.132 421.849) rotate(15) scale(197.194 197.268)">
<stop stop-color="white"/>
<stop offset="1"/>
</radialGradient>
<radialGradient id="paint3_radial_1_793" cx="0" cy="0" r="1" gradientUnits="userSpaceOnUse" gradientTransform="translate(97.7535 198.404) rotate(15) scale(197.192 197.266)">
<stop stop-color="white"/>
<stop offset="1"/>
</radialGradient>
<radialGradient id="paint4_radial_1_793" cx="0" cy="0" r="1" gradientUnits="userSpaceOnUse" gradientTransform="translate(653.723 283.209) rotate(15) scale(499.578 499.765)">
<stop stop-color="white"/>
<stop offset="1"/>
</radialGradient>
<radialGradient id="paint5_radial_1_793" cx="0" cy="0" r="1" gradientUnits="userSpaceOnUse" gradientTransform="translate(-50.7322 756.657) rotate(15) scale(208.797 208.876)">
<stop stop-color="white"/>
<stop offset="1"/>
</radialGradient>
</defs>
</svg>
