<svg width="40" height="40" viewBox="0 0 40 40" fill="none" xmlns="http://www.w3.org/2000/svg">
<path fill-rule="evenodd" clip-rule="evenodd" d="M5.45218 32.3658C4.84958 32.9684 4.84958 33.9454 5.45218 34.548C6.05477 35.1506 7.03178 35.1506 7.63437 34.548L17 25.1823L14.8177 23.0002L5.45218 32.3658ZM23 25.1823L25.1823 23.0002L34.5478 32.3658C35.1504 32.9684 35.1504 33.9455 34.5478 34.5481C33.9452 35.1507 32.9682 35.1507 32.3656 34.5481L23 25.1823ZM23 14.8179L25.1823 17L34.5481 7.63415C35.1506 7.03156 35.1506 6.05455 34.5481 5.45195C33.9455 4.84935 32.9685 4.84935 32.3659 5.45195L23 14.8179ZM5.45195 5.45198C6.05454 4.84938 7.03154 4.84938 7.63414 5.45198L17 14.8179L14.8177 17L5.45195 7.63419C4.84935 7.03159 4.84935 6.05458 5.45195 5.45198Z" fill="white"/>
</svg>
