<svg width="32" height="33" viewBox="0 0 32 33" fill="none" xmlns="http://www.w3.org/2000/svg">
<g clip-path="url(#clip0_1_894)">
<path d="M10.5088 5.64741C13.0954 4.07334 16.1146 3.19371 18.8935 5.02704C21.246 6.58259 23.7685 7.44988 26.4608 7.62889C26.7118 7.64669 26.9474 7.7517 27.1229 7.92405C27.2983 8.0964 27.4013 8.32411 27.4127 8.56407C27.4896 10.3604 27.48 12.1227 27.3838 13.8511C27.0281 20.027 21.6531 24.6474 16.6723 27.8696C15.7813 28.4437 14.887 28.456 13.9896 27.9067C6.42226 23.277 1.78764 17.4252 3.27803 8.26778C3.29555 8.15897 3.34738 8.05797 3.42649 7.97847C3.50561 7.89898 3.60819 7.84482 3.72034 7.82333C6.05688 7.36963 8.47034 6.89741 10.5088 5.64741Z" fill="#4BA621"/>
<g filter="url(#filter0_ii_1_894)">
<path d="M11.1208 7.23251C13.2557 5.91351 15.7477 5.17641 18.0414 6.71266C19.9832 8.01614 22.0651 8.7429 24.2873 8.8929C24.4946 8.9078 24.6891 8.9958 24.8339 9.14022C24.9787 9.28465 25.0638 9.47546 25.0731 9.67654C25.1366 11.1818 25.1287 12.6585 25.0493 14.1069C24.7556 19.282 20.3192 23.1536 16.2081 25.8537C15.4726 26.3347 14.7345 26.3451 13.9938 25.8847C7.7478 22.0053 3.92243 17.1018 5.15258 9.42826C5.16704 9.33708 5.20982 9.25245 5.27512 9.18583C5.34042 9.11922 5.42509 9.07383 5.51766 9.05583C7.44621 8.67565 9.43826 8.27995 11.1208 7.23251Z" fill="#4BA621"/>
</g>
</g>
<defs>
<filter id="filter0_ii_1_894" x="2.9231" y="3.85205" width="24.1923" height="24.3706" filterUnits="userSpaceOnUse" color-interpolation-filters="sRGB">
<feFlood flood-opacity="0" result="BackgroundImageFix"/>
<feBlend mode="normal" in="SourceGraphic" in2="BackgroundImageFix" result="shape"/>
<feColorMatrix in="SourceAlpha" type="matrix" values="0 0 0 0 0 0 0 0 0 0 0 0 0 0 0 0 0 0 127 0" result="hardAlpha"/>
<feOffset dx="2" dy="2"/>
<feGaussianBlur stdDeviation="2"/>
<feComposite in2="hardAlpha" operator="arithmetic" k2="-1" k3="1"/>
<feColorMatrix type="matrix" values="0 0 0 0 0 0 0 0 0 0 0 0 0 0 0 0 0 0 0.25 0"/>
<feBlend mode="normal" in2="shape" result="effect1_innerShadow_1_894"/>
<feColorMatrix in="SourceAlpha" type="matrix" values="0 0 0 0 0 0 0 0 0 0 0 0 0 0 0 0 0 0 127 0" result="hardAlpha"/>
<feOffset dx="-2" dy="-2"/>
<feGaussianBlur stdDeviation="2"/>
<feComposite in2="hardAlpha" operator="arithmetic" k2="-1" k3="1"/>
<feColorMatrix type="matrix" values="0 0 0 0 0 0 0 0 0 0 0 0 0 0 0 0 0 0 0.25 0"/>
<feBlend mode="normal" in2="effect1_innerShadow_1_894" result="effect2_innerShadow_1_894"/>
</filter>
<clipPath id="clip0_1_894">
<rect width="25" height="25" fill="white" transform="translate(3 4)"/>
</clipPath>
</defs>
</svg>
