<svg width="420" height="25" viewBox="0 0 420 25" fill="none" xmlns="http://www.w3.org/2000/svg">
<path fill-rule="evenodd" clip-rule="evenodd" d="M178.379 2.48413C158.647 3.27736 139.147 4.25271 120.131 5.31902C93.2121 6.82745 66.3036 8.38791 39.5573 10.8586C31.1382 11.6388 22.5884 12.133 14.2219 13.1082C8.96996 13.7194 2.00597 14.5905 1.09203 14.7726C0.614006 14.8766 0.40546 15.0328 0.338073 15.0848C-0.135742 15.4489 -0.049288 15.7999 0.218154 16.073C0.325552 16.19 0.597129 16.4762 1.35102 16.5152C51.7691 19.181 103.324 13.9795 153.803 13.4333C241.343 12.4971 331.536 16.2161 418.381 24.3305C419.139 24.3955 419.877 24.0703 419.982 23.5891C420.108 23.121 419.561 22.6659 418.803 22.6009C331.81 14.4735 241.47 10.7414 153.761 11.6907C106.717 12.1979 58.7436 16.7623 11.6338 15.2018C12.7162 15.0718 13.7776 14.9417 14.7463 14.8247C23.0791 13.8494 31.5931 13.3683 39.9785 12.5881C66.668 10.1173 93.5217 8.5569 120.405 7.06147C153.761 5.18893 188.571 3.57646 223.654 2.82224C236.205 2.93928 248.714 3.05636 261.222 3.1994C288.282 3.51149 315.469 4.42176 342.466 5.64411C350.594 6.02122 358.723 6.4113 366.851 6.74939C369.547 6.86643 376.496 7.20447 377.465 7.17846C378.665 7.15245 378.897 6.52833 378.918 6.4243C378.981 6.19023 378.939 5.86512 378.349 5.59204C378.286 5.55303 377.907 5.42291 377.065 5.34489C327.978 0.741572 275.563 -0.025527 223.696 1.07979C168.987 0.598652 114.066 0.390497 59.4955 0.169434C58.7142 0.169434 58.0761 0.559602 58.0698 1.04074C58.0656 1.52188 58.6952 1.91206 59.4764 1.92506C98.9905 2.08111 138.705 2.23706 178.379 2.48413Z" fill="#EE1C47"/>
</svg>
