<svg width="81" height="81" viewBox="0 0 81 81" fill="none" xmlns="http://www.w3.org/2000/svg">
<g id="Hicon / Bold / Tick Circle">
<g id="Tick Circle">
<path id="Vector" fill-rule="evenodd" clip-rule="evenodd" d="M40.3125 73.9062C58.8658 73.9062 73.9062 58.8658 73.9062 40.3125C73.9062 21.7592 58.8658 6.71875 40.3125 6.71875C21.7592 6.71875 6.71875 21.7592 6.71875 40.3125C6.71875 58.8658 21.7592 73.9062 40.3125 73.9062ZM58.9865 31.915C59.9147 30.8783 59.8267 29.2854 58.79 28.3572C57.7533 27.4291 56.1604 27.5171 55.2322 28.5538L43.9139 41.1957C41.6205 43.7574 40.076 45.4734 38.7555 46.5833C37.4976 47.6406 36.7587 47.8711 36.1133 47.8711C35.4678 47.8711 34.729 47.6406 33.4711 46.5833C32.1506 45.4734 30.6061 43.7573 28.3126 41.1957L25.3928 37.9344C24.4646 36.8977 22.8717 36.8097 21.835 37.7378C20.7983 38.666 20.7103 40.2589 21.6385 41.2956L24.6831 44.6962C26.8192 47.0823 28.6009 49.0724 30.2288 50.4408C31.951 51.8882 33.8085 52.9102 36.1133 52.9102C38.4181 52.9102 40.2756 51.8883 41.9977 50.4408C43.6257 49.0725 45.4074 47.0823 47.5434 44.6963L58.9865 31.915Z" fill="#E8EF1D"/>
</g>
</g>
</svg>
