<svg width="12" height="12" viewBox="0 0 12 12" fill="none" xmlns="http://www.w3.org/2000/svg">
<g id="Up 1">
<path id="Vector" d="M9.22887 3.05987C9.14526 2.95184 9.04829 2.85487 8.94026 2.77126C8.69386 2.58058 8.40753 2.50279 8.08412 2.46748C7.7731 2.43351 7.38419 2.43525 6.90834 2.43738L5.6449 2.44302C5.4378 2.44395 5.27066 2.61259 5.27158 2.81969C5.27251 3.0268 5.44115 3.19394 5.64825 3.19301L6.88932 3.18748C7.393 3.18523 7.73908 3.18425 8.0027 3.21304C8.08837 3.2224 8.15997 3.23445 8.22077 3.24903L2.90654 8.56326C2.76009 8.70971 2.76009 8.94714 2.90654 9.09359C3.05299 9.24004 3.29042 9.24004 3.43687 9.09359L8.7511 3.77936C8.76567 3.84016 8.77773 3.91176 8.78709 3.99743C8.81588 4.26105 8.8149 4.60712 8.81265 5.11081L8.80711 6.35188C8.80619 6.55898 8.97333 6.72762 9.18044 6.72855C9.38754 6.72947 9.55618 6.56233 9.55711 6.35522L9.56274 5.09179C9.56488 4.61594 9.56662 4.22702 9.53265 3.91601C9.49734 3.5926 9.41955 3.30626 9.22887 3.05987Z" fill="#FAFAFA"/>
</g>
</svg>
