<svg width="374" height="10" viewBox="0 0 374 10" fill="none" xmlns="http://www.w3.org/2000/svg">
<path fill-rule="evenodd" clip-rule="evenodd" d="M244.798 7.91282C244.694 7.87234 241.731 7.93442 238.214 8.05044C233.687 8.19989 231.815 8.19081 231.804 8.01972C231.792 7.84179 231.696 7.84343 231.438 8.02563C231.217 8.18206 229.832 8.29365 227.675 8.32884C223.688 8.39409 220.855 8.46188 219.999 8.5127C219.231 8.55821 202.817 8.89147 202.816 8.86157C202.815 8.84932 201.608 8.85399 200.133 8.87181C196.472 8.91606 196.579 8.928 196.904 8.5086C197.125 8.22309 196.994 8.24588 196.35 8.60455C195.702 8.96498 195.108 9.06684 193.797 9.04245C192.858 9.02505 191.267 9.02939 190.261 9.05208C189.089 9.07863 188.43 8.99422 188.424 8.81692C188.412 8.48848 187.592 8.4732 187.356 8.79705C187.266 8.92154 186.538 9.03965 185.739 9.05961C180.861 9.18185 179.863 9.1677 179.534 8.97198C179.278 8.81987 179.169 8.83237 179.169 9.0138C179.171 9.19605 178.176 9.30774 175.842 9.38792C174.01 9.45083 172.37 9.44732 172.196 9.38013C172.022 9.31294 169.954 9.29208 167.601 9.33362C158.153 9.50099 156.255 9.48947 155.529 9.2604C155.113 9.129 154.775 9.10631 154.778 9.20991C154.782 9.31372 154.371 9.41263 153.866 9.42998C153.317 9.44884 153.04 9.35069 153.178 9.18652C153.492 8.81283 153.047 8.85472 152.125 9.28546C151.44 9.6056 151.146 9.618 149.234 9.40702C148.057 9.27739 146.825 9.25632 146.48 9.36005C146.135 9.46354 145.614 9.51804 145.32 9.48116C145.026 9.44449 143.578 9.41482 142.103 9.4154C136.429 9.41737 133.537 9.37454 132.829 9.27766C132.425 9.22254 130.966 9.23379 129.587 9.30278C128.208 9.37176 126.95 9.34513 126.792 9.24393C126.633 9.14254 125.977 9.12079 125.333 9.19572C124.689 9.27042 122.896 9.2632 121.348 9.17982C119.8 9.09621 117.523 9.02727 116.287 9.02648C115.051 9.02568 113.381 8.99972 112.575 8.96878C111.769 8.93785 109.792 8.90639 108.182 8.89871C103.14 8.87525 95.228 8.64109 94.5864 8.49643C94.3583 8.44523 93.0401 8.41256 91.6571 8.42411C88.5287 8.45008 87.2847 8.37516 85.4447 8.04967C84.6182 7.90346 84.0009 7.88371 84.005 8.00371C84.0136 8.25243 79.9452 8.15105 79.7013 7.89649C79.6138 7.80513 79.2295 7.79256 78.8467 7.86868C78.4015 7.95735 78.1469 7.87277 78.1387 7.63381C78.1265 7.27921 78.0939 7.28074 77.4822 7.66591C77.062 7.93019 76.6065 8.01859 76.1714 7.91983C75.8046 7.83661 74.8357 7.76056 74.0183 7.75059C73.2009 7.74084 72.4601 7.64801 72.3712 7.54444C72.2766 7.43357 71.7629 7.44436 71.1238 7.57065C70.1349 7.76592 66.1242 7.59916 63.9799 7.27352C63.5753 7.21217 62.9488 7.19316 62.5882 7.23111C62.1794 7.27425 62.069 7.19864 62.2954 7.03082C62.5609 6.8338 62.4095 6.81447 61.732 6.95934C60.3882 7.24661 57.7255 7.23933 56.1261 6.94403C55.3637 6.8033 54.0474 6.71195 53.2011 6.74102C52.3543 6.77011 49.8703 6.67002 47.6812 6.51864C45.4916 6.36749 43.0961 6.21406 42.3568 6.17793C41.5589 6.13903 41.0084 5.97731 41.0016 5.77966C40.9922 5.50313 40.8641 5.49609 40.248 5.7382C39.6854 5.95915 39.3664 5.97613 38.9334 5.80892C38.6185 5.68734 37.844 5.60565 37.2125 5.62733C35.0204 5.70263 31.7188 5.3575 31.7083 5.05189C31.7024 4.87916 31.4634 4.82356 31.1418 4.92003C30.8362 5.0118 30.2844 4.92495 29.9157 4.72685C29.5474 4.52852 29.2496 4.47785 29.2542 4.61384C29.2589 4.74982 28.7146 4.87993 28.0447 4.90294C27.3747 4.92595 26.823 4.84139 26.8187 4.71495C26.8143 4.58852 26.4663 4.5537 26.0458 4.63736C24.6727 4.91067 22.9156 4.65342 22.882 4.17442C22.852 3.73917 22.8373 3.73884 22.1498 4.1578C21.4555 4.58114 21.4482 4.58139 21.4272 4.18262C21.4111 3.8851 21.3013 3.85541 21.0062 4.06883C20.6797 4.30474 20.2563 4.30577 18.6966 4.07395C17.6464 3.91776 15.796 3.70174 14.585 3.59368C9.55004 3.14492 7.72965 2.79277 8.06458 2.33271C8.16288 2.19797 7.97603 2.02709 7.64958 1.95287C7.27249 1.8673 7.18585 1.90125 7.41228 2.04583C8.54301 2.76982 4.8808 2.72018 3.22984 1.98932C2.74589 1.77501 2.33476 1.72096 2.23461 1.85846C2.14098 1.98722 1.74375 1.85495 1.35182 1.56453C0.742153 1.1126 0.73707 1.00718 1.3155 0.8335C2.29225 0.54013 3.754 0.889008 3.81305 1.42948C3.85709 1.83121 3.90519 1.83974 4.20027 1.49745C4.60045 1.03412 5.20372 0.973071 5.78695 1.33674C6.07407 1.51582 6.20839 1.52077 6.20797 1.35222C6.20717 1.17286 6.57843 1.17403 7.5569 1.3566C8.29971 1.49508 9.29098 1.59573 9.75973 1.58046C10.2285 1.56498 10.6171 1.68965 10.6229 1.8574C10.6293 2.043 10.9173 2.10565 11.3601 2.01769C11.7598 1.93807 12.4727 1.92897 12.9448 1.99714C13.4164 2.06554 14.3485 2.13309 15.0158 2.14717C16.7903 2.18496 18.521 2.56762 18.2693 2.86685C18.1428 3.01732 18.3946 3.09223 18.8681 3.04478C19.3178 2.99982 19.8396 3.10807 20.0281 3.28534C20.326 3.56569 20.3736 3.55948 20.3923 3.23812C20.4095 2.94237 20.7297 2.87712 22.0006 2.91059C26.2274 3.0219 30.1351 3.5601 29.8215 3.98741C29.6696 4.19446 29.8047 4.22287 30.2701 4.08175C31.1768 3.80701 32.2332 3.71668 32.8591 3.86063C33.1448 3.92627 33.8177 3.97591 34.3541 3.97079C35.1807 3.96318 38.7229 4.15372 43.884 4.48362C44.5562 4.52642 45.6561 4.59506 46.3282 4.63621C47.0004 4.67714 47.7151 4.80786 47.9163 4.92691C48.1652 5.07405 48.2812 5.05634 48.2802 4.87118C48.279 4.72156 48.5186 4.65368 48.8126 4.72049C49.1066 4.78709 49.2468 5.01861 49.1244 5.23461C48.8779 5.66856 49.6254 5.66056 50.64 5.2181C51.4354 4.8711 52.1324 4.84258 54.9067 5.04432C56.1019 5.1311 57.0836 5.32291 57.0887 5.47052C57.098 5.74332 58.2565 5.72702 58.8581 5.44591C59.0395 5.36111 59.4858 5.3859 59.8497 5.50061C60.3384 5.65489 60.5094 5.64652 60.5033 5.46901C60.4976 5.30459 60.7661 5.28082 61.3543 5.39385C62.3536 5.58567 64.7549 5.70793 67.7397 5.71828C68.8979 5.72257 70.1328 5.81629 70.4834 5.9271C70.8345 6.03767 72.0851 6.13211 73.2628 6.13656C74.441 6.14119 75.5696 6.14857 75.7707 6.1531C75.9718 6.15741 76.1581 6.32395 76.1834 6.52325C76.2219 6.81958 76.2885 6.82685 76.5506 6.5626C76.8713 6.24001 79.0818 6.07637 80.5308 6.26813C81.5633 6.40477 85.585 6.4957 89.2781 6.46592C90.9996 6.4521 92.6713 6.52376 92.9929 6.62517C93.3144 6.72657 94.1027 6.78326 94.7445 6.75103C96.6213 6.65706 105.154 6.8485 105.43 6.99075C105.568 7.06249 106.23 7.10086 106.9 7.0764C107.57 7.05173 108.507 7.15093 108.981 7.29697C109.641 7.49982 109.842 7.5 109.835 7.298C109.828 7.11966 110.182 7.06905 110.927 7.14159C111.533 7.2008 112.724 7.21517 113.574 7.1735C114.424 7.13182 115.263 7.18907 115.437 7.30053C115.646 7.43428 116.053 7.42468 116.628 7.2725C117.109 7.1454 117.657 7.10083 117.844 7.17357C118.033 7.24609 119.106 7.30067 120.23 7.2945C123.459 7.27712 127.129 7.28889 127.396 7.31775C127.531 7.33224 128.353 7.30318 129.223 7.25291C130.13 7.20056 130.809 7.26205 130.814 7.39721C130.818 7.52697 131.039 7.56781 131.305 7.48802C131.57 7.40822 131.791 7.44201 131.795 7.56284C131.799 7.68367 132.035 7.77472 132.319 7.76498C132.602 7.75524 132.696 7.65848 132.526 7.54998C132.357 7.44149 132.67 7.3372 133.221 7.31826C133.773 7.29931 134.227 7.35439 134.23 7.44055C134.233 7.52691 135.716 7.55517 137.525 7.50343C139.334 7.4519 141.694 7.4492 142.768 7.49751C143.843 7.5456 145.228 7.55979 145.845 7.52881C146.54 7.49392 146.845 7.56326 146.646 7.71061C146.415 7.88191 146.604 7.875 147.318 7.68627C148.452 7.38625 152.758 7.18703 152.766 7.43409C152.775 7.68676 154.846 7.62247 155.546 7.34777C155.959 7.18559 156.172 7.17494 156.177 7.31632C156.181 7.43383 156.621 7.4659 157.155 7.38791C157.689 7.3097 158.128 7.32682 158.132 7.42565C158.135 7.52468 159.669 7.54078 161.541 7.46133C163.957 7.35879 164.851 7.38839 164.621 7.56337C164.444 7.69896 164.666 7.6687 165.114 7.49658C165.562 7.32425 165.932 7.26479 165.935 7.36444C165.939 7.46387 167.406 7.49829 169.195 7.44078C171.363 7.3711 172.52 7.42095 172.662 7.59026C172.826 7.78501 173.033 7.78226 173.55 7.57908C173.922 7.43329 174.232 7.39541 174.239 7.49493C174.247 7.59423 174.449 7.53409 174.688 7.36084C175.036 7.10861 175.367 7.08476 176.351 7.24094C177.288 7.3896 177.635 7.37499 177.81 7.17897C177.96 7.01169 178.183 6.98969 178.45 7.11584C178.675 7.22243 179.847 7.28197 181.053 7.24802C182.259 7.21408 183.796 7.2197 184.468 7.26043C185.14 7.30115 185.956 7.23383 186.282 7.11062C186.668 6.96451 187.354 6.94138 188.257 7.044C189.018 7.13031 190.589 7.13208 191.747 7.04781C192.906 6.96333 194.545 6.95173 195.389 7.02165C196.234 7.0918 197.386 7.06013 197.949 6.95118C198.826 6.78202 198.943 6.81999 198.759 7.21313C198.593 7.56867 198.653 7.6015 199.026 7.35755C199.622 6.96814 202.496 6.74389 202.518 7.08485C202.527 7.22546 202.728 7.18987 202.995 7.00027C203.249 6.82007 203.463 6.75411 203.471 6.85341C203.478 6.95293 203.79 6.91436 204.164 6.76767C204.941 6.46222 205.702 6.7566 205.165 7.15524C204.986 7.28753 205.415 7.21378 206.118 6.99135C207.277 6.62435 208.349 6.56924 217.743 6.3944C223.434 6.28851 228.583 6.18044 229.186 6.15433C229.789 6.12842 230.285 6.19058 230.288 6.29273C230.292 6.39487 230.637 6.46658 231.054 6.45224C231.472 6.4379 231.687 6.34488 231.532 6.24566C231.127 5.98624 237.033 5.92513 237.698 6.18186C238.054 6.31948 238.539 6.31612 239.084 6.17209C239.544 6.05027 240.659 5.92219 241.56 5.8875C242.462 5.85258 244.13 5.76948 245.268 5.70276C246.833 5.61077 247.342 5.6571 247.355 5.89235C247.369 6.12239 247.471 6.13324 247.747 5.93398C248.144 5.64722 250.327 5.54936 263.91 5.20859C272.917 4.98279 272.157 5.0066 278.488 4.75028C282.168 4.60122 283.62 4.61412 283.774 4.79737C283.89 4.93616 284.187 5.04301 284.432 5.03457C284.678 5.02614 284.82 4.90423 284.748 4.7639C284.589 4.45321 287.848 4.29493 288.393 4.58673C288.621 4.70862 288.758 4.68687 288.757 4.52851C288.756 4.37285 289.414 4.26319 290.462 4.2438C291.401 4.22674 292.171 4.2855 292.174 4.37478C292.177 4.46384 292.671 4.46827 293.272 4.38487C294.9 4.15829 304.204 3.87616 304.892 4.03231C305.27 4.11808 305.359 4.08507 305.136 3.94244C304.633 3.62051 308.394 3.62478 309.416 3.94738C310.093 4.16088 310.215 4.15253 310.206 3.89426C310.199 3.67814 310.69 3.58083 311.887 3.56197C312.816 3.54708 313.707 3.58509 313.865 3.64617C314.023 3.70745 314.959 3.65204 315.944 3.52301C316.929 3.39419 318.671 3.31108 319.816 3.33869C321.641 3.38243 321.906 3.455 321.972 3.92933C322.047 4.45266 322.058 4.44977 322.337 3.84426C322.618 3.23537 322.712 3.21404 325.789 3.06015C327.529 2.97314 329.39 2.8475 329.924 2.78134C330.459 2.71497 331.125 2.72908 331.405 2.81257C331.947 2.97397 333.026 2.9155 333.823 2.68172C334.089 2.60379 334.965 2.55893 335.771 2.58197C336.577 2.60481 337.455 2.6023 337.722 2.57649C337.99 2.55067 340.4 2.42071 343.078 2.28797C345.757 2.15503 348.681 1.96293 349.576 1.86089C350.755 1.72644 351.463 1.7649 352.141 2.00037C352.754 2.21275 353.076 2.2368 353.071 2.06968C353.065 1.90566 353.654 1.8154 354.715 1.81803C355.624 1.82005 356.733 1.67823 357.18 1.50284C357.878 1.22861 358.057 1.22351 358.446 1.46644C358.76 1.66287 358.898 1.66998 358.897 1.48959C358.896 1.34662 359.349 1.21426 359.903 1.19524C360.703 1.16774 360.857 1.25847 360.654 1.63709C360.514 1.89904 360.52 1.99235 360.669 1.84444C360.818 1.69633 361.154 1.56797 361.415 1.559C361.677 1.55001 361.753 1.66421 361.585 1.81299C361.417 1.96156 361.695 1.84724 362.204 1.55851C362.995 1.10959 363.174 1.08099 363.444 1.36003C363.832 1.76242 365.056 1.74655 365.402 1.33455C365.664 1.02227 366.503 0.968958 367.509 1.20024C368.217 1.3632 369.735 1.08533 370.243 0.699762C370.749 0.315506 373.008 0.246865 373.021 0.615376C373.036 1.05136 371.954 1.38307 369.846 1.58805C368.797 1.68998 367.284 1.87603 366.483 2.00122C365.682 2.12641 364.699 2.24106 364.297 2.25612C363.895 2.27096 363.02 2.36524 362.353 2.46569C360.446 2.75234 356.025 3.20079 353.36 3.37798C352.021 3.46698 349.941 3.63132 348.738 3.74333C347.534 3.85534 342.934 4.11874 338.514 4.32895C334.094 4.53895 329.383 4.78827 328.045 4.88266C321.951 5.31315 311.089 5.76083 310.321 5.61304C309.856 5.52363 309.212 5.52973 308.89 5.62622C308.569 5.72291 307.2 5.77969 305.849 5.75231C304.498 5.72491 303.296 5.77367 303.179 5.86063C302.965 6.01909 245.157 8.05121 244.798 7.91282ZM310 4.98782C310.162 4.86794 310.062 4.77785 309.778 4.78758C309.494 4.79733 309.265 4.89873 309.269 5.01292C309.273 5.12711 309.373 5.21722 309.491 5.21315C309.61 5.20908 309.838 5.10769 310 4.98782ZM334.097 3.5366C333.802 3.31808 333.48 3.14208 333.38 3.14551C333.28 3.14892 333.32 3.33461 333.468 3.55818C333.616 3.78174 333.939 3.95773 334.185 3.94928C334.432 3.94079 334.392 3.75612 334.097 3.5366ZM293.656 4.92561C293.652 4.81142 293.553 4.72131 293.434 4.72537C293.316 4.72944 293.087 4.83083 292.925 4.95071C292.764 5.07059 292.864 5.16068 293.147 5.15094C293.431 5.1412 293.66 5.03979 293.656 4.92561ZM221.535 7.07873C221.529 6.90081 221.306 6.82031 221.041 6.9001C220.775 6.97989 220.561 7.13296 220.565 7.2405C220.568 7.34805 220.791 7.42834 221.059 7.41913C221.327 7.40993 221.541 7.25665 221.535 7.07873ZM367.417 0.93381C367.245 0.823545 366.902 0.793961 366.654 0.868342C366.407 0.942516 366.201 0.904269 366.197 0.783439C366.186 0.466001 366.945 0.48733 367.662 0.82479C368.002 0.984607 368.156 1.11962 368.005 1.12481C367.854 1.12998 367.589 1.04409 367.417 0.93381ZM137.183 8.22145C137.18 8.10726 137.08 8.01715 136.961 8.02122C136.843 8.02528 136.614 8.12667 136.453 8.24655C136.291 8.36643 136.391 8.45652 136.675 8.44678C136.958 8.43704 137.187 8.33563 137.183 8.22145ZM15.135 2.80697C14.7806 2.67011 14.5531 2.66566 14.5576 2.79563C14.5671 3.07279 15.1519 3.29859 15.4722 3.14875C15.6085 3.08503 15.4569 2.93123 15.135 2.80697Z" fill="#80B341"/>
</svg>
