<svg width="373" height="10" viewBox="0 0 373 10" fill="none" xmlns="http://www.w3.org/2000/svg">
<path fill-rule="evenodd" clip-rule="evenodd" d="M243.921 7.91276C243.817 7.87228 240.854 7.93436 237.337 8.05038C232.81 8.19983 230.938 8.19075 230.927 8.01966C230.915 7.84173 230.819 7.84336 230.561 8.02557C230.34 8.182 228.955 8.29359 226.798 8.32878C222.811 8.39403 219.978 8.46181 219.122 8.51264C218.354 8.55814 201.94 8.89141 201.939 8.86151C201.938 8.84926 200.731 8.85393 199.256 8.87175C195.596 8.916 195.702 8.92794 196.027 8.50854C196.248 8.22303 196.117 8.24582 195.473 8.60449C194.825 8.96491 194.231 9.06678 192.92 9.04239C191.981 9.02499 190.39 9.02933 189.384 9.05202C188.212 9.07857 187.553 8.99416 187.547 8.81686C187.535 8.48842 186.715 8.47314 186.479 8.79699C186.389 8.92148 185.661 9.03959 184.862 9.05955C179.984 9.18179 178.986 9.16764 178.657 8.97192C178.401 8.81981 178.292 8.83231 178.292 9.01374C178.294 9.19599 177.299 9.30768 174.965 9.38786C173.133 9.45077 171.493 9.44725 171.319 9.38007C171.145 9.31288 169.077 9.29202 166.724 9.33356C157.276 9.50093 155.378 9.48941 154.653 9.26034C154.236 9.12894 153.898 9.10625 153.902 9.20985C153.905 9.31366 153.494 9.41257 152.989 9.42992C152.44 9.44878 152.163 9.35063 152.301 9.18646C152.615 8.81277 152.17 8.85466 151.248 9.2854C150.563 9.60554 150.269 9.61794 148.357 9.40696C147.18 9.27733 145.948 9.25626 145.603 9.35999C145.258 9.46348 144.737 9.51798 144.443 9.4811C144.149 9.44443 142.701 9.41475 141.226 9.41534C135.552 9.41731 132.66 9.37447 131.953 9.2776C131.548 9.22248 130.089 9.23373 128.71 9.30271C127.331 9.3717 126.073 9.34507 125.915 9.24387C125.756 9.14248 125.1 9.12073 124.456 9.19566C123.812 9.27036 122.019 9.26314 120.471 9.17976C118.923 9.09615 116.646 9.02721 115.41 9.02642C114.175 9.02562 112.504 8.99965 111.698 8.96872C110.892 8.93779 108.915 8.90633 107.305 8.89865C102.263 8.87519 94.351 8.64103 93.7095 8.49637C93.4814 8.44517 92.1632 8.4125 90.7801 8.42405C87.6517 8.45002 86.4077 8.3751 84.5677 8.04961C83.7412 7.9034 83.124 7.88365 83.1281 8.00365C83.1366 8.25237 79.0683 8.15099 78.8244 7.89643C78.7369 7.80507 78.3525 7.7925 77.9698 7.86862C77.5245 7.95729 77.2699 7.87271 77.2617 7.63374C77.2495 7.27914 77.2169 7.28068 76.6052 7.66585C76.1851 7.93013 75.7296 8.01853 75.2945 7.91977C74.9277 7.83655 73.9587 7.7605 73.1413 7.75053C72.3239 7.74078 71.5831 7.64795 71.4942 7.54438C71.3997 7.43351 70.8859 7.4443 70.2468 7.57059C69.2579 7.76586 65.2473 7.5991 63.1029 7.27346C62.6984 7.21211 62.0719 7.1931 61.7112 7.23105C61.3025 7.27419 61.1921 7.19858 61.4185 7.03076C61.6839 6.83374 61.5325 6.81441 60.8551 6.95927C59.5113 7.24654 56.8486 7.23927 55.2491 6.94397C54.4867 6.80324 53.1704 6.71189 52.3241 6.74096C51.4773 6.77005 48.9934 6.66996 46.8043 6.51858C44.6147 6.36743 42.2191 6.214 41.4798 6.17787C40.6819 6.13897 40.1315 5.97725 40.1247 5.7796C40.1152 5.50307 39.9871 5.49603 39.3711 5.73814C38.8084 5.95909 38.4895 5.97607 38.0564 5.80886C37.7415 5.68727 36.967 5.60558 36.3355 5.62727C34.1435 5.70256 30.8419 5.35743 30.8314 5.05183C30.8254 4.8791 30.5864 4.82349 30.2649 4.91997C29.9593 5.01174 29.4075 4.92489 29.0387 4.72679C28.6705 4.52846 28.3726 4.47779 28.3773 4.61378C28.382 4.74976 27.8376 4.87987 27.1677 4.90288C26.4978 4.92589 25.9461 4.84133 25.9417 4.71489C25.9374 4.58846 25.5894 4.55364 25.1688 4.6373C23.7958 4.91061 22.0386 4.65336 22.0051 4.17436C21.975 3.73911 21.9604 3.73878 21.2728 4.15774C20.5786 4.58108 20.5713 4.58133 20.5502 4.18256C20.5342 3.88504 20.4244 3.85535 20.1293 4.06877C19.8027 4.30467 19.3794 4.30571 17.8197 4.07389C16.7694 3.9177 14.9191 3.70168 13.708 3.59362C8.67309 3.14486 6.8527 2.79271 7.18763 2.33265C7.28593 2.19791 7.09908 2.02703 6.77263 1.95281C6.39554 1.86724 6.3089 1.90119 6.53533 2.04577C7.66606 2.76976 4.00385 2.72012 2.35288 1.98926C1.86894 1.77495 1.45781 1.72089 1.35765 1.8584C1.26403 1.98716 0.8668 1.85489 0.474872 1.56447C-0.1348 1.11253 -0.139883 1.00712 0.438544 0.833438C1.4153 0.540069 2.87705 0.888947 2.9361 1.42942C2.98014 1.83115 3.02824 1.83968 3.32331 1.49739C3.7235 1.03406 4.32677 0.97301 4.90999 1.33668C5.19712 1.51576 5.33144 1.52071 5.33102 1.35215C5.33022 1.1728 5.70148 1.17397 6.67995 1.35654C7.42276 1.49502 8.41403 1.59567 8.88277 1.5804C9.35151 1.56492 9.74018 1.68959 9.74595 1.85734C9.75232 2.04294 10.0403 2.10559 10.4832 2.01763C10.8829 1.93801 11.5957 1.92891 12.0678 1.99708C12.5394 2.06548 13.4715 2.13303 14.1388 2.14711C15.9133 2.18489 17.644 2.56756 17.3924 2.86679C17.2658 3.01726 17.5177 3.09216 17.9912 3.04472C18.4408 2.99976 18.9626 3.10801 19.1511 3.28528C19.4491 3.56563 19.4966 3.55942 19.5154 3.23806C19.5325 2.94231 19.8527 2.87706 21.1236 2.91053C25.3504 3.02184 29.2582 3.56004 28.9446 3.98735C28.7926 4.1944 28.9278 4.22281 29.3932 4.08169C30.2998 3.80694 31.3562 3.71662 31.9822 3.86057C32.2678 3.92621 32.9408 3.97585 33.4772 3.97073C34.3037 3.96312 37.8459 4.15366 43.007 4.48356C43.6792 4.52636 44.7792 4.595 45.4513 4.63614C46.1234 4.67708 46.8382 4.8078 47.0393 4.92685C47.2883 5.07398 47.4043 5.05628 47.4033 4.87112C47.402 4.7215 47.6417 4.65362 47.9357 4.72043C48.2297 4.78703 48.3698 5.01855 48.2475 5.23455C48.0009 5.6685 48.7484 5.6605 49.763 5.21804C50.5584 4.87104 51.2555 4.84252 54.0297 5.04426C55.2249 5.13104 56.2066 5.32285 56.2117 5.47046C56.2211 5.74326 57.3795 5.72696 57.9811 5.44585C58.1626 5.36105 58.6088 5.38584 58.9728 5.50055C59.4615 5.65483 59.6324 5.64646 59.6263 5.46895C59.6207 5.30453 59.8891 5.28075 60.4774 5.39378C61.4767 5.58561 63.8779 5.70787 66.8627 5.71822C68.0209 5.7225 69.2558 5.81623 69.6065 5.92703C69.9576 6.03761 71.2082 6.13205 72.3859 6.13649C73.5641 6.14113 74.6926 6.14851 74.8938 6.15304C75.0949 6.15735 75.2811 6.32389 75.3065 6.52319C75.345 6.81952 75.4115 6.82679 75.6737 6.56254C75.9943 6.23995 78.2048 6.07631 79.6538 6.26807C80.6863 6.40471 84.708 6.49563 88.4012 6.46586C90.1226 6.45204 91.7944 6.5237 92.1159 6.6251C92.4374 6.72651 93.2257 6.7832 93.8676 6.75097C95.7443 6.65699 104.277 6.84844 104.553 6.99069C104.691 7.06243 105.353 7.1008 106.023 7.07634C106.693 7.05167 107.63 7.15086 108.104 7.29691C108.764 7.49976 108.965 7.49994 108.958 7.29794C108.951 7.1196 109.305 7.06899 110.05 7.14153C110.656 7.20074 111.847 7.21511 112.697 7.17344C113.548 7.13176 114.386 7.18901 114.56 7.30047C114.769 7.43422 115.176 7.42462 115.751 7.27244C116.232 7.14534 116.78 7.10077 116.968 7.17351C117.156 7.24603 118.229 7.30061 119.353 7.29444C122.582 7.27706 126.252 7.28883 126.519 7.31769C126.654 7.33218 127.476 7.30312 128.346 7.25285C129.253 7.2005 129.932 7.26199 129.937 7.39715C129.941 7.5269 130.162 7.56775 130.428 7.48795C130.693 7.40816 130.914 7.44195 130.918 7.56278C130.922 7.68361 131.158 7.77465 131.442 7.76491C131.725 7.75517 131.819 7.65842 131.649 7.54992C131.48 7.44143 131.793 7.33714 132.344 7.3182C132.896 7.29925 133.35 7.35433 133.353 7.44048C133.356 7.52685 134.839 7.55511 136.648 7.50337C138.457 7.45184 140.817 7.44914 141.891 7.49745C142.966 7.54554 144.351 7.55973 144.968 7.52875C145.663 7.49386 145.968 7.56319 145.769 7.71055C145.538 7.88185 145.727 7.87494 146.441 7.68621C147.575 7.38619 151.881 7.18697 151.889 7.43403C151.898 7.68669 153.969 7.6224 154.669 7.34771C155.082 7.18553 155.295 7.17488 155.3 7.31626C155.304 7.43377 155.744 7.46584 156.278 7.38784C156.812 7.30964 157.251 7.32676 157.255 7.42559C157.258 7.52462 158.793 7.54072 160.664 7.46127C163.08 7.35873 163.974 7.38833 163.745 7.56331C163.567 7.6989 163.789 7.66864 164.237 7.49652C164.685 7.32419 165.055 7.26473 165.058 7.36438C165.062 7.46381 166.529 7.49823 168.318 7.44072C170.486 7.37104 171.643 7.42089 171.785 7.5902C171.949 7.78495 172.156 7.7822 172.673 7.57902C173.045 7.43323 173.355 7.39535 173.362 7.49487C173.37 7.59417 173.572 7.53402 173.811 7.36078C174.159 7.10855 174.49 7.08469 175.474 7.24088C176.411 7.38954 176.758 7.37492 176.933 7.17891C177.083 7.01163 177.306 6.98963 177.573 7.11578C177.798 7.22237 178.97 7.28191 180.176 7.24796C181.382 7.21402 182.919 7.21964 183.591 7.26037C184.263 7.30109 185.079 7.23377 185.405 7.11056C185.791 6.96445 186.477 6.94132 187.38 7.04394C188.141 7.13025 189.712 7.13202 190.87 7.04775C192.029 6.96327 193.668 6.95167 194.512 7.02159C195.357 7.09174 196.509 7.06007 197.072 6.95112C197.949 6.78196 198.066 6.81993 197.882 7.21307C197.716 7.56861 197.776 7.60144 198.149 7.35749C198.745 6.96808 201.619 6.74383 201.641 7.08479C201.65 7.2254 201.851 7.18981 202.119 7.00021C202.372 6.82001 202.586 6.75405 202.594 6.85335C202.601 6.95287 202.913 6.9143 203.287 6.76761C204.064 6.46216 204.825 6.75654 204.288 7.15518C204.109 7.28747 204.538 7.21372 205.241 6.99129C206.4 6.62429 207.473 6.56917 216.866 6.39434C222.557 6.28845 227.706 6.18038 228.309 6.15426C228.912 6.12836 229.408 6.19052 229.411 6.29266C229.415 6.39481 229.76 6.46652 230.177 6.45218C230.595 6.43784 230.81 6.34482 230.655 6.2456C230.25 5.98618 236.156 5.92507 236.821 6.1818C237.177 6.31942 237.662 6.31606 238.207 6.17202C238.667 6.05021 239.782 5.92213 240.683 5.88744C241.585 5.85252 243.253 5.76942 244.391 5.7027C245.956 5.61071 246.465 5.65704 246.478 5.89229C246.492 6.12233 246.594 6.13318 246.87 5.93392C247.267 5.64716 249.45 5.5493 263.033 5.20853C272.04 4.98273 271.28 5.00654 277.611 4.75022C281.291 4.60116 282.743 4.61405 282.897 4.7973C283.013 4.9361 283.31 5.04295 283.555 5.03451C283.801 5.02608 283.943 4.90417 283.871 4.76383C283.712 4.45314 286.971 4.29487 287.516 4.58667C287.744 4.70855 287.881 4.68681 287.88 4.52844C287.879 4.37279 288.537 4.26313 289.585 4.24374C290.524 4.22668 291.294 4.28544 291.297 4.37472C291.3 4.46378 291.794 4.46821 292.395 4.38481C294.023 4.15823 303.327 3.8761 304.015 4.03225C304.393 4.11802 304.482 4.08501 304.259 3.94238C303.756 3.62045 307.517 3.62472 308.539 3.94732C309.216 4.16082 309.338 4.15247 309.329 3.8942C309.322 3.67808 309.813 3.58076 311.01 3.56191C311.939 3.54702 312.83 3.58502 312.988 3.64611C313.146 3.70739 314.082 3.65197 315.067 3.52295C316.052 3.39413 317.794 3.31102 318.939 3.33863C320.764 3.38237 321.029 3.45494 321.096 3.92927C321.17 4.4526 321.181 4.44971 321.46 3.8442C321.741 3.23531 321.835 3.21398 324.912 3.06009C326.652 2.97308 328.513 2.84744 329.047 2.78128C329.582 2.71491 330.248 2.72902 330.528 2.81251C331.07 2.97391 332.149 2.91544 332.946 2.68166C333.212 2.60373 334.088 2.55887 334.894 2.58191C335.7 2.60475 336.578 2.60224 336.845 2.57642C337.113 2.55061 339.523 2.42064 342.201 2.28791C344.88 2.15497 347.804 1.96287 348.699 1.86083C349.878 1.72637 350.586 1.76484 351.264 2.00031C351.877 2.21269 352.199 2.23674 352.194 2.06962C352.188 1.9056 352.777 1.81534 353.838 1.81797C354.747 1.81999 355.856 1.67817 356.303 1.50278C357.001 1.22855 357.18 1.22345 357.569 1.46638C357.883 1.66281 358.021 1.66992 358.02 1.48953C358.019 1.34656 358.472 1.2142 359.026 1.19518C359.826 1.16768 359.981 1.25841 359.777 1.63703C359.637 1.89898 359.643 1.99229 359.792 1.84438C359.941 1.69627 360.277 1.56791 360.538 1.55894C360.8 1.54995 360.876 1.66415 360.708 1.81293C360.54 1.9615 360.818 1.84717 361.327 1.55845C362.118 1.10953 362.297 1.08093 362.567 1.35997C362.955 1.76236 364.179 1.74649 364.525 1.33449C364.788 1.02221 365.626 0.968897 366.632 1.20018C367.34 1.36313 368.858 1.08527 369.366 0.699701C369.873 0.315445 372.131 0.246804 372.144 0.615315C372.159 1.0513 371.077 1.383 368.969 1.58799C367.92 1.68992 366.407 1.87597 365.606 2.00116C364.805 2.12635 363.822 2.241 363.42 2.25606C363.018 2.2709 362.143 2.36517 361.476 2.46563C359.569 2.75228 355.148 3.20073 352.483 3.37792C351.144 3.46692 349.064 3.63126 347.861 3.74327C346.657 3.85528 342.057 4.11868 337.637 4.32889C333.217 4.53889 328.506 4.78821 327.168 4.8826C321.074 5.31309 310.213 5.76077 309.444 5.61298C308.979 5.52357 308.335 5.52967 308.013 5.62616C307.692 5.72284 306.323 5.77963 304.972 5.75225C303.621 5.72485 302.419 5.77361 302.302 5.86057C302.088 6.01903 244.28 8.05115 243.921 7.91276ZM309.123 4.98776C309.285 4.86788 309.185 4.77778 308.901 4.78752C308.617 4.79726 308.388 4.89867 308.392 5.01286C308.396 5.12704 308.496 5.21716 308.614 5.21309C308.733 5.20902 308.961 5.10763 309.123 4.98776ZM333.22 3.53654C332.925 3.31802 332.603 3.14201 332.503 3.14544C332.403 3.14886 332.443 3.33455 332.591 3.55812C332.739 3.78168 333.062 3.95767 333.308 3.94921C333.555 3.94073 333.515 3.75606 333.22 3.53654ZM292.779 4.92555C292.775 4.81136 292.676 4.72125 292.557 4.72531C292.439 4.72938 292.21 4.83077 292.049 4.95065C291.887 5.07052 291.987 5.16062 292.271 5.15088C292.554 5.14114 292.783 5.03973 292.779 4.92555ZM220.658 7.07867C220.652 6.90075 220.43 6.82025 220.164 6.90004C219.898 6.97983 219.684 7.1329 219.688 7.24044C219.692 7.34798 219.914 7.42827 220.182 7.41907C220.45 7.40987 220.664 7.25659 220.658 7.07867ZM366.54 0.933749C366.368 0.823484 366.025 0.7939 365.777 0.868281C365.53 0.942455 365.324 0.904208 365.32 0.783378C365.309 0.46594 366.068 0.487269 366.785 0.824729C367.125 0.984546 367.279 1.11956 367.128 1.12475C366.977 1.12992 366.712 1.04403 366.54 0.933749ZM136.307 8.22139C136.303 8.1072 136.203 8.01709 136.085 8.02115C135.966 8.02522 135.737 8.12661 135.576 8.24649C135.414 8.36636 135.514 8.45646 135.798 8.44672C136.081 8.43698 136.31 8.33557 136.307 8.22139ZM14.2581 2.80691C13.9036 2.67005 13.6762 2.6656 13.6806 2.79556C13.6901 3.07273 14.275 3.29853 14.5952 3.14869C14.7315 3.08497 14.5799 2.93117 14.2581 2.80691Z" fill="white"/>
</svg>
