<svg width="613" height="173" viewBox="0 0 613 173" fill="none" xmlns="http://www.w3.org/2000/svg">
<mask id="path-1-outside-1_16_249" maskUnits="userSpaceOnUse" x="-2.06238" y="-2.59096" width="617.737" height="178.286" fill="black">
<rect fill="white" x="-2.06238" y="-2.59096" width="617.737" height="178.286"/>
<path d="M93.5074 127.441L111.645 142.626C107.479 149.083 101.7 154.498 94.3059 158.872C86.9274 163.396 78.7538 166.04 69.5019 166.985C58.0117 168.159 47.6207 166.808 38.4779 162.917C29.3351 159.026 21.8001 153.162 16.1713 145.293C10.3932 137.439 7.01476 127.984 5.90193 117.09C5.07874 109.032 5.67478 101.583 7.95802 94.4141C10.092 87.2602 13.5265 81.0289 18.231 75.4218C22.9508 69.9638 28.6726 65.459 35.5609 62.0413C42.4493 58.6235 50.0564 56.3386 58.7114 55.4544C67.9632 54.5093 76.5179 55.5955 84.345 58.4147C92.1872 61.383 98.9424 65.5179 104.312 70.8498L89.6201 89.3889C86.0444 85.3816 81.8139 82.3458 76.7796 80.2968C71.7453 78.2478 66.5345 77.4231 61.0133 77.9871C55.0443 78.5969 49.8247 80.6379 45.3392 83.961C40.8537 87.2841 37.6687 91.5297 35.4857 96.7285C33.318 102.076 32.5543 107.884 33.2098 114.301C33.8806 120.867 35.8028 126.4 39.0072 131.199C42.2115 135.998 46.1892 139.512 51.254 141.86C56.3188 144.207 61.828 145.001 67.797 144.392C73.3182 143.828 78.2699 142.115 82.7706 138.942C87.2866 135.917 90.8158 132.088 93.5074 127.441ZM227.391 148.443L199.784 151.263L190.789 132.581L147.365 137.017L142.333 157.133L115.622 159.861L146.356 48.9134L174.858 46.0017L227.391 148.443ZM153.094 114.87L180.849 112.035L163.069 75.2512L153.094 114.87ZM324.211 138.552L237.512 147.409L235.332 126.07L281.021 56.7181L231.031 61.8249L228.851 40.4859L311.222 32.0711L313.402 53.4101L267.714 122.762L322.031 117.213L324.211 138.552ZM365.399 134.345L339.732 136.967L328.833 30.2721L354.499 27.6501L365.399 134.345ZM409.106 129.88L383.887 132.456L372.988 25.7613L399.699 23.0326L450.981 85.1927L444.167 18.4898L469.386 15.9135L480.286 122.608L453.575 125.337L402.292 63.1769L409.106 129.88ZM554.773 117.411C546.267 118.28 538.37 117.73 531.067 115.611C523.63 113.657 517.116 110.402 511.374 105.862C505.649 101.471 501.025 96.0631 497.488 89.4885C493.952 82.9138 491.847 75.5899 491.024 67.5318C490.2 59.4737 490.796 52.0246 492.93 44.8707C495.08 37.866 498.514 31.6347 503.219 26.0275C507.938 20.5696 513.66 16.0648 520.533 12.4978C527.272 9.09533 534.88 6.8104 543.385 5.94148C551.742 5.0878 559.654 5.78733 567.091 7.74163C574.394 9.86039 580.909 13.1152 586.635 17.506C592.376 22.0461 596.999 27.4542 600.521 33.8796C604.057 40.4542 606.296 47.6137 607.119 55.6718C607.943 63.7298 607.213 71.3435 605.079 78.4974C602.945 85.6513 599.51 91.8826 594.79 97.3405C590.086 102.948 584.364 107.452 577.625 110.855C570.752 114.422 563.129 116.558 554.773 117.411ZM552.471 94.8786C558.589 94.2536 563.824 92.3618 568.16 89.054C572.497 85.7462 575.682 81.5005 577.849 76.1525C580.017 70.8045 580.781 64.9968 580.11 58.431C579.454 52.0144 577.532 46.4811 574.328 41.6819C571.139 37.0319 567.161 33.518 562.245 31.1553C557.33 28.7926 551.805 27.8492 545.687 28.4742C539.569 29.0992 534.35 31.1402 530.013 34.4481C525.528 37.7711 522.343 42.0168 520.16 47.2156C517.992 52.5635 517.378 58.356 518.033 64.7726C518.704 71.3384 520.477 76.887 523.681 81.6862C526.885 86.4854 530.863 89.9993 535.928 92.3467C540.844 94.7094 546.353 95.5036 552.471 94.8786Z"/>
</mask>
<path d="M93.5074 127.441L94.7913 125.907L92.9683 124.381L91.7767 126.439L93.5074 127.441ZM111.645 142.626L113.325 143.71L114.283 142.226L112.928 141.093L111.645 142.626ZM94.3059 158.872L93.2876 157.151L93.274 157.159L93.2606 157.167L94.3059 158.872ZM38.4779 162.917L37.6947 164.757L38.4779 162.917ZM16.1713 145.293L17.7979 144.129L17.7901 144.118L17.7822 144.108L16.1713 145.293ZM7.95802 94.4141L9.8637 95.021L9.8693 95.0035L9.87456 94.9858L7.95802 94.4141ZM18.231 75.4218L16.7182 74.1135L16.7085 74.1248L16.6989 74.1362L18.231 75.4218ZM35.5609 62.0413L36.4499 63.8329L35.5609 62.0413ZM84.345 58.4147L85.053 56.5442L85.0379 56.5385L85.0227 56.533L84.345 58.4147ZM104.312 70.8498L105.88 72.092L106.99 70.6906L105.721 69.4306L104.312 70.8498ZM89.6201 89.3889L88.1278 90.7205L89.7109 92.4946L91.1876 90.6311L89.6201 89.3889ZM76.7796 80.2968L77.5336 78.4444L76.7796 80.2968ZM45.3392 83.961L46.5298 85.568L46.5298 85.568L45.3392 83.961ZM35.4857 96.7285L33.6417 95.9542L33.6369 95.9657L33.6322 95.9772L35.4857 96.7285ZM39.0072 131.199L37.3438 132.31L39.0072 131.199ZM51.254 141.86L52.095 140.045L51.254 141.86ZM82.7706 138.942L81.6577 137.28L81.6377 137.293L81.618 137.307L82.7706 138.942ZM92.2235 128.974L110.361 144.16L112.928 141.093L94.7913 125.907L92.2235 128.974ZM109.964 141.542C105.986 147.708 100.446 152.916 93.2876 157.151L95.3242 160.594C102.953 156.081 108.973 150.458 113.325 143.71L109.964 141.542ZM93.2606 157.167C86.1619 161.519 78.2815 164.078 69.2987 164.996L69.7052 168.975C79.2261 168.002 87.6928 165.272 95.3512 160.578L93.2606 157.167ZM69.2987 164.996C58.0872 166.141 48.0438 164.815 39.2611 161.077L37.6947 164.757C47.1975 168.802 57.9363 170.177 69.7052 168.975L69.2987 164.996ZM39.2611 161.077C30.4322 157.319 23.1984 151.679 17.7979 144.129L14.5446 146.456C20.4018 154.644 28.238 160.733 37.6947 164.757L39.2611 161.077ZM17.7822 144.108C12.2479 136.585 8.97405 127.483 7.89158 116.887L3.91229 117.294C5.05548 128.484 8.5385 138.293 14.5603 146.478L17.7822 144.108ZM7.89158 116.887C7.09184 109.059 7.67603 101.89 9.8637 95.021L6.05233 93.8072C3.67354 101.276 3.06565 109.006 3.91229 117.294L7.89158 116.887ZM9.87456 94.9858C11.9276 88.1034 15.2275 82.1132 19.7632 76.7073L16.6989 74.1362C11.8256 79.9446 8.25647 86.417 6.04147 93.8424L9.87456 94.9858ZM19.7439 76.73C24.291 71.4716 29.8012 67.1317 36.4499 63.8329L34.672 60.2497C27.544 63.7863 21.6106 68.456 16.7182 74.1135L19.7439 76.73ZM36.4499 63.8329C43.1225 60.5222 50.4973 58.304 58.9146 57.4441L58.5081 53.4648C49.6156 54.3732 41.7761 56.7249 34.672 60.2497L36.4499 63.8329ZM58.9146 57.4441C67.8798 56.5282 76.1326 57.5825 83.6672 60.2963L85.0227 56.533C76.9032 53.6085 68.0467 52.4904 58.5081 53.4648L58.9146 57.4441ZM83.637 60.2851C91.2609 63.1709 97.7639 67.1661 102.903 72.269L105.721 69.4306C100.121 63.8697 93.1135 59.5952 85.053 56.5442L83.637 60.2851ZM102.745 69.6076L88.0527 88.1467L91.1876 90.6311L105.88 72.092L102.745 69.6076ZM91.1124 88.0573C87.3396 83.8291 82.8588 80.6118 77.5336 78.4444L76.0257 82.1492C80.769 84.0798 84.7491 86.934 88.1278 90.7205L91.1124 88.0573ZM77.5336 78.4444C72.2116 76.2783 66.6729 75.3986 60.81 75.9975L61.2165 79.9768C66.3962 79.4477 71.2791 80.2174 76.0257 82.1492L77.5336 78.4444ZM60.81 75.9975C54.493 76.6428 48.9305 78.8114 44.1487 82.354L46.5298 85.568C50.719 82.4645 55.5956 80.551 61.2165 79.9768L60.81 75.9975ZM44.1487 82.354C39.3496 85.9094 35.9512 90.454 33.6417 95.9542L37.3298 97.5028C39.3862 92.6054 42.3579 88.6588 46.5298 85.568L44.1487 82.354ZM33.6322 95.9772C31.3295 101.658 30.535 107.798 31.2202 114.504L35.1995 114.098C34.5736 107.971 35.3065 102.495 37.3393 97.4798L33.6322 95.9772ZM31.2202 114.504C31.9201 121.356 33.9379 127.208 37.3438 132.31L40.6705 130.089C37.6678 125.591 35.841 120.378 35.1995 114.098L31.2202 114.504ZM37.3438 132.31C40.7367 137.391 44.9899 141.161 50.413 143.674L52.095 140.045C47.3886 137.864 43.6863 134.605 40.6705 130.089L37.3438 132.31ZM50.413 143.674C55.8437 146.191 61.7203 147.023 68.0002 146.381L67.5937 142.402C61.9358 142.98 56.7938 142.223 52.095 140.045L50.413 143.674ZM68.0002 146.381C73.8268 145.786 79.1133 143.968 83.9232 140.576L81.618 137.307C77.4264 140.263 72.8096 141.869 67.5937 142.402L68.0002 146.381ZM83.8836 140.603C88.6606 137.404 92.3982 133.347 95.2381 128.443L91.7767 126.439C89.2334 130.83 85.9127 134.43 81.6577 137.28L83.8836 140.603ZM227.391 148.443L227.594 150.433L230.506 150.135L229.17 147.531L227.391 148.443ZM199.784 151.263L197.982 152.131L198.591 153.396L199.987 153.253L199.784 151.263ZM190.789 132.581L192.591 131.713L191.982 130.449L190.586 130.591L190.789 132.581ZM147.365 137.017L147.162 135.027L145.765 135.17L145.425 136.532L147.365 137.017ZM142.333 157.133L142.536 159.122L143.933 158.98L144.273 157.618L142.333 157.133ZM115.622 159.861L113.695 159.327L112.913 162.148L115.825 161.851L115.622 159.861ZM146.356 48.9134L146.153 46.9237L144.793 47.0626L144.428 48.3795L146.356 48.9134ZM174.858 46.0017L176.637 45.0891L176.014 43.8732L174.654 44.0121L174.858 46.0017ZM153.094 114.87L151.154 114.382L150.457 117.15L153.297 116.86L153.094 114.87ZM180.849 112.035L181.053 114.024L183.892 113.734L182.65 111.164L180.849 112.035ZM163.069 75.2512L164.87 74.3808L162.474 69.4241L161.13 74.7629L163.069 75.2512ZM227.187 146.454L199.581 149.274L199.987 153.253L227.594 150.433L227.187 146.454ZM201.586 150.396L192.591 131.713L188.987 133.449L197.982 152.131L201.586 150.396ZM190.586 130.591L147.162 135.027L147.568 139.007L190.992 134.571L190.586 130.591ZM145.425 136.532L140.393 156.647L144.273 157.618L149.305 137.502L145.425 136.532ZM142.13 155.143L115.419 157.872L115.825 161.851L142.536 159.122L142.13 155.143ZM117.55 160.395L148.283 49.4473L144.428 48.3795L113.695 159.327L117.55 160.395ZM146.559 50.903L175.061 47.9914L174.654 44.0121L146.153 46.9237L146.559 50.903ZM173.078 46.9144L225.611 149.356L229.17 147.531L176.637 45.0891L173.078 46.9144ZM153.297 116.86L181.053 114.024L180.646 110.045L152.891 112.88L153.297 116.86ZM182.65 111.164L164.87 74.3808L161.268 76.1216L179.049 112.905L182.65 111.164ZM161.13 74.7629L151.154 114.382L155.033 115.358L165.009 75.7395L161.13 74.7629ZM324.211 138.552L324.414 140.542L326.404 140.339L326.2 138.349L324.211 138.552ZM237.512 147.409L235.522 147.613L235.726 149.602L237.715 149.399L237.512 147.409ZM235.332 126.07L233.662 124.97L233.27 125.565L233.342 126.274L235.332 126.07ZM281.021 56.7181L282.691 57.8183L285.008 54.3003L280.817 54.7284L281.021 56.7181ZM231.031 61.8249L229.041 62.0281L229.244 64.0178L231.234 63.8145L231.031 61.8249ZM228.851 40.4859L228.648 38.4963L226.658 38.6996L226.861 40.6892L228.851 40.4859ZM311.222 32.0711L313.212 31.8679L313.008 29.8782L311.019 30.0815L311.222 32.0711ZM313.402 53.4101L315.072 54.5103L315.464 53.9155L315.392 53.2068L313.402 53.4101ZM267.714 122.762L266.043 121.662L263.726 125.18L267.917 124.752L267.714 122.762ZM322.031 117.213L324.021 117.01L323.817 115.021L321.828 115.224L322.031 117.213ZM324.008 136.563L237.309 145.42L237.715 149.399L324.414 140.542L324.008 136.563ZM239.502 147.206L237.322 125.867L233.342 126.274L235.522 147.613L239.502 147.206ZM237.002 127.171L282.691 57.8183L279.35 55.6178L233.662 124.97L237.002 127.171ZM280.817 54.7284L230.827 59.8352L231.234 63.8145L281.224 58.7077L280.817 54.7284ZM233.02 61.6216L230.84 40.2827L226.861 40.6892L229.041 62.0281L233.02 61.6216ZM229.054 42.4756L311.425 34.0608L311.019 30.0815L228.648 38.4963L229.054 42.4756ZM309.232 32.2744L311.412 53.6133L315.392 53.2068L313.212 31.8679L309.232 32.2744ZM311.732 52.3098L266.043 121.662L269.384 123.863L315.072 54.5103L311.732 52.3098ZM267.917 124.752L322.234 119.203L321.828 115.224L267.51 120.773L267.917 124.752ZM320.041 117.417L322.221 138.756L326.2 138.349L324.021 117.01L320.041 117.417ZM365.399 134.345L365.602 136.334L367.592 136.131L367.388 134.142L365.399 134.345ZM339.732 136.967L337.743 137.17L337.946 139.16L339.936 138.956L339.732 136.967ZM328.833 30.2721L328.629 28.2824L326.64 28.4857L326.843 30.4753L328.833 30.2721ZM354.499 27.6501L356.489 27.4468L356.286 25.4572L354.296 25.6604L354.499 27.6501ZM365.196 132.355L339.529 134.977L339.936 138.956L365.602 136.334L365.196 132.355ZM341.722 136.764L330.822 30.0688L326.843 30.4753L337.743 137.17L341.722 136.764ZM329.036 32.2617L354.702 29.6397L354.296 25.6604L328.629 28.2824L329.036 32.2617ZM352.51 27.8533L363.409 134.548L367.388 134.142L356.489 27.4468L352.51 27.8533ZM409.106 129.88L409.309 131.869L411.299 131.666L411.096 129.676L409.106 129.88ZM383.887 132.456L381.898 132.659L382.101 134.649L384.091 134.446L383.887 132.456ZM372.988 25.7613L372.784 23.7717L370.795 23.9749L370.998 25.9646L372.988 25.7613ZM399.699 23.0326L401.241 21.7598L400.56 20.9342L399.495 21.043L399.699 23.0326ZM450.981 85.1927L449.439 86.4654L453.642 91.5608L452.971 84.9894L450.981 85.1927ZM444.167 18.4898L443.964 16.5002L441.974 16.7034L442.178 18.6931L444.167 18.4898ZM469.386 15.9135L471.376 15.7103L471.172 13.7206L469.183 13.9239L469.386 15.9135ZM480.286 122.608L480.489 124.598L482.479 124.395L482.275 122.405L480.286 122.608ZM453.575 125.337L452.032 126.61L452.713 127.435L453.778 127.327L453.575 125.337ZM402.292 63.1769L403.835 61.9041L399.631 56.8088L400.302 63.3802L402.292 63.1769ZM408.903 127.89L383.684 130.466L384.091 134.446L409.309 131.869L408.903 127.89ZM385.877 132.253L374.977 25.5581L370.998 25.9646L381.898 132.659L385.877 132.253ZM373.191 27.751L399.902 25.0222L399.495 21.043L372.784 23.7717L373.191 27.751ZM398.156 24.3054L449.439 86.4654L452.524 83.9199L401.241 21.7598L398.156 24.3054ZM452.971 84.9894L446.157 18.2866L442.178 18.6931L448.992 85.3959L452.971 84.9894ZM444.371 20.4795L469.589 17.9032L469.183 13.9239L443.964 16.5002L444.371 20.4795ZM467.396 16.1168L478.296 122.812L482.275 122.405L471.376 15.7103L467.396 16.1168ZM480.082 120.619L453.371 123.347L453.778 127.327L480.489 124.598L480.082 120.619ZM455.117 124.064L403.835 61.9041L400.749 64.4497L452.032 126.61L455.117 124.064ZM400.302 63.3802L407.116 130.083L411.096 129.676L404.282 62.9736L400.302 63.3802ZM531.067 115.611L531.624 113.69L531.6 113.683L531.575 113.677L531.067 115.611ZM511.374 105.862L512.615 104.293L512.603 104.284L512.591 104.275L511.374 105.862ZM492.93 44.8707L491.018 44.284L491.016 44.2915L491.014 44.299L492.93 44.8707ZM503.219 26.0275L501.706 24.7193L501.696 24.7306L501.687 24.742L503.219 26.0275ZM520.533 12.4978L519.632 10.7125L519.622 10.7175L519.612 10.7227L520.533 12.4978ZM567.091 7.74163L567.648 5.82083L567.624 5.81376L567.599 5.8073L567.091 7.74163ZM586.635 17.506L587.875 15.9373L587.863 15.928L587.852 15.9189L586.635 17.506ZM600.521 33.8796L602.282 32.9322L602.278 32.9253L602.274 32.9184L600.521 33.8796ZM605.079 78.4974L606.995 79.0691L605.079 78.4974ZM594.79 97.3405L593.277 96.0323L593.268 96.0436L593.258 96.055L594.79 97.3405ZM577.625 110.855L576.723 109.07L576.713 109.075L576.704 109.08L577.625 110.855ZM568.16 89.054L569.373 90.6441L568.16 89.054ZM574.328 41.6819L575.991 40.5713L575.984 40.561L575.977 40.5507L574.328 41.6819ZM562.245 31.1553L561.379 32.9579L561.379 32.9579L562.245 31.1553ZM530.013 34.4481L531.204 36.0551L531.215 36.0467L531.226 36.0382L530.013 34.4481ZM520.16 47.2156L518.316 46.4412L518.311 46.4527L518.306 46.4643L520.16 47.2156ZM523.681 81.6862L522.018 82.7967L523.681 81.6862ZM535.928 92.3467L536.794 90.5441L536.782 90.5381L536.769 90.5322L535.928 92.3467ZM554.57 115.422C546.274 116.269 538.641 115.726 531.624 113.69L530.51 117.532C538.1 119.734 546.26 120.291 554.976 119.401L554.57 115.422ZM531.575 113.677C524.399 111.791 518.135 108.658 512.615 104.293L510.134 107.431C516.096 112.146 522.862 115.523 530.559 117.546L531.575 113.677ZM512.591 104.275C507.092 100.058 502.653 94.868 499.25 88.541L495.727 90.4359C499.397 97.2582 504.205 102.885 510.157 107.449L512.591 104.275ZM499.25 88.541C495.854 82.227 493.813 75.1621 493.013 67.3285L489.034 67.7351C489.88 76.0177 492.05 83.6006 495.727 90.4359L499.25 88.541ZM493.013 67.3285C492.214 59.5002 492.796 52.3171 494.847 45.4424L491.014 44.299C488.797 51.7321 488.187 59.4473 489.034 67.7351L493.013 67.3285ZM494.842 45.4573C496.911 38.7161 500.213 32.721 504.751 27.313L501.687 24.742C496.815 30.5484 493.249 37.0159 491.018 44.284L494.842 45.4573ZM504.732 27.3357C509.278 22.0778 514.797 17.7283 521.455 14.273L519.612 10.7227C512.524 14.4013 506.599 19.0614 501.706 24.7193L504.732 27.3357ZM521.435 14.2832C527.95 10.9935 535.32 8.7758 543.589 7.93112L543.182 3.95183C534.439 4.845 526.595 7.19714 519.632 10.7125L521.435 14.2832ZM543.589 7.93112C551.703 7.10218 559.374 7.78171 566.583 9.67596L567.599 5.8073C559.934 3.79296 551.781 3.07342 543.182 3.95183L543.589 7.93112ZM566.534 9.66243C573.611 11.7157 579.899 14.8616 585.418 19.0931L587.852 15.9189C581.918 11.3688 575.177 8.00508 567.648 5.82083L566.534 9.66243ZM585.394 19.0748C590.931 23.4535 595.378 28.657 598.767 34.8408L602.274 32.9184C598.621 26.2514 593.82 20.6386 587.875 15.9373L585.394 19.0748ZM598.759 34.827C602.17 41.1677 604.333 48.0739 605.13 55.875L609.109 55.4685C608.26 47.1536 605.944 39.7408 602.282 32.9322L598.759 34.827ZM605.13 55.875C605.927 63.6814 605.219 71.0312 603.162 77.9257L606.995 79.0691C609.207 71.6557 609.958 63.7783 609.109 55.4685L605.13 55.875ZM603.162 77.9257C601.108 84.8101 597.811 90.79 593.277 96.0323L596.303 98.6487C601.209 92.9752 604.781 86.4925 606.995 79.0691L603.162 77.9257ZM593.258 96.055C588.733 101.448 583.228 105.785 576.723 109.07L578.526 112.64C585.499 109.12 591.438 104.447 596.322 98.626L593.258 96.055ZM576.704 109.08C570.083 112.516 562.71 114.59 554.57 115.422L554.976 119.401C563.549 118.525 571.42 116.328 578.546 112.63L576.704 109.08ZM552.674 96.8682C559.092 96.2126 564.694 94.2134 569.373 90.6441L566.947 87.4638C562.954 90.5102 558.086 92.2946 552.268 92.889L552.674 96.8682ZM569.373 90.6441C574.012 87.1057 577.409 82.5626 579.703 76.9038L575.996 75.4012C573.954 80.4383 570.981 84.3866 566.947 87.4638L569.373 90.6441ZM579.703 76.9038C582.007 71.2193 582.8 65.0793 582.1 58.2277L578.12 58.6342C578.762 64.9143 578.027 70.3897 575.996 75.4012L579.703 76.9038ZM582.1 58.2277C581.415 51.5212 579.395 45.6694 575.991 40.5713L572.664 42.7925C575.669 47.2928 577.494 52.5075 578.12 58.6342L582.1 58.2277ZM575.977 40.5507C572.605 35.6345 568.366 31.8781 563.112 29.3527L561.379 32.9579C565.956 35.1578 569.672 38.4294 572.678 42.8131L575.977 40.5507ZM563.112 29.3527C557.838 26.8179 551.94 25.825 545.484 26.4846L545.891 30.4638C551.671 29.8733 556.822 30.7673 561.379 32.9579L563.112 29.3527ZM545.484 26.4846C539.028 27.1441 533.452 29.3091 528.8 32.8579L531.226 36.0382C535.247 32.9713 540.11 31.0544 545.891 30.4638L545.484 26.4846ZM528.823 32.841C524.024 36.3964 520.625 40.9411 518.316 46.4412L522.004 47.9899C524.06 43.0925 527.032 39.1458 531.204 36.0551L528.823 32.841ZM518.306 46.4643C515.992 52.1745 515.362 58.3058 516.043 64.9758L520.023 64.5693C519.393 58.4061 519.992 52.9526 522.013 47.9669L518.306 46.4643ZM516.043 64.9758C516.74 71.7909 518.595 77.6696 522.018 82.7967L525.344 80.5756C522.359 76.1043 520.668 70.8859 520.023 64.5693L516.043 64.9758ZM522.018 82.7967C525.411 87.8782 529.664 91.6478 535.087 94.1613L536.769 90.5322C532.063 88.3508 528.36 85.0925 525.344 80.5756L522.018 82.7967ZM535.062 94.1493C540.366 96.6987 546.256 97.5239 552.674 96.8682L552.268 92.889C546.449 93.4834 541.321 92.7201 536.794 90.5441L535.062 94.1493Z" fill="#575757" mask="url(#path-1-outside-1_16_249)"/>
</svg>
