<svg width="97" height="80" viewBox="0 0 97 80" fill="none" xmlns="http://www.w3.org/2000/svg">
<g filter="url(#filter0_d_31_494)">
<path d="M45.6751 32.8073C45.4891 32.8073 45.303 32.8073 45.117 32.8073C43.6286 32.7043 42.5123 32.0862 42.0472 31.1592C41.7681 30.6442 41.7681 30.0261 42.0472 29.4081C42.2332 28.9961 42.7914 28.7901 43.1635 28.9961C43.5356 29.2021 43.7216 29.8201 43.5356 30.2322C43.5356 30.3352 44.0937 30.7472 45.303 30.8502C46.8844 30.9532 48.2798 30.3352 48.5588 29.9231C48.5588 29.9231 48.1867 29.5111 46.6984 29.3051C45.117 28.9961 44.1867 28.4811 43.8146 27.657C43.6286 27.245 43.6286 26.73 43.8146 26.318C44.4658 25.0819 46.5123 24.4639 48.1867 24.6699C49.5821 24.7729 50.6984 25.2879 51.0704 26.112C51.3495 26.627 51.3495 27.142 51.0704 27.657C50.8844 28.0691 50.3263 28.2751 49.9542 28.0691C49.5821 27.863 49.396 27.348 49.5821 26.936C49.396 26.73 48.9309 26.524 48.0937 26.421C46.7914 26.318 45.8611 26.627 45.4891 26.936C45.7681 27.039 46.1402 27.245 46.9774 27.451C48.7449 27.76 49.6751 28.2751 50.0472 29.0991C50.2332 29.6141 50.2332 30.1291 49.9542 30.7472C49.303 32.1892 47.3495 32.8073 45.6751 32.8073Z" fill="#FFC400"/>
<path d="M48.0926 26.5236C47.9995 26.5236 47.8135 26.5236 47.7205 26.4206C47.3484 26.2146 47.1623 25.5966 47.3484 25.1846L47.7205 24.4635C47.9065 24.0515 48.4647 23.8455 48.8368 24.0515C49.2088 24.2575 49.3949 24.8756 49.2088 25.2876L48.8368 26.0086C48.7437 26.4206 48.4647 26.5236 48.0926 26.5236Z" fill="#FFC400"/>
<path d="M44.8367 33.5275C44.7437 33.5275 44.5576 33.5275 44.4646 33.4245C44.0925 33.2185 43.9065 32.6005 44.0925 32.1885L44.4646 31.4674C44.6507 31.0554 45.2088 30.8494 45.5809 31.0554C45.953 31.2614 46.139 31.8795 45.953 32.2915L45.5809 33.0125C45.3948 33.3215 45.1158 33.5275 44.8367 33.5275Z" fill="#FFC400"/>
<path d="M46.4175 38.1634C37.1152 38.1634 29.8594 34.0432 29.8594 28.7899C29.8594 23.5367 37.1152 19.4165 46.4175 19.4165C55.7198 19.4165 62.9757 23.5367 62.9757 28.7899C62.9757 34.0432 55.7198 38.1634 46.4175 38.1634ZM46.4175 21.1676C38.3245 21.1676 31.5338 24.6697 31.5338 28.6869C31.5338 32.8071 38.3245 36.2063 46.4175 36.2063C54.5105 36.2063 61.3012 32.7041 61.3012 28.6869C61.3012 24.6697 54.5105 21.1676 46.4175 21.1676Z" fill="#FFC400"/>
<path d="M46.4175 45.3733C37.1152 45.3733 29.8594 41.2531 29.8594 35.9999V34.1458C29.8594 33.6308 30.2315 33.2188 30.6966 33.2188C31.1617 33.2188 31.5338 33.6308 31.5338 34.1458V35.9999C31.5338 40.1201 38.3245 43.5192 46.4175 43.5192C54.5105 43.5192 61.3012 40.0171 61.3012 35.9999V34.1458C61.3012 33.6308 61.6733 33.2188 62.1384 33.2188C62.6036 33.2188 62.9757 33.6308 62.9757 34.1458V35.9999C62.9757 41.2531 55.7198 45.3733 46.4175 45.3733Z" fill="#FFC400"/>
<path d="M46.4175 52.7898C37.1152 52.7898 29.8594 48.6696 29.8594 43.4164V41.5623C29.8594 41.0473 30.2315 40.6353 30.6966 40.6353C31.1617 40.6353 31.5338 41.0473 31.5338 41.5623V43.4164C31.5338 47.5366 38.3245 50.9357 46.4175 50.9357C54.5105 50.9357 61.3012 47.4336 61.3012 43.4164V41.5623C61.3012 41.0473 61.6733 40.6353 62.1384 40.6353C62.6036 40.6353 62.9757 41.0473 62.9757 41.5623V43.4164C62.9757 48.6696 55.7198 52.7898 46.4175 52.7898Z" fill="#FFC400"/>
<path d="M46.4175 60.0003C37.1152 60.0003 29.8594 55.8801 29.8594 50.6268V48.7727C29.8594 48.2577 30.2315 47.8457 30.6966 47.8457C31.1617 47.8457 31.5338 48.2577 31.5338 48.7727V50.6268C31.5338 54.747 38.3245 58.1462 46.4175 58.1462C54.5105 58.1462 61.3012 54.644 61.3012 50.6268V48.7727C61.3012 48.2577 61.6733 47.8457 62.1384 47.8457C62.6036 47.8457 62.9757 48.2577 62.9757 48.7727V50.6268C62.9757 55.8801 55.7198 60.0003 46.4175 60.0003Z" fill="#FFC400"/>
<path d="M44.3716 35.6907C42.7902 35.5877 41.3018 35.2786 39.9995 34.9696C39.5343 34.8666 39.2553 34.3516 39.4413 33.8366C39.5343 33.3215 39.9995 33.0125 40.4646 33.2185C41.6739 33.5276 43.0692 33.8366 44.4646 33.9396C44.9297 33.9396 45.3018 34.4546 45.2088 34.9696C45.1157 35.3816 44.7436 35.6907 44.3716 35.6907ZM48.5576 35.6907C48.0925 35.6907 47.7204 35.2786 47.7204 34.8666C47.7204 34.3516 47.9995 33.9396 48.4646 33.8366C49.8599 33.7336 51.2553 33.5276 52.4646 33.1155C52.9297 33.0125 53.3948 33.3215 53.4878 33.7336C53.5809 34.2486 53.3018 34.7636 52.9297 34.8666C51.6274 35.3816 50.139 35.5877 48.5576 35.6907ZM36.2785 33.3215C36.0925 33.3215 35.9995 33.3215 35.8134 33.2185C33.9529 31.9825 33.0227 30.5404 32.9297 28.8923C32.9297 28.3773 33.3018 27.9653 33.7669 27.9653C34.139 27.9653 34.6041 28.3773 34.6041 28.8923C34.6041 29.8194 35.3483 30.8494 36.6506 31.6735C37.0227 31.9825 37.2088 32.4975 36.9297 32.9095C36.8367 33.1155 36.5576 33.3215 36.2785 33.3215ZM56.6506 33.2185C56.3715 33.2185 56.0925 33.0125 55.9064 32.8065C55.6274 32.3945 55.8134 31.7765 56.1855 31.5705C57.4878 30.7464 58.139 29.7164 58.139 28.7893C58.139 28.2743 58.5111 27.8623 58.9762 27.8623C59.4413 27.8623 59.8134 28.2743 59.8134 28.7893C59.8134 29.9224 59.3483 31.6735 57.0227 33.2185C56.9297 33.2185 56.8367 33.2185 56.6506 33.2185ZM36.0925 26.1112C35.8134 26.1112 35.5343 25.9052 35.3483 25.6992C35.0692 25.2872 35.2553 24.6691 35.6274 24.4631C36.7436 23.7421 38.139 23.1241 39.8134 22.6091C40.2785 22.5061 40.7436 22.8151 40.8367 23.2271C40.9297 23.7421 40.6506 24.2571 40.2785 24.3601C38.7902 24.7722 37.5809 25.2872 36.5576 26.0082C36.4646 26.1112 36.2785 26.1112 36.0925 26.1112ZM56.5576 26.1112C56.3715 26.1112 56.2785 26.1112 56.0925 26.0082C55.1622 25.3902 53.8599 24.7722 52.3715 24.3601C51.9064 24.2571 51.6274 23.7421 51.8134 23.2271C51.9064 22.7121 52.3715 22.403 52.8367 22.6091C54.4181 23.0211 55.9064 23.6391 57.0227 24.4631C57.3948 24.7722 57.5809 25.2872 57.3018 25.6992C57.1157 25.9052 56.9297 26.1112 56.5576 26.1112ZM44.1855 23.6391C43.7204 23.6391 43.3483 23.2271 43.3483 22.8151C43.3483 22.3 43.6274 21.888 44.0925 21.785C45.4878 21.682 46.9762 21.682 48.4646 21.785C48.4646 21.785 48.4646 21.785 48.5576 21.785C49.0227 21.888 49.3018 22.3 49.3018 22.8151C49.3018 23.3301 48.9297 23.6391 48.4646 23.6391C48.4646 23.6391 48.4646 23.6391 48.3715 23.6391C47.0692 23.5361 45.5809 23.5361 44.1855 23.6391C44.2785 23.6391 44.2785 23.6391 44.1855 23.6391Z" fill="#FFC400"/>
<path d="M64.3712 27.8623C63.9991 27.8623 63.627 27.5533 63.534 27.1413C63.441 26.6263 63.72 26.1112 64.1852 26.0082C65.1154 25.8022 65.5805 25.3902 65.7666 25.1842C65.7666 25.1842 65.4875 24.7722 63.8131 24.4632C63.627 24.4632 63.441 24.3601 63.2549 24.3601C62.7898 24.2571 62.5107 23.7421 62.6038 23.2271C62.6968 22.7121 63.1619 22.4031 63.627 22.5061C63.8131 22.5061 63.9061 22.6091 64.0921 22.6091C65.9526 22.9181 66.8828 23.5361 67.2549 24.3601C67.441 24.8752 67.441 25.4932 67.1619 26.0082C66.6038 27.1413 65.3014 27.6563 64.4642 27.7593C64.5572 27.8623 64.4642 27.8623 64.3712 27.8623Z" fill="#FFC400"/>
<path d="M67.7203 23.2275C67.6272 23.2275 67.4412 23.2275 67.3482 23.1245C66.9761 22.9185 66.79 22.4035 66.9761 21.9915C66.79 21.7855 66.2319 21.5795 65.3017 21.4764C64.0924 21.3734 62.9761 21.6825 62.511 22.0945C62.1389 22.4035 61.5807 22.3005 61.3947 21.8885C61.1156 21.4764 61.2086 20.8584 61.5807 20.6524C62.4179 19.9314 63.9993 19.6224 65.4877 19.7254C66.9761 19.8284 68.0924 20.4464 68.4645 21.2704C68.7435 21.7855 68.7435 22.3005 68.4645 22.8155C68.3714 23.0215 67.9993 23.2275 67.7203 23.2275Z" fill="#FFC400"/>
<path d="M65.3933 21.4765C65.3003 21.4765 65.1143 21.4765 65.0213 21.3735C64.6492 21.1675 64.4631 20.5494 64.6492 20.1374L65.0213 19.3134C65.2073 18.9014 65.7654 18.6954 66.1375 18.9014C66.5096 19.1074 66.6957 19.7254 66.5096 20.1374L66.1375 20.9615C65.9515 21.2705 65.6724 21.4765 65.3933 21.4765Z" fill="#FFC400"/>
<path d="M64.7447 33.2191C64.2796 33.2191 63.9075 32.807 63.9075 32.292C63.9075 31.777 64.2796 31.365 64.7447 31.365C72.1865 31.056 78.3261 27.6568 78.3261 23.8456C78.3261 19.7254 71.5354 16.3263 63.4424 16.3263C59.4424 16.3263 55.6284 17.1503 52.8377 18.6954C52.4656 18.9014 51.9075 18.6954 51.7214 18.2834C51.5354 17.8713 51.7214 17.2533 52.0935 17.0473C55.1633 15.3992 59.1633 14.5752 63.4424 14.5752C72.7447 14.5752 80.0005 18.6954 80.0005 23.9486C80.0005 28.7898 73.4889 32.807 64.7447 33.2191C64.8377 33.2191 64.8377 33.2191 64.7447 33.2191Z" fill="#FFC400"/>
<path d="M64.7454 40.429C64.2803 40.429 63.9082 40.0169 63.9082 39.5019C63.9082 38.9869 64.2803 38.5749 64.7454 38.5749C72.1873 38.2659 78.3268 34.8667 78.3268 31.0555V29.2015C78.3268 28.6864 78.6989 28.2744 79.164 28.2744C79.6291 28.2744 80.0012 28.6864 80.0012 29.2015V31.0555C80.0012 35.9998 73.4896 40.017 64.7454 40.429C64.8384 40.429 64.8384 40.429 64.7454 40.429Z" fill="#FFC400"/>
<path d="M64.7454 47.8455C64.2803 47.8455 63.9082 47.4335 63.9082 46.9184C63.9082 46.4034 64.2803 45.9914 64.7454 45.9914C72.1873 45.6824 78.3268 42.2832 78.3268 38.472V36.618C78.3268 36.1029 78.6989 35.6909 79.164 35.6909C79.6291 35.6909 80.0012 36.1029 80.0012 36.618V38.472C80.0012 43.4163 73.4896 47.5365 64.7454 47.8455C64.8384 47.8455 64.8384 47.8455 64.7454 47.8455Z" fill="#FFC400"/>
<path d="M56.6515 19.5197C56.2794 19.5197 55.9073 19.2107 55.8143 18.7987C55.7212 18.2836 55.9073 17.7686 56.3724 17.6656C57.0236 17.4596 57.6747 17.2536 58.4189 17.1506C58.884 17.0476 59.3492 17.3566 59.3492 17.8716C59.4422 18.3867 59.1631 18.7987 58.698 18.9017C58.0468 19.0047 57.3957 19.2107 56.8375 19.4167C56.7445 19.5197 56.6515 19.5197 56.6515 19.5197Z" fill="#FFC400"/>
<path d="M65.7679 18.6956C64.5586 18.5926 63.2562 18.5926 62.1399 18.5926C61.7679 18.5926 61.3027 18.1806 61.3027 17.7685C61.3027 17.2535 61.6748 16.8415 62.0469 16.8415C63.2562 16.7385 64.6516 16.8415 65.8609 16.9445C66.326 16.9445 66.6981 17.4595 66.6051 17.9745C66.512 18.2836 66.1399 18.6956 65.7679 18.6956Z" fill="#FFC400"/>
<path d="M72.3731 20.3438C72.28 20.3438 72.187 20.3438 72.094 20.2408C71.0707 19.8287 69.9545 19.4167 68.7452 19.1077C68.28 19.0047 68.001 18.4897 68.094 17.9747C68.187 17.4596 68.6521 17.1506 69.1172 17.2536C70.4196 17.5626 71.7219 17.9747 72.7452 18.4897C73.2103 18.6957 73.3963 19.2107 73.2103 19.7257C73.0242 20.1378 72.7452 20.3438 72.3731 20.3438Z" fill="#FFC400"/>
<path d="M76.0929 26.0084C75.9999 26.0084 75.9069 26.0084 75.7208 25.9054C75.2557 25.6994 75.0697 25.1844 75.2557 24.6694C75.3487 24.3604 75.4418 24.1544 75.4418 23.8453C75.4418 23.2273 75.1627 22.7123 74.6976 22.0943C74.4185 21.6822 74.4185 21.1672 74.6976 20.7552C75.0697 20.4462 75.5348 20.4462 75.9069 20.7552C76.7441 21.6822 77.1162 22.7123 77.1162 23.7423C77.1162 24.2574 77.0232 24.7724 76.8371 25.2874C76.7441 25.8024 76.465 26.0084 76.0929 26.0084Z" fill="#FFC400"/>
<path d="M70.3253 30.1287C69.9532 30.1287 69.5811 29.8197 69.4881 29.4076C69.3951 28.8926 69.5811 28.3776 70.0462 28.2746C71.2555 27.8626 72.3718 27.4505 73.209 26.9355C73.5811 26.7295 74.1393 26.8325 74.3253 27.2445C74.5114 27.6566 74.4183 28.2746 74.0462 28.4806C73.023 29.0986 71.9067 29.6136 70.5114 30.0257C70.4183 30.1287 70.4183 30.1287 70.3253 30.1287Z" fill="#FFC400"/>
<path d="M64.8372 30.9529C64.3721 30.9529 64 30.5409 64 30.0259C64 29.5109 64.3721 29.0989 64.8372 29.0989C65.4884 29.0989 66.1395 28.9958 66.7907 28.8928C67.2558 28.7898 67.6279 29.2019 67.7209 29.7169C67.814 30.2319 67.4419 30.6439 66.9767 30.7469C66.3256 30.8499 65.5814 30.9529 64.8372 30.9529C64.9302 30.9529 64.9302 30.9529 64.8372 30.9529Z" fill="#FFC400"/>
<path d="M28.651 25.1846C28.4649 25.1846 28.2789 25.0816 28.1858 24.9786C27.2556 24.2575 26.9765 23.2275 27.4417 22.1974C27.6277 21.7854 28.1858 21.5794 28.5579 21.7854C28.93 21.9914 29.1161 22.6094 28.93 23.0215C28.93 23.0215 28.837 23.1245 29.2091 23.4335C29.5812 23.7425 29.6742 24.2575 29.3951 24.6695C29.1161 25.0816 28.93 25.1846 28.651 25.1846Z" fill="#FFC400"/>
<path d="M32.2778 21.3737C32.1848 21.3737 32.1848 21.3737 32.0918 21.3737C30.7895 21.0646 30.1383 20.6526 29.8592 19.9316C29.6732 19.5196 29.7662 19.1075 29.9522 18.6955C30.6034 17.5625 32.7429 17.2535 34.4174 17.3565C35.1616 17.4595 36.3709 17.6655 37.115 18.2835C37.4871 18.5925 37.4871 19.2106 37.2081 19.6226C36.929 20.0346 36.3709 20.0346 35.9988 19.7256C35.8127 19.5196 35.2546 19.3136 34.3243 19.2106C33.3011 19.1075 32.4639 19.3136 31.9988 19.4166C32.1848 19.4166 32.2778 19.5196 32.5569 19.6226C33.022 19.7256 33.3011 20.2406 33.2081 20.7556C33.022 21.1676 32.6499 21.3737 32.2778 21.3737Z" fill="#FFC400"/>
<path d="M34.3274 19.2104C34.1414 19.2104 34.0484 19.2104 33.8623 19.1074C33.4902 18.7984 33.3972 18.2834 33.5833 17.8714L33.9554 17.2533C34.2344 16.8413 34.6995 16.7383 35.0716 16.9443C35.4437 17.2533 35.5367 17.7684 35.3507 18.1804L34.9786 18.7984C34.8856 19.1074 34.6065 19.2104 34.3274 19.2104Z" fill="#FFC400"/>
<path d="M28 30.3348H27.907C20.7442 29.2018 16 25.5966 16 21.3734C16 16.1202 23.2558 12 32.5581 12C38.3256 12 43.6279 13.6481 46.6047 16.3262C46.9767 16.6352 46.9767 17.2532 46.6977 17.6653C46.4186 18.0773 45.8605 18.0773 45.4884 17.7683C42.7907 15.2962 37.8605 13.8541 32.4651 13.8541C24.3721 13.8541 17.5814 17.3562 17.5814 21.3734C17.5814 24.5666 22.0465 27.6567 28.093 28.5838C28.5581 28.6868 28.8372 29.0988 28.8372 29.6138C28.7442 30.0258 28.3721 30.3348 28 30.3348Z" fill="#FFC400"/>
<path d="M28 37.5453H27.907C20.7442 36.4122 16 32.8071 16 28.5839V26.7298C16 26.2148 16.3721 25.8027 16.8372 25.8027C17.3023 25.8027 17.6744 26.2148 17.6744 26.7298V28.5839C17.6744 31.777 22.1395 34.8672 28.186 35.7942C28.6512 35.8972 28.9302 36.3092 28.9302 36.8242C28.7442 37.2363 28.3721 37.5453 28 37.5453Z" fill="#FFC400"/>
<path d="M28 45.0643H27.907C20.7442 43.9312 16 40.3261 16 35.9999V34.1458C16 33.6308 16.3721 33.2188 16.8372 33.2188C17.3023 33.2188 17.6744 33.6308 17.6744 34.1458V35.9999C17.6744 39.193 22.1395 42.2832 28.186 43.2102C28.6512 43.3132 28.9302 43.7252 28.9302 44.2403C28.7442 44.6523 28.3721 45.0643 28 45.0643Z" fill="#FFC400"/>
<path d="M27.347 27.6568C27.347 27.6568 27.254 27.6568 27.161 27.6568C26.4168 27.5538 25.7656 27.3478 25.1145 27.1418C24.6493 27.0388 24.3703 26.5238 24.5563 26.0087C24.6493 25.4937 25.1145 25.1847 25.5796 25.3907C26.1377 25.5967 26.7889 25.6997 27.44 25.8027C27.9052 25.9057 28.1842 26.3177 28.0912 26.8328C28.0912 27.3478 27.7191 27.6568 27.347 27.6568Z" fill="#FFC400"/>
<path d="M21.3947 25.4936C21.2087 25.4936 21.1156 25.4936 20.9296 25.3906C18.8831 23.9485 18.418 22.4035 18.418 21.3734C18.418 21.1674 18.418 20.8584 18.511 20.6524C18.604 20.1374 19.0691 19.8284 19.5342 19.9314C19.9994 20.0344 20.2784 20.5494 20.1854 21.0644C20.1854 21.1674 20.1854 21.2704 20.1854 21.3734C20.1854 22.1975 20.8366 23.0215 21.9529 23.8455C22.3249 24.1546 22.418 24.6696 22.2319 25.0816C21.9529 25.2876 21.6738 25.4936 21.3947 25.4936Z" fill="#FFC400"/>
<path d="M22.2332 18.4897C21.9541 18.4897 21.675 18.2837 21.489 17.9747C21.303 17.5627 21.489 16.9446 21.8611 16.7386C22.9774 16.1206 24.3727 15.6056 25.9541 15.1936C26.4192 15.0906 26.8844 15.3996 26.9774 15.9146C27.0704 16.4296 26.7913 16.9446 26.3262 17.0476C24.9309 17.3567 23.6285 17.8717 22.6053 18.3867C22.5123 18.4897 22.4192 18.4897 22.2332 18.4897Z" fill="#FFC400"/>
<path d="M34.6067 16.4289C33.3044 16.3259 31.9091 16.3259 30.6067 16.4289C30.1416 16.4289 29.7695 16.1199 29.7695 15.6049C29.7695 15.0899 30.0486 14.6778 30.5137 14.6778C31.9091 14.5748 33.3044 14.5748 34.6998 14.6778C35.1649 14.6778 35.537 15.1929 35.4439 15.6049C35.4439 16.0169 35.0719 16.4289 34.6067 16.4289Z" fill="#FFC400"/>
<path d="M40.9303 17.6652C40.8373 17.6652 40.7443 17.6652 40.6513 17.6652C40.0931 17.4592 39.535 17.2532 38.8838 17.1502C38.4187 17.0472 38.1396 16.5322 38.2327 16.0171C38.3257 15.5021 38.7908 15.1931 39.2559 15.2961C39.9071 15.5021 40.5582 15.7081 41.2094 15.9141C41.6745 16.1201 41.8606 16.6352 41.7676 17.0472C41.6745 17.4592 41.3024 17.6652 40.9303 17.6652Z" fill="#FFC400"/>
<path d="M45.6759 32.3945C45.4898 32.3945 45.3038 32.3945 45.1177 32.3945C43.7224 32.2915 42.6991 31.7765 42.327 30.9524C42.141 30.5404 42.141 30.0254 42.327 29.6134C42.4201 29.3043 42.7922 29.2013 42.9782 29.4073C43.2573 29.5103 43.3503 29.9224 43.1642 30.1284C43.0712 30.2314 43.0712 30.3344 43.1642 30.4374C43.3503 30.7464 44.0015 31.1584 45.2108 31.2614C46.8852 31.3644 48.4666 30.7464 48.7456 30.1284C48.8387 29.9224 48.8387 29.9224 48.7456 29.8194C48.6526 29.7164 48.3735 29.3043 46.6061 28.8923C45.1177 28.5833 44.2805 28.1713 44.0015 27.4503C43.8154 27.1412 43.9084 26.7292 44.0015 26.4202C44.5596 25.2872 46.5131 24.8751 48.0945 24.9781C49.3968 25.0811 50.4201 25.5962 50.6991 26.3172C50.8852 26.7292 50.8852 27.1412 50.6991 27.4503C50.6061 27.7593 50.234 27.8623 50.048 27.6563C49.7689 27.5533 49.6759 27.1412 49.8619 26.9352C49.8619 26.8322 49.8619 26.8322 49.8619 26.8322C49.7689 26.6262 49.1177 26.2142 48.0015 26.1112C46.4201 26.0082 45.1177 26.5232 44.9317 26.9352C44.9317 27.0382 45.3038 27.5533 46.7922 27.7593C48.3735 28.0683 49.3038 28.5833 49.5828 29.3043C49.6759 29.6134 49.7689 30.0254 49.4898 30.5404C49.1177 31.8795 47.2573 32.3945 45.6759 32.3945Z" fill="#FFEC4A"/>
<path d="M48.0919 26.2147C47.9989 26.2147 47.9059 26.2147 47.9059 26.1117C47.6268 26.0087 47.5338 25.5967 47.7198 25.3907L48.0919 24.6696C48.185 24.3606 48.557 24.2576 48.7431 24.4636C49.0222 24.5666 49.1152 24.9786 48.9291 25.1847L48.557 25.9057C48.464 26.1117 48.278 26.2147 48.0919 26.2147Z" fill="#FFEC4A"/>
<path d="M44.8361 33.1161C44.7431 33.1161 44.65 33.1161 44.65 33.0131C44.371 32.9101 44.2779 32.498 44.464 32.292L44.8361 31.571C44.9291 31.262 45.3012 31.159 45.4872 31.365C45.7663 31.468 45.8593 31.88 45.6733 32.086L45.3012 32.8071C45.2082 33.0131 45.0221 33.1161 44.8361 33.1161Z" fill="#FFEC4A"/>
<path d="M46.4204 37.7509C37.3041 37.7509 30.2344 33.8367 30.2344 28.6865C30.2344 23.6393 37.3972 19.6221 46.4204 19.6221C55.5367 19.6221 62.6065 23.5363 62.6065 28.6865C62.6065 33.8367 55.5367 37.7509 46.4204 37.7509ZM46.4204 20.8581C38.1414 20.8581 31.2576 24.4633 31.2576 28.7895C31.2576 33.1157 38.2344 36.7209 46.4204 36.7209C54.6995 36.7209 61.6762 33.1157 61.6762 28.7895C61.5832 24.4633 54.6995 20.8581 46.4204 20.8581Z" fill="#FFEC4A"/>
<path d="M46.4204 44.9611C37.3041 44.9611 30.2344 41.0469 30.2344 35.8967V34.0426C30.2344 33.7336 30.4204 33.5276 30.6995 33.5276C30.9786 33.5276 31.1646 33.7336 31.1646 34.0426V35.8967C31.1646 40.2229 38.1414 43.8281 46.3274 43.8281C54.6065 43.8281 61.5832 40.2229 61.5832 35.8967V34.0426C61.5832 33.7336 61.7693 33.5276 62.0483 33.5276C62.3274 33.5276 62.5134 33.7336 62.5134 34.0426V35.8967C62.6065 41.0469 55.5367 44.9611 46.4204 44.9611Z" fill="#FFEC4A"/>
<path d="M46.4204 52.4809C37.3041 52.4809 30.2344 48.5667 30.2344 43.4165V41.5624C30.2344 41.2534 30.4204 41.0474 30.6995 41.0474C30.9786 41.0474 31.1646 41.2534 31.1646 41.5624V43.4165C31.1646 47.7427 38.1414 51.3478 46.3274 51.3478C54.6065 51.3478 61.5832 47.7427 61.5832 43.4165V41.5624C61.5832 41.2534 61.7693 41.0474 62.0483 41.0474C62.3274 41.0474 62.5134 41.2534 62.5134 41.5624V43.4165C62.6065 48.4637 55.5367 52.4809 46.4204 52.4809Z" fill="#FFEC4A"/>
<path d="M46.4204 59.5883C37.3041 59.5883 30.2344 55.6741 30.2344 50.5239V48.6698C30.2344 48.3608 30.4204 48.1548 30.6995 48.1548C30.9786 48.1548 31.1646 48.3608 31.1646 48.6698V50.5239C31.1646 54.8501 38.1414 58.4553 46.3274 58.4553C54.6065 58.4553 61.5832 54.8501 61.5832 50.5239V48.6698C61.5832 48.3608 61.7693 48.1548 62.0483 48.1548C62.3274 48.1548 62.5134 48.3608 62.5134 48.6698V50.5239C62.6065 55.6741 55.5367 59.5883 46.4204 59.5883Z" fill="#FFEC4A"/>
<path d="M44.2788 35.3827C42.6974 35.2797 41.302 34.9707 39.9997 34.6617C39.7206 34.5586 39.5346 34.2496 39.6276 33.9406C39.7206 33.6316 39.9997 33.4256 40.1857 33.5286C41.4881 33.8376 42.7904 34.1466 44.2788 34.2496C44.5578 34.2496 44.7439 34.5586 44.7439 34.8677C44.8369 35.1767 44.5578 35.3827 44.2788 35.3827ZM48.5578 35.3827C48.2788 35.3827 48.0927 35.1767 48.0927 34.8677C48.0927 34.5586 48.2788 34.2496 48.5578 34.2496C50.0462 34.1466 51.3485 33.8376 52.6508 33.5286C52.9299 33.4256 53.209 33.6316 53.302 33.9406C53.395 34.2496 53.209 34.5586 52.9299 34.6617C51.5346 34.9707 50.0462 35.2797 48.5578 35.3827ZM36.1857 32.9106C36.0927 32.9106 35.9997 32.9106 35.9067 32.8076C34.1392 31.6745 33.209 30.2324 33.209 28.7904C33.209 28.4814 33.395 28.2754 33.6741 28.2754C33.9532 28.2754 34.1392 28.4814 34.1392 28.7904C34.1392 30.1294 35.3485 31.2625 36.3718 31.8805C36.6508 32.0865 36.6508 32.3955 36.5578 32.6016C36.5578 32.8076 36.3718 32.9106 36.1857 32.9106ZM56.6508 32.9106C56.4648 32.9106 56.2788 32.8076 56.1857 32.6016C55.9997 32.2925 56.0927 31.9835 56.3718 31.8805C57.395 31.2625 58.5113 30.1294 58.5113 28.7904C58.5113 28.4814 58.6974 28.1724 58.9764 28.1724C59.2555 28.1724 59.4415 28.3784 59.4415 28.6874C59.4415 30.2324 58.5113 31.6745 56.8369 32.8076C56.8369 32.9106 56.7439 32.9106 56.6508 32.9106ZM36.1857 25.7002C35.9997 25.7002 35.8136 25.5972 35.7206 25.3912C35.5346 25.0822 35.6276 24.7732 35.9067 24.6702C37.0229 23.9492 38.3253 23.3311 39.9997 22.9191C40.2788 22.8161 40.5578 23.0221 40.6508 23.3311C40.7439 23.6401 40.5578 23.9492 40.2788 24.0522C38.7904 24.4642 37.4881 25.0822 36.4648 25.7002C36.3718 25.7002 36.2788 25.7002 36.1857 25.7002ZM56.5578 25.7002C56.4648 25.7002 56.3718 25.7002 56.2788 25.5972C55.2555 24.9792 53.9532 24.3612 52.4648 23.9492C52.1857 23.8462 51.9997 23.5371 52.0927 23.3311C52.1857 23.0221 52.4648 22.8161 52.7439 22.9191C54.3253 23.3311 55.7206 23.9492 56.8369 24.6702C57.116 24.8762 57.116 25.1852 57.0229 25.3912C56.9299 25.5972 56.7439 25.7002 56.5578 25.7002ZM44.2788 23.2281C43.9997 23.2281 43.8136 23.0221 43.8136 22.7131C43.8136 22.4041 43.9997 22.0951 44.2788 22.0951C45.6741 21.9921 47.1625 21.9921 48.5578 22.0951C48.8369 22.0951 49.0229 22.4041 49.0229 22.7131C49.0229 23.0221 48.7439 23.2281 48.4648 23.2281C47.0695 23.1251 45.6741 23.1251 44.2788 23.2281Z" fill="#FFEC4A"/>
<path d="M64.37 27.4501C64.1839 27.4501 63.9049 27.2441 63.9049 27.0381C63.8119 26.7291 63.9979 26.4201 64.277 26.4201C65.1142 26.2141 65.8584 25.8021 66.0444 25.39C66.1374 25.184 66.1374 25.081 66.0444 25.081C65.9514 24.978 65.6723 24.463 63.8119 24.154C63.6258 24.154 63.4398 24.051 63.2537 24.051C62.9746 23.948 62.7886 23.639 62.8816 23.433C62.9746 23.1239 63.1607 22.9179 63.4398 23.0209C63.6258 23.0209 63.7188 23.1239 63.9049 23.1239C65.5793 23.433 66.5095 23.948 66.8816 24.669C66.9746 24.978 67.0677 25.39 66.7886 26.0081C66.4165 26.7291 65.5793 27.3471 64.37 27.6561C64.463 27.4501 64.463 27.4501 64.37 27.4501Z" fill="#FFEC4A"/>
<path d="M67.7202 22.8158C67.6272 22.8158 67.5341 22.8158 67.5341 22.7128C67.2551 22.6098 67.162 22.1977 67.3481 21.9917C67.3481 21.8887 67.3481 21.8887 67.3481 21.7857C67.2551 21.4767 66.6039 21.0647 65.3946 20.9617C64.1853 20.8587 62.976 21.1677 62.3248 21.5797C62.1388 21.7857 61.7667 21.6827 61.6737 21.4767C61.4876 21.2707 61.5807 20.8587 61.7667 20.7557C62.6039 20.1376 63.9993 19.8286 65.4876 19.9316C66.883 20.0346 67.9062 20.5497 68.2783 21.2707C68.4644 21.6827 68.4644 22.0947 68.2783 22.5067C68.0923 22.7128 67.9062 22.8158 67.7202 22.8158Z" fill="#FFEC4A"/>
<path d="M65.3959 21.0643C65.3029 21.0643 65.2098 21.0643 65.1168 20.9613C64.8378 20.8583 64.7447 20.4463 64.9308 20.2403L65.3029 19.4162C65.3959 19.1072 65.768 19.0042 65.954 19.2102C66.2331 19.3132 66.3261 19.7252 66.1401 19.9312L65.768 20.7553C65.768 20.9613 65.5819 21.0643 65.3959 21.0643Z" fill="#FFEC4A"/>
<path d="M64.7432 32.9101C64.4641 32.9101 64.2781 32.7041 64.2781 32.3951C64.2781 32.086 64.4641 31.88 64.7432 31.777C72.5571 31.468 78.6037 27.9659 78.6037 23.8457C78.6037 19.5195 71.6269 15.9143 63.3478 15.9143C59.2548 15.9143 55.4409 16.7383 52.5571 18.2834C52.2781 18.3864 51.999 18.2834 51.906 17.9744C51.813 17.6654 51.906 17.3564 52.185 17.2534C55.1618 15.6053 59.1618 14.7812 63.4409 14.7812C72.5571 14.7812 79.6269 18.6954 79.6269 23.8457C79.6269 28.5839 73.3013 32.4981 64.7432 32.9101C64.8362 32.9101 64.8362 32.9101 64.7432 32.9101Z" fill="#FFEC4A"/>
<path d="M64.7444 40.1205C64.4653 40.1205 64.2793 39.9145 64.2793 39.6055C64.2793 39.2965 64.4653 39.0905 64.7444 38.9875C72.5584 38.6785 78.6049 35.1763 78.6049 31.0561V29.202C78.6049 28.893 78.7909 28.687 79.07 28.687C79.3491 28.687 79.5351 28.893 79.5351 29.202V31.0561C79.6281 35.7943 73.3026 39.7085 64.7444 40.1205C64.8374 40.1205 64.8374 40.1205 64.7444 40.1205Z" fill="#FFEC4A"/>
<path d="M64.7444 47.5366C64.4653 47.5366 64.2793 47.3305 64.2793 47.0215C64.2793 46.7125 64.4653 46.5065 64.7444 46.4035C72.5584 46.0945 78.6049 42.5923 78.6049 38.4721V36.6181C78.6049 36.309 78.7909 36.103 79.07 36.103C79.3491 36.103 79.5351 36.309 79.5351 36.6181V38.4721C79.6281 43.3134 73.3026 47.1245 64.7444 47.5366C64.8374 47.5366 64.8374 47.5366 64.7444 47.5366Z" fill="#FFEC4A"/>
<path d="M56.6495 19.2105C56.4634 19.2105 56.1844 19.0045 56.1844 18.7985C56.0913 18.4895 56.2774 18.1805 56.5564 18.0775C57.2076 17.8715 57.8588 17.6654 58.5099 17.5624C58.789 17.4594 59.0681 17.6654 59.0681 17.9745C59.1611 18.2835 58.9751 18.5925 58.696 18.5925C58.0448 18.6955 57.3937 18.9015 56.8355 19.1075C56.7425 19.2105 56.6495 19.2105 56.6495 19.2105Z" fill="#FFEC4A"/>
<path d="M70.3255 29.7171C70.1394 29.7171 69.8604 29.5111 69.8604 29.3051C69.7674 28.9961 69.9534 28.687 70.2325 28.584C71.4418 28.172 72.465 27.76 73.3953 27.245C73.6743 27.142 73.9534 27.142 74.0464 27.451C74.1394 27.76 74.1394 28.069 73.8604 28.172C72.9301 28.79 71.8139 29.3051 70.5115 29.6141C70.4185 29.7171 70.4185 29.7171 70.3255 29.7171ZM76.0929 25.5969C75.9999 25.5969 75.9999 25.5969 75.9069 25.5969C75.6278 25.4939 75.5348 25.0819 75.6278 24.8759C75.7208 24.5669 75.8139 24.2578 75.8139 23.9488C75.8139 23.2278 75.5348 22.6098 74.9767 21.9917C74.7906 21.7857 74.7906 21.3737 74.9767 21.1677C75.1627 20.9617 75.5348 20.9617 75.7208 21.1677C76.465 21.9917 76.8371 22.9188 76.8371 23.9488C76.8371 24.4639 76.7441 24.8759 76.5581 25.3909C76.465 25.4939 76.279 25.5969 76.0929 25.5969ZM72.465 19.9316C72.372 19.9316 72.372 19.9316 72.279 19.9316C71.3487 19.5196 70.2325 19.1076 69.0232 18.7986C68.7441 18.6956 68.558 18.4896 68.6511 18.1806C68.7441 17.8715 68.9301 17.6655 69.2092 17.7685C70.5115 18.0776 71.6278 18.4896 72.6511 18.9016C72.9301 19.0046 73.0232 19.3136 72.9301 19.6226C72.8371 19.8286 72.6511 19.9316 72.465 19.9316ZM65.5813 18.2836C64.465 18.1806 63.2557 18.1806 62.0464 18.2836C61.7674 18.2836 61.5813 18.0776 61.4883 17.7685C61.4883 17.4595 61.6743 17.2535 61.9534 17.1505C63.1627 17.0475 64.372 17.1505 65.5813 17.1505C65.8604 17.1505 66.0464 17.4595 66.0464 17.7685C66.0464 18.0776 65.8604 18.2836 65.5813 18.2836Z" fill="#FFEC4A"/>
<path d="M64.8343 30.6437C64.5552 30.6437 64.3691 30.4377 64.3691 30.1287C64.3691 29.8197 64.5552 29.6137 64.8343 29.5107C65.4854 29.5107 66.1366 29.4077 66.7877 29.3047C67.0668 29.3047 67.3459 29.5107 67.3459 29.8197C67.3459 30.1287 67.1598 30.4377 66.8808 30.4377C66.2296 30.5407 65.5784 30.6437 64.8343 30.6437C64.9273 30.6437 64.9273 30.6437 64.8343 30.6437Z" fill="#FFEC4A"/>
<path d="M28.652 24.7726C28.559 24.7726 28.466 24.7726 28.373 24.6696C27.5358 24.0516 27.3497 23.2276 27.7218 22.4035C27.8148 22.0945 28.1869 21.9915 28.373 22.1975C28.652 22.3005 28.7451 22.7125 28.559 22.9185C28.466 23.0215 28.373 23.3306 28.9311 23.7426C29.1171 23.9486 29.2102 24.2576 29.0241 24.4636C28.9311 24.7726 28.7451 24.7726 28.652 24.7726Z" fill="#FFEC4A"/>
<path d="M32.2795 21.0645H32.1865C31.0702 20.7554 30.419 20.4464 30.233 19.8284C30.14 19.5194 30.14 19.2104 30.326 18.9014C30.8841 17.9743 32.8376 17.5623 34.419 17.7683C35.5353 17.8713 36.4655 18.1803 36.9307 18.5923C37.1167 18.7983 37.1167 19.1074 36.9307 19.4164C36.7446 19.6224 36.4655 19.6224 36.1865 19.4164C36.0004 19.2104 35.3493 18.9014 34.326 18.7983C32.6516 18.6953 31.3493 19.1074 31.1632 19.4164C31.2562 19.4164 31.5353 19.6224 32.3725 19.9314C32.6516 20.0344 32.8376 20.3434 32.7446 20.5494C32.7446 20.8584 32.4655 21.0645 32.2795 21.0645Z" fill="#FFEC4A"/>
<path d="M34.3274 18.9011C34.2344 18.9011 34.1413 18.9011 34.0483 18.7981C33.7693 18.5921 33.7693 18.2831 33.8623 18.077L34.2344 17.459C34.4204 17.15 34.6995 17.15 34.8855 17.253C35.1646 17.459 35.1646 17.768 35.0716 17.974L34.6995 18.5921C34.6995 18.7981 34.5134 18.9011 34.3274 18.9011Z" fill="#FFEC4A"/>
<path d="M28.0022 30.0254C20.9324 28.8924 16.2812 25.3902 16.2812 21.373C16.2812 16.3258 23.444 12.3086 32.4673 12.3086C38.1417 12.3086 43.351 13.9567 46.3278 16.5318C46.5138 16.7378 46.6068 17.0468 46.4208 17.3558C46.2347 17.5618 45.9557 17.6648 45.6766 17.4588C42.9789 14.9867 37.8626 13.4416 32.4673 13.4416C24.1882 13.4416 17.3045 17.0468 17.3045 21.373C17.3045 24.7722 21.7696 27.9653 28.0952 28.9954C28.3743 28.9954 28.5603 29.3044 28.5603 29.6134C28.4673 29.8194 28.2813 30.0254 28.0022 30.0254Z" fill="#FFEC4A"/>
<path d="M28.0022 37.2359C20.9324 36.1028 16.2812 32.6006 16.2812 28.5835V26.7294C16.2812 26.4204 16.4673 26.2144 16.7464 26.2144C17.0254 26.2144 17.2115 26.4204 17.2115 26.7294V28.5835C17.2115 31.9826 21.6766 35.1758 28.0022 36.2058C28.2812 36.2058 28.4673 36.5148 28.4673 36.8238C28.4673 37.0299 28.2812 37.2359 28.0022 37.2359Z" fill="#FFEC4A"/>
<path d="M28.0022 44.6524C20.9324 43.5193 16.2812 40.0172 16.2812 36V34.1459C16.2812 33.8369 16.4673 33.6309 16.7464 33.6309C17.0254 33.6309 17.2115 33.8369 17.2115 34.1459V36C17.2115 39.3991 21.6766 42.5923 28.0022 43.6223C28.2812 43.6223 28.4673 43.9313 28.4673 44.2403C28.4673 44.4464 28.2812 44.6524 28.0022 44.6524Z" fill="#FFEC4A"/>
<path d="M27.3471 27.3477C26.6029 27.2447 25.8587 27.0387 25.3006 26.8327C25.0215 26.7297 24.8355 26.4207 24.9285 26.1117C25.0215 25.8027 25.3006 25.5966 25.5797 25.6996C26.2308 25.9057 26.789 26.0087 27.5331 26.1117C27.8122 26.1117 27.9983 26.4207 27.9052 26.7297C27.8122 27.1417 27.6262 27.3477 27.3471 27.3477Z" fill="#FFEC4A"/>
<path d="M21.4867 25.0819C21.3937 25.0819 21.3007 25.0818 21.2077 24.9788C19.6263 23.9488 18.7891 22.6097 18.7891 21.2707C18.7891 21.0647 18.7891 20.8587 18.8821 20.6526C18.9751 20.3436 19.2542 20.1376 19.4402 20.2406C19.7193 20.3436 19.9053 20.5496 19.8123 20.8587C19.8123 20.9617 19.8123 21.1677 19.8123 21.2707C19.8123 22.5067 20.8356 23.4338 21.7658 24.0518C22.0449 24.2578 22.0449 24.5668 21.9519 24.7728C21.7658 24.9788 21.5798 25.0819 21.4867 25.0819ZM22.2309 18.1805C22.0449 18.1805 21.8588 18.0775 21.7658 17.8715C21.6728 17.5625 21.7658 17.2535 21.9519 17.1505C23.0681 16.5325 24.5565 16.0174 26.1379 15.6054C26.417 15.5024 26.696 15.7084 26.696 16.0174C26.7891 16.3264 26.603 16.6355 26.3239 16.6355C24.8356 17.0475 23.4402 17.4595 22.417 18.0775C22.417 18.0775 22.3239 18.1805 22.2309 18.1805ZM34.603 16.0174C33.3007 15.9144 31.9053 15.9144 30.603 16.0174C30.3239 16.0174 30.1379 15.8114 30.0449 15.5024C30.0449 15.1934 30.2309 14.9874 30.51 14.8844C31.9053 14.7814 33.3007 14.7814 34.603 14.8844C34.8821 14.8844 35.0681 15.1934 35.0681 15.5024C35.0681 15.8114 34.8821 16.0174 34.603 16.0174Z" fill="#FFEC4A"/>
<path d="M40.9311 17.3565C40.8381 17.3565 40.8381 17.3565 40.745 17.3565C40.1869 17.1505 39.5357 16.9445 38.8846 16.7385C38.6055 16.6355 38.4195 16.3265 38.5125 16.1205C38.6055 15.8114 38.8846 15.6054 39.0706 15.7084C39.7218 15.9144 40.3729 16.1205 41.0241 16.3265C41.3032 16.4295 41.3962 16.7385 41.3032 17.0475C41.3962 17.1505 41.2102 17.3565 40.9311 17.3565Z" fill="#FFEC4A"/>
<path d="M45.6741 32.0858C45.4881 32.0858 45.3021 32.0858 45.116 32.0858C43.8137 31.9828 42.8834 31.4678 42.6044 30.8497C42.4183 30.5407 42.4183 30.1287 42.6044 29.8197C42.6044 29.7167 42.7904 29.7167 42.7904 29.7167C42.8834 29.7167 42.8834 29.9227 42.8834 29.9227C42.7904 30.1287 42.7904 30.3347 42.8834 30.5407C43.1625 31.0558 43.9997 31.4678 45.116 31.5708C46.7904 31.6738 48.5579 31.0558 49.023 30.2317C49.116 30.0257 49.116 29.8197 49.023 29.6137C48.8369 29.3047 48.3718 28.8927 46.6974 28.4806C45.7672 28.2746 44.6509 27.9656 44.2788 27.2446C44.1858 27.0386 44.1858 26.7296 44.2788 26.5235C44.6509 25.6995 46.3253 25.0815 47.9997 25.2875C49.209 25.3905 50.0462 25.8025 50.4183 26.4205C50.5114 26.7296 50.5114 26.9356 50.4183 27.2446C50.4183 27.3476 50.2323 27.3476 50.2323 27.3476C50.1393 27.3476 50.1393 27.1416 50.1393 27.1416C50.2323 26.9356 50.2323 26.8326 50.1393 26.6265C49.8602 26.1115 49.116 25.8025 47.9997 25.6995C46.5114 25.5965 44.93 26.0085 44.5579 26.7296C44.4648 26.8326 44.4648 27.0386 44.5579 27.1416C44.7439 27.5536 45.4881 27.9656 46.6974 28.1716C48.1858 28.4806 49.023 28.8927 49.3021 29.5107C49.3951 29.8197 49.3951 30.1287 49.209 30.4377C48.93 31.4678 47.3486 32.0858 45.6741 32.0858Z" fill="white"/>
<path d="M48.0923 25.8025C47.9063 25.6995 47.9062 25.5965 47.9062 25.4935L48.2783 24.7724C48.2783 24.6694 48.4644 24.6694 48.4644 24.6694C48.5574 24.6694 48.5574 24.8754 48.5574 24.8754L48.1853 25.5965C48.2783 25.8025 48.1853 25.8025 48.0923 25.8025Z" fill="white"/>
<path d="M44.8384 32.8069C44.6523 32.7039 44.6523 32.6009 44.6523 32.4979L45.0244 31.7768C45.0244 31.6738 45.2105 31.6738 45.2105 31.6738C45.3035 31.6738 45.3035 31.8798 45.3035 31.8798L44.9314 32.7039C44.9314 32.7039 44.9314 32.8069 44.8384 32.8069Z" fill="white"/>
<path d="M46.4187 37.442C37.6745 37.442 30.5117 33.5278 30.5117 28.7896C30.5117 24.0514 37.6745 20.1372 46.4187 20.1372C55.1629 20.1372 62.3257 24.0514 62.3257 28.7896C62.3257 33.5278 55.1629 37.442 46.4187 37.442ZM46.4187 20.4462C37.8606 20.4462 30.8838 24.1544 30.8838 28.6866C30.8838 33.2188 37.8606 36.927 46.4187 36.927C54.9768 36.927 61.9536 33.2188 61.9536 28.6866C61.9536 24.1544 54.9768 20.4462 46.4187 20.4462Z" fill="white"/>
<path d="M46.4187 44.6519C37.6745 44.6519 30.5117 40.7378 30.5117 35.9995V34.1455C30.5117 34.0425 30.6047 33.9395 30.6978 33.9395C30.7908 33.9395 30.8838 34.0425 30.8838 34.1455V35.9995C30.8838 40.5318 37.8606 44.2399 46.4187 44.2399C54.9768 44.2399 61.9536 40.5318 61.9536 35.9995V34.1455C61.9536 34.0425 62.0466 33.9395 62.1396 33.9395C62.2327 33.9395 62.3257 34.0425 62.3257 34.1455V35.9995C62.3257 40.7378 55.1629 44.6519 46.4187 44.6519Z" fill="white"/>
<path d="M46.4187 52.0689C37.6745 52.0689 30.5117 48.1548 30.5117 43.4165V41.5625C30.5117 41.4594 30.6047 41.3564 30.6978 41.3564C30.7908 41.3564 30.8838 41.4594 30.8838 41.5625V43.4165C30.8838 47.9487 37.8606 51.6569 46.4187 51.6569C54.9768 51.6569 61.9536 47.9487 61.9536 43.4165V41.5625C61.9536 41.4594 62.0466 41.3564 62.1396 41.3564C62.2327 41.3564 62.3257 41.4594 62.3257 41.5625V43.4165C62.3257 48.1548 55.1629 52.0689 46.4187 52.0689Z" fill="white"/>
<path d="M46.4187 59.2789C37.6745 59.2789 30.5117 55.3647 30.5117 50.6265V48.7724C30.5117 48.6694 30.6047 48.5664 30.6978 48.5664C30.7908 48.5664 30.8838 48.6694 30.8838 48.7724V50.6265C30.8838 55.1587 37.8606 58.8669 46.4187 58.8669C54.9768 58.8669 61.9536 55.1587 61.9536 50.6265V48.7724C61.9536 48.6694 62.0466 48.5664 62.1396 48.5664C62.2327 48.5664 62.3257 48.6694 62.3257 48.7724V50.6265C62.3257 55.3647 55.1629 59.2789 46.4187 59.2789Z" fill="white"/>
<path d="M44.2797 34.97C42.7913 34.867 41.396 34.558 40.0937 34.249C40.0006 34.249 39.9076 34.146 40.0006 34.043C40.0006 33.94 40.0937 33.837 40.1867 33.94C41.489 34.249 42.8844 34.558 44.3727 34.661C44.4658 34.661 44.5588 34.764 44.5588 34.867C44.4658 34.97 44.3727 34.97 44.2797 34.97ZM48.5588 34.97C48.4658 34.97 48.3727 34.867 48.3727 34.764C48.3727 34.661 48.4658 34.558 48.5588 34.558C50.0472 34.455 51.4425 34.146 52.7448 33.837C52.8378 33.837 52.9309 33.837 52.9309 33.94C52.9309 34.043 52.9309 34.146 52.8378 34.146C51.4425 34.661 50.0472 34.867 48.5588 34.97ZM36.1867 32.6009C34.5123 31.4679 33.582 30.2318 33.582 28.7897C33.582 28.6867 33.6751 28.5837 33.7681 28.5837C33.8611 28.5837 33.9541 28.6867 33.9541 28.7897C33.9541 30.0258 34.7913 31.1588 36.2797 32.1889C36.3727 32.2919 36.3727 32.3949 36.3727 32.3949C36.3727 32.4979 36.2797 32.6009 36.1867 32.6009ZM56.6518 32.4979C56.5588 32.4979 56.5588 32.4979 56.4658 32.3949C56.4658 32.2919 56.4658 32.1889 56.5588 32.1889C58.0471 31.1588 58.8844 30.0258 58.8844 28.7897C58.8844 28.7897 58.8844 28.7897 58.8844 28.6867C58.8844 28.5837 58.9774 28.4807 59.0704 28.4807C59.1634 28.4807 59.2565 28.5837 59.2565 28.6867V28.7897C59.1634 30.1288 58.3262 31.4679 56.6518 32.4979ZM36.1867 25.3906C36.0937 25.3906 36.0937 25.3906 36.0006 25.2876C35.9076 25.1846 36.0006 25.0816 36.0937 25.0816C37.1169 24.3605 38.5123 23.7425 40.0937 23.3305C40.1867 23.3305 40.2797 23.3305 40.2797 23.4335C40.2797 23.5365 40.2797 23.6395 40.1867 23.6395C38.6053 24.0515 37.303 24.6696 36.1867 25.3906ZM56.5588 25.2876C55.4425 24.5665 54.1402 24.0515 52.5588 23.5365C52.4658 23.5365 52.3727 23.4335 52.4658 23.3305C52.4658 23.2275 52.5588 23.1245 52.6518 23.2275C54.2332 23.6395 55.5355 24.2575 56.6518 24.9786C56.7448 25.0816 56.7448 25.1846 56.7448 25.1846C56.6518 25.2876 56.6518 25.2876 56.5588 25.2876ZM44.2797 22.9185C44.1867 22.9185 44.0937 22.8155 44.0937 22.7125C44.0937 22.6095 44.1867 22.5065 44.2797 22.5065C45.6751 22.4034 47.1634 22.4034 48.5588 22.5065C48.6518 22.5065 48.7448 22.6095 48.7448 22.7125C48.7448 22.8155 48.6518 22.9185 48.5588 22.9185C47.0704 22.8155 45.6751 22.8155 44.2797 22.9185Z" fill="white"/>
<path d="M64.3716 27.1414C64.2786 27.1414 64.1856 27.0384 64.1856 27.0384C64.1856 26.9354 64.1856 26.8324 64.2786 26.8324C65.3949 26.5234 66.139 26.0084 66.3251 25.4934C66.4181 25.2874 66.4181 25.0813 66.3251 24.8753C66.139 24.5663 65.6739 24.0513 63.9065 23.7423C63.7204 23.7423 63.5344 23.6393 63.3484 23.6393C63.2553 23.6393 63.1623 23.5363 63.2553 23.4333C63.2553 23.3303 63.3484 23.2273 63.4414 23.3303C63.6274 23.3303 63.8135 23.4333 63.9065 23.4333C65.4879 23.7423 66.3251 24.1543 66.6042 24.7723C66.6972 25.0813 66.6972 25.3904 66.5111 25.8024C66.3251 26.3174 65.5809 26.8324 64.3716 27.1414Z" fill="white"/>
<path d="M67.7202 22.5064C67.5341 22.4034 67.5341 22.3004 67.5341 22.1974C67.6271 21.9913 67.6271 21.8883 67.5341 21.6823C67.2551 21.1673 66.4178 20.7553 65.3016 20.7553C63.9992 20.6523 62.6969 20.9613 62.0458 21.4763C61.9527 21.5793 61.8597 21.4763 61.8597 21.4763C61.7667 21.3733 61.8597 21.2703 61.8597 21.2703C62.6039 20.6523 63.9992 20.3433 65.3016 20.4463C66.5109 20.5493 67.4411 20.9613 67.8132 21.5793C67.9062 21.8883 67.9992 22.1974 67.8132 22.4034C67.8132 22.4034 67.8132 22.5064 67.7202 22.5064Z" fill="white"/>
<path d="M65.397 20.7551C65.2109 20.6521 65.2109 20.5491 65.2109 20.4461L65.583 19.622C65.583 19.519 65.7691 19.519 65.7691 19.519C65.8621 19.519 65.8621 19.7251 65.8621 19.7251L65.49 20.5491C65.49 20.6521 65.397 20.7551 65.397 20.7551Z" fill="white"/>
<path d="M64.7451 32.4982C64.6521 32.4982 64.5591 32.3951 64.5591 32.2921C64.5591 32.1891 64.6521 32.0861 64.7451 32.0861C72.7451 31.6741 78.9777 28.0689 78.9777 23.8458C78.9777 19.3135 72.001 15.6054 63.4428 15.6054C59.3498 15.6054 55.4428 16.4294 52.5591 17.9745C52.4661 17.9745 52.373 17.9745 52.373 17.8715C52.373 17.7685 52.373 17.6655 52.4661 17.6655C55.4428 16.1204 59.3498 15.1934 63.5358 15.1934C72.28 15.1934 79.4428 19.1075 79.4428 23.8458C79.3498 28.378 73.0242 32.0861 64.7451 32.4982Z" fill="white"/>
<path d="M64.7446 39.7086C64.6516 39.7086 64.5586 39.6056 64.5586 39.5026C64.5586 39.3996 64.6516 39.2966 64.7446 39.2966C72.7446 38.8846 78.9772 35.2794 78.9772 31.0562V29.2021C78.9772 29.0991 79.0702 28.9961 79.1632 28.9961C79.2563 28.9961 79.3493 29.0991 79.3493 29.2021V31.0562C79.3493 35.5884 73.0237 39.2966 64.7446 39.7086Z" fill="white"/>
<path d="M64.7446 47.1246C64.6516 47.1246 64.5586 47.0216 64.5586 46.9186C64.5586 46.8156 64.6516 46.7126 64.7446 46.7126C72.7446 46.3006 78.9772 42.6954 78.9772 38.4722V36.6181C78.9772 36.5151 79.0702 36.4121 79.1632 36.4121C79.2563 36.4121 79.3493 36.5151 79.3493 36.6181V38.4722C79.3493 43.1074 73.0237 46.8156 64.7446 47.1246Z" fill="white"/>
<path d="M56.6528 18.7979C56.5598 18.7979 56.4668 18.6949 56.4668 18.6949C56.4668 18.5919 56.4668 18.4889 56.5598 18.4889C57.211 18.2829 57.8621 18.1799 58.5133 17.9739C58.6063 17.9739 58.6994 17.9739 58.6994 18.0769C58.6994 18.1799 58.6994 18.2829 58.6063 18.2829C57.9552 18.4889 57.304 18.5919 56.6528 18.7979Z" fill="white"/>
<path d="M70.3284 29.3042C70.2354 29.3042 70.1423 29.2012 70.1423 29.2012C70.1423 29.0982 70.1423 28.9951 70.2354 28.9951C71.4447 28.5831 72.561 28.1711 73.4912 27.5531C73.5842 27.4501 73.6772 27.5531 73.6772 27.6561C73.6772 27.7591 73.6772 27.8621 73.5842 27.8621C72.747 28.4801 71.6307 28.9952 70.3284 29.3042ZM76.0958 25.287C75.9098 25.184 75.9098 25.081 75.9098 24.978C76.0958 24.5659 76.0958 24.2569 76.0958 23.8449C76.0958 23.0209 75.8168 22.2998 75.1656 21.5788C75.0726 21.4758 75.0726 21.3728 75.1656 21.2698C75.2586 21.1668 75.3517 21.1668 75.4447 21.2698C76.0958 22.0938 76.4679 22.9179 76.4679 23.7419C76.4679 24.1539 76.3749 24.5659 76.1889 24.978C76.2819 25.184 76.1889 25.287 76.0958 25.287ZM72.4679 19.6217C72.3749 19.6217 72.3749 19.6217 72.4679 19.6217C71.4447 19.1067 70.3284 18.7977 69.0261 18.4887C68.933 18.4887 68.84 18.3857 68.9331 18.2827C68.9331 18.1797 69.0261 18.0766 69.1191 18.1797C70.3284 18.4887 71.5377 18.9007 72.561 19.3127C72.654 19.3127 72.654 19.4157 72.654 19.5187C72.561 19.5187 72.4679 19.6217 72.4679 19.6217ZM65.5842 17.8706C64.4679 17.7676 63.2586 17.7676 62.0493 17.8706C61.9563 17.8706 61.8633 17.7676 61.8633 17.6646C61.8633 17.5616 61.9563 17.4586 62.0493 17.4586C63.2586 17.3556 64.4679 17.4586 65.5842 17.4586C65.6772 17.4586 65.7703 17.5616 65.7703 17.6646C65.7703 17.8706 65.6772 17.8706 65.5842 17.8706Z" fill="white"/>
<path d="M64.8384 30.2311C64.7454 30.2311 64.6523 30.1281 64.6523 30.0251C64.6523 29.9221 64.7454 29.819 64.8384 29.819C65.4896 29.819 66.1407 29.716 66.7919 29.613C66.8849 29.613 66.9779 29.716 66.9779 29.819C66.9779 29.9221 66.8849 30.0251 66.7919 30.0251C66.2337 30.1281 65.5826 30.2311 64.8384 30.2311Z" fill="white"/>
<path d="M28.6517 24.4639H28.5587C27.9076 23.9489 27.7215 23.3309 28.0006 22.6098C28.0006 22.5068 28.1866 22.5068 28.1866 22.5068C28.2797 22.5068 28.2797 22.7128 28.2797 22.7128C28.0006 23.3309 28.3727 23.7429 28.7448 24.0519C28.8378 24.1549 28.8378 24.2579 28.7448 24.2579C28.7448 24.4639 28.6517 24.4639 28.6517 24.4639Z" fill="white"/>
<path d="M32.2797 20.6523C31.2565 20.4463 30.6983 20.0343 30.5123 19.6222C30.4193 19.5192 30.4193 19.3132 30.6053 19.0042C30.9774 18.2832 32.6518 17.8712 34.4193 17.9742C35.4425 18.0772 36.2797 18.3862 36.7448 18.7982C36.8379 18.9012 36.8379 19.0042 36.7448 19.1072C36.6518 19.2102 36.5588 19.2102 36.4658 19.1072C36.0937 18.7982 35.3495 18.4892 34.4193 18.3862C32.6518 18.2832 31.1634 18.6952 30.8844 19.2102C30.7913 19.3132 30.7913 19.4162 30.8844 19.4162C30.9774 19.5192 31.1634 19.9312 32.3727 20.1373C32.4658 20.1373 32.5588 20.2403 32.4658 20.3433C32.3727 20.6523 32.3727 20.6523 32.2797 20.6523Z" fill="white"/>
<path d="M34.3267 18.489C34.1406 18.386 34.1406 18.283 34.1406 18.18L34.5127 17.562C34.6057 17.459 34.6988 17.459 34.6988 17.459C34.7918 17.562 34.7918 17.665 34.7918 17.665L34.4197 18.283C34.4197 18.489 34.4197 18.489 34.3267 18.489Z" fill="white"/>
<path d="M27.9992 29.6137C21.2085 28.5837 16.6504 25.1845 16.6504 21.3733C16.6504 16.6351 23.8132 12.7209 32.5574 12.7209C38.2318 12.7209 43.255 14.266 46.1388 16.9441C46.2318 17.0471 46.2318 17.1502 46.1388 17.2532C46.0457 17.3562 45.9527 17.3562 45.8597 17.2532C43.069 14.678 37.9527 13.133 32.4643 13.133C23.9062 13.133 16.9295 16.8411 16.9295 21.3733C16.9295 24.9785 21.4876 28.2747 27.9992 29.3047C28.0923 29.3047 28.1853 29.4077 28.1853 29.5107C28.1853 29.6137 28.0923 29.6137 27.9992 29.6137Z" fill="white"/>
<path d="M27.9992 36.8244C21.2085 35.7944 16.6504 32.3952 16.6504 28.584V26.7299C16.6504 26.6269 16.7434 26.5239 16.8364 26.5239C16.9295 26.5239 17.0225 26.6269 17.0225 26.7299V28.584C17.0225 32.1892 21.5806 35.4853 28.0923 36.5154C28.1853 36.5154 28.2783 36.6184 28.2783 36.7214C28.1853 36.8244 28.0923 36.8244 27.9992 36.8244Z" fill="white"/>
<path d="M27.9992 44.2404C21.2085 43.1073 16.6504 39.8112 16.6504 35.897V34.0429C16.6504 33.9399 16.7434 33.8369 16.8364 33.8369C16.9295 33.8369 17.0225 33.9399 17.0225 34.0429V35.897C17.0225 39.5022 21.5806 42.7983 28.0923 43.8284C28.1853 43.8284 28.2783 43.9314 28.2783 44.0344C28.1853 44.2404 28.0923 44.2404 27.9992 44.2404Z" fill="white"/>
<path d="M27.3507 26.9363C26.6065 26.8333 25.9553 26.6273 25.3972 26.4213C25.3042 26.4213 25.2111 26.3183 25.3042 26.2153C25.3042 26.1122 25.3972 26.0092 25.4902 26.1122C26.1414 26.3183 26.7925 26.4213 27.4437 26.5243C27.5367 26.5243 27.6297 26.6273 27.5367 26.7303C27.5367 26.9363 27.4437 26.9363 27.3507 26.9363Z" fill="white"/>
<path d="M21.4857 24.7717C21.3927 24.7717 21.3927 24.7717 21.4857 24.7717C19.9043 23.7417 19.1602 22.6086 19.1602 21.3725C19.1602 21.1665 19.1602 20.9605 19.2532 20.8575C19.2532 20.7545 19.3462 20.6515 19.4392 20.7545C19.5323 20.7545 19.6253 20.8575 19.5323 20.9605C19.5323 21.1665 19.5323 21.2695 19.5323 21.4756C19.5323 22.6086 20.2764 23.6387 21.5788 24.5657C21.6718 24.6687 21.6718 24.7717 21.6718 24.7717C21.5788 24.6687 21.4857 24.7717 21.4857 24.7717ZM22.2299 17.7674C22.1369 17.7674 22.1369 17.7674 22.0439 17.6644C22.0439 17.5614 22.0439 17.4584 22.1369 17.4584C23.2532 16.8403 24.6485 16.3253 26.2299 15.9133C26.3229 15.9133 26.416 15.9133 26.416 16.0163C26.416 16.1193 26.416 16.2223 26.3229 16.2223C24.8346 16.6343 23.4392 17.1494 22.2299 17.7674C22.3229 17.7674 22.3229 17.7674 22.2299 17.7674ZM34.7881 15.7073C33.3927 15.6043 31.9043 15.6043 30.509 15.7073C30.416 15.7073 30.3229 15.6043 30.3229 15.5013C30.3229 15.3983 30.416 15.2953 30.509 15.2953C31.9043 15.1923 33.3927 15.1923 34.7881 15.2953C34.8811 15.2953 34.9741 15.3983 34.9741 15.5013C34.9741 15.6043 34.8811 15.7073 34.7881 15.7073Z" fill="white"/>
<path d="M40.9288 16.9441C40.2776 16.7381 39.6265 16.5321 38.9753 16.326C38.8823 16.326 38.7893 16.223 38.8823 16.12C38.8823 16.017 38.9753 15.914 39.0683 16.017C39.7195 16.223 40.3707 16.4291 41.0218 16.6351C41.1148 16.6351 41.1148 16.7381 41.1148 16.8411C41.1148 16.9441 41.0218 16.9441 40.9288 16.9441Z" fill="white"/>
</g>
<defs>
<filter id="filter0_d_31_494" x="0" y="0" width="96.002" height="80.0002" filterUnits="userSpaceOnUse" color-interpolation-filters="sRGB">
<feFlood flood-opacity="0" result="BackgroundImageFix"/>
<feColorMatrix in="SourceAlpha" type="matrix" values="0 0 0 0 0 0 0 0 0 0 0 0 0 0 0 0 0 0 127 0" result="hardAlpha"/>
<feOffset dy="4"/>
<feGaussianBlur stdDeviation="8"/>
<feComposite in2="hardAlpha" operator="out"/>
<feColorMatrix type="matrix" values="0 0 0 0 1 0 0 0 0 0.92549 0 0 0 0 0.290196 0 0 0 1 0"/>
<feBlend mode="normal" in2="BackgroundImageFix" result="effect1_dropShadow_31_494"/>
<feBlend mode="normal" in="SourceGraphic" in2="effect1_dropShadow_31_494" result="shape"/>
</filter>
</defs>
</svg>
