<svg width="25" height="24" viewBox="0 0 25 24" fill="none" xmlns="http://www.w3.org/2000/svg">
<path d="M9.5 2H18.5C19.6 2 20.5 2.9 20.5 4V20C20.5 21.1 19.6 22 18.5 22H9.5C8.4 22 7.5 21.1 7.5 20V19C7.5 18.7348 7.60536 18.4804 7.79289 18.2929C7.98043 18.1054 8.23478 18 8.5 18C8.76522 18 9.01957 18.1054 9.20711 18.2929C9.39464 18.4804 9.5 18.7348 9.5 19V20H18.5V4H9.5V5C9.5 5.26522 9.39464 5.51957 9.20711 5.70711C9.01957 5.89464 8.76522 6 8.5 6C8.23478 6 7.98043 5.89464 7.79289 5.70711C7.60536 5.51957 7.5 5.26522 7.5 5V4C7.5 2.9 8.4 2 9.5 2Z" fill="#255179"/>
<path d="M11.295 16.295C11.685 16.685 12.315 16.685 12.705 16.295L16.293 12.707C16.4805 12.5195 16.5858 12.2652 16.5858 12C16.5858 11.7348 16.4805 11.4805 16.293 11.293L12.705 7.705C12.5149 7.5332 12.2661 7.441 12.0099 7.44746C11.7538 7.45393 11.5099 7.55857 11.3287 7.73974C11.1476 7.92092 11.0429 8.16479 11.0365 8.42093C11.03 8.67708 11.1222 8.92591 11.294 9.116L13.17 11H4.5C4.23478 11 3.98043 11.1054 3.79289 11.2929C3.60536 11.4804 3.5 11.7348 3.5 12C3.5 12.2652 3.60536 12.5196 3.79289 12.7071C3.98043 12.8946 4.23478 13 4.5 13H13.17L11.294 14.884C11.1073 15.0714 11.0026 15.3252 11.0028 15.5897C11.003 15.8542 11.1081 16.1079 11.295 16.295Z" fill="#255179"/>
</svg>
