<svg width="42" height="50" viewBox="0 0 42 50" fill="none" xmlns="http://www.w3.org/2000/svg">
<path d="M41.0766 14.2984L27.9516 1.17344C27.7773 0.999374 27.5705 0.861347 27.3428 0.767245C27.1152 0.673142 26.8713 0.624807 26.625 0.625001H4.125C3.13044 0.625001 2.17661 1.02009 1.47335 1.72335C0.770088 2.42661 0.375 3.38044 0.375 4.375V45.625C0.375 46.6196 0.770088 47.5734 1.47335 48.2766C2.17661 48.9799 3.13044 49.375 4.125 49.375H37.875C38.8696 49.375 39.8234 48.9799 40.5266 48.2766C41.2299 47.5734 41.625 46.6196 41.625 45.625V15.625C41.6252 15.3787 41.5769 15.1348 41.4828 14.9072C41.3887 14.6795 41.2506 14.4727 41.0766 14.2984ZM27.9516 34.9234C28.1258 35.0976 28.264 35.3045 28.3582 35.5321C28.4525 35.7597 28.501 36.0036 28.501 36.25C28.501 36.4964 28.4525 36.7403 28.3582 36.9679C28.264 37.1955 28.1258 37.4024 27.9516 37.5766C27.7774 37.7508 27.5705 37.889 27.3429 37.9832C27.1153 38.0775 26.8714 38.126 26.625 38.126C26.3786 38.126 26.1347 38.0775 25.9071 37.9832C25.6795 37.889 25.4726 37.7508 25.2984 37.5766L21 33.2758L16.7016 37.5766C16.5274 37.7508 16.3205 37.889 16.0929 37.9832C15.8653 38.0775 15.6214 38.126 15.375 38.126C15.1286 38.126 14.8847 38.0775 14.6571 37.9832C14.4295 37.889 14.2226 37.7508 14.0484 37.5766C13.8742 37.4024 13.736 37.1955 13.6418 36.9679C13.5475 36.7403 13.499 36.4964 13.499 36.25C13.499 36.0036 13.5475 35.7597 13.6418 35.5321C13.736 35.3045 13.8742 35.0976 14.0484 34.9234L18.3492 30.625L14.0484 26.3266C13.6966 25.9747 13.499 25.4976 13.499 25C13.499 24.5024 13.6966 24.0253 14.0484 23.6734C14.4003 23.3216 14.8774 23.124 15.375 23.124C15.8726 23.124 16.3497 23.3216 16.7016 23.6734L21 27.9742L25.2984 23.6734C25.4726 23.4992 25.6795 23.361 25.9071 23.2668C26.1347 23.1725 26.3786 23.124 26.625 23.124C26.8714 23.124 27.1153 23.1725 27.3429 23.2668C27.5705 23.361 27.7774 23.4992 27.9516 23.6734C28.1258 23.8476 28.264 24.0545 28.3582 24.2821C28.4525 24.5097 28.501 24.7536 28.501 25C28.501 25.2464 28.4525 25.4903 28.3582 25.7179C28.264 25.9455 28.1258 26.1524 27.9516 26.3266L23.6508 30.625L27.9516 34.9234ZM26.625 15.625V5.3125L36.9375 15.625H26.625Z" fill="#255179"/>
</svg>
