<svg width="25" height="24" viewBox="0 0 25 24" fill="none" xmlns="http://www.w3.org/2000/svg">
<g id="maki:casino">
<path id="Vector" d="M14.1002 16.0001C14.6039 16.6717 15.3062 17.1678 16.1075 17.4182C16.9089 17.6685 17.7687 17.6603 18.5651 17.3948C19.3616 17.1293 20.0543 16.62 20.5452 15.9389C21.036 15.2579 21.3002 14.4396 21.3002 13.6001C21.3002 12.6977 20.9898 11.8737 20.4858 11.2049L20.5002 11.2001L12.5002 1.6001L4.5002 11.2001L4.5146 11.2049C3.98886 11.8929 3.70282 12.7342 3.7002 13.6001C3.7002 14.4396 3.96434 15.2579 4.45523 15.9389C4.94611 16.62 5.63884 17.1293 6.43528 17.3948C7.23173 17.6603 8.09152 17.6685 8.89287 17.4182C9.69421 17.1678 10.3965 16.6717 10.9002 16.0001L11.7002 14.9345V18.4001C11.7002 20.8001 7.7002 20.8001 7.7002 20.8001C7.48802 20.8001 7.28454 20.8844 7.13451 21.0344C6.98448 21.1844 6.9002 21.3879 6.9002 21.6001C6.9002 21.8123 6.98448 22.0158 7.13451 22.1658C7.28454 22.3158 7.48802 22.4001 7.7002 22.4001H17.3002C17.5124 22.4001 17.7159 22.3158 17.8659 22.1658C18.0159 22.0158 18.1002 21.8123 18.1002 21.6001C18.1002 21.3879 18.0159 21.1844 17.8659 21.0344C17.7159 20.8844 17.5124 20.8001 17.3002 20.8001C17.3002 20.8001 13.3002 20.8001 13.3002 18.4001V14.9345L14.1002 16.0001Z" fill="#63D0B9"/>
</g>
</svg>
