<svg width="82" height="54" viewBox="0 0 82 54" fill="none" xmlns="http://www.w3.org/2000/svg">
<path id="Vector" d="M12.4692 12.3467C11.5175 13.4465 10.2693 14.1837 9.11845 15.038C8.83584 15.1817 8.66311 15.5411 8.25425 15.4471C8.04098 16.1402 7.2373 16.3862 7.01205 17.0685C6.86866 17.0985 7.01205 17.0685 6.92342 17.1263C6.83479 17.1841 6.30729 17.0045 6.46165 17.5001C5.16786 17.9345 4.77156 19.2392 4.21766 20.2124C3.63079 21.1176 3.17903 22.1034 2.87659 23.139C2.52496 24.6511 3.08033 25.4661 4.59331 25.5279C6.58696 25.5996 8.58292 25.4822 10.5544 25.1772C11.9201 24.9604 13.3099 24.5403 14.6375 24.3254C17.1689 23.9361 19.5459 23.0512 22.0117 22.4935C23.5875 22.1328 25.0385 21.3322 26.6365 21.0352C26.9725 20.9688 27.3381 20.6532 27.7096 21.0693C27.8334 21.1814 28.3417 21.3581 28.0759 20.7689C27.9295 20.4331 28.2161 20.4455 28.4084 20.4016C28.8403 20.2695 29.2729 20.1526 29.7092 20.0317C30.03 19.9661 30.3067 19.7807 30.6232 19.7039C33.5215 18.7968 35.8432 16.8013 38.5268 15.4893C38.7467 15.174 39.0226 14.9017 39.3409 14.6861C40.1221 14.3359 40.8613 13.8987 41.5445 13.3828C41.8396 13.2303 42.153 13.116 42.477 13.0427C42.5417 13.0354 42.607 13.036 42.6715 13.0444C42.848 13.0661 43.1612 13.306 43.0152 12.8252C43.532 12.3899 44.1622 12.1111 44.832 12.0216C45.0678 12.0098 45.3867 12.3638 45.5065 11.8621C45.9545 11.5519 46.4816 11.3757 47.026 11.3539C47.5705 11.3322 48.1099 11.4658 48.5812 11.7393C48.7072 11.8342 48.8056 11.9609 48.8664 12.1064C48.9137 12.4101 48.8953 12.7205 48.8127 13.0165C48.7391 13.2533 48.6364 13.48 48.507 13.6914C47.8092 14.3019 47.3352 15.1949 46.3198 15.4019C45.895 15.2934 45.6496 15.5726 45.3999 15.8405C43.9067 16.7397 42.3556 17.5392 40.757 18.2339C40.4745 18.3504 40.1854 18.4502 39.8911 18.5326C37.9877 19.5121 35.9161 20.0996 34.0521 21.1801C32.1188 22.3804 30.2815 23.729 28.5569 25.2137C27.0742 26.4158 25.7315 27.7809 24.5542 29.2833C23.85 30.1643 23.4134 31.2289 23.2964 32.3506C23.2115 33.2471 23.6745 33.7387 24.5195 34.0168C26.8644 34.7807 29.0644 33.9389 31.2993 33.4919C32.2493 33.3637 33.1835 33.1382 34.0873 32.8191C34.4047 32.8091 34.7069 32.6812 34.935 32.4603C36.4184 31.6238 38.1115 31.5508 39.7322 31.1726C40.0671 31.0959 40.3971 30.9992 40.7205 30.8831C40.9439 30.8125 41.1601 30.7213 41.3666 30.6106C41.4499 30.5683 41.5378 30.5358 41.6286 30.5137C42.0917 30.4482 42.5358 30.2858 42.9317 30.0369C43.47 29.6856 44.0868 29.4727 44.7272 29.4174C44.9314 29.4517 45.1407 29.4382 45.3388 29.378C45.5369 29.3179 45.7184 29.2127 45.869 29.0707C47.0571 28.5043 48.283 28.0085 49.2572 27.0524C49.5126 26.9002 49.777 26.7635 50.0489 26.6431C50.4952 26.8001 50.7026 26.3703 51.0316 26.2395C52.6627 25.5367 54.2266 24.555 55.9837 24.0823C56.7979 23.5117 57.7706 23.5204 58.6825 23.3796C59.5944 23.2388 60.1243 23.8491 60.4893 24.5935C60.8543 25.3379 60.4486 25.8423 59.9851 26.2582C59.1266 27.072 58.0715 27.6489 56.923 27.9322C56.3788 27.2654 56.652 28.2317 56.4099 28.1942C56.023 28.477 55.5958 28.7001 55.1427 28.856C54.8734 28.961 54.6256 29.1144 54.3639 29.219C54.1306 29.2894 53.8859 29.3145 53.6431 29.293C52.9918 29.1539 52.6611 29.7843 52.1346 29.9326C49.5653 31.0139 46.7939 31.6364 44.5639 33.4824C44.0182 33.9329 43.5593 34.5925 42.771 34.7653C42.6278 34.8915 42.4993 35.0335 42.3879 35.1885C41.6729 36.3719 40.4134 37.0333 39.6966 38.2587C39.1102 39.2678 38.4911 40.2329 38.4601 41.4469C38.4297 41.6918 38.4888 41.9393 38.6266 42.1441C38.7643 42.3488 38.9714 42.4969 39.2096 42.561C40.1694 42.8992 41.1825 43.0605 42.1998 43.0372C44.5831 43.0036 46.9584 42.7537 49.2965 42.2906C50.4483 42.0692 51.6333 41.8995 52.7759 41.568C54.5198 41.0616 55.6315 39.7289 56.9499 38.6413C58.4886 37.3825 59.9367 35.9911 61.7577 35.1186C62.373 34.9104 62.9332 34.5657 63.3965 34.1104C63.5297 33.9617 63.6807 33.83 63.8459 33.7181C64.8904 33.2542 65.9054 32.7346 66.9372 32.2447C68.167 31.905 69.4064 31.4505 70.6584 31.0945C71.3484 30.895 72.0774 30.8713 72.779 31.0255C73.4806 31.1796 74.1325 31.5067 74.6754 31.977C74.9014 32.3889 75.0756 32.8272 75.1942 33.2818C75.2524 33.6466 75.2254 34.0199 75.1151 34.3724C74.8756 35.1508 74.2202 35.6181 73.7154 36.2C73.322 36.6148 72.8555 36.9534 72.3392 37.1989C71.9737 37.3536 71.6266 37.5487 71.3044 37.7805C70.3308 38.1747 69.3867 38.6385 68.4797 39.1682C68.0567 39.4028 67.5526 39.0047 67.2498 39.5079C66.8998 40.2879 66.08 40.2869 65.443 40.5893C65.1003 40.7513 64.7008 40.7674 64.3585 40.937C62.4338 42.1006 60.2396 42.4464 58.1438 43.0847C57.4421 43.2967 56.7288 43.4685 56.0076 43.5992C54.9462 43.8009 54.4385 44.707 53.8947 45.5005C53.1713 46.5792 52.6607 47.7862 52.3906 49.0567C52.3177 49.3539 51.9316 49.5638 52.1756 49.9443C53.2599 51.2743 54.7575 51.1043 56.1485 50.8596C57.3812 50.6532 58.6865 50.6796 59.8065 49.9718C59.9545 49.8805 60.1471 49.9967 60.3171 50.0416C60.4871 50.0865 60.8296 50.4546 60.974 49.9097C61.2781 49.7307 61.6208 49.6273 61.9732 49.6083C64.2284 49.187 66.3858 48.4083 68.5772 47.7766C68.9458 47.6744 69.3191 47.591 69.6924 47.5075C70.1119 47.444 70.5213 47.3261 70.9103 47.157C71.8478 46.4583 73.096 46.7163 74.0739 46.1413C74.8609 46.1707 75.5269 45.7638 76.2309 45.5076C77.4542 44.9585 78.7886 44.8806 80.0272 44.4108C80.2409 44.3246 80.4784 44.3181 80.6964 44.3927C80.9143 44.4672 81.0982 44.6178 81.2142 44.8168C81.5505 45.9782 81.2646 46.7436 80.2089 47.0593C78.3119 47.6305 76.5753 48.6666 74.5703 48.9076C74.4313 48.9489 74.2883 48.9865 74.1449 49.0165C73.1206 49.2735 72.155 49.7144 71.1355 49.9902C71.0221 50.0356 70.9007 50.0574 70.7786 50.0543C70.6565 50.0512 70.5364 50.0233 70.4254 49.9722C69.0175 50.2598 67.6743 50.7728 66.2239 50.971C65.5151 51.0559 64.6916 51.6689 63.8652 51.8436C62.0656 52.2269 60.2416 52.581 58.4555 53.0056C57.1133 53.2817 55.7505 53.4453 54.3811 53.4947C53.051 53.5839 51.2717 52.9978 50.7274 51.6408C50.4669 51.0056 51.0508 50.9384 51.0164 50.7838C50.8427 49.9002 50.485 51.2907 50.2882 50.7858C50.1145 50.3653 50.0586 49.9054 50.1266 49.4555C50.3522 47.9445 50.8006 46.4753 51.4572 45.0959C51.5433 44.9124 51.5903 44.7079 51.6638 44.4984C48.8462 45.0145 46.0035 45.3828 43.1474 45.6018C41.445 45.6733 39.742 45.4712 38.1036 45.003C36.5028 44.5567 35.2126 42.3867 36.0927 40.0017C36.9919 37.6809 38.3863 35.5842 40.1787 33.8574C38.3918 34.4193 36.5135 34.6007 34.83 35.554C34.2406 35.8922 33.1384 35.6574 32.411 35.9797C31.0114 36.5871 29.5345 36.6379 28.0944 36.8889C26.2232 37.2148 24.2958 37.33 22.5942 36.1604C21.7706 35.5316 21.1662 34.6592 20.8669 33.6672C20.5676 32.6752 20.5886 31.6141 20.9269 30.6348C21.8205 28.4562 23.2619 26.5455 25.1114 25.0881C25.6499 24.6937 26.1024 24.1937 26.4412 23.6186C26.4987 23.5837 26.5622 23.5598 26.6284 23.5483C26.4527 23.3893 26.2471 23.4719 26.0518 23.455C24.4351 23.9894 22.8338 24.603 21.1889 25.032C19.1027 25.5555 17.0117 26.0601 14.9576 26.6925C13.7562 26.9959 12.5403 27.2385 11.3144 27.4194C9.64184 27.7507 7.92152 28.1186 6.17731 27.8548C5.39543 27.7974 4.61045 27.7958 3.82833 27.85C3.45292 27.9678 3.42619 27.3553 3.04716 27.4771C2.25422 27.021 1.06643 26.9048 1.1769 25.6029C1.23879 24.9326 0.483678 24.547 0.62124 24.0178C1.04477 22.4182 1.02332 20.6119 2.3541 19.3903C2.71128 19.0598 2.21467 18.2762 3.03353 18.3345C3.467 17.7753 3.61924 17.0051 4.30599 16.6315C5.41291 15.3014 6.68053 14.1137 8.07981 13.0956C10.0222 11.7519 11.8319 10.1937 13.9106 9.0606C15.418 8.24573 16.8311 7.22204 18.4463 6.50474C18.9993 6.27889 19.331 5.59128 20.0345 5.55239C20.3608 5.52086 20.5993 5.25732 20.9126 5.19213C22.513 4.02565 24.4357 3.43409 26.0445 2.28244C26.2912 2.10619 26.6268 2.18477 26.9193 2.23882C26.9193 2.23882 26.959 2.19489 26.9735 2.17892C26.97 2.14496 26.9606 2.11187 26.9457 2.08117C27.0154 1.79555 27.2624 1.77941 27.4847 1.72638C28.7146 1.38671 29.6815 0.438648 31.0008 0.361422C31.418 0.317737 31.9206 0.227852 31.9726 0.812441C32.0247 1.39703 31.4001 1.56544 30.9245 1.73786C28.5892 3.15451 26.1205 4.34141 23.735 5.66906C22.9151 6.12555 22.2517 7.04322 21.0644 7.01473C20.6446 7.00517 20.2839 7.87724 19.6677 8.06048C19.8521 8.39445 19.4957 8.43511 19.3744 8.44878C17.8095 8.64502 16.9082 10.299 15.2686 10.2969C14.991 11.2296 13.9084 11.1578 13.3838 11.8016C13.2827 11.9628 13.1437 12.0968 12.979 12.1921C12.8144 12.2873 12.6289 12.3409 12.4388 12.3483C12.2631 12.0367 12.3105 11.6874 12.1333 11.3454C12.2569 11.6824 12.2298 12.0574 12.4692 12.3467Z" fill="#3C4BA6"/>
</svg>
