<svg width="129" height="123" viewBox="0 0 129 123" fill="none" xmlns="http://www.w3.org/2000/svg">
<g id="vector">
<path id="Vector" d="M3.33963 24.501C2.37963 28.9876 2.22968 32.8777 2.88968 36.171" stroke="#9B5F2D" stroke-width="2"/>
<path id="Vector_2" d="M2.88867 36.171L3.54865 39.521" stroke="#A3882F" stroke-width="2"/>
<path id="Vector_3" d="M3.54832 39.521C2.73498 42.0943 2.66496 45.2343 3.33829 48.941" stroke="#9B5F2D" stroke-width="2"/>
<path id="Vector_4" d="M3.33827 48.9409C2.51827 50.3209 2.69831 52.1709 3.87831 54.4909" stroke="#A3882F" stroke-width="2"/>
<path id="Vector_5" d="M3.87924 54.491C1.09257 63.8376 4.25589 70.391 13.3692 74.151" stroke="#94562E" stroke-width="2"/>
<path id="Vector_6" d="M13.3682 74.151C5.5582 78.161 -0.671804 83.941 1.6782 93.521" stroke="#A27D31" stroke-width="2"/>
<path id="Vector_7" d="M1.67819 93.521C0.911523 97.5677 0.794881 100.848 1.32821 103.361C2.18155 107.428 4.81819 110.978 9.23819 114.011" stroke="#9B5F2D" stroke-width="2"/>
<path id="Vector_8" d="M9.23828 114.011C13.2583 116.844 17.8383 118.668 22.9783 119.481C28.8883 120.411 38.4183 122.461 43.8783 119.361" stroke="#74503F" stroke-width="2"/>
<path id="Vector_9" d="M43.8789 119.361C47.4689 119.021 51.8289 118.421 55.1289 116.661C58.5189 114.851 61.4489 113.631 63.9489 110.541C64.8389 109.441 64.9889 107.891 66.1889 106.741C66.4156 106.521 66.5689 106.261 66.6489 105.961C67.8555 101.401 68.1455 96.8044 67.5189 92.171" stroke="#9B5F2D" stroke-width="2"/>
<path id="Vector_10" d="M67.5195 92.171L67.8596 91.801C68.0596 91.581 68.2462 91.591 68.4196 91.831C69.9396 93.971 71.4796 94.091 73.6996 94.971C76.3863 96.031 79.1096 96.9443 81.8696 97.711C82.1762 97.7977 82.4296 97.9676 82.6296 98.221C83.3162 99.0876 84.1795 99.3343 85.2195 98.961C85.5395 98.8477 85.8629 98.8143 86.1896 98.861C95.5496 100.151 107.76 99.021 115.95 93.931C118.25 92.501 120.43 92.061 122.3 90.321C127.4 85.621 128.16 79.521 126.99 72.751" stroke="#9B5F2D" stroke-width="2"/>
<path id="Vector_11" d="M126.988 72.7509C126.722 72.8109 126.762 72.3776 127.108 71.4509" stroke="#A3882F" stroke-width="2"/>
<path id="Vector_12" d="M127.109 71.451C128.019 69.691 127.279 63.241 127.529 60.721C127.739 58.691 127.209 56.761 127.249 54.671" stroke="#9B5F2D" stroke-width="2"/>
<path id="Vector_13" d="M127.249 54.671C127.242 54.5843 127.235 54.4943 127.229 54.401" stroke="#A27D31" stroke-width="2"/>
<path id="Vector_14" d="M127.23 54.401C127.583 52.921 127.54 51.5343 127.1 50.241" stroke="#917C66" stroke-width="2"/>
<path id="Vector_15" d="M127.098 50.241C124.178 42.781 116.088 38.3609 108.838 36.2909C95.098 32.3709 81.708 33.8643 68.668 40.771" stroke="#A27D31" stroke-width="2"/>
<path id="Vector_16" d="M68.668 40.771C69.3746 37.4977 69.5213 34.5377 69.108 31.891" stroke="#A3882F" stroke-width="2"/>
<path id="Vector_17" d="M69.1083 31.8909L69.0684 24.0709" stroke="#9B5F2D" stroke-width="2"/>
<path id="Vector_18" d="M69.0684 24.071C69.635 21.8176 69.6384 19.751 69.0784 17.871" stroke="#917C66" stroke-width="2"/>
<path id="Vector_19" d="M69.0786 17.871C66.3986 7.941 54.0485 2.84098 44.5385 1.60098C31.5985 -0.0790228 15.6486 1.35097 6.38858 11.221C2.96191 14.8676 1.9452 19.2943 3.33853 24.501" stroke="#A27D31" stroke-width="2"/>
<path id="Vector_20" d="M69.0797 17.871C68.2864 19.3243 68.2063 21.2376 68.8397 23.611" stroke="#ECAE3E" stroke-width="2"/>
<path id="Vector_21" d="M68.8398 23.611C62.4098 36.511 47.6599 41.901 33.8299 40.771C20.6999 39.691 10.2498 36.3409 3.33984 24.5009" stroke="#F69205" stroke-width="2"/>
<path id="Vector_22" d="M69.1086 31.891C68.5886 34.591 68.5487 37.261 66.8187 39.481C62.2187 45.381 56.1253 49.021 48.5386 50.401C36.5586 52.581 10.7487 52.231 4.67865 38.331C4.25865 37.3777 3.66201 36.6577 2.88867 36.171" stroke="#F69D03" stroke-width="2"/>
<path id="Vector_23" d="M69.0698 24.071C68.7698 24.1843 68.6931 24.031 68.8398 23.611" stroke="#E5913A" stroke-width="2"/>
<path id="Vector_24" d="M68.6691 40.771L64.0391 45.191" stroke="#FEBB06" stroke-width="2"/>
<path id="Vector_25" d="M64.0388 45.191C52.2488 55.021 37.3389 57.061 22.8889 53.211C15.8989 51.351 7.60883 46.551 3.54883 39.521" stroke="#F69D03" stroke-width="2"/>
<path id="Vector_26" d="M127.1 50.241C126.473 51.4076 126.516 52.7943 127.23 54.401" stroke="#ECAE3E" stroke-width="2"/>
<path id="Vector_27" d="M127.249 54.671C126.129 64.071 115.339 70.781 107.139 72.491" stroke="#F69205" stroke-width="2"/>
<path id="Vector_28" d="M107.138 72.4909C105.725 71.4909 103.905 71.2743 101.678 71.8409C101.352 71.9209 101.048 71.8709 100.768 71.6909C97.2684 69.5009 95.1584 71.5809 92.1984 71.8609C89.5784 72.1076 86.9484 72.1043 84.3084 71.8509C83.9684 71.8176 83.7951 71.971 83.7884 72.311C83.7751 72.5843 83.8651 72.8643 84.0584 73.1509" stroke="#FEC407" stroke-width="2"/>
<path id="Vector_29" d="M84.0582 73.1509C72.4682 71.3309 53.3181 59.3509 64.0381 45.1909" stroke="#F69205" stroke-width="2"/>
<path id="Vector_30" d="M84.0586 73.151C93.6686 75.311 97.9386 75.201 107.139 72.491" stroke="#F6A603" stroke-width="2"/>
<path id="Vector_31" d="M127.109 71.4509L126.809 71.2609C126.529 71.0876 126.309 71.1409 126.149 71.4209C115.799 89.4409 74.6193 89.9109 63.3293 73.0509C63.156 72.7843 62.9493 72.5409 62.7093 72.3209C62.1226 71.7809 61.6827 71.7409 61.3893 72.2009C61.3289 72.2967 61.2969 72.4077 61.2969 72.5209C61.2969 72.6342 61.3289 72.7451 61.3893 72.8409C67.7393 82.5109 76.5793 86.0809 87.6693 87.9309C88.676 88.0976 89.9327 88.5509 91.4393 89.2909C96.5693 91.8409 100.369 88.1909 105.109 87.5509C105.443 87.5043 105.749 87.3909 106.029 87.2109C106.769 86.7509 107.863 86.3076 109.309 85.8809C116.416 83.7876 122.309 79.4109 126.989 72.7509" stroke="#F69D03" stroke-width="2"/>
<path id="Vector_32" d="M67.5193 92.171C68.0926 85.6376 65.6793 80.5743 60.2793 76.981" stroke="#F69205" stroke-width="2"/>
<path id="Vector_33" d="M60.2794 76.9809C60.8861 76.2076 61.0261 75.4143 60.6995 74.6009C60.5728 74.2809 60.3461 74.0743 60.0194 73.9809C58.9394 73.6676 58.0795 74.0743 57.4395 75.2009" stroke="#C86513" stroke-width="2"/>
<path id="Vector_34" d="M57.4391 75.201L44.9191 70.311C44.5657 70.1776 44.4491 69.931 44.5691 69.571C44.7691 68.9576 45.4257 68.5576 46.539 68.371" stroke="#F69205" stroke-width="2"/>
<path id="Vector_35" d="M46.5399 68.3709C49.3799 67.4909 60.3299 63.8809 61.0399 60.8709C61.073 60.7281 61.0647 60.5786 61.0159 60.4403C60.967 60.302 60.8797 60.1806 60.7641 60.0902C60.6485 59.9999 60.5095 59.9444 60.3635 59.9304C60.2175 59.9163 60.0705 59.9443 59.9399 60.0109C45.7199 67.4109 31.0398 67.9776 15.8998 61.7109C10.0398 59.2909 4.53984 55.3709 3.33984 48.9409" stroke="#F69D03" stroke-width="2"/>
<path id="Vector_36" d="M57.4395 75.2009L60.2794 76.9809" stroke="#CF8217" stroke-width="2"/>
<path id="Vector_37" d="M67.5192 92.171C63.4292 102.051 53.0292 107.791 42.6992 109.071" stroke="#F69205" stroke-width="2"/>
<path id="Vector_38" d="M42.6982 109.071C43.5849 108.624 43.9515 108.128 43.7982 107.581C43.7048 107.241 43.4815 107.061 43.1282 107.041C39.0782 106.791 34.2782 106.171 31.5482 107.411C31.2548 107.544 30.9482 107.598 30.6282 107.571L22.4081 106.891C22.1348 106.871 21.9048 106.964 21.7181 107.171C21.4381 107.498 21.3315 107.774 21.3981 108.001" stroke="#FEC407" stroke-width="2"/>
<path id="Vector_39" d="M21.3997 108.001C12.6263 105.894 6.05302 101.068 1.67969 93.521" stroke="#F69205" stroke-width="2"/>
<path id="Vector_40" d="M46.5391 68.371C42.5591 68.651 39.3491 69.451 35.2291 69.041C32.9624 68.8143 31.0657 68.7843 29.5391 68.951" stroke="#FEBB06" stroke-width="2"/>
<path id="Vector_41" d="M29.5389 68.951C18.2055 67.371 9.65224 62.551 3.87891 54.491" stroke="#F09403" stroke-width="2"/>
<path id="Vector_42" d="M43.8783 119.361C35.785 119.701 30.1749 119.628 27.0483 119.141C24.0616 118.674 18.1249 116.964 9.23828 114.011" stroke="#C86513" stroke-width="2"/>
<path id="Vector_43" d="M21.3984 108.001C26.3884 109.321 32.7285 110.561 37.9385 109.811C39.5585 109.578 41.1452 109.331 42.6985 109.071" stroke="#F6A603" stroke-width="2"/>
<path id="Vector_44" d="M29.5391 68.9509L13.3691 74.1509" stroke="#EF8805" stroke-width="2"/>
<path id="Vector_45" d="M11.1484 20.261C11.075 22.8543 12.055 25.1276 14.0884 27.081C24.7084 37.271 56.3284 38.781 61.1084 20.121" stroke="#F69205" stroke-width="2"/>
<path id="Vector_46" d="M61.1085 20.1209C57.7985 0.830927 11.5684 2.11091 11.1484 20.2609" stroke="#EB7315" stroke-width="2"/>
<path id="Vector_47" d="M61.1085 20.121C57.5018 14.3277 52.5218 10.6043 46.1685 8.95098C34.7185 5.96098 17.0084 7.83097 11.1484 20.261" stroke="#E45511" stroke-width="2"/>
<path id="Vector_48" d="M19.9486 22.661C19.4286 23.121 19.6519 23.6643 20.6186 24.291C22.2786 25.361 25.2086 25.671 27.1686 26.091C27.4666 26.1561 27.7347 26.3219 27.9286 26.561L31.1586 30.481C31.5327 30.9349 32.0658 31.229 32.6493 31.3034C33.2328 31.3777 33.8226 31.2266 34.2986 30.881C35.5186 29.9877 36.7852 29.1777 38.0986 28.451C40.9486 26.861 44.7786 27.261 48.1086 26.801C48.2838 26.7775 48.4483 26.7023 48.5817 26.585C48.715 26.4676 48.8113 26.3132 48.8586 26.141C49.1053 25.241 48.9152 24.9277 48.2886 25.201" stroke="#E45511" stroke-width="2"/>
<path id="Vector_49" d="M48.289 25.201C50.039 23.151 46.619 21.461 45.209 20.791C45.0494 20.7154 44.9065 20.6088 44.7884 20.4773C44.6703 20.3458 44.5793 20.192 44.5208 20.0247C44.4623 19.8575 44.4373 19.68 44.4473 19.5026C44.4572 19.3252 44.502 19.1514 44.579 18.991L46.229 15.641C46.3204 15.4592 46.3605 15.2561 46.3452 15.0532C46.3299 14.8503 46.2597 14.6551 46.1419 14.4882C46.0241 14.3213 45.8632 14.1889 45.6761 14.1049C45.4891 14.0209 45.2828 13.9885 45.079 14.011L36.359 14.991C36.1183 15.0171 35.8779 14.9718 35.669 14.861C33.9023 13.9343 32.0757 13.1777 30.189 12.591C26.399 11.411 26.509 15.381 26.209 17.671C26.1872 17.8338 26.1246 17.9887 26.0267 18.1215C25.9289 18.2543 25.799 18.3607 25.649 18.431C23.889 19.2377 22.1923 20.0777 20.559 20.951C20.2057 21.1377 19.989 21.3643 19.909 21.631C19.8023 21.9643 19.8157 22.3077 19.949 22.661" stroke="#F69205" stroke-width="2"/>
<path id="Vector_50" d="M48.2892 25.201C46.0025 25.5744 43.6759 25.8244 41.3092 25.951C35.3792 26.271 33.7592 33.961 28.4992 25.391C28.3323 25.121 28.0687 24.9215 27.7592 24.831L19.9492 22.661" stroke="#EB7315" stroke-width="2"/>
<path id="Vector_51" d="M69.4484 52.411C67.0484 71.701 118.638 73.351 119.108 53.311" stroke="#F69205" stroke-width="2"/>
<path id="Vector_52" d="M119.109 53.311C115.769 34.881 72.5392 35.251 69.4492 52.411" stroke="#EB7315" stroke-width="2"/>
<path id="Vector_53" d="M119.109 53.3109C116.843 49.1376 113.376 46.1043 108.709 44.2109C97.8692 39.8209 79.6692 39.4309 71.8492 49.7409C71.1492 50.6676 70.3492 51.5576 69.4492 52.4109" stroke="#E45511" stroke-width="2"/>
<path id="Vector_54" d="M77.7797 55.731C77.1864 56.3643 77.4931 57.0543 78.6997 57.801C80.3097 58.791 83.4697 59.081 85.3797 59.561C85.7264 59.6476 86.0097 59.831 86.2297 60.111L88.7397 63.231C89.2496 63.8687 89.9794 64.2925 90.7849 64.4184C91.5904 64.5443 92.4129 64.3632 93.0897 63.9109L97.7197 60.821C97.998 60.633 98.3318 60.5417 98.6697 60.561C101.87 60.761 104.006 60.7409 105.08 60.5009C106.633 60.1609 107.283 59.5176 107.03 58.571" stroke="#E45511" stroke-width="2"/>
<path id="Vector_55" d="M107.029 58.571C106.589 57.011 105.413 55.5043 103.499 54.051C103.191 53.8184 102.973 53.4853 102.883 53.1093C102.794 52.7332 102.838 52.3377 103.009 51.991L104.639 48.681C104.678 48.6005 104.697 48.5119 104.695 48.4226C104.693 48.3332 104.669 48.2457 104.626 48.1674C104.583 48.0891 104.522 48.0222 104.447 47.9724C104.373 47.9226 104.288 47.8912 104.199 47.881C101.273 47.541 98.376 47.7243 95.5093 48.431C95.2413 48.4963 94.9608 48.4859 94.6993 48.401L87.7693 46.101C87.4759 46.0043 87.1655 45.9705 86.8582 46.0018C86.5508 46.033 86.2536 46.1286 85.9857 46.2824C85.7178 46.4362 85.4852 46.6446 85.3032 46.8942C85.1212 47.1438 84.9938 47.4289 84.9293 47.731L84.1793 51.271C84.1369 51.4667 84.0409 51.6475 83.9017 51.7937C83.7625 51.94 83.5853 52.0462 83.3893 52.101C80.8093 52.8143 78.9393 54.0243 77.7793 55.731" stroke="#F69205" stroke-width="2"/>
<path id="Vector_56" d="M107.029 58.571L98.8693 59.091C98.5427 59.111 98.236 59.2043 97.9493 59.371C95.8393 60.631 90.7293 65.001 88.7593 61.611C85.8693 56.631 81.8593 57.791 77.7793 55.731" stroke="#EB7315" stroke-width="2"/>
<path id="Vector_57" d="M9.69813 87.8409C9.19813 90.5009 9.77144 92.8276 11.4181 94.8209C20.4981 105.841 42.7981 105.961 53.8681 98.2609C56.9214 96.1343 58.7314 93.2109 59.2981 89.4909" stroke="#F69205" stroke-width="2"/>
<path id="Vector_58" d="M59.2992 89.491C59.1492 71.791 15.4292 69.721 9.69922 87.841" stroke="#EB7315" stroke-width="2"/>
<path id="Vector_59" d="M59.2992 89.4909C53.5592 75.9709 34.0792 75.0409 22.2992 78.6509C17.3392 80.1709 13.1392 83.2343 9.69922 87.8409" stroke="#E45511" stroke-width="2"/>
<path id="Vector_60" d="M17.7383 91.911C19.9049 93.6843 22.475 94.651 25.4483 94.811C25.6209 94.8204 25.7903 94.8671 25.9454 94.9481C26.1006 95.0291 26.2378 95.1426 26.3483 95.281C28.3083 97.701 28.6483 100.501 32.9683 99.711C33.2816 99.6577 33.5583 99.5277 33.7983 99.321C37.1116 96.4343 41.015 95.4177 45.5083 96.271C45.7518 96.3184 46.0058 96.2975 46.2394 96.2108C46.4731 96.1242 46.6765 95.9754 46.8247 95.7827C46.973 95.59 47.0597 95.3615 47.0746 95.1251C47.0894 94.8887 47.0316 94.6546 46.9083 94.451C46.8483 94.3577 46.5549 94.3177 46.0283 94.331" stroke="#E45511" stroke-width="2"/>
<path id="Vector_61" d="M46.0283 94.331C46.5616 94.1644 46.945 93.8344 47.1783 93.341C47.3516 92.9744 47.2883 92.6544 46.9883 92.381L43.3283 89.031C42.9816 88.7244 42.9116 88.3644 43.1183 87.951L44.9883 84.241C45.0188 84.1794 45.0354 84.1119 45.037 84.0432C45.0386 83.9745 45.0251 83.9062 44.9974 83.8433C44.9698 83.7804 44.9286 83.7243 44.877 83.679C44.8253 83.6337 44.7643 83.6002 44.6983 83.581C43.5883 83.241 42.5183 82.991 41.2883 83.271C37.0483 84.231 32.9783 83.7944 29.0783 81.961C24.7283 79.911 25.5683 84.961 24.4983 86.971C24.3378 87.2726 24.0657 87.5017 23.7383 87.611C20.8383 88.571 18.8383 90.0044 17.7383 91.911" stroke="#F69205" stroke-width="2"/>
<path id="Vector_62" d="M46.0283 94.331L38.7083 94.901C38.3816 94.9277 38.0783 95.031 37.7983 95.211C33.3183 98.091 30.9283 100.921 27.1283 94.491C27.0458 94.355 26.9362 94.2363 26.8057 94.1419C26.6753 94.0475 26.5266 93.9792 26.3683 93.941L17.7383 91.911" stroke="#EB7315" stroke-width="2"/>
<path id="Vector_63" d="M69.0786 17.871C68.2852 19.3243 68.2052 21.2377 68.8385 23.611C62.4085 36.511 47.6586 41.901 33.8286 40.771C20.6986 39.691 10.2485 36.341 3.33853 24.501C1.9452 19.2943 2.96191 14.8676 6.38858 11.221C15.6486 1.35097 31.5985 -0.0790229 44.5385 1.60098C54.0485 2.84098 66.3986 7.941 69.0786 17.871ZM11.1485 20.261C11.0752 22.8543 12.0552 25.1277 14.0885 27.081C24.7085 37.271 56.3285 38.781 61.1085 20.121C57.7985 0.830996 11.5685 2.11098 11.1485 20.261Z" fill="#FDAF08"/>
<path id="Vector_64" d="M61.1085 20.1209C57.5018 14.3276 52.5218 10.6042 46.1685 8.95091C34.7185 5.96091 17.0084 7.83091 11.1484 20.2609C11.5684 2.11091 57.7985 0.830927 61.1085 20.1209Z" fill="#D93621"/>
<path id="Vector_65" d="M61.1084 20.121C56.3284 38.781 24.7084 37.271 14.0884 27.081C12.055 25.1276 11.075 22.8543 11.1484 20.261C17.0084 7.83097 34.7184 5.96098 46.1684 8.95098C52.5217 10.6043 57.5017 14.3277 61.1084 20.121ZM19.9484 22.661C19.4284 23.121 19.6517 23.6643 20.6184 24.291C22.2784 25.361 25.2084 25.671 27.1684 26.091C27.4664 26.1561 27.7345 26.3218 27.9284 26.561L31.1584 30.481C31.5325 30.9349 32.0656 31.229 32.6491 31.3033C33.2326 31.3777 33.8224 31.2266 34.2984 30.881C35.5184 29.9876 36.785 29.1776 38.0984 28.451C40.9484 26.861 44.7784 27.261 48.1084 26.801C48.2836 26.7774 48.4481 26.7023 48.5815 26.5849C48.7148 26.4676 48.8111 26.3132 48.8584 26.141C49.105 25.241 48.915 24.9276 48.2884 25.201C50.0384 23.151 46.6184 21.461 45.2084 20.791C45.0488 20.7154 44.9059 20.6088 44.7878 20.4773C44.6697 20.3458 44.5787 20.192 44.5202 20.0247C44.4616 19.8574 44.4367 19.68 44.4466 19.5026C44.4566 19.3252 44.5014 19.1513 44.5784 18.991L46.2284 15.641C46.3198 15.4591 46.3599 15.2561 46.3446 15.0532C46.3293 14.8503 46.259 14.6551 46.1413 14.4882C46.0235 14.3213 45.8626 14.1888 45.6755 14.1048C45.4885 14.0209 45.2822 13.9884 45.0784 14.011L36.3584 14.991C36.1177 15.0171 35.8773 14.9718 35.6684 14.861C33.9017 13.9343 32.0751 13.1777 30.1884 12.591C26.3984 11.411 26.5084 15.381 26.2084 17.671C26.1866 17.8338 26.124 17.9887 26.0261 18.1214C25.9283 18.2542 25.7983 18.3607 25.6484 18.431C23.8884 19.2377 22.1917 20.0776 20.5584 20.951C20.2051 21.1376 19.9884 21.3643 19.9084 21.631C19.8017 21.9643 19.8151 22.3076 19.9484 22.661Z" fill="#EE7401"/>
<path id="Vector_66" d="M48.289 25.201C46.0023 25.5743 43.6757 25.8243 41.309 25.951C35.379 26.271 33.759 33.961 28.499 25.391C28.3321 25.1209 28.0685 24.9215 27.759 24.831L19.949 22.661C19.8157 22.3077 19.8023 21.9643 19.909 21.631C19.989 21.3643 20.2057 21.1377 20.559 20.951C22.1923 20.0777 23.889 19.2377 25.649 18.431C25.799 18.3607 25.9289 18.2543 26.0267 18.1215C26.1246 17.9887 26.1872 17.8338 26.209 17.671C26.509 15.381 26.399 11.411 30.189 12.591C32.0757 13.1777 33.9023 13.9343 35.669 14.861C35.8779 14.9718 36.1183 15.0171 36.359 14.991L45.079 14.011C45.2828 13.9885 45.4891 14.0209 45.6761 14.1049C45.8632 14.1889 46.0241 14.3213 46.1419 14.4882C46.2597 14.6551 46.3299 14.8503 46.3452 15.0532C46.3605 15.2561 46.3204 15.4592 46.229 15.641L44.579 18.991C44.502 19.1514 44.4572 19.3252 44.4473 19.5026C44.4373 19.68 44.4623 19.8575 44.5208 20.0247C44.5793 20.192 44.6703 20.3458 44.7884 20.4773C44.9065 20.6088 45.0494 20.7154 45.209 20.791C46.619 21.461 50.039 23.151 48.289 25.201Z" fill="#FDAF08"/>
<path id="Vector_67" d="M69.0797 17.871C69.6397 19.751 69.6364 21.8176 69.0697 24.071C68.7697 24.1843 68.693 24.031 68.8397 23.611C68.2063 21.2376 68.2864 19.3243 69.0797 17.871Z" fill="#DBAD73"/>
<path id="Vector_68" d="M19.9486 22.661L27.7586 24.831C28.0681 24.9215 28.3317 25.121 28.4986 25.391C33.7586 33.961 35.3786 26.271 41.3086 25.951C43.6753 25.8244 46.0019 25.5744 48.2886 25.201C48.9152 24.9277 49.1052 25.241 48.8586 26.141C48.8113 26.3132 48.715 26.4676 48.5817 26.585C48.4483 26.7023 48.2838 26.7775 48.1086 26.801C44.7786 27.261 40.9486 26.861 38.0986 28.451C36.7852 29.1777 35.5186 29.9877 34.2986 30.881C33.8226 31.2266 33.2328 31.3777 32.6493 31.3034C32.0658 31.229 31.5327 30.9349 31.1586 30.481L27.9286 26.561C27.7347 26.3219 27.4666 26.1561 27.1686 26.091C25.2086 25.671 22.2786 25.361 20.6186 24.291C19.6519 23.6643 19.4286 23.121 19.9486 22.661Z" fill="#D93621"/>
<path id="Vector_69" d="M68.8396 23.611C68.693 24.031 68.7697 24.1843 69.0697 24.071L69.1096 31.891C68.5897 34.591 68.5497 37.261 66.8197 39.481C62.2197 45.381 56.1263 49.021 48.5396 50.401C36.5596 52.581 10.7497 52.231 4.67966 38.331C4.25966 37.3776 3.66301 36.6576 2.88968 36.171C2.22968 32.8776 2.37963 28.9876 3.33963 24.5009C10.2496 36.3409 20.6997 39.691 33.8297 40.771C47.6597 41.901 62.4096 36.511 68.8396 23.611Z" fill="#EE7401"/>
<path id="Vector_70" d="M69.1086 31.891C69.522 34.5377 69.3753 37.4977 68.6686 40.771L64.0386 45.191C52.2486 55.021 37.3387 57.061 22.8887 53.211C15.8987 51.351 7.60864 46.551 3.54865 39.521L2.88867 36.171C3.66201 36.6577 4.25865 37.3777 4.67865 38.331C10.7487 52.231 36.5586 52.581 48.5386 50.401C56.1253 49.021 62.2187 45.381 66.8187 39.481C68.5487 37.261 68.5886 34.591 69.1086 31.891Z" fill="#FEC604"/>
<path id="Vector_71" d="M127.098 50.241C126.471 51.4076 126.515 52.7943 127.228 54.401C127.235 54.4943 127.242 54.5843 127.248 54.671C126.128 64.071 115.338 70.781 107.138 72.491C105.725 71.491 103.905 71.2743 101.678 71.841C101.351 71.921 101.048 71.8709 100.768 71.6909C97.2681 69.5009 95.1582 71.581 92.1982 71.861C89.5782 72.1076 86.9482 72.1043 84.3082 71.8509C83.9682 71.8176 83.7948 71.971 83.7881 72.311C83.7748 72.5843 83.8648 72.8643 84.0582 73.151C72.4682 71.331 53.3181 59.3509 64.0381 45.1909L68.6682 40.771C81.7082 33.8643 95.0981 32.3709 108.838 36.2909C116.088 38.3609 124.178 42.781 127.098 50.241ZM69.4482 52.4109C67.0482 71.7009 118.638 73.351 119.108 53.311C115.768 34.881 72.5382 35.2509 69.4482 52.4109Z" fill="#FDAF08"/>
<path id="Vector_72" d="M119.109 53.311C116.843 49.1377 113.376 46.1044 108.709 44.211C97.8692 39.821 79.6692 39.431 71.8492 49.741C71.1492 50.6677 70.3492 51.5577 69.4492 52.411C72.5392 35.251 115.769 34.881 119.109 53.311Z" fill="#D93621"/>
<path id="Vector_73" d="M3.54832 39.521C7.60832 46.551 15.8983 51.351 22.8883 53.211C37.3383 57.061 52.2483 55.021 64.0383 45.191C53.3183 59.351 72.4683 71.331 84.0583 73.151C93.6683 75.311 97.9383 75.201 107.138 72.491C115.338 70.781 126.128 64.071 127.248 54.671C127.208 56.761 127.738 58.691 127.528 60.721C127.278 63.241 128.018 69.691 127.108 71.451L126.808 71.261C126.528 71.0877 126.308 71.141 126.148 71.421C115.798 89.441 74.6183 89.911 63.3283 73.051C63.155 72.7843 62.9483 72.541 62.7083 72.321C62.1216 71.781 61.6817 71.741 61.3883 72.201C61.3279 72.2968 61.2959 72.4077 61.2959 72.521C61.2959 72.6343 61.3279 72.7452 61.3883 72.841C67.7383 82.511 76.5783 86.081 87.6683 87.931C88.675 88.0977 89.9317 88.551 91.4383 89.291C96.5683 91.841 100.368 88.191 105.108 87.551C105.442 87.5043 105.748 87.391 106.028 87.211C106.768 86.751 107.862 86.3076 109.308 85.881C116.415 83.7876 122.308 79.411 126.988 72.751C128.158 79.521 127.398 85.621 122.298 90.321C120.428 92.061 118.248 92.501 115.948 93.931C107.758 99.021 95.5483 100.151 86.1883 98.861C85.8617 98.8143 85.5383 98.8477 85.2183 98.961C84.1783 99.3343 83.315 99.0876 82.6283 98.221C82.4283 97.9676 82.175 97.7977 81.8683 97.711C79.1083 96.9443 76.385 96.031 73.6983 94.971C71.4783 94.091 69.9383 93.971 68.4183 91.831C68.245 91.591 68.0583 91.581 67.8583 91.801L67.5183 92.171C68.0916 85.6377 65.6783 80.5743 60.2783 76.981C60.885 76.2077 61.025 75.4143 60.6983 74.601C60.5717 74.281 60.345 74.0743 60.0183 73.981C58.9383 73.6677 58.0783 74.0743 57.4383 75.201L44.9183 70.311C44.565 70.1777 44.4483 69.931 44.5683 69.571C44.7683 68.9577 45.425 68.5577 46.5383 68.371C49.3783 67.491 60.3283 63.881 61.0383 60.871C61.0715 60.7281 61.0632 60.5787 61.0143 60.4404C60.9655 60.3021 60.8781 60.1806 60.7626 60.0903C60.647 59.9999 60.508 59.9445 60.362 59.9304C60.216 59.9164 60.069 59.9443 59.9383 60.011C45.7183 67.411 31.0383 67.9777 15.8983 61.711C10.0383 59.291 4.53829 55.371 3.33829 48.941C2.66496 45.2343 2.73498 42.0943 3.54832 39.521Z" fill="#EE7401"/>
<path id="Vector_74" d="M119.108 53.311C118.638 73.3511 67.0484 71.701 69.4484 52.411C70.3484 51.5577 71.1484 50.6677 71.8484 49.741C79.6684 39.431 97.8683 39.821 108.708 44.211C113.375 46.1044 116.842 49.1377 119.108 53.311ZM77.7784 55.731C77.185 56.3644 77.4917 57.0544 78.6984 57.801C80.3084 58.791 83.4684 59.081 85.3784 59.561C85.7251 59.6477 86.0084 59.831 86.2284 60.111L88.7384 63.231C89.2482 63.8688 89.978 64.2926 90.7835 64.4185C91.589 64.5444 92.4115 64.3633 93.0883 63.911L97.7184 60.821C97.9967 60.6331 98.3304 60.5417 98.6684 60.561C101.868 60.761 104.005 60.741 105.078 60.501C106.632 60.161 107.282 59.5177 107.028 58.571C106.588 57.011 105.412 55.5044 103.498 54.051C103.19 53.8184 102.972 53.4854 102.882 53.1093C102.793 52.7332 102.837 52.3377 103.008 51.991L104.638 48.681C104.677 48.6006 104.696 48.512 104.694 48.4226C104.692 48.3333 104.668 48.2458 104.625 48.1675C104.582 48.0892 104.521 48.0223 104.446 47.9725C104.372 47.9226 104.287 47.8913 104.198 47.881C101.272 47.541 98.3751 47.7244 95.5084 48.431C95.2403 48.4963 94.9599 48.4859 94.6984 48.401L87.7683 46.101C87.475 46.0044 87.1645 45.9706 86.8572 46.0018C86.5499 46.0331 86.2526 46.1287 85.9847 46.2825C85.7168 46.4362 85.4843 46.6447 85.3023 46.8943C85.1203 47.1439 84.9929 47.4289 84.9284 47.731L84.1784 51.271C84.1359 51.4668 84.0399 51.6475 83.9007 51.7937C83.7615 51.94 83.5844 52.0462 83.3884 52.101C80.8084 52.8144 78.9384 54.0244 77.7784 55.731Z" fill="#EE7401"/>
<path id="Vector_75" d="M107.029 58.571L98.8693 59.091C98.5427 59.111 98.236 59.2043 97.9493 59.371C95.8393 60.631 90.7293 65.001 88.7593 61.611C85.8693 56.631 81.8593 57.791 77.7793 55.731C78.9393 54.0243 80.8093 52.8143 83.3893 52.101C83.5853 52.0462 83.7625 51.94 83.9017 51.7937C84.0409 51.6475 84.1369 51.4667 84.1793 51.271L84.9293 47.731C84.9938 47.4289 85.1212 47.1438 85.3032 46.8942C85.4852 46.6446 85.7178 46.4362 85.9857 46.2824C86.2536 46.1286 86.5508 46.033 86.8582 46.0018C87.1655 45.9705 87.4759 46.0043 87.7693 46.101L94.6993 48.401C94.9608 48.4859 95.2413 48.4963 95.5093 48.431C98.376 47.7243 101.273 47.541 104.199 47.881C104.288 47.8912 104.373 47.9226 104.447 47.9724C104.522 48.0222 104.583 48.0891 104.626 48.1674C104.669 48.2457 104.693 48.3332 104.695 48.4226C104.697 48.5119 104.678 48.6005 104.639 48.681L103.009 51.991C102.838 52.3377 102.794 52.7332 102.883 53.1093C102.973 53.4853 103.191 53.8184 103.499 54.051C105.413 55.5043 106.589 57.011 107.029 58.571Z" fill="#FDAF08"/>
<path id="Vector_76" d="M3.33827 48.941C4.53827 55.371 10.0383 59.2911 15.8983 61.7111C31.0383 67.9777 45.7183 67.411 59.9383 60.011C60.069 59.9444 60.2159 59.9164 60.3619 59.9305C60.508 59.9445 60.647 60 60.7625 60.0903C60.8781 60.1807 60.9654 60.3021 61.0143 60.4405C61.0632 60.5788 61.0714 60.7282 61.0383 60.8711C60.3283 63.8811 49.3783 67.4911 46.5383 68.3711C42.5583 68.6511 39.3483 69.451 35.2283 69.041C32.9616 68.8144 31.0649 68.7844 29.5383 68.951C18.2049 67.371 9.65164 62.5511 3.87831 54.4911C2.69831 52.1711 2.51827 50.321 3.33827 48.941Z" fill="#FEC604"/>
<path id="Vector_77" d="M127.1 50.241C127.54 51.5343 127.583 52.921 127.23 54.401C126.516 52.7943 126.473 51.4076 127.1 50.241Z" fill="#DBAD73"/>
<path id="Vector_78" d="M3.87924 54.491C9.65257 62.551 18.2059 67.371 29.5392 68.951L13.3692 74.151C4.25589 70.391 1.09257 63.8376 3.87924 54.491Z" fill="#E16102"/>
<path id="Vector_79" d="M77.7797 55.731C81.8597 57.791 85.8697 56.631 88.7597 61.611C90.7297 65.001 95.8397 60.631 97.9497 59.371C98.2364 59.2043 98.543 59.111 98.8697 59.091L107.03 58.571C107.283 59.5176 106.633 60.1609 105.08 60.5009C104.006 60.7409 101.87 60.761 98.6697 60.561C98.3318 60.5417 97.998 60.633 97.7197 60.821L93.0897 63.9109C92.4129 64.3632 91.5904 64.5443 90.7849 64.4184C89.9794 64.2925 89.2496 63.8687 88.7397 63.231L86.2297 60.111C86.0097 59.831 85.7264 59.6476 85.3797 59.561C83.4697 59.081 80.3097 58.791 78.6997 57.801C77.4931 57.0543 77.1864 56.3643 77.7797 55.731Z" fill="#D93621"/>
<path id="Vector_80" d="M46.5382 68.371C45.4248 68.5576 44.7682 68.9576 44.5682 69.571C44.4482 69.931 44.5649 70.1776 44.9182 70.311L57.4382 75.201L60.2782 76.981C65.6782 80.5743 68.0915 85.6376 67.5182 92.171C63.4282 102.051 53.0282 107.791 42.6982 109.071C43.5849 108.624 43.9515 108.128 43.7982 107.581C43.7049 107.241 43.4815 107.061 43.1282 107.041C39.0782 106.791 34.2782 106.171 31.5482 107.411C31.2549 107.544 30.9482 107.598 30.6282 107.571L22.4082 106.891C22.1348 106.871 21.9048 106.964 21.7182 107.171C21.4382 107.498 21.3315 107.774 21.3982 108.001C12.6248 105.894 6.05153 101.068 1.6782 93.521C-0.671804 83.941 5.5582 78.161 13.3682 74.151L29.5382 68.951C31.0648 68.7843 32.9615 68.8143 35.2282 69.041C39.3482 69.451 42.5582 68.651 46.5382 68.371ZM9.69822 87.841C9.19822 90.501 9.77152 92.8276 11.4182 94.821C20.4982 105.841 42.7982 105.961 53.8682 98.261C56.9215 96.1343 58.7315 93.211 59.2982 89.491C59.1482 71.791 15.4282 69.721 9.69822 87.841Z" fill="#FDAF08"/>
<path id="Vector_81" d="M107.138 72.4909C97.9384 75.2009 93.6684 75.3109 84.0584 73.1509C83.8651 72.8643 83.7751 72.5843 83.7884 72.311C83.7951 71.971 83.9684 71.8176 84.3084 71.8509C86.9484 72.1043 89.5784 72.1076 92.1984 71.8609C95.1584 71.5809 97.2684 69.5009 100.768 71.6909C101.048 71.8709 101.352 71.9209 101.678 71.8409C103.905 71.2743 105.725 71.4909 107.138 72.4909Z" fill="#FED805"/>
<path id="Vector_82" d="M127.109 71.451C126.763 72.3777 126.723 72.811 126.989 72.751C122.309 79.411 116.416 83.7877 109.309 85.881C107.863 86.3077 106.769 86.751 106.029 87.211C105.749 87.391 105.443 87.5044 105.109 87.551C100.369 88.191 96.5693 91.841 91.4393 89.291C89.9327 88.551 88.676 88.0977 87.6693 87.931C76.5793 86.081 67.7393 82.511 61.3893 72.841C61.3289 72.7452 61.2969 72.6343 61.2969 72.521C61.2969 72.4078 61.3289 72.2968 61.3893 72.201C61.6827 71.741 62.1226 71.781 62.7093 72.321C62.9493 72.541 63.156 72.7844 63.3293 73.051C74.6193 89.911 115.799 89.441 126.149 71.421C126.309 71.141 126.529 71.0877 126.809 71.261L127.109 71.451Z" fill="#FEC604"/>
<path id="Vector_83" d="M60.2794 76.9811L57.4395 75.2011C58.0795 74.0744 58.9394 73.6677 60.0194 73.9811C60.3461 74.0744 60.5728 74.281 60.6995 74.601C61.0261 75.4144 60.8861 76.2077 60.2794 76.9811Z" fill="#A15525"/>
<path id="Vector_84" d="M59.2992 89.491C53.5592 75.971 34.0792 75.041 22.2992 78.651C17.3392 80.171 13.1392 83.2344 9.69922 87.841C15.4292 69.721 59.1492 71.791 59.2992 89.491Z" fill="#D93621"/>
<path id="Vector_85" d="M59.2981 89.4911C58.7314 93.2111 56.9214 96.1344 53.8681 98.261C42.7981 105.961 20.4981 105.841 11.4181 94.821C9.77144 92.8277 9.19813 90.5011 9.69813 87.8411C13.1381 83.2344 17.3381 80.1711 22.2981 78.6511C34.0781 75.0411 53.5581 75.9711 59.2981 89.4911ZM17.7381 91.911C19.9048 93.6844 22.4748 94.6511 25.4481 94.8111C25.6208 94.8204 25.7901 94.8671 25.9453 94.9481C26.1004 95.0291 26.2377 95.1426 26.3481 95.2811C28.3081 97.7011 28.6481 100.501 32.9681 99.7111C33.2814 99.6577 33.5581 99.5277 33.7981 99.321C37.1114 96.4344 41.0148 95.4177 45.5081 96.2711C45.7516 96.3185 46.0056 96.2976 46.2393 96.2109C46.473 96.1242 46.6763 95.9754 46.8245 95.7827C46.9728 95.59 47.0596 95.3615 47.0744 95.1251C47.0892 94.8888 47.0315 94.6546 46.9081 94.451C46.8481 94.3577 46.5548 94.3177 46.0281 94.3311C46.5614 94.1644 46.9448 93.8344 47.1781 93.3411C47.3514 92.9744 47.2881 92.6544 46.9881 92.381L43.3281 89.0311C42.9815 88.7244 42.9114 88.3644 43.1181 87.951L44.9881 84.2411C45.0186 84.1795 45.0352 84.1119 45.0368 84.0432C45.0384 83.9745 45.0249 83.9063 44.9973 83.8433C44.9696 83.7804 44.9285 83.7243 44.8768 83.679C44.8251 83.6337 44.7641 83.6002 44.6981 83.5811C43.5881 83.2411 42.5181 82.9911 41.2881 83.2711C37.0481 84.2311 32.9781 83.7944 29.0781 81.9611C24.7281 79.9111 25.5681 84.961 24.4981 86.971C24.3376 87.2726 24.0655 87.5018 23.7381 87.611C20.8381 88.571 18.8381 90.0044 17.7381 91.911Z" fill="#EE7401"/>
<path id="Vector_86" d="M46.0283 94.331L38.7083 94.901C38.3816 94.9277 38.0783 95.031 37.7983 95.211C33.3183 98.091 30.9283 100.921 27.1283 94.491C27.0458 94.355 26.9362 94.2363 26.8057 94.1419C26.6753 94.0475 26.5266 93.9792 26.3683 93.941L17.7383 91.911C18.8383 90.0044 20.8383 88.571 23.7383 87.611C24.0657 87.5017 24.3378 87.2726 24.4983 86.971C25.5683 84.961 24.7283 79.911 29.0783 81.961C32.9783 83.7944 37.0483 84.231 41.2883 83.271C42.5183 82.991 43.5883 83.241 44.6983 83.581C44.7643 83.6002 44.8253 83.6337 44.877 83.679C44.9286 83.7243 44.9698 83.7804 44.9974 83.8433C45.0251 83.9062 45.0386 83.9745 45.037 84.0432C45.0354 84.1119 45.0188 84.1794 44.9883 84.241L43.1183 87.951C42.9116 88.3644 42.9816 88.7244 43.3283 89.031L46.9883 92.381C47.2883 92.6544 47.3516 92.9744 47.1783 93.341C46.945 93.8344 46.5616 94.1644 46.0283 94.331Z" fill="#FDAF08"/>
<path id="Vector_87" d="M17.7383 91.911L26.3683 93.941C26.5266 93.9792 26.6753 94.0475 26.8057 94.1419C26.9362 94.2363 27.0458 94.355 27.1283 94.491C30.9283 100.921 33.3183 98.091 37.7983 95.211C38.0783 95.031 38.3816 94.9277 38.7083 94.901L46.0283 94.331C46.5549 94.3177 46.8483 94.3577 46.9083 94.451C47.0316 94.6546 47.0894 94.8887 47.0746 95.1251C47.0597 95.3615 46.973 95.59 46.8247 95.7827C46.6765 95.9754 46.4731 96.1242 46.2394 96.2108C46.0058 96.2975 45.7518 96.3184 45.5083 96.271C41.015 95.4177 37.1116 96.4343 33.7983 99.321C33.5583 99.5277 33.2816 99.6577 32.9683 99.711C28.6483 100.501 28.3083 97.701 26.3483 95.281C26.2378 95.1426 26.1006 95.0291 25.9454 94.9481C25.7903 94.8671 25.6209 94.8204 25.4483 94.811C22.475 94.651 19.9049 93.6843 17.7383 91.911Z" fill="#D93621"/>
<path id="Vector_88" d="M67.5182 92.171C68.1448 96.8044 67.8548 101.401 66.6482 105.961C66.5682 106.261 66.4149 106.521 66.1882 106.741C64.9882 107.891 64.8382 109.441 63.9482 110.541C61.4482 113.631 58.5182 114.851 55.1282 116.661C51.8282 118.421 47.4682 119.021 43.8782 119.361C35.7849 119.701 30.1749 119.628 27.0482 119.141C24.0615 118.674 18.1249 116.964 9.23819 114.011C4.81819 110.978 2.18155 107.428 1.32821 103.361C0.794881 100.848 0.911523 97.5677 1.67819 93.521C6.05152 101.068 12.6248 105.894 21.3982 108.001C26.3882 109.321 32.7282 110.561 37.9382 109.811C39.5582 109.578 41.1449 109.331 42.6982 109.071C53.0282 107.791 63.4282 102.051 67.5182 92.171Z" fill="#EE7401"/>
<path id="Vector_89" d="M42.6982 109.071C41.1449 109.331 39.5582 109.578 37.9382 109.811C32.7282 110.561 26.3881 109.321 21.3981 108.001C21.3315 107.774 21.4381 107.498 21.7181 107.171C21.9048 106.964 22.1348 106.871 22.4081 106.891L30.6282 107.571C30.9482 107.598 31.2548 107.544 31.5482 107.411C34.2782 106.171 39.0782 106.791 43.1282 107.041C43.4815 107.061 43.7048 107.241 43.7982 107.581C43.9515 108.128 43.5849 108.624 42.6982 109.071Z" fill="#FED805"/>
<path id="Vector_90" d="M9.23828 114.011C18.1249 116.964 24.0616 118.674 27.0483 119.141C30.1749 119.628 35.785 119.701 43.8783 119.361C38.4183 122.461 28.8883 120.411 22.9783 119.481C17.8383 118.668 13.2583 116.844 9.23828 114.011Z" fill="#A15525"/>
</g>
</svg>
