<svg width="145" height="117" viewBox="0 0 145 117" fill="none" xmlns="http://www.w3.org/2000/svg">
<g id="vector">
<path id="Vector" d="M60.9909 2.49999L59.2509 2.32C59.0809 2.3018 58.9095 2.3241 58.7512 2.385C58.5928 2.44591 58.4521 2.54361 58.3409 2.66998L28.5309 35.93C28.2309 36.2633 28.2909 36.5034 28.7109 36.65L44.0009 42.03C44.3942 42.17 44.4542 42.3967 44.1809 42.71L14.8609 75.58C14.6275 75.84 14.6776 76.03 15.0109 76.15L30.4909 81.62C30.8642 81.7467 30.9176 81.9567 30.6509 82.25L1.51089 114.84C1.21089 115.173 1.2842 115.353 1.73086 115.38C2.51753 115.42 3.23422 115.24 3.88089 114.84" stroke="#A3912F" stroke-width="2"/>
<path id="Vector_2" d="M3.88086 114.84C13.1109 115.48 22.6508 115.61 31.6108 112.93C50.5708 107.263 69.5142 101.543 88.4409 95.7701C89.6209 95.4101 90.8108 94.5901 92.4108 94.7601C92.5122 94.7704 92.6143 94.7489 92.7028 94.6985C92.7914 94.6481 92.8621 94.5714 92.905 94.4789C92.9479 94.3865 92.9609 94.283 92.9423 94.1829C92.9236 94.0827 92.8741 93.9908 92.8008 93.92C92.6342 93.76 92.3675 93.6367 92.0009 93.55" stroke="#94562E" stroke-width="2"/>
<path id="Vector_3" d="M92.0008 93.55L77.3008 88.26" stroke="#A3742F" stroke-width="2"/>
<path id="Vector_4" d="M77.3008 88.2599L118.501 58.7999" stroke="#94562E" stroke-width="2"/>
<path id="Vector_5" d="M118.5 58.8C117.893 59.2667 117.903 59.19 118.53 58.57C118.67 58.43 118.647 58.3267 118.46 58.26L102.34 52.89" stroke="#A3742F" stroke-width="2"/>
<path id="Vector_6" d="M102.34 52.89L143.43 23.52C143.73 23.3067 143.74 23.0767 143.46 22.83C143.147 22.5634 142.647 22.4067 141.96 22.36" stroke="#94562E" stroke-width="2"/>
<path id="Vector_7" d="M141.96 22.36C123.187 15.8333 104.424 9.24995 85.6702 2.60995C83.8302 1.95662 82.4402 1.65331 81.5002 1.69998C74.6736 2.05331 67.8369 2.31997 60.9902 2.49997" stroke="#A3742F" stroke-width="2"/>
<path id="Vector_8" d="M141.96 22.36C142.153 22.94 142 23.2367 141.5 23.25C134.326 23.3967 127.163 23.64 120.01 23.98" stroke="#F07F04" stroke-width="2"/>
<path id="Vector_9" d="M120.011 23.9799C120.004 23.5399 119.814 23.2333 119.441 23.0599C115.801 21.4066 111.504 19.8733 106.551 18.46" stroke="#FEB205" stroke-width="2"/>
<path id="Vector_10" d="M106.55 18.46C105.33 17.94 104.064 17.57 102.75 17.35C100.37 16.94 100.22 15.18 98.6002 13.99C93.9002 10.53 92.5302 11.3 87.0502 11.12C85.7569 11.08 84.4069 10.8133 83.0002 10.32C75.6469 7.76001 68.3102 5.15333 60.9902 2.5" stroke="#FEBB05" stroke-width="2"/>
<path id="Vector_11" d="M102.341 52.89L82.4805 53.83" stroke="#F07F04" stroke-width="2"/>
<path id="Vector_12" d="M120.01 23.98L84.9902 48.48" stroke="#F09403" stroke-width="2"/>
<path id="Vector_13" d="M106.55 18.46L106.47 19.59C106.457 19.8633 106.31 19.9999 106.03 19.9999H105.44C105.027 19.9999 104.633 20.0933 104.26 20.28C99.3201 22.74 94.5768 22.3933 90.0301 19.2399C89.7235 19.0266 89.3835 18.9399 89.0101 18.9799C87.2235 19.1599 86.0735 18.42 85.5601 16.76C85.4468 16.3933 85.2534 16.0766 84.9801 15.8099C84.1934 15.0566 83.7901 14.1133 83.7701 12.9799C83.7674 12.8184 83.7154 12.6613 83.6208 12.5292C83.5262 12.3972 83.3935 12.2963 83.2401 12.2399L71.9501 8.29993C71.759 8.23484 71.5534 8.22515 71.357 8.27198C71.1606 8.3188 70.9814 8.42026 70.8403 8.56458C70.6991 8.7089 70.6016 8.89022 70.5591 9.08759C70.5166 9.28496 70.5308 9.4903 70.6001 9.67993C74.2468 19.5399 78.3134 29.1333 82.8001 38.46C84.5301 42.06 84.7401 44.6199 84.9901 48.4799" stroke="#FECF05" stroke-width="2"/>
<path id="Vector_14" d="M84.9902 48.48L78.6403 52.82C78.2003 53.1267 78.2436 53.31 78.7703 53.37L82.4802 53.83" stroke="#F09D04" stroke-width="2"/>
<path id="Vector_15" d="M82.4805 53.83L95.4805 59.33" stroke="#FEBB05" stroke-width="2"/>
<path id="Vector_16" d="M95.4796 59.33C93.8129 59.91 92.7329 60.3799 92.2396 60.7399C79.4929 69.9333 66.693 79.07 53.8397 88.15C53.553 88.35 53.573 88.5166 53.8996 88.65C55.0196 89.0966 55.9263 89.2699 56.6196 89.1699" stroke="#F09D04" stroke-width="2"/>
<path id="Vector_17" d="M56.6191 89.1699L70.3591 94.5499" stroke="#FEBB05" stroke-width="2"/>
<path id="Vector_18" d="M70.3608 94.55L3.88086 114.84" stroke="#F09D04" stroke-width="2"/>
<path id="Vector_19" d="M118.5 58.7999L95.4805 59.33" stroke="#F07F04" stroke-width="2"/>
<path id="Vector_20" d="M77.2991 88.26L56.6191 89.17" stroke="#F07F04" stroke-width="2"/>
<path id="Vector_21" d="M91.9994 93.55C91.9727 94.11 91.7294 94.44 91.2694 94.54C89.9894 94.81 89.4394 93.55 87.6994 94.3C87.4127 94.4267 87.1161 94.4901 86.8094 94.4901L70.3594 94.55" stroke="#F07F04" stroke-width="2"/>
<path id="Vector_22" d="M141.96 22.36C142.154 22.94 142 23.2366 141.5 23.25C134.327 23.3966 127.164 23.6399 120.01 23.9799C120.004 23.5399 119.814 23.2333 119.44 23.06C115.8 21.4066 111.504 19.8733 106.55 18.46C105.33 17.94 104.064 17.5699 102.75 17.3499C100.37 16.9399 100.22 15.18 98.6002 13.99C93.9002 10.53 92.5302 11.3 87.0502 11.12C85.7569 11.08 84.4069 10.8133 83.0002 10.32C75.6469 7.75997 68.3102 5.1533 60.9902 2.49997C67.8369 2.31997 74.6736 2.05331 81.5002 1.69998C82.4402 1.65331 83.8302 1.95662 85.6702 2.60995C104.424 9.24995 123.187 15.8333 141.96 22.36Z" fill="#FE9D05"/>
<path id="Vector_23" d="M60.9909 2.49999C68.3109 5.15333 75.6476 7.76 83.0009 10.32C84.4076 10.8133 85.7575 11.08 87.0509 11.12C92.5309 11.3 93.9009 10.53 98.6009 13.99C100.221 15.18 100.371 16.94 102.751 17.35C104.064 17.57 105.331 17.94 106.551 18.46L106.471 19.59C106.458 19.8634 106.311 20 106.031 20H105.441C105.028 20 104.634 20.0934 104.261 20.28C99.3209 22.74 94.5776 22.3933 90.0309 19.24C89.7243 19.0267 89.3842 18.94 89.0109 18.98C87.2242 19.16 86.0742 18.42 85.5609 16.76C85.4475 16.3933 85.2542 16.0767 84.9809 15.81C84.1942 15.0567 83.7909 14.1133 83.7709 12.98C83.7682 12.8185 83.7161 12.6614 83.6216 12.5293C83.527 12.3972 83.3942 12.2964 83.2409 12.24L71.9509 8.29998C71.7598 8.23489 71.5541 8.2252 71.3578 8.27203C71.1614 8.31885 70.9822 8.42031 70.841 8.56463C70.6999 8.70895 70.6024 8.89027 70.5599 9.08764C70.5174 9.28501 70.5316 9.49035 70.6009 9.67999C74.2475 19.54 78.3142 29.1333 82.8009 38.46C84.5309 42.06 84.7409 44.62 84.9909 48.48L78.6409 52.82C78.2009 53.1267 78.2442 53.31 78.7709 53.37L82.4809 53.83L95.4809 59.33C93.8142 59.91 92.7342 60.38 92.2409 60.74C79.4942 69.9333 66.6942 79.07 53.8409 88.15C53.5542 88.35 53.5742 88.5167 53.9009 88.65C55.0209 89.0967 55.9275 89.27 56.6209 89.17L70.3609 94.55L3.88089 114.84C3.23422 115.24 2.51753 115.42 1.73086 115.38C1.2842 115.353 1.21089 115.173 1.51089 114.84L30.6509 82.25C30.9176 81.9567 30.8642 81.7467 30.4909 81.62L15.0109 76.15C14.6776 76.03 14.6275 75.84 14.8609 75.58L44.1809 42.71C44.4542 42.3967 44.3942 42.17 44.0009 42.03L28.7109 36.65C28.2909 36.5033 28.2309 36.2633 28.5309 35.93L58.3409 2.66998C58.4521 2.54361 58.5928 2.44591 58.7512 2.385C58.9095 2.3241 59.0809 2.3018 59.2509 2.32L60.9909 2.49999Z" fill="#FED805"/>
<path id="Vector_24" d="M106.55 18.4601C111.503 19.8734 115.8 21.4067 119.44 23.0601C119.813 23.2334 120.003 23.54 120.01 23.98L84.9901 48.48C84.7401 44.62 84.5301 42.0601 82.8001 38.4601C78.3134 29.1334 74.2468 19.5401 70.6001 9.68006C70.5308 9.49042 70.5166 9.28508 70.5591 9.08771C70.6016 8.89034 70.6991 8.70902 70.8403 8.5647C70.9814 8.42038 71.1606 8.31892 71.357 8.2721C71.5534 8.22527 71.759 8.23496 71.9501 8.30005L83.2401 12.2401C83.3935 12.2964 83.5262 12.3973 83.6208 12.5294C83.7154 12.6614 83.7674 12.8186 83.7701 12.98C83.7901 14.1134 84.1934 15.0567 84.9801 15.8101C85.2534 16.0767 85.4468 16.3934 85.5601 16.7601C86.0735 18.4201 87.2235 19.16 89.0101 18.98C89.3835 18.94 89.7235 19.0267 90.0301 19.2401C94.5768 22.3934 99.3201 22.7401 104.26 20.2801C104.633 20.0934 105.027 20.0001 105.44 20.0001H106.03C106.31 20.0001 106.457 19.8634 106.47 19.5901L106.55 18.4601Z" fill="#FEC604"/>
<path id="Vector_25" d="M141.96 22.36C142.647 22.4067 143.147 22.5634 143.46 22.83C143.74 23.0767 143.73 23.3067 143.43 23.52L102.34 52.89L82.4802 53.83L78.7703 53.37C78.2436 53.31 78.2003 53.1267 78.6403 52.82L84.9902 48.48L120.01 23.98C127.164 23.64 134.327 23.3967 141.5 23.25C142 23.2367 142.154 22.94 141.96 22.36Z" fill="#E16102"/>
<path id="Vector_26" d="M102.341 52.89L118.461 58.26C118.647 58.3267 118.671 58.43 118.531 58.57C117.904 59.19 117.894 59.2667 118.5 58.8L95.4805 59.33L82.4805 53.83L102.341 52.89Z" fill="#FE9D05"/>
<path id="Vector_27" d="M118.5 58.8L77.2996 88.2601L56.6196 89.17C55.9263 89.27 55.0196 89.0968 53.8996 88.6501C53.573 88.5168 53.553 88.3501 53.8397 88.1501C66.693 79.0701 79.493 69.9334 92.2396 60.7401C92.7329 60.3801 93.8129 59.9101 95.4796 59.3301L118.5 58.8Z" fill="#E16102"/>
<path id="Vector_28" d="M77.2991 88.26L91.9991 93.55C91.9725 94.11 91.7292 94.44 91.2692 94.54C89.9892 94.81 89.4392 93.55 87.6992 94.3C87.4125 94.4267 87.1158 94.49 86.8091 94.49L70.3591 94.55L56.6191 89.17L77.2991 88.26Z" fill="#FE9D05"/>
<path id="Vector_29" d="M92.0009 93.55C92.3675 93.6367 92.6342 93.76 92.8008 93.92C92.8741 93.9908 92.9236 94.0827 92.9423 94.1829C92.9609 94.283 92.9479 94.3865 92.905 94.4789C92.8621 94.5714 92.7914 94.6481 92.7028 94.6985C92.6143 94.7489 92.5122 94.7704 92.4108 94.7601C90.8108 94.5901 89.6209 95.4101 88.4409 95.7701C69.5142 101.543 50.5708 107.263 31.6108 112.93C22.6508 115.61 13.1109 115.48 3.88086 114.84L70.3608 94.55L86.8109 94.4901C87.1175 94.4901 87.4142 94.4267 87.7009 94.3C89.4409 93.55 89.9909 94.81 91.2709 94.54C91.7309 94.44 91.9742 94.11 92.0009 93.55Z" fill="#E16102"/>
</g>
</svg>
