<svg width="109" height="88" viewBox="0 0 109 88" fill="none" xmlns="http://www.w3.org/2000/svg">
<path d="M100 67.7196C100 78.6838 88.8333 87.5344 75 87.5344C61.1667 87.5344 50 78.6838 50 67.7196C50 56.7554 38.8333 47.9048 25 47.9048C11.1667 47.9048 0 39.0542 0 28.09C0 17.1258 11.1667 8.27515 25 8.27515C38.8333 8.27515 50 17.1258 50 28.09C50 39.0542 61.1667 47.9048 75 47.9048C88.8333 47.9048 100 56.7554 100 67.7196Z" fill="#FF7425"/>
<path d="M108 64.5492C108 75.5134 96.8333 84.364 83 84.364C69.1667 84.364 58 75.5134 58 64.5492C58 53.585 46.8333 44.7344 33 44.7344C19.1667 44.7344 8 35.8837 8 24.9196C8 13.9554 19.1667 5.10474 33 5.10474C46.8333 5.10474 58 13.9554 58 24.9196C58 35.8837 69.1667 44.7344 83 44.7344C96.8333 44.7344 108 53.585 108 64.5492Z" stroke="white" stroke-miterlimit="10"/>
</svg>
