<svg width="78" height="72" viewBox="0 0 78 72" fill="none" xmlns="http://www.w3.org/2000/svg">
<path d="M43 36H8V1C27.3278 1 43 16.7111 43 36Z" fill="#FF7425"/>
<path d="M8 36H43V71C23.6722 71 8 55.3278 8 36Z" fill="#FF7425"/>
<path d="M78 36H43V71C62.3278 71 78 55.3278 78 36Z" fill="#FF7425"/>
<path d="M43 36H78V1C58.6722 1 43 16.7111 43 36Z" fill="#FF7425"/>
<path d="M36 36C36 16.7111 20.3278 1 1 1V36" stroke="white"/>
<path d="M1 36C1 55.3278 16.6722 71 36 71" stroke="white"/>
<path d="M71 36C71 55.3278 55.3278 71 36 71" stroke="white"/>
<path d="M36 36C36 16.7111 51.6722 1 71 1V36" stroke="white"/>
</svg>
