<svg width="50" height="50" viewBox="0 0 50 50" fill="none" xmlns="http://www.w3.org/2000/svg">
<g id="logo" clip-path="url(#clip0_245_190)">
<g id="Group">
<path id="Vector" fill-rule="evenodd" clip-rule="evenodd" d="M44.1831 13.2373C44.2951 13.343 47.6003 10.9797 47.621 10.8477L49.4501 12.401C47.9694 13.5451 47.0197 14.3946 46.07 14.8744L44.1831 13.2373Z" fill="#57A6FF"/>
<path id="Vector_2" fill-rule="evenodd" clip-rule="evenodd" d="M44.2781 13.3164C43.4982 13.7699 42.7106 14.1172 41.9059 14.3417L43.8012 16.0095C44.5975 15.7104 45.3728 15.3495 46.0989 14.8873L44.2781 13.3159V13.3164Z" fill="#4C94E3"/>
<path id="Vector_3" fill-rule="evenodd" clip-rule="evenodd" d="M34.7561 14.769C34.8639 14.8747 38.1692 12.507 38.194 12.3794L40.019 13.9283C38.5424 15.0725 37.5886 15.9264 36.6389 16.4018L34.7561 14.769Z" fill="#57A6FF"/>
<path id="Vector_4" fill-rule="evenodd" clip-rule="evenodd" d="M34.8516 14.8481C34.0676 15.2972 33.2799 15.6489 32.4753 15.8735L34.3705 17.5412C35.171 17.2422 35.9422 16.8812 36.6724 16.4146L34.8516 14.8477V14.8481Z" fill="#4C94E3"/>
<path id="Vector_5" fill-rule="evenodd" clip-rule="evenodd" d="M37.0828 13.3911L38.8247 14.8831C39.5256 14.452 40.1475 13.9191 40.7116 13.3205L38.8577 11.8022L37.0828 13.3911Z" fill="#A1C2E3"/>
<path id="Vector_6" fill-rule="evenodd" clip-rule="evenodd" d="M47.733 6.47693C48.3591 7.20317 48.5996 7.52416 49.2964 8.83589C50.0262 10.0151 50.1051 11.5777 49.9059 12.4316C48.8153 17.2903 47.6375 21.3082 45.6758 25.8547C45.1075 27.2322 44.1537 27.7689 43.1875 27.7558C42.2874 26.7831 42.3333 26.3208 41.4373 25.353C40.6575 24.618 39.5003 22.1845 40.7034 19.5347C42.2961 14.6366 43.3243 11.4457 44.4484 7.88948C44.7343 6.20367 46.742 5.13013 47.733 6.47693Z" fill="url(#paint0_linear_245_190)"/>
<path id="Vector_7" fill-rule="evenodd" clip-rule="evenodd" d="M22.5136 19.9928C23.3884 20.9655 24.2472 21.8544 25.2589 22.4925C26.1466 23.1043 26.8346 23.6192 27.9298 23.9932C32.0852 25.793 36.4443 26.9947 40.9563 27.8135C41.9266 27.8617 42.9759 27.8841 43.5813 27.5538L40.5703 24.4248C39.6619 23.7205 37.5303 23.0122 36.3732 22.5149L24.3794 19.2188C23.612 18.8316 21.2481 14.4439 21.182 14.8925C21.0535 15.8034 21.3936 18.7346 22.5131 19.9933L22.5136 19.9928Z" fill="url(#paint1_linear_245_190)"/>
<path id="Vector_8" fill-rule="evenodd" clip-rule="evenodd" d="M35.9922 22.2065C36.1001 22.2284 36.5398 22.8358 37.5721 23.1305C39.123 23.5752 40.5124 24.5386 41.3171 25.1991C40.7406 24.2177 40.2884 23.5708 40.3674 22.488C40.4046 21.8675 40.9811 20.5163 41.0807 19.79C39.7661 21.546 37.6134 21.9688 35.9922 22.206V22.2065Z" fill="url(#paint2_linear_245_190)"/>
<path id="Vector_9" fill-rule="evenodd" clip-rule="evenodd" d="M21.319 13.3782C22.2356 9.88818 23.4506 6.64466 25.1136 3.02269C25.5864 1.60575 27.5812 -0.370359 30.8121 0.0607126C34.5364 0.45233 38.2025 1.39874 41.8314 2.69244C43.2332 3.18099 45.0412 5.08647 44.4275 7.78445C43.5774 11.9169 42.3872 15.9086 40.6246 19.6625C39.4262 22.0478 37.6388 22.5627 35.706 22.3293C31.625 21.3917 27.6854 20.1949 23.7907 18.9051C21.0744 18.3328 20.7714 15.1906 21.319 13.3777V13.3782Z" fill="url(#paint3_linear_245_190)"/>
<path id="Vector_10" fill-rule="evenodd" clip-rule="evenodd" d="M22.252 10.812C22.1441 10.8339 41.889 16.3351 41.9142 16.4496L40.3963 19.8689C40.2347 20.2123 39.795 20.3311 39.7202 20.6434C39.409 21.9814 38.5548 22.5976 37.1076 22.2366C36.7509 22.1485 36.4815 22.3774 36.129 22.3116C31.65 21.392 27.2955 20.2079 23.0901 18.6147C21.1283 17.7959 21.1531 14.262 22.2524 10.8115L22.252 10.812Z" fill="url(#paint4_linear_245_190)"/>
<path id="Vector_11" fill-rule="evenodd" clip-rule="evenodd" d="M37.0704 20.4726C38.4432 20.1467 39.4012 18.7561 39.2061 17.3786C39.0069 15.9967 37.7382 15.1429 36.3653 15.4687C34.9925 15.7946 34.0345 17.1852 34.2296 18.5627C34.4247 19.9446 35.6979 20.8028 37.0704 20.4726Z" fill="url(#paint5_linear_245_190)"/>
<path id="Vector_12" fill-rule="evenodd" clip-rule="evenodd" d="M33.4539 13.1139C34.8226 12.7836 35.7806 11.3974 35.5855 10.0155C35.3904 8.63365 34.1172 7.77979 32.7447 8.11003C31.3719 8.43589 30.4181 9.82653 30.6131 11.204C30.8082 12.5859 32.0815 13.4397 33.4539 13.1139Z" fill="url(#paint6_linear_245_190)"/>
<path id="Vector_13" fill-rule="evenodd" clip-rule="evenodd" d="M21.0953 15.2793C22.2111 18.008 30.24 20.3713 38.3147 22.5276L37.8378 22.7434C37.6221 23.0293 38.1155 23.135 38.4763 23.4166C33.6903 21.9465 27.6686 20.4989 23.2558 19.363C22.3102 19.0372 21.5928 18.1263 21.3812 17.3299C21.1655 16.5511 21.07 15.8687 21.0953 15.2793Z" fill="url(#paint7_linear_245_190)"/>
<path id="Vector_14" fill-rule="evenodd" clip-rule="evenodd" d="M24.2679 5.78645C24.5291 5.81275 38.2482 7.21215 43.8801 7.43232C43.9921 7.4367 44.1206 7.48492 44.1789 7.41478C45.4646 5.81275 43.8842 3.48448 42.3833 3.01395C42.1511 3.0271 35.5446 0.461131 30.2983 0.0963026C28.4567 -0.0975579 26.4289 0.87077 25.3589 2.54343C24.8531 3.58628 24.4841 4.66469 24.2683 5.78694L24.2679 5.78645Z" fill="url(#paint8_linear_245_190)"/>
<path id="Vector_15" fill-rule="evenodd" clip-rule="evenodd" d="M29.4436 6.05919C30.8165 5.72894 31.7703 4.34269 31.5752 2.96083C31.376 1.57896 30.1069 0.7251 28.7344 1.05534C27.3616 1.38121 26.4036 2.77184 26.6028 4.14932C26.7938 5.53119 28.0712 6.38943 29.4436 6.05919Z" fill="url(#paint9_linear_245_190)"/>
<path id="Vector_16" fill-rule="evenodd" clip-rule="evenodd" d="M41.458 9.08236C42.8308 8.75212 43.7888 7.36149 43.5937 5.984C43.3945 4.60214 42.1253 3.74389 40.7529 4.07414C39.3801 4.40438 38.4221 5.79063 38.6172 7.1725C38.8123 8.55436 40.0855 9.40822 41.458 9.08236Z" fill="url(#paint10_linear_245_190)"/>
<path id="Vector_17" fill-rule="evenodd" clip-rule="evenodd" d="M39.7867 27.7206C36.386 26.9418 33.0848 25.9603 29.8539 24.8161C27.2826 23.9447 26.3954 23.1347 25.3332 22.3208C32.0186 24.7236 39.7863 27.8838 44.2781 27.4654C43.4569 28.3061 40.9645 27.9627 39.7867 27.7206Z" fill="url(#paint11_linear_245_190)"/>
<path id="Vector_18" fill-rule="evenodd" clip-rule="evenodd" d="M33.4787 13.0917C33.6031 13.0435 33.7275 13.0036 33.8477 12.951C34.0759 12.8409 34.2957 12.7133 34.4991 12.5506C35.2371 11.9563 35.681 10.9924 35.5359 10.007L35.5401 10.0114C35.507 9.79561 35.4446 9.58032 35.3574 9.38207C35.2619 9.18383 35.1499 9.00799 35.009 8.8453C34.4449 8.19845 33.5824 7.99583 32.7861 8.18092C32.7888 8.178 32.7916 8.17654 32.7943 8.17654C32.4212 8.26908 32.0852 8.43177 31.7781 8.66508C31.04 9.23741 30.5796 10.2009 30.7123 11.178L30.7082 11.1736C30.8408 12.1463 31.5252 12.8638 32.4212 13.0703C32.6369 13.1185 32.8485 13.1365 33.0683 13.1273C33.2051 13.1229 33.3419 13.1054 33.4787 13.0922C33.2754 13.176 33.0142 13.2067 32.7985 13.1979C31.8777 13.1848 31.0607 12.6392 30.704 11.7279C30.6209 11.5209 30.5714 11.2924 30.5466 11.0679C30.5177 10.7552 30.5507 10.421 30.6297 10.1171C30.9074 9.05183 31.745 8.24668 32.753 8.00021C33.1634 7.8989 33.6366 7.90328 34.0469 8.0309C34.3205 8.11906 34.578 8.24229 34.8103 8.43128C35.0177 8.59397 35.2041 8.7966 35.3455 9.02114C35.4616 9.21062 35.5571 9.4303 35.6149 9.65046C35.9509 10.8696 35.3578 12.1283 34.354 12.762C34.1094 12.9159 33.7692 13.0654 33.4792 13.0922L33.4787 13.0917Z" fill="#246E29"/>
<path id="Vector_19" fill-rule="evenodd" clip-rule="evenodd" d="M37.1199 20.5121C37.2361 20.4639 37.3646 20.4239 37.4848 20.3669C37.7171 20.2612 37.937 20.1336 38.1362 19.9709C38.8701 19.3767 39.3181 18.4127 39.1772 17.423V17.4317C39.1441 17.216 39.0817 17.0007 38.9945 16.798C38.9032 16.6042 38.787 16.4284 38.6503 16.2613C38.082 15.6144 37.2195 15.4118 36.4273 15.5969H36.4314C36.0624 15.6894 35.7223 15.8521 35.4152 16.0854C34.6771 16.6534 34.2209 17.6212 34.3494 18.5939V18.5896C34.4821 19.5623 35.1664 20.2841 36.0583 20.4863C36.2781 20.5389 36.4897 20.5525 36.7096 20.5476C36.8464 20.5433 36.979 20.5213 37.1199 20.5126C36.9125 20.5964 36.6513 20.6227 36.4356 20.6183C35.5148 20.6051 34.6978 20.0596 34.3453 19.1482C34.2622 18.9412 34.2126 18.7079 34.1878 18.4839C34.1548 18.1711 34.1878 17.8414 34.2668 17.5374C34.5445 16.4722 35.3826 15.667 36.3943 15.4206C36.8046 15.3193 37.2778 15.3236 37.6841 15.4469C37.9618 15.535 38.2151 15.6627 38.4515 15.8516C38.659 16.0143 38.8412 16.2126 38.9826 16.4415C39.1028 16.631 39.1942 16.8507 39.2561 17.0664C39.588 18.2856 38.9991 19.5486 37.9953 20.1823C37.7465 20.3319 37.4022 20.4858 37.1204 20.5126L37.1199 20.5121Z" fill="#177319"/>
<path id="Vector_20" fill-rule="evenodd" clip-rule="evenodd" d="M41.4456 9.14448C41.5658 9.09187 41.6902 9.05193 41.8105 8.99933C42.0427 8.89363 42.2585 8.76163 42.4618 8.60333C43.1999 8.00908 43.6437 7.04514 43.507 6.05538V6.06414C43.4698 5.84398 43.4115 5.62869 43.3201 5.43483C43.2288 5.2322 43.1168 5.05636 42.9759 4.89367C42.4118 4.24682 41.5452 4.04419 40.7529 4.2249H40.7571C40.3922 4.32183 40.0479 4.48452 39.745 4.71784C39.0028 5.28578 38.5465 6.24924 38.6792 7.22633V7.22195C38.8077 8.19466 39.4921 8.91652 40.388 9.11866C40.6038 9.17127 40.8154 9.18491 41.0352 9.18004C41.172 9.17565 41.3088 9.15374 41.4456 9.14497C41.2422 9.22875 40.9811 9.25067 40.7612 9.25067C39.8404 9.23313 39.0234 8.68711 38.6709 7.78064C38.592 7.57363 38.5383 7.34031 38.5176 7.11625C38.4846 6.80354 38.5135 6.47378 38.5924 6.16984C38.8742 5.10458 39.7124 4.29504 40.7199 4.05296C41.1302 3.95165 41.6076 3.95165 42.0097 4.07926C42.2915 4.16743 42.5449 4.29504 42.7771 4.47965C42.9846 4.64234 43.1668 4.84497 43.3123 5.0739C43.4285 5.26337 43.5239 5.48305 43.5818 5.69883C43.9136 6.91801 43.3247 8.18102 42.3209 8.81034C42.0721 8.96426 41.732 9.11818 41.446 9.14497L41.4456 9.14448Z" fill="#246E29"/>
<path id="Vector_21" fill-rule="evenodd" clip-rule="evenodd" d="M29.4849 6.1518C29.6052 6.0992 29.7296 6.05926 29.8457 6.00665C30.0779 5.90095 30.2978 5.76895 30.5011 5.61065C31.2392 5.0164 31.6831 4.05246 31.5422 3.0627V3.06708C31.5091 2.8513 31.4508 2.63601 31.3595 2.44215C31.264 2.23952 31.152 2.06368 31.0111 1.901C30.447 1.25415 29.5886 1.05152 28.7923 1.23223H28.7964C28.4274 1.32477 28.0872 1.49185 27.7802 1.72078C27.0421 2.2931 26.5817 3.25656 26.7144 4.23366V4.22927C26.8429 5.20198 27.5314 5.91946 28.4274 6.12599C28.6431 6.17421 28.8547 6.19223 29.07 6.18298C29.2109 6.18298 29.3477 6.16106 29.4849 6.15229C29.2774 6.23607 29.0204 6.25799 28.8005 6.25799C27.8798 6.24045 27.0628 5.69443 26.7061 4.78358C26.6272 4.58095 26.5735 4.34812 26.5528 4.11919C26.5239 3.80648 26.5487 3.48111 26.6276 3.17278C26.9095 2.11191 27.7476 1.30237 28.7592 1.06029C29.1654 0.958972 29.6428 0.958972 30.0449 1.08659C30.3267 1.17475 30.5842 1.30237 30.8165 1.48697C31.0239 1.64966 31.2062 1.85229 31.3475 2.08122C31.4678 2.2707 31.5591 2.49037 31.617 2.70615C31.9488 3.92533 31.3641 5.18835 30.3602 5.81766C30.1114 5.97158 29.7713 6.1255 29.4854 6.15229L29.4849 6.1518Z" fill="#127312"/>
<path id="Vector_22" fill-rule="evenodd" clip-rule="evenodd" d="M32.9274 24.9041C34.4784 25.3795 35.7145 25.34 35.6938 24.8116C35.6691 24.2879 34.3958 23.4691 32.8489 22.9981C31.298 22.5184 30.0619 22.5578 30.0867 23.0863C30.1073 23.6099 31.3847 24.4287 32.9274 24.9041Z" fill="url(#paint12_linear_245_190)"/>
<path id="Vector_23" fill-rule="evenodd" clip-rule="evenodd" d="M45.9622 12.2029C46.6383 12.0314 47.3392 10.7504 47.5214 9.34221C47.7041 7.93842 47.3098 6.93503 46.6337 7.10648C45.9576 7.27794 45.2567 8.55459 45.0703 9.96276C44.8876 11.3665 45.2861 12.3699 45.9622 12.2029Z" fill="url(#paint13_linear_245_190)"/>
<path id="Vector_24" fill-rule="evenodd" clip-rule="evenodd" d="M43.9173 26.8233C44.5975 26.6518 45.3067 25.3576 45.4931 23.9363C45.6799 22.515 45.2773 21.5024 44.5888 21.6743C43.9045 21.8458 43.1994 23.1356 43.0131 24.5613C42.8263 25.9826 43.2329 26.9952 43.9173 26.8233Z" fill="url(#paint14_linear_245_190)"/>
<path id="Vector_25" fill-rule="evenodd" clip-rule="evenodd" d="M44.979 19.4515C45.684 19.2712 46.4179 17.9376 46.6089 16.4676C46.804 14.9975 46.3849 13.9503 45.6757 14.1305C44.9707 14.3064 44.2409 15.6444 44.0458 17.1144C43.8549 18.5801 44.2698 19.6273 44.979 19.4515Z" fill="url(#paint15_linear_245_190)"/>
<path id="Vector_26" fill-rule="evenodd" clip-rule="evenodd" d="M32.9063 24.8862C33.1014 24.9212 33.2877 24.9743 33.4787 25.0138C33.9845 25.1195 34.5362 25.212 35.0503 25.1589C35.0916 25.1502 35.1375 25.1458 35.1747 25.137C35.3363 25.102 35.6351 25.0269 35.6144 24.7936C35.6144 24.798 35.6186 24.8024 35.6186 24.8068C35.602 24.5779 35.3491 24.3445 35.1912 24.2169C34.6395 23.7722 33.9593 23.46 33.3125 23.2179C33.1427 23.1565 32.9765 23.0991 32.8067 23.0465C32.3339 22.9057 31.8612 22.7912 31.3677 22.7337C31.1479 22.7118 30.9032 22.7031 30.6792 22.725C30.6421 22.7294 30.6003 22.7337 30.559 22.7425C30.4015 22.7688 30.1069 22.8482 30.1151 23.0728C30.1151 23.0728 30.1193 23.0684 30.1193 23.064C30.1234 23.2842 30.3887 23.535 30.5342 23.6582C30.7334 23.8253 30.9574 23.9753 31.1773 24.1029C31.5752 24.3319 31.986 24.5252 32.4046 24.6884C32.5745 24.7547 32.7406 24.8204 32.9063 24.8867L32.7943 24.8604C32.5249 24.7941 32.2678 24.6977 32.0103 24.5964C31.6207 24.4468 31.2264 24.253 30.8697 24.0284C30.6999 23.9183 30.5213 23.7995 30.3722 23.6587C30.2106 23.5092 29.9907 23.2803 30.0073 23.025C30.0279 22.7216 30.4052 22.6334 30.6375 22.6071C30.9445 22.5633 31.2635 22.5939 31.5706 22.629C31.9938 22.6816 32.4331 22.7873 32.8398 22.9149C33.0679 22.99 33.296 23.0645 33.52 23.157C33.9303 23.3153 34.3288 23.5004 34.7102 23.7293C34.9135 23.8526 35.1251 23.9933 35.3032 24.156C35.4772 24.3056 35.7182 24.5477 35.7264 24.7985C35.7388 25.1063 35.3822 25.2077 35.1582 25.2432C35.1169 25.2564 35.071 25.2564 35.0255 25.2607C34.5817 25.2914 34.1172 25.2257 33.682 25.12C33.425 25.063 33.151 24.9924 32.9063 24.8867V24.8862Z" fill="#004000"/>
<path id="Vector_27" fill-rule="evenodd" clip-rule="evenodd" d="M45.9204 12.2512C46.0283 12.203 46.1196 12.1587 46.2192 12.0842C46.6089 11.7851 46.9242 11.1952 47.0982 10.7242C47.1647 10.5484 47.2267 10.3633 47.2767 10.1787C47.3516 9.91031 47.4053 9.63315 47.4424 9.35551C47.459 9.20598 47.4755 9.05206 47.4796 8.90204C47.4838 8.77442 47.4838 8.65119 47.4796 8.52357C47.4755 8.42664 47.4631 8.32533 47.4507 8.22888C47.4466 8.16264 47.4342 8.09688 47.4177 8.03064C47.3511 7.68286 47.1771 7.19869 46.7874 7.15047C46.7296 7.14609 46.6672 7.15486 46.6089 7.16801C46.6089 7.16801 46.613 7.16362 46.6172 7.16362C46.3849 7.22987 46.194 7.39694 46.0365 7.57716C45.7547 7.90741 45.5431 8.33409 45.3852 8.74763C45.3021 8.96341 45.236 9.19672 45.1777 9.42955C45.1323 9.61416 45.0988 9.80363 45.074 9.99311C45.0492 10.147 45.0368 10.3009 45.0285 10.4554C45.0203 10.5786 45.0203 10.7062 45.0244 10.8294C45.0285 10.9132 45.0285 11.0009 45.0409 11.0891C45.0823 11.5026 45.2278 12.1231 45.6712 12.2376C45.7542 12.2639 45.8368 12.2595 45.9199 12.2508C45.8621 12.2771 45.7955 12.2902 45.7331 12.2858C45.331 12.2771 45.1112 11.8148 45.0198 11.4583C44.995 11.3526 44.9744 11.2469 44.962 11.1412C44.8913 10.6351 44.9331 10.1071 45.0285 9.60539C45.1405 9.01553 45.3397 8.4169 45.6464 7.90643C45.8662 7.53235 46.2642 7.03065 46.7204 7.01311C47.2097 6.99558 47.4461 7.53235 47.5375 7.96391C47.554 8.06522 47.5705 8.17092 47.5829 8.27175C47.6283 8.71207 47.5912 9.15191 47.5163 9.58785C47.4167 10.204 47.1927 10.8596 46.8737 11.3969C46.7204 11.6521 46.5171 11.9205 46.2766 12.0925C46.177 12.1675 46.0402 12.242 45.9199 12.2508L45.9204 12.2512Z" fill="#083B24"/>
<path id="Vector_28" fill-rule="evenodd" clip-rule="evenodd" d="M43.955 26.7967C44.067 26.7484 44.1583 26.7041 44.2496 26.6296C44.6476 26.3349 44.9629 25.7407 45.1373 25.274C45.2039 25.0938 45.2659 24.9131 45.3159 24.7241C45.3866 24.4557 45.4444 24.1786 45.4775 23.9053C45.4981 23.7514 45.5105 23.6019 45.5146 23.4474C45.5188 23.3242 45.5188 23.1966 45.5146 23.0734C45.5105 22.9721 45.5023 22.8751 45.4899 22.7743C45.4816 22.708 45.4692 22.6423 45.4568 22.5804C45.3861 22.2283 45.2163 21.7441 44.8225 21.6959C44.7646 21.6915 44.7063 21.7003 44.6439 21.7178C44.648 21.7134 44.6522 21.7134 44.6522 21.7134C44.4199 21.7748 44.229 21.9423 44.0715 22.1226C43.7856 22.4528 43.574 22.8839 43.4243 23.293C43.3371 23.5132 43.271 23.7421 43.2169 23.975C43.1714 24.1596 43.1379 24.349 43.109 24.5385C43.0842 24.6924 43.0718 24.8464 43.0636 25.0008C43.0553 25.124 43.0553 25.2516 43.0594 25.3748C43.0636 25.463 43.0677 25.5507 43.0801 25.6345C43.1214 26.048 43.2669 26.6686 43.7062 26.7874C43.7851 26.8093 43.8719 26.8049 43.955 26.7962C43.8971 26.8225 43.8347 26.8356 43.7723 26.8356C43.3702 26.8225 43.1462 26.3646 43.059 26.0037C43.0301 25.9024 43.0094 25.7967 42.9924 25.6866C42.9259 25.1805 42.9635 24.6525 43.0631 24.1508C43.1751 23.5653 43.3743 22.9623 43.6809 22.4562C43.9049 22.0778 44.2987 21.5804 44.755 21.5585C45.2443 21.541 45.4807 22.0778 45.572 22.5093C45.5927 22.6106 45.6092 22.7207 45.6175 22.822C45.667 23.2575 45.6257 23.6978 45.555 24.1338C45.4513 24.7543 45.2314 25.4055 44.9078 25.9428C44.7545 26.198 44.5512 26.4664 44.3148 26.6427C44.2152 26.7134 44.0784 26.7923 43.954 26.7967H43.955Z" fill="#083B24"/>
<path id="Vector_29" fill-rule="evenodd" clip-rule="evenodd" d="M40.4959 21.8412L40.1392 20.7672L39.3387 21.7048C40.3756 19.0112 41.346 16.34 42.2419 13.6908L42.2378 13.6864L42.2337 13.682L44.1206 7.68792C44.1661 7.51646 44.2161 7.34452 44.2657 7.17307C44.6847 5.34211 44.0004 4.04841 42.6358 3.08008C44.4107 3.78002 46.0989 4.73033 47.5916 6.27098C46.2729 5.75613 45.1034 6.35915 44.8128 7.52523C43.2329 12.6129 41.8683 17.2426 40.4954 21.8417L40.4959 21.8412Z" fill="url(#paint16_linear_245_190)"/>
<path id="Vector_30" fill-rule="evenodd" clip-rule="evenodd" d="M26.3623 17.1759C27.7352 16.8456 28.6931 15.4594 28.4939 14.0775C28.303 12.6957 27.0256 11.8418 25.6531 12.172C24.2803 12.4979 23.3306 13.8885 23.5215 15.266C23.7208 16.6479 24.994 17.5061 26.3623 17.1759Z" fill="url(#paint17_linear_245_190)"/>
<path id="Vector_31" fill-rule="evenodd" clip-rule="evenodd" d="M26.3912 17.1537C26.5115 17.1055 26.6359 17.0656 26.7561 17.013C26.9884 16.9029 27.2083 16.7753 27.4075 16.6126C28.1455 16.0183 28.5894 15.0544 28.4485 14.069V14.0734C28.4154 13.8576 28.3571 13.6423 28.2658 13.4441C28.1745 13.2502 28.0625 13.07 27.9216 12.9073C27.3574 12.2605 26.495 12.0578 25.6986 12.2429L25.7027 12.2385C25.3337 12.3311 24.9936 12.4938 24.6865 12.7315C23.9484 13.3038 23.4922 14.2629 23.6207 15.24V15.2356C23.7534 16.2083 24.4377 16.9302 25.3337 17.1367C25.5494 17.1805 25.761 17.1981 25.9809 17.1937C26.1177 17.1893 26.2503 17.1674 26.3912 17.1542C26.1879 17.238 25.9267 17.2687 25.7069 17.2599C24.7861 17.2468 23.9691 16.7012 23.6166 15.7899C23.5335 15.5829 23.4839 15.354 23.4591 15.1299C23.4261 14.8172 23.4591 14.4874 23.5381 14.1835C23.8199 13.1138 24.6539 12.3087 25.6656 12.0622C26.0764 11.9609 26.5491 11.9653 26.9554 12.0929C27.2331 12.1811 27.4864 12.3043 27.7228 12.4933C27.9303 12.656 28.1125 12.8586 28.2539 13.0875C28.3741 13.2721 28.4655 13.4967 28.5274 13.7125C28.8593 14.9316 28.2704 16.1903 27.2666 16.824C27.0178 16.9779 26.6777 17.1318 26.3917 17.1542L26.3912 17.1537Z" fill="#246E29"/>
<path id="Vector_32" fill-rule="evenodd" clip-rule="evenodd" d="M41.9684 2.87238C42.5945 2.73599 46.9577 5.09057 47.5673 6.30098C46.4184 5.77298 45.415 6.16021 44.6517 7.41446C44.9418 5.09495 43.731 3.6561 41.9684 2.87238Z" fill="url(#paint18_linear_245_190)"/>
<path id="Vector_33" fill-rule="evenodd" clip-rule="evenodd" d="M43.6892 27.5801C43.6933 27.5757 43.7016 27.567 43.7099 27.5626C43.7181 27.5582 43.7264 27.5538 43.7346 27.5494C43.7636 27.5319 43.7883 27.5187 43.8177 27.5012C43.8673 27.4705 43.9214 27.4442 43.9752 27.4174C44.1578 27.3117 44.3318 27.2017 44.4934 27.0653C44.6549 26.9289 44.7963 26.775 44.9207 26.603C45.0244 26.4579 45.1158 26.3083 45.1984 26.1495L45.4265 25.6654L46.3101 23.302C46.7911 21.9728 47.2515 20.6352 47.6788 19.2884C48.102 17.9636 48.4959 16.626 48.8566 15.2836C49.1054 14.3596 49.3418 13.4351 49.5658 12.5067C49.7191 11.895 49.7815 11.2437 49.7232 10.6144C49.7067 10.4162 49.6778 10.2228 49.6402 10.0289C49.6278 9.95829 49.6112 9.89254 49.5947 9.82191C49.5906 9.79561 49.5865 9.77369 49.5782 9.75128C49.5782 9.74251 49.5741 9.73375 49.5741 9.72498V9.67676C49.5823 9.68991 49.5947 9.70306 49.5988 9.71621L49.6071 9.72936C49.6154 9.74251 49.6195 9.75567 49.6278 9.7732C49.636 9.79512 49.6443 9.81704 49.6567 9.83944C49.6608 9.8526 49.6649 9.87013 49.6732 9.88767C49.6939 9.94466 49.7145 10.0021 49.731 10.0591C49.76 10.1604 49.7847 10.2617 49.8059 10.3626C49.8554 10.6134 49.8848 10.8774 49.8972 11.1327C49.9137 11.6124 49.8641 12.0878 49.7645 12.554C49.5906 13.3772 49.4038 14.1998 49.1963 15.0143C49.0265 15.6967 48.8438 16.3786 48.6528 17.0605C48.0268 19.2612 47.3006 21.4306 46.4841 23.5607C46.3762 23.8466 46.2642 24.1374 46.1481 24.4233C46.0443 24.6829 45.9406 24.9469 45.8327 25.2065C45.779 25.3342 45.729 25.4662 45.6753 25.5938C45.6546 25.6464 45.6299 25.7039 45.6087 25.7521C45.5922 25.7915 45.5716 25.8315 45.555 25.8665C45.5137 25.9503 45.472 26.0336 45.4306 26.1174C45.2608 26.4301 45.0616 26.7248 44.8087 26.9669C44.6719 27.1033 44.5186 27.2133 44.3566 27.3147C44.257 27.3716 44.1574 27.4247 44.0536 27.4686C43.9999 27.4905 43.9458 27.5168 43.8921 27.5348C43.8797 27.5392 43.8673 27.5436 43.8549 27.548C43.8342 27.5567 43.8095 27.5611 43.7842 27.5699C43.7718 27.5787 43.7553 27.5787 43.7388 27.583L43.7222 27.5918H43.6727C43.6768 27.5874 43.6809 27.583 43.6892 27.5787V27.5801Z" fill="url(#paint19_linear_245_190)"/>
</g>
<g id="Group_2">
<path id="Vector_34" fill-rule="evenodd" clip-rule="evenodd" d="M19.6178 36.1368C18.5065 34.7664 17.9961 33.2633 17.7515 31.7095C18.1871 32.7756 18.7094 33.8003 20.0157 34.4456C19.6219 34.8369 19.4975 35.4076 19.6178 36.1363V36.1368Z" fill="#4AFA7D"/>
<path id="Vector_35" fill-rule="evenodd" clip-rule="evenodd" d="M22.3796 33.4834C23.8103 33.1626 24.8058 31.7927 24.5984 30.4307C24.3992 29.0686 23.0681 28.2274 21.6374 28.5482C20.2108 28.8732 19.2152 30.2431 19.4185 31.6051C19.6219 32.9672 20.9488 33.8084 22.3796 33.4834Z" fill="url(#paint20_linear_245_190)"/>
<path id="Vector_36" fill-rule="evenodd" clip-rule="evenodd" d="M22.442 33.5508C22.5664 33.5052 22.6949 33.4591 22.8193 33.4093C23.0598 33.3051 23.2879 33.1761 23.4995 33.018C24.267 32.4307 24.731 31.4812 24.586 30.5068V30.511C24.5529 30.2985 24.4905 30.086 24.3909 29.8905C24.2954 29.6988 24.1793 29.5199 24.0343 29.3618C23.4454 28.7207 22.5494 28.5206 21.72 28.7036H21.7241C21.3386 28.7912 20.986 28.9534 20.6666 29.1867C19.895 29.749 19.4181 30.6986 19.5553 31.6605V31.6564C19.688 32.6184 20.4054 33.3263 21.3386 33.5264C21.5584 33.5762 21.7824 33.5932 22.0105 33.5845C22.1556 33.5845 22.2965 33.5596 22.442 33.5513C22.2263 33.6347 21.9568 33.6596 21.7287 33.6555C20.7708 33.6389 19.9166 33.1014 19.5471 32.2063C19.464 32.0021 19.4103 31.773 19.3855 31.5481C19.3525 31.2397 19.3855 30.9152 19.4644 30.6193C19.7591 29.5697 20.634 28.77 21.6833 28.5326C22.1106 28.4326 22.6082 28.4326 23.0268 28.5575C23.3214 28.6451 23.5867 28.77 23.8273 28.9488C24.043 29.1152 24.2335 29.3111 24.3831 29.5402C24.5075 29.7237 24.6071 29.944 24.6649 30.1565C25.0092 31.3558 24.3996 32.6013 23.3545 33.2217C23.0933 33.3757 22.7408 33.5301 22.442 33.5508Z" fill="#004000"/>
<path id="Vector_37" fill-rule="evenodd" clip-rule="evenodd" d="M7.74777 35.1579L0.444594 32.6177C-0.343512 31.41 0.278894 29.1985 0.817763 28.9694C0.817763 28.9694 0.656194 29.0611 0.656194 29.057C2.75062 27.1164 6.86878 23.5889 11.3766 20.8274C12.4925 20.107 13.6909 19.8152 15.022 20.1194C17.1165 20.6817 19.0865 21.3188 20.5461 22.3061L22.0764 23.393L22.5533 23.5889L7.74777 35.1584V35.1579Z" fill="url(#paint21_linear_245_190)"/>
<path id="Vector_38" fill-rule="evenodd" clip-rule="evenodd" d="M15.0057 49.7633C13.1022 48.693 11.3103 47.6518 9.35723 46.1108C8.54021 45.4568 7.88888 44.67 7.31697 43.8163C5.13946 41.3217 1.93379 35.8532 0.424133 32.6298L0.440657 31.1807C2.33588 32.2468 5.65354 34.0836 7.64423 35.1788L16.8055 49.9094C16.6563 50.0509 15.6607 50.0343 15.0057 49.7638V49.7633Z" fill="url(#paint22_linear_245_190)"/>
<path id="Vector_39" fill-rule="evenodd" clip-rule="evenodd" d="M16.4575 49.8056L7.74017 35.104L22.5375 23.7217L22.8234 23.9591C23.1264 24.4965 23.5409 24.4712 23.8934 24.9713C26.394 28.5657 28.6128 32.2471 30.3878 36.3619C30.9891 37.5862 30.6324 39.9812 29.7452 40.9888C26.8668 43.7415 23.7024 46.3029 20.3434 48.7394C18.9251 49.9849 17.6601 50.1057 16.4575 49.8056Z" fill="url(#paint23_linear_245_190)"/>
<path id="Vector_40" fill-rule="evenodd" clip-rule="evenodd" d="M20.7832 24.9879C21.2683 24.8796 20.8993 22.9722 20.0699 22.0352C21.9444 22.8432 23.5909 23.9674 24.5116 26.0333C23.3628 24.8257 22.1313 24.4214 20.7832 24.9879Z" fill="url(#paint24_linear_245_190)"/>
<path id="Vector_41" fill-rule="evenodd" clip-rule="evenodd" d="M8.59851 33.713C12.9778 30.7187 17.1295 27.6784 20.9613 24.4629L21.3179 24.5795C21.6993 24.4173 21.5336 24.7376 21.7452 24.892C17.4485 27.8531 13.2643 31.1681 9.52753 34.4961L9.8011 33.4051L8.59851 33.7134V33.713Z" fill="url(#paint25_linear_245_190)"/>
<path id="Vector_42" fill-rule="evenodd" clip-rule="evenodd" d="M9.37374 36.4992C9.15388 36.7283 16.6934 49.989 16.9298 49.8429C16.5732 49.9968 16.7348 50.001 16.3988 49.9719C14.1386 45.8157 11.14 41.476 8.58517 37.2446L9.2365 37.7779C8.98772 36.6034 8.68478 35.2916 9.37328 36.4992H9.37374Z" fill="#FA6666"/>
<path id="Vector_43" fill-rule="evenodd" clip-rule="evenodd" d="M16.6604 49.7889C17.8299 50.1802 18.9081 49.8055 20.0033 49.1058L29.882 40.8846C30.7031 39.4893 30.7903 38.0443 30.1266 36.3323L28.9612 34.0249L14.5453 45.8442C15.2793 47.1643 16.8013 49.8797 16.6604 49.788V49.7889Z" fill="#690000"/>
<path id="Vector_44" fill-rule="evenodd" clip-rule="evenodd" d="M12.9737 43.2255C13.1977 43.1799 26.3238 29.2739 26.3486 29.3859C27.7462 31.5265 28.9157 33.5214 30.1849 36.3285C31.0891 38.4276 30.923 39.627 30.0151 40.7388C26.83 43.7164 23.4169 46.5401 19.8087 49.2389C19.0247 49.7137 18.4069 50.0718 16.5654 49.9593L12.9737 43.2251V43.2255Z" fill="url(#paint26_linear_245_190)"/>
<path id="Vector_45" fill-rule="evenodd" clip-rule="evenodd" d="M14.807 48.3643C14.6036 47.9771 14.3053 47.5106 13.8821 46.9317L7.47028 43.8374L8.49477 45.0451L9.71388 46.0361C11.1074 47.1773 12.6336 48.1849 14.3714 48.9722C14.6573 49.0847 15.2591 49.0888 14.807 48.3643Z" fill="url(#paint27_linear_245_190)"/>
<path id="Vector_46" fill-rule="evenodd" clip-rule="evenodd" d="M3.46824 36.5202C4.31005 37.5531 5.35933 38.1279 5.81145 37.803C6.26356 37.4739 5.9441 36.3704 5.10642 35.3374C4.26048 34.3003 3.21533 33.7255 2.76321 34.0546C2.30697 34.3796 2.62643 35.4831 3.46824 36.5202Z" fill="url(#paint28_linear_245_190)"/>
<path id="Vector_47" fill-rule="evenodd" clip-rule="evenodd" d="M11.4599 46.886C12.3059 47.9231 13.351 48.4978 13.8073 48.1729C14.2594 47.8438 13.9399 46.7403 13.0981 45.7032C12.2563 44.6702 11.207 44.0954 10.7549 44.4204C10.3028 44.7495 10.6222 45.853 11.4599 46.886Z" fill="url(#paint29_linear_245_190)"/>
<path id="Vector_48" fill-rule="evenodd" clip-rule="evenodd" d="M6.92267 41.4262C7.76448 42.4591 8.81376 43.0297 9.26588 42.7089C9.71799 42.3798 9.40266 41.2763 8.55672 40.2392C7.71491 39.2063 6.66563 38.6356 6.21351 38.9565C5.76553 39.2856 6.08086 40.389 6.92267 41.4262Z" fill="url(#paint30_linear_245_190)"/>
<path id="Vector_49" fill-rule="evenodd" clip-rule="evenodd" d="M3.40994 36.5198C3.57151 36.6737 3.72941 36.8406 3.89511 36.9904C3.96992 37.0572 4.05254 37.1277 4.13149 37.1904C4.4303 37.4361 4.83652 37.7191 5.21795 37.7984C5.38365 37.8274 5.57046 37.844 5.71138 37.7357C5.70725 37.7399 5.70312 37.7399 5.70312 37.7399C5.8399 37.6481 5.87295 37.4693 5.87295 37.3107C5.87708 36.936 5.68613 36.4944 5.50804 36.1778C5.44562 36.0653 5.37952 35.9611 5.30883 35.8569C5.2051 35.6947 5.08897 35.5444 4.97284 35.3905L4.97697 35.3946C4.83193 35.2241 4.68689 35.0572 4.52486 34.9074C4.39634 34.7825 4.27195 34.6659 4.13103 34.5617C3.86986 34.3534 3.51322 34.1243 3.17723 34.0621C3.03631 34.033 2.86602 34.0289 2.74163 34.1206C2.74577 34.1164 2.7499 34.1123 2.7499 34.1123C2.48872 34.2999 2.56308 34.7493 2.62964 35.0038C2.64616 35.0618 2.66269 35.1162 2.67921 35.1702C2.70813 35.2453 2.73291 35.3158 2.76229 35.3868C2.79947 35.4619 2.82885 35.5324 2.86602 35.6076C2.93671 35.7532 3.01107 35.8906 3.10241 36.0326C3.20201 36.1948 3.30988 36.3575 3.40948 36.5198C3.35165 36.4658 3.28922 36.4032 3.23552 36.3451C3.2066 36.3077 3.1731 36.2658 3.14418 36.2285C3.04045 36.087 2.93671 35.9413 2.8495 35.7869C2.77881 35.6703 2.71272 35.5536 2.65856 35.4329C2.62551 35.3619 2.59613 35.2914 2.56721 35.2162C2.54243 35.1494 2.51764 35.0747 2.50066 35.0079C2.40106 34.6705 2.34735 34.1584 2.70813 33.9583C3.07717 33.7583 3.61649 34.0081 3.93137 34.2082C3.99792 34.2538 4.06815 34.2958 4.13471 34.3497C4.20539 34.3995 4.27149 34.4497 4.34217 34.5036C4.4583 34.5995 4.57443 34.7037 4.6823 34.8079C4.77364 34.8996 4.86498 34.9955 4.95173 35.0909C5.10917 35.2743 5.27119 35.4739 5.40798 35.6781C5.56128 35.9155 5.70679 36.157 5.81832 36.4151C5.8555 36.4986 5.88901 36.5857 5.91793 36.6733C5.94271 36.7401 5.95924 36.8106 5.98035 36.8816C6.07169 37.2439 6.10061 37.7855 5.66502 37.9353C5.5902 37.9602 5.52824 37.9643 5.45342 37.9685C5.36208 37.9726 5.26247 37.9519 5.17572 37.9312C4.71947 37.8187 4.22192 37.4357 3.89832 37.1148C3.79872 37.0148 3.70324 36.9148 3.61236 36.8023C3.6041 36.7899 3.55453 36.7355 3.54581 36.7272C3.52102 36.6899 3.48797 36.6438 3.46273 36.6023L3.40902 36.5188L3.40994 36.5198Z" fill="#FF1F29"/>
<path id="Vector_50" fill-rule="evenodd" clip-rule="evenodd" d="M6.93967 41.4678C7.10537 41.6218 7.25913 41.7845 7.42483 41.9343C7.50378 42.0053 7.58227 42.0758 7.66122 42.1385C7.96416 42.38 8.37038 42.663 8.75594 42.7423C8.91338 42.7755 9.10432 42.7921 9.2411 42.6842L9.23697 42.6884C9.36962 42.5925 9.4068 42.4136 9.4068 42.2551C9.4068 41.8845 9.21999 41.4429 9.03777 41.1221C8.97534 41.0096 8.90925 40.9055 8.84269 40.8013C8.73896 40.6432 8.62696 40.4888 8.5067 40.339C8.5067 40.339 8.5067 40.3431 8.51083 40.3431C8.36579 40.1726 8.22074 40.0057 8.05458 39.8518C7.93019 39.731 7.80167 39.6144 7.66489 39.5061C7.39959 39.3019 7.04294 39.0728 6.71109 39.0106C6.56604 38.9815 6.39988 38.9774 6.27549 39.0645C6.27549 39.0645 6.27962 39.0603 6.28375 39.0603C6.02258 39.2396 6.09281 39.6891 6.1635 39.9518C6.17589 40.0057 6.19654 40.0643 6.2172 40.1182C6.23785 40.1892 6.26264 40.2638 6.29615 40.3348C6.3292 40.41 6.3627 40.4805 6.39575 40.5556C6.47057 40.7013 6.54493 40.8386 6.63214 40.9806C6.73174 41.1428 6.83961 41.3056 6.93921 41.4678C6.88551 41.4097 6.81895 41.347 6.76525 41.2885C6.73633 41.2512 6.70741 41.2092 6.67804 41.1719C6.5743 41.0304 6.47057 40.8889 6.37923 40.7345C6.31267 40.6178 6.24658 40.5012 6.19241 40.3763C6.15937 40.3053 6.12586 40.2348 6.10107 40.1597C6.07629 40.0928 6.0515 40.0223 6.03039 39.9513C5.93491 39.6181 5.87708 39.106 6.23785 38.9059C6.60689 38.7017 7.14622 38.9557 7.46109 39.1558C7.53591 39.1972 7.60201 39.2433 7.66856 39.2931C7.73512 39.347 7.80121 39.3973 7.8719 39.4512C7.99216 39.5429 8.10416 39.6513 8.21615 39.7554C8.30749 39.8472 8.3947 39.943 8.48146 40.0343C8.64302 40.2177 8.80505 40.4215 8.9377 40.6215C9.09927 40.8589 9.23651 41.1004 9.35264 41.3627C9.38569 41.4461 9.42333 41.5291 9.45224 41.6208C9.4729 41.6877 9.49769 41.7582 9.51008 41.8292C9.60142 42.1915 9.63034 42.7331 9.19474 42.8787C9.12406 42.9036 9.05796 42.9119 8.98314 42.9119C8.8918 42.9202 8.7922 42.8995 8.70545 42.8787C8.2492 42.7663 7.75577 42.3832 7.43218 42.0583C7.33257 41.9582 7.2371 41.8541 7.14209 41.7458C7.13796 41.7375 7.08838 41.6831 7.07966 41.6706C7.05075 41.6333 7.02596 41.5872 6.99658 41.5457L6.93875 41.4664L6.93967 41.4678Z" fill="#FF1F29"/>
<path id="Vector_51" fill-rule="evenodd" clip-rule="evenodd" d="M11.4764 46.9314C11.6421 47.0812 11.7959 47.248 11.9616 47.3978C12.0406 47.4647 12.119 47.5352 12.198 47.602C12.5009 47.8436 12.9072 48.1266 13.2927 48.2059C13.4502 48.239 13.6411 48.2515 13.7779 48.1432C13.7751 48.1459 13.7724 48.1487 13.7696 48.1515C13.9064 48.0556 13.9436 47.8768 13.9436 47.7182C13.9436 47.3435 13.7568 46.906 13.5745 46.5852C13.5121 46.4769 13.4501 46.3686 13.3795 46.2644C13.2757 46.1021 13.1637 45.9477 13.0435 45.7979C13.0435 45.7979 13.0435 45.8021 13.0476 45.8021C12.9026 45.6315 12.7575 45.4647 12.5914 45.3149C12.467 45.19 12.3384 45.0775 12.2017 44.9692C11.9364 44.7608 11.5797 44.5317 11.2479 44.4695C11.1028 44.4405 10.9367 44.4363 10.8081 44.5276C10.8123 44.5276 10.8164 44.5234 10.8205 44.5193C10.5594 44.7027 10.6296 45.1563 10.7003 45.4107C10.7127 45.4688 10.7333 45.5232 10.754 45.5771C10.7746 45.6523 10.7994 45.7228 10.8288 45.7938C10.866 45.8689 10.8995 45.9394 10.9325 46.0187C11.0073 46.1602 11.0817 46.3017 11.1689 46.4396C11.2685 46.606 11.3764 46.7645 11.476 46.9309C11.4223 46.8724 11.3557 46.8101 11.302 46.7516C11.2731 46.7184 11.2442 46.6723 11.2148 46.635C11.1111 46.4935 11.0073 46.3478 10.916 46.1976C10.8453 46.0768 10.7833 45.9602 10.7292 45.8394C10.692 45.7684 10.6626 45.6979 10.6378 45.6228C10.6131 45.5559 10.5841 45.4813 10.5672 45.4144C10.4717 45.077 10.4139 44.5691 10.7746 44.369C11.1437 44.1648 11.683 44.4147 11.9979 44.6147C12.0727 44.6603 12.1388 44.7064 12.2053 44.7562C12.2719 44.806 12.338 44.8604 12.4087 44.9143C12.5289 45.0102 12.6409 45.1102 12.7529 45.2185C12.8443 45.3061 12.9315 45.402 13.0182 45.4974C13.1798 45.6809 13.3418 45.8804 13.4745 46.0846C13.636 46.322 13.7733 46.5635 13.8853 46.8217C13.9225 46.9092 13.9601 46.9922 13.989 47.0798C14.0097 47.1466 14.0345 47.2172 14.0469 47.2923C14.1382 47.6504 14.1671 48.192 13.7315 48.3418C13.6608 48.3667 13.5947 48.3709 13.5199 48.3792C13.4286 48.3792 13.329 48.3584 13.2422 48.3377C12.786 48.2252 12.2884 47.8422 11.969 47.5214C11.8693 47.4213 11.7739 47.3172 11.6789 47.2089C11.6706 47.1964 11.6252 47.142 11.6164 47.1337C11.5875 47.0964 11.5586 47.0503 11.5334 47.0088L11.4755 46.9295L11.4764 46.9314Z" fill="#FF1F29"/>
<path id="Vector_52" fill-rule="evenodd" clip-rule="evenodd" d="M9.44444 36.9492C9.02124 36.2661 8.72289 35.3207 9.66017 34.3422C10.2862 33.5802 18.5313 27.1622 18.6139 27.1456C19.3685 26.5376 20.874 25.3258 21.2931 25.1548C21.7122 24.9801 22.2015 24.8759 22.6908 24.8967C23.2384 24.9174 24.3579 25.842 24.2959 26.0172C24.5988 26.4795 26.1911 29.199 26.2907 29.4157L12.9778 43.3382L9.44444 36.9497V36.9492Z" fill="url(#paint31_linear_245_190)"/>
<path id="Vector_53" fill-rule="evenodd" clip-rule="evenodd" d="M8.50715 44.9661C7.88934 45.3118 -0.0610355 32.601 0.436523 32.1221C2.75081 36.6157 5.57505 41.3219 8.6522 44.5706C9.56469 45.445 8.75593 45.291 8.50715 44.9661Z" fill="#C91919"/>
<path id="Vector_54" fill-rule="evenodd" clip-rule="evenodd" d="M17.9006 25.5871C19.2235 24.8999 20.0947 23.8798 19.8418 23.3092C19.593 22.7385 18.3156 22.8302 16.9927 23.5134C15.6699 24.1923 14.7987 25.2124 15.0475 25.783C15.2963 26.3578 16.5778 26.2661 17.9006 25.5871Z" fill="url(#paint32_linear_245_190)"/>
<path id="Vector_55" fill-rule="evenodd" clip-rule="evenodd" d="M12.9861 23.5173C14.3048 22.8383 15.176 21.8183 14.9272 21.2476C14.6784 20.6729 13.401 20.7646 12.0782 21.4477C10.7512 22.1308 9.88416 23.1509 10.1371 23.7215C10.3817 24.2921 11.6591 24.2004 12.9861 23.5173Z" fill="url(#paint33_linear_245_190)"/>
<path id="Vector_56" fill-rule="evenodd" clip-rule="evenodd" d="M9.00057 32.4135C10.3234 31.7304 11.1987 30.7062 10.9458 30.1397C10.697 29.5649 9.41963 29.6567 8.09679 30.3398C6.77395 31.0229 5.90276 32.0388 6.15154 32.6136C6.40032 33.1842 7.67772 33.0966 9.00057 32.4135Z" fill="url(#paint34_linear_245_190)"/>
<path id="Vector_57" fill-rule="evenodd" clip-rule="evenodd" d="M11.3355 27.9277C12.6584 27.2404 13.5296 26.2245 13.2767 25.6497C13.0279 25.0832 11.7505 25.1708 10.4276 25.8539C9.10479 26.537 8.2336 27.5529 8.48238 28.1277C8.73116 28.7025 10.0127 28.6108 11.3355 27.9277Z" fill="url(#paint35_linear_245_190)"/>
<path id="Vector_58" fill-rule="evenodd" clip-rule="evenodd" d="M17.8758 25.5082C17.992 25.4331 18.1081 25.3584 18.2284 25.2792C18.3238 25.2165 18.4234 25.1501 18.5184 25.0833C18.8999 24.8127 19.3437 24.425 19.5801 24.013C19.6797 23.8383 19.7669 23.6092 19.6797 23.4091V23.4174C19.5429 23.1132 19.0619 23.1008 18.7796 23.1261C18.7218 23.1303 18.6552 23.1386 18.5969 23.1469C18.5015 23.1635 18.4101 23.1801 18.3151 23.2008C18.1701 23.234 18.0291 23.2759 17.8878 23.3216C17.7799 23.3547 17.6762 23.3925 17.5724 23.434C17.3985 23.505 17.2282 23.5797 17.0584 23.6673L17.0625 23.6631C16.9381 23.7299 16.8178 23.7922 16.7017 23.8632C16.2289 24.1462 15.702 24.5255 15.3871 24.9961C15.2669 25.1754 15.1177 25.4668 15.2214 25.6875C15.2173 25.6834 15.2173 25.6792 15.2132 25.6751C15.3293 25.9498 15.7231 25.9918 15.9806 25.9918C16.4121 25.9918 16.889 25.871 17.2993 25.7253C17.4903 25.6544 17.6808 25.5797 17.8758 25.5087C17.689 25.6336 17.4862 25.7336 17.2787 25.8171C16.8183 26.0088 16.2294 26.1711 15.7236 26.1171C15.4707 26.0922 15.1971 25.9964 15.081 25.7507C14.9772 25.5299 15.0479 25.2676 15.1599 25.0634C15.3963 24.6219 15.8236 24.243 16.2299 23.96C16.3956 23.8433 16.5659 23.7267 16.7481 23.6308C16.889 23.5516 17.0258 23.4852 17.1754 23.4101C17.387 23.3142 17.611 23.2266 17.835 23.1519C17.9263 23.127 18.0135 23.098 18.1044 23.0727C18.1916 23.0519 18.2784 23.0312 18.3615 23.0141C18.4611 22.9934 18.5731 22.9768 18.6727 22.9685C19.0334 22.9311 19.5769 22.9394 19.7926 23.2934C20.0084 23.6474 19.7178 24.1056 19.4897 24.372C19.4443 24.4301 19.3942 24.4804 19.3446 24.5384C19.2657 24.6177 19.1831 24.6924 19.0959 24.7634C19.0128 24.8344 18.9343 24.9049 18.843 24.9676C18.7392 25.0427 18.6314 25.1132 18.5235 25.1801C18.3202 25.3133 18.1003 25.4257 17.8763 25.5092L17.8758 25.5082Z" fill="#FFCFCF"/>
<path id="Vector_59" fill-rule="evenodd" clip-rule="evenodd" d="M12.9737 23.4592C13.0898 23.3799 13.206 23.3052 13.3221 23.2259C13.4258 23.1632 13.5213 23.101 13.6122 23.0342C13.9977 22.7636 14.4416 22.376 14.6738 21.9639C14.7776 21.7892 14.8648 21.5514 14.7776 21.3559C14.7776 21.3601 14.7776 21.3642 14.7817 21.3642C14.6408 21.06 14.1556 21.0517 13.8775 21.077C13.815 21.0812 13.7531 21.0895 13.6907 21.0978C13.5952 21.1102 13.5038 21.131 13.413 21.1476C13.2638 21.1808 13.127 21.2227 12.9856 21.2683C12.8778 21.3057 12.774 21.3393 12.6703 21.3808C12.4917 21.4518 12.326 21.5306 12.1562 21.614L12.1603 21.6099C12.0401 21.6767 11.9157 21.739 11.7996 21.8141C11.3227 22.093 10.7999 22.4765 10.4891 22.9429C10.3647 23.1264 10.2156 23.4135 10.3152 23.6343C10.3152 23.6343 10.3152 23.6302 10.311 23.626C10.4313 23.8966 10.821 23.9427 11.0743 23.9427C11.5141 23.9427 11.9868 23.8219 12.3931 23.6763C12.5923 23.6053 12.7828 23.5265 12.9737 23.4596C12.7869 23.5845 12.584 23.6846 12.3765 23.768C11.9162 23.9556 11.3231 24.1178 10.8256 24.0681C10.5685 24.0432 10.2904 23.9473 10.1784 23.6975C10.0746 23.4767 10.1453 23.2144 10.2532 23.0144C10.4896 22.5645 10.921 22.1939 11.3273 21.9067C11.4888 21.7943 11.6674 21.6776 11.8413 21.5818C11.9864 21.5025 12.1232 21.4278 12.2728 21.361C12.4885 21.261 12.7043 21.1734 12.9324 21.1029C13.0237 21.0738 13.1109 21.0489 13.2018 21.0236C13.289 21.0028 13.3758 20.9821 13.463 20.9609C13.5585 20.9402 13.6705 20.9277 13.7659 20.9153C14.1308 20.8779 14.6743 20.8862 14.89 21.2402C15.1058 21.5942 14.8152 22.0565 14.5871 22.323C14.5416 22.3769 14.4957 22.4313 14.442 22.4811C14.3631 22.5645 14.2805 22.6433 14.1933 22.7143C14.1143 22.7853 14.0276 22.8517 13.9445 22.9143C13.8408 22.9895 13.7288 23.06 13.6209 23.131C13.4176 23.2642 13.2018 23.3767 12.9737 23.4601V23.4592Z" fill="#FFCFCF"/>
<path id="Vector_60" fill-rule="evenodd" clip-rule="evenodd" d="M11.3231 27.866C11.5058 27.7411 11.6922 27.6328 11.879 27.5079C12.2604 27.2497 12.6506 26.9331 12.9324 26.5625C13.0898 26.3624 13.2973 26.0167 13.177 25.7545C13.177 25.7572 13.1798 25.76 13.1853 25.7628C13.065 25.5088 12.6795 25.4585 12.4348 25.4668C12.3811 25.471 12.3187 25.4668 12.2609 25.4751C12.1985 25.4793 12.1324 25.4876 12.0699 25.5C11.9703 25.5125 11.879 25.5332 11.784 25.5539C11.6348 25.583 11.4939 25.6249 11.3443 25.6747C11.2364 25.7079 11.1285 25.7498 11.0207 25.7872C10.8421 25.8623 10.6723 25.937 10.4942 26.0246L10.4983 26.0204C10.3739 26.0873 10.2495 26.1495 10.1293 26.2205C9.64411 26.5076 9.11304 26.8911 8.78164 27.3617C8.65312 27.5452 8.50395 27.8282 8.60309 28.0531V28.0448C8.67378 28.2154 8.856 28.2905 9.02216 28.3237C9.41598 28.4113 9.95531 28.3154 10.3367 28.2071C10.4694 28.1698 10.602 28.1278 10.7306 28.0822C10.9298 28.0112 11.1244 27.9365 11.3236 27.8655C11.2488 27.9112 11.1703 27.9614 11.0913 28.0071C11.05 28.0236 10.9917 28.0527 10.9504 28.0739C10.8219 28.1278 10.6975 28.1822 10.569 28.232C10.4405 28.2818 10.2996 28.3237 10.1628 28.361C10.0632 28.3901 9.95944 28.4108 9.85984 28.4362C9.77676 28.4486 9.69414 28.4611 9.61519 28.4735C9.54863 28.4777 9.48667 28.486 9.42011 28.486C9.07173 28.5067 8.56591 28.4486 8.43739 28.0527C8.37084 27.8277 8.46218 27.5779 8.57004 27.382C8.82708 26.9321 9.30812 26.5491 9.73132 26.2615C9.94705 26.1158 10.1876 25.9785 10.4198 25.8577C10.6397 25.7494 10.8719 25.6494 11.1042 25.5705C11.2121 25.5291 11.3199 25.4954 11.4319 25.4622C11.5233 25.4373 11.6105 25.4124 11.7014 25.3912C11.8134 25.3663 11.913 25.3456 12.025 25.3286C12.0915 25.3203 12.1576 25.3161 12.2283 25.3078C12.5808 25.2746 13.1573 25.312 13.323 25.695C13.4267 25.9448 13.3189 26.2366 13.1821 26.4445C12.8833 26.9151 12.3692 27.3106 11.8964 27.5858C11.7968 27.6484 11.6807 27.7107 11.577 27.7604C11.498 27.7978 11.4071 27.8314 11.3241 27.8646L11.3231 27.866Z" fill="#FFCFCF"/>
<path id="Vector_61" fill-rule="evenodd" clip-rule="evenodd" d="M8.99233 32.3421C9.17501 32.2213 9.3655 32.1089 9.54818 31.984C9.92548 31.7258 10.3198 31.4133 10.6016 31.0386C10.7549 30.8385 10.9665 30.4928 10.8462 30.2306C10.8462 30.2333 10.8476 30.2361 10.8504 30.2389C10.7301 29.9849 10.3487 29.9346 10.104 29.9434C10.0462 29.9475 9.9879 29.9475 9.93007 29.9517C9.86352 29.9558 9.80155 29.9641 9.73499 29.9766C9.63952 29.989 9.54818 30.0098 9.44904 30.0305C9.30399 30.0596 9.15895 30.1056 9.01344 30.1513C8.90145 30.1845 8.79771 30.2264 8.68985 30.2679C8.5113 30.3389 8.33733 30.4136 8.16291 30.5011H8.16704C8.04265 30.5638 7.91827 30.6302 7.79801 30.697C7.30871 30.9883 6.77765 31.3677 6.44579 31.8383C6.31727 32.0218 6.17222 32.3048 6.27183 32.5297C6.26769 32.5297 6.26769 32.5256 6.26769 32.5256C6.34251 32.692 6.52473 32.7671 6.68676 32.8003C7.08472 32.8879 7.62405 32.792 8.00134 32.6837C8.134 32.6463 8.26665 32.6044 8.3993 32.5588C8.59438 32.4878 8.79312 32.4131 8.99233 32.3421C8.91751 32.3877 8.83489 32.438 8.76008 32.4836C8.71463 32.5044 8.66047 32.5293 8.61503 32.5505C8.49064 32.6044 8.37038 32.6588 8.23773 32.7086C8.10508 32.7583 7.96417 32.8003 7.82738 32.8376C7.72778 32.8667 7.62818 32.8874 7.52444 32.9128C7.44549 32.9293 7.36287 32.9376 7.27979 32.9501C7.21737 32.9542 7.15127 32.9625 7.08885 32.9625C6.73634 32.9833 6.23465 32.9293 6.10613 32.5293C6.03544 32.3043 6.13091 32.0545 6.23878 31.8586C6.49582 31.4087 6.97685 31.0257 7.39592 30.7381C7.61165 30.5924 7.8563 30.455 8.08856 30.3343C8.30429 30.226 8.54067 30.1259 8.7688 30.0471C8.88079 30.0098 8.98866 29.972 9.09652 29.9388C9.18786 29.9139 9.27921 29.8849 9.36596 29.8678C9.48208 29.8471 9.58169 29.8222 9.68955 29.8097C9.76024 29.7973 9.82634 29.7931 9.89289 29.7848C10.2495 29.7517 10.826 29.789 10.9917 30.1762C11.0955 30.4219 10.9835 30.7136 10.8508 30.9215C10.552 31.3921 10.0379 31.7876 9.5693 32.0628C9.46556 32.1255 9.34943 32.1877 9.24157 32.2375C9.16262 32.2748 9.07174 32.3085 8.99279 32.3417L8.99233 32.3421Z" fill="#FFCFCF"/>
<path id="Vector_62" fill-rule="evenodd" clip-rule="evenodd" d="M4.61298 32.9882L10.0792 21.7769C7.24261 23.7593 4.29811 26.0705 1.28293 28.6195C0.511343 29.2316 0.0179165 30.3438 0.74773 31.0684C1.93792 31.8972 4.32244 32.8301 4.61298 32.9882Z" fill="url(#paint36_linear_245_190)"/>
<path id="Vector_63" fill-rule="evenodd" clip-rule="evenodd" d="M4.10669 30.1355C5.42954 29.4565 6.30072 28.4323 6.05194 27.8658C5.80317 27.291 4.52576 27.3827 3.20292 28.0659C1.87594 28.749 1.00476 29.7649 1.25767 30.3397C1.50645 30.9103 2.78385 30.8186 4.10669 30.1355Z" fill="url(#paint37_linear_245_190)"/>
<path id="Vector_64" fill-rule="evenodd" clip-rule="evenodd" d="M4.07366 30.048C4.25634 29.9272 4.4427 29.8148 4.62538 29.6899C5.00268 29.4317 5.39283 29.1192 5.67466 28.7486C5.82797 28.5444 6.03543 28.1987 5.91518 27.9365C5.91931 27.9406 5.91931 27.9448 5.91931 27.9489C5.77839 27.6447 5.28084 27.6364 5.00268 27.6617C4.94026 27.6659 4.87416 27.6742 4.81174 27.6825C4.71626 27.6949 4.62492 27.7157 4.52578 27.7364C4.38073 27.7655 4.23569 27.8115 4.09432 27.8572C3.98232 27.8945 3.87445 27.9323 3.77072 27.9696C3.59217 28.0406 3.41821 28.1236 3.24837 28.2029C3.03677 28.3153 2.82518 28.432 2.6223 28.5652C2.52682 28.6237 2.43548 28.6901 2.3446 28.7569C2.01687 28.9985 1.61479 29.3566 1.4321 29.723C1.35729 29.8811 1.29119 30.0646 1.36555 30.2351V30.2268C1.46102 30.4601 1.76763 30.5182 1.9875 30.5311C2.51397 30.5726 3.14051 30.3937 3.62567 30.2144C3.77485 30.1563 3.92448 30.1019 4.07366 30.048C3.94514 30.1231 3.83314 30.1937 3.70049 30.2522C3.56784 30.3149 3.43519 30.3688 3.30254 30.4186C2.87934 30.5808 2.33221 30.7058 1.88422 30.6643C1.62305 30.6352 1.34076 30.5477 1.22464 30.2895C1.12916 30.0812 1.19159 29.848 1.28706 29.6525C1.46974 29.2736 1.83878 28.9279 2.16605 28.674C2.26978 28.5947 2.37352 28.52 2.48138 28.4449C2.69711 28.2951 2.93763 28.1619 3.17402 28.0452C3.38562 27.9369 3.622 27.8369 3.85013 27.7539C3.95799 27.7166 4.06586 27.6788 4.17785 27.6456C4.26506 27.6207 4.36054 27.5958 4.44729 27.5788C4.55515 27.5539 4.65889 27.5331 4.76675 27.5161C4.83331 27.5078 4.90354 27.4995 4.97009 27.4953C5.32674 27.458 5.89498 27.4995 6.06068 27.8825C6.16855 28.1282 6.05655 28.42 5.9239 28.632C5.62096 29.0985 5.11927 29.494 4.6465 29.7733C4.54276 29.8314 4.43076 29.8982 4.3229 29.9438C4.24395 29.9853 4.15307 30.0148 4.07412 30.048H4.07366Z" fill="#FFCFCF"/>
<path id="Vector_65" fill-rule="evenodd" clip-rule="evenodd" d="M20.874 34.8293C20.7414 34.8418 20.6087 34.8501 20.4761 34.8667C20.2149 34.9123 19.962 34.9791 19.7174 35.0833C18.7677 35.5 18.0461 36.3661 17.8469 37.3949V37.3866C17.7974 37.6908 17.7845 37.978 17.8345 38.278C17.9465 38.9777 18.3986 39.5899 19.0536 39.8692C19.3189 39.9775 19.576 40.0356 19.8624 40.0485H19.8583C21.2972 40.09 22.6077 38.9824 22.89 37.5747V37.5788C22.9354 37.3207 22.9565 37.0667 22.9272 36.804C22.8565 36.1167 22.4916 35.5004 21.8861 35.1506C21.6539 35.0174 21.4051 34.9257 21.1357 34.8759C21.0485 34.8593 20.9617 34.8427 20.8745 34.8302C21.0861 34.8095 21.2977 34.8468 21.4923 34.8971C21.6539 34.9427 21.8283 35.0178 21.9734 35.0971C22.7986 35.5594 23.1718 36.4882 23.0681 37.4087C22.8854 38.9745 21.434 40.2863 19.85 40.2283C19.5512 40.2158 19.2611 40.149 18.9834 40.0282C18.7553 39.9365 18.552 39.795 18.3615 39.6244C18.1705 39.4497 18.0007 39.2165 17.8846 38.9787C17.785 38.7745 17.7189 38.562 17.6771 38.3334C17.6275 38.0545 17.6317 37.7586 17.6771 37.4756C17.8387 36.4136 18.5731 35.5097 19.5351 35.0644C19.9083 34.8939 20.4642 34.7519 20.8745 34.8312L20.874 34.8293Z" fill="#FF6E6E"/>
<path id="Vector_66" fill-rule="evenodd" clip-rule="evenodd" d="M20.4802 39.9101C21.882 39.5893 22.9272 38.1235 22.8193 36.6365C22.7073 35.1454 21.4841 34.2 20.0864 34.5167C18.6846 34.8333 17.6395 36.2991 17.7473 37.7902C17.8552 39.2772 19.0826 40.2267 20.4802 39.9101Z" fill="url(#paint38_linear_245_190)"/>
<path id="Vector_67" fill-rule="evenodd" clip-rule="evenodd" d="M20.5133 39.8934C20.6418 39.8478 20.7662 39.8058 20.8906 39.7519C21.1311 39.6394 21.3551 39.5104 21.5667 39.344C22.3754 38.6941 22.8482 37.6657 22.7734 36.6245V36.6327C22.7445 36.3244 22.682 36.0414 22.5535 35.7667C22.2634 35.1213 21.67 34.6461 20.9649 34.5548C20.679 34.5134 20.4173 34.5258 20.1355 34.5922L20.1396 34.588C18.742 34.9254 17.7634 36.3414 17.8589 37.7699V37.7657C17.8795 38.028 17.9254 38.282 18.0204 38.5235C18.2692 39.1688 18.7833 39.6689 19.4553 39.8478C19.7123 39.9146 19.9822 39.9395 20.2516 39.9188C20.3388 39.9105 20.4302 39.9022 20.5128 39.8939C20.3177 39.969 20.1025 39.9856 19.8991 39.9897C19.7334 39.9897 19.5466 39.9607 19.385 39.9229C18.4684 39.6897 17.8671 38.8941 17.7303 37.9778C17.4981 36.4203 18.5598 34.7752 20.1025 34.4129C20.3971 34.346 20.6914 34.3377 20.9902 34.3797C21.2389 34.4087 21.4712 34.4922 21.6952 34.6046C21.9275 34.7254 22.1514 34.9088 22.3254 35.1043C22.4746 35.279 22.5948 35.4624 22.6944 35.6749C22.8147 35.9289 22.8854 36.2165 22.9184 36.4995C23.0346 37.5698 22.5618 38.6318 21.7489 39.3149C21.4336 39.5814 20.9319 39.8607 20.5128 39.8939L20.5133 39.8934Z" fill="#992424"/>
<path id="Vector_68" fill-rule="evenodd" clip-rule="evenodd" d="M0.175564 30.2767C0.254512 30.6888 0.420212 31.0723 0.926032 31.3636C2.45634 32.1882 4.06974 32.8547 5.67487 33.5374C6.81549 33.9955 7.98915 33.908 9.31613 33.1751L13.7538 30.0767L14.0856 30.6514L9.78064 34.2458C8.75615 35.2829 9.03017 36.3283 9.42399 37.2401L10.3076 38.681L9.50294 38.7349C8.15485 36.3652 6.15177 34.9907 4.30245 33.9329L0.706629 32.2504C-0.0897394 31.7964 -0.102132 31.0843 0.175564 30.2762V30.2767Z" fill="url(#paint39_linear_245_190)"/>
<path id="Vector_69" fill-rule="evenodd" clip-rule="evenodd" d="M19.8376 25.3832C20.9241 24.6 21.0567 23.538 20.1194 22.064C22.1267 22.8927 23.4665 24.2128 24.3909 25.7081C23.0263 24.9167 21.6911 24.7959 20.4844 25.6957L19.8372 25.3832H19.8376Z" fill="url(#paint40_linear_245_190)"/>
<path id="Vector_70" fill-rule="evenodd" clip-rule="evenodd" d="M16.3951 49.9885C16.3951 49.947 12.2145 42.9459 12.1897 42.9583C12.1649 42.9708 12.6501 42.7292 12.6501 42.7417L16.6356 49.9756C16.5567 49.988 16.3951 50.0129 16.3951 49.9881V49.9885Z" fill="url(#paint41_linear_245_190)"/>
<path id="Vector_71" fill-rule="evenodd" clip-rule="evenodd" d="M17.258 49.8224C17.1832 49.8182 17.1047 49.8141 17.0258 49.8058C16.9844 49.8016 16.9385 49.7975 16.8972 49.7892C16.889 49.7892 16.8807 49.7892 16.8725 49.785C16.8518 49.7809 16.8311 49.7767 16.8059 49.7726C16.8018 49.7726 16.7935 49.7726 16.7894 49.7684C16.7811 49.7643 16.7728 49.7601 16.7646 49.756C16.7728 49.7518 16.7852 49.7435 16.7935 49.7435L16.8018 49.7394C16.8183 49.7394 16.8307 49.7352 16.8431 49.7352C16.8761 49.7311 16.9096 49.7311 16.9427 49.7269C16.9757 49.7228 17.0134 49.7228 17.0505 49.7186C17.113 49.7145 17.1749 49.7104 17.2374 49.7062C17.3576 49.6979 17.4779 49.6896 17.594 49.673C17.7726 49.6523 17.9465 49.6191 18.1205 49.5771C18.4689 49.4896 18.7925 49.3481 19.1032 49.1775L19.9909 48.5944L23.5702 45.6126C24.5488 44.7963 25.5279 43.9758 26.5023 43.1512C27.116 42.6308 27.7343 42.11 28.348 41.5896C28.5389 41.4273 28.7335 41.2646 28.9245 41.1024C29.0365 41.0065 29.1526 40.9106 29.2646 40.8152C29.3353 40.7571 29.4014 40.6986 29.4679 40.6405C29.5345 40.5866 29.5964 40.5239 29.6589 40.4612C29.999 40.1611 30.6834 39.3199 30.6375 37.9081C30.6251 37.7205 30.6044 37.5375 30.5792 37.354C30.575 37.3167 30.5709 37.2789 30.5626 37.2416C30.5626 37.2208 30.5585 37.2001 30.5544 37.1835C30.5544 37.1545 30.5461 37.1254 30.5461 37.0959C30.5461 37.0876 30.542 37.0793 30.542 37.071C30.5461 37.0586 30.5461 37.042 30.5503 37.0337C30.5503 37.0337 30.5585 37.042 30.5585 37.0461C30.5626 37.0503 30.5709 37.0586 30.575 37.0627C30.5792 37.0669 30.5833 37.0793 30.5833 37.0835C30.5957 37.1042 30.604 37.1291 30.6122 37.1545C30.6164 37.1669 30.6246 37.1793 30.6287 37.1959C30.6411 37.225 30.6494 37.2586 30.6577 37.2918C30.6824 37.3628 30.699 37.4333 30.7155 37.5043C30.7485 37.6375 30.7733 37.7707 30.7903 37.9081C30.8982 38.712 30.6577 39.4992 30.2303 40.1902C30.0518 40.4773 29.8324 40.7276 29.579 40.948C28.9447 41.5186 28.3016 42.0809 27.659 42.6387C27.0453 43.172 26.4275 43.7007 25.8092 44.2252C25.1831 44.7544 24.5566 45.2789 23.9223 45.7993C23.3292 46.2948 22.7279 46.782 22.1225 47.2697C21.882 47.4656 21.6374 47.661 21.3968 47.8528C21.2724 47.9487 21.1522 48.0487 21.0278 48.1441C20.8245 48.3063 20.6216 48.469 20.4141 48.6272C20.3728 48.6603 20.331 48.6898 20.2897 48.723C20.2149 48.7811 20.1777 48.8148 20.1112 48.8604C19.9827 48.948 19.8541 49.0309 19.7215 49.1144C19.3277 49.3559 18.9045 49.5684 18.4606 49.6933C18.1746 49.7726 17.88 49.8182 17.5857 49.8265C17.4779 49.8265 17.37 49.8265 17.258 49.8224Z" fill="#C91F0D"/>
<path id="Vector_72" fill-rule="evenodd" clip-rule="evenodd" d="M0.17543 30.2979C0.00973001 30.6601 -0.0444322 31.039 0.0386471 31.4308C0.163037 31.8388 0.424209 32.1347 0.826753 32.3181L3.67578 33.63L4.14442 32.8929L1.09206 31.452C0.631678 31.2354 0.299819 30.8814 0.17543 30.2983V30.2979Z" fill="url(#paint42_linear_245_190)"/>
</g>
</g>
<defs>
<linearGradient id="paint0_linear_245_190" x1="47.8055" y1="18.4856" x2="45.8641" y2="17.4273" gradientUnits="userSpaceOnUse">
<stop stop-color="#24B34D"/>
<stop offset="1" stop-color="#033B24"/>
</linearGradient>
<linearGradient id="paint1_linear_245_190" x1="32.6855" y1="19.929" x2="31.2175" y2="25.4798" gradientUnits="userSpaceOnUse">
<stop stop-color="#033B24"/>
<stop offset="1" stop-color="#03522E"/>
</linearGradient>
<linearGradient id="paint2_linear_245_190" x1="40.2848" y1="24.9234" x2="39.0504" y2="22.4624" gradientUnits="userSpaceOnUse">
<stop stop-color="#127D3B"/>
<stop offset="1" stop-color="#4AFA7D"/>
</linearGradient>
<linearGradient id="paint3_linear_245_190" x1="36.0351" y1="-4.1258" x2="31.6668" y2="13.8791" gradientUnits="userSpaceOnUse">
<stop stop-color="#4AFA7D"/>
<stop offset="1" stop-color="#0D8A33"/>
</linearGradient>
<linearGradient id="paint4_linear_245_190" x1="31.9571" y1="11.5017" x2="31.457" y2="18.8773" gradientUnits="userSpaceOnUse">
<stop stop-color="#1A9C3B"/>
<stop offset="1" stop-color="#12733B"/>
</linearGradient>
<linearGradient id="paint5_linear_245_190" x1="33.7729" y1="15.6275" x2="37.3314" y2="18.143" gradientUnits="userSpaceOnUse">
<stop stop-color="#297D40"/>
<stop offset="1" stop-color="#D4FFE3"/>
</linearGradient>
<linearGradient id="paint6_linear_245_190" x1="30.1528" y1="8.26395" x2="33.7108" y2="10.7794" gradientUnits="userSpaceOnUse">
<stop stop-color="#297D40"/>
<stop offset="1" stop-color="#D4FFE3"/>
</linearGradient>
<linearGradient id="paint7_linear_245_190" x1="32.6571" y1="22.3825" x2="35.7639" y2="24.3971" gradientUnits="userSpaceOnUse">
<stop stop-color="#12733B"/>
<stop offset="1" stop-color="#4AFA7D"/>
</linearGradient>
<linearGradient id="paint8_linear_245_190" x1="32.8159" y1="9.43863" x2="38.1133" y2="-1.11133" gradientUnits="userSpaceOnUse">
<stop stop-color="#24B34D"/>
<stop offset="1" stop-color="#034529"/>
</linearGradient>
<linearGradient id="paint9_linear_245_190" x1="26.1429" y1="1.21267" x2="29.7014" y2="3.72762" gradientUnits="userSpaceOnUse">
<stop stop-color="#297D40"/>
<stop offset="1" stop-color="#D4FFE3"/>
</linearGradient>
<linearGradient id="paint10_linear_245_190" x1="38.1577" y1="4.23147" x2="41.7153" y2="6.74645" gradientUnits="userSpaceOnUse">
<stop stop-color="#297D40"/>
<stop offset="1" stop-color="#D4FFE3"/>
</linearGradient>
<linearGradient id="paint11_linear_245_190" x1="35.3349" y1="31.289" x2="34.5768" y2="23.1489" gradientUnits="userSpaceOnUse">
<stop stop-color="#4AFA7D"/>
<stop offset="1" stop-color="#034529"/>
</linearGradient>
<linearGradient id="paint12_linear_245_190" x1="30.0825" y1="22.0123" x2="33.5591" y2="24.1434" gradientUnits="userSpaceOnUse">
<stop stop-color="#297D40"/>
<stop offset="1" stop-color="#85B894"/>
</linearGradient>
<linearGradient id="paint13_linear_245_190" x1="45.4137" y1="6.86489" x2="46.5114" y2="9.94284" gradientUnits="userSpaceOnUse">
<stop stop-color="#297D40"/>
<stop offset="1" stop-color="#D4FFE3"/>
</linearGradient>
<linearGradient id="paint14_linear_245_190" x1="43.361" y1="21.4278" x2="44.4705" y2="24.54" gradientUnits="userSpaceOnUse">
<stop stop-color="#297D40"/>
<stop offset="1" stop-color="#D4FFE3"/>
</linearGradient>
<linearGradient id="paint15_linear_245_190" x1="44.4057" y1="13.8758" x2="45.553" y2="17.0922" gradientUnits="userSpaceOnUse">
<stop stop-color="#297D40"/>
<stop offset="1" stop-color="#D4FFE3"/>
</linearGradient>
<linearGradient id="paint16_linear_245_190" x1="46.2352" y1="4.76345" x2="45.1551" y2="6.34455" gradientUnits="userSpaceOnUse">
<stop stop-color="#21964A"/>
<stop offset="1" stop-color="#4AFA7D"/>
</linearGradient>
<linearGradient id="paint17_linear_245_190" x1="23.0612" y1="12.3255" x2="26.6196" y2="14.8409" gradientUnits="userSpaceOnUse">
<stop stop-color="#297D40"/>
<stop offset="1" stop-color="#D4FFE3"/>
</linearGradient>
<linearGradient id="paint18_linear_245_190" x1="45.443" y1="3.70286" x2="43.9278" y2="5.46375" gradientUnits="userSpaceOnUse">
<stop stop-color="#126E36"/>
<stop offset="1" stop-color="#4AFA7D"/>
</linearGradient>
<linearGradient id="paint19_linear_245_190" x1="49.0439" y1="12.4312" x2="47.4676" y2="17.241" gradientUnits="userSpaceOnUse">
<stop stop-color="#17803B"/>
<stop offset="1" stop-color="#40CF17"/>
</linearGradient>
<linearGradient id="paint20_linear_245_190" x1="18.9389" y1="28.7045" x2="22.5083" y2="31.3713" gradientUnits="userSpaceOnUse">
<stop stop-color="#297D40"/>
<stop offset="1" stop-color="#D4FFE3"/>
</linearGradient>
<linearGradient id="paint21_linear_245_190" x1="14.3886" y1="31.4635" x2="8.46662" y2="24.6336" gradientUnits="userSpaceOnUse">
<stop stop-color="#690000"/>
<stop offset="1" stop-color="#9C0303"/>
</linearGradient>
<linearGradient id="paint22_linear_245_190" x1="5.68292" y1="43.2291" x2="9.96373" y2="39.3539" gradientUnits="userSpaceOnUse">
<stop stop-color="#CC3636"/>
<stop offset="1" stop-color="#450003"/>
</linearGradient>
<linearGradient id="paint23_linear_245_190" x1="7.06774" y1="18.8574" x2="22.1182" y2="39.9569" gradientUnits="userSpaceOnUse">
<stop stop-color="white"/>
<stop offset="1" stop-color="#BD0000"/>
</linearGradient>
<linearGradient id="paint24_linear_245_190" x1="21.9311" y1="24.5002" x2="22.6648" y2="23.5569" gradientUnits="userSpaceOnUse">
<stop stop-color="#FA8F8F"/>
<stop offset="1" stop-color="#690000"/>
</linearGradient>
<linearGradient id="paint25_linear_245_190" x1="10.7806" y1="34.1094" x2="13.0999" y2="31.5918" gradientUnits="userSpaceOnUse">
<stop stop-color="#E35C5C"/>
<stop offset="1" stop-color="#FA8F8F"/>
</linearGradient>
<linearGradient id="paint26_linear_245_190" x1="18.1737" y1="35.792" x2="25.8036" y2="44.7352" gradientUnits="userSpaceOnUse">
<stop stop-color="#FF4A33"/>
<stop offset="1" stop-color="#8A0000"/>
</linearGradient>
<linearGradient id="paint27_linear_245_190" x1="11.7014" y1="45.6424" x2="10.9083" y2="46.8013" gradientUnits="userSpaceOnUse">
<stop stop-color="#941F1F"/>
<stop offset="1" stop-color="#CF210D"/>
</linearGradient>
<linearGradient id="paint28_linear_245_190" x1="5.43506" y1="34.9097" x2="4.02442" y2="36.1515" gradientUnits="userSpaceOnUse">
<stop stop-color="#A66666"/>
<stop offset="1" stop-color="#FFD4D4"/>
</linearGradient>
<linearGradient id="paint29_linear_245_190" x1="13.5039" y1="45.2151" x2="11.8901" y2="46.6308" gradientUnits="userSpaceOnUse">
<stop stop-color="#A66666"/>
<stop offset="1" stop-color="#FFD4D4"/>
</linearGradient>
<linearGradient id="paint30_linear_245_190" x1="9.06988" y1="39.5672" x2="7.27588" y2="41.2601" gradientUnits="userSpaceOnUse">
<stop stop-color="#A66666"/>
<stop offset="1" stop-color="#FFD4D4"/>
</linearGradient>
<linearGradient id="paint31_linear_245_190" x1="17.9355" y1="33.6563" x2="12.3662" y2="25.8476" gradientUnits="userSpaceOnUse">
<stop stop-color="#F0402E"/>
<stop offset="1" stop-color="#8F0303"/>
</linearGradient>
<linearGradient id="paint32_linear_245_190" x1="18.4312" y1="26.0623" x2="17.1565" y2="24.1198" gradientUnits="userSpaceOnUse">
<stop stop-color="#7D4040"/>
<stop offset="1" stop-color="#FFD4D4"/>
</linearGradient>
<linearGradient id="paint33_linear_245_190" x1="13.8325" y1="23.9464" x2="12.3278" y2="22.2694" gradientUnits="userSpaceOnUse">
<stop stop-color="#9C6666"/>
<stop offset="1" stop-color="#FFD4D4"/>
</linearGradient>
<linearGradient id="paint34_linear_245_190" x1="9.90388" y1="32.91" x2="8.30134" y2="31.1112" gradientUnits="userSpaceOnUse">
<stop stop-color="#784040"/>
<stop offset="1" stop-color="#FFD4D4"/>
</linearGradient>
<linearGradient id="paint35_linear_245_190" x1="12.3596" y1="28.5859" x2="10.5619" y2="26.5427" gradientUnits="userSpaceOnUse">
<stop stop-color="#6E4040"/>
<stop offset="1" stop-color="#FFD4D4"/>
</linearGradient>
<linearGradient id="paint36_linear_245_190" x1="9.44949" y1="28.347" x2="4.28387" y2="26.0186" gradientUnits="userSpaceOnUse">
<stop stop-color="#940303"/>
<stop offset="1" stop-color="#D41200"/>
</linearGradient>
<linearGradient id="paint37_linear_245_190" x1="4.80162" y1="30.5074" x2="3.25253" y2="28.6249" gradientUnits="userSpaceOnUse">
<stop stop-color="#A66666"/>
<stop offset="1" stop-color="#FFD4D4"/>
</linearGradient>
<linearGradient id="paint38_linear_245_190" x1="17.4559" y1="34.6052" x2="20.725" y2="37.5954" gradientUnits="userSpaceOnUse">
<stop stop-color="#7D2E2E"/>
<stop offset="1" stop-color="#FFD4D4"/>
</linearGradient>
<linearGradient id="paint39_linear_245_190" x1="6.8444" y1="35.8319" x2="6.96012" y2="33.0345" gradientUnits="userSpaceOnUse">
<stop stop-color="#F76363"/>
<stop offset="1" stop-color="#FA8F8F"/>
</linearGradient>
<linearGradient id="paint40_linear_245_190" x1="22.6798" y1="23.456" x2="21.6643" y2="24.4768" gradientUnits="userSpaceOnUse">
<stop stop-color="#851A1A"/>
<stop offset="1" stop-color="#FA8F8F"/>
</linearGradient>
<linearGradient id="paint41_linear_245_190" x1="13.4465" y1="44.1692" x2="15.4731" y2="48.9513" gradientUnits="userSpaceOnUse">
<stop stop-color="#FA6666"/>
<stop offset="1" stop-color="#BF2414"/>
</linearGradient>
<linearGradient id="paint42_linear_245_190" x1="2.74722" y1="32.8136" x2="0.182366" y2="30.9824" gradientUnits="userSpaceOnUse">
<stop stop-color="#FA8787"/>
<stop offset="1" stop-color="#E01F1F"/>
</linearGradient>
<clipPath id="clip0_245_190">
<rect width="50" height="50" fill="white"/>
</clipPath>
</defs>
</svg>
