<svg width="1440" height="490" viewBox="0 0 1440 490" fill="none" xmlns="http://www.w3.org/2000/svg">
<g clip-path="url(#clip0_17_1172)">
<path d="M1363.78 48.5106C1380.38 61.1449 1394.32 76.924 1404.81 94.9469C1415.31 112.97 1422.15 132.884 1424.95 153.551C1427.75 174.219 1426.46 195.236 1421.13 215.402C1415.81 235.568 1406.57 254.488 1393.94 271.083C1381.3 287.677 1365.52 301.62 1347.5 312.116C1329.48 322.612 1309.56 329.456 1288.89 332.256C1268.23 335.056 1247.21 333.758 1227.04 328.436C1206.88 323.113 1187.96 313.871 1171.36 301.237L1222.37 234.247C1230.16 240.183 1239.05 244.526 1248.53 247.026C1258 249.527 1267.88 250.137 1277.59 248.821C1287.3 247.506 1296.66 244.29 1305.13 239.359C1313.59 234.427 1321.01 227.876 1326.95 220.079C1332.88 212.282 1337.22 203.392 1339.72 193.916C1342.23 184.441 1342.84 174.566 1341.52 164.855C1340.2 155.144 1336.99 145.787 1332.06 137.319C1327.13 128.851 1320.57 121.437 1312.78 115.501L1363.78 48.5106Z" fill="#FF4225"/>
<path d="M1632.57 312.411C1599.06 286.895 1556.78 275.737 1515.04 281.392C1473.3 287.047 1435.51 309.052 1410 342.565C1384.48 376.079 1373.32 418.356 1378.98 460.096C1384.63 501.837 1406.64 539.621 1440.15 565.137L1536.36 438.774L1632.57 312.411Z" fill="#FF4225"/>
<path d="M1397.58 56.1194C1419.33 49.7251 1437.65 34.953 1448.51 15.0526C1459.37 -4.8477 1461.87 -28.2461 1455.48 -49.9951C1449.09 -71.7442 1434.31 -90.0623 1414.41 -100.92C1394.51 -111.777 1371.11 -114.285 1349.37 -107.89L1373.47 -25.8855L1397.58 56.1194Z" fill="#313E47"/>
<circle cx="-7.21915" cy="464.633" r="82.6594" transform="rotate(-105.538 -7.21915 464.633)" fill="#313E47"/>
<path d="M118.274 344.955C101.064 349.74 83.0795 351.089 65.3482 348.923C47.6168 346.758 30.4855 341.122 14.9324 332.336C-0.620611 323.55 -14.2909 311.787 -25.2979 297.718C-36.3048 283.649 -44.4329 267.55 -49.218 250.34C-54.0032 233.129 -55.3516 215.145 -53.1865 197.414C-51.0213 179.682 -45.3849 162.551 -36.599 146.998C-27.8132 131.445 -16.0499 117.775 -1.98096 106.768C12.088 95.7608 28.1872 87.6327 45.3975 82.8476L81.8357 213.901L118.274 344.955Z" fill="#FF4225"/>
<path d="M118.274 344.955C101.064 349.74 83.0795 351.089 65.3482 348.923C47.6168 346.758 30.4855 341.122 14.9324 332.336C-0.620611 323.55 -14.2909 311.787 -25.2979 297.718C-36.3048 283.649 -44.4329 267.55 -49.218 250.34C-54.0032 233.129 -55.3516 215.145 -53.1865 197.414C-51.0213 179.682 -45.3849 162.551 -36.599 146.998C-27.8132 131.445 -16.0499 117.775 -1.98096 106.768C12.088 95.7608 28.1872 87.6327 45.3975 82.8476L81.8357 213.901L118.274 344.955Z" fill="#FF4225"/>
<path d="M34.0542 -84.5617C51.2644 -89.3468 69.2486 -90.6953 86.98 -88.5301C104.711 -86.365 121.843 -80.7286 137.396 -71.9427C152.949 -63.1568 166.619 -51.3936 177.626 -37.3246C188.633 -23.2556 196.761 -7.15644 201.546 10.0538C206.331 27.264 207.68 45.2482 205.515 62.9796C203.349 80.7109 197.713 97.8422 188.927 113.395C180.141 128.948 168.378 142.619 154.309 153.626C140.24 164.633 124.141 172.761 106.931 177.546L91.1512 120.793C100.909 118.08 110.036 113.472 118.012 107.232C125.989 100.991 132.658 93.2408 137.639 84.423C142.62 75.6051 145.816 65.8925 147.044 55.8397C148.271 45.7868 147.507 35.5907 144.794 25.8333C142.081 16.0759 137.472 6.94842 131.232 -1.02802C124.992 -9.00446 117.241 -15.6737 108.423 -20.6548C99.6055 -25.636 89.8929 -28.8316 79.8401 -30.0591C69.7872 -31.2867 59.5911 -30.5222 49.8337 -27.8092L34.0542 -84.5617Z" fill="#313E47"/>
<circle cx="90.7724" cy="54.7722" r="12.8091" transform="rotate(-105.538 90.7724 54.7722)" fill="#FF4225"/>
<circle cx="1201.77" cy="260.772" r="12.8091" transform="rotate(-105.538 1201.77 260.772)" fill="#313E47"/>
</g>
<defs>
<clipPath id="clip0_17_1172">
<rect width="1440" height="490" fill="white"/>
</clipPath>
</defs>
</svg>
