<svg width="360" height="676" viewBox="0 0 360 676" fill="none" xmlns="http://www.w3.org/2000/svg">
<path d="M-534.19 1H-586V52.8095M-534.19 1V52.8095M-534.19 1L-482.381 1M-534.19 52.8095H-586M-534.19 52.8095L-482.381 52.8095M-534.19 52.8095V104.619M-586 52.8095L-586 104.619M-482.381 1V52.8095M-482.381 1L-430.571 1M-482.381 52.8095L-430.571 52.8095M-482.381 52.8095V104.619M-430.571 1V52.8095M-430.571 1H-378.762M-430.571 52.8095H-378.762M-430.571 52.8095V104.619M-378.762 1V52.8095M-378.762 1H-326.952M-378.762 52.8095H-326.952M-378.762 52.8095V104.619M-326.952 1V52.8095M-326.952 1H-275.143M-326.952 52.8095H-275.143M-326.952 52.8095L-326.952 104.619M-275.143 1V52.8095M-275.143 1L-223.333 1M-275.143 52.8095L-223.333 52.8095M-275.143 52.8095L-275.143 104.619M-223.333 1V52.8095M-223.333 1H-171.524M-223.333 52.8095H-171.524M-223.333 52.8095V104.619M-171.524 1V52.8095M-171.524 1H-119.714M-171.524 52.8095H-119.714M-171.524 52.8095V104.619M-119.714 1V52.8095M-119.714 1L-67.9048 1M-119.714 52.8095L-67.9048 52.8095M-119.714 52.8095V104.619M-67.9048 1V52.8095M-67.9048 1H-16.0953M-67.9048 52.8095H-16.0953M-67.9048 52.8095V104.619M-16.0953 1V52.8095M-16.0953 1H35.7142M-16.0953 52.8095H35.7142M-16.0953 52.8095V104.619M35.7142 1V52.8095M35.7142 1H87.5237M35.7142 52.8095H87.5237M35.7142 52.8095V104.619M87.5237 1V52.8095M87.5237 1H139.333M87.5237 52.8095H139.333M87.5237 52.8095V104.619M139.333 1V52.8095M139.333 1L191.143 1M139.333 52.8095L191.143 52.8095M139.333 52.8095V104.619M191.143 1V52.8095M191.143 1H242.952M191.143 52.8095H242.952M191.143 52.8095V104.619M242.952 1V52.8095M242.952 1L294.762 1M242.952 52.8095L294.762 52.8095M242.952 52.8095V104.619M294.762 1V52.8095M294.762 1H346.571M294.762 52.8095H346.571M294.762 52.8095V104.619M346.571 1V52.8095M346.571 1H398.381M346.571 52.8095H398.381M346.571 52.8095V104.619M398.381 1V52.8095M398.381 1H450.19M398.381 52.8095H450.19M398.381 52.8095V104.619M450.19 1V52.8095M450.19 1L502 1V52.8095M450.19 52.8095L502 52.8095M450.19 52.8095V104.619M502 52.8095V104.619M-534.19 104.619H-586M-534.19 104.619L-482.381 104.619M-534.19 104.619V156.429M-586 104.619V156.429M-482.381 104.619L-430.571 104.619M-482.381 104.619V156.429M-430.571 104.619H-378.762M-430.571 104.619V156.429M-378.762 104.619H-326.952M-378.762 104.619V156.429M-326.952 104.619H-275.143M-326.952 104.619V156.429M-275.143 104.619L-223.333 104.619M-275.143 104.619V156.429M-223.333 104.619H-171.524M-223.333 104.619V156.429M-171.524 104.619H-119.714M-171.524 104.619V156.429M-119.714 104.619L-67.9048 104.619M-119.714 104.619V156.429M-67.9048 104.619H-16.0953M-67.9048 104.619V156.429M-16.0953 104.619H35.7142M-16.0953 104.619V156.429M35.7142 104.619H87.5237M35.7142 104.619V156.429M87.5237 104.619H139.333M87.5237 104.619V156.429M139.333 104.619L191.143 104.619M139.333 104.619V156.429M191.143 104.619H242.952M191.143 104.619V156.429M242.952 104.619L294.762 104.619M242.952 104.619V156.429M294.762 104.619H346.571M294.762 104.619V156.429M346.571 104.619H398.381M346.571 104.619V156.429M398.381 104.619H450.19M398.381 104.619V156.429M450.19 104.619L502 104.619M450.19 104.619V156.429M502 104.619V156.429M-534.19 156.429H-586M-534.19 156.429L-482.381 156.429M-534.19 156.429V208.238M-586 156.429V208.238M-482.381 156.429L-430.571 156.429M-482.381 156.429V208.238M-430.571 156.429H-378.762M-430.571 156.429V208.238M-378.762 156.429H-326.952M-378.762 156.429V208.238M-326.952 156.429H-275.143M-326.952 156.429V208.238M-275.143 156.429L-223.333 156.429M-275.143 156.429V208.238M-223.333 156.429H-171.524M-223.333 156.429V208.238M-171.524 156.429H-119.714M-171.524 156.429V208.238M-119.714 156.429L-67.9048 156.429M-119.714 156.429V208.238M-67.9048 156.429H-16.0953M-67.9048 156.429V208.238M-16.0953 156.429H35.7142M-16.0953 156.429V208.238M35.7142 156.429H87.5237M35.7142 156.429V208.238M87.5237 156.429H139.333M87.5237 156.429V208.238M139.333 156.429L191.143 156.429M139.333 156.429V208.238M191.143 156.429H242.952M191.143 156.429V208.238M242.952 156.429L294.762 156.429M242.952 156.429V208.238M294.762 156.429H346.571M294.762 156.429V208.238M346.571 156.429H398.381M346.571 156.429V208.238M398.381 156.429H450.19M398.381 156.429V208.238M450.19 156.429L502 156.429M450.19 156.429V208.238M502 156.429V208.238M-534.19 208.238H-586M-534.19 208.238L-482.381 208.238M-534.19 208.238V260.048M-586 208.238V260.048M-482.381 208.238L-430.571 208.238M-482.381 208.238V260.048M-430.571 208.238H-378.762M-430.571 208.238V260.048M-378.762 208.238H-326.952M-378.762 208.238V260.048M-326.952 208.238H-275.143M-326.952 208.238V260.048M-275.143 208.238L-223.333 208.238M-275.143 208.238V260.048M-223.333 208.238H-171.524M-223.333 208.238V260.048M-171.524 208.238H-119.714M-171.524 208.238V260.048M-119.714 208.238L-67.9048 208.238M-119.714 208.238V260.048M-67.9048 208.238H-16.0953M-67.9048 208.238V260.048M-16.0953 208.238H35.7142M-16.0953 208.238V260.048M35.7142 208.238H87.5237M35.7142 208.238V260.048M87.5237 208.238H139.333M87.5237 208.238V260.048M139.333 208.238L191.143 208.238M139.333 208.238V260.048M191.143 208.238H242.952M191.143 208.238V260.048M242.952 208.238L294.762 208.238M242.952 208.238V260.048M294.762 208.238H346.571M294.762 208.238V260.048M346.571 208.238H398.381M346.571 208.238V260.048M398.381 208.238H450.19M398.381 208.238V260.048M450.19 208.238L502 208.238M450.19 208.238V260.048M502 208.238V260.048M-534.19 260.048H-586M-534.19 260.048L-482.381 260.048M-534.19 260.048V311.857M-586 260.048V311.857M-482.381 260.048L-430.571 260.048M-482.381 260.048V311.857M-430.571 260.048H-378.762M-430.571 260.048V311.857M-378.762 260.048H-326.952M-378.762 260.048V311.857M-326.952 260.048H-275.143M-326.952 260.048V311.857M-275.143 260.048L-223.333 260.048M-275.143 260.048V311.857M-223.333 260.048H-171.524M-223.333 260.048V311.857M-171.524 260.048H-119.714M-171.524 260.048V311.857M-119.714 260.048L-67.9048 260.048M-119.714 260.048V311.857M-67.9048 260.048H-16.0953M-67.9048 260.048V311.857M-16.0953 260.048H35.7142M-16.0953 260.048V311.857M35.7142 260.048H87.5237M35.7142 260.048V311.857M87.5237 260.048H139.333M87.5237 260.048V311.857M139.333 260.048L191.143 260.048M139.333 260.048V311.857M191.143 260.048H242.952M191.143 260.048V311.857M242.952 260.048L294.762 260.048M242.952 260.048V311.857M294.762 260.048H346.571M294.762 260.048V311.857M346.571 260.048H398.381M346.571 260.048V311.857M398.381 260.048H450.19M398.381 260.048V311.857M450.19 260.048L502 260.048M450.19 260.048V311.857M502 260.048V311.857M-534.19 311.857H-586M-534.19 311.857H-482.381M-534.19 311.857V363.667M-586 311.857V363.667M-482.381 311.857H-430.571M-482.381 311.857V363.667M-430.571 311.857H-378.762M-430.571 311.857V363.667M-378.762 311.857H-326.952M-378.762 311.857V363.667M-326.952 311.857H-275.143M-326.952 311.857V363.667M-275.143 311.857H-223.333M-275.143 311.857V363.667M-223.333 311.857H-171.524M-223.333 311.857V363.667M-171.524 311.857H-119.714M-171.524 311.857V363.667M-119.714 311.857H-67.9048M-119.714 311.857V363.667M-67.9048 311.857H-16.0953M-67.9048 311.857V363.667M-16.0953 311.857H35.7142M-16.0953 311.857V363.667M35.7142 311.857H87.5237M35.7142 311.857V363.667M87.5237 311.857H139.333M87.5237 311.857V363.667M139.333 311.857H191.143M139.333 311.857V363.667M191.143 311.857H242.952M191.143 311.857V363.667M242.952 311.857H294.762M242.952 311.857V363.667M294.762 311.857H346.571M294.762 311.857V363.667M346.571 311.857H398.381M346.571 311.857V363.667M398.381 311.857H450.19M398.381 311.857V363.667M450.19 311.857H502M450.19 311.857V363.667M502 311.857V363.667M-534.19 363.667H-586M-534.19 363.667L-482.381 363.667M-534.19 363.667V415.476M-586 363.667V415.476M-482.381 363.667L-430.571 363.667M-482.381 363.667V415.476M-430.571 363.667H-378.762M-430.571 363.667V415.476M-378.762 363.667H-326.952M-378.762 363.667V415.476M-326.952 363.667H-275.143M-326.952 363.667V415.476M-275.143 363.667L-223.333 363.667M-275.143 363.667V415.476M-223.333 363.667H-171.524M-223.333 363.667V415.476M-171.524 363.667H-119.714M-171.524 363.667V415.476M-119.714 363.667L-67.9048 363.667M-119.714 363.667V415.476M-67.9048 363.667H-16.0953M-67.9048 363.667V415.476M-16.0953 363.667H35.7142M-16.0953 363.667V415.476M35.7142 363.667H87.5237M35.7142 363.667V415.476M87.5237 363.667H139.333M87.5237 363.667V415.476M139.333 363.667L191.143 363.667M139.333 363.667V415.476M191.143 363.667H242.952M191.143 363.667V415.476M242.952 363.667L294.762 363.667M242.952 363.667V415.476M294.762 363.667H346.571M294.762 363.667V415.476M346.571 363.667H398.381M346.571 363.667V415.476M398.381 363.667H450.19M398.381 363.667V415.476M450.19 363.667L502 363.667M450.19 363.667V415.476M502 363.667V415.476M-534.19 415.476H-586M-534.19 415.476H-482.381M-534.19 415.476V467.286M-586 415.476V467.286M-482.381 415.476H-430.571M-482.381 415.476V467.286M-430.571 415.476H-378.762M-430.571 415.476V467.286M-378.762 415.476H-326.952M-378.762 415.476V467.286M-326.952 415.476H-275.143M-326.952 415.476V467.286M-275.143 415.476H-223.333M-275.143 415.476V467.286M-223.333 415.476H-171.524M-223.333 415.476V467.286M-171.524 415.476H-119.714M-171.524 415.476V467.286M-119.714 415.476H-67.9048M-119.714 415.476V467.286M-67.9048 415.476H-16.0953M-67.9048 415.476V467.286M-16.0953 415.476H35.7142M-16.0953 415.476V467.286M35.7142 415.476H87.5237M35.7142 415.476V467.286M87.5237 415.476H139.333M87.5237 415.476V467.286M139.333 415.476H191.143M139.333 415.476V467.286M191.143 415.476H242.952M191.143 415.476V467.286M242.952 415.476H294.762M242.952 415.476V467.286M294.762 415.476H346.571M294.762 415.476V467.286M346.571 415.476H398.381M346.571 415.476V467.286M398.381 415.476H450.19M398.381 415.476V467.286M450.19 415.476H502M450.19 415.476V467.286M502 415.476V467.286M-534.19 467.286H-586M-534.19 467.286H-482.381M-534.19 467.286V519.095M-586 467.286V519.095M-482.381 467.286H-430.571M-482.381 467.286V519.095M-430.571 467.286H-378.762M-430.571 467.286V519.095M-378.762 467.286H-326.952M-378.762 467.286V519.095M-326.952 467.286H-275.143M-326.952 467.286V519.095M-275.143 467.286H-223.333M-275.143 467.286V519.095M-223.333 467.286H-171.524M-223.333 467.286V519.095M-171.524 467.286H-119.714M-171.524 467.286V519.095M-119.714 467.286H-67.9048M-119.714 467.286V519.095M-67.9048 467.286H-16.0953M-67.9048 467.286V519.095M-16.0953 467.286H35.7142M-16.0953 467.286V519.095M35.7142 467.286H87.5237M35.7142 467.286V519.095M87.5237 467.286H139.333M87.5237 467.286V519.095M139.333 467.286H191.143M139.333 467.286V519.095M191.143 467.286H242.952M191.143 467.286V519.095M242.952 467.286H294.762M242.952 467.286V519.095M294.762 467.286H346.571M294.762 467.286V519.095M346.571 467.286H398.381M346.571 467.286V519.095M398.381 467.286H450.19M398.381 467.286V519.095M450.19 467.286H502M450.19 467.286V519.095M502 467.286V519.095M-534.19 519.095H-586M-534.19 519.095L-482.381 519.095M-534.19 519.095V570.905M-586 519.095V570.905M-482.381 519.095L-430.571 519.095M-482.381 519.095V570.905M-430.571 519.095H-378.762M-430.571 519.095V570.905M-378.762 519.095H-326.952M-378.762 519.095V570.905M-326.952 519.095H-275.143M-326.952 519.095V570.905M-275.143 519.095L-223.333 519.095M-275.143 519.095V570.905M-223.333 519.095H-171.524M-223.333 519.095V570.905M-171.524 519.095H-119.714M-171.524 519.095V570.905M-119.714 519.095L-67.9048 519.095M-119.714 519.095V570.905M-67.9048 519.095H-16.0953M-67.9048 519.095V570.905M-16.0953 519.095H35.7142M-16.0953 519.095V570.905M35.7142 519.095H87.5237M35.7142 519.095V570.905M87.5237 519.095H139.333M87.5237 519.095V570.905M139.333 519.095L191.143 519.095M139.333 519.095V570.905M191.143 519.095H242.952M191.143 519.095V570.905M242.952 519.095L294.762 519.095M242.952 519.095V570.905M294.762 519.095H346.571M294.762 519.095V570.905M346.571 519.095H398.381M346.571 519.095V570.905M398.381 519.095H450.19M398.381 519.095V570.905M450.19 519.095L502 519.095M450.19 519.095V570.905M502 519.095V570.905M-534.19 570.905H-586M-534.19 570.905L-482.381 570.905M-534.19 570.905V622.714M-586 570.905V622.714M-482.381 570.905L-430.571 570.905M-482.381 570.905V622.714M-430.571 570.905H-378.762M-430.571 570.905V622.714M-378.762 570.905H-326.952M-378.762 570.905V622.714M-326.952 570.905H-275.143M-326.952 570.905V622.714M-275.143 570.905L-223.333 570.905M-275.143 570.905V622.714M-223.333 570.905H-171.524M-223.333 570.905V622.714M-171.524 570.905H-119.714M-171.524 570.905V622.714M-119.714 570.905L-67.9048 570.905M-119.714 570.905V622.714M-67.9048 570.905H-16.0953M-67.9048 570.905V622.714M-16.0953 570.905H35.7142M-16.0953 570.905V622.714M35.7142 570.905H87.5237M35.7142 570.905V622.714M87.5237 570.905H139.333M87.5237 570.905V622.714M139.333 570.905L191.143 570.905M139.333 570.905V622.714M191.143 570.905H242.952M191.143 570.905V622.714M242.952 570.905L294.762 570.905M242.952 570.905V622.714M294.762 570.905H346.571M294.762 570.905V622.714M346.571 570.905H398.381M346.571 570.905V622.714M398.381 570.905H450.19M398.381 570.905V622.714M450.19 570.905L502 570.905M450.19 570.905V622.714M502 570.905V622.714M-534.19 622.714H-586M-534.19 622.714L-482.381 622.714M-534.19 622.714V674.524M-586 622.714V674.524H-534.19M-482.381 622.714L-430.571 622.714M-482.381 622.714V674.524M-430.571 622.714H-378.762M-430.571 622.714V674.524M-378.762 622.714H-326.952M-378.762 622.714V674.524M-326.952 622.714H-275.143M-326.952 622.714V674.524M-275.143 622.714L-223.333 622.714M-275.143 622.714V674.524M-223.333 622.714H-171.524M-223.333 622.714V674.524M-171.524 622.714H-119.714M-171.524 622.714V674.524M-119.714 622.714L-67.9048 622.714M-119.714 622.714V674.524M-67.9048 622.714H-16.0953M-67.9048 622.714V674.524M-16.0953 622.714H35.7142M-16.0953 622.714V674.524M35.7142 622.714H87.5237M35.7142 622.714V674.524M87.5237 622.714H139.333M87.5237 622.714V674.524M139.333 622.714L191.143 622.714M139.333 622.714V674.524M191.143 622.714H242.952M191.143 622.714V674.524M242.952 622.714L294.762 622.714M242.952 622.714V674.524M294.762 622.714H346.571M294.762 622.714V674.524M346.571 622.714H398.381M346.571 622.714V674.524M398.381 622.714H450.19M398.381 622.714V674.524M450.19 622.714L502 622.714M450.19 622.714V674.524M502 622.714V674.524H450.19M-534.19 674.524H-482.381M-482.381 674.524H-430.571M-430.571 674.524H-378.762M-378.762 674.524H-326.952M-326.952 674.524H-275.143M-275.143 674.524H-223.333M-223.333 674.524H-171.524M-171.524 674.524H-119.714M-119.714 674.524H-67.9048M-67.9048 674.524H-16.0953M-16.0953 674.524H35.7142M35.7142 674.524H87.5237M87.5237 674.524H139.333M139.333 674.524H191.143M191.143 674.524H242.952M242.952 674.524H294.762M294.762 674.524H346.571M346.571 674.524H398.381M398.381 674.524H450.19" stroke="url(#paint0_linear_228_401)" stroke-opacity="0.16" stroke-width="1.03619"/>
<defs>
<linearGradient id="paint0_linear_228_401" x1="305.5" y1="276" x2="-361.5" y2="267.5" gradientUnits="userSpaceOnUse">
<stop stop-color="white"/>
<stop offset="1" stop-color="white" stop-opacity="0"/>
</linearGradient>
</defs>
</svg>
