<svg width="1036" height="358" viewBox="0 0 1036 358" fill="none" xmlns="http://www.w3.org/2000/svg">
<path d="M52.8095 -110H1V-58.1905M52.8095 -110V-58.1905M52.8095 -110L104.619 -110M52.8095 -58.1905H1M52.8095 -58.1905L104.619 -58.1905M52.8095 -58.1905V-6.3808M1 -58.1905L1 -6.3808M104.619 -110V-58.1905M104.619 -110L156.429 -110M104.619 -58.1905L156.429 -58.1905M104.619 -58.1905V-6.38079M156.429 -110V-58.1905M156.429 -110H208.238M156.429 -58.1905H208.238M156.429 -58.1905V-6.3808M208.238 -110V-58.1905M208.238 -110H260.048M208.238 -58.1905H260.048M208.238 -58.1905V-6.3808M260.048 -110V-58.1905M260.048 -110H311.857M260.048 -58.1905H311.857M260.048 -58.1905L260.048 -6.3808M311.857 -110V-58.1905M311.857 -110L363.667 -110M311.857 -58.1905L363.667 -58.1905M311.857 -58.1905L311.857 -6.3808M363.667 -110V-58.1905M363.667 -110H415.476M363.667 -58.1905H415.476M363.667 -58.1905V-6.38079M415.476 -110V-58.1905M415.476 -110H467.286M415.476 -58.1905H467.286M415.476 -58.1905V-6.38079M467.286 -110V-58.1905M467.286 -110L519.095 -110M467.286 -58.1905L519.095 -58.1905M467.286 -58.1905V-6.38079M519.095 -110V-58.1905M519.095 -110H570.905M519.095 -58.1905H570.905M519.095 -58.1905V-6.3808M570.905 -110V-58.1905M570.905 -110H622.714M570.905 -58.1905H622.714M570.905 -58.1905V-6.3808M622.714 -110V-58.1905M622.714 -110H674.524M622.714 -58.1905H674.524M622.714 -58.1905V-6.3808M674.524 -110V-58.1905M674.524 -110H726.333M674.524 -58.1905H726.333M674.524 -58.1905V-6.3808M726.333 -110V-58.1905M726.333 -110L778.143 -110M726.333 -58.1905L778.143 -58.1905M726.333 -58.1905V-6.3808M778.143 -110V-58.1905M778.143 -110H829.952M778.143 -58.1905H829.952M778.143 -58.1905V-6.38079M829.952 -110V-58.1905M829.952 -110L881.762 -110M829.952 -58.1905L881.762 -58.1905M829.952 -58.1905V-6.38079M881.762 -110V-58.1905M881.762 -110H933.571M881.762 -58.1905H933.571M881.762 -58.1905V-6.3808M933.571 -110V-58.1905M933.571 -110H985.381M933.571 -58.1905H985.381M933.571 -58.1905V-6.3808M985.381 -110V-58.1905M985.381 -110H1037.19M985.381 -58.1905H1037.19M985.381 -58.1905V-6.3808M1037.19 -110V-58.1905M1037.19 -110L1089 -110V-58.1905M1037.19 -58.1905L1089 -58.1905M1037.19 -58.1905V-6.3808M1089 -58.1905V-6.38079M52.8095 -6.3808H1M52.8095 -6.3808L104.619 -6.38079M52.8095 -6.3808V45.4288M1 -6.3808V45.4288M104.619 -6.38079L156.429 -6.3808M104.619 -6.38079V45.4288M156.429 -6.3808H208.238M156.429 -6.3808V45.4288M208.238 -6.3808H260.048M208.238 -6.3808V45.4288M260.048 -6.3808H311.857M260.048 -6.3808V45.4288M311.857 -6.3808L363.667 -6.38079M311.857 -6.3808V45.4288M363.667 -6.38079H415.476M363.667 -6.38079V45.4288M415.476 -6.38079H467.286M415.476 -6.38079V45.4288M467.286 -6.38079L519.095 -6.3808M467.286 -6.38079V45.4288M519.095 -6.3808H570.905M519.095 -6.3808V45.4288M570.905 -6.3808H622.714M570.905 -6.3808V45.4288M622.714 -6.3808H674.524M622.714 -6.3808V45.4288M674.524 -6.3808H726.333M674.524 -6.3808V45.4288M726.333 -6.3808L778.143 -6.38079M726.333 -6.3808V45.4288M778.143 -6.38079H829.952M778.143 -6.38079V45.4288M829.952 -6.38079L881.762 -6.3808M829.952 -6.38079V45.4288M881.762 -6.3808H933.571M881.762 -6.3808V45.4288M933.571 -6.3808H985.381M933.571 -6.3808V45.4288M985.381 -6.3808H1037.19M985.381 -6.3808V45.4288M1037.19 -6.3808L1089 -6.38079M1037.19 -6.3808V45.4288M1089 -6.38079V45.4288M52.8095 45.4288H1M52.8095 45.4288L104.619 45.4288M52.8095 45.4288V97.2379M1 45.4288V97.2379M104.619 45.4288L156.429 45.4288M104.619 45.4288V97.2379M156.429 45.4288H208.238M156.429 45.4288V97.2379M208.238 45.4288H260.048M208.238 45.4288V97.2379M260.048 45.4288H311.857M260.048 45.4288V97.2379M311.857 45.4288L363.667 45.4288M311.857 45.4288V97.2379M363.667 45.4288H415.476M363.667 45.4288V97.2379M415.476 45.4288H467.286M415.476 45.4288V97.2379M467.286 45.4288L519.095 45.4288M467.286 45.4288V97.2379M519.095 45.4288H570.905M519.095 45.4288V97.2379M570.905 45.4288H622.714M570.905 45.4288V97.2379M622.714 45.4288H674.524M622.714 45.4288V97.2379M674.524 45.4288H726.333M674.524 45.4288V97.2379M726.333 45.4288L778.143 45.4288M726.333 45.4288V97.2379M778.143 45.4288H829.952M778.143 45.4288V97.2379M829.952 45.4288L881.762 45.4288M829.952 45.4288V97.2379M881.762 45.4288H933.571M881.762 45.4288V97.2379M933.571 45.4288H985.381M933.571 45.4288V97.2379M985.381 45.4288H1037.19M985.381 45.4288V97.2379M1037.19 45.4288L1089 45.4288M1037.19 45.4288V97.2379M1089 45.4288V97.2379M52.8095 97.2379H1M52.8095 97.2379L104.619 97.2379M52.8095 97.2379V149.048M1 97.2379V149.048M104.619 97.2379L156.429 97.2379M104.619 97.2379V149.048M156.429 97.2379H208.238M156.429 97.2379V149.048M208.238 97.2379H260.048M208.238 97.2379V149.048M260.048 97.2379H311.857M260.048 97.2379V149.048M311.857 97.2379L363.667 97.2379M311.857 97.2379V149.048M363.667 97.2379H415.476M363.667 97.2379V149.048M415.476 97.2379H467.286M415.476 97.2379V149.048M467.286 97.2379L519.095 97.2379M467.286 97.2379V149.048M519.095 97.2379H570.905M519.095 97.2379V149.048M570.905 97.2379H622.714M570.905 97.2379V149.048M622.714 97.2379H674.524M622.714 97.2379V149.048M674.524 97.2379H726.333M674.524 97.2379V149.048M726.333 97.2379L778.143 97.2379M726.333 97.2379V149.048M778.143 97.2379H829.952M778.143 97.2379V149.048M829.952 97.2379L881.762 97.2379M829.952 97.2379V149.048M881.762 97.2379H933.571M881.762 97.2379V149.048M933.571 97.2379H985.381M933.571 97.2379V149.048M985.381 97.2379H1037.19M985.381 97.2379V149.048M1037.19 97.2379L1089 97.2379M1037.19 97.2379V149.048M1089 97.2379V149.048M52.8095 149.048H1M52.8095 149.048L104.619 149.048M52.8095 149.048V200.857M1 149.048V200.857M104.619 149.048L156.429 149.048M104.619 149.048V200.857M156.429 149.048H208.238M156.429 149.048V200.857M208.238 149.048H260.048M208.238 149.048V200.857M260.048 149.048H311.857M260.048 149.048V200.857M311.857 149.048L363.667 149.048M311.857 149.048V200.857M363.667 149.048H415.476M363.667 149.048V200.857M415.476 149.048H467.286M415.476 149.048V200.857M467.286 149.048L519.095 149.048M467.286 149.048V200.857M519.095 149.048H570.905M519.095 149.048V200.857M570.905 149.048H622.714M570.905 149.048V200.857M622.714 149.048H674.524M622.714 149.048V200.857M674.524 149.048H726.333M674.524 149.048V200.857M726.333 149.048L778.143 149.048M726.333 149.048V200.857M778.143 149.048H829.952M778.143 149.048V200.857M829.952 149.048L881.762 149.048M829.952 149.048V200.857M881.762 149.048H933.571M881.762 149.048V200.857M933.571 149.048H985.381M933.571 149.048V200.857M985.381 149.048H1037.19M985.381 149.048V200.857M1037.19 149.048L1089 149.048M1037.19 149.048V200.857M1089 149.048V200.857M52.8095 200.857H1M52.8095 200.857H104.619M52.8095 200.857V252.667M1 200.857V252.667M104.619 200.857H156.429M104.619 200.857V252.667M156.429 200.857H208.238M156.429 200.857V252.667M208.238 200.857H260.048M208.238 200.857V252.667M260.048 200.857H311.857M260.048 200.857V252.667M311.857 200.857H363.667M311.857 200.857V252.667M363.667 200.857H415.476M363.667 200.857V252.667M415.476 200.857H467.286M415.476 200.857V252.667M467.286 200.857H519.095M467.286 200.857V252.667M519.095 200.857H570.905M519.095 200.857V252.667M570.905 200.857H622.714M570.905 200.857V252.667M622.714 200.857H674.524M622.714 200.857V252.667M674.524 200.857H726.333M674.524 200.857V252.667M726.333 200.857H778.143M726.333 200.857V252.667M778.143 200.857H829.952M778.143 200.857V252.667M829.952 200.857H881.762M829.952 200.857V252.667M881.762 200.857H933.571M881.762 200.857V252.667M933.571 200.857H985.381M933.571 200.857V252.667M985.381 200.857H1037.19M985.381 200.857V252.667M1037.19 200.857H1089M1037.19 200.857V252.667M1089 200.857V252.667M52.8095 252.667H1M52.8095 252.667L104.619 252.667M52.8095 252.667V304.476M1 252.667V304.476M104.619 252.667L156.429 252.667M104.619 252.667V304.476M156.429 252.667H208.238M156.429 252.667V304.476M208.238 252.667H260.048M208.238 252.667V304.476M260.048 252.667H311.857M260.048 252.667V304.476M311.857 252.667L363.667 252.667M311.857 252.667V304.476M363.667 252.667H415.476M363.667 252.667V304.476M415.476 252.667H467.286M415.476 252.667V304.476M467.286 252.667L519.095 252.667M467.286 252.667V304.476M519.095 252.667H570.905M519.095 252.667V304.476M570.905 252.667H622.714M570.905 252.667V304.476M622.714 252.667H674.524M622.714 252.667V304.476M674.524 252.667H726.333M674.524 252.667V304.476M726.333 252.667L778.143 252.667M726.333 252.667V304.476M778.143 252.667H829.952M778.143 252.667V304.476M829.952 252.667L881.762 252.667M829.952 252.667V304.476M881.762 252.667H933.571M881.762 252.667V304.476M933.571 252.667H985.381M933.571 252.667V304.476M985.381 252.667H1037.19M985.381 252.667V304.476M1037.19 252.667L1089 252.667M1037.19 252.667V304.476M1089 252.667V304.476M52.8095 304.476H1M52.8095 304.476H104.619M52.8095 304.476V356.286M1 304.476V356.286M104.619 304.476H156.429M104.619 304.476V356.286M156.429 304.476H208.238M156.429 304.476V356.286M208.238 304.476H260.048M208.238 304.476V356.286M260.048 304.476H311.857M260.048 304.476V356.286M311.857 304.476H363.667M311.857 304.476V356.286M363.667 304.476H415.476M363.667 304.476V356.286M415.476 304.476H467.286M415.476 304.476V356.286M467.286 304.476H519.095M467.286 304.476V356.286M519.095 304.476H570.905M519.095 304.476V356.286M570.905 304.476H622.714M570.905 304.476V356.286M622.714 304.476H674.524M622.714 304.476V356.286M674.524 304.476H726.333M674.524 304.476V356.286M726.333 304.476H778.143M726.333 304.476V356.286M778.143 304.476H829.952M778.143 304.476V356.286M829.952 304.476H881.762M829.952 304.476V356.286M881.762 304.476H933.571M881.762 304.476V356.286M933.571 304.476H985.381M933.571 304.476V356.286M985.381 304.476H1037.19M985.381 304.476V356.286M1037.19 304.476H1089M1037.19 304.476V356.286M1089 304.476V356.286M52.8095 356.286H1M52.8095 356.286H104.619M52.8095 356.286V408.095M1 356.286V408.095M104.619 356.286H156.429M104.619 356.286V408.095M156.429 356.286H208.238M156.429 356.286V408.095M208.238 356.286H260.048M208.238 356.286V408.095M260.048 356.286H311.857M260.048 356.286V408.095M311.857 356.286H363.667M311.857 356.286V408.095M363.667 356.286H415.476M363.667 356.286V408.095M415.476 356.286H467.286M415.476 356.286V408.095M467.286 356.286H519.095M467.286 356.286V408.095M519.095 356.286H570.905M519.095 356.286V408.095M570.905 356.286H622.714M570.905 356.286V408.095M622.714 356.286H674.524M622.714 356.286V408.095M674.524 356.286H726.333M674.524 356.286V408.095M726.333 356.286H778.143M726.333 356.286V408.095M778.143 356.286H829.952M778.143 356.286V408.095M829.952 356.286H881.762M829.952 356.286V408.095M881.762 356.286H933.571M881.762 356.286V408.095M933.571 356.286H985.381M933.571 356.286V408.095M985.381 356.286H1037.19M985.381 356.286V408.095M1037.19 356.286H1089M1037.19 356.286V408.095M1089 356.286V408.095M52.8095 408.095H1M52.8095 408.095L104.619 408.095M52.8095 408.095V459.905M1 408.095V459.905M104.619 408.095L156.429 408.095M104.619 408.095V459.905M156.429 408.095H208.238M156.429 408.095V459.905M208.238 408.095H260.048M208.238 408.095V459.905M260.048 408.095H311.857M260.048 408.095V459.905M311.857 408.095L363.667 408.095M311.857 408.095V459.905M363.667 408.095H415.476M363.667 408.095V459.905M415.476 408.095H467.286M415.476 408.095V459.905M467.286 408.095L519.095 408.095M467.286 408.095V459.905M519.095 408.095H570.905M519.095 408.095V459.905M570.905 408.095H622.714M570.905 408.095V459.905M622.714 408.095H674.524M622.714 408.095V459.905M674.524 408.095H726.333M674.524 408.095V459.905M726.333 408.095L778.143 408.095M726.333 408.095V459.905M778.143 408.095H829.952M778.143 408.095V459.905M829.952 408.095L881.762 408.095M829.952 408.095V459.905M881.762 408.095H933.571M881.762 408.095V459.905M933.571 408.095H985.381M933.571 408.095V459.905M985.381 408.095H1037.19M985.381 408.095V459.905M1037.19 408.095L1089 408.095M1037.19 408.095V459.905M1089 408.095V459.905M52.8095 459.905H1M52.8095 459.905L104.619 459.905M52.8095 459.905V511.714M1 459.905V511.714M104.619 459.905L156.429 459.905M104.619 459.905V511.714M156.429 459.905H208.238M156.429 459.905V511.714M208.238 459.905H260.048M208.238 459.905V511.714M260.048 459.905H311.857M260.048 459.905V511.714M311.857 459.905L363.667 459.905M311.857 459.905V511.714M363.667 459.905H415.476M363.667 459.905V511.714M415.476 459.905H467.286M415.476 459.905V511.714M467.286 459.905L519.095 459.905M467.286 459.905V511.714M519.095 459.905H570.905M519.095 459.905V511.714M570.905 459.905H622.714M570.905 459.905V511.714M622.714 459.905H674.524M622.714 459.905V511.714M674.524 459.905H726.333M674.524 459.905V511.714M726.333 459.905L778.143 459.905M726.333 459.905V511.714M778.143 459.905H829.952M778.143 459.905V511.714M829.952 459.905L881.762 459.905M829.952 459.905V511.714M881.762 459.905H933.571M881.762 459.905V511.714M933.571 459.905H985.381M933.571 459.905V511.714M985.381 459.905H1037.19M985.381 459.905V511.714M1037.19 459.905L1089 459.905M1037.19 459.905V511.714M1089 459.905V511.714M52.8095 511.714H1M52.8095 511.714L104.619 511.714M52.8095 511.714V563.524M1 511.714V563.524H52.8095M104.619 511.714L156.429 511.714M104.619 511.714V563.524M156.429 511.714H208.238M156.429 511.714V563.524M208.238 511.714H260.048M208.238 511.714V563.524M260.048 511.714H311.857M260.048 511.714V563.524M311.857 511.714L363.667 511.714M311.857 511.714V563.524M363.667 511.714H415.476M363.667 511.714V563.524M415.476 511.714H467.286M415.476 511.714V563.524M467.286 511.714L519.095 511.714M467.286 511.714V563.524M519.095 511.714H570.905M519.095 511.714V563.524M570.905 511.714H622.714M570.905 511.714V563.524M622.714 511.714H674.524M622.714 511.714V563.524M674.524 511.714H726.333M674.524 511.714V563.524M726.333 511.714L778.143 511.714M726.333 511.714V563.524M778.143 511.714H829.952M778.143 511.714V563.524M829.952 511.714L881.762 511.714M829.952 511.714V563.524M881.762 511.714H933.571M881.762 511.714V563.524M933.571 511.714H985.381M933.571 511.714V563.524M985.381 511.714H1037.19M985.381 511.714V563.524M1037.19 511.714L1089 511.714M1037.19 511.714V563.524M1089 511.714V563.524H1037.19M52.8095 563.524H104.619M104.619 563.524H156.429M156.429 563.524H208.238M208.238 563.524H260.048M260.048 563.524H311.857M311.857 563.524H363.667M363.667 563.524H415.476M415.476 563.524H467.286M467.286 563.524H519.095M519.095 563.524H570.905M570.905 563.524H622.714M622.714 563.524H674.524M674.524 563.524H726.333M726.333 563.524H778.143M778.143 563.524H829.952M829.952 563.524H881.762M881.762 563.524H933.571M933.571 563.524H985.381M985.381 563.524H1037.19" stroke="url(#paint0_linear_203_1442)" stroke-opacity="0.16" stroke-width="1.03619"/>
<defs>
<linearGradient id="paint0_linear_203_1442" x1="892.5" y1="165" x2="225.5" y2="156.5" gradientUnits="userSpaceOnUse">
<stop stop-color="white"/>
<stop offset="1" stop-color="white" stop-opacity="0"/>
</linearGradient>
</defs>
</svg>
