<svg width="46" height="46" viewBox="0 0 46 46" fill="none" xmlns="http://www.w3.org/2000/svg">
<rect width="46" height="46" rx="6" fill="#B5B5B5"/>
<path fill-rule="evenodd" clip-rule="evenodd" d="M10.4427 32.4535C9.85325 33.0356 9.85324 33.9793 10.4427 34.5614L11.1268 35.237C11.7163 35.8191 12.672 35.8191 13.2615 35.237L22.8354 25.7828L32.7373 35.5609C33.3268 36.143 34.2825 36.143 34.8719 35.5609L35.5561 34.8854C36.1455 34.3033 36.1455 33.3595 35.5561 32.7774L25.6541 22.9993L35.556 13.2213C36.1455 12.6392 36.1455 11.6954 35.556 11.1134L34.8719 10.4378C34.2824 9.8557 33.3267 9.8557 32.7373 10.4378L22.8354 20.2159L13.2615 10.7617C12.672 10.1797 11.7163 10.1796 11.1269 10.7617L10.4427 11.4373C9.85328 12.0194 9.85328 12.9631 10.4427 13.5452L20.0166 22.9993L10.4427 32.4535Z" fill="#00060C"/>
</svg>
