<svg width="73" height="81" viewBox="0 0 73 81" fill="none" xmlns="http://www.w3.org/2000/svg">
<g filter="url(#filter0_d_1_5)">
<path d="M42.291 34.975L47.491 43.975C48.291 45.275 47.591 46.375 46.091 46.375H35.691C34.191 46.375 33.591 45.275 34.291 43.975L39.491 34.975C40.291 33.675 41.491 33.675 42.291 34.975Z" fill="#F35714"/>
<path fill-rule="evenodd" clip-rule="evenodd" d="M53 26H28C26.8954 26 26 26.8954 26 28V53C26 54.1046 26.8954 55 28 55H53C54.1046 55 55 54.1046 55 53V28C55 26.8954 54.1046 26 53 26ZM28 24C25.7909 24 24 25.7909 24 28V53C24 55.2091 25.7909 57 28 57H53C55.2091 57 57 55.2091 57 53V28C57 25.7909 55.2091 24 53 24H28Z" fill="#F35714"/>
</g>
<defs>
<filter id="filter0_d_1_5" x="0" y="0" width="81" height="81" filterUnits="userSpaceOnUse" color-interpolation-filters="sRGB">
<feFlood flood-opacity="0" result="BackgroundImageFix"/>
<feColorMatrix in="SourceAlpha" type="matrix" values="0 0 0 0 0 0 0 0 0 0 0 0 0 0 0 0 0 0 127 0" result="hardAlpha"/>
<feOffset/>
<feGaussianBlur stdDeviation="12"/>
<feComposite in2="hardAlpha" operator="out"/>
<feColorMatrix type="matrix" values="0 0 0 0 0.980392 0 0 0 0 0.305882 0 0 0 0 0 0 0 0 1 0"/>
<feBlend mode="normal" in2="BackgroundImageFix" result="effect1_dropShadow_1_5"/>
<feBlend mode="normal" in="SourceGraphic" in2="effect1_dropShadow_1_5" result="shape"/>
</filter>
</defs>
</svg>
