<svg width="390" height="843" viewBox="0 0 390 843" fill="none" xmlns="http://www.w3.org/2000/svg">
<path d="M-209.834 0L-197.279 11.7185L-184.724 0M-159.613 0L-147.058 11.7185L-134.503 0M-109.393 0L-96.8375 11.7185L-84.2823 0M-59.172 0L-46.6169 11.7185L-34.0617 0M-8.95136 0L3.60382 11.7185L16.159 0M-209.834 46.8741L-197.279 58.5926L-184.724 46.8741M-159.613 46.8741L-147.058 58.5926L-134.503 46.8741M-109.393 46.8741L-96.8375 58.5926L-84.2823 46.8741M-59.172 46.8741L-46.6169 58.5926L-34.0617 46.8741M-8.95136 46.8741L3.60382 58.5926L16.159 46.8741M-209.834 93.7482L-197.279 105.467L-184.724 93.7482M-159.613 93.7482L-147.058 105.467L-134.503 93.7482M-109.393 93.7482L-96.8375 105.467L-84.2823 93.7482M-59.172 93.7482L-46.6169 105.467L-34.0617 93.7482M-8.95136 93.7482L3.60382 105.467L16.159 93.7482M-209.834 140.622L-197.279 152.341L-184.724 140.622M-159.613 140.622L-147.058 152.341L-134.503 140.622M-109.393 140.622L-96.8375 152.341L-84.2823 140.622M-59.172 140.622L-46.6169 152.341L-34.0617 140.622M-8.95136 140.622L3.60382 152.341L16.159 140.622M-209.834 187.496L-197.279 199.215L-184.724 187.496M-159.613 187.496L-147.058 199.215L-134.503 187.496M-109.393 187.496L-96.8375 199.215L-84.2823 187.496M-59.172 187.496L-46.6169 199.215L-34.0617 187.496M-8.95136 187.496L3.60382 199.215L16.159 187.496M-209.834 231.292L-197.279 243.011L-184.724 231.292M-159.613 231.292L-147.058 243.011L-134.503 231.292M-109.393 231.292L-96.8375 243.011L-84.2823 231.292M-59.172 231.292L-46.6169 243.011L-34.0617 231.292M-8.95136 231.292L3.60382 243.011L16.159 231.292M-209.834 278.166L-197.279 289.885L-184.724 278.166M-159.613 278.166L-147.058 289.885L-134.503 278.166M-109.393 278.166L-96.8375 289.885L-84.2823 278.166M-59.172 278.166L-46.6169 289.885L-34.0617 278.166M-8.95136 278.166L3.60382 289.885L16.159 278.166M-209.834 325.04L-197.279 336.759L-184.724 325.04M-159.613 325.04L-147.058 336.759L-134.503 325.04M-109.393 325.04L-96.8375 336.759L-84.2823 325.04M-59.172 325.04L-46.6169 336.759L-34.0617 325.04M-8.95136 325.04L3.60382 336.759L16.159 325.04M-209.834 371.914L-197.279 383.633L-184.724 371.914M-159.613 371.914L-147.058 383.633L-134.503 371.914M-109.393 371.914L-96.8375 383.633L-84.2823 371.914M-59.172 371.914L-46.6169 383.633L-34.0617 371.914M-8.95136 371.914L3.60382 383.633L16.159 371.914M-209.834 418.789L-197.279 430.507L-184.724 418.789M-159.613 418.789L-147.058 430.507L-134.503 418.789M-109.393 418.789L-96.8375 430.507L-84.2823 418.789M-59.172 418.789L-46.6169 430.507L-34.0617 418.789M-8.95136 418.789L3.60382 430.507L16.159 418.789M-209.834 468.493L-197.279 480.211L-184.724 468.493M-159.613 468.493L-147.058 480.211L-134.503 468.493M-109.393 468.493L-96.8375 480.211L-84.2823 468.493M-59.172 468.493L-46.6169 480.211L-34.0617 468.493M-8.95136 468.493L3.60382 480.211L16.159 468.493M-209.834 515.367L-197.279 527.086L-184.724 515.367M-159.613 515.367L-147.058 527.086L-134.503 515.367M-109.393 515.367L-96.8375 527.086L-84.2823 515.367M-59.172 515.367L-46.6169 527.086L-34.0617 515.367M-8.95136 515.367L3.60382 527.086L16.159 515.367M-209.834 562.241L-197.279 573.96L-184.724 562.241M-159.613 562.241L-147.058 573.96L-134.503 562.241M-109.393 562.241L-96.8375 573.96L-84.2823 562.241M-59.172 562.241L-46.6169 573.96L-34.0617 562.241M-8.95136 562.241L3.60382 573.96L16.159 562.241M-209.834 609.115L-197.279 620.834L-184.724 609.115M-159.613 609.115L-147.058 620.834L-134.503 609.115M-109.393 609.115L-96.8375 620.834L-84.2823 609.115M-59.172 609.115L-46.6169 620.834L-34.0617 609.115M-8.95136 609.115L3.60382 620.834L16.159 609.115M-209.834 655.989L-197.279 667.708L-184.724 655.989M-159.613 655.989L-147.058 667.708L-134.503 655.989M-109.393 655.989L-96.8375 667.708L-84.2823 655.989M-59.172 655.989L-46.6169 667.708L-34.0617 655.989M-8.95136 655.989L3.60382 667.708L16.159 655.989M-209.834 699.785L-197.279 711.503L-184.724 699.785M-159.613 699.785L-147.058 711.503L-134.503 699.785M-109.393 699.785L-96.8375 711.503L-84.2823 699.785M-59.172 699.785L-46.6169 711.503L-34.0617 699.785M-8.95136 699.785L3.60382 711.503L16.159 699.785M-209.834 746.659L-197.279 758.378L-184.724 746.659M-159.613 746.659L-147.058 758.378L-134.503 746.659M-109.393 746.659L-96.8375 758.378L-84.2823 746.659M-59.172 746.659L-46.6169 758.378L-34.0617 746.659M-8.95136 746.659L3.60382 758.378L16.159 746.659M-209.834 793.533L-197.279 805.252L-184.724 793.533M-159.613 793.533L-147.058 805.252L-134.503 793.533M-109.393 793.533L-96.8375 805.252L-84.2823 793.533M-59.172 793.533L-46.6169 805.252L-34.0617 793.533M-8.95136 793.533L3.60382 805.252L16.159 793.533M-209.834 840.407L-197.279 852.126L-184.724 840.407M-159.613 840.407L-147.058 852.126L-134.503 840.407M-109.393 840.407L-96.8375 852.126L-84.2823 840.407M-59.172 840.407L-46.6169 852.126L-34.0617 840.407M-8.95136 840.407L3.60382 852.126L16.159 840.407M-209.834 887.282L-197.279 899L-184.724 887.282M-159.613 887.282L-147.058 899L-134.503 887.282M-109.393 887.282L-96.8375 899L-84.2823 887.282M-59.172 887.282L-46.6169 899L-34.0617 887.282M-8.95136 887.282L3.60382 899L16.159 887.282M33.3344 0L45.8896 11.7185L58.4447 0M83.5551 0L96.1103 11.7185L108.665 0M133.776 0L146.331 11.7185L158.886 0M183.996 0L196.552 11.7185L209.107 0M234.217 0L246.772 11.7185L259.327 0M33.3344 46.8741L45.8896 58.5926L58.4447 46.8741M83.5551 46.8741L96.1103 58.5926L108.665 46.8741M133.776 46.8741L146.331 58.5926L158.886 46.8741M183.996 46.8741L196.552 58.5926L209.107 46.8741M234.217 46.8741L246.772 58.5926L259.327 46.8741M33.3344 93.7482L45.8896 105.467L58.4447 93.7482M83.5551 93.7482L96.1103 105.467L108.665 93.7482M133.776 93.7482L146.331 105.467L158.886 93.7482M183.996 93.7482L196.552 105.467L209.107 93.7482M234.217 93.7482L246.772 105.467L259.327 93.7482M33.3344 140.622L45.8896 152.341L58.4447 140.622M83.5551 140.622L96.1103 152.341L108.665 140.622M133.776 140.622L146.331 152.341L158.886 140.622M183.996 140.622L196.552 152.341L209.107 140.622M234.217 140.622L246.772 152.341L259.327 140.622M33.3344 187.496L45.8896 199.215L58.4447 187.496M83.5551 187.496L96.1103 199.215L108.665 187.496M133.776 187.496L146.331 199.215L158.886 187.496M183.996 187.496L196.552 199.215L209.107 187.496M234.217 187.496L246.772 199.215L259.327 187.496M33.3344 231.292L45.8896 243.011L58.4447 231.292M83.5551 231.292L96.1103 243.011L108.665 231.292M133.776 231.292L146.331 243.011L158.886 231.292M183.996 231.292L196.552 243.011L209.107 231.292M234.217 231.292L246.772 243.011L259.327 231.292M33.3344 278.166L45.8896 289.885L58.4447 278.166M83.5551 278.166L96.1103 289.885L108.665 278.166M133.776 278.166L146.331 289.885L158.886 278.166M183.996 278.166L196.552 289.885L209.107 278.166M234.217 278.166L246.772 289.885L259.327 278.166M33.3344 325.04L45.8896 336.759L58.4447 325.04M83.5551 325.04L96.1103 336.759L108.665 325.04M133.776 325.04L146.331 336.759L158.886 325.04M183.996 325.04L196.552 336.759L209.107 325.04M234.217 325.04L246.772 336.759L259.327 325.04M33.3344 371.914L45.8896 383.633L58.4447 371.914M83.5551 371.914L96.1103 383.633L108.665 371.914M133.776 371.914L146.331 383.633L158.886 371.914M183.996 371.914L196.552 383.633L209.107 371.914M234.217 371.914L246.772 383.633L259.327 371.914M33.3344 418.789L45.8896 430.507L58.4447 418.789M83.5551 418.789L96.1103 430.507L108.665 418.789M133.776 418.789L146.331 430.507L158.886 418.789M183.996 418.789L196.552 430.507L209.107 418.789M234.217 418.789L246.772 430.507L259.327 418.789M33.3344 468.493L45.8896 480.211L58.4447 468.493M83.5551 468.493L96.1103 480.211L108.665 468.493M133.776 468.493L146.331 480.211L158.886 468.493M183.996 468.493L196.552 480.211L209.107 468.493M234.217 468.493L246.772 480.211L259.327 468.493M33.3344 515.367L45.8896 527.086L58.4447 515.367M83.5551 515.367L96.1103 527.086L108.665 515.367M133.776 515.367L146.331 527.086L158.886 515.367M183.996 515.367L196.552 527.086L209.107 515.367M234.217 515.367L246.772 527.086L259.327 515.367M33.3344 562.241L45.8896 573.96L58.4447 562.241M83.5551 562.241L96.1103 573.96L108.665 562.241M133.776 562.241L146.331 573.96L158.886 562.241M183.996 562.241L196.552 573.96L209.107 562.241M234.217 562.241L246.772 573.96L259.327 562.241M33.3344 609.115L45.8896 620.834L58.4447 609.115M83.5551 609.115L96.1103 620.834L108.665 609.115M133.776 609.115L146.331 620.834L158.886 609.115M183.996 609.115L196.552 620.834L209.107 609.115M234.217 609.115L246.772 620.834L259.327 609.115M33.3344 655.989L45.8896 667.708L58.4447 655.989M83.5551 655.989L96.1103 667.708L108.665 655.989M133.776 655.989L146.331 667.708L158.886 655.989M183.996 655.989L196.552 667.708L209.107 655.989M234.217 655.989L246.772 667.708L259.327 655.989M33.3344 699.785L45.8896 711.503L58.4447 699.785M83.5551 699.785L96.1103 711.503L108.665 699.785M133.776 699.785L146.331 711.503L158.886 699.785M183.996 699.785L196.552 711.503L209.107 699.785M234.217 699.785L246.772 711.503L259.327 699.785M33.3344 746.659L45.8896 758.378L58.4447 746.659M83.5551 746.659L96.1103 758.378L108.665 746.659M133.776 746.659L146.331 758.378L158.886 746.659M183.996 746.659L196.552 758.378L209.107 746.659M234.217 746.659L246.772 758.378L259.327 746.659M33.3344 793.533L45.8896 805.252L58.4447 793.533M83.5551 793.533L96.1103 805.252L108.665 793.533M133.776 793.533L146.331 805.252L158.886 793.533M183.996 793.533L196.552 805.252L209.107 793.533M234.217 793.533L246.772 805.252L259.327 793.533M33.3344 840.407L45.8896 852.126L58.4447 840.407M83.5551 840.407L96.1103 852.126L108.665 840.407M133.776 840.407L146.331 852.126L158.886 840.407M183.996 840.407L196.552 852.126L209.107 840.407M234.217 840.407L246.772 852.126L259.327 840.407M33.3344 887.282L45.8896 899L58.4447 887.282M83.5551 887.282L96.1103 899L108.665 887.282M133.776 887.282L146.331 899L158.886 887.282M183.996 887.282L196.552 899L209.107 887.282M234.217 887.282L246.772 899L259.327 887.282M276.503 0L289.058 11.7185L301.613 0M326.723 0L339.279 11.7185L351.834 0M376.944 0L389.499 11.7185L402.055 0M427.165 0L439.72 11.7185L452.275 0M477.385 0L489.941 11.7185L502.496 0M276.503 46.8741L289.058 58.5926L301.613 46.8741M326.723 46.8741L339.279 58.5926L351.834 46.8741M376.944 46.8741L389.499 58.5926L402.055 46.8741M427.165 46.8741L439.72 58.5926L452.275 46.8741M477.385 46.8741L489.941 58.5926L502.496 46.8741M276.503 93.7482L289.058 105.467L301.613 93.7482M326.723 93.7482L339.279 105.467L351.834 93.7482M376.944 93.7482L389.499 105.467L402.055 93.7482M427.165 93.7482L439.72 105.467L452.275 93.7482M477.385 93.7482L489.941 105.467L502.496 93.7482M276.503 140.622L289.058 152.341L301.613 140.622M326.723 140.622L339.279 152.341L351.834 140.622M376.944 140.622L389.499 152.341L402.055 140.622M427.165 140.622L439.72 152.341L452.275 140.622M477.385 140.622L489.941 152.341L502.496 140.622M276.503 187.496L289.058 199.215L301.613 187.496M326.723 187.496L339.279 199.215L351.834 187.496M376.944 187.496L389.499 199.215L402.055 187.496M427.165 187.496L439.72 199.215L452.275 187.496M477.385 187.496L489.941 199.215L502.496 187.496M276.503 231.292L289.058 243.011L301.613 231.292M326.723 231.292L339.279 243.011L351.834 231.292M376.944 231.292L389.499 243.011L402.055 231.292M427.165 231.292L439.72 243.011L452.275 231.292M477.385 231.292L489.941 243.011L502.496 231.292M276.503 278.166L289.058 289.885L301.613 278.166M326.723 278.166L339.279 289.885L351.834 278.166M376.944 278.166L389.499 289.885L402.055 278.166M427.165 278.166L439.72 289.885L452.275 278.166M477.385 278.166L489.941 289.885L502.496 278.166M276.503 325.04L289.058 336.759L301.613 325.04M326.723 325.04L339.279 336.759L351.834 325.04M376.944 325.04L389.499 336.759L402.055 325.04M427.165 325.04L439.72 336.759L452.275 325.04M477.385 325.04L489.941 336.759L502.496 325.04M276.503 371.914L289.058 383.633L301.613 371.914M326.723 371.914L339.279 383.633L351.834 371.914M376.944 371.914L389.499 383.633L402.055 371.914M427.165 371.914L439.72 383.633L452.275 371.914M477.385 371.914L489.941 383.633L502.496 371.914M276.503 418.789L289.058 430.507L301.613 418.789M326.723 418.789L339.279 430.507L351.834 418.789M376.944 418.789L389.499 430.507L402.055 418.789M427.165 418.789L439.72 430.507L452.275 418.789M477.385 418.789L489.941 430.507L502.496 418.789M276.503 468.493L289.058 480.211L301.613 468.493M326.723 468.493L339.279 480.211L351.834 468.493M376.944 468.493L389.499 480.211L402.055 468.493M427.165 468.493L439.72 480.211L452.275 468.493M477.385 468.493L489.941 480.211L502.496 468.493M276.503 515.367L289.058 527.086L301.613 515.367M326.723 515.367L339.279 527.086L351.834 515.367M376.944 515.367L389.499 527.086L402.055 515.367M427.165 515.367L439.72 527.086L452.275 515.367M477.385 515.367L489.941 527.086L502.496 515.367M276.503 562.241L289.058 573.96L301.613 562.241M326.723 562.241L339.279 573.96L351.834 562.241M376.944 562.241L389.499 573.96L402.055 562.241M427.165 562.241L439.72 573.96L452.275 562.241M477.385 562.241L489.941 573.96L502.496 562.241M276.503 609.115L289.058 620.834L301.613 609.115M326.723 609.115L339.279 620.834L351.834 609.115M376.944 609.115L389.499 620.834L402.055 609.115M427.165 609.115L439.72 620.834L452.275 609.115M477.385 609.115L489.941 620.834L502.496 609.115M276.503 655.989L289.058 667.708L301.613 655.989M326.723 655.989L339.279 667.708L351.834 655.989M376.944 655.989L389.499 667.708L402.055 655.989M427.165 655.989L439.72 667.708L452.275 655.989M477.385 655.989L489.941 667.708L502.496 655.989M276.503 699.785L289.058 711.503L301.613 699.785M326.723 699.785L339.279 711.503L351.834 699.785M376.944 699.785L389.499 711.503L402.055 699.785M427.165 699.785L439.72 711.503L452.275 699.785M477.385 699.785L489.941 711.503L502.496 699.785M276.503 746.659L289.058 758.378L301.613 746.659M326.723 746.659L339.279 758.378L351.834 746.659M376.944 746.659L389.499 758.378L402.055 746.659M427.165 746.659L439.72 758.378L452.275 746.659M477.385 746.659L489.941 758.378L502.496 746.659M276.503 793.533L289.058 805.252L301.613 793.533M326.723 793.533L339.279 805.252L351.834 793.533M376.944 793.533L389.499 805.252L402.055 793.533M427.165 793.533L439.72 805.252L452.275 793.533M477.385 793.533L489.941 805.252L502.496 793.533M276.503 840.407L289.058 852.126L301.613 840.407M326.723 840.407L339.279 852.126L351.834 840.407M376.944 840.407L389.499 852.126L402.055 840.407M427.165 840.407L439.72 852.126L452.275 840.407M477.385 840.407L489.941 852.126L502.496 840.407M276.503 887.282L289.058 899L301.613 887.282M326.723 887.282L339.279 899L351.834 887.282M376.944 887.282L389.499 899L402.055 887.282M427.165 887.282L439.72 899L452.275 887.282M477.385 887.282L489.941 899L502.496 887.282M519.671 0L532.226 11.7185L544.782 0M569.892 0L582.447 11.7185L595.002 0M620.113 0L632.668 11.7185L645.223 0M670.333 0L682.888 11.7185L695.444 0M720.554 0L733.109 11.7185L745.664 0M519.671 46.8741L532.226 58.5926L544.782 46.8741M569.892 46.8741L582.447 58.5926L595.002 46.8741M620.113 46.8741L632.668 58.5926L645.223 46.8741M670.333 46.8741L682.888 58.5926L695.444 46.8741M720.554 46.8741L733.109 58.5926L745.664 46.8741M519.671 93.7482L532.226 105.467L544.782 93.7482M569.892 93.7482L582.447 105.467L595.002 93.7482M620.113 93.7482L632.668 105.467L645.223 93.7482M670.333 93.7482L682.888 105.467L695.444 93.7482M720.554 93.7482L733.109 105.467L745.664 93.7482M519.671 140.622L532.226 152.341L544.782 140.622M569.892 140.622L582.447 152.341L595.002 140.622M620.113 140.622L632.668 152.341L645.223 140.622M670.333 140.622L682.888 152.341L695.444 140.622M720.554 140.622L733.109 152.341L745.664 140.622M519.671 187.496L532.226 199.215L544.782 187.496M569.892 187.496L582.447 199.215L595.002 187.496M620.113 187.496L632.668 199.215L645.223 187.496M670.333 187.496L682.888 199.215L695.444 187.496M720.554 187.496L733.109 199.215L745.664 187.496M519.671 231.292L532.226 243.011L544.782 231.292M569.892 231.292L582.447 243.011L595.002 231.292M620.113 231.292L632.668 243.011L645.223 231.292M670.333 231.292L682.888 243.011L695.444 231.292M720.554 231.292L733.109 243.011L745.664 231.292M519.671 278.166L532.226 289.885L544.782 278.166M569.892 278.166L582.447 289.885L595.002 278.166M620.113 278.166L632.668 289.885L645.223 278.166M670.333 278.166L682.888 289.885L695.444 278.166M720.554 278.166L733.109 289.885L745.664 278.166M519.671 325.04L532.226 336.759L544.782 325.04M569.892 325.04L582.447 336.759L595.002 325.04M620.113 325.04L632.668 336.759L645.223 325.04M670.333 325.04L682.888 336.759L695.444 325.04M720.554 325.04L733.109 336.759L745.664 325.04M519.671 371.914L532.226 383.633L544.782 371.914M569.892 371.914L582.447 383.633L595.002 371.914M620.113 371.914L632.668 383.633L645.223 371.914M670.333 371.914L682.888 383.633L695.444 371.914M720.554 371.914L733.109 383.633L745.664 371.914M519.671 418.789L532.226 430.507L544.782 418.789M569.892 418.789L582.447 430.507L595.002 418.789M620.113 418.789L632.668 430.507L645.223 418.789M670.333 418.789L682.888 430.507L695.444 418.789M720.554 418.789L733.109 430.507L745.664 418.789M519.671 468.493L532.226 480.211L544.782 468.493M569.892 468.493L582.447 480.211L595.002 468.493M620.113 468.493L632.668 480.211L645.223 468.493M670.333 468.493L682.888 480.211L695.444 468.493M720.554 468.493L733.109 480.211L745.664 468.493M519.671 515.367L532.226 527.086L544.782 515.367M569.892 515.367L582.447 527.086L595.002 515.367M620.113 515.367L632.668 527.086L645.223 515.367M670.333 515.367L682.888 527.086L695.444 515.367M720.554 515.367L733.109 527.086L745.664 515.367M519.671 562.241L532.226 573.96L544.782 562.241M569.892 562.241L582.447 573.96L595.002 562.241M620.113 562.241L632.668 573.96L645.223 562.241M670.333 562.241L682.888 573.96L695.444 562.241M720.554 562.241L733.109 573.96L745.664 562.241M519.671 609.115L532.226 620.834L544.782 609.115M569.892 609.115L582.447 620.834L595.002 609.115M620.113 609.115L632.668 620.834L645.223 609.115M670.333 609.115L682.888 620.834L695.444 609.115M720.554 609.115L733.109 620.834L745.664 609.115M519.671 655.989L532.226 667.708L544.782 655.989M569.892 655.989L582.447 667.708L595.002 655.989M620.113 655.989L632.668 667.708L645.223 655.989M670.333 655.989L682.888 667.708L695.444 655.989M720.554 655.989L733.109 667.708L745.664 655.989M519.671 699.785L532.226 711.503L544.782 699.785M569.892 699.785L582.447 711.503L595.002 699.785M620.113 699.785L632.668 711.503L645.223 699.785M670.333 699.785L682.888 711.503L695.444 699.785M720.554 699.785L733.109 711.503L745.664 699.785M519.671 746.659L532.226 758.378L544.782 746.659M569.892 746.659L582.447 758.378L595.002 746.659M620.113 746.659L632.668 758.378L645.223 746.659M670.333 746.659L682.888 758.378L695.444 746.659M720.554 746.659L733.109 758.378L745.664 746.659M519.671 793.533L532.226 805.252L544.782 793.533M569.892 793.533L582.447 805.252L595.002 793.533M620.113 793.533L632.668 805.252L645.223 793.533M670.333 793.533L682.888 805.252L695.444 793.533M720.554 793.533L733.109 805.252L745.664 793.533M519.671 840.407L532.226 852.126L544.782 840.407M569.892 840.407L582.447 852.126L595.002 840.407M620.113 840.407L632.668 852.126L645.223 840.407M670.333 840.407L682.888 852.126L695.444 840.407M720.554 840.407L733.109 852.126L745.664 840.407M519.671 887.282L532.226 899L544.782 887.282M569.892 887.282L582.447 899L595.002 887.282M620.113 887.282L632.668 899L645.223 887.282M670.333 887.282L682.888 899L695.444 887.282M720.554 887.282L733.109 899L745.664 887.282M762.84 0L775.395 11.7185L787.95 0M813.06 0L825.615 11.7185L838.171 0M863.281 0L875.836 11.7185L888.391 0M913.502 0L926.057 11.7185L938.612 0M963.722 0L976.277 11.7185L988.833 0M762.84 46.8741L775.395 58.5926L787.95 46.8741M813.06 46.8741L825.615 58.5926L838.171 46.8741M863.281 46.8741L875.836 58.5926L888.391 46.8741M913.502 46.8741L926.057 58.5926L938.612 46.8741M963.722 46.8741L976.277 58.5926L988.833 46.8741M762.84 93.7482L775.395 105.467L787.95 93.7482M813.06 93.7482L825.615 105.467L838.171 93.7482M863.281 93.7482L875.836 105.467L888.391 93.7482M913.502 93.7482L926.057 105.467L938.612 93.7482M963.722 93.7482L976.277 105.467L988.833 93.7482M762.84 140.622L775.395 152.341L787.95 140.622M813.06 140.622L825.615 152.341L838.171 140.622M863.281 140.622L875.836 152.341L888.391 140.622M913.502 140.622L926.057 152.341L938.612 140.622M963.722 140.622L976.277 152.341L988.833 140.622M762.84 187.496L775.395 199.215L787.95 187.496M813.06 187.496L825.615 199.215L838.171 187.496M863.281 187.496L875.836 199.215L888.391 187.496M913.502 187.496L926.057 199.215L938.612 187.496M963.722 187.496L976.277 199.215L988.833 187.496M762.84 231.292L775.395 243.011L787.95 231.292M813.06 231.292L825.615 243.011L838.171 231.292M863.281 231.292L875.836 243.011L888.391 231.292M913.502 231.292L926.057 243.011L938.612 231.292M963.722 231.292L976.277 243.011L988.833 231.292M762.84 278.166L775.395 289.885L787.95 278.166M813.06 278.166L825.615 289.885L838.171 278.166M863.281 278.166L875.836 289.885L888.391 278.166M913.502 278.166L926.057 289.885L938.612 278.166M963.722 278.166L976.277 289.885L988.833 278.166M762.84 325.04L775.395 336.759L787.95 325.04M813.06 325.04L825.615 336.759L838.171 325.04M863.281 325.04L875.836 336.759L888.391 325.04M913.502 325.04L926.057 336.759L938.612 325.04M963.722 325.04L976.277 336.759L988.833 325.04M762.84 371.914L775.395 383.633L787.95 371.914M813.06 371.914L825.615 383.633L838.171 371.914M863.281 371.914L875.836 383.633L888.391 371.914M913.502 371.914L926.057 383.633L938.612 371.914M963.722 371.914L976.277 383.633L988.833 371.914M762.84 418.789L775.395 430.507L787.95 418.789M813.06 418.789L825.615 430.507L838.171 418.789M863.281 418.789L875.836 430.507L888.391 418.789M913.502 418.789L926.057 430.507L938.612 418.789M963.722 418.789L976.277 430.507L988.833 418.789M762.84 468.493L775.395 480.211L787.95 468.493M813.06 468.493L825.615 480.211L838.171 468.493M863.281 468.493L875.836 480.211L888.391 468.493M913.502 468.493L926.057 480.211L938.612 468.493M963.722 468.493L976.277 480.211L988.833 468.493M762.84 515.367L775.395 527.086L787.95 515.367M813.06 515.367L825.615 527.086L838.171 515.367M863.281 515.367L875.836 527.086L888.391 515.367M913.502 515.367L926.057 527.086L938.612 515.367M963.722 515.367L976.277 527.086L988.833 515.367M762.84 562.241L775.395 573.96L787.95 562.241M813.06 562.241L825.615 573.96L838.171 562.241M863.281 562.241L875.836 573.96L888.391 562.241M913.502 562.241L926.057 573.96L938.612 562.241M963.722 562.241L976.277 573.96L988.833 562.241M762.84 609.115L775.395 620.834L787.95 609.115M813.06 609.115L825.615 620.834L838.171 609.115M863.281 609.115L875.836 620.834L888.391 609.115M913.502 609.115L926.057 620.834L938.612 609.115M963.722 609.115L976.277 620.834L988.833 609.115M762.84 655.989L775.395 667.708L787.95 655.989M813.06 655.989L825.615 667.708L838.171 655.989M863.281 655.989L875.836 667.708L888.391 655.989M913.502 655.989L926.057 667.708L938.612 655.989M963.722 655.989L976.277 667.708L988.833 655.989M762.84 699.785L775.395 711.503L787.95 699.785M813.06 699.785L825.615 711.503L838.171 699.785M863.281 699.785L875.836 711.503L888.391 699.785M913.502 699.785L926.057 711.503L938.612 699.785M963.722 699.785L976.277 711.503L988.833 699.785M762.84 746.659L775.395 758.378L787.95 746.659M813.06 746.659L825.615 758.378L838.171 746.659M863.281 746.659L875.836 758.378L888.391 746.659M913.502 746.659L926.057 758.378L938.612 746.659M963.722 746.659L976.277 758.378L988.833 746.659M762.84 793.533L775.395 805.252L787.95 793.533M813.06 793.533L825.615 805.252L838.171 793.533M863.281 793.533L875.836 805.252L888.391 793.533M913.502 793.533L926.057 805.252L938.612 793.533M963.722 793.533L976.277 805.252L988.833 793.533M762.84 840.407L775.395 852.126L787.95 840.407M813.06 840.407L825.615 852.126L838.171 840.407M863.281 840.407L875.836 852.126L888.391 840.407M913.502 840.407L926.057 852.126L938.612 840.407M963.722 840.407L976.277 852.126L988.833 840.407M762.84 887.282L775.395 899L787.95 887.282M813.06 887.282L825.615 899L838.171 887.282M863.281 887.282L875.836 899L888.391 887.282M913.502 887.282L926.057 899L938.612 887.282M963.722 887.282L976.277 899L988.833 887.282" stroke="#160B35" stroke-width="6" stroke-linecap="round"/>
</svg>
