<svg width="1440" height="1078" viewBox="0 0 1440 1078" fill="none" xmlns="http://www.w3.org/2000/svg">
<path d="M0 3L15.083 17.0779L30.1659 3M60.3318 3L75.4148 17.0779L90.4977 3M120.664 3L135.747 17.0779L150.83 3M180.995 3L196.078 17.0779L211.161 3M241.327 3L256.41 17.0779L271.493 3M0 59.3115L15.083 73.3894L30.1659 59.3115M60.3318 59.3115L75.4148 73.3894L90.4977 59.3115M120.664 59.3115L135.747 73.3894L150.83 59.3115M180.995 59.3115L196.078 73.3894L211.161 59.3115M241.327 59.3115L256.41 73.3894L271.493 59.3115M0 115.623L15.083 129.701L30.1659 115.623M60.3318 115.623L75.4148 129.701L90.4977 115.623M120.664 115.623L135.747 129.701L150.83 115.623M180.995 115.623L196.078 129.701L211.161 115.623M241.327 115.623L256.41 129.701L271.493 115.623M0 171.935L15.083 186.012L30.1659 171.935M60.3318 171.935L75.4148 186.012L90.4977 171.935M120.664 171.935L135.747 186.012L150.83 171.935M180.995 171.935L196.078 186.012L211.161 171.935M241.327 171.935L256.41 186.012L271.493 171.935M0 228.246L15.083 242.324L30.1659 228.246M60.3318 228.246L75.4148 242.324L90.4977 228.246M120.664 228.246L135.747 242.324L150.83 228.246M180.995 228.246L196.078 242.324L211.161 228.246M241.327 228.246L256.41 242.324L271.493 228.246M0 280.859L15.083 294.937L30.1659 280.859M60.3318 280.859L75.4148 294.937L90.4977 280.859M120.664 280.859L135.747 294.937L150.83 280.859M180.995 280.859L196.078 294.937L211.161 280.859M241.327 280.859L256.41 294.937L271.493 280.859M0 337.171L15.083 351.249L30.1659 337.171M60.3318 337.171L75.4148 351.249L90.4977 337.171M120.664 337.171L135.747 351.249L150.83 337.171M180.995 337.171L196.078 351.249L211.161 337.171M241.327 337.171L256.41 351.249L271.493 337.171M0 393.482L15.083 407.56L30.1659 393.482M60.3318 393.482L75.4148 407.56L90.4977 393.482M120.664 393.482L135.747 407.56L150.83 393.482M180.995 393.482L196.078 407.56L211.161 393.482M241.327 393.482L256.41 407.56L271.493 393.482M0 449.794L15.083 463.872L30.1659 449.794M60.3318 449.794L75.4148 463.872L90.4977 449.794M120.664 449.794L135.747 463.872L150.83 449.794M180.995 449.794L196.078 463.872L211.161 449.794M241.327 449.794L256.41 463.872L271.493 449.794M0 506.105L15.083 520.183L30.1659 506.105M60.3318 506.105L75.4148 520.183L90.4977 506.105M120.664 506.105L135.747 520.183L150.83 506.105M180.995 506.105L196.078 520.183L211.161 506.105M241.327 506.105L256.41 520.183L271.493 506.105M0 565.817L15.083 579.895L30.1659 565.817M60.3318 565.817L75.4148 579.895L90.4977 565.817M120.664 565.817L135.747 579.895L150.83 565.817M180.995 565.817L196.078 579.895L211.161 565.817M241.327 565.817L256.41 579.895L271.493 565.817M0 622.128L15.083 636.206L30.1659 622.128M60.3318 622.128L75.4148 636.206L90.4977 622.128M120.664 622.128L135.747 636.206L150.83 622.128M180.995 622.128L196.078 636.206L211.161 622.128M241.327 622.128L256.41 636.206L271.493 622.128M0 678.44L15.083 692.518L30.1659 678.44M60.3318 678.44L75.4148 692.518L90.4977 678.44M120.664 678.44L135.747 692.518L150.83 678.44M180.995 678.44L196.078 692.518L211.161 678.44M241.327 678.44L256.41 692.518L271.493 678.44M0 734.751L15.083 748.829L30.1659 734.751M60.3318 734.751L75.4148 748.829L90.4977 734.751M120.664 734.751L135.747 748.829L150.83 734.751M180.995 734.751L196.078 748.829L211.161 734.751M241.327 734.751L256.41 748.829L271.493 734.751M0 791.063L15.083 805.141L30.1659 791.063M60.3318 791.063L75.4148 805.141L90.4977 791.063M120.664 791.063L135.747 805.141L150.83 791.063M180.995 791.063L196.078 805.141L211.161 791.063M241.327 791.063L256.41 805.141L271.493 791.063M0 843.676L15.083 857.754L30.1659 843.676M60.3318 843.676L75.4148 857.754L90.4977 843.676M120.664 843.676L135.747 857.754L150.83 843.676M180.995 843.676L196.078 857.754L211.161 843.676M241.327 843.676L256.41 857.754L271.493 843.676M0 899.988L15.083 914.065L30.1659 899.988M60.3318 899.988L75.4148 914.065L90.4977 899.988M120.664 899.988L135.747 914.065L150.83 899.988M180.995 899.988L196.078 914.065L211.161 899.988M241.327 899.988L256.41 914.065L271.493 899.988M0 956.299L15.083 970.377L30.1659 956.299M60.3318 956.299L75.4148 970.377L90.4977 956.299M120.664 956.299L135.747 970.377L150.83 956.299M180.995 956.299L196.078 970.377L211.161 956.299M241.327 956.299L256.41 970.377L271.493 956.299M0 1012.61L15.083 1026.69L30.1659 1012.61M60.3318 1012.61L75.4148 1026.69L90.4977 1012.61M120.664 1012.61L135.747 1026.69L150.83 1012.61M180.995 1012.61L196.078 1026.69L211.161 1012.61M241.327 1012.61L256.41 1026.69L271.493 1012.61M0 1068.92L15.083 1083L30.1659 1068.92M60.3318 1068.92L75.4148 1083L90.4977 1068.92M120.664 1068.92L135.747 1083L150.83 1068.92M180.995 1068.92L196.078 1083L211.161 1068.92M241.327 1068.92L256.41 1083L271.493 1068.92M292.127 3L307.21 17.0779L322.293 3M352.459 3L367.542 17.0779L382.624 3M412.79 3L427.873 17.0779L442.956 3M473.122 3L488.205 17.0779L503.288 3M533.454 3L548.537 17.0779L563.62 3M292.127 59.3115L307.21 73.3894L322.293 59.3115M352.459 59.3115L367.542 73.3894L382.624 59.3115M412.79 59.3115L427.873 73.3894L442.956 59.3115M473.122 59.3115L488.205 73.3894L503.288 59.3115M533.454 59.3115L548.537 73.3894L563.62 59.3115M292.127 115.623L307.21 129.701L322.293 115.623M352.459 115.623L367.542 129.701L382.624 115.623M412.79 115.623L427.873 129.701L442.956 115.623M473.122 115.623L488.205 129.701L503.288 115.623M533.454 115.623L548.537 129.701L563.62 115.623M292.127 171.935L307.21 186.012L322.293 171.935M352.459 171.935L367.542 186.012L382.624 171.935M412.79 171.935L427.873 186.012L442.956 171.935M473.122 171.935L488.205 186.012L503.288 171.935M533.454 171.935L548.537 186.012L563.62 171.935M292.127 228.246L307.21 242.324L322.293 228.246M352.459 228.246L367.542 242.324L382.624 228.246M412.79 228.246L427.873 242.324L442.956 228.246M473.122 228.246L488.205 242.324L503.288 228.246M533.454 228.246L548.537 242.324L563.62 228.246M292.127 280.859L307.21 294.937L322.293 280.859M352.459 280.859L367.542 294.937L382.624 280.859M412.79 280.859L427.873 294.937L442.956 280.859M473.122 280.859L488.205 294.937L503.288 280.859M533.454 280.859L548.537 294.937L563.62 280.859M292.127 337.171L307.21 351.249L322.293 337.171M352.459 337.171L367.542 351.249L382.624 337.171M412.79 337.171L427.873 351.249L442.956 337.171M473.122 337.171L488.205 351.249L503.288 337.171M533.454 337.171L548.537 351.249L563.62 337.171M292.127 393.482L307.21 407.56L322.293 393.482M352.459 393.482L367.542 407.56L382.624 393.482M412.79 393.482L427.873 407.56L442.956 393.482M473.122 393.482L488.205 407.56L503.288 393.482M533.454 393.482L548.537 407.56L563.62 393.482M292.127 449.794L307.21 463.872L322.293 449.794M352.459 449.794L367.542 463.872L382.624 449.794M412.79 449.794L427.873 463.872L442.956 449.794M473.122 449.794L488.205 463.872L503.288 449.794M533.454 449.794L548.537 463.872L563.62 449.794M292.127 506.105L307.21 520.183L322.293 506.105M352.459 506.105L367.542 520.183L382.624 506.105M412.79 506.105L427.873 520.183L442.956 506.105M473.122 506.105L488.205 520.183L503.288 506.105M533.454 506.105L548.537 520.183L563.62 506.105M292.127 565.817L307.21 579.895L322.293 565.817M352.459 565.817L367.542 579.895L382.624 565.817M412.79 565.817L427.873 579.895L442.956 565.817M473.122 565.817L488.205 579.895L503.288 565.817M533.454 565.817L548.537 579.895L563.62 565.817M292.127 622.128L307.21 636.206L322.293 622.128M352.459 622.128L367.542 636.206L382.624 622.128M412.79 622.128L427.873 636.206L442.956 622.128M473.122 622.128L488.205 636.206L503.288 622.128M533.454 622.128L548.537 636.206L563.62 622.128M292.127 678.44L307.21 692.518L322.293 678.44M352.459 678.44L367.542 692.518L382.624 678.44M412.79 678.44L427.873 692.518L442.956 678.44M473.122 678.44L488.205 692.518L503.288 678.44M533.454 678.44L548.537 692.518L563.62 678.44M292.127 734.751L307.21 748.829L322.293 734.751M352.459 734.751L367.542 748.829L382.624 734.751M412.79 734.751L427.873 748.829L442.956 734.751M473.122 734.751L488.205 748.829L503.288 734.751M533.454 734.751L548.537 748.829L563.62 734.751M292.127 791.063L307.21 805.141L322.293 791.063M352.459 791.063L367.542 805.141L382.624 791.063M412.79 791.063L427.873 805.141L442.956 791.063M473.122 791.063L488.205 805.141L503.288 791.063M533.454 791.063L548.537 805.141L563.62 791.063M292.127 843.676L307.21 857.754L322.293 843.676M352.459 843.676L367.542 857.754L382.624 843.676M412.79 843.676L427.873 857.754L442.956 843.676M473.122 843.676L488.205 857.754L503.288 843.676M533.454 843.676L548.537 857.754L563.62 843.676M292.127 899.988L307.21 914.065L322.293 899.988M352.459 899.988L367.542 914.065L382.624 899.988M412.79 899.988L427.873 914.065L442.956 899.988M473.122 899.988L488.205 914.065L503.288 899.988M533.454 899.988L548.537 914.065L563.62 899.988M292.127 956.299L307.21 970.377L322.293 956.299M352.459 956.299L367.542 970.377L382.624 956.299M412.79 956.299L427.873 970.377L442.956 956.299M473.122 956.299L488.205 970.377L503.288 956.299M533.454 956.299L548.537 970.377L563.62 956.299M292.127 1012.61L307.21 1026.69L322.293 1012.61M352.459 1012.61L367.542 1026.69L382.624 1012.61M412.79 1012.61L427.873 1026.69L442.956 1012.61M473.122 1012.61L488.205 1026.69L503.288 1012.61M533.454 1012.61L548.537 1026.69L563.62 1012.61M292.127 1068.92L307.21 1083L322.293 1068.92M352.459 1068.92L367.542 1083L382.624 1068.92M412.79 1068.92L427.873 1083L442.956 1068.92M473.122 1068.92L488.205 1083L503.288 1068.92M533.454 1068.92L548.537 1083L563.62 1068.92M584.253 3L599.336 17.0779L614.419 3M644.585 3L659.668 17.0779L674.751 3M704.917 3L720 17.0779L735.083 3M765.249 3L780.332 17.0779L795.415 3M825.581 3L840.664 17.0779L855.747 3M584.253 59.3115L599.336 73.3894L614.419 59.3115M644.585 59.3115L659.668 73.3894L674.751 59.3115M704.917 59.3115L720 73.3894L735.083 59.3115M765.249 59.3115L780.332 73.3894L795.415 59.3115M825.581 59.3115L840.664 73.3894L855.747 59.3115M584.253 115.623L599.336 129.701L614.419 115.623M644.585 115.623L659.668 129.701L674.751 115.623M704.917 115.623L720 129.701L735.083 115.623M765.249 115.623L780.332 129.701L795.415 115.623M825.581 115.623L840.664 129.701L855.747 115.623M584.253 171.935L599.336 186.012L614.419 171.935M644.585 171.935L659.668 186.012L674.751 171.935M704.917 171.935L720 186.012L735.083 171.935M765.249 171.935L780.332 186.012L795.415 171.935M825.581 171.935L840.664 186.012L855.747 171.935M584.253 228.246L599.336 242.324L614.419 228.246M644.585 228.246L659.668 242.324L674.751 228.246M704.917 228.246L720 242.324L735.083 228.246M765.249 228.246L780.332 242.324L795.415 228.246M825.581 228.246L840.664 242.324L855.747 228.246M584.253 280.859L599.336 294.937L614.419 280.859M644.585 280.859L659.668 294.937L674.751 280.859M704.917 280.859L720 294.937L735.083 280.859M765.249 280.859L780.332 294.937L795.415 280.859M825.581 280.859L840.664 294.937L855.747 280.859M584.253 337.171L599.336 351.249L614.419 337.171M644.585 337.171L659.668 351.249L674.751 337.171M704.917 337.171L720 351.249L735.083 337.171M765.249 337.171L780.332 351.249L795.415 337.171M825.581 337.171L840.664 351.249L855.747 337.171M584.253 393.482L599.336 407.56L614.419 393.482M644.585 393.482L659.668 407.56L674.751 393.482M704.917 393.482L720 407.56L735.083 393.482M765.249 393.482L780.332 407.56L795.415 393.482M825.581 393.482L840.664 407.56L855.747 393.482M584.253 449.794L599.336 463.872L614.419 449.794M644.585 449.794L659.668 463.872L674.751 449.794M704.917 449.794L720 463.872L735.083 449.794M765.249 449.794L780.332 463.872L795.415 449.794M825.581 449.794L840.664 463.872L855.747 449.794M584.253 506.105L599.336 520.183L614.419 506.105M644.585 506.105L659.668 520.183L674.751 506.105M704.917 506.105L720 520.183L735.083 506.105M765.249 506.105L780.332 520.183L795.415 506.105M825.581 506.105L840.664 520.183L855.747 506.105M584.253 565.817L599.336 579.895L614.419 565.817M644.585 565.817L659.668 579.895L674.751 565.817M704.917 565.817L720 579.895L735.083 565.817M765.249 565.817L780.332 579.895L795.415 565.817M825.581 565.817L840.664 579.895L855.747 565.817M584.253 622.128L599.336 636.206L614.419 622.128M644.585 622.128L659.668 636.206L674.751 622.128M704.917 622.128L720 636.206L735.083 622.128M765.249 622.128L780.332 636.206L795.415 622.128M825.581 622.128L840.664 636.206L855.747 622.128M584.253 678.44L599.336 692.518L614.419 678.44M644.585 678.44L659.668 692.518L674.751 678.44M704.917 678.44L720 692.518L735.083 678.44M765.249 678.44L780.332 692.518L795.415 678.44M825.581 678.44L840.664 692.518L855.747 678.44M584.253 734.751L599.336 748.829L614.419 734.751M644.585 734.751L659.668 748.829L674.751 734.751M704.917 734.751L720 748.829L735.083 734.751M765.249 734.751L780.332 748.829L795.415 734.751M825.581 734.751L840.664 748.829L855.747 734.751M584.253 791.063L599.336 805.141L614.419 791.063M644.585 791.063L659.668 805.141L674.751 791.063M704.917 791.063L720 805.141L735.083 791.063M765.249 791.063L780.332 805.141L795.415 791.063M825.581 791.063L840.664 805.141L855.747 791.063M584.253 843.676L599.336 857.754L614.419 843.676M644.585 843.676L659.668 857.754L674.751 843.676M704.917 843.676L720 857.754L735.083 843.676M765.249 843.676L780.332 857.754L795.415 843.676M825.581 843.676L840.664 857.754L855.747 843.676M584.253 899.988L599.336 914.065L614.419 899.988M644.585 899.988L659.668 914.065L674.751 899.988M704.917 899.988L720 914.065L735.083 899.988M765.249 899.988L780.332 914.065L795.415 899.988M825.581 899.988L840.664 914.065L855.747 899.988M584.253 956.299L599.336 970.377L614.419 956.299M644.585 956.299L659.668 970.377L674.751 956.299M704.917 956.299L720 970.377L735.083 956.299M765.249 956.299L780.332 970.377L795.415 956.299M825.581 956.299L840.664 970.377L855.747 956.299M584.253 1012.61L599.336 1026.69L614.419 1012.61M644.585 1012.61L659.668 1026.69L674.751 1012.61M704.917 1012.61L720 1026.69L735.083 1012.61M765.249 1012.61L780.332 1026.69L795.415 1012.61M825.581 1012.61L840.664 1026.69L855.747 1012.61M584.253 1068.92L599.336 1083L614.419 1068.92M644.585 1068.92L659.668 1083L674.751 1068.92M704.917 1068.92L720 1083L735.083 1068.92M765.249 1068.92L780.332 1083L795.415 1068.92M825.581 1068.92L840.664 1083L855.747 1068.92M876.38 3L891.463 17.0779L906.546 3M936.712 3L951.795 17.0779L966.878 3M997.044 3L1012.13 17.0779L1027.21 3M1057.38 3L1072.46 17.0779L1087.54 3M1117.71 3L1132.79 17.0779L1147.87 3M876.38 59.3115L891.463 73.3894L906.546 59.3115M936.712 59.3115L951.795 73.3894L966.878 59.3115M997.044 59.3115L1012.13 73.3894L1027.21 59.3115M1057.38 59.3115L1072.46 73.3894L1087.54 59.3115M1117.71 59.3115L1132.79 73.3894L1147.87 59.3115M876.38 115.623L891.463 129.701L906.546 115.623M936.712 115.623L951.795 129.701L966.878 115.623M997.044 115.623L1012.13 129.701L1027.21 115.623M1057.38 115.623L1072.46 129.701L1087.54 115.623M1117.71 115.623L1132.79 129.701L1147.87 115.623M876.38 171.935L891.463 186.012L906.546 171.935M936.712 171.935L951.795 186.012L966.878 171.935M997.044 171.935L1012.13 186.012L1027.21 171.935M1057.38 171.935L1072.46 186.012L1087.54 171.935M1117.71 171.935L1132.79 186.012L1147.87 171.935M876.38 228.246L891.463 242.324L906.546 228.246M936.712 228.246L951.795 242.324L966.878 228.246M997.044 228.246L1012.13 242.324L1027.21 228.246M1057.38 228.246L1072.46 242.324L1087.54 228.246M1117.71 228.246L1132.79 242.324L1147.87 228.246M876.38 280.859L891.463 294.937L906.546 280.859M936.712 280.859L951.795 294.937L966.878 280.859M997.044 280.859L1012.13 294.937L1027.21 280.859M1057.38 280.859L1072.46 294.937L1087.54 280.859M1117.71 280.859L1132.79 294.937L1147.87 280.859M876.38 337.171L891.463 351.249L906.546 337.171M936.712 337.171L951.795 351.249L966.878 337.171M997.044 337.171L1012.13 351.249L1027.21 337.171M1057.38 337.171L1072.46 351.249L1087.54 337.171M1117.71 337.171L1132.79 351.249L1147.87 337.171M876.38 393.482L891.463 407.56L906.546 393.482M936.712 393.482L951.795 407.56L966.878 393.482M997.044 393.482L1012.13 407.56L1027.21 393.482M1057.38 393.482L1072.46 407.56L1087.54 393.482M1117.71 393.482L1132.79 407.56L1147.87 393.482M876.38 449.794L891.463 463.872L906.546 449.794M936.712 449.794L951.795 463.872L966.878 449.794M997.044 449.794L1012.13 463.872L1027.21 449.794M1057.38 449.794L1072.46 463.872L1087.54 449.794M1117.71 449.794L1132.79 463.872L1147.87 449.794M876.38 506.105L891.463 520.183L906.546 506.105M936.712 506.105L951.795 520.183L966.878 506.105M997.044 506.105L1012.13 520.183L1027.21 506.105M1057.38 506.105L1072.46 520.183L1087.54 506.105M1117.71 506.105L1132.79 520.183L1147.87 506.105M876.38 565.817L891.463 579.895L906.546 565.817M936.712 565.817L951.795 579.895L966.878 565.817M997.044 565.817L1012.13 579.895L1027.21 565.817M1057.38 565.817L1072.46 579.895L1087.54 565.817M1117.71 565.817L1132.79 579.895L1147.87 565.817M876.38 622.128L891.463 636.206L906.546 622.128M936.712 622.128L951.795 636.206L966.878 622.128M997.044 622.128L1012.13 636.206L1027.21 622.128M1057.38 622.128L1072.46 636.206L1087.54 622.128M1117.71 622.128L1132.79 636.206L1147.87 622.128M876.38 678.44L891.463 692.518L906.546 678.44M936.712 678.44L951.795 692.518L966.878 678.44M997.044 678.44L1012.13 692.518L1027.21 678.44M1057.38 678.44L1072.46 692.518L1087.54 678.44M1117.71 678.44L1132.79 692.518L1147.87 678.44M876.38 734.751L891.463 748.829L906.546 734.751M936.712 734.751L951.795 748.829L966.878 734.751M997.044 734.751L1012.13 748.829L1027.21 734.751M1057.38 734.751L1072.46 748.829L1087.54 734.751M1117.71 734.751L1132.79 748.829L1147.87 734.751M876.38 791.063L891.463 805.141L906.546 791.063M936.712 791.063L951.795 805.141L966.878 791.063M997.044 791.063L1012.13 805.141L1027.21 791.063M1057.38 791.063L1072.46 805.141L1087.54 791.063M1117.71 791.063L1132.79 805.141L1147.87 791.063M876.38 843.676L891.463 857.754L906.546 843.676M936.712 843.676L951.795 857.754L966.878 843.676M997.044 843.676L1012.13 857.754L1027.21 843.676M1057.38 843.676L1072.46 857.754L1087.54 843.676M1117.71 843.676L1132.79 857.754L1147.87 843.676M876.38 899.988L891.463 914.065L906.546 899.988M936.712 899.988L951.795 914.065L966.878 899.988M997.044 899.988L1012.13 914.065L1027.21 899.988M1057.38 899.988L1072.46 914.065L1087.54 899.988M1117.71 899.988L1132.79 914.065L1147.87 899.988M876.38 956.299L891.463 970.377L906.546 956.299M936.712 956.299L951.795 970.377L966.878 956.299M997.044 956.299L1012.13 970.377L1027.21 956.299M1057.38 956.299L1072.46 970.377L1087.54 956.299M1117.71 956.299L1132.79 970.377L1147.87 956.299M876.38 1012.61L891.463 1026.69L906.546 1012.61M936.712 1012.61L951.795 1026.69L966.878 1012.61M997.044 1012.61L1012.13 1026.69L1027.21 1012.61M1057.38 1012.61L1072.46 1026.69L1087.54 1012.61M1117.71 1012.61L1132.79 1026.69L1147.87 1012.61M876.38 1068.92L891.463 1083L906.546 1068.92M936.712 1068.92L951.795 1083L966.878 1068.92M997.044 1068.92L1012.13 1083L1027.21 1068.92M1057.38 1068.92L1072.46 1083L1087.54 1068.92M1117.71 1068.92L1132.79 1083L1147.87 1068.92M1168.51 3L1183.59 17.0779L1198.67 3M1228.84 3L1243.92 17.0779L1259 3M1289.17 3L1304.25 17.0779L1319.34 3M1349.5 3L1364.59 17.0779L1379.67 3M1409.83 3L1424.92 17.0779L1440 3M1168.51 59.3115L1183.59 73.3894L1198.67 59.3115M1228.84 59.3115L1243.92 73.3894L1259 59.3115M1289.17 59.3115L1304.25 73.3894L1319.34 59.3115M1349.5 59.3115L1364.59 73.3894L1379.67 59.3115M1409.83 59.3115L1424.92 73.3894L1440 59.3115M1168.51 115.623L1183.59 129.701L1198.67 115.623M1228.84 115.623L1243.92 129.701L1259 115.623M1289.17 115.623L1304.25 129.701L1319.34 115.623M1349.5 115.623L1364.59 129.701L1379.67 115.623M1409.83 115.623L1424.92 129.701L1440 115.623M1168.51 171.935L1183.59 186.012L1198.67 171.935M1228.84 171.935L1243.92 186.012L1259 171.935M1289.17 171.935L1304.25 186.012L1319.34 171.935M1349.5 171.935L1364.59 186.012L1379.67 171.935M1409.83 171.935L1424.92 186.012L1440 171.935M1168.51 228.246L1183.59 242.324L1198.67 228.246M1228.84 228.246L1243.92 242.324L1259 228.246M1289.17 228.246L1304.25 242.324L1319.34 228.246M1349.5 228.246L1364.59 242.324L1379.67 228.246M1409.83 228.246L1424.92 242.324L1440 228.246M1168.51 280.859L1183.59 294.937L1198.67 280.859M1228.84 280.859L1243.92 294.937L1259 280.859M1289.17 280.859L1304.25 294.937L1319.34 280.859M1349.5 280.859L1364.59 294.937L1379.67 280.859M1409.83 280.859L1424.92 294.937L1440 280.859M1168.51 337.171L1183.59 351.249L1198.67 337.171M1228.84 337.171L1243.92 351.249L1259 337.171M1289.17 337.171L1304.25 351.249L1319.34 337.171M1349.5 337.171L1364.59 351.249L1379.67 337.171M1409.83 337.171L1424.92 351.249L1440 337.171M1168.51 393.482L1183.59 407.56L1198.67 393.482M1228.84 393.482L1243.92 407.56L1259 393.482M1289.17 393.482L1304.25 407.56L1319.34 393.482M1349.5 393.482L1364.59 407.56L1379.67 393.482M1409.83 393.482L1424.92 407.56L1440 393.482M1168.51 449.794L1183.59 463.872L1198.67 449.794M1228.84 449.794L1243.92 463.872L1259 449.794M1289.17 449.794L1304.25 463.872L1319.34 449.794M1349.5 449.794L1364.59 463.872L1379.67 449.794M1409.83 449.794L1424.92 463.872L1440 449.794M1168.51 506.105L1183.59 520.183L1198.67 506.105M1228.84 506.105L1243.92 520.183L1259 506.105M1289.17 506.105L1304.25 520.183L1319.34 506.105M1349.5 506.105L1364.59 520.183L1379.67 506.105M1409.83 506.105L1424.92 520.183L1440 506.105M1168.51 565.817L1183.59 579.895L1198.67 565.817M1228.84 565.817L1243.92 579.895L1259 565.817M1289.17 565.817L1304.25 579.895L1319.34 565.817M1349.5 565.817L1364.59 579.895L1379.67 565.817M1409.83 565.817L1424.92 579.895L1440 565.817M1168.51 622.128L1183.59 636.206L1198.67 622.128M1228.84 622.128L1243.92 636.206L1259 622.128M1289.17 622.128L1304.25 636.206L1319.34 622.128M1349.5 622.128L1364.59 636.206L1379.67 622.128M1409.83 622.128L1424.92 636.206L1440 622.128M1168.51 678.44L1183.59 692.518L1198.67 678.44M1228.84 678.44L1243.92 692.518L1259 678.44M1289.17 678.44L1304.25 692.518L1319.34 678.44M1349.5 678.44L1364.59 692.518L1379.67 678.44M1409.83 678.44L1424.92 692.518L1440 678.44M1168.51 734.751L1183.59 748.829L1198.67 734.751M1228.84 734.751L1243.92 748.829L1259 734.751M1289.17 734.751L1304.25 748.829L1319.34 734.751M1349.5 734.751L1364.59 748.829L1379.67 734.751M1409.83 734.751L1424.92 748.829L1440 734.751M1168.51 791.063L1183.59 805.141L1198.67 791.063M1228.84 791.063L1243.92 805.141L1259 791.063M1289.17 791.063L1304.25 805.141L1319.34 791.063M1349.5 791.063L1364.59 805.141L1379.67 791.063M1409.83 791.063L1424.92 805.141L1440 791.063M1168.51 843.676L1183.59 857.754L1198.67 843.676M1228.84 843.676L1243.92 857.754L1259 843.676M1289.17 843.676L1304.25 857.754L1319.34 843.676M1349.5 843.676L1364.59 857.754L1379.67 843.676M1409.83 843.676L1424.92 857.754L1440 843.676M1168.51 899.988L1183.59 914.065L1198.67 899.988M1228.84 899.988L1243.92 914.065L1259 899.988M1289.17 899.988L1304.25 914.065L1319.34 899.988M1349.5 899.988L1364.59 914.065L1379.67 899.988M1409.83 899.988L1424.92 914.065L1440 899.988M1168.51 956.299L1183.59 970.377L1198.67 956.299M1228.84 956.299L1243.92 970.377L1259 956.299M1289.17 956.299L1304.25 970.377L1319.34 956.299M1349.5 956.299L1364.59 970.377L1379.67 956.299M1409.83 956.299L1424.92 970.377L1440 956.299M1168.51 1012.61L1183.59 1026.69L1198.67 1012.61M1228.84 1012.61L1243.92 1026.69L1259 1012.61M1289.17 1012.61L1304.25 1026.69L1319.34 1012.61M1349.5 1012.61L1364.59 1026.69L1379.67 1012.61M1409.83 1012.61L1424.92 1026.69L1440 1012.61M1168.51 1068.92L1183.59 1083L1198.67 1068.92M1228.84 1068.92L1243.92 1083L1259 1068.92M1289.17 1068.92L1304.25 1083L1319.34 1068.92M1349.5 1068.92L1364.59 1083L1379.67 1068.92M1409.83 1068.92L1424.92 1083L1440 1068.92" stroke="#160B35" stroke-width="6" stroke-linecap="round"/>
</svg>
