<svg width="141" height="154" viewBox="0 0 141 154" fill="none" xmlns="http://www.w3.org/2000/svg">
<g id="pic">
<mask id="mask0_18_1649" style="mask-type:alpha" maskUnits="userSpaceOnUse" x="0" y="0" width="141" height="154">
<rect id="Rectangle 5" width="141" height="154" fill="#D9D9D9"/>
</mask>
<g mask="url(#mask0_18_1649)">
<g id="Group 10">
<path id="Vector" d="M92.1076 19.7667C86.0143 23.9934 79.6376 28.0834 72.9776 32.0367C67.9876 34.9967 58.4276 34.5967 52.7976 34.5267" stroke="#8B7A36" stroke-width="2"/>
<path id="Vector_2" d="M52.7976 34.5267C48.671 33.8 44.4643 33.8 40.1776 34.5267C38.5243 34.8067 36.6443 34.9334 34.5376 34.9067C31.8376 34.8734 29.141 35.2667 26.4476 36.0867" stroke="#1B1F44" stroke-width="2"/>
<path id="Vector_3" d="M26.4476 36.0867C26.5676 36.2333 26.6876 36.38 26.8076 36.5267" stroke="#8B7A36" stroke-width="2"/>
<path id="Vector_4" d="M26.8077 36.5267C26.0943 36.7267 25.7943 37.3267 25.9077 38.3267C26.9943 47.8467 28.5943 59.1734 30.7077 72.3067C30.761 72.6201 30.711 72.9134 30.5577 73.1867L10.1377 110.537C10.0411 110.712 9.99377 110.91 10.0008 111.111C10.0078 111.311 10.0689 111.507 10.1777 111.677L22.2477 130.617C22.4343 130.91 22.701 131.043 23.0477 131.017C34.3377 130.347 46.7677 131.867 57.5877 128.987" stroke="#1B1F44" stroke-width="2"/>
<path id="Vector_5" d="M57.5876 128.987L62.3477 128.767" stroke="#523246" stroke-width="2"/>
<path id="Vector_6" d="M62.3477 128.767C64.0977 128.787 65.5776 128.777 67.1176 129.797C76.931 136.283 86.5143 142.737 95.8676 149.157C96.0889 149.308 96.3391 149.412 96.6025 149.462C96.8659 149.511 97.1367 149.506 97.3979 149.446C97.6591 149.386 97.905 149.272 98.1201 149.112C98.3352 148.952 98.5148 148.75 98.6476 148.517C105.274 136.87 111.791 125.333 118.198 113.907C118.918 112.62 119.894 111.567 121.128 110.747C134.828 101.677 145.888 95.5467 157.748 87.2167C158.228 86.8834 158.634 86.6801 158.968 86.6067C159.125 86.5729 159.271 86.5014 159.395 86.3983C159.518 86.2952 159.614 86.1636 159.675 86.0149C159.736 85.8663 159.76 85.705 159.745 85.545C159.73 85.3851 159.676 85.2312 159.588 85.0967C156.008 79.5634 152.541 73.9467 149.188 68.2467C147.328 65.0967 145.178 63.9067 142.328 61.9067C137.394 58.4401 132.468 54.9867 127.548 51.5467C127.281 51.3534 127.128 51.0967 127.088 50.7767C126.281 44.3367 125.314 37.9134 124.188 31.5067C122.918 24.2567 115.608 14.6967 111.308 8.54675C110.928 7.99341 110.434 7.86008 109.828 8.14675C103.494 11.0867 97.5877 14.9601 92.1077 19.7667" stroke="#1D1440" stroke-width="2"/>
<path id="Vector_7" d="M62.3477 128.767L66.1377 127.707" stroke="#572721" stroke-width="2"/>
<path id="Vector_8" d="M66.1376 127.707L93.8476 146.147" stroke="#914B11" stroke-width="2"/>
<path id="Vector_9" d="M93.8477 146.147L96.6377 148.057C96.9577 148.277 97.211 148.22 97.3976 147.887C104.018 136.253 110.581 124.597 117.088 112.917C117.774 111.683 118.714 110.69 119.908 109.937C132.208 102.143 144.494 94.35 156.768 86.5567C156.901 86.4767 157.011 86.3734 157.098 86.2467C157.198 86.1134 157.294 85.9867 157.388 85.8667" stroke="#8F5014" stroke-width="2"/>
<path id="Vector_10" d="M157.388 85.8667C157.654 85.8734 157.874 85.7567 158.048 85.5167C158.254 85.2301 158.264 84.9334 158.078 84.6267C154.778 79.2601 151.431 73.8834 148.038 68.4967C147.104 67.0234 145.924 65.7801 144.498 64.7667C138.224 60.3401 132.028 56.0101 125.908 51.7767" stroke="#906612" stroke-width="2"/>
<path id="Vector_11" d="M125.908 51.7767C125.081 44.8634 124.054 38.1734 122.828 31.7067C122.438 29.6667 122.538 28.4667 121.398 26.5367C118.184 21.1101 114.954 16.1467 111.708 11.6467" stroke="#914B11" stroke-width="2"/>
<path id="Vector_12" d="M111.708 11.6467C111.928 10.9867 111.541 10.2067 110.548 9.30671C110.261 9.05337 109.954 9.02338 109.628 9.21671L92.1077 19.7667" stroke="#917011" stroke-width="2"/>
<path id="Vector_13" d="M66.1376 127.707L64.8176 127.347" stroke="#C66916" stroke-width="2"/>
<path id="Vector_14" d="M125.908 51.7767L118.018 46.8767" stroke="#FEA808" stroke-width="2"/>
<path id="Vector_15" d="M93.8476 146.147C94.2976 144.037 94.0976 142.207 92.6276 140.407C90.0009 137.207 87.7643 133.833 85.9176 130.287" stroke="#FE910A" stroke-width="2"/>
<path id="Vector_16" d="M111.708 11.6467C113.421 25.7334 115.154 36.9534 116.908 45.3067C117.048 45.9534 117.418 46.4767 118.018 46.8767" stroke="#FFB107" stroke-width="2"/>
<path id="Vector_17" d="M118.018 46.8767C119.044 49.6834 120.444 52.2434 122.218 54.5567C123.688 56.4967 126.168 57.3867 127.648 59.8567C127.828 60.15 127.878 60.46 127.798 60.7867C126.488 66.3567 131.458 69.5467 135.038 72.8767C135.331 73.1567 135.631 73.1601 135.938 72.8867C139.238 69.8734 142.584 68.2734 145.978 68.0867" stroke="#FECD08" stroke-width="2"/>
<path id="Vector_18" d="M145.978 68.0868L108.658 91.8268C107.634 92.4764 106.788 93.3736 106.198 94.4368L89.0876 125.167" stroke="#FEB60A" stroke-width="2"/>
<path id="Vector_19" d="M89.0877 125.167C85.4943 119.867 81.931 114.53 78.3977 109.157C70.0177 96.4367 60.6477 84.2667 51.9277 71.6767C46.7977 64.2867 43.2477 56.1667 37.9577 48.8567C36.5077 46.8567 33.3377 42.6867 33.2077 40.1867C33.1888 39.8066 33.0885 39.4351 32.9138 39.0972C32.739 38.7594 32.4939 38.4633 32.195 38.2289C31.8962 37.9945 31.5506 37.8275 31.1818 37.7391C30.8129 37.6507 30.4296 37.6431 30.0577 37.7167C27.5277 38.2167 28.5677 42.9167 29.2477 44.9667C30.5777 48.9967 30.0877 52.6367 31.1477 56.4567C32.6877 61.9867 32.0077 67.6767 33.7677 73.0367C33.8744 73.35 33.841 73.65 33.6677 73.9367C26.4477 85.9067 20.0177 98.3367 13.0677 110.457C12.7277 111.047 12.8377 111.457 13.0777 112.037" stroke="#FFDF08" stroke-width="2"/>
<path id="Vector_20" d="M13.0776 112.037L12.6976 113.597" stroke="#FEB60A" stroke-width="2"/>
<path id="Vector_21" d="M12.6977 113.597L11.4076 111.517C11.2276 111.223 11.221 110.923 11.3877 110.617L31.6776 73.7367C31.851 73.4167 31.9143 73.0767 31.8676 72.7167L26.8076 36.5267" stroke="#8F7B15" stroke-width="2"/>
<path id="Vector_22" d="M26.4476 36.0867C35.461 36.0467 44.2443 35.5267 52.7976 34.5267" stroke="#8F7B15" stroke-width="2"/>
<path id="Vector_23" d="M57.2176 110.937C57.0176 111.05 56.9043 111.11 56.8776 111.117C56.8006 111.124 56.7276 111.152 56.6656 111.198C56.6036 111.245 56.5548 111.308 56.5237 111.383C56.4926 111.457 56.4802 111.54 56.4879 111.623C56.4956 111.706 56.5231 111.786 56.5676 111.857L65.1776 125.487C65.3509 125.767 65.3743 126.057 65.2476 126.357L64.8176 127.347" stroke="#FE910A" stroke-width="2"/>
<path id="Vector_24" d="M64.8177 127.347L45.3376 128.867" stroke="#C46E1A" stroke-width="2"/>
<path id="Vector_25" d="M89.0876 125.167L85.9176 130.287" stroke="#FEBF0B" stroke-width="2"/>
<path id="Vector_26" d="M85.9177 130.287L57.2177 110.937" stroke="#FFBA07" stroke-width="2"/>
<path id="Vector_27" d="M57.2176 110.937C55.8376 110.13 54.641 109.757 53.6276 109.817C44.6676 110.317 35.7043 110.74 26.7376 111.087C22.4576 111.257 17.6576 111.827 13.0776 112.037" stroke="#FEBF0B" stroke-width="2"/>
<path id="Vector_28" d="M12.6976 113.597L22.4776 129.167C22.6618 129.46 22.9214 129.698 23.2293 129.856C23.5372 130.015 23.882 130.087 24.2276 130.067L45.3376 128.867" stroke="#8E5B18" stroke-width="2"/>
<path id="Vector_29" d="M45.3376 128.867L57.5876 128.987" stroke="#563324" stroke-width="2"/>
<path id="Vector_30" d="M62.3475 128.767L66.1375 127.707L93.8475 146.147L96.6375 148.057C96.9575 148.277 97.2109 148.22 97.3975 147.887C104.018 136.253 110.581 124.597 117.088 112.917C117.774 111.683 118.714 110.69 119.908 109.937C132.208 102.143 144.494 94.3501 156.768 86.5567C156.901 86.4767 157.011 86.3734 157.098 86.2467C157.198 86.1134 157.294 85.9867 157.388 85.8667C157.654 85.8734 157.874 85.7567 158.048 85.5167C158.254 85.2301 158.264 84.9334 158.078 84.6267C154.778 79.2601 151.431 73.8834 148.038 68.4967C147.104 67.0234 145.924 65.7801 144.498 64.7667C138.224 60.3401 132.028 56.0101 125.908 51.7767C125.081 44.8634 124.054 38.1734 122.828 31.7067C122.438 29.6667 122.538 28.4667 121.398 26.5367C118.184 21.1101 114.954 16.1467 111.708 11.6467C111.928 10.9867 111.541 10.2067 110.548 9.30674C110.261 9.05341 109.954 9.02341 109.628 9.21675L92.1075 19.7667C97.5875 14.9601 103.494 11.0867 109.828 8.14675C110.434 7.86008 110.928 7.99341 111.308 8.54675C115.608 14.6967 122.918 24.2567 124.188 31.5067C125.314 37.9134 126.281 44.3367 127.088 50.7767C127.128 51.0967 127.281 51.3534 127.548 51.5467C132.468 54.9867 137.394 58.4401 142.328 61.9067C145.178 63.9067 147.328 65.0967 149.188 68.2467C152.541 73.9467 156.008 79.5634 159.588 85.0967C159.676 85.2312 159.729 85.3851 159.745 85.545C159.76 85.705 159.736 85.8663 159.675 86.0149C159.614 86.1636 159.518 86.2952 159.394 86.3983C159.271 86.5014 159.125 86.5729 158.968 86.6067C158.634 86.6801 158.228 86.8834 157.748 87.2167C145.888 95.5467 134.828 101.677 121.128 110.747C119.894 111.567 118.918 112.62 118.198 113.907C111.791 125.333 105.274 136.87 98.6475 148.517C98.5147 148.75 98.3351 148.952 98.12 149.112C97.9049 149.272 97.659 149.386 97.3978 149.446C97.1366 149.506 96.8657 149.511 96.6024 149.462C96.339 149.412 96.0888 149.308 95.8675 149.157C86.5142 142.737 76.9309 136.283 67.1175 129.797C65.5775 128.777 64.0975 128.787 62.3475 128.767Z" fill="#22091B"/>
<path id="Vector_31" d="M111.708 11.6467C113.421 25.7334 115.154 36.9534 116.908 45.3067C117.048 45.9534 117.418 46.4767 118.018 46.8767C119.044 49.6834 120.444 52.2434 122.218 54.5567C123.688 56.4967 126.168 57.3867 127.648 59.8567C127.828 60.15 127.878 60.46 127.798 60.7867C126.488 66.3567 131.458 69.5467 135.038 72.8767C135.331 73.1567 135.631 73.16 135.938 72.8867C139.238 69.8734 142.584 68.2734 145.978 68.0867L108.658 91.8267C107.634 92.4763 106.788 93.3736 106.198 94.4367L89.0875 125.167C85.4942 119.867 81.9308 114.53 78.3975 109.157C70.0175 96.4367 60.6475 84.2667 51.9275 71.6767C46.7975 64.2867 43.2475 56.1667 37.9575 48.8567C36.5075 46.8567 33.3375 42.6867 33.2075 40.1867C33.1886 39.8067 33.0884 39.4351 32.9136 39.0973C32.7389 38.7594 32.4937 38.4633 32.1949 38.2289C31.896 37.9946 31.5504 37.8275 31.1816 37.7391C30.8128 37.6507 30.4294 37.6431 30.0575 37.7167C27.5275 38.2167 28.5675 42.9167 29.2475 44.9667C30.5775 48.9967 30.0875 52.6367 31.1475 56.4567C32.6875 61.9867 32.0075 67.6767 33.7675 73.0367C33.8742 73.35 33.8409 73.65 33.6675 73.9367C26.4475 85.9067 20.0175 98.3367 13.0675 110.457C12.7275 111.047 12.8375 111.457 13.0775 112.037L12.6975 113.597L11.4075 111.517C11.2275 111.223 11.2209 110.923 11.3875 110.617L31.6775 73.7367C31.8508 73.4167 31.9142 73.0767 31.8675 72.7167L26.8075 36.5267C26.6875 36.38 26.5675 36.2334 26.4475 36.0867C35.4609 36.0467 44.2442 35.5267 52.7975 34.5267C58.4275 34.5967 67.9875 34.9967 72.9775 32.0367C79.6375 28.0834 86.0142 23.9934 92.1075 19.7667L109.628 9.21671C109.954 9.02338 110.261 9.05337 110.548 9.30671C111.541 10.2067 111.928 10.9867 111.708 11.6467Z" fill="#FFD607"/>
<path id="Vector_32" d="M111.708 11.6467C114.954 16.1467 118.184 21.1101 121.398 26.5367C122.538 28.4667 122.438 29.6667 122.828 31.7067C124.054 38.1734 125.081 44.8634 125.908 51.7767L118.018 46.8767C117.418 46.4767 117.048 45.9534 116.908 45.3067C115.154 36.9534 113.421 25.7334 111.708 11.6467Z" fill="#FF8C06"/>
<path id="Vector_33" d="M52.7976 34.5268C44.2443 35.5268 35.461 36.0468 26.4476 36.0868C29.141 35.2668 31.8376 34.8735 34.5376 34.9068C36.6443 34.9335 38.5243 34.8068 40.1776 34.5268C44.4643 33.8001 48.671 33.8001 52.7976 34.5268Z" fill="#1F2022"/>
<path id="Vector_34" d="M26.8075 36.5267L31.8675 72.7167C31.9142 73.0767 31.8509 73.4167 31.6775 73.7367L11.3876 110.617C11.2209 110.923 11.2275 111.223 11.4075 111.517L12.6976 113.597L22.4776 129.167C22.6617 129.46 22.9213 129.698 23.2292 129.857C23.5371 130.015 23.8819 130.087 24.2276 130.067L45.3375 128.867L57.5875 128.987C46.7675 131.867 34.3376 130.347 23.0476 131.017C22.7009 131.043 22.4342 130.91 22.2475 130.617L10.1775 111.677C10.0688 111.507 10.0077 111.311 10.0007 111.111C9.99365 110.91 10.0409 110.712 10.1376 110.537L30.5575 73.1867C30.7109 72.9134 30.7609 72.6201 30.7075 72.3067C28.5942 59.1734 26.9942 47.8467 25.9075 38.3267C25.7942 37.3267 26.0942 36.7267 26.8075 36.5267Z" fill="#1F2022"/>
<path id="Vector_35" d="M89.0876 125.167L85.9176 130.287L57.2176 110.937C55.8376 110.13 54.6409 109.757 53.6276 109.817C44.6676 110.317 35.7042 110.74 26.7375 111.087C22.4575 111.257 17.6576 111.827 13.0776 112.037C12.8376 111.457 12.7276 111.047 13.0676 110.457C20.0176 98.3368 26.4476 85.9068 33.6676 73.9368C33.8409 73.6501 33.8742 73.3501 33.7676 73.0368C32.0076 67.6768 32.6875 61.9868 31.1476 56.4568C30.0876 52.6368 30.5776 48.9968 29.2476 44.9668C28.5676 42.9168 27.5276 38.2168 30.0576 37.7168C30.4294 37.6432 30.8128 37.6508 31.1816 37.7392C31.5505 37.8276 31.896 37.9947 32.1949 38.229C32.4938 38.4634 32.7389 38.7595 32.9137 39.0974C33.0884 39.4352 33.1886 39.8068 33.2075 40.1868C33.3375 42.6868 36.5075 46.8568 37.9575 48.8568C43.2475 56.1668 46.7976 64.2868 51.9276 71.6768C60.6476 84.2668 70.0176 96.4368 78.3976 109.157C81.9309 114.53 85.4942 119.867 89.0876 125.167Z" fill="#FFE708"/>
<path id="Vector_36" d="M118.018 46.8768L125.908 51.7768C132.028 56.0102 138.224 60.3402 144.498 64.7668C145.924 65.7802 147.104 67.0235 148.038 68.4968C151.431 73.8835 154.778 79.2602 158.078 84.6268C158.264 84.9335 158.254 85.2302 158.048 85.5168C157.874 85.7568 157.654 85.8735 157.388 85.8668C157.168 85.6802 156.911 85.5668 156.618 85.5268C156.504 85.5068 156.471 85.4468 156.518 85.3468C156.564 85.2535 156.594 85.1602 156.608 85.0668C156.628 84.9268 156.588 84.7802 156.488 84.6268C152.874 79.1468 149.371 73.6335 145.978 68.0868C142.584 68.2735 139.238 69.8735 135.938 72.8868C135.631 73.1602 135.331 73.1568 135.038 72.8768C131.458 69.5468 126.488 66.3568 127.798 60.7868C127.878 60.4602 127.828 60.1502 127.648 59.8568C126.168 57.3868 123.688 56.4968 122.218 54.5568C120.444 52.2435 119.044 49.6835 118.018 46.8768Z" fill="#FDC309"/>
<path id="Vector_37" d="M145.978 68.0868C149.371 73.6335 152.874 79.1468 156.488 84.6268C156.588 84.7801 156.628 84.9268 156.608 85.0668C156.594 85.1601 156.564 85.2535 156.518 85.3468C156.471 85.4468 156.504 85.5068 156.618 85.5268C156.911 85.5668 157.168 85.6801 157.388 85.8668C157.294 85.9868 157.198 86.1134 157.098 86.2468C157.011 86.3734 156.901 86.4768 156.768 86.5568C144.494 94.3501 132.208 102.143 119.908 109.937C118.714 110.69 117.774 111.683 117.088 112.917C110.581 124.597 104.018 136.253 97.3976 147.887C97.2109 148.22 96.9576 148.277 96.6376 148.057L93.8476 146.147C94.2976 144.037 94.0976 142.207 92.6276 140.407C90.0009 137.207 87.7643 133.833 85.9176 130.287L89.0876 125.167L106.198 94.4368C106.788 93.3736 107.634 92.4764 108.658 91.8268L145.978 68.0868Z" fill="#FC960D"/>
<path id="Vector_38" d="M57.2176 110.937C57.0176 111.05 56.9043 111.11 56.8776 111.117C56.8006 111.124 56.7276 111.152 56.6656 111.198C56.6036 111.245 56.5548 111.308 56.5237 111.383C56.4925 111.457 56.4802 111.54 56.4879 111.623C56.4956 111.706 56.5231 111.786 56.5676 111.857L65.1776 125.487C65.3509 125.767 65.3743 126.057 65.2476 126.357L64.8176 127.347L45.3376 128.867L24.2276 130.067C23.882 130.088 23.5372 130.015 23.2293 129.857C22.9214 129.698 22.6618 129.46 22.4776 129.167L12.6976 113.597L13.0776 112.037C17.6576 111.827 22.4576 111.257 26.7376 111.087C35.7043 110.74 44.6676 110.317 53.6276 109.817C54.641 109.757 55.8376 110.13 57.2176 110.937Z" fill="#FC960D"/>
<path id="Vector_39" d="M57.2176 110.937L85.9176 130.287C87.7643 133.833 90.001 137.207 92.6276 140.407C94.0976 142.207 94.2976 144.037 93.8476 146.147L66.1376 127.707L64.8176 127.347L65.2476 126.357C65.3743 126.057 65.3509 125.767 65.1776 125.487L56.5676 111.857C56.5231 111.786 56.4956 111.706 56.4879 111.623C56.4802 111.54 56.4926 111.457 56.5237 111.383C56.5548 111.308 56.6036 111.245 56.6656 111.198C56.7276 111.152 56.8006 111.124 56.8776 111.117C56.9043 111.11 57.0176 111.05 57.2176 110.937Z" fill="#FF8C06"/>
<path id="Vector_40" d="M64.8175 127.347L66.1375 127.707L62.3475 128.767L57.5875 128.987L45.3375 128.867L64.8175 127.347Z" fill="#8C4526"/>
</g>
</g>
</g>
</svg>
