<svg width="157" height="160" viewBox="0 0 157 160" fill="none" xmlns="http://www.w3.org/2000/svg">
<g id="pic">
<g id="Group 10">
<path id="Vector" d="M3.16707 74.6202C2.84707 76.3602 2.98709 77.8602 3.58709 79.1202C8.66709 89.8402 14.9971 102.364 22.5771 116.69C25.2471 121.72 28.9071 125.81 33.6571 128.06C53.9038 137.62 74.1638 147.147 94.4371 156.64C96.3171 157.52 98.1671 157.38 100.107 157.17" stroke="#616893" stroke-width="2"/>
<path id="Vector_2" d="M100.107 157.17C102.547 156.417 104.154 155.524 104.927 154.49C119.767 134.51 134.63 114.544 149.517 94.5902C154.027 88.5402 153.927 84.2402 150.457 77.3002C142.064 60.4869 135.964 48.5002 132.157 41.3402C131.53 40.1669 130.277 38.6669 128.397 36.8402" stroke="#787EA7" stroke-width="2"/>
<path id="Vector_3" d="M128.397 36.8402C126.47 34.8336 123.387 32.8336 119.147 30.8402C101 22.3136 82.8604 13.7736 64.7271 5.22024C58.8271 2.44024 54.1171 1.49023 49.9871 7.06023C35.1604 27.0602 20.2804 47.0169 5.34708 66.9302C3.48708 69.4102 2.76039 71.9736 3.16706 74.6202" stroke="#8B8FB2" stroke-width="2"/>
<path id="Vector_4" d="M128.397 36.8402L75.0571 108.47" stroke="#ECEEF4" stroke-width="2"/>
<path id="Vector_5" d="M75.0571 108.47L3.16711 74.6202" stroke="#D5D8E0" stroke-width="2"/>
<path id="Vector_6" d="M100.107 157.17C99.6671 156.93 99.3905 156.434 99.2771 155.68C99.2238 155.367 99.1238 155.07 98.9771 154.79L75.0571 108.47" stroke="#C2C7D5" stroke-width="2"/>
<path id="Vector_7" d="M75.7063 49.1958C74.5774 46.9315 72.3632 45.324 69.5509 44.727C66.7386 44.1301 63.5586 44.5925 60.7104 46.0125C59.3001 46.7157 58.0137 47.6327 56.9247 48.7114C55.8357 49.7901 54.9653 51.0093 54.3634 52.2993C53.7614 53.5893 53.4396 54.9249 53.4164 56.2298C53.3932 57.5347 53.6689 58.7834 54.2279 59.9046C55.3569 62.1689 57.571 63.7764 60.3833 64.3734C63.1956 64.9704 66.3756 64.508 69.2238 63.0879C70.6341 62.3848 71.9205 61.4677 73.0095 60.389C74.0986 59.3103 74.9689 58.0911 75.5708 56.8011C76.1728 55.5111 76.4946 54.1756 76.5178 52.8706C76.5411 51.5657 76.2653 50.317 75.7063 49.1958Z" stroke="#8F9091" stroke-width="2"/>
<path id="Vector_8" d="M120.104 94.9043C121.553 95.5802 123.473 95.0911 125.442 93.5447C127.411 91.9984 129.267 89.5213 130.602 86.6586C131.937 83.7958 132.641 80.7818 132.561 78.2796C132.48 75.7774 131.62 73.992 130.17 73.3161C128.721 72.6402 126.801 73.1293 124.832 74.6756C122.863 76.222 121.007 78.699 119.672 81.5618C118.337 84.4245 117.633 87.4385 117.714 89.9407C117.794 92.4429 118.654 94.2284 120.104 94.9043Z" stroke="#7C7F85" stroke-width="2"/>
<path id="Vector_9" d="M99.9184 122.019C101.358 122.69 103.272 122.191 105.239 120.631C107.206 119.072 109.064 116.579 110.406 113.702C111.07 112.277 111.588 110.801 111.929 109.357C112.269 107.914 112.427 106.532 112.393 105.289C112.359 104.047 112.133 102.969 111.728 102.116C111.324 101.264 110.749 100.654 110.036 100.322C108.596 99.6504 106.682 100.149 104.715 101.709C102.749 103.269 100.89 105.762 99.5483 108.639C98.8839 110.063 98.3665 111.54 98.0256 112.983C97.6847 114.426 97.5269 115.809 97.5613 117.051C97.5956 118.294 97.8215 119.372 98.2259 120.224C98.6303 121.077 99.2054 121.686 99.9184 122.019Z" stroke="#7C7F85" stroke-width="2"/>
<path id="Vector_10" d="M74.7092 49.7179C73.7105 47.7147 71.7315 46.3026 69.2076 45.7924C66.6837 45.2821 63.8217 45.7154 61.2512 46.997C58.6807 48.2786 56.6123 50.3035 55.5009 52.6263C54.3896 54.949 54.3263 57.3793 55.325 59.3825C56.3238 61.3858 58.3028 62.7978 60.8267 63.3081C63.3505 63.8184 66.2125 63.385 68.783 62.1034C71.3535 60.8218 73.422 58.7969 74.5333 56.4742C75.6447 54.1515 75.708 51.7212 74.7092 49.7179Z" stroke="#262729" stroke-width="2"/>
<path id="Vector_11" d="M120.898 93.7346C121.49 93.9943 122.186 94 122.947 93.7512C123.708 93.5025 124.519 93.0042 125.334 92.2848C126.149 91.5655 126.951 90.6392 127.696 89.5587C128.44 88.4783 129.112 87.2649 129.672 85.9879C130.233 84.7109 130.671 83.3952 130.963 82.116C131.254 80.8368 131.393 79.6191 131.371 78.5325C131.349 77.4459 131.167 76.5116 130.835 75.783C130.503 75.0544 130.027 74.5457 129.436 74.286C128.844 74.0263 128.148 74.0206 127.387 74.2694C126.626 74.5181 125.815 75.0164 125 75.7357C124.185 76.4551 123.383 77.3814 122.638 78.4619C121.894 79.5423 121.223 80.7557 120.662 82.0327C120.101 83.3097 119.663 84.6254 119.371 85.9046C119.08 87.1838 118.941 88.4014 118.963 89.4881C118.985 90.5747 119.167 91.509 119.499 92.2376C119.831 92.9662 120.307 93.4749 120.898 93.7346Z" stroke="#262729" stroke-width="2"/>
<path id="Vector_12" d="M42.2749 108.363C42.5614 107.977 42.5964 107.41 42.3778 106.695C42.1592 105.979 41.6914 105.129 41.0009 104.193C40.3104 103.257 39.4109 102.253 38.3537 101.239C37.2965 100.225 36.1023 99.2199 34.8393 98.2819C33.5762 97.3438 32.2691 96.491 30.9926 95.7721C29.716 95.0531 28.495 94.4822 27.3993 94.0917C26.3035 93.7013 25.3545 93.4991 24.6064 93.4966C23.8583 93.4941 23.3258 93.6915 23.0393 94.0774C22.7527 94.4632 22.7177 95.0301 22.9363 95.7455C23.1549 96.461 23.6227 97.311 24.3132 98.2471C25.0036 99.1832 25.9032 100.187 26.9604 101.201C28.0176 102.216 29.2118 103.22 30.4748 104.158C31.7379 105.096 33.045 105.949 34.3215 106.668C35.5981 107.387 36.8191 107.958 37.9148 108.349C39.0105 108.739 39.9596 108.941 40.7077 108.944C41.4558 108.946 41.9883 108.749 42.2749 108.363Z" stroke="#656972" stroke-width="2"/>
<path id="Vector_13" d="M69.9471 121.406C70.5308 120.618 70.0802 119.113 68.6945 117.225C67.3087 115.336 65.1014 113.218 62.5579 111.336C60.0145 109.454 57.3434 107.962 55.1322 107.189C52.921 106.416 51.3508 106.425 50.7671 107.214C50.1835 108.003 50.6341 109.507 52.0198 111.396C53.4055 113.284 55.6129 115.403 58.1563 117.285C60.6998 119.167 63.3709 120.658 65.5821 121.431C67.7933 122.204 69.3634 122.195 69.9471 121.406Z" stroke="#656972" stroke-width="2"/>
<path id="Vector_14" d="M50.9788 125.621C51.5578 124.838 51.1077 123.344 49.7277 121.467C48.3477 119.589 46.1507 117.483 43.62 115.61C42.367 114.683 41.0697 113.841 39.8023 113.133C38.535 112.424 37.3223 111.863 36.2335 111.482C35.1448 111.1 34.2013 110.905 33.4569 110.908C32.7126 110.911 32.1819 111.112 31.8952 111.5C31.3163 112.282 31.7663 113.776 33.1464 115.654C34.5264 117.531 36.7234 119.638 39.254 121.51C40.5071 122.438 41.8044 123.279 43.0718 123.988C44.3391 124.696 45.5518 125.257 46.6406 125.639C47.7293 126.021 48.6728 126.215 49.4172 126.212C50.1615 126.209 50.6922 126.008 50.9788 125.621Z" stroke="#656972" stroke-width="2"/>
<path id="Vector_15" d="M78.6965 138.747C78.9831 138.362 79.0203 137.796 78.8062 137.084C78.5921 136.372 78.1307 135.527 77.4485 134.597C76.7662 133.667 75.8764 132.67 74.8299 131.664C73.7834 130.658 72.6007 129.661 71.3493 128.732C68.8219 126.855 66.1682 125.364 63.9718 124.588C61.7755 123.812 60.2164 123.814 59.6377 124.593C59.3511 124.979 59.3138 125.544 59.5279 126.256C59.7421 126.968 60.2034 127.814 60.8857 128.744C61.5679 129.674 62.4577 130.67 63.5042 131.677C64.5507 132.683 65.7334 133.679 66.9849 134.609C69.5122 136.485 72.166 137.976 74.3623 138.752C76.5587 139.528 78.1177 139.527 78.6965 138.747Z" stroke="#656972" stroke-width="2"/>
<path id="Vector_16" d="M40.9766 107.376C41.1904 107.081 41.1851 106.632 40.961 106.054C40.737 105.476 40.2985 104.78 39.6706 104.006C39.0428 103.232 38.2379 102.395 37.3018 101.542C36.3658 100.69 35.317 99.8397 34.2153 99.0393C33.1135 98.2388 31.9805 97.5041 30.8808 96.8772C29.7811 96.2503 28.7363 95.7434 27.806 95.3855C26.8758 95.0276 26.0783 94.8257 25.4592 94.7913C24.84 94.7569 24.4114 94.8906 24.1976 95.1849C23.9837 95.4792 23.989 95.9283 24.2131 96.5065C24.4371 97.0847 24.8756 97.7807 25.5035 98.5548C26.1313 99.3289 26.9362 100.166 27.8723 101.018C28.8083 101.87 29.8571 102.721 30.9589 103.521C32.0606 104.322 33.1937 105.056 34.2934 105.683C35.3931 106.31 36.4379 106.817 37.3681 107.175C38.2983 107.533 39.0958 107.735 39.7149 107.769C40.3341 107.804 40.7628 107.67 40.9766 107.376Z" stroke="#262729" stroke-width="2"/>
<path id="Vector_17" d="M100.527 120.746C101.686 121.279 103.266 120.771 104.92 119.333C106.574 117.895 108.167 115.646 109.347 113.08C110.527 110.514 111.199 107.841 111.214 105.65C111.229 103.458 110.586 101.928 109.427 101.395C108.268 100.862 106.688 101.37 105.034 102.807C103.38 104.245 101.787 106.494 100.607 109.06C99.4269 111.626 98.7553 114.299 98.7402 116.491C98.7252 118.682 99.3678 120.213 100.527 120.746Z" stroke="#262729" stroke-width="2"/>
<path id="Vector_18" d="M68.7911 120.427C69.0074 120.131 69.0059 119.681 68.7865 119.101C68.5671 118.521 68.1341 117.823 67.5123 117.046C66.8905 116.27 66.092 115.431 65.1625 114.577C64.233 113.723 63.1906 112.871 62.0948 112.069C59.8819 110.449 57.586 109.133 55.7121 108.41C53.8383 107.687 52.5401 107.616 52.103 108.213C51.8866 108.509 51.8882 108.96 52.1076 109.54C52.327 110.12 52.76 110.818 53.3818 111.594C54.0036 112.37 54.802 113.209 55.7316 114.063C56.6611 114.917 57.7035 115.77 58.7992 116.572C61.0122 118.191 63.3081 119.507 65.182 120.23C67.0558 120.953 68.354 121.024 68.7911 120.427Z" stroke="#262729" stroke-width="2"/>
<path id="Vector_19" d="M49.769 124.589C50.2008 123.995 49.7277 122.78 48.4536 121.212C47.1795 119.644 45.2089 117.852 42.9753 116.229C41.8693 115.426 40.732 114.688 39.6284 114.058C38.5248 113.428 37.4764 112.919 36.5432 112.559C35.6099 112.199 34.8101 111.995 34.1893 111.959C33.5686 111.924 33.139 112.057 32.9253 112.351C32.4935 112.946 32.9666 114.16 34.2407 115.728C35.5147 117.296 37.4853 119.088 39.719 120.711C40.825 121.515 41.9622 122.252 43.0659 122.882C44.1695 123.512 45.2179 124.021 46.1511 124.382C47.0844 124.742 47.8842 124.945 48.505 124.981C49.1257 125.016 49.5553 124.883 49.769 124.589Z" stroke="#262729" stroke-width="2"/>
<path id="Vector_20" d="M77.4842 137.823C77.6986 137.533 77.6928 137.084 77.4673 136.503C77.2418 135.923 76.801 135.221 76.17 134.438C75.539 133.656 74.7302 132.808 73.7897 131.943C72.8493 131.078 71.7957 130.213 70.689 129.397C68.4539 127.749 66.1385 126.402 64.252 125.652C62.3656 124.902 61.0626 124.81 60.6298 125.397C60.4155 125.688 60.4213 126.136 60.6468 126.717C60.8723 127.298 61.3131 128 61.9441 128.782C62.5751 129.565 63.3839 130.413 64.3244 131.278C65.2648 132.143 66.3185 133.008 67.4252 133.824C69.6602 135.472 71.9756 136.819 73.8621 137.569C75.7485 138.319 77.0514 138.41 77.4842 137.823Z" stroke="#262729" stroke-width="2"/>
<path id="Vector_21" d="M128.397 36.8402L75.0571 108.47L3.16706 74.6202C2.76039 71.9736 3.48708 69.4102 5.34708 66.9302C20.2804 47.0169 35.1604 27.0602 49.9871 7.06023C54.1171 1.49023 58.8271 2.44024 64.7271 5.22024C82.8604 13.7736 101 22.3136 119.147 30.8402C123.387 32.8336 126.47 34.8336 128.397 36.8402ZM75.7063 49.1958C74.5773 46.9315 72.3631 45.3241 69.5509 44.7271C66.7386 44.1301 63.5586 44.5925 60.7104 46.0125C59.3001 46.7157 58.0137 47.6328 56.9247 48.7114C55.8356 49.7901 54.9653 51.0093 54.3633 52.2993C53.7614 53.5893 53.4396 54.9249 53.4164 56.2298C53.3931 57.5347 53.6689 58.7834 54.2279 59.9046C55.3568 62.1689 57.571 63.7764 60.3832 64.3734C63.1955 64.9704 66.3755 64.508 69.2238 63.0879C70.6341 62.3848 71.9205 61.4677 73.0095 60.389C74.0985 59.3103 74.9688 58.0912 75.5708 56.8012C76.1728 55.5112 76.4946 54.1756 76.5178 52.8707C76.541 51.5657 76.2653 50.317 75.7063 49.1958Z" fill="white"/>
<path id="Vector_22" d="M128.397 36.8403C130.277 38.667 131.53 40.167 132.157 41.3403C135.964 48.5003 142.064 60.487 150.457 77.3003C153.927 84.2403 154.027 88.5403 149.517 94.5903C134.63 114.544 119.767 134.51 104.927 154.49C104.154 155.524 102.547 156.417 100.107 157.17C99.667 156.93 99.3903 156.434 99.277 155.68C99.2237 155.367 99.1237 155.07 98.977 154.79L75.057 108.47L128.397 36.8403ZM120.104 94.9044C121.553 95.5803 123.473 95.0913 125.442 93.5449C127.411 91.9985 129.267 89.5215 130.602 86.6587C131.937 83.796 132.641 80.782 132.56 78.2798C132.48 75.7776 131.62 73.9921 130.17 73.3162C128.721 72.6404 126.801 73.1294 124.832 74.6758C122.863 76.2221 121.007 78.6992 119.672 81.5619C118.337 84.4247 117.633 87.4387 117.714 89.9409C117.794 92.4431 118.654 94.2286 120.104 94.9044ZM99.9183 122.019C101.358 122.69 103.272 122.191 105.239 120.631C107.205 119.072 109.064 116.579 110.406 113.702C111.07 112.277 111.588 110.801 111.928 109.358C112.269 107.914 112.427 106.532 112.393 105.289C112.358 104.047 112.133 102.969 111.728 102.116C111.324 101.264 110.749 100.654 110.036 100.322C108.596 99.6505 106.682 100.15 104.715 101.709C102.749 103.269 100.89 105.762 99.5482 108.639C98.8839 110.063 98.3665 111.54 98.0255 112.983C97.6846 114.427 97.5268 115.809 97.5612 117.051C97.5956 118.294 97.8214 119.372 98.2258 120.224C98.6303 121.077 99.2054 121.686 99.9183 122.019Z" fill="#D8DDE8"/>
<path id="Vector_23" d="M75.7063 49.1958C76.2653 50.317 76.5411 51.5657 76.5178 52.8706C76.4946 54.1756 76.1728 55.5111 75.5708 56.8011C74.9689 58.0911 74.0986 59.3103 73.0095 60.389C71.9205 61.4677 70.6341 62.3848 69.2238 63.0879C66.3756 64.508 63.1956 64.9704 60.3833 64.3734C57.571 63.7764 55.3569 62.1689 54.2279 59.9046C53.6689 58.7834 53.3932 57.5347 53.4164 56.2298C53.4396 54.9249 53.7614 53.5893 54.3634 52.2993C54.9653 51.0093 55.8357 49.7901 56.9247 48.7114C58.0137 47.6327 59.3001 46.7157 60.7104 46.0125C63.5586 44.5925 66.7386 44.1301 69.5509 44.727C72.3632 45.324 74.5774 46.9315 75.7063 49.1958ZM74.7092 49.7179C73.7104 47.7147 71.7314 46.3026 69.2076 45.7924C66.6837 45.2821 63.8217 45.7154 61.2512 46.997C58.6807 48.2786 56.6123 50.3035 55.5009 52.6262C54.3895 54.949 54.3262 57.3793 55.325 59.3825C56.3238 61.3857 58.3028 62.7978 60.8266 63.3081C63.3505 63.8183 66.2125 63.385 68.783 62.1034C71.3535 60.8218 73.4219 58.7969 74.5333 56.4742C75.6447 54.1515 75.708 51.7212 74.7092 49.7179Z" fill="#1F2022"/>
<path id="Vector_24" d="M74.7091 49.7179C75.7079 51.7212 75.6446 54.1515 74.5332 56.4742C73.4218 58.7969 71.3534 60.8218 68.7829 62.1034C66.2124 63.385 63.3504 63.8184 60.8266 63.3081C58.3027 62.7978 56.3237 61.3858 55.3249 59.3825C54.3261 57.3793 54.3894 54.949 55.5008 52.6263C56.6122 50.3035 58.6806 48.2786 61.2511 46.997C63.8216 45.7154 66.6836 45.2821 69.2075 45.7924C71.7313 46.3026 73.7103 47.7147 74.7091 49.7179Z" fill="#2C2D2F"/>
<path id="Vector_25" d="M120.104 94.9044C118.654 94.2285 117.794 92.4431 117.714 89.9409C117.633 87.4387 118.337 84.4246 119.672 81.5619C121.007 78.6991 122.863 76.2221 124.832 74.6757C126.801 73.1294 128.721 72.6403 130.17 73.3162C131.62 73.9921 132.48 75.7775 132.561 78.2797C132.641 80.7819 131.937 83.7959 130.602 86.6587C129.267 89.5215 127.411 91.9985 125.442 93.5449C123.473 95.0912 121.553 95.5803 120.104 94.9044ZM120.898 93.7346C121.49 93.9943 122.186 94 122.947 93.7512C123.708 93.5025 124.519 93.0042 125.334 92.2848C126.149 91.5655 126.951 90.6392 127.696 89.5587C128.44 88.4783 129.112 87.2649 129.672 85.9879C130.233 84.7109 130.671 83.3952 130.963 82.116C131.254 80.8368 131.393 79.6191 131.371 78.5325C131.349 77.4459 131.167 76.5116 130.835 75.783C130.503 75.0544 130.027 74.5457 129.436 74.286C128.844 74.0263 128.148 74.0206 127.387 74.2694C126.626 74.5181 125.815 75.0164 125 75.7357C124.185 76.4551 123.383 77.3814 122.638 78.4619C121.894 79.5423 121.222 80.7557 120.662 82.0327C120.101 83.3097 119.663 84.6254 119.371 85.9046C119.08 87.1838 118.941 88.4014 118.963 89.4881C118.985 90.5747 119.167 91.509 119.499 92.2376C119.831 92.9662 120.307 93.4749 120.898 93.7346Z" fill="#1F2022"/>
<path id="Vector_26" d="M120.898 93.7346C120.307 93.4749 119.831 92.9662 119.499 92.2376C119.167 91.509 118.985 90.5747 118.963 89.4881C118.941 88.4014 119.08 87.1838 119.371 85.9046C119.663 84.6254 120.101 83.3097 120.662 82.0327C121.223 80.7557 121.894 79.5423 122.638 78.4619C123.383 77.3814 124.185 76.4551 125 75.7357C125.815 75.0164 126.626 74.5181 127.387 74.2694C128.148 74.0206 128.844 74.0263 129.436 74.286C130.027 74.5457 130.503 75.0544 130.835 75.783C131.167 76.5116 131.349 77.4459 131.371 78.5325C131.393 79.6191 131.254 80.8368 130.963 82.116C130.671 83.3952 130.233 84.7109 129.672 85.9879C129.112 87.2649 128.44 88.4783 127.696 89.5587C126.951 90.6392 126.149 91.5655 125.334 92.2848C124.519 93.0042 123.708 93.5025 122.947 93.7512C122.186 94 121.49 93.9943 120.898 93.7346Z" fill="#2C2D2F"/>
<path id="Vector_27" d="M3.16695 74.6202L75.057 108.47L98.977 154.79C99.1236 155.07 99.2236 155.367 99.277 155.68C99.3903 156.434 99.667 156.93 100.107 157.17C98.167 157.38 96.317 157.52 94.437 156.64C74.1636 147.147 53.9036 137.62 33.657 128.06C28.907 125.81 25.247 121.72 22.577 116.69C14.997 102.364 8.66697 89.8402 3.58697 79.1202C2.98697 77.8602 2.84695 76.3602 3.16695 74.6202ZM42.2748 108.363C42.5613 107.977 42.5963 107.41 42.3777 106.695C42.1592 105.979 41.6913 105.129 41.0008 104.193C40.3104 103.257 39.4108 102.253 38.3536 101.239C37.2964 100.225 36.1022 99.22 34.8392 98.282C33.5761 97.3439 32.269 96.4911 30.9925 95.7722C29.7159 95.0532 28.4949 94.4823 27.3992 94.0918C26.3035 93.7014 25.3544 93.4992 24.6063 93.4967C23.8582 93.4942 23.3257 93.6916 23.0392 94.0775C22.7526 94.4633 22.7176 95.0302 22.9362 95.7456C23.1548 96.4611 23.6226 97.3111 24.3131 98.2472C25.0036 99.1833 25.9031 100.187 26.9603 101.201C28.0175 102.216 29.2117 103.221 30.4748 104.159C31.7378 105.097 33.0449 105.949 34.3214 106.668C35.598 107.387 36.819 107.958 37.9147 108.349C39.0105 108.739 39.9595 108.941 40.7076 108.944C41.4557 108.946 41.9882 108.749 42.2748 108.363ZM69.947 121.406C70.5306 120.618 70.08 119.113 68.6943 117.225C67.3086 115.336 65.1012 113.218 62.5578 111.336C60.0143 109.454 57.3432 107.962 55.132 107.189C52.9208 106.416 51.3506 106.425 50.767 107.214C50.1833 108.003 50.6339 109.507 52.0196 111.396C53.4054 113.284 55.6127 115.403 58.1562 117.285C60.6996 119.167 63.3707 120.658 65.5819 121.431C67.7931 122.204 69.3633 122.195 69.947 121.406ZM50.9788 125.621C51.5577 124.838 51.1077 123.344 49.7276 121.467C48.3476 119.589 46.1506 117.483 43.62 115.61C42.3669 114.683 41.0697 113.841 39.8023 113.133C38.5349 112.424 37.3222 111.863 36.2335 111.482C35.1447 111.1 34.2012 110.905 33.4568 110.908C32.7125 110.911 32.1818 111.112 31.8952 111.5C31.3162 112.282 31.7662 113.776 33.1463 115.654C34.5263 117.531 36.7233 119.638 39.254 121.51C40.507 122.438 41.8043 123.279 43.0717 123.988C44.3391 124.696 45.5517 125.257 46.6405 125.639C47.7292 126.021 48.6727 126.215 49.4171 126.212C50.1615 126.209 50.6921 126.008 50.9788 125.621ZM78.6964 138.747C78.983 138.362 79.0202 137.796 78.8061 137.084C78.5919 136.372 78.1306 135.527 77.4484 134.597C76.7661 133.667 75.8763 132.67 74.8298 131.664C73.7833 130.658 72.6006 129.661 71.3492 128.732C68.8218 126.855 66.1681 125.364 63.9717 124.588C61.7754 123.812 60.2163 123.814 59.6376 124.593C59.351 124.979 59.3137 125.544 59.5278 126.256C59.742 126.968 60.2033 127.814 60.8856 128.744C61.5678 129.674 62.4576 130.67 63.5041 131.677C64.5506 132.683 65.7333 133.679 66.9848 134.609C69.5121 136.486 72.1659 137.976 74.3622 138.752C76.5586 139.528 78.1176 139.527 78.6964 138.747Z" fill="#ABB1C1"/>
<path id="Vector_28" d="M42.2749 108.363C41.9883 108.749 41.4558 108.946 40.7077 108.944C39.9596 108.941 39.0105 108.739 37.9148 108.349C36.8191 107.958 35.5981 107.387 34.3215 106.668C33.045 105.949 31.7379 105.097 30.4748 104.159C29.2118 103.221 28.0176 102.216 26.9604 101.201C25.9032 100.187 25.0036 99.1834 24.3132 98.2472C23.6227 97.3111 23.1549 96.4611 22.9363 95.7456C22.7177 95.0302 22.7527 94.4633 23.0393 94.0775C23.3258 93.6916 23.8583 93.4943 24.6064 93.4967C25.3545 93.4992 26.3035 93.7014 27.3993 94.0919C28.495 94.4823 29.716 95.0532 30.9926 95.7722C32.2691 96.4911 33.5762 97.344 34.8393 98.282C36.1023 99.22 37.2965 100.225 38.3537 101.239C39.4109 102.253 40.3104 103.257 41.0009 104.193C41.6914 105.129 42.1592 105.979 42.3778 106.695C42.5964 107.41 42.5614 107.977 42.2749 108.363ZM40.9766 107.376C41.1904 107.081 41.1851 106.632 40.961 106.054C40.7369 105.476 40.2985 104.78 39.6706 104.006C39.0428 103.232 38.2379 102.395 37.3018 101.542C36.3658 100.69 35.317 99.8397 34.2153 99.0393C33.1135 98.2388 31.9805 97.5042 30.8808 96.8773C29.7811 96.2503 28.7363 95.7435 27.806 95.3856C26.8758 95.0276 26.0783 94.8257 25.4592 94.7913C24.84 94.7569 24.4114 94.8906 24.1976 95.185C23.9837 95.4792 23.989 95.9283 24.2131 96.5065C24.4371 97.0847 24.8756 97.7807 25.5035 98.5548C26.1313 99.3289 26.9362 100.166 27.8723 101.018C28.8083 101.87 29.8571 102.721 30.9589 103.521C32.0606 104.322 33.1937 105.056 34.2934 105.683C35.3931 106.31 36.4379 106.817 37.3681 107.175C38.2983 107.533 39.0958 107.735 39.7149 107.769C40.3341 107.804 40.7628 107.67 40.9766 107.376Z" fill="#1F2022"/>
<path id="Vector_29" d="M40.9766 107.376C40.7628 107.67 40.3341 107.804 39.7149 107.769C39.0958 107.735 38.2983 107.533 37.3681 107.175C36.4379 106.817 35.3931 106.31 34.2934 105.683C33.1937 105.056 32.0606 104.322 30.9589 103.521C29.8571 102.721 28.8083 101.87 27.8723 101.018C26.9362 100.166 26.1313 99.3289 25.5035 98.5548C24.8756 97.7807 24.4371 97.0847 24.2131 96.5065C23.989 95.9283 23.9837 95.4792 24.1976 95.1849C24.4114 94.8906 24.84 94.7569 25.4592 94.7913C26.0783 94.8257 26.8758 95.0276 27.806 95.3855C28.7363 95.7434 29.7811 96.2503 30.8808 96.8772C31.9805 97.5041 33.1135 98.2388 34.2153 99.0393C35.317 99.8397 36.3658 100.69 37.3018 101.542C38.2379 102.395 39.0428 103.232 39.6706 104.006C40.2985 104.78 40.737 105.476 40.961 106.054C41.1851 106.632 41.1904 107.081 40.9766 107.376Z" fill="#2C2D2F"/>
<path id="Vector_30" d="M99.9184 122.019C99.2054 121.686 98.6303 121.077 98.2259 120.224C97.8215 119.372 97.5956 118.294 97.5613 117.051C97.5269 115.809 97.6847 114.426 98.0256 112.983C98.3665 111.54 98.8839 110.063 99.5483 108.639C100.89 105.762 102.749 103.269 104.715 101.709C106.682 100.149 108.596 99.6504 110.036 100.322C110.749 100.654 111.324 101.264 111.728 102.116C112.133 102.969 112.359 104.047 112.393 105.289C112.427 106.532 112.269 107.914 111.929 109.357C111.588 110.801 111.07 112.277 110.406 113.702C109.064 116.579 107.206 119.072 105.239 120.631C103.272 122.191 101.358 122.69 99.9184 122.019ZM100.527 120.746C101.686 121.279 103.266 120.771 104.92 119.333C106.574 117.896 108.167 115.646 109.347 113.08C110.527 110.514 111.199 107.841 111.214 105.65C111.229 103.458 110.586 101.928 109.427 101.395C108.268 100.862 106.688 101.37 105.034 102.807C103.38 104.245 101.787 106.494 100.607 109.06C99.4269 111.626 98.7554 114.299 98.7403 116.491C98.7252 118.682 99.3678 120.213 100.527 120.746Z" fill="#1F2022"/>
<path id="Vector_31" d="M100.527 120.746C99.3678 120.213 98.7252 118.682 98.7402 116.491C98.7553 114.299 99.4269 111.626 100.607 109.06C101.787 106.494 103.38 104.245 105.034 102.807C106.688 101.37 108.268 100.862 109.427 101.395C110.586 101.928 111.229 103.458 111.214 105.65C111.199 107.841 110.527 110.514 109.347 113.08C108.167 115.646 106.574 117.896 104.92 119.333C103.266 120.771 101.686 121.279 100.527 120.746Z" fill="#2C2D2F"/>
<path id="Vector_32" d="M69.947 121.406C69.3633 122.195 67.7932 122.204 65.582 121.431C63.3708 120.658 60.6996 119.167 58.1562 117.285C55.6128 115.403 53.4054 113.284 52.0197 111.396C50.6339 109.507 50.1833 108.003 50.767 107.214C51.3507 106.425 52.9209 106.416 55.1321 107.189C57.3433 107.962 60.0144 109.454 62.5578 111.336C65.1012 113.218 67.3086 115.336 68.6944 117.225C70.0801 119.113 70.5307 120.618 69.947 121.406ZM68.791 120.427C69.0074 120.132 69.0059 119.681 68.7865 119.101C68.5671 118.521 68.1341 117.823 67.5123 117.047C66.8905 116.27 66.092 115.431 65.1625 114.577C64.233 113.723 63.1906 112.871 62.0948 112.069C59.8819 110.449 57.5859 109.133 55.7121 108.41C53.8383 107.687 52.5401 107.616 52.103 108.213C51.8866 108.509 51.8882 108.96 52.1076 109.54C52.327 110.12 52.76 110.818 53.3818 111.594C54.0036 112.37 54.802 113.209 55.7316 114.063C56.6611 114.917 57.7035 115.77 58.7992 116.572C61.0122 118.191 63.3081 119.507 65.1819 120.23C67.0558 120.954 68.354 121.024 68.791 120.427Z" fill="#1F2022"/>
<path id="Vector_33" d="M68.7911 120.427C68.354 121.024 67.0558 120.953 65.182 120.23C63.3081 119.507 61.0122 118.191 58.7992 116.572C57.7035 115.77 56.6611 114.917 55.7316 114.063C54.802 113.209 54.0036 112.37 53.3818 111.594C52.76 110.818 52.327 110.12 52.1076 109.54C51.8882 108.96 51.8866 108.509 52.103 108.213C52.5401 107.616 53.8383 107.687 55.7121 108.41C57.586 109.133 59.8819 110.449 62.0948 112.069C63.1906 112.871 64.233 113.723 65.1625 114.577C66.092 115.431 66.8905 116.27 67.5123 117.046C68.1341 117.823 68.5671 118.521 68.7865 119.101C69.0059 119.681 69.0075 120.131 68.7911 120.427Z" fill="#2C2D2F"/>
<path id="Vector_34" d="M50.9788 125.621C50.6922 126.008 50.1615 126.209 49.4172 126.212C48.6728 126.216 47.7293 126.021 46.6406 125.639C45.5518 125.257 44.3391 124.696 43.0718 123.988C41.8044 123.28 40.5071 122.438 39.254 121.511C36.7234 119.638 34.5264 117.531 33.1464 115.654C31.7663 113.777 31.3163 112.282 31.8952 111.5C32.1819 111.112 32.7126 110.911 33.4569 110.908C34.2013 110.905 35.1448 111.1 36.2335 111.482C37.3223 111.863 38.535 112.424 39.8023 113.133C41.0697 113.841 42.367 114.683 43.62 115.61C46.1507 117.483 48.3477 119.589 49.7277 121.467C51.1077 123.344 51.5578 124.838 50.9788 125.621ZM49.7689 124.589C50.2007 123.995 49.7276 122.78 48.4535 121.212C47.1794 119.645 45.2088 117.852 42.9752 116.229C41.8692 115.426 40.7319 114.688 39.6283 114.058C38.5247 113.429 37.4763 112.919 36.5431 112.559C35.6098 112.199 34.81 111.995 34.1892 111.96C33.5684 111.924 33.1389 112.057 32.9251 112.352C32.4933 112.946 32.9665 114.161 34.2406 115.728C35.5146 117.296 37.4852 119.089 39.7188 120.711C40.8248 121.515 41.9621 122.253 43.0658 122.882C44.1694 123.512 45.2178 124.022 46.151 124.382C47.0843 124.742 47.8841 124.945 48.5049 124.981C49.1256 125.017 49.5551 124.883 49.7689 124.589Z" fill="#1F2022"/>
<path id="Vector_35" d="M49.7689 124.589C49.5551 124.883 49.1256 125.016 48.5048 124.981C47.8841 124.945 47.0842 124.742 46.151 124.382C45.2177 124.021 44.1694 123.512 43.0658 122.882C41.9621 122.252 40.8248 121.515 39.7188 120.711C37.4852 119.088 35.5146 117.296 34.2406 115.728C32.9665 114.16 32.4933 112.946 32.9251 112.351C33.1389 112.057 33.5684 111.924 34.1892 111.959C34.81 111.995 35.6098 112.199 36.5431 112.559C37.4763 112.919 38.5247 113.428 39.6283 114.058C40.7319 114.688 41.8692 115.426 42.9752 116.229C45.2088 117.852 47.1794 119.644 48.4535 121.212C49.7275 122.78 50.2007 123.995 49.7689 124.589Z" fill="#2C2D2F"/>
<path id="Vector_36" d="M78.6965 138.747C78.1177 139.527 76.5587 139.528 74.3623 138.752C72.166 137.976 69.5122 136.485 66.9849 134.609C65.7334 133.679 64.5507 132.683 63.5042 131.677C62.4577 130.67 61.5679 129.674 60.8857 128.744C60.2034 127.814 59.7421 126.968 59.5279 126.256C59.3138 125.544 59.3511 124.979 59.6377 124.593C60.2164 123.814 61.7755 123.812 63.9718 124.588C66.1682 125.364 68.8219 126.855 71.3493 128.732C72.6007 129.661 73.7834 130.658 74.8299 131.664C75.8764 132.67 76.7662 133.667 77.4485 134.597C78.1307 135.527 78.5921 136.372 78.8062 137.084C79.0203 137.796 78.9831 138.362 78.6965 138.747ZM77.4843 137.823C77.6986 137.533 77.6929 137.084 77.4674 136.503C77.2419 135.923 76.801 135.221 76.17 134.438C75.539 133.656 74.7302 132.808 73.7897 131.943C72.8493 131.078 71.7957 130.213 70.689 129.397C68.4539 127.749 66.1385 126.402 64.2521 125.652C62.3656 124.902 61.0627 124.81 60.6299 125.397C60.4155 125.688 60.4213 126.136 60.6468 126.717C60.8723 127.298 61.3131 128 61.9441 128.782C62.5751 129.564 63.3839 130.412 64.3244 131.278C65.2648 132.143 66.3185 133.008 67.4252 133.824C69.6602 135.472 71.9756 136.819 73.8621 137.569C75.7485 138.319 77.0515 138.41 77.4843 137.823Z" fill="#1F2022"/>
<path id="Vector_37" d="M77.4842 137.823C77.0514 138.41 75.7485 138.319 73.8621 137.569C71.9756 136.819 69.6602 135.472 67.4252 133.824C66.3185 133.008 65.2648 132.143 64.3244 131.278C63.3839 130.413 62.5751 129.565 61.9441 128.782C61.3131 128 60.8723 127.298 60.6468 126.717C60.4213 126.136 60.4155 125.688 60.6298 125.397C61.0626 124.81 62.3656 124.902 64.252 125.652C66.1385 126.402 68.4539 127.749 70.689 129.397C71.7957 130.213 72.8493 131.078 73.7897 131.943C74.7302 132.808 75.539 133.656 76.17 134.438C76.801 135.221 77.2418 135.923 77.4673 136.503C77.6928 137.084 77.6986 137.533 77.4842 137.823Z" fill="#2C2D2F"/>
</g>
</g>
</svg>
