<svg width="104" height="143" viewBox="0 0 104 143" fill="none" xmlns="http://www.w3.org/2000/svg">
<g id="vector">
<path id="Vector" d="M58.4103 2.53501C57.3036 2.28835 56.1536 2.65168 54.9603 3.62501C53.4103 4.87501 53.4503 6.61501 54.5903 8.09501" stroke="#986F4C" stroke-width="2"/>
<path id="Vector_2" d="M54.5898 8.09497C53.9098 8.71497 53.5631 9.58161 53.5498 10.6949" stroke="#74503F" stroke-width="2"/>
<path id="Vector_3" d="M53.5506 10.695C49.8206 10.285 44.8305 11.075 44.0605 15.175" stroke="#367342" stroke-width="2"/>
<path id="Vector_4" d="M44.0598 15.175C43.1998 21.8684 42.3598 28.3884 41.5398 34.735C41.0398 38.605 39.9098 37.7351 36.8398 39.1251" stroke="#5D8848" stroke-width="2"/>
<path id="Vector_5" d="M36.8401 39.125C31.0201 41.2917 21.8235 44.8817 9.25015 49.895C5.11682 51.5417 3.00349 54.4583 2.91016 58.645" stroke="#477C44" stroke-width="2"/>
<path id="Vector_6" d="M2.91056 58.645C0.64389 77.6184 1.59722 96.045 5.77055 113.925" stroke="#5D8848" stroke-width="2"/>
<path id="Vector_7" d="M5.77051 113.925C7.24051 120.545 8.30051 126.345 14.0005 130.145C20.2872 134.338 27.1338 137.312 34.5405 139.065" stroke="#477C44" stroke-width="2"/>
<path id="Vector_8" d="M34.54 139.065C41.92 141.265 56.13 144.065 62.66 138.795C67.9 134.555 72.88 129.622 77.6 123.995C82.71 117.905 106.94 85.525 102.22 78.425C99.2467 73.9517 95.1634 68.3483 89.97 61.615" stroke="#367342" stroke-width="2"/>
<path id="Vector_9" d="M89.9706 61.6148L80.5506 48.8648C80.4534 48.7342 80.393 48.5794 80.3755 48.416C80.3579 48.2527 80.3838 48.0866 80.4506 47.9348L86.8506 33.2148" stroke="#477C44" stroke-width="2"/>
<path id="Vector_10" d="M86.8503 33.215L89.7003 26.405C89.8336 26.0783 89.8236 25.7516 89.6703 25.425C88.3836 22.7916 86.4203 20.7616 83.7803 19.335" stroke="#367342" stroke-width="2"/>
<path id="Vector_11" d="M83.7803 19.3351L84.2303 17.2451" stroke="#74503F" stroke-width="2"/>
<path id="Vector_12" d="M84.2304 17.2451C86.8104 14.2451 87.6504 12.3151 83.9004 9.49512" stroke="#986F4C" stroke-width="2"/>
<path id="Vector_13" d="M83.9001 9.49493C80.0801 2.82493 65.2802 -1.44506 58.4102 2.53494" stroke="#917C66" stroke-width="2"/>
<path id="Vector_14" d="M83.9001 9.49515C81.8201 10.2451 80.3302 11.0451 78.0602 10.9951C69.8735 10.8151 63.3235 7.99516 58.4102 2.53516" stroke="#E2A159" stroke-width="2"/>
<path id="Vector_15" d="M84.2298 17.245C73.3898 17.405 63.1798 14.715 54.5898 8.09497" stroke="#C57532" stroke-width="2"/>
<path id="Vector_16" d="M83.7798 19.3348L80.3898 25.0048C80.2404 25.2577 80.012 25.4545 79.7398 25.5648C72.6298 28.4448 61.5398 24.0648 55.8498 20.0748C52.4798 17.7248 54.0798 14.4048 53.5498 10.6948" stroke="#637928" stroke-width="2"/>
<path id="Vector_17" d="M86.8497 33.2149C85.9564 31.5482 84.8231 30.6716 83.4497 30.5849C80.5631 30.3916 76.8997 29.9849 72.4597 29.3649C65.9897 28.4549 60.3697 26.2549 54.2197 24.0049" stroke="#36A52D" stroke-width="2"/>
<path id="Vector_18" d="M54.2206 24.005C49.6406 21.505 46.7005 19.945 44.0605 15.175" stroke="#4CB131" stroke-width="2"/>
<path id="Vector_19" d="M54.2198 24.0049C57.2532 26.5382 60.8799 28.1282 65.0999 28.7749C65.4199 28.8282 65.6665 28.9882 65.8398 29.2549C66.8598 30.8649 66.2199 31.8749 66.2399 33.2849C66.3532 38.9916 66.3265 44.5949 66.1599 50.0949C66.1527 50.355 66.0892 50.6105 65.9738 50.8438C65.8584 51.077 65.6938 51.2825 65.4914 51.446C65.2889 51.6094 65.0534 51.7271 64.8011 51.7908C64.5488 51.8545 64.2856 51.8627 64.0298 51.8149C57.3798 50.5949 47.0699 47.3949 42.9799 41.9249C41.5332 39.9982 39.4865 39.0649 36.8398 39.1249" stroke="#5DBA33" stroke-width="2"/>
<path id="Vector_20" d="M89.9698 61.615C85.5631 66.5017 80.4965 70.6183 74.7698 73.965C74.4965 74.125 74.2765 74.3417 74.1098 74.615C74.0231 74.7483 73.9331 74.885 73.8398 75.025C73.6465 75.2983 73.3865 75.4816 73.0598 75.575C69.9998 76.495 66.2898 78.075 65.4798 81.145C65.4811 81.1636 65.475 81.1819 65.4628 81.196C65.4506 81.21 65.4333 81.2187 65.4148 81.22C65.3962 81.2213 65.3779 81.2152 65.3638 81.203C65.3498 81.1908 65.3411 81.1736 65.3398 81.155C65.3065 81.0683 65.2765 80.9783 65.2498 80.885C65.2031 80.705 65.1231 80.6917 65.0098 80.845C62.8498 83.815 64.3898 85.865 64.6798 89.075" stroke="#36A52D" stroke-width="2"/>
<path id="Vector_21" d="M64.6801 89.075L46.7102 85.005C46.5551 84.9693 46.4139 84.8897 46.3038 84.7761C46.1937 84.6624 46.1195 84.5196 46.0901 84.365L45.7802 82.695C45.7582 82.5869 45.7114 82.486 45.6435 82.4007C45.5756 82.3155 45.4887 82.2483 45.3902 82.205C42.1435 80.8384 38.9302 79.395 35.7502 77.875C34.6102 77.335 33.2268 77.615 31.6002 78.715C31.476 78.7991 31.3336 78.8528 31.1843 78.8719C31.0349 78.891 30.8828 78.8749 30.7402 78.825C19.2902 74.725 9.43016 68.565 2.91016 58.645" stroke="#5DBA33" stroke-width="2"/>
<path id="Vector_22" d="M64.6797 89.075C72.6264 90.6283 80.5864 91.225 88.5597 90.865C88.793 90.8516 88.8764 90.955 88.8097 91.175C88.7564 91.3483 88.653 91.4416 88.4997 91.455C84.0197 91.7416 78.853 91.765 72.9997 91.525" stroke="#4CB131" stroke-width="2"/>
<path id="Vector_23" d="M73.0005 91.5251L58.0605 89.4051C57.8982 89.3806 57.7313 89.4021 57.578 89.4673C57.4247 89.5326 57.2907 89.6389 57.1905 89.7751C53.7605 94.3951 48.9505 95.385 43.5205 95.945C37.1205 96.595 35.5005 97.445 30.9905 101.385C29.0238 103.105 24.5072 106.098 17.4405 110.365C15.4605 111.555 12.6105 111.595 10.2605 112.575C8.86051 113.155 7.36384 113.605 5.77051 113.925" stroke="#5DBA33" stroke-width="2"/>
<path id="Vector_24" d="M34.5398 139.065C34.0531 137.625 34.3831 136.572 35.5298 135.905C47.6831 128.805 57.2364 119.578 64.1898 108.225C64.2364 108.145 64.3031 108.128 64.3898 108.175C64.4631 108.215 64.4998 108.292 64.4998 108.405C64.4998 109.032 64.6298 108.975 64.8898 108.235L65.8698 105.425C65.9831 105.118 66.1564 104.852 66.3898 104.625C66.8431 104.178 67.0264 103.635 66.9398 102.995C66.8998 102.702 66.9531 102.422 67.0998 102.155L72.9998 91.5249" stroke="#36A52D" stroke-width="2"/>
<path id="Vector_25" d="M83.9001 9.49493C81.8201 10.2449 80.3302 11.0449 78.0602 10.9949C69.8735 10.8149 63.3235 7.99494 58.4102 2.53494C65.2802 -1.44506 80.0801 2.82493 83.9001 9.49493Z" fill="#DBAD73"/>
<path id="Vector_26" d="M58.4103 2.53501C63.3236 7.99501 69.8736 10.815 78.0603 10.995C80.3303 11.045 81.8203 10.245 83.9003 9.49501C87.6503 12.315 86.8103 14.245 84.2303 17.245C73.3903 17.405 63.1803 14.715 54.5903 8.09501C53.4503 6.61501 53.4103 4.87501 54.9603 3.62501C56.1536 2.65168 57.3036 2.28835 58.4103 2.53501Z" fill="#E8943F"/>
<path id="Vector_27" d="M54.5898 8.09497C63.1798 14.715 73.3898 17.405 84.2298 17.245L83.7798 19.335L80.3898 25.0049C80.2404 25.2578 80.012 25.4546 79.7398 25.565C72.6298 28.445 61.5398 24.065 55.8498 20.075C52.4798 17.725 54.0798 14.4049 53.5498 10.6949C53.5631 9.58161 53.9098 8.71497 54.5898 8.09497Z" fill="#A15525"/>
<path id="Vector_28" d="M53.5496 10.695C54.0796 14.405 52.4796 17.725 55.8496 20.075C61.5396 24.065 72.6296 28.445 79.7396 25.565C80.0118 25.4547 80.2401 25.2579 80.3896 25.005L83.7796 19.335C86.4196 20.7617 88.3829 22.7917 89.6696 25.425C89.8229 25.7517 89.8329 26.0784 89.6996 26.405L86.8496 33.215C85.9562 31.5484 84.8229 30.6717 83.4496 30.585C80.5629 30.3917 76.8996 29.985 72.4596 29.365C65.9896 28.455 60.3696 26.255 54.2196 24.005C49.6396 21.505 46.6996 19.945 44.0596 15.175C44.8296 11.075 49.8196 10.285 53.5496 10.695Z" fill="#259C2B"/>
<path id="Vector_29" d="M44.0598 15.175C46.6998 19.945 49.6398 21.505 54.2198 24.005C57.2532 26.5384 60.8799 28.1284 65.0999 28.7751C65.4199 28.8284 65.6665 28.9884 65.8398 29.255C66.8598 30.865 66.2199 31.8751 66.2399 33.2851C66.3532 38.9917 66.3265 44.5951 66.1599 50.0951C66.1527 50.3552 66.0893 50.6107 65.9738 50.8439C65.8584 51.0772 65.6938 51.2826 65.4914 51.4461C65.2889 51.6096 65.0534 51.7272 64.8011 51.7909C64.5488 51.8546 64.2856 51.8629 64.0298 51.8151C57.3798 50.5951 47.0699 47.3951 42.9799 41.925C41.5332 39.9984 39.4865 39.0651 36.8398 39.1251C39.9098 37.7351 41.0398 38.605 41.5398 34.735C42.3598 28.3884 43.1998 21.8684 44.0598 15.175Z" fill="#73C636"/>
<path id="Vector_30" d="M54.2202 24.0049C60.3702 26.2549 65.9902 28.4549 72.4602 29.3649C76.9002 29.9849 80.5635 30.3916 83.4501 30.5849C84.8235 30.6716 85.9568 31.5482 86.8502 33.2149L80.4501 47.9349C80.3834 48.0867 80.3575 48.2527 80.3751 48.4161C80.3926 48.5794 80.453 48.7343 80.5502 48.8649L89.9702 61.6149C85.5635 66.5016 80.4968 70.6182 74.7702 73.9649C74.4968 74.1249 74.2768 74.3416 74.1102 74.6149C74.0235 74.7482 73.9335 74.8849 73.8401 75.0249C73.6468 75.2982 73.3868 75.4816 73.0602 75.5749C70.0002 76.4949 66.2901 78.0749 65.4801 81.1449C65.4815 81.1635 65.4754 81.1818 65.4632 81.1959C65.451 81.2099 65.4337 81.2186 65.4151 81.2199C65.3966 81.2212 65.3783 81.2151 65.3642 81.2029C65.3501 81.1908 65.3415 81.1735 65.3401 81.1549C65.3068 81.0682 65.2768 80.9782 65.2502 80.8849C65.2035 80.7049 65.1235 80.6916 65.0101 80.8449C62.8501 83.8149 64.3901 85.8649 64.6801 89.0749L46.7102 85.0049C46.5551 84.9691 46.4139 84.8896 46.3038 84.776C46.1937 84.6623 46.1195 84.5195 46.0901 84.3649L45.7802 82.6949C45.7582 82.5868 45.7114 82.4859 45.6435 82.4006C45.5756 82.3153 45.4887 82.2482 45.3902 82.2049C42.1435 80.8382 38.9302 79.3949 35.7502 77.8749C34.6102 77.3349 33.2268 77.6149 31.6002 78.7149C31.476 78.799 31.3336 78.8527 31.1843 78.8718C31.0349 78.8909 30.8828 78.8748 30.7402 78.8249C19.2901 74.7249 9.43016 68.5649 2.91016 58.6449C3.00349 54.4582 5.11682 51.5416 9.25015 49.8949C21.8235 44.8816 31.0201 41.2916 36.8401 39.1249C39.4868 39.0649 41.5335 39.9982 42.9802 41.9249C47.0702 47.3949 57.3801 50.5949 64.0302 51.8149C64.286 51.8627 64.5491 51.8545 64.8014 51.7908C65.0537 51.7271 65.2892 51.6094 65.4917 51.446C65.6941 51.2825 65.8587 51.077 65.9742 50.8438C66.0896 50.6105 66.153 50.355 66.1602 50.0949C66.3268 44.5949 66.3535 38.9916 66.2402 33.2849C66.2202 31.8749 66.8601 30.8649 65.8401 29.2549C65.6668 28.9882 65.4202 28.8282 65.1002 28.7749C60.8802 28.1282 57.2535 26.5382 54.2202 24.0049Z" fill="#46AD2F"/>
<path id="Vector_31" d="M2.90958 58.645C9.42958 68.565 19.2896 74.725 30.7396 78.825C30.8823 78.8749 31.0344 78.891 31.1837 78.8719C31.333 78.8528 31.4754 78.7991 31.5996 78.715C33.2262 77.615 34.6096 77.335 35.7496 77.875C38.9296 79.395 42.1429 80.8384 45.3896 82.205C45.4882 82.2483 45.575 82.3155 45.6429 82.4007C45.7108 82.486 45.7577 82.5869 45.7796 82.695L46.0896 84.365C46.1189 84.5196 46.1931 84.6624 46.3032 84.7761C46.4133 84.8897 46.5545 84.9693 46.7096 85.005L64.6796 89.075C72.6262 90.6283 80.5862 91.225 88.5596 90.865C88.7929 90.8517 88.8762 90.955 88.8096 91.175C88.7562 91.3484 88.6529 91.4417 88.4996 91.455C84.0196 91.7417 78.8529 91.765 72.9996 91.525L58.0596 89.405C57.8972 89.3806 57.7304 89.4021 57.5771 89.4673C57.4238 89.5325 57.2898 89.6389 57.1896 89.775C53.7596 94.395 48.9496 95.385 43.5196 95.945C37.1196 96.595 35.4996 97.445 30.9896 101.385C29.0229 103.105 24.5062 106.098 17.4396 110.365C15.4596 111.555 12.6096 111.595 10.2596 112.575C8.85958 113.155 7.36291 113.605 5.76957 113.925C1.59624 96.045 0.642913 77.6184 2.90958 58.645Z" fill="#73C636"/>
<path id="Vector_32" d="M89.9698 61.615C95.1631 68.3483 99.2464 73.9517 102.22 78.425C106.94 85.525 82.7098 117.905 77.5998 123.995C72.8798 129.622 67.8998 134.555 62.6598 138.795C56.1298 144.065 41.9198 141.265 34.5398 139.065C34.0531 137.625 34.3831 136.572 35.5298 135.905C47.6831 128.805 57.2364 119.578 64.1898 108.225C64.2364 108.145 64.3031 108.128 64.3898 108.175C64.4631 108.215 64.4998 108.292 64.4998 108.405C64.4998 109.032 64.6298 108.975 64.8898 108.235L65.8698 105.425C65.9831 105.118 66.1564 104.852 66.3898 104.625C66.8431 104.178 67.0264 103.635 66.9398 102.995C66.8998 102.702 66.9531 102.422 67.0998 102.155L72.9998 91.525C78.8531 91.765 84.0198 91.7417 88.4998 91.455C88.6531 91.4417 88.7564 91.3483 88.8098 91.175C88.8764 90.955 88.7931 90.8517 88.5598 90.865C80.5864 91.225 72.6264 90.6283 64.6798 89.075C64.3898 85.865 62.8498 83.815 65.0098 80.845C65.1231 80.6917 65.2031 80.705 65.2498 80.885C65.2764 80.9783 65.3064 81.0683 65.3398 81.155C65.3411 81.1736 65.3498 81.1908 65.3638 81.203C65.3779 81.2152 65.3962 81.2213 65.4148 81.22C65.4333 81.2187 65.4506 81.21 65.4628 81.196C65.475 81.1819 65.4811 81.1636 65.4798 81.145C66.2898 78.075 69.9998 76.495 73.0598 75.575C73.3864 75.4816 73.6464 75.2983 73.8398 75.025C73.9331 74.885 74.0231 74.7483 74.1098 74.615C74.2764 74.3417 74.4964 74.125 74.7698 73.965C80.4964 70.6183 85.5631 66.5017 89.9698 61.615Z" fill="#259C2B"/>
<path id="Vector_33" d="M72.9995 91.5251L67.0995 102.155C66.9529 102.422 66.8995 102.702 66.9395 102.995C67.0262 103.635 66.8429 104.178 66.3895 104.625C66.1562 104.852 65.9829 105.118 65.8695 105.425L64.8895 108.235C64.6295 108.975 64.4995 109.032 64.4995 108.405C64.4995 108.292 64.4629 108.215 64.3895 108.175C64.3029 108.128 64.2362 108.145 64.1895 108.225C57.2362 119.578 47.6829 128.805 35.5295 135.905C34.3829 136.572 34.0529 137.625 34.5395 139.065C27.1329 137.312 20.2862 134.338 13.9995 130.145C8.29953 126.345 7.23953 120.545 5.76953 113.925C7.36286 113.605 8.85954 113.155 10.2595 112.575C12.6095 111.595 15.4595 111.555 17.4395 110.365C24.5062 106.098 29.0229 103.105 30.9895 101.385C35.4995 97.445 37.1195 96.595 43.5195 95.945C48.9495 95.385 53.7595 94.3951 57.1895 89.7751C57.2897 89.6389 57.4237 89.5326 57.577 89.4673C57.7304 89.4021 57.8972 89.3806 58.0595 89.4051L72.9995 91.5251Z" fill="#46AD2F"/>
</g>
</svg>
