<svg width="20" height="20" viewBox="0 0 20 20" fill="none" xmlns="http://www.w3.org/2000/svg">
<g id="uil:arrow-up">
<rect x="0.5" y="0.5" width="19" height="19" rx="9.5" stroke="#FE7B1E"/>
<path id="Vector" d="M14.7537 11.0041L10.5905 14.8517C10.5113 14.9218 10.4179 14.9767 10.3157 15.0133C10.113 15.0903 9.8856 15.0903 9.68288 15.0133C9.58068 14.9767 9.4873 14.9218 9.40811 14.8517L5.24487 11.0041C5.16724 10.9323 5.10566 10.8472 5.06364 10.7534C5.02163 10.6597 5 10.5592 5 10.4577C5 10.2528 5.08808 10.0563 5.24487 9.91136C5.40167 9.76646 5.61432 9.68505 5.83605 9.68505C6.05779 9.68505 6.27044 9.76646 6.42723 9.91136L9.16664 12.4508V5.84057C9.16664 5.63648 9.25437 5.44075 9.41052 5.29643C9.56667 5.15212 9.77846 5.07104 9.99929 5.07104C10.2201 5.07104 10.4319 5.15212 10.5881 5.29643C10.7442 5.44075 10.8319 5.63648 10.8319 5.84057V12.4508L13.5713 9.91136C13.6488 9.83924 13.7408 9.78199 13.8423 9.74292C13.9438 9.70385 14.0526 9.68374 14.1625 9.68374C14.2724 9.68374 14.3813 9.70385 14.4827 9.74292C14.5842 9.78199 14.6763 9.83924 14.7537 9.91136C14.8317 9.9829 14.8937 10.068 14.936 10.1618C14.9782 10.2556 15 10.3561 15 10.4577C15 10.5593 14.9782 10.6599 14.936 10.7537C14.8937 10.8474 14.8317 10.9326 14.7537 11.0041Z" fill="#FE7B1E"/>
</g>
</svg>
