<svg width="56" height="56" viewBox="0 0 56 56" fill="none" xmlns="http://www.w3.org/2000/svg">
<rect x="1" y="1" width="54" height="54" rx="9" stroke="#FE1E1E" stroke-width="2"/>
<path d="M13.4522 42.548C12.8496 41.9454 12.8496 40.9684 13.4522 40.3658L40.3659 13.4519C40.9685 12.8494 41.9455 12.8493 42.5481 13.4519C43.1506 14.0545 43.1506 15.0316 42.5481 15.6342L15.6344 42.548C15.0318 43.1506 14.0548 43.1506 13.4522 42.548Z" fill="#FE1E1E"/>
<path d="M13.4519 13.452C14.0545 12.8494 15.0315 12.8494 15.6341 13.452L42.5478 40.3658C43.1504 40.9684 43.1504 41.9455 42.5478 42.5481C41.9452 43.1507 40.9682 43.1507 40.3656 42.5481L13.4519 15.6342C12.8494 15.0316 12.8494 14.0546 13.4519 13.452Z" fill="#FE1E1E"/>
</svg>
