<svg width="360" height="403" viewBox="0 0 360 403" fill="none" xmlns="http://www.w3.org/2000/svg">
<path d="M-411.19 1H-463V52.8095M-411.19 1V52.8095M-411.19 1L-359.381 1M-411.19 52.8095H-463M-411.19 52.8095L-359.381 52.8095M-411.19 52.8095V104.619M-463 52.8095L-463 104.619M-359.381 1V52.8095M-359.381 1L-307.571 1M-359.381 52.8095L-307.571 52.8095M-359.381 52.8095V104.619M-307.571 1V52.8095M-307.571 1H-255.762M-307.571 52.8095H-255.762M-307.571 52.8095V104.619M-255.762 1V52.8095M-255.762 1H-203.952M-255.762 52.8095H-203.952M-255.762 52.8095V104.619M-203.952 1V52.8095M-203.952 1H-152.143M-203.952 52.8095H-152.143M-203.952 52.8095L-203.952 104.619M-152.143 1V52.8095M-152.143 1L-100.333 1M-152.143 52.8095L-100.333 52.8095M-152.143 52.8095L-152.143 104.619M-100.333 1V52.8095M-100.333 1H-48.5238M-100.333 52.8095H-48.5238M-100.333 52.8095V104.619M-48.5238 1V52.8095M-48.5238 1H3.28552M-48.5238 52.8095H3.28552M-48.5238 52.8095V104.619M3.28552 1V52.8095M3.28552 1L55.0952 1M3.28552 52.8095L55.0952 52.8095M3.28552 52.8095V104.619M55.0952 1V52.8095M55.0952 1H106.905M55.0952 52.8095H106.905M55.0952 52.8095V104.619M106.905 1V52.8095M106.905 1H158.714M106.905 52.8095H158.714M106.905 52.8095V104.619M158.714 1V52.8095M158.714 1H210.524M158.714 52.8095H210.524M158.714 52.8095V104.619M210.524 1V52.8095M210.524 1H262.333M210.524 52.8095H262.333M210.524 52.8095V104.619M262.333 1V52.8095M262.333 1L314.143 1M262.333 52.8095L314.143 52.8095M262.333 52.8095V104.619M314.143 1V52.8095M314.143 1H365.952M314.143 52.8095H365.952M314.143 52.8095V104.619M365.952 1V52.8095M365.952 1L417.762 1M365.952 52.8095L417.762 52.8095M365.952 52.8095V104.619M417.762 1V52.8095M417.762 1H469.571M417.762 52.8095H469.571M417.762 52.8095V104.619M469.571 1V52.8095M469.571 1H521.381M469.571 52.8095H521.381M469.571 52.8095V104.619M521.381 1V52.8095M521.381 1H573.19M521.381 52.8095H573.19M521.381 52.8095V104.619M573.19 1V52.8095M573.19 1L625 1V52.8095M573.19 52.8095L625 52.8095M573.19 52.8095V104.619M625 52.8095V104.619M-411.19 104.619H-463M-411.19 104.619L-359.381 104.619M-411.19 104.619V156.429M-463 104.619V156.429M-359.381 104.619L-307.571 104.619M-359.381 104.619V156.429M-307.571 104.619H-255.762M-307.571 104.619V156.429M-255.762 104.619H-203.952M-255.762 104.619V156.429M-203.952 104.619H-152.143M-203.952 104.619V156.429M-152.143 104.619L-100.333 104.619M-152.143 104.619V156.429M-100.333 104.619H-48.5238M-100.333 104.619V156.429M-48.5238 104.619H3.28552M-48.5238 104.619V156.429M3.28552 104.619L55.0952 104.619M3.28552 104.619V156.429M55.0952 104.619H106.905M55.0952 104.619V156.429M106.905 104.619H158.714M106.905 104.619V156.429M158.714 104.619H210.524M158.714 104.619V156.429M210.524 104.619H262.333M210.524 104.619V156.429M262.333 104.619L314.143 104.619M262.333 104.619V156.429M314.143 104.619H365.952M314.143 104.619V156.429M365.952 104.619L417.762 104.619M365.952 104.619V156.429M417.762 104.619H469.571M417.762 104.619V156.429M469.571 104.619H521.381M469.571 104.619V156.429M521.381 104.619H573.19M521.381 104.619V156.429M573.19 104.619L625 104.619M573.19 104.619V156.429M625 104.619V156.429M-411.19 156.429H-463M-411.19 156.429L-359.381 156.429M-411.19 156.429V208.238M-463 156.429V208.238M-359.381 156.429L-307.571 156.429M-359.381 156.429V208.238M-307.571 156.429H-255.762M-307.571 156.429V208.238M-255.762 156.429H-203.952M-255.762 156.429V208.238M-203.952 156.429H-152.143M-203.952 156.429V208.238M-152.143 156.429L-100.333 156.429M-152.143 156.429V208.238M-100.333 156.429H-48.5238M-100.333 156.429V208.238M-48.5238 156.429H3.28552M-48.5238 156.429V208.238M3.28552 156.429L55.0952 156.429M3.28552 156.429V208.238M55.0952 156.429H106.905M55.0952 156.429V208.238M106.905 156.429H158.714M106.905 156.429V208.238M158.714 156.429H210.524M158.714 156.429V208.238M210.524 156.429H262.333M210.524 156.429V208.238M262.333 156.429L314.143 156.429M262.333 156.429V208.238M314.143 156.429H365.952M314.143 156.429V208.238M365.952 156.429L417.762 156.429M365.952 156.429V208.238M417.762 156.429H469.571M417.762 156.429V208.238M469.571 156.429H521.381M469.571 156.429V208.238M521.381 156.429H573.19M521.381 156.429V208.238M573.19 156.429L625 156.429M573.19 156.429V208.238M625 156.429V208.238M-411.19 208.238H-463M-411.19 208.238L-359.381 208.238M-411.19 208.238V260.048M-463 208.238V260.048M-359.381 208.238L-307.571 208.238M-359.381 208.238V260.048M-307.571 208.238H-255.762M-307.571 208.238V260.048M-255.762 208.238H-203.952M-255.762 208.238V260.048M-203.952 208.238H-152.143M-203.952 208.238V260.048M-152.143 208.238L-100.333 208.238M-152.143 208.238V260.048M-100.333 208.238H-48.5238M-100.333 208.238V260.048M-48.5238 208.238H3.28552M-48.5238 208.238V260.048M3.28552 208.238L55.0952 208.238M3.28552 208.238V260.048M55.0952 208.238H106.905M55.0952 208.238V260.048M106.905 208.238H158.714M106.905 208.238V260.048M158.714 208.238H210.524M158.714 208.238V260.048M210.524 208.238H262.333M210.524 208.238V260.048M262.333 208.238L314.143 208.238M262.333 208.238V260.048M314.143 208.238H365.952M314.143 208.238V260.048M365.952 208.238L417.762 208.238M365.952 208.238V260.048M417.762 208.238H469.571M417.762 208.238V260.048M469.571 208.238H521.381M469.571 208.238V260.048M521.381 208.238H573.19M521.381 208.238V260.048M573.19 208.238L625 208.238M573.19 208.238V260.048M625 208.238V260.048M-411.19 260.048H-463M-411.19 260.048L-359.381 260.048M-411.19 260.048V311.857M-463 260.048V311.857M-359.381 260.048L-307.571 260.048M-359.381 260.048V311.857M-307.571 260.048H-255.762M-307.571 260.048V311.857M-255.762 260.048H-203.952M-255.762 260.048V311.857M-203.952 260.048H-152.143M-203.952 260.048V311.857M-152.143 260.048L-100.333 260.048M-152.143 260.048V311.857M-100.333 260.048H-48.5238M-100.333 260.048V311.857M-48.5238 260.048H3.28552M-48.5238 260.048V311.857M3.28552 260.048L55.0952 260.048M3.28552 260.048V311.857M55.0952 260.048H106.905M55.0952 260.048V311.857M106.905 260.048H158.714M106.905 260.048V311.857M158.714 260.048H210.524M158.714 260.048V311.857M210.524 260.048H262.333M210.524 260.048V311.857M262.333 260.048L314.143 260.048M262.333 260.048V311.857M314.143 260.048H365.952M314.143 260.048V311.857M365.952 260.048L417.762 260.048M365.952 260.048V311.857M417.762 260.048H469.571M417.762 260.048V311.857M469.571 260.048H521.381M469.571 260.048V311.857M521.381 260.048H573.19M521.381 260.048V311.857M573.19 260.048L625 260.048M573.19 260.048V311.857M625 260.048V311.857M-411.19 311.857H-463M-411.19 311.857H-359.381M-411.19 311.857V363.667M-463 311.857V363.667M-359.381 311.857H-307.571M-359.381 311.857V363.667M-307.571 311.857H-255.762M-307.571 311.857V363.667M-255.762 311.857H-203.952M-255.762 311.857V363.667M-203.952 311.857H-152.143M-203.952 311.857V363.667M-152.143 311.857H-100.333M-152.143 311.857V363.667M-100.333 311.857H-48.5238M-100.333 311.857V363.667M-48.5238 311.857H3.28552M-48.5238 311.857V363.667M3.28552 311.857H55.0952M3.28552 311.857V363.667M55.0952 311.857H106.905M55.0952 311.857V363.667M106.905 311.857H158.714M106.905 311.857V363.667M158.714 311.857H210.524M158.714 311.857V363.667M210.524 311.857H262.333M210.524 311.857V363.667M262.333 311.857H314.143M262.333 311.857V363.667M314.143 311.857H365.952M314.143 311.857V363.667M365.952 311.857H417.762M365.952 311.857V363.667M417.762 311.857H469.571M417.762 311.857V363.667M469.571 311.857H521.381M469.571 311.857V363.667M521.381 311.857H573.19M521.381 311.857V363.667M573.19 311.857H625M573.19 311.857V363.667M625 311.857V363.667M-411.19 363.667H-463M-411.19 363.667L-359.381 363.667M-411.19 363.667V415.476M-463 363.667V415.476M-359.381 363.667L-307.571 363.667M-359.381 363.667V415.476M-307.571 363.667H-255.762M-307.571 363.667V415.476M-255.762 363.667H-203.952M-255.762 363.667V415.476M-203.952 363.667H-152.143M-203.952 363.667V415.476M-152.143 363.667L-100.333 363.667M-152.143 363.667V415.476M-100.333 363.667H-48.5238M-100.333 363.667V415.476M-48.5238 363.667H3.28552M-48.5238 363.667V415.476M3.28552 363.667L55.0952 363.667M3.28552 363.667V415.476M55.0952 363.667H106.905M55.0952 363.667V415.476M106.905 363.667H158.714M106.905 363.667V415.476M158.714 363.667H210.524M158.714 363.667V415.476M210.524 363.667H262.333M210.524 363.667V415.476M262.333 363.667L314.143 363.667M262.333 363.667V415.476M314.143 363.667H365.952M314.143 363.667V415.476M365.952 363.667L417.762 363.667M365.952 363.667V415.476M417.762 363.667H469.571M417.762 363.667V415.476M469.571 363.667H521.381M469.571 363.667V415.476M521.381 363.667H573.19M521.381 363.667V415.476M573.19 363.667L625 363.667M573.19 363.667V415.476M625 363.667V415.476M-411.19 415.476H-463M-411.19 415.476H-359.381M-411.19 415.476V467.286M-463 415.476V467.286M-359.381 415.476H-307.571M-359.381 415.476V467.286M-307.571 415.476H-255.762M-307.571 415.476V467.286M-255.762 415.476H-203.952M-255.762 415.476V467.286M-203.952 415.476H-152.143M-203.952 415.476V467.286M-152.143 415.476H-100.333M-152.143 415.476V467.286M-100.333 415.476H-48.5238M-100.333 415.476V467.286M-48.5238 415.476H3.28552M-48.5238 415.476V467.286M3.28552 415.476H55.0952M3.28552 415.476V467.286M55.0952 415.476H106.905M55.0952 415.476V467.286M106.905 415.476H158.714M106.905 415.476V467.286M158.714 415.476H210.524M158.714 415.476V467.286M210.524 415.476H262.333M210.524 415.476V467.286M262.333 415.476H314.143M262.333 415.476V467.286M314.143 415.476H365.952M314.143 415.476V467.286M365.952 415.476H417.762M365.952 415.476V467.286M417.762 415.476H469.571M417.762 415.476V467.286M469.571 415.476H521.381M469.571 415.476V467.286M521.381 415.476H573.19M521.381 415.476V467.286M573.19 415.476H625M573.19 415.476V467.286M625 415.476V467.286M-411.19 467.286H-463M-411.19 467.286H-359.381M-411.19 467.286V519.095M-463 467.286V519.095M-359.381 467.286H-307.571M-359.381 467.286V519.095M-307.571 467.286H-255.762M-307.571 467.286V519.095M-255.762 467.286H-203.952M-255.762 467.286V519.095M-203.952 467.286H-152.143M-203.952 467.286V519.095M-152.143 467.286H-100.333M-152.143 467.286V519.095M-100.333 467.286H-48.5238M-100.333 467.286V519.095M-48.5238 467.286H3.28552M-48.5238 467.286V519.095M3.28552 467.286H55.0952M3.28552 467.286V519.095M55.0952 467.286H106.905M55.0952 467.286V519.095M106.905 467.286H158.714M106.905 467.286V519.095M158.714 467.286H210.524M158.714 467.286V519.095M210.524 467.286H262.333M210.524 467.286V519.095M262.333 467.286H314.143M262.333 467.286V519.095M314.143 467.286H365.952M314.143 467.286V519.095M365.952 467.286H417.762M365.952 467.286V519.095M417.762 467.286H469.571M417.762 467.286V519.095M469.571 467.286H521.381M469.571 467.286V519.095M521.381 467.286H573.19M521.381 467.286V519.095M573.19 467.286H625M573.19 467.286V519.095M625 467.286V519.095M-411.19 519.095H-463M-411.19 519.095L-359.381 519.095M-411.19 519.095V570.905M-463 519.095V570.905M-359.381 519.095L-307.571 519.095M-359.381 519.095V570.905M-307.571 519.095H-255.762M-307.571 519.095V570.905M-255.762 519.095H-203.952M-255.762 519.095V570.905M-203.952 519.095H-152.143M-203.952 519.095V570.905M-152.143 519.095L-100.333 519.095M-152.143 519.095V570.905M-100.333 519.095H-48.5238M-100.333 519.095V570.905M-48.5238 519.095H3.28552M-48.5238 519.095V570.905M3.28552 519.095L55.0952 519.095M3.28552 519.095V570.905M55.0952 519.095H106.905M55.0952 519.095V570.905M106.905 519.095H158.714M106.905 519.095V570.905M158.714 519.095H210.524M158.714 519.095V570.905M210.524 519.095H262.333M210.524 519.095V570.905M262.333 519.095L314.143 519.095M262.333 519.095V570.905M314.143 519.095H365.952M314.143 519.095V570.905M365.952 519.095L417.762 519.095M365.952 519.095V570.905M417.762 519.095H469.571M417.762 519.095V570.905M469.571 519.095H521.381M469.571 519.095V570.905M521.381 519.095H573.19M521.381 519.095V570.905M573.19 519.095L625 519.095M573.19 519.095V570.905M625 519.095V570.905M-411.19 570.905H-463M-411.19 570.905L-359.381 570.905M-411.19 570.905V622.714M-463 570.905V622.714M-359.381 570.905L-307.571 570.905M-359.381 570.905V622.714M-307.571 570.905H-255.762M-307.571 570.905V622.714M-255.762 570.905H-203.952M-255.762 570.905V622.714M-203.952 570.905H-152.143M-203.952 570.905V622.714M-152.143 570.905L-100.333 570.905M-152.143 570.905V622.714M-100.333 570.905H-48.5238M-100.333 570.905V622.714M-48.5238 570.905H3.28552M-48.5238 570.905V622.714M3.28552 570.905L55.0952 570.905M3.28552 570.905V622.714M55.0952 570.905H106.905M55.0952 570.905V622.714M106.905 570.905H158.714M106.905 570.905V622.714M158.714 570.905H210.524M158.714 570.905V622.714M210.524 570.905H262.333M210.524 570.905V622.714M262.333 570.905L314.143 570.905M262.333 570.905V622.714M314.143 570.905H365.952M314.143 570.905V622.714M365.952 570.905L417.762 570.905M365.952 570.905V622.714M417.762 570.905H469.571M417.762 570.905V622.714M469.571 570.905H521.381M469.571 570.905V622.714M521.381 570.905H573.19M521.381 570.905V622.714M573.19 570.905L625 570.905M573.19 570.905V622.714M625 570.905V622.714M-411.19 622.714H-463M-411.19 622.714L-359.381 622.714M-411.19 622.714V674.524M-463 622.714V674.524H-411.19M-359.381 622.714L-307.571 622.714M-359.381 622.714V674.524M-307.571 622.714H-255.762M-307.571 622.714V674.524M-255.762 622.714H-203.952M-255.762 622.714V674.524M-203.952 622.714H-152.143M-203.952 622.714V674.524M-152.143 622.714L-100.333 622.714M-152.143 622.714V674.524M-100.333 622.714H-48.5238M-100.333 622.714V674.524M-48.5238 622.714H3.28552M-48.5238 622.714V674.524M3.28552 622.714L55.0952 622.714M3.28552 622.714V674.524M55.0952 622.714H106.905M55.0952 622.714V674.524M106.905 622.714H158.714M106.905 622.714V674.524M158.714 622.714H210.524M158.714 622.714V674.524M210.524 622.714H262.333M210.524 622.714V674.524M262.333 622.714L314.143 622.714M262.333 622.714V674.524M314.143 622.714H365.952M314.143 622.714V674.524M365.952 622.714L417.762 622.714M365.952 622.714V674.524M417.762 622.714H469.571M417.762 622.714V674.524M469.571 622.714H521.381M469.571 622.714V674.524M521.381 622.714H573.19M521.381 622.714V674.524M573.19 622.714L625 622.714M573.19 622.714V674.524M625 622.714V674.524H573.19M-411.19 674.524H-359.381M-359.381 674.524H-307.571M-307.571 674.524H-255.762M-255.762 674.524H-203.952M-203.952 674.524H-152.143M-152.143 674.524H-100.333M-100.333 674.524H-48.5238M-48.5238 674.524H3.28552M3.28552 674.524H55.0952M55.0952 674.524H106.905M106.905 674.524H158.714M158.714 674.524H210.524M210.524 674.524H262.333M262.333 674.524H314.143M314.143 674.524H365.952M365.952 674.524H417.762M417.762 674.524H469.571M469.571 674.524H521.381M521.381 674.524H573.19" stroke="url(#paint0_linear_241_1078)" stroke-opacity="0.16" stroke-width="1.03619"/>
<defs>
<linearGradient id="paint0_linear_241_1078" x1="428.5" y1="276" x2="224" y2="89" gradientUnits="userSpaceOnUse">
<stop stop-color="white"/>
<stop offset="1" stop-color="white" stop-opacity="0"/>
</linearGradient>
</defs>
</svg>
