<svg width="390" height="288" viewBox="0 0 390 288" fill="none" xmlns="http://www.w3.org/2000/svg">
<path d="M3.25 -41.0864L18.7811 -26.3676M18.7811 -26.3676L34.3121 -11.6489M18.7811 -26.3676L3.25 -11.6489M18.7811 -26.3676L34.3121 -41.0864M42.0777 -41.0864L57.6087 -26.3676M57.6087 -26.3676L73.1398 -11.6489M57.6087 -26.3676L42.0777 -11.6489M57.6087 -26.3676L73.1398 -41.0864M80.9054 -41.0864L96.4364 -26.3676M96.4364 -26.3676L111.967 -11.6489M96.4364 -26.3676L80.9054 -11.6489M96.4364 -26.3676L111.967 -41.0864M119.733 -41.0864L135.264 -26.3676M135.264 -26.3676L150.795 -11.6489M135.264 -26.3676L119.733 -11.6489M135.264 -26.3676L150.795 -41.0864M158.561 -41.0864L174.092 -26.3676M174.092 -26.3676L189.623 -11.6489M174.092 -26.3676L158.561 -11.6489M174.092 -26.3676L189.623 -41.0864M3.25 -4.28948L18.7811 10.4293M18.7811 10.4293L34.3121 25.1481M18.7811 10.4293L3.25 25.1481M18.7811 10.4293L34.3121 -4.28948M42.0777 -4.28948L57.6087 10.4293M57.6087 10.4293L73.1398 25.1481M57.6087 10.4293L42.0777 25.1481M57.6087 10.4293L73.1398 -4.28948M80.9054 -4.28948L96.4364 10.4293M96.4364 10.4293L111.967 25.1481M96.4364 10.4293L80.9054 25.1481M96.4364 10.4293L111.967 -4.28948M119.733 -4.28948L135.264 10.4293M135.264 10.4293L150.795 25.1481M135.264 10.4293L119.733 25.1481M135.264 10.4293L150.795 -4.28948M158.561 -4.28948L174.092 10.4293M174.092 10.4293L189.623 25.1481M174.092 10.4293L158.561 25.1481M174.092 10.4293L189.623 -4.28948M3.25 32.5075L18.7811 47.2262M18.7811 47.2262L34.3121 61.945M18.7811 47.2262L3.25 61.945M18.7811 47.2262L34.3121 32.5075M42.0777 32.5075L57.6087 47.2262M57.6087 47.2262L73.1398 61.945M57.6087 47.2262L42.0777 61.945M57.6087 47.2262L73.1398 32.5075M80.9054 32.5075L96.4364 47.2262M96.4364 47.2262L111.967 61.945M96.4364 47.2262L80.9054 61.945M96.4364 47.2262L111.967 32.5075M119.733 32.5075L135.264 47.2262M135.264 47.2262L150.795 61.945M135.264 47.2262L119.733 61.945M135.264 47.2262L150.795 32.5075M158.561 32.5075L174.092 47.2262M174.092 47.2262L189.623 61.945M174.092 47.2262L158.561 61.945M174.092 47.2262L189.623 32.5075M3.25 69.3044L18.7811 84.0232M18.7811 84.0232L34.3121 98.742M18.7811 84.0232L3.25 98.742M18.7811 84.0232L34.3121 69.3044M42.0777 69.3044L57.6087 84.0232M57.6087 84.0232L73.1398 98.742M57.6087 84.0232L42.0777 98.742M57.6087 84.0232L73.1398 69.3044M80.9054 69.3044L96.4364 84.0232M96.4364 84.0232L111.967 98.742M96.4364 84.0232L80.9054 98.742M96.4364 84.0232L111.967 69.3044M119.733 69.3044L135.264 84.0232M135.264 84.0232L150.795 98.742M135.264 84.0232L119.733 98.742M135.264 84.0232L150.795 69.3044M158.561 69.3044L174.092 84.0232M174.092 84.0232L189.623 98.742M174.092 84.0232L158.561 98.742M174.092 84.0232L189.623 69.3044M3.25 106.101L18.7811 120.82M18.7811 120.82L34.3121 135.539M18.7811 120.82L3.25 135.539M18.7811 120.82L34.3121 106.101M42.0777 106.101L57.6087 120.82M57.6087 120.82L73.1398 135.539M57.6087 120.82L42.0777 135.539M57.6087 120.82L73.1398 106.101M80.9054 106.101L96.4364 120.82M96.4364 120.82L111.967 135.539M96.4364 120.82L80.9054 135.539M96.4364 120.82L111.967 106.101M119.733 106.101L135.264 120.82M135.264 120.82L150.795 135.539M135.264 120.82L119.733 135.539M135.264 120.82L150.795 106.101M158.561 106.101L174.092 120.82M174.092 120.82L189.623 135.539M174.092 120.82L158.561 135.539M174.092 120.82L189.623 106.101M200.106 -41.0864L215.637 -26.3676M215.637 -26.3676L231.168 -11.6489M215.637 -26.3676L200.106 -11.6489M215.637 -26.3676L231.168 -41.0864M238.934 -41.0864L254.465 -26.3676M254.465 -26.3676L269.996 -11.6489M254.465 -26.3676L238.934 -11.6489M254.465 -26.3676L269.996 -41.0864M277.762 -41.0864L293.293 -26.3676M293.293 -26.3676L308.824 -11.6489M293.293 -26.3676L277.762 -11.6489M293.293 -26.3676L308.824 -41.0864M316.589 -41.0864L332.12 -26.3676M332.12 -26.3676L347.651 -11.6489M332.12 -26.3676L316.589 -11.6489M332.12 -26.3676L347.651 -41.0864M355.417 -41.0864L370.948 -26.3676M370.948 -26.3676L386.479 -11.6489M370.948 -26.3676L355.417 -11.6489M370.948 -26.3676L386.479 -41.0864M200.106 -4.28948L215.637 10.4293M215.637 10.4293L231.168 25.1481M215.637 10.4293L200.106 25.1481M215.637 10.4293L231.168 -4.28948M238.934 -4.28948L254.465 10.4293M254.465 10.4293L269.996 25.1481M254.465 10.4293L238.934 25.1481M254.465 10.4293L269.996 -4.28948M277.762 -4.28948L293.293 10.4293M293.293 10.4293L308.824 25.1481M293.293 10.4293L277.762 25.1481M293.293 10.4293L308.824 -4.28948M316.589 -4.28948L332.12 10.4293M332.12 10.4293L347.651 25.1481M332.12 10.4293L316.589 25.1481M332.12 10.4293L347.651 -4.28948M355.417 -4.28948L370.948 10.4293M370.948 10.4293L386.479 25.1481M370.948 10.4293L355.417 25.1481M370.948 10.4293L386.479 -4.28948M200.106 32.5075L215.637 47.2262M215.637 47.2262L231.168 61.945M215.637 47.2262L200.106 61.945M215.637 47.2262L231.168 32.5075M238.934 32.5075L254.465 47.2262M254.465 47.2262L269.996 61.945M254.465 47.2262L238.934 61.945M254.465 47.2262L269.996 32.5075M277.762 32.5075L293.293 47.2262M293.293 47.2262L308.824 61.945M293.293 47.2262L277.762 61.945M293.293 47.2262L308.824 32.5075M316.589 32.5075L332.12 47.2262M332.12 47.2262L347.651 61.945M332.12 47.2262L316.589 61.945M332.12 47.2262L347.651 32.5075M355.417 32.5075L370.948 47.2262M370.948 47.2262L386.479 61.945M370.948 47.2262L355.417 61.945M370.948 47.2262L386.479 32.5075M200.106 69.3044L215.637 84.0232M215.637 84.0232L231.168 98.742M215.637 84.0232L200.106 98.742M215.637 84.0232L231.168 69.3044M238.934 69.3044L254.465 84.0232M254.465 84.0232L269.996 98.742M254.465 84.0232L238.934 98.742M254.465 84.0232L269.996 69.3044M277.762 69.3044L293.293 84.0232M293.293 84.0232L308.824 98.742M293.293 84.0232L277.762 98.742M293.293 84.0232L308.824 69.3044M316.589 69.3044L332.12 84.0232M332.12 84.0232L347.651 98.742M332.12 84.0232L316.589 98.742M332.12 84.0232L347.651 69.3044M355.417 69.3044L370.948 84.0232M370.948 84.0232L386.479 98.742M370.948 84.0232L355.417 98.742M370.948 84.0232L386.479 69.3044M200.106 106.101L215.637 120.82M215.637 120.82L231.168 135.539M215.637 120.82L200.106 135.539M215.637 120.82L231.168 106.101M238.934 106.101L254.465 120.82M254.465 120.82L269.996 135.539M254.465 120.82L238.934 135.539M254.465 120.82L269.996 106.101M277.762 106.101L293.293 120.82M293.293 120.82L308.824 135.539M293.293 120.82L277.762 135.539M293.293 120.82L308.824 106.101M316.589 106.101L332.12 120.82M332.12 120.82L347.651 135.539M332.12 120.82L316.589 135.539M332.12 120.82L347.651 106.101M355.417 106.101L370.948 120.82M370.948 120.82L386.479 135.539M370.948 120.82L355.417 135.539M370.948 120.82L386.479 106.101M3.25 141.794L18.7811 156.513M18.7811 156.513L34.3121 171.232M18.7811 156.513L3.25 171.232M18.7811 156.513L34.3121 141.794M42.0777 141.794L57.6087 156.513M57.6087 156.513L73.1398 171.232M57.6087 156.513L42.0777 171.232M57.6087 156.513L73.1398 141.794M80.9054 141.794L96.4364 156.513M96.4364 156.513L111.967 171.232M96.4364 156.513L80.9054 171.232M96.4364 156.513L111.967 141.794M119.733 141.794L135.264 156.513M135.264 156.513L150.795 171.232M135.264 156.513L119.733 171.232M135.264 156.513L150.795 141.794M158.561 141.794L174.092 156.513M174.092 156.513L189.623 171.232M174.092 156.513L158.561 171.232M174.092 156.513L189.623 141.794M3.25 178.591L18.7811 193.31M18.7811 193.31L34.3121 208.029M18.7811 193.31L3.25 208.029M18.7811 193.31L34.3121 178.591M42.0777 178.591L57.6087 193.31M57.6087 193.31L73.1398 208.029M57.6087 193.31L42.0777 208.029M57.6087 193.31L73.1398 178.591M80.9054 178.591L96.4364 193.31M96.4364 193.31L111.967 208.029M96.4364 193.31L80.9054 208.029M96.4364 193.31L111.967 178.591M119.733 178.591L135.264 193.31M135.264 193.31L150.795 208.029M135.264 193.31L119.733 208.029M135.264 193.31L150.795 178.591M158.561 178.591L174.092 193.31M174.092 193.31L189.623 208.029M174.092 193.31L158.561 208.029M174.092 193.31L189.623 178.591M3.25 215.388L18.7811 230.107M18.7811 230.107L34.3121 244.826M18.7811 230.107L3.25 244.826M18.7811 230.107L34.3121 215.388M42.0777 215.388L57.6087 230.107M57.6087 230.107L73.1398 244.826M57.6087 230.107L42.0777 244.826M57.6087 230.107L73.1398 215.388M80.9054 215.388L96.4364 230.107M96.4364 230.107L111.967 244.826M96.4364 230.107L80.9054 244.826M96.4364 230.107L111.967 215.388M119.733 215.388L135.264 230.107M135.264 230.107L150.795 244.826M135.264 230.107L119.733 244.826M135.264 230.107L150.795 215.388M158.561 215.388L174.092 230.107M174.092 230.107L189.623 244.826M174.092 230.107L158.561 244.826M174.092 230.107L189.623 215.388M3.25 252.185L18.7811 266.904M18.7811 266.904L34.3121 281.623M18.7811 266.904L3.25 281.623M18.7811 266.904L34.3121 252.185M42.0777 252.185L57.6087 266.904M57.6087 266.904L73.1398 281.623M57.6087 266.904L42.0777 281.623M57.6087 266.904L73.1398 252.185M80.9054 252.185L96.4364 266.904M96.4364 266.904L111.967 281.623M96.4364 266.904L80.9054 281.623M96.4364 266.904L111.967 252.185M119.733 252.185L135.264 266.904M135.264 266.904L150.795 281.623M135.264 266.904L119.733 281.623M135.264 266.904L150.795 252.185M158.561 252.185L174.092 266.904M174.092 266.904L189.623 281.623M174.092 266.904L158.561 281.623M174.092 266.904L189.623 252.185M3.25 288.982L18.7811 303.701M18.7811 303.701L34.3121 318.42M18.7811 303.701L3.25 318.42M18.7811 303.701L34.3121 288.982M42.0777 288.982L57.6087 303.701M57.6087 303.701L73.1398 318.42M57.6087 303.701L42.0777 318.42M57.6087 303.701L73.1398 288.982M80.9054 288.982L96.4364 303.701M96.4364 303.701L111.967 318.42M96.4364 303.701L80.9054 318.42M96.4364 303.701L111.967 288.982M119.733 288.982L135.264 303.701M135.264 303.701L150.795 318.42M135.264 303.701L119.733 318.42M135.264 303.701L150.795 288.982M158.561 288.982L174.092 303.701M174.092 303.701L189.623 318.42M174.092 303.701L158.561 318.42M174.092 303.701L189.623 288.982M200.106 141.794L215.637 156.513M215.637 156.513L231.168 171.232M215.637 156.513L200.106 171.232M215.637 156.513L231.168 141.794M238.934 141.794L254.465 156.513M254.465 156.513L269.996 171.232M254.465 156.513L238.934 171.232M254.465 156.513L269.996 141.794M277.762 141.794L293.293 156.513M293.293 156.513L308.824 171.232M293.293 156.513L277.762 171.232M293.293 156.513L308.824 141.794M316.589 141.794L332.12 156.513M332.12 156.513L347.651 171.232M332.12 156.513L316.589 171.232M332.12 156.513L347.651 141.794M355.417 141.794L370.948 156.513M370.948 156.513L386.479 171.232M370.948 156.513L355.417 171.232M370.948 156.513L386.479 141.794M200.106 178.591L215.637 193.31M215.637 193.31L231.168 208.029M215.637 193.31L200.106 208.029M215.637 193.31L231.168 178.591M238.934 178.591L254.465 193.31M254.465 193.31L269.996 208.029M254.465 193.31L238.934 208.029M254.465 193.31L269.996 178.591M277.762 178.591L293.293 193.31M293.293 193.31L308.824 208.029M293.293 193.31L277.762 208.029M293.293 193.31L308.824 178.591M316.589 178.591L332.12 193.31M332.12 193.31L347.651 208.029M332.12 193.31L316.589 208.029M332.12 193.31L347.651 178.591M355.417 178.591L370.948 193.31M370.948 193.31L386.479 208.029M370.948 193.31L355.417 208.029M370.948 193.31L386.479 178.591M200.106 215.388L215.637 230.107M215.637 230.107L231.168 244.826M215.637 230.107L200.106 244.826M215.637 230.107L231.168 215.388M238.934 215.388L254.465 230.107M254.465 230.107L269.996 244.826M254.465 230.107L238.934 244.826M254.465 230.107L269.996 215.388M277.762 215.388L293.293 230.107M293.293 230.107L308.824 244.826M293.293 230.107L277.762 244.826M293.293 230.107L308.824 215.388M316.589 215.388L332.12 230.107M332.12 230.107L347.651 244.826M332.12 230.107L316.589 244.826M332.12 230.107L347.651 215.388M355.417 215.388L370.948 230.107M370.948 230.107L386.479 244.826M370.948 230.107L355.417 244.826M370.948 230.107L386.479 215.388M200.106 252.185L215.637 266.904M215.637 266.904L231.168 281.623M215.637 266.904L200.106 281.623M215.637 266.904L231.168 252.185M238.934 252.185L254.465 266.904M254.465 266.904L269.996 281.623M254.465 266.904L238.934 281.623M254.465 266.904L269.996 252.185M277.762 252.185L293.293 266.904M293.293 266.904L308.824 281.623M293.293 266.904L277.762 281.623M293.293 266.904L308.824 252.185M316.589 252.185L332.12 266.904M332.12 266.904L347.651 281.623M332.12 266.904L316.589 281.623M332.12 266.904L347.651 252.185M355.417 252.185L370.948 266.904M370.948 266.904L386.479 281.623M370.948 266.904L355.417 281.623M370.948 266.904L386.479 252.185M200.106 288.982L215.637 303.701M215.637 303.701L231.168 318.42M215.637 303.701L200.106 318.42M215.637 303.701L231.168 288.982M238.934 288.982L254.465 303.701M254.465 303.701L269.996 318.42M254.465 303.701L238.934 318.42M254.465 303.701L269.996 288.982M277.762 288.982L293.293 303.701M293.293 303.701L308.824 318.42M293.293 303.701L277.762 318.42M293.293 303.701L308.824 288.982M316.589 288.982L332.12 303.701M332.12 303.701L347.651 318.42M332.12 303.701L316.589 318.42M332.12 303.701L347.651 288.982M355.417 288.982L370.948 303.701M370.948 303.701L386.479 318.42M370.948 303.701L355.417 318.42M370.948 303.701L386.479 288.982" stroke="url(#paint0_linear_1_1397)" stroke-width="6" stroke-linecap="round"/>
<defs>
<linearGradient id="paint0_linear_1_1397" x1="194.865" y1="-41.0864" x2="194.865" y2="318.42" gradientUnits="userSpaceOnUse">
<stop stop-color="#32094F"/>
<stop offset="1" stop-color="#32094F"/>
</linearGradient>
</defs>
</svg>
