<svg width="1421" height="1024" viewBox="0 0 1421 1024" fill="none" xmlns="http://www.w3.org/2000/svg">
<path d="M3 -151.704L60.3455 -97.3574M60.3455 -97.3574L117.691 -43.0111M60.3455 -97.3574L3 -43.0111M60.3455 -97.3574L117.691 -151.704M146.364 -151.704L203.709 -97.3574M203.709 -97.3574L261.055 -43.0111M203.709 -97.3574L146.364 -43.0111M203.709 -97.3574L261.055 -151.704M289.727 -151.704L347.073 -97.3574M347.073 -97.3574L404.418 -43.0111M347.073 -97.3574L289.727 -43.0111M347.073 -97.3574L404.418 -151.704M433.091 -151.704L490.437 -97.3574M490.437 -97.3574L547.782 -43.0111M490.437 -97.3574L433.091 -43.0111M490.437 -97.3574L547.782 -151.704M576.455 -151.704L633.8 -97.3574M633.8 -97.3574L691.146 -43.0111M633.8 -97.3574L576.455 -43.0111M633.8 -97.3574L691.146 -151.704M3 -15.838L60.3455 38.5083M60.3455 38.5083L117.691 92.8545M60.3455 38.5083L3 92.8545M60.3455 38.5083L117.691 -15.838M146.364 -15.838L203.709 38.5083M203.709 38.5083L261.055 92.8545M203.709 38.5083L146.364 92.8545M203.709 38.5083L261.055 -15.838M289.727 -15.838L347.073 38.5083M347.073 38.5083L404.418 92.8545M347.073 38.5083L289.727 92.8545M347.073 38.5083L404.418 -15.838M433.091 -15.838L490.437 38.5083M490.437 38.5083L547.782 92.8545M490.437 38.5083L433.091 92.8545M490.437 38.5083L547.782 -15.838M576.455 -15.838L633.8 38.5083M633.8 38.5083L691.146 92.8545M633.8 38.5083L576.455 92.8545M633.8 38.5083L691.146 -15.838M3 120.028L60.3455 174.374M60.3455 174.374L117.691 228.72M60.3455 174.374L3 228.72M60.3455 174.374L117.691 120.028M146.364 120.028L203.709 174.374M203.709 174.374L261.055 228.72M203.709 174.374L146.364 228.72M203.709 174.374L261.055 120.028M289.727 120.028L347.073 174.374M347.073 174.374L404.418 228.72M347.073 174.374L289.727 228.72M347.073 174.374L404.418 120.028M433.091 120.028L490.437 174.374M490.437 174.374L547.782 228.72M490.437 174.374L433.091 228.72M490.437 174.374L547.782 120.028M576.455 120.028L633.8 174.374M633.8 174.374L691.146 228.72M633.8 174.374L576.455 228.72M633.8 174.374L691.146 120.028M3 255.893L60.3455 310.24M60.3455 310.24L117.691 364.586M60.3455 310.24L3 364.586M60.3455 310.24L117.691 255.893M146.364 255.893L203.709 310.24M203.709 310.24L261.055 364.586M203.709 310.24L146.364 364.586M203.709 310.24L261.055 255.893M289.727 255.893L347.073 310.24M347.073 310.24L404.418 364.586M347.073 310.24L289.727 364.586M347.073 310.24L404.418 255.893M433.091 255.893L490.437 310.24M490.437 310.24L547.782 364.586M490.437 310.24L433.091 364.586M490.437 310.24L547.782 255.893M576.455 255.893L633.8 310.24M633.8 310.24L691.146 364.586M633.8 310.24L576.455 364.586M633.8 310.24L691.146 255.893M3 391.759L60.3455 446.105M60.3455 446.105L117.691 500.451M60.3455 446.105L3 500.451M60.3455 446.105L117.691 391.759M146.364 391.759L203.709 446.105M203.709 446.105L261.055 500.451M203.709 446.105L146.364 500.451M203.709 446.105L261.055 391.759M289.727 391.759L347.073 446.105M347.073 446.105L404.418 500.451M347.073 446.105L289.727 500.451M347.073 446.105L404.418 391.759M433.091 391.759L490.437 446.105M490.437 446.105L547.782 500.451M490.437 446.105L433.091 500.451M490.437 446.105L547.782 391.759M576.455 391.759L633.8 446.105M633.8 446.105L691.146 500.451M633.8 446.105L576.455 500.451M633.8 446.105L691.146 391.759M729.854 -151.704L787.2 -97.3574M787.2 -97.3574L844.545 -43.0111M787.2 -97.3574L729.854 -43.0111M787.2 -97.3574L844.545 -151.704M873.218 -151.704L930.563 -97.3574M930.563 -97.3574L987.909 -43.0111M930.563 -97.3574L873.218 -43.0111M930.563 -97.3574L987.909 -151.704M1016.58 -151.704L1073.93 -97.3574M1073.93 -97.3574L1131.27 -43.0111M1073.93 -97.3574L1016.58 -43.0111M1073.93 -97.3574L1131.27 -151.704M1159.95 -151.704L1217.29 -97.3574M1217.29 -97.3574L1274.64 -43.0111M1217.29 -97.3574L1159.95 -43.0111M1217.29 -97.3574L1274.64 -151.704M1303.31 -151.704L1360.65 -97.3574M1360.65 -97.3574L1418 -43.0111M1360.65 -97.3574L1303.31 -43.0111M1360.65 -97.3574L1418 -151.704M729.854 -15.838L787.2 38.5083M787.2 38.5083L844.545 92.8545M787.2 38.5083L729.854 92.8545M787.2 38.5083L844.545 -15.838M873.218 -15.838L930.563 38.5083M930.563 38.5083L987.909 92.8545M930.563 38.5083L873.218 92.8545M930.563 38.5083L987.909 -15.838M1016.58 -15.838L1073.93 38.5083M1073.93 38.5083L1131.27 92.8545M1073.93 38.5083L1016.58 92.8545M1073.93 38.5083L1131.27 -15.838M1159.95 -15.838L1217.29 38.5083M1217.29 38.5083L1274.64 92.8545M1217.29 38.5083L1159.95 92.8545M1217.29 38.5083L1274.64 -15.838M1303.31 -15.838L1360.65 38.5083M1360.65 38.5083L1418 92.8545M1360.65 38.5083L1303.31 92.8545M1360.65 38.5083L1418 -15.838M729.854 120.028L787.2 174.374M787.2 174.374L844.545 228.72M787.2 174.374L729.854 228.72M787.2 174.374L844.545 120.028M873.218 120.028L930.563 174.374M930.563 174.374L987.909 228.72M930.563 174.374L873.218 228.72M930.563 174.374L987.909 120.028M1016.58 120.028L1073.93 174.374M1073.93 174.374L1131.27 228.72M1073.93 174.374L1016.58 228.72M1073.93 174.374L1131.27 120.028M1159.95 120.028L1217.29 174.374M1217.29 174.374L1274.64 228.72M1217.29 174.374L1159.95 228.72M1217.29 174.374L1274.64 120.028M1303.31 120.028L1360.65 174.374M1360.65 174.374L1418 228.72M1360.65 174.374L1303.31 228.72M1360.65 174.374L1418 120.028M729.854 255.893L787.2 310.24M787.2 310.24L844.545 364.586M787.2 310.24L729.854 364.586M787.2 310.24L844.545 255.893M873.218 255.893L930.563 310.24M930.563 310.24L987.909 364.586M930.563 310.24L873.218 364.586M930.563 310.24L987.909 255.893M1016.58 255.893L1073.93 310.24M1073.93 310.24L1131.27 364.586M1073.93 310.24L1016.58 364.586M1073.93 310.24L1131.27 255.893M1159.95 255.893L1217.29 310.24M1217.29 310.24L1274.64 364.586M1217.29 310.24L1159.95 364.586M1217.29 310.24L1274.64 255.893M1303.31 255.893L1360.65 310.24M1360.65 310.24L1418 364.586M1360.65 310.24L1303.31 364.586M1360.65 310.24L1418 255.893M729.854 391.759L787.2 446.105M787.2 446.105L844.545 500.451M787.2 446.105L729.854 500.451M787.2 446.105L844.545 391.759M873.218 391.759L930.563 446.105M930.563 446.105L987.909 500.451M930.563 446.105L873.218 500.451M930.563 446.105L987.909 391.759M1016.58 391.759L1073.93 446.105M1073.93 446.105L1131.27 500.451M1073.93 446.105L1016.58 500.451M1073.93 446.105L1131.27 391.759M1159.95 391.759L1217.29 446.105M1217.29 446.105L1274.64 500.451M1217.29 446.105L1159.95 500.451M1217.29 446.105L1274.64 391.759M1303.31 391.759L1360.65 446.105M1360.65 446.105L1418 500.451M1360.65 446.105L1303.31 500.451M1360.65 446.105L1418 391.759M3 523.549L60.3455 577.895M60.3455 577.895L117.691 632.241M60.3455 577.895L3 632.241M60.3455 577.895L117.691 523.549M146.364 523.549L203.709 577.895M203.709 577.895L261.055 632.241M203.709 577.895L146.364 632.241M203.709 577.895L261.055 523.549M289.727 523.549L347.073 577.895M347.073 577.895L404.418 632.241M347.073 577.895L289.727 632.241M347.073 577.895L404.418 523.549M433.091 523.549L490.437 577.895M490.437 577.895L547.782 632.241M490.437 577.895L433.091 632.241M490.437 577.895L547.782 523.549M576.455 523.549L633.8 577.895M633.8 577.895L691.146 632.241M633.8 577.895L576.455 632.241M633.8 577.895L691.146 523.549M3 659.414L60.3455 713.761M60.3455 713.761L117.691 768.107M60.3455 713.761L3 768.107M60.3455 713.761L117.691 659.414M146.364 659.414L203.709 713.761M203.709 713.761L261.055 768.107M203.709 713.761L146.364 768.107M203.709 713.761L261.055 659.414M289.727 659.414L347.073 713.761M347.073 713.761L404.418 768.107M347.073 713.761L289.727 768.107M347.073 713.761L404.418 659.414M433.091 659.414L490.437 713.761M490.437 713.761L547.782 768.107M490.437 713.761L433.091 768.107M490.437 713.761L547.782 659.414M576.455 659.414L633.8 713.761M633.8 713.761L691.146 768.107M633.8 713.761L576.455 768.107M633.8 713.761L691.146 659.414M3 795.28L60.3455 849.626M60.3455 849.626L117.691 903.972M60.3455 849.626L3 903.972M60.3455 849.626L117.691 795.28M146.364 795.28L203.709 849.626M203.709 849.626L261.055 903.972M203.709 849.626L146.364 903.972M203.709 849.626L261.055 795.28M289.727 795.28L347.073 849.626M347.073 849.626L404.418 903.972M347.073 849.626L289.727 903.972M347.073 849.626L404.418 795.28M433.091 795.28L490.437 849.626M490.437 849.626L547.782 903.972M490.437 849.626L433.091 903.972M490.437 849.626L547.782 795.28M576.455 795.28L633.8 849.626M633.8 849.626L691.146 903.972M633.8 849.626L576.455 903.972M633.8 849.626L691.146 795.28M3 931.146L60.3455 985.492M60.3455 985.492L117.691 1039.84M60.3455 985.492L3 1039.84M60.3455 985.492L117.691 931.146M146.364 931.146L203.709 985.492M203.709 985.492L261.055 1039.84M203.709 985.492L146.364 1039.84M203.709 985.492L261.055 931.146M289.727 931.146L347.073 985.492M347.073 985.492L404.418 1039.84M347.073 985.492L289.727 1039.84M347.073 985.492L404.418 931.146M433.091 931.146L490.437 985.492M490.437 985.492L547.782 1039.84M490.437 985.492L433.091 1039.84M490.437 985.492L547.782 931.146M576.455 931.146L633.8 985.492M633.8 985.492L691.146 1039.84M633.8 985.492L576.455 1039.84M633.8 985.492L691.146 931.146M3 1067.01L60.3455 1121.36M60.3455 1121.36L117.691 1175.7M60.3455 1121.36L3 1175.7M60.3455 1121.36L117.691 1067.01M146.364 1067.01L203.709 1121.36M203.709 1121.36L261.055 1175.7M203.709 1121.36L146.364 1175.7M203.709 1121.36L261.055 1067.01M289.727 1067.01L347.073 1121.36M347.073 1121.36L404.418 1175.7M347.073 1121.36L289.727 1175.7M347.073 1121.36L404.418 1067.01M433.091 1067.01L490.437 1121.36M490.437 1121.36L547.782 1175.7M490.437 1121.36L433.091 1175.7M490.437 1121.36L547.782 1067.01M576.455 1067.01L633.8 1121.36M633.8 1121.36L691.146 1175.7M633.8 1121.36L576.455 1175.7M633.8 1121.36L691.146 1067.01M729.854 523.549L787.2 577.895M787.2 577.895L844.545 632.241M787.2 577.895L729.854 632.241M787.2 577.895L844.545 523.549M873.218 523.549L930.563 577.895M930.563 577.895L987.909 632.241M930.563 577.895L873.218 632.241M930.563 577.895L987.909 523.549M1016.58 523.549L1073.93 577.895M1073.93 577.895L1131.27 632.241M1073.93 577.895L1016.58 632.241M1073.93 577.895L1131.27 523.549M1159.95 523.549L1217.29 577.895M1217.29 577.895L1274.64 632.241M1217.29 577.895L1159.95 632.241M1217.29 577.895L1274.64 523.549M1303.31 523.549L1360.65 577.895M1360.65 577.895L1418 632.241M1360.65 577.895L1303.31 632.241M1360.65 577.895L1418 523.549M729.854 659.414L787.2 713.761M787.2 713.761L844.545 768.107M787.2 713.761L729.854 768.107M787.2 713.761L844.545 659.414M873.218 659.414L930.563 713.761M930.563 713.761L987.909 768.107M930.563 713.761L873.218 768.107M930.563 713.761L987.909 659.414M1016.58 659.414L1073.93 713.761M1073.93 713.761L1131.27 768.107M1073.93 713.761L1016.58 768.107M1073.93 713.761L1131.27 659.414M1159.95 659.414L1217.29 713.761M1217.29 713.761L1274.64 768.107M1217.29 713.761L1159.95 768.107M1217.29 713.761L1274.64 659.414M1303.31 659.414L1360.65 713.761M1360.65 713.761L1418 768.107M1360.65 713.761L1303.31 768.107M1360.65 713.761L1418 659.414M729.854 795.28L787.2 849.626M787.2 849.626L844.545 903.972M787.2 849.626L729.854 903.972M787.2 849.626L844.545 795.28M873.218 795.28L930.563 849.626M930.563 849.626L987.909 903.972M930.563 849.626L873.218 903.972M930.563 849.626L987.909 795.28M1016.58 795.28L1073.93 849.626M1073.93 849.626L1131.27 903.972M1073.93 849.626L1016.58 903.972M1073.93 849.626L1131.27 795.28M1159.95 795.28L1217.29 849.626M1217.29 849.626L1274.64 903.972M1217.29 849.626L1159.95 903.972M1217.29 849.626L1274.64 795.28M1303.31 795.28L1360.65 849.626M1360.65 849.626L1418 903.972M1360.65 849.626L1303.31 903.972M1360.65 849.626L1418 795.28M729.854 931.146L787.2 985.492M787.2 985.492L844.545 1039.84M787.2 985.492L729.854 1039.84M787.2 985.492L844.545 931.146M873.218 931.146L930.563 985.492M930.563 985.492L987.909 1039.84M930.563 985.492L873.218 1039.84M930.563 985.492L987.909 931.146M1016.58 931.146L1073.93 985.492M1073.93 985.492L1131.27 1039.84M1073.93 985.492L1016.58 1039.84M1073.93 985.492L1131.27 931.146M1159.95 931.146L1217.29 985.492M1217.29 985.492L1274.64 1039.84M1217.29 985.492L1159.95 1039.84M1217.29 985.492L1274.64 931.146M1303.31 931.146L1360.65 985.492M1360.65 985.492L1418 1039.84M1360.65 985.492L1303.31 1039.84M1360.65 985.492L1418 931.146M729.854 1067.01L787.2 1121.36M787.2 1121.36L844.545 1175.7M787.2 1121.36L729.854 1175.7M787.2 1121.36L844.545 1067.01M873.218 1067.01L930.563 1121.36M930.563 1121.36L987.909 1175.7M930.563 1121.36L873.218 1175.7M930.563 1121.36L987.909 1067.01M1016.58 1067.01L1073.93 1121.36M1073.93 1121.36L1131.27 1175.7M1073.93 1121.36L1016.58 1175.7M1073.93 1121.36L1131.27 1067.01M1159.95 1067.01L1217.29 1121.36M1217.29 1121.36L1274.64 1175.7M1217.29 1121.36L1159.95 1175.7M1217.29 1121.36L1274.64 1067.01M1303.31 1067.01L1360.65 1121.36M1360.65 1121.36L1418 1175.7M1360.65 1121.36L1303.31 1175.7M1360.65 1121.36L1418 1067.01" stroke="url(#paint0_linear_1_1498)" stroke-width="6" stroke-linecap="round"/>
<defs>
<linearGradient id="paint0_linear_1_1498" x1="710.5" y1="-151.704" x2="710.5" y2="1175.7" gradientUnits="userSpaceOnUse">
<stop stop-color="#32094F"/>
<stop offset="1" stop-color="#32094F"/>
</linearGradient>
</defs>
</svg>
