<svg width="1440" height="5068" viewBox="0 0 1440 5068" fill="none" xmlns="http://www.w3.org/2000/svg">
<g clip-path="url(#clip0_1_3)">
<path d="M473 227C473 227 462.31 509.996 371 656C273.492 811.916 0 946 0 946" stroke="#3B3854"/>
<path d="M567.5 283.5C567.5 283.5 552.31 662.996 461 809C363.492 964.916 0 1047 0 1047" stroke="#3B3854"/>
<path d="M657.5 293.5C657.5 293.5 713.81 720.496 622.5 866.5C524.992 1022.42 -4 1136 -4 1136" stroke="#3B3854"/>
<path d="M969.5 278.5C969.5 278.5 949.863 530.996 1041.17 677C1138.68 832.916 1440.5 868.5 1440.5 868.5" stroke="#3B3854"/>
</g>
<defs>
<clipPath id="clip0_1_3">
<rect width="1440" height="5068" fill="white"/>
</clipPath>
</defs>
</svg>
