<svg width="390" height="563" viewBox="0 0 390 563" fill="none" xmlns="http://www.w3.org/2000/svg">
<path d="M409.025 230.713C409.025 230.713 306.251 248.983 232.272 314.826C107.025 426.297 165.207 603.521 165.207 603.521" stroke="#3B3854"/>
<path d="M425.004 290.347C425.004 290.347 322.23 308.617 248.251 374.46C123.004 485.931 226.488 648.699 226.488 648.699" stroke="#3B3854"/>
<path d="M440.792 349.269C440.792 349.269 331.514 360.888 264.039 433.382C212.994 488.224 242.758 599.305 242.758 599.305" stroke="#3B3854"/>
<path d="M-5.39817 159.752C-5.39817 159.752 39.3676 125.526 138.102 133.253C253.102 142.253 331.102 255.253 331.102 255.253" stroke="#3B3854"/>
<path d="M-5.39808 225.253C-5.39808 225.253 33.3106 185.118 132.347 185.118C225.102 185.118 298.102 270.253 298.102 270.253" stroke="#3B3854"/>
<path d="M-5.39815 295.753C-5.39815 295.753 41.6454 241.778 140.602 245.753C215.463 248.759 255.602 295.753 255.602 295.753" stroke="#3B3854"/>
</svg>
