<svg width="96" height="96" viewBox="0 0 96 96" fill="none" xmlns="http://www.w3.org/2000/svg">
<g id="img_right" filter="url(#filter0_d_31_1156)">
<path id="Vector" d="M48.0507 52.4378C45.8653 52.4378 43.5759 51.6949 43.5759 49.9967V35.4561C43.5759 34.9254 43.9922 34.607 44.4084 34.607C44.9288 34.607 45.2409 35.0315 45.2409 35.4561V49.8905C45.345 49.9967 46.2816 50.5274 47.9466 50.5274C49.6116 50.5274 50.5482 49.9967 50.6523 49.7844V35.3499C50.6523 34.8192 51.0685 34.5008 51.4848 34.5008C52.0051 34.5008 52.3173 34.9254 52.3173 35.3499V49.7844C52.6295 51.5887 50.236 52.4378 48.0507 52.4378ZM73.7545 39.9138C72.1935 39.9138 70.9448 38.6401 70.9448 37.0481C70.9448 35.4561 72.1935 34.1824 73.7545 34.1824C75.3155 34.1824 76.5642 35.4561 76.5642 37.0481C76.5642 38.6401 75.3155 39.9138 73.7545 39.9138ZM73.7545 35.9867C73.1301 35.9867 72.7139 36.5174 72.7139 37.0481C72.7139 37.6849 73.2342 38.1095 73.7545 38.1095C74.3789 38.1095 74.7951 37.5788 74.7951 37.0481C74.7951 36.4113 74.3789 35.9867 73.7545 35.9867ZM22.3468 39.9138C20.7859 39.9138 19.5371 38.6401 19.5371 37.0481C19.5371 35.4561 20.7859 34.1824 22.3468 34.1824C23.9078 34.1824 25.1566 35.4561 25.1566 37.0481C25.1566 38.6401 23.9078 39.9138 22.3468 39.9138ZM22.3468 35.9867C21.7225 35.9867 21.3062 36.5174 21.3062 37.0481C21.3062 37.6849 21.8265 38.1095 22.3468 38.1095C22.9712 38.1095 23.3875 37.5788 23.3875 37.0481C23.3875 36.4113 22.9712 35.9867 22.3468 35.9867ZM66.366 26.3284C65.0131 26.3284 63.9725 25.267 63.9725 23.8872C63.9725 22.5075 65.0131 21.4461 66.366 21.4461C67.7188 21.4461 68.7594 22.5075 68.7594 23.8872C68.7594 25.267 67.7188 26.3284 66.366 26.3284ZM66.366 23.3565C66.0538 23.3565 65.7416 23.675 65.7416 23.9934C65.7416 24.3118 66.0538 24.6302 66.366 24.6302C66.6782 24.6302 66.9903 24.3118 66.9903 23.9934C66.9903 23.5688 66.6782 23.3565 66.366 23.3565ZM30.1516 26.3284C28.7988 26.3284 27.7582 25.267 27.7582 23.8872C27.7582 22.5075 28.7988 21.4461 30.1516 21.4461C31.5045 21.4461 32.5451 22.5075 32.5451 23.8872C32.5451 25.267 31.4004 26.3284 30.1516 26.3284ZM30.1516 23.3565C29.8395 23.3565 29.5273 23.675 29.5273 23.9934C29.5273 24.3118 29.8395 24.6302 30.1516 24.6302C30.4638 24.6302 30.776 24.3118 30.776 23.9934C30.776 23.5688 30.4638 23.3565 30.1516 23.3565ZM48.0507 23.4627C45.9694 23.4627 45.0328 22.8259 44.9288 22.7197C44.8247 22.6136 44.7206 22.5075 44.7206 22.4013L41.0784 15.927C40.9743 15.7148 40.8703 15.2902 41.0784 15.0779L42.3271 12.5307C42.4312 12.2123 42.7434 12 43.1597 12H53.2539C53.5661 12 53.8783 12.2123 54.0864 12.5307L55.3352 15.0779C55.4392 15.3964 55.4392 15.7148 55.3352 15.927L51.4848 22.5075C51.3807 22.6136 51.3807 22.7197 51.2767 22.8259C51.0685 22.8259 50.132 23.4627 48.0507 23.4627ZM46.0735 21.34C46.2816 21.4461 46.906 21.6584 48.0507 21.6584C49.1954 21.6584 49.8198 21.4461 50.0279 21.34L53.3579 15.5025L52.5254 13.9104H43.4719L42.6393 15.5025L46.0735 21.34Z" fill="#BBBDBF"/>
<path id="Vector_2" d="M48.0517 76.0002C32.4421 76.0002 19.3301 71.7547 16.1041 65.705C16 65.5988 16 65.3866 16 65.2804V59.2307C16 58.7 16.4163 58.3816 16.8325 58.3816C17.3528 58.3816 17.665 58.8061 17.665 59.2307V65.0681C20.6829 70.3749 33.3787 74.1958 47.9477 74.1958C62.5167 74.1958 75.5247 70.1627 78.3344 64.8559V59.2307C78.3344 58.7 78.7507 58.3816 79.1669 58.3816C79.6872 58.3816 79.9994 58.8061 79.9994 59.2307V65.0681C79.9994 65.1743 79.9994 65.3866 79.8954 65.4927C77.0856 71.6486 63.9736 76.0002 48.0517 76.0002ZM69.2808 37.6851L48.0517 32.166L26.8227 37.6851C26.3023 37.7912 25.8861 37.4728 25.782 37.0482C25.678 36.5176 25.9902 36.093 26.4064 35.9869L47.8436 30.4678C47.9477 30.4678 48.1558 30.4678 48.2599 30.4678L69.6971 35.9869C70.2174 36.093 70.4255 36.6237 70.3215 37.0482C70.2174 37.4728 69.8011 37.7912 69.2808 37.6851ZM69.9052 35.3501L54.0875 28.7696C53.9834 28.6635 53.7753 28.6635 53.7753 28.4512L51.2777 25.2672C50.9655 24.8426 51.0696 24.3119 51.3818 23.9935C51.7981 23.6751 52.3184 23.7813 52.6306 24.0997L54.92 27.0715L70.5296 33.5458C70.9458 33.758 71.154 34.2887 71.0499 34.7133C70.8418 35.2439 70.4255 35.4562 69.9052 35.3501ZM25.9902 35.3501C25.678 35.3501 25.3658 35.1378 25.1576 34.8194C24.9495 34.3948 25.1576 33.8642 25.678 33.6519L41.1835 27.1776L43.4729 24.2058C43.7851 23.7813 44.3054 23.7813 44.7217 24.0997C45.1379 24.4181 45.138 24.9487 44.8258 25.3733L42.3282 28.5574C42.2242 28.6635 42.1201 28.7696 42.016 28.8758L26.3023 35.2439C26.1983 35.3501 26.0942 35.3501 25.9902 35.3501ZM57.1053 26.3285C57.0013 25.7978 57.3134 25.3733 57.8338 25.2672L62.5167 24.3119C63.037 24.2058 63.4532 24.5242 63.5573 25.0549C63.6614 25.5856 63.3492 26.0101 62.8288 26.1162L58.146 27.0715C57.6256 27.1776 57.2094 26.8592 57.1053 26.3285ZM38.3738 27.0715L33.6909 26.1162C33.1706 26.0101 32.8584 25.5856 32.9624 25.0549C33.0665 24.5242 33.4828 24.2058 34.0031 24.3119L38.686 25.2672C39.2063 25.3733 39.5185 25.7978 39.4144 26.3285C39.3104 26.8592 38.8941 27.1776 38.3738 27.0715Z" fill="#FFC400"/>
<path id="Vector_3" d="M48.0517 66.2354C30.0487 66.2354 16 60.3979 16 53.0746C16 46.7064 26.5105 41.3996 41.5998 40.126C42.1201 40.126 42.5363 40.4444 42.5363 40.9751C42.5363 41.5057 42.2242 41.9303 41.7038 41.9303C27.9674 43.0978 17.665 47.8739 17.665 53.0746C17.665 59.2305 31.5056 64.5373 47.9477 64.5373C64.3898 64.5373 78.2303 59.3366 78.2303 53.0746C78.2303 47.8739 67.928 43.0978 54.1915 41.9303C53.6712 41.9303 53.359 41.5057 53.359 40.9751C53.359 40.4444 53.7753 40.126 54.2956 40.126C69.3849 41.3996 79.9994 46.7064 79.9994 53.0746C80.1035 60.5041 66.0548 66.2354 48.0517 66.2354ZM48.0517 63.6882C47.5314 63.6882 47.2192 63.2636 47.2192 62.8391V61.1409C47.2192 60.6102 47.6355 60.2918 48.0517 60.2918C48.5721 60.2918 48.8843 60.7164 48.8843 61.1409V62.8391C48.9883 63.2636 48.5721 63.6882 48.0517 63.6882ZM36.7088 62.6268C36.2925 62.4145 36.0844 61.8839 36.2925 61.4593L37.021 59.9734C37.2291 59.5489 37.7494 59.3366 38.1657 59.5489C38.5819 59.7611 38.79 60.2918 38.5819 60.7164L37.8535 62.2023C37.6453 62.7329 37.125 62.8391 36.7088 62.6268ZM58.6663 62.0961L57.9378 60.6102C57.7297 60.1857 57.8338 59.655 58.3541 59.4427C58.7703 59.2305 59.2907 59.3366 59.4988 59.8673L60.2272 61.3532C60.4354 61.7777 60.3313 62.3084 59.811 62.5207C59.4988 62.7329 58.8744 62.5207 58.6663 62.0961ZM25.5739 59.3366C25.3658 58.912 25.5739 58.3814 25.9902 58.1691L28.9039 56.6832C29.3202 56.4709 29.8405 56.6832 30.0487 57.1077C30.2568 57.5323 30.0487 58.063 29.6324 58.2752L26.7186 59.655C26.3023 59.8673 25.782 59.7611 25.5739 59.3366ZM69.8011 59.5489L66.8873 58.063C66.4711 57.8507 66.263 57.32 66.4711 56.8955C66.6792 56.4709 67.1995 56.2586 67.6158 56.4709L70.5296 57.9568C70.9458 58.1691 71.154 58.6998 70.9458 59.1243C70.8418 59.5489 70.3215 59.7611 69.8011 59.5489ZM48.0517 59.5489C38.0616 59.5489 27.343 56.7893 27.343 51.6948C27.343 47.4494 34.7315 45.0082 41.5998 44.1591C42.1201 44.053 42.5363 44.4776 42.5363 44.9021C42.6404 45.4328 42.2242 45.8573 41.8079 45.8573C33.4828 46.8125 29.1121 49.4659 29.1121 51.5887C29.1121 54.4543 36.9169 57.6384 48.0517 57.6384C59.1866 57.6384 66.9914 54.4543 66.9914 51.5887C66.9914 49.4659 62.6207 46.9187 54.2956 45.8573C53.7753 45.7512 53.4631 45.3266 53.5671 44.9021C53.6712 44.3714 54.0875 44.053 54.5037 44.1591C61.372 45.0082 68.7605 47.3432 68.7605 51.6948C68.7605 56.7893 58.146 59.5489 48.0517 59.5489ZM76.2531 53.0746H70.7377C70.2174 53.0746 69.9052 52.65 69.9052 52.2255C69.9052 51.6948 70.3215 51.3764 70.7377 51.3764H76.2531C76.7734 51.3764 77.0856 51.8009 77.0856 52.2255C77.0856 52.65 76.6694 53.0746 76.2531 53.0746ZM25.4698 53.0746H19.9544C19.4341 53.0746 19.1219 52.65 19.1219 52.2255C19.1219 51.6948 19.5382 51.3764 19.9544 51.3764H25.4698C25.9902 51.3764 26.3023 51.8009 26.3023 52.2255C26.4064 52.65 25.9902 53.0746 25.4698 53.0746ZM27.9674 47.6616L27.4471 47.4494C27.0308 47.2371 26.8227 46.7064 27.0308 46.2819C27.2389 45.8573 27.7592 45.645 28.1755 45.8573L28.6958 46.0696C29.1121 46.2819 29.3202 46.8125 29.1121 47.2371C28.9039 47.6616 28.3836 47.8739 27.9674 47.6616ZM67.0955 47.0248C66.8873 46.6003 67.0955 46.0696 67.5117 45.8573L68.0321 45.645C68.4483 45.4328 68.9686 45.645 69.1768 46.0696C69.3849 46.4941 69.1768 47.0248 68.7605 47.2371L68.2402 47.4494C67.8239 47.6616 67.3036 47.5555 67.0955 47.0248Z" fill="#17E200"/>
<path id="Vector_4" d="M48.0507 23.1441C46.0734 23.1441 45.1369 22.6134 45.1369 22.5072C45.0328 22.5072 45.0328 22.4011 45.0328 22.295L41.3905 15.8207C41.2865 15.7145 41.2865 15.5023 41.3905 15.29L42.6393 12.7427C42.7434 12.5305 42.9515 12.4243 43.1596 12.4243H53.2539C53.462 12.4243 53.6701 12.5305 53.7742 12.7427L55.0229 15.29C55.127 15.5023 55.127 15.6084 55.0229 15.8207L51.1726 22.295C51.1726 22.4011 51.0685 22.4011 51.0685 22.5072C50.9644 22.5072 50.1319 23.1441 48.0507 23.1441ZM45.7612 21.6581C45.9694 21.7643 46.6978 22.0827 48.0507 22.0827C49.4035 22.0827 50.1319 21.7643 50.3401 21.6581L53.7742 15.6084L52.7335 13.5918H43.2637L42.2231 15.6084L45.7612 21.6581Z" fill="#E6E7E8"/>
<path id="Vector_5" d="M30.153 26.0099C29.0083 26.0099 28.1758 25.0547 28.1758 23.9933C28.1758 22.8258 29.1124 21.8706 30.153 21.8706C31.2977 21.8706 32.2343 22.8258 32.2343 23.9933C32.1302 25.0547 31.1936 26.0099 30.153 26.0099ZM30.153 22.932C29.6327 22.932 29.2164 23.3565 29.2164 23.8872C29.2164 24.4179 29.6327 24.8424 30.153 24.8424C30.6733 24.8424 31.0896 24.4179 31.0896 23.8872C31.0896 23.3565 30.6733 22.932 30.153 22.932Z" fill="#E6E7E8"/>
<path id="Vector_6" d="M66.3684 26.0099C65.2237 26.0099 64.2871 25.0547 64.2871 23.9933C64.2871 22.8258 65.2237 21.8706 66.3684 21.8706C67.5131 21.8706 68.4497 22.8258 68.4497 23.9933C68.4497 25.0547 67.5131 26.0099 66.3684 26.0099ZM66.3684 22.932C65.8481 22.932 65.4318 23.3565 65.4318 23.8872C65.4318 24.4179 65.8481 24.8424 66.3684 24.8424C66.8887 24.8424 67.305 24.4179 67.305 23.8872C67.305 23.3565 66.8887 22.932 66.3684 22.932Z" fill="#E6E7E8"/>
<path id="Vector_7" d="M22.3471 39.5955C20.9943 39.5955 19.8496 38.428 19.8496 37.0482C19.8496 35.6685 20.9943 34.501 22.3471 34.501C23.7 34.501 24.8447 35.6685 24.8447 37.0482C24.8447 38.428 23.7 39.5955 22.3471 39.5955ZM22.3471 35.5623C21.5146 35.5623 20.8903 36.1992 20.8903 37.0482C20.8903 37.8973 21.5146 38.5341 22.3471 38.5341C23.1797 38.5341 23.804 37.8973 23.804 37.0482C23.804 36.1992 23.1797 35.5623 22.3471 35.5623Z" fill="#E6E7E8"/>
<path id="Vector_8" d="M73.7553 39.5955C72.4025 39.5955 71.2578 38.428 71.2578 37.0482C71.2578 35.6685 72.4025 34.501 73.7553 34.501C75.1082 34.501 76.2529 35.6685 76.2529 37.0482C76.2529 38.428 75.1082 39.5955 73.7553 39.5955ZM73.7553 35.5623C72.9228 35.5623 72.2985 36.1992 72.2985 37.0482C72.2985 37.8973 72.9228 38.5341 73.7553 38.5341C74.5879 38.5341 75.2122 37.8973 75.2122 37.0482C75.2122 36.1992 74.4838 35.5623 73.7553 35.5623Z" fill="#E6E7E8"/>
<path id="Vector_9" d="M48.0512 52.0129C45.97 52.0129 43.8887 51.27 43.8887 49.8902V35.4557C43.8887 35.1373 44.0968 34.925 44.409 34.925C44.7212 34.925 44.9293 35.1373 44.9293 35.4557V49.8902C44.9293 50.2086 46.074 50.9516 48.0512 50.9516C49.9244 50.9516 51.1732 50.3148 51.1732 49.8902V35.4557C51.1732 35.1373 51.3813 34.925 51.6935 34.925C52.0057 34.925 52.2138 35.1373 52.2138 35.4557V49.8902C52.2138 51.27 50.1325 52.0129 48.0512 52.0129Z" fill="#E6E7E8"/>
<path id="Vector_10" d="M48.051 22.7198C46.0738 22.7198 45.3454 22.1891 45.3454 22.1891C45.3454 22.1891 45.3454 22.1891 45.3454 22.083L41.7031 15.6087C41.7031 15.6087 41.7031 15.5025 41.7031 15.3964L42.8478 12.9553C42.8478 12.8491 42.9519 12.8491 43.056 12.8491H53.1502C53.2542 12.8491 53.2542 12.8491 53.3583 12.9553L54.6071 15.5025C54.6071 15.6087 54.6071 15.6087 54.6071 15.7148L50.9648 22.1891C50.9648 22.1891 50.9648 22.1891 50.9648 22.2952C50.7567 22.1891 50.0283 22.7198 48.051 22.7198ZM45.5535 21.8707C45.6576 21.9768 46.4901 22.4014 48.051 22.4014C49.7161 22.4014 50.4445 21.9768 50.5486 21.8707L54.1908 15.6087L53.0461 13.2737H43.16L42.0153 15.6087L45.5535 21.8707Z" fill="white"/>
<path id="Vector_11" d="M30.1533 25.6918C29.2167 25.6918 28.4883 24.9488 28.4883 23.9936C28.4883 23.0384 29.2167 22.2954 30.1533 22.2954C31.0899 22.2954 31.8183 23.0384 31.8183 23.9936C31.8183 24.8427 31.0899 25.6918 30.1533 25.6918ZM30.1533 22.6138C29.4249 22.6138 28.8005 23.2506 28.8005 23.9936C28.8005 24.7365 29.4249 25.3734 30.1533 25.3734C30.8818 25.3734 31.5061 24.7365 31.5061 23.9936C31.4021 23.1445 30.8818 22.6138 30.1533 22.6138Z" fill="white"/>
<path id="Vector_12" d="M66.3662 25.6918C65.4296 25.6918 64.7012 24.9488 64.7012 23.9936C64.7012 23.0384 65.4296 22.2954 66.3662 22.2954C67.3028 22.2954 68.0312 23.0384 68.0312 23.9936C68.0312 24.8427 67.3028 25.6918 66.3662 25.6918ZM66.3662 22.6138C65.6377 22.6138 65.0134 23.2506 65.0134 23.9936C65.0134 24.7365 65.6377 25.3734 66.3662 25.3734C67.0946 25.3734 67.719 24.7365 67.719 23.9936C67.719 23.1445 67.0946 22.6138 66.3662 22.6138Z" fill="white"/>
<path id="Vector_13" d="M22.3489 39.2766C21.2042 39.2766 20.2676 38.3214 20.2676 37.1539C20.2676 35.9864 21.2042 34.925 22.3489 34.925C23.4936 34.925 24.4301 35.8803 24.4301 37.1539C24.4301 38.2153 23.4936 39.2766 22.3489 39.2766ZM22.3489 35.2435C21.4123 35.2435 20.5798 36.0925 20.5798 37.0478C20.5798 38.003 21.4123 38.8521 22.3489 38.8521C23.2854 38.8521 24.118 38.003 24.118 37.0478C24.118 36.0925 23.2854 35.2435 22.3489 35.2435Z" fill="white"/>
<path id="Vector_14" d="M73.7551 39.2766C72.6104 39.2766 71.6738 38.3214 71.6738 37.1539C71.6738 35.9864 72.6104 34.925 73.7551 34.925C74.8998 34.925 75.8364 35.8803 75.8364 37.1539C75.8364 38.2153 74.8998 39.2766 73.7551 39.2766ZM73.7551 35.2435C72.8185 35.2435 71.986 36.0925 71.986 37.0478C71.986 38.003 72.8185 38.8521 73.7551 38.8521C74.6917 38.8521 75.5242 38.003 75.5242 37.0478C75.5242 36.0925 74.6917 35.2435 73.7551 35.2435Z" fill="white"/>
<path id="Vector_15" d="M48.0529 51.6947C45.9717 51.6947 44.3066 50.9518 44.3066 49.8904V35.4559C44.3066 35.3498 44.4107 35.2437 44.5148 35.2437C44.6188 35.2437 44.7229 35.3498 44.7229 35.4559V49.8904C44.7229 50.5272 46.0757 51.2702 48.157 51.2702C50.2383 51.2702 51.5911 50.5272 51.5911 49.8904V35.4559C51.5911 35.3498 51.6952 35.2437 51.7993 35.2437C51.9033 35.2437 52.0074 35.3498 52.0074 35.4559V49.8904C51.9033 50.9518 50.2383 51.6947 48.0529 51.6947Z" fill="white"/>
<path id="Vector_16" d="M48.0509 59.2305C36.6038 59.2305 27.6543 55.9403 27.6543 51.6949C27.6543 48.4047 33.1697 45.539 41.5989 44.5838C41.9111 44.5838 42.1192 44.796 42.2233 45.0083C42.2233 45.3267 42.0151 45.539 41.807 45.6451C34.1063 46.6003 28.799 49.0415 28.799 51.6949C28.799 54.7728 36.6038 58.1692 48.0509 58.1692C59.602 58.1692 67.3027 54.879 67.3027 51.6949C67.3027 49.0415 61.9955 46.4942 54.2947 45.6451C53.9825 45.6451 53.7744 45.3267 53.8785 45.0083C53.8785 44.6899 54.1906 44.4776 54.5028 44.5838C63.0361 45.6451 68.4474 48.4047 68.4474 51.6949C68.4474 55.9403 59.4979 59.2305 48.0509 59.2305Z" fill="#AAFF5C"/>
<path id="Vector_17" d="M48.0521 65.9172C30.2571 65.9172 16.3125 60.292 16.3125 53.0748C16.3125 46.9189 26.7189 41.7182 41.6001 40.4446C41.9123 40.4446 42.1204 40.6569 42.1204 40.9753C42.1204 41.2937 41.9123 41.5059 41.6001 41.5059C27.6555 42.6734 17.4572 47.5557 17.4572 53.0748C17.4572 59.5491 31.1937 64.8559 48.0521 64.8559C64.9104 64.8559 78.751 59.5491 78.751 53.0748C78.751 47.5557 68.5527 42.6734 54.4 41.6121C54.0878 41.6121 53.8796 41.2937 53.8796 41.0814C53.8796 40.763 54.0878 40.5507 54.4 40.5507C69.2811 41.8243 79.6875 46.9189 79.6875 53.1809C79.7916 60.292 65.847 65.9172 48.0521 65.9172Z" fill="#AAFF5C"/>
<path id="Vector_18" d="M48.0516 63.2639C47.7394 63.2639 47.5312 63.0517 47.5312 62.7333V61.0351C47.5312 60.7167 47.7394 60.5044 48.0516 60.5044C48.3638 60.5044 48.5719 60.7167 48.5719 61.0351V62.7333C48.5719 63.0517 48.3638 63.2639 48.0516 63.2639Z" fill="#AAFF5C"/>
<path id="Vector_19" d="M25.4693 52.7562H19.9539C19.6417 52.7562 19.4336 52.5439 19.4336 52.2255C19.4336 51.9071 19.6417 51.6948 19.9539 51.6948H25.4693C25.7815 51.6948 25.9896 51.9071 25.9896 52.2255C25.9896 52.5439 25.7815 52.7562 25.4693 52.7562Z" fill="#AAFF5C"/>
<path id="Vector_20" d="M76.2545 52.7562H70.7391C70.4269 52.7562 70.2188 52.5439 70.2188 52.2255C70.2188 51.9071 70.4269 51.6948 70.7391 51.6948H76.2545C76.5667 51.6948 76.7748 51.9071 76.7748 52.2255C76.7748 52.5439 76.5667 52.7562 76.2545 52.7562Z" fill="#AAFF5C"/>
<path id="Vector_21" d="M36.9169 62.3084C36.7088 62.2023 36.6047 61.8839 36.7088 61.5655L37.4372 60.0796C37.5413 59.8673 37.8535 59.7612 38.1657 59.8673C38.3738 59.9735 38.4779 60.2919 38.3738 60.6103L37.6454 62.0962C37.4372 62.4146 37.1251 62.5207 36.9169 62.3084Z" fill="#AAFF5C"/>
<path id="Vector_22" d="M25.8865 59.1245C25.7825 58.8061 25.8865 58.4877 26.0947 58.3815L29.0085 56.8956C29.3206 56.7895 29.6328 56.8956 29.7369 57.1079C29.841 57.4263 29.7369 57.7447 29.5288 57.8509L26.615 59.3368C26.3028 59.549 25.9906 59.4429 25.8865 59.1245Z" fill="#AAFF5C"/>
<path id="Vector_23" d="M58.9783 61.99L58.2498 60.5041C58.1457 60.2918 58.2498 59.8673 58.4579 59.7611C58.6661 59.655 59.0823 59.7611 59.1864 59.9734L59.9148 61.4593C60.0189 61.6716 59.9148 62.0961 59.7067 62.2023C59.4986 62.3084 59.0823 62.2022 58.9783 61.99Z" fill="#AAFF5C"/>
<path id="Vector_24" d="M70.0092 59.2307L67.0954 57.7448C66.7832 57.5325 66.6791 57.2141 66.7832 56.8957C66.8872 56.5773 67.1994 56.4712 67.5116 56.6834L70.4254 58.1693C70.7376 58.2755 70.7376 58.5939 70.6335 58.9123C70.6335 59.2307 70.2173 59.3368 70.0092 59.2307Z" fill="#AAFF5C"/>
<path id="Vector_25" d="M28.1746 47.2369L27.6543 47.0246C27.3421 46.9185 27.238 46.6001 27.4462 46.2817C27.5502 45.9633 27.8624 45.8571 28.1746 46.0694L28.6949 46.2817C29.0071 46.3878 29.1112 46.7062 28.9031 47.0246C28.6949 47.343 28.3827 47.4492 28.1746 47.2369Z" fill="#AAFF5C"/>
<path id="Vector_26" d="M67.408 46.919C67.3039 46.6006 67.408 46.2822 67.6161 46.176L68.1365 45.9638C68.4487 45.8576 68.7608 45.9638 68.8649 46.176C68.969 46.4944 68.8649 46.8128 68.6568 46.919L68.1365 47.1313C67.8243 47.3435 67.5121 47.2374 67.408 46.919Z" fill="#AAFF5C"/>
<path id="Vector_27" d="M48.0526 58.8059C37.0218 58.8059 28.0723 55.6219 28.0723 51.6948C28.0723 48.6169 33.5877 45.8573 41.7047 44.9021C41.8087 44.9021 41.9128 45.0083 41.9128 45.0083C41.9128 45.1144 41.8087 45.2205 41.8087 45.2205C33.7958 46.1758 28.4885 48.723 28.4885 51.6948C28.4885 55.4096 37.334 58.4875 48.1566 58.4875C58.9793 58.4875 67.8248 55.4096 67.8248 51.6948C67.8248 48.8291 62.4134 46.1758 54.5046 45.2205C54.4005 45.2205 54.2964 45.1144 54.4005 45.0083C54.4005 44.9021 54.5046 44.796 54.6086 44.9021C62.7256 45.8573 68.241 48.6169 68.241 51.6948C68.137 55.6219 59.0834 58.8059 48.0526 58.8059Z" fill="#E4FFA3"/>
<path id="Vector_28" d="M48.0518 65.4924C30.7772 65.4924 16.7285 59.8672 16.7285 52.9683C16.7285 47.0247 27.239 41.9302 41.7039 40.7627C41.808 40.7627 41.912 40.8688 41.912 40.975C41.912 41.0811 41.808 41.1872 41.7039 41.1872C27.4471 42.3547 17.0407 47.3431 17.0407 53.0745C17.0407 59.761 30.9853 65.174 48.0518 65.174C65.1183 65.174 79.0629 59.761 79.0629 53.0745C79.0629 47.3431 68.6565 42.3547 54.3997 41.1872C54.2957 41.1872 54.1916 41.0811 54.1916 40.975C54.1916 40.8688 54.2957 40.7627 54.3997 40.7627C68.8646 41.9302 79.3751 47.1309 79.3751 52.9683C79.4792 59.9733 65.3265 65.4924 48.0518 65.4924Z" fill="#E4FFA3"/>
<path id="Vector_29" d="M48.0521 62.9452C47.9479 62.9452 47.8438 62.8391 47.8438 62.733V61.0348C47.8438 60.9286 47.9479 60.8225 48.0521 60.8225C48.1563 60.8225 48.2604 60.9286 48.2604 61.0348V62.733C48.2604 62.8391 48.1563 62.9452 48.0521 62.9452Z" fill="#E4FFA3"/>
<path id="Vector_30" d="M25.4696 52.3328H19.9542C19.8502 52.3328 19.7461 52.2264 19.7461 52.12C19.7461 52.0136 19.8502 51.9072 19.9542 51.9072H25.4696C25.5737 51.9072 25.6777 52.0136 25.6777 52.12C25.6777 52.3328 25.5737 52.3328 25.4696 52.3328Z" fill="#E4FFA3"/>
<path id="Vector_31" d="M76.2528 52.3328H70.7374C70.6334 52.3328 70.5293 52.2264 70.5293 52.12C70.5293 52.0136 70.6334 51.9072 70.7374 51.9072H76.2528C76.3569 51.9072 76.461 52.0136 76.461 52.12C76.3569 52.3328 76.3569 52.3328 76.2528 52.3328Z" fill="#E4FFA3"/>
<path id="Vector_32" d="M37.0201 61.9901C36.916 61.9901 36.916 61.884 36.916 61.7778L37.6445 60.2919C37.6445 60.1858 37.7485 60.1858 37.8526 60.1858C37.9567 60.1858 37.9567 60.2919 37.9567 60.3981L37.2282 61.884C37.2282 61.9901 37.1241 62.0962 37.0201 61.9901Z" fill="#E4FFA3"/>
<path id="Vector_33" d="M26.1992 58.9123C26.1992 58.8061 26.1992 58.7 26.3033 58.7L29.2171 57.2141C29.3211 57.2141 29.4252 57.2141 29.4252 57.3202C29.4252 57.4264 29.4252 57.5325 29.3211 57.5325L26.4073 59.0184C26.3033 59.1246 26.1992 59.0184 26.1992 58.9123Z" fill="#E4FFA3"/>
<path id="Vector_34" d="M59.2909 61.7778L58.5625 60.2919C58.5625 60.1857 58.5625 60.0796 58.6666 60.0796C58.7706 60.0796 58.8747 60.0796 58.8747 60.1857L59.6031 61.6716C59.6031 61.7778 59.6031 61.8839 59.4991 61.8839C59.4991 61.8839 59.395 61.8839 59.2909 61.7778Z" fill="#E4FFA3"/>
<path id="Vector_35" d="M70.1136 58.9122L67.1998 57.4263C67.0957 57.4263 67.0957 57.3202 67.0957 57.214C67.0957 57.1079 67.3038 57.1079 67.3038 57.1079L70.2176 58.5938C70.3217 58.5938 70.3217 58.7 70.3217 58.8061C70.3217 58.9122 70.2176 58.9122 70.1136 58.9122Z" fill="#E4FFA3"/>
<path id="Vector_36" d="M28.2793 46.9189L27.7585 46.7066C27.6543 46.7066 27.6543 46.6005 27.6543 46.4943C27.6543 46.3882 27.7585 46.3882 27.8626 46.3882L28.3835 46.6005C28.4876 46.6005 28.4876 46.7066 28.4876 46.8127C28.4876 46.9189 28.3835 47.025 28.2793 46.9189Z" fill="#E4FFA3"/>
<path id="Vector_37" d="M67.7207 46.8127C67.7207 46.7066 67.7207 46.6005 67.8249 46.6005L68.3457 46.3882C68.4499 46.3882 68.554 46.3882 68.554 46.4943C68.554 46.6005 68.554 46.7066 68.4499 46.7066L67.929 46.9189C67.8249 46.9189 67.7207 46.8127 67.7207 46.8127Z" fill="#E4FFA3"/>
<path id="Vector_38" d="M70.0099 34.9255L54.1922 28.3451C54.0881 28.3451 53.984 28.239 53.984 28.1328L51.4865 24.9487C51.2784 24.7365 51.3824 24.4181 51.5906 24.2058C51.7987 23.9935 52.1109 24.0997 52.319 24.3119L54.7125 27.3899L70.4262 33.9703C70.7384 34.0764 70.8424 34.3948 70.7384 34.7133C70.6343 34.9255 70.3221 35.0317 70.0099 34.9255Z" fill="#FFEC4A"/>
<path id="Vector_39" d="M69.3855 37.2602L48.0524 31.8472L26.7193 37.3663C26.5111 37.3663 26.1989 37.154 26.1989 36.9418C26.0949 36.6234 26.303 36.4111 26.6152 36.305L48.0524 30.7859C48.1565 30.7859 48.2605 30.7859 48.3646 30.7859L69.8018 36.305C70.114 36.4111 70.2181 36.6234 70.2181 36.9418C69.9059 37.154 69.6977 37.3663 69.3855 37.2602Z" fill="#FFEC4A"/>
<path id="Vector_40" d="M25.989 35.0317C25.7809 35.0317 25.5728 34.9255 25.4687 34.7133C25.3646 34.3948 25.4687 34.0764 25.7809 33.9703L41.3905 27.3899L43.784 24.3119C43.9921 24.0997 44.3043 23.9935 44.5124 24.2058C44.7206 24.4181 44.8246 24.7365 44.6165 24.9487L42.119 28.1328C42.0149 28.239 42.0149 28.239 41.9108 28.3451L26.1972 34.9255C26.0931 35.0317 26.0931 35.0317 25.989 35.0317Z" fill="#FFEC4A"/>
<path id="Vector_41" d="M38.4778 26.7529L33.7949 25.7977C33.4827 25.6916 33.2746 25.4793 33.3786 25.1609C33.4827 24.8425 33.6908 24.6302 34.003 24.7363L38.6859 25.6916C38.9981 25.7977 39.2062 26.01 39.1022 26.3284C38.9981 26.5407 38.79 26.7529 38.4778 26.7529Z" fill="#FFEC4A"/>
<path id="Vector_42" d="M57.4177 26.3284C57.3136 26.01 57.5218 25.7977 57.834 25.6916L62.5168 24.7363C62.829 24.6302 63.0372 24.8425 63.1412 25.1609C63.2453 25.4793 63.0372 25.6916 62.725 25.7977L58.0421 26.7529C57.7299 26.7529 57.4177 26.5407 57.4177 26.3284Z" fill="#FFEC4A"/>
<path id="Vector_43" d="M48.0521 75.6817C32.5465 75.6817 19.5385 71.5424 16.4166 65.5988C16.4166 65.4927 16.3125 65.3865 16.3125 65.3865V59.3368C16.3125 59.0184 16.5206 58.8061 16.8328 58.8061C17.145 58.8061 17.3531 59.0184 17.3531 59.3368V65.2804C20.4751 70.5872 33.275 74.5142 48.0521 74.5142C63.0373 74.5142 75.9412 70.481 78.751 64.962V59.2306C78.751 58.9122 78.9591 58.7 79.2713 58.7C79.5835 58.7 79.7916 58.9122 79.7916 59.2306V65.0681C79.7916 65.1742 79.7916 65.2804 79.6875 65.2804C76.8778 71.3301 63.5576 75.6817 48.0521 75.6817Z" fill="#FFEC4A"/>
<path id="Vector_44" d="M70.2176 34.6069L54.3998 28.0265C54.3998 28.0265 54.3998 28.0265 54.2957 27.9203L51.7982 24.7363C51.6941 24.6301 51.7982 24.524 51.7982 24.524C51.9023 24.4178 52.0063 24.524 52.0063 24.524L54.5039 27.7081L70.3216 34.2885C70.4257 34.2885 70.4257 34.3946 70.4257 34.5008C70.4257 34.6069 70.3216 34.713 70.2176 34.6069Z" fill="white"/>
<path id="Vector_45" d="M69.4902 36.942L48.053 31.4229L26.7198 36.942C26.6158 36.942 26.5117 36.942 26.5117 36.8358C26.5117 36.7297 26.5117 36.6236 26.6158 36.6236L48.053 31.1045H48.1571L69.5943 36.6236C69.6983 36.6236 69.6983 36.7297 69.6983 36.8358C69.6983 36.942 69.5943 36.942 69.4902 36.942Z" fill="white"/>
<path id="Vector_46" d="M25.9894 34.6071C25.8853 34.6071 25.8853 34.6071 25.7812 34.501C25.7812 34.3948 25.7813 34.2887 25.8853 34.2887L41.599 27.7083L44.0965 24.5242C44.2006 24.418 44.3047 24.418 44.3047 24.5242C44.4087 24.6303 44.4087 24.7365 44.3047 24.7365L41.8071 27.9205C41.8071 27.9205 41.8071 27.9205 41.7031 28.0267L25.9894 34.6071Z" fill="white"/>
<path id="Vector_47" d="M38.4785 26.3283L33.7956 25.3731C33.6915 25.3731 33.5875 25.267 33.6915 25.1608C33.6915 25.0547 33.7956 24.9486 33.8997 25.0547L38.5826 26.0099C38.6866 26.0099 38.7907 26.1161 38.6866 26.2222C38.6866 26.3283 38.5826 26.4345 38.4785 26.3283Z" fill="white"/>
<path id="Vector_48" d="M57.7305 26.2222C57.7305 26.116 57.7305 26.0099 57.8345 26.0099L62.5174 25.0547C62.6215 25.0547 62.7255 25.0547 62.7255 25.1608C62.7255 25.267 62.7255 25.3731 62.6215 25.3731L57.9386 26.3283C57.8345 26.4345 57.7305 26.3283 57.7305 26.2222Z" fill="white"/>
<path id="Vector_49" d="M48.0518 75.2573C32.9625 75.2573 19.7464 71.118 16.7285 65.3867V65.2805V59.2308C16.7285 59.1246 16.8326 59.0185 16.9366 59.0185C17.0407 59.0185 17.1448 59.1246 17.1448 59.2308V65.1744C20.1626 70.7996 33.1706 74.8328 48.1559 74.8328C63.3492 74.8328 76.3572 70.6934 79.271 64.9621V59.1246C79.271 59.0185 79.3751 58.9124 79.4792 58.9124C79.5832 58.9124 79.6873 59.0185 79.6873 59.1246V64.9621V65.0682C76.6694 71.0119 63.4533 75.2573 48.0518 75.2573Z" fill="white"/>
</g>
<defs>
<filter id="filter0_d_31_1156" x="0" y="0" width="96" height="96.0002" filterUnits="userSpaceOnUse" color-interpolation-filters="sRGB">
<feFlood flood-opacity="0" result="BackgroundImageFix"/>
<feColorMatrix in="SourceAlpha" type="matrix" values="0 0 0 0 0 0 0 0 0 0 0 0 0 0 0 0 0 0 127 0" result="hardAlpha"/>
<feOffset dy="4"/>
<feGaussianBlur stdDeviation="8"/>
<feComposite in2="hardAlpha" operator="out"/>
<feColorMatrix type="matrix" values="0 0 0 0 0.0901961 0 0 0 0 0.886275 0 0 0 0 0 0 0 0 1 0"/>
<feBlend mode="normal" in2="BackgroundImageFix" result="effect1_dropShadow_31_1156"/>
<feBlend mode="normal" in="SourceGraphic" in2="effect1_dropShadow_31_1156" result="shape"/>
</filter>
</defs>
</svg>
