<svg width="96" height="96" viewBox="0 0 96 96" fill="none" xmlns="http://www.w3.org/2000/svg">
<g id="img_left" filter="url(#filter0_d_31_1100)">
<path id="Vector" d="M35.6398 51.6605C35.1362 51.6605 34.7333 51.2726 34.834 50.7877C34.834 50.4968 35.4383 45.0665 38.8627 40.5089L32.5175 39.7332C32.1147 39.6362 31.7118 39.2483 31.8125 38.8605C31.9132 38.3756 32.3161 38.0847 32.719 38.1817L40.5749 39.1514C40.877 39.1514 41.1792 39.3453 41.2799 39.6362C41.3806 39.9271 41.2799 40.218 41.0785 40.412C37.0498 44.6786 36.4455 50.8847 36.4455 50.8847C36.4455 51.2726 36.0426 51.6605 35.6398 51.6605ZM53.4667 49.915C52.9631 49.915 52.5602 49.5271 52.6609 49.0423C52.6609 48.8483 52.9631 45.1635 55.2796 41.8665L51.1502 41.3817C50.6466 41.3817 50.3444 40.8968 50.4452 40.5089C50.5459 40.0241 50.9487 39.7332 51.3516 39.8302L56.9918 40.412C57.2939 40.412 57.5961 40.6059 57.6968 40.8968C57.7975 41.1877 57.7975 41.4786 57.5961 41.6726C54.8767 44.6786 54.4738 49.0423 54.4738 49.0423C54.2724 49.6241 53.8695 49.915 53.4667 49.915ZM66.862 49.0423C66.3584 49.0423 66.0563 48.6544 66.0563 48.2665C66.0563 48.1695 66.0563 45.6483 67.3656 43.3211L64.747 43.1271C64.2434 43.1271 63.9412 42.7392 64.0419 42.2544C64.0419 41.7695 64.4448 41.4786 64.9484 41.5756L68.8764 41.9635C69.1785 41.9635 69.4806 42.1574 69.5814 42.4483C69.6821 42.7392 69.6821 43.0302 69.4806 43.2241C67.7685 45.4544 67.7685 48.3635 67.7685 48.3635C67.7685 48.6544 67.3656 49.0423 66.862 49.0423Z" fill="#FF0703"/>
<path id="Vector_2" d="M24.0574 61.7454H16.8057C16.3022 61.7454 16 61.3575 16 60.9697C16 60.4848 16.4029 60.1939 16.8057 60.1939H24.0574L70.79 52.5333C71.1929 51.6606 71.9986 49.1394 71.9986 45.2606C71.9986 41.3818 70.9914 38.8606 70.5886 37.9878L24.1581 27.0303L17.2086 27.1272C16.705 27.1272 16.4029 26.7394 16.4029 26.3515C16.4029 25.8666 16.8057 25.5757 17.2086 25.5757L24.2588 25.4788C24.3595 25.4788 24.3595 25.4788 24.4602 25.4788L71.1929 36.4363C71.3943 36.5333 71.5957 36.6303 71.6964 36.8242C71.7972 36.9212 73.4086 39.9272 73.4086 45.1636C73.4086 50.4 71.9986 53.3091 71.8979 53.503C71.7972 53.6969 71.5957 53.8909 71.2936 53.9878L24.0574 61.7454ZM24.5609 59.5151C24.4602 59.5151 24.3595 59.5151 24.3595 59.5151C23.9566 59.4182 23.6545 58.9333 23.7552 58.5454C27.8846 45.0666 23.7552 29.3575 23.7552 29.1636C23.6545 28.7757 23.9566 28.2909 24.3595 28.1939C24.7624 28.0969 25.266 28.3879 25.3667 28.7757C25.5681 29.4545 29.5968 45.1636 25.3667 59.0303C25.266 59.2242 24.8631 59.5151 24.5609 59.5151ZM27.5824 57.2848C27.1796 57.2848 26.7767 56.9939 26.7767 56.606C26.676 56.2182 26.9781 55.7333 27.4817 55.7333L43.0928 53.503C43.4957 53.406 43.9993 53.6969 43.9993 54.1818C44.1 54.5697 43.7979 55.0545 43.2943 55.0545L27.6832 57.2848C27.6832 57.2848 27.6832 57.2848 27.5824 57.2848ZM45.5101 56.0242H45.4093C45.0065 55.9272 44.6036 55.5394 44.7043 55.1515C46.2151 45.3575 44.7043 33.7212 44.7043 33.6242C44.6036 33.1394 45.0065 32.7515 45.4093 32.7515C45.8122 32.6545 46.3158 33.0424 46.3158 33.4303C46.3158 33.5272 47.8265 45.3575 46.3158 55.3454C46.3158 55.7333 45.9129 56.0242 45.5101 56.0242ZM48.4308 54.4727C48.028 54.4727 47.6251 54.1818 47.6251 53.7939C47.6251 53.3091 47.9273 52.9212 48.3301 52.9212L58.5025 51.9515C58.9054 51.9515 59.409 52.2424 59.409 52.6303C59.409 53.1151 59.1068 53.503 58.704 53.503L48.4308 54.4727ZM61.1212 53.406C61.0205 53.406 61.0205 53.406 60.9197 53.406C60.5169 53.3091 60.2147 52.9212 60.3154 52.4363C61.8262 45.5515 60.3154 37.406 60.3154 37.3091C60.2147 36.9212 60.5169 36.4363 61.0205 36.3394C61.4233 36.2424 61.9269 36.5333 62.0276 37.0182C62.1283 37.406 63.6391 45.5515 62.0276 52.7272C61.8262 53.1151 61.524 53.406 61.1212 53.406ZM63.6391 52.7272C63.2362 52.7272 62.8334 52.4363 62.8334 52.0485C62.7326 51.6606 63.1355 51.1757 63.5384 51.1757L69.2792 50.4C69.6821 50.303 70.1857 50.6909 70.1857 51.0788C70.2864 51.4666 69.8835 51.9515 69.4807 51.9515L63.7398 52.7272H63.6391ZM69.5814 40.5091C69.4807 40.5091 69.4807 40.5091 69.38 40.5091L63.4377 39.2485C63.0348 39.1515 62.7326 38.7636 62.8334 38.2788C62.9341 37.8909 63.3369 37.6 63.8405 37.6969L69.7828 38.9575C70.1857 39.0545 70.4878 39.4424 70.3871 39.9272C70.2864 40.2182 69.9843 40.5091 69.5814 40.5091ZM58.6033 38.2788C58.5025 38.2788 58.5025 38.2788 58.4018 38.2788L48.2294 36.2424C47.8265 36.1454 47.5244 35.7575 47.6251 35.2727C47.7258 34.8848 48.1287 34.5939 48.6323 34.6909L58.8047 36.7272C59.2076 36.8242 59.5097 37.2121 59.409 37.6969C59.3083 38.0848 59.0061 38.2788 58.6033 38.2788ZM43.2943 35.7575C43.1936 35.7575 43.1936 35.7575 43.0928 35.7575L27.4817 32.2666C27.0789 32.1697 26.7767 31.7818 26.8774 31.2969C26.9781 30.9091 27.381 30.6182 27.8846 30.7151L43.4957 34.206C43.8986 34.303 44.2007 34.6909 44.1 35.1757C43.9993 35.4666 43.5964 35.7575 43.2943 35.7575Z" fill="#FFC400"/>
<path id="Vector_3" d="M22.6471 76C22.5464 76 22.345 76 22.2442 75.903C21.8414 75.7091 21.7406 75.2242 21.9421 74.8364L27.2801 65.7212C27.4815 65.3333 27.9851 65.2364 28.388 65.4303C28.7908 65.6242 28.8916 66.1091 28.6901 66.497L23.3521 75.6121C23.1507 75.8061 22.8485 76 22.6471 76ZM53.3658 74.8364C53.0636 74.8364 52.7615 74.6424 52.56 74.3515L52.3586 73.6727C52.1572 73.2849 52.3586 72.8 52.7615 72.6061C53.1643 72.4121 53.6679 72.6061 53.8693 72.9939L54.1715 73.6727C54.3729 74.0606 54.1715 74.5455 53.7686 74.7394C53.5672 74.8364 53.4665 74.8364 53.3658 74.8364ZM38.4597 74.3515C37.9561 74.3515 37.6539 73.9636 37.6539 73.4788L37.9561 66.9818C37.9561 66.497 38.3589 66.2061 38.8625 66.2061C39.3661 66.2061 39.6683 66.5939 39.6683 67.0788L39.2654 73.5758C39.2654 73.9636 38.9632 74.3515 38.4597 74.3515ZM52.1572 71.8303C51.855 71.8303 51.5529 71.6364 51.3514 71.3455L48.6321 64.9455C48.4306 64.5576 48.6321 64.0727 49.0349 63.8788C49.4378 63.6849 49.9414 63.8788 50.1428 64.2667L52.8622 70.6667C53.0636 71.0546 52.8622 71.5394 52.4593 71.7333C52.3586 71.8303 52.2579 71.8303 52.1572 71.8303ZM66.8618 69.1152C66.6604 69.1152 66.459 69.0182 66.2575 68.9212L60.5167 63.4909C60.2145 63.2 60.2145 62.7152 60.5167 62.3273C60.8188 62.0364 61.3224 62.0364 61.7253 62.3273L67.4661 67.7576C67.7683 68.0485 67.7683 68.5333 67.4661 68.9212C67.2647 69.0182 67.0633 69.1152 66.8618 69.1152ZM79.1493 64.4606C79.0486 64.4606 78.8471 64.4606 78.7464 64.3636L68.9769 59.4182C68.574 59.2242 68.3726 58.7394 68.6747 58.3515C68.8762 57.9636 69.3797 57.7697 69.7826 58.0606L79.5522 63.0061C79.955 63.2 80.1565 63.6849 79.8543 64.0727C79.7536 64.2667 79.4514 64.4606 79.1493 64.4606ZM69.7826 31.103C69.4805 31.103 69.279 31.0061 69.0776 30.7152C68.8762 30.3273 68.9769 29.8424 69.279 29.6485L76.0271 25.3818C76.4299 25.1879 76.9335 25.2848 77.1349 25.5758C77.3364 25.9636 77.2357 26.4485 76.9335 26.6424L70.1855 30.8121C70.0848 31.103 69.8833 31.103 69.7826 31.103ZM61.4231 26.7394C61.3224 26.7394 61.121 26.7394 61.0202 26.6424C60.6174 26.4485 60.5167 25.9636 60.7181 25.5758L63.941 20.4364C64.1425 20.0485 64.646 19.9515 65.0489 20.1455C65.4518 20.3394 65.5525 20.8242 65.3511 21.2121L62.1281 26.3515C61.9267 26.5455 61.7253 26.7394 61.4231 26.7394ZM78.8471 25.4788C78.545 25.4788 78.3435 25.3818 78.1421 25.0909C77.9407 24.703 78.0414 24.2182 78.3436 24.0242L78.6457 23.8303C79.0486 23.6364 79.5521 23.7333 79.7536 24.0242C79.955 24.4121 79.8543 24.897 79.5522 25.0909L79.25 25.2848C79.1493 25.3818 78.9479 25.4788 78.8471 25.4788ZM49.74 23.6364C49.74 23.6364 49.6392 23.6364 49.5385 23.6364C49.1356 23.5394 48.8335 23.1515 48.8335 22.6667L50.8478 12.6788C50.9486 12.2909 51.3514 12 51.855 12C52.2579 12.097 52.56 12.4848 52.56 12.9697L50.5457 22.9576C50.445 23.3455 50.1428 23.6364 49.74 23.6364ZM26.6758 22.9576L22.5464 18.0121C22.2442 17.6242 22.345 17.1394 22.6471 16.8485C23.05 16.5576 23.5536 16.6545 23.8557 16.9455L27.9851 21.8909C28.2872 22.2788 28.1865 22.7636 27.8844 23.0545C27.4815 23.3455 26.9779 23.3455 26.6758 22.9576ZM38.7618 21.503C38.3589 21.503 38.0568 21.2121 37.9561 20.8242L36.7475 14.4242C36.6468 14.0364 36.9489 13.5515 37.4525 13.4545C37.8554 13.3576 38.3589 13.6485 38.4597 14.1333L39.6683 20.5333C39.769 20.9212 39.4668 21.4061 38.9632 21.503C38.8625 21.503 38.7618 21.503 38.7618 21.503ZM21.5392 16.3636C21.3378 16.3636 21.0356 16.2667 20.9349 16.0727L20.532 15.5879C20.2299 15.2 20.3306 14.7152 20.6328 14.4242C21.0356 14.1333 21.5392 14.2303 21.8414 14.5212L22.1435 15.103C22.4457 15.4909 22.345 15.9758 22.0428 16.2667C21.8414 16.3636 21.7406 16.3636 21.5392 16.3636Z" fill="#BBBDBF"/>
<path id="Vector_4" d="M21.5386 16.0729C21.4379 16.0729 21.2364 15.9759 21.1357 15.879L20.7328 15.3941C20.5314 15.2002 20.6321 14.9093 20.8336 14.7153C21.035 14.5214 21.3371 14.6184 21.5386 14.8123L21.9414 15.2972C22.1429 15.4911 22.0422 15.782 21.8407 15.9759C21.74 15.9759 21.6393 16.0729 21.5386 16.0729Z" fill="#E6E7E8"/>
<path id="Vector_5" d="M26.9794 22.7639L22.85 17.8184C22.6486 17.6245 22.7493 17.3336 22.9507 17.1396C23.1522 16.9457 23.4543 17.0427 23.6558 17.2366L27.7852 22.1821C27.9866 22.376 27.8859 22.6669 27.6844 22.8609C27.483 23.0548 27.1809 22.9578 26.9794 22.7639Z" fill="#E6E7E8"/>
<path id="Vector_6" d="M49.7419 23.3455C49.6411 23.3455 49.6411 23.3455 49.7419 23.3455C49.339 23.2485 49.2383 23.0546 49.2383 22.7637L51.2526 12.7758C51.3533 12.4849 51.5548 12.3879 51.8569 12.3879C52.1591 12.4849 52.2598 12.6788 52.2598 12.9698L50.2455 22.9576C50.1447 23.1516 49.9433 23.3455 49.7419 23.3455Z" fill="#E6E7E8"/>
<path id="Vector_7" d="M78.8479 25.0908C78.6465 25.0908 78.5458 24.9938 78.4451 24.8969C78.3443 24.7029 78.3443 24.412 78.5458 24.2181L78.8479 24.0241C79.0494 23.9272 79.3515 23.9272 79.5529 24.1211C79.6537 24.3151 79.6537 24.606 79.4522 24.7999L79.1501 24.9938C79.0494 25.0908 78.9486 25.0908 78.8479 25.0908Z" fill="#E6E7E8"/>
<path id="Vector_8" d="M69.7835 30.812C69.582 30.812 69.4813 30.715 69.3806 30.618C69.2799 30.4241 69.2799 30.1332 69.4813 29.9392L76.2294 25.7695C76.4308 25.5756 76.7329 25.6726 76.9344 25.8665C77.0351 26.0604 77.0351 26.3513 76.8337 26.5453L70.0856 30.715C69.9849 30.812 69.8842 30.812 69.7835 30.812Z" fill="#E6E7E8"/>
<path id="Vector_9" d="M79.1494 64.1697C79.0487 64.1697 78.948 64.1697 78.948 64.0728L69.1784 59.1273C68.977 59.0304 68.8763 58.7394 68.977 58.4485C69.0777 58.2546 69.3799 58.1576 69.682 58.2546L79.4516 63.2C79.653 63.297 79.7537 63.5879 79.653 63.8788C79.4516 64.0728 79.3509 64.1697 79.1494 64.1697Z" fill="#E6E7E8"/>
<path id="Vector_10" d="M53.3669 74.5454C53.1655 74.5454 52.9641 74.4484 52.8634 74.2545L52.5612 73.5757C52.4605 73.2848 52.5612 73.0909 52.8634 72.9939C53.1655 72.8969 53.3669 72.9939 53.4677 73.2848L53.7698 73.9636C53.8705 74.2545 53.7698 74.4484 53.4677 74.5454C53.4677 74.5454 53.4677 74.5454 53.3669 74.5454Z" fill="#E6E7E8"/>
<path id="Vector_11" d="M52.1572 71.5396C51.9558 71.5396 51.7543 71.4426 51.6536 71.2487L48.9343 64.8487C48.8335 64.5577 48.9343 64.3638 49.2364 64.2668C49.5386 64.1699 49.74 64.2668 49.8407 64.5577L52.5601 70.9577C52.6608 71.2487 52.5601 71.4426 52.2579 71.5396H52.1572Z" fill="#E6E7E8"/>
<path id="Vector_12" d="M22.6475 75.6119C22.5467 75.6119 22.446 75.6119 22.446 75.5149C22.2446 75.4179 22.1439 75.127 22.2446 74.8361L27.5826 65.8179C27.6833 65.624 27.9855 65.527 28.2876 65.624C28.489 65.7209 28.5898 66.0119 28.489 66.3028L23.151 75.4179C22.9496 75.5149 22.7482 75.6119 22.6475 75.6119Z" fill="#E6E7E8"/>
<path id="Vector_13" d="M38.761 21.2122C38.5596 21.2122 38.3581 21.0183 38.2574 20.8243L37.0488 14.4243C37.0488 14.1334 37.1495 13.9395 37.4517 13.8425C37.7538 13.8425 37.9553 13.9395 38.056 14.2304L39.2646 20.6304C39.2646 20.9213 39.0632 21.1153 38.761 21.2122Z" fill="#E6E7E8"/>
<path id="Vector_14" d="M61.424 26.3515C61.3232 26.3515 61.2225 26.3515 61.1218 26.2545C60.9204 26.1575 60.8197 25.8666 60.9204 25.5757L64.1433 20.4363C64.244 20.2424 64.5462 20.1454 64.8483 20.2424C65.0498 20.3394 65.1505 20.6303 65.0498 20.9212L61.8268 26.0606C61.7261 26.3515 61.5247 26.3515 61.424 26.3515Z" fill="#E6E7E8"/>
<path id="Vector_15" d="M66.8621 68.8242C66.7613 68.8242 66.5599 68.8242 66.5599 68.7272L60.819 63.2969C60.6176 63.103 60.6176 62.8121 60.819 62.6181C61.0205 62.4242 61.3226 62.4242 61.5241 62.6181L67.2649 68.0484C67.4664 68.2424 67.4664 68.5333 67.2649 68.7272C67.1642 68.7272 66.9628 68.8242 66.8621 68.8242Z" fill="#E6E7E8"/>
<path id="Vector_16" d="M38.4606 74.0604C38.1585 74.0604 37.957 73.8665 37.957 73.5756L38.2592 67.0786C38.2592 66.7877 38.4606 66.5938 38.7628 66.5938C39.0649 66.5938 39.2664 66.7877 39.2664 67.0786L38.9642 73.5756C38.9642 73.8665 38.7628 74.0604 38.4606 74.0604Z" fill="#E6E7E8"/>
<path id="Vector_17" d="M21.5405 15.782C21.5405 15.782 21.4398 15.782 21.4398 15.685L21.037 15.2002C20.9362 15.1032 21.037 15.0062 21.037 15.0062C21.1377 14.9093 21.2384 15.0062 21.2384 15.0062L21.6413 15.4911C21.742 15.5881 21.6413 15.685 21.6413 15.685C21.5405 15.685 21.5405 15.782 21.5405 15.782Z" fill="white"/>
<path id="Vector_18" d="M27.18 22.5699L23.0506 17.6245C22.9499 17.5275 23.0506 17.4305 23.0506 17.4305C23.1513 17.3336 23.2521 17.4305 23.2521 17.4305L27.3815 22.376C27.4822 22.473 27.3815 22.5699 27.3815 22.5699C27.3815 22.6669 27.2807 22.6669 27.18 22.5699Z" fill="white"/>
<path id="Vector_19" d="M49.7405 22.9576C49.6398 22.9576 49.5391 22.8607 49.5391 22.7637L51.5534 12.7758C51.5534 12.6788 51.6541 12.5819 51.7548 12.6788C51.8556 12.6788 51.8556 12.7758 51.8556 12.8728L49.8412 22.8607C49.8412 22.9576 49.8412 22.9576 49.7405 22.9576Z" fill="white"/>
<path id="Vector_20" d="M78.8468 24.8C78.7461 24.8 78.7461 24.8 78.7461 24.7031C78.7461 24.6061 78.7461 24.5091 78.7461 24.5091L79.0482 24.3152C79.149 24.3152 79.2497 24.3152 79.2497 24.3152C79.2497 24.4122 79.2497 24.5091 79.2497 24.5091L78.8468 24.8Z" fill="white"/>
<path id="Vector_21" d="M69.7822 30.521C69.6815 30.521 69.6815 30.521 69.6815 30.4241C69.5808 30.3271 69.6815 30.2301 69.6815 30.2301L76.4295 26.0604C76.5302 25.9635 76.6309 26.0604 76.6309 26.0604C76.6309 26.1574 76.6309 26.2544 76.6309 26.2544L69.7822 30.521Z" fill="white"/>
<path id="Vector_22" d="M79.1507 63.7818L69.2804 58.8363C69.1797 58.8363 69.1797 58.7394 69.1797 58.6424C69.1797 58.5454 69.2804 58.5454 69.3811 58.5454L79.1507 63.4909C79.2514 63.4909 79.2514 63.5878 79.2514 63.6848C79.2514 63.7818 79.1507 63.7818 79.1507 63.7818Z" fill="white"/>
<path id="Vector_23" d="M53.3669 74.1577C53.2661 74.1577 53.2661 74.1577 53.1654 74.0607L52.8633 73.3819C52.8633 73.285 52.8633 73.188 52.964 73.188C53.0647 73.188 53.1654 73.188 53.1654 73.285L53.4676 73.9637C53.5683 74.0607 53.5683 74.1577 53.3669 74.1577Z" fill="white"/>
<path id="Vector_24" d="M52.1591 71.2485C52.0584 71.2485 52.0584 71.2485 51.9576 71.1516L49.2383 64.7516C49.2383 64.6546 49.2383 64.5576 49.339 64.5576C49.4397 64.5576 49.5404 64.5576 49.5404 64.6546L52.2598 71.0546C52.2598 71.0546 52.2598 71.1516 52.1591 71.2485Z" fill="white"/>
<path id="Vector_25" d="M22.6473 75.3213C22.5466 75.3213 22.5466 75.3213 22.6473 75.3213C22.4459 75.2243 22.4459 75.1274 22.5466 75.1274L27.8846 66.1092C27.8846 66.0122 27.9853 66.0122 28.0861 66.0122C28.1868 66.0122 28.1868 66.1092 28.1868 66.2061L22.7481 75.2243C22.7481 75.3213 22.6473 75.3213 22.6473 75.3213Z" fill="white"/>
<path id="Vector_26" d="M38.7616 20.8245C38.6609 20.8245 38.6609 20.7275 38.5602 20.7275L37.3516 14.3275C37.3516 14.2305 37.3516 14.1335 37.4523 14.1335C37.553 14.1335 37.6537 14.1335 37.6537 14.2305L38.8623 20.6305C38.963 20.7275 38.8623 20.8245 38.7616 20.8245Z" fill="white"/>
<path id="Vector_27" d="M61.4227 26.0609C61.2213 25.9639 61.2213 25.867 61.322 25.867L64.545 20.7276C64.545 20.6306 64.6457 20.6306 64.7464 20.6306C64.8471 20.6306 64.8471 20.7276 64.8471 20.8246L61.6242 25.9639C61.5234 26.0609 61.4227 26.0609 61.4227 26.0609Z" fill="white"/>
<path id="Vector_28" d="M66.8624 68.4365H66.7617L61.0209 63.0062C60.9201 62.9092 60.9201 62.8122 61.0209 62.8122C61.1216 62.7153 61.2223 62.7153 61.2223 62.8122L66.9631 68.2425C67.0639 68.3395 67.0639 68.4365 66.9631 68.4365H66.8624Z" fill="white"/>
<path id="Vector_29" d="M38.4612 73.6729C38.3605 73.6729 38.2598 73.576 38.2598 73.479L38.5619 66.982C38.5619 66.8851 38.6626 66.7881 38.7634 66.7881C38.8641 66.7881 38.9648 66.8851 38.9648 66.982L38.6626 73.479C38.6626 73.6729 38.5619 73.6729 38.4612 73.6729Z" fill="white"/>
<path id="Vector_30" d="M35.6392 51.2725C35.337 51.2725 35.1356 50.9816 35.1356 50.7876C35.1356 50.4967 35.7399 44.7755 39.4664 40.2179L32.517 39.3452C32.2148 39.3452 32.0134 39.0543 32.1141 38.8604C32.1141 38.5695 32.4162 38.3755 32.7184 38.4725L40.5743 39.4422C40.7757 39.4422 40.8765 39.5392 40.9772 39.7331C41.0779 39.927 40.9772 40.121 40.8765 40.2179C36.8478 44.5816 36.2435 50.8846 36.2435 50.8846C36.1428 51.0786 35.9413 51.2725 35.6392 51.2725Z" fill="#FF7424"/>
<path id="Vector_31" d="M53.4663 49.6245C53.1641 49.6245 52.9627 49.3336 52.9627 49.1397C52.9627 48.9457 53.3655 44.97 55.8835 41.673L51.1498 41.1882C50.8476 41.1882 50.6462 40.8972 50.7469 40.7033C50.7469 40.4124 51.0491 40.3154 51.2505 40.3154L56.8906 40.8972C57.0921 40.8972 57.1928 40.9942 57.2935 41.1882C57.3942 41.3821 57.2935 41.576 57.1928 41.673C54.3727 44.776 53.9698 49.2366 53.9698 49.2366C53.8691 49.4306 53.6677 49.6245 53.4663 49.6245Z" fill="#FF7424"/>
<path id="Vector_32" d="M66.8605 48.6547C66.5584 48.6547 66.3569 48.4608 66.3569 48.1699C66.3569 48.0729 66.3569 45.3577 67.8677 42.9335L64.7455 42.6426C64.4433 42.6426 64.2419 42.3517 64.3426 42.1577C64.3426 41.8668 64.6448 41.6729 64.8462 41.7699L68.7742 42.1577C68.9756 42.1577 69.0763 42.2547 69.177 42.4486C69.2777 42.6426 69.177 42.8365 69.0763 42.9335C67.2634 45.1638 67.2634 48.2668 67.2634 48.2668C67.3641 48.4608 67.1627 48.6547 66.8605 48.6547Z" fill="#FF7424"/>
<path id="Vector_33" d="M35.6397 50.9817C35.5389 50.9817 35.4382 50.8848 35.4382 50.7878C35.4382 50.6908 36.0425 44.4848 40.0712 39.9272L32.5174 39.0545C32.4167 39.0545 32.316 38.9575 32.4167 38.8605C32.4167 38.7636 32.5174 38.6666 32.6182 38.7636L40.4741 39.7333C40.5748 39.7333 40.5748 39.7333 40.5748 39.8302C40.5748 39.9272 40.5748 39.9272 40.5748 40.0242C36.4454 44.4848 35.8411 50.8848 35.8411 50.8848C35.8411 50.8848 35.7404 50.9817 35.6397 50.9817Z" fill="#FFD60A"/>
<path id="Vector_34" d="M53.4659 49.3334C53.3652 49.3334 53.2645 49.2364 53.2645 49.1395C53.2645 49.1395 53.6673 44.6789 56.3867 41.3819L51.0487 40.8001C50.948 40.8001 50.8473 40.7031 50.948 40.6061C50.948 40.5092 51.0487 40.4122 51.1494 40.5092L56.7896 41.091C56.8903 41.091 56.8903 41.091 56.8903 41.1879C56.8903 41.2849 56.8903 41.2849 56.8903 41.3819C53.9695 44.5819 53.5666 49.1395 53.5666 49.1395C53.5666 49.2364 53.5666 49.3334 53.4659 49.3334Z" fill="#FFD60A"/>
<path id="Vector_35" d="M66.8619 48.3635C66.7611 48.3635 66.6604 48.2665 66.6604 48.1695C66.6604 48.0725 66.6604 45.0665 68.4733 42.6422L64.8475 42.3513C64.7468 42.3513 64.6461 42.2544 64.7468 42.1574C64.7468 42.0604 64.8475 41.9635 64.9482 42.0604L68.8762 42.4483C68.9769 42.4483 68.9769 42.4483 68.9769 42.5453C68.9769 42.6422 68.9769 42.6422 68.9769 42.7392C67.164 45.0665 67.0633 48.2665 67.0633 48.2665C67.0633 48.2665 66.9626 48.3635 66.8619 48.3635Z" fill="#FFD60A"/>
<path id="Vector_36" d="M16.8063 61.4544C16.5042 61.4544 16.3027 61.2604 16.3027 60.9695C16.3027 60.6786 16.5042 60.4847 16.8063 60.4847H24.0579L70.8913 52.7271C71.1934 51.9513 72.2006 49.3332 72.2006 45.1635C72.2006 40.9938 71.0927 38.2786 70.6899 37.5998L24.1587 26.7392L17.2092 26.8362C16.907 26.8362 16.7056 26.6423 16.7056 26.3513C16.7056 26.0604 16.907 25.8665 17.2092 25.8665L24.2594 25.7695L71.1934 36.7271C71.2942 36.7271 71.3949 36.8241 71.4956 36.921C71.5963 37.018 73.2078 39.9271 73.2078 45.0665C73.2078 50.2059 71.7977 53.115 71.697 53.212C71.5963 53.3089 71.4956 53.4059 71.2942 53.5029L24.0579 61.2604L16.8063 61.4544Z" fill="#FFEC4A"/>
<path id="Vector_37" d="M24.5617 59.2243H24.461C24.1589 59.1274 24.0581 58.9334 24.1589 58.6425C28.2883 45.1637 24.1589 29.2607 24.1589 29.0668C24.0581 28.7759 24.2596 28.5819 24.5617 28.4849C24.8639 28.388 25.0653 28.5819 25.166 28.8728C25.166 29.0668 29.2954 45.1637 25.166 58.9334C24.9646 59.0304 24.7632 59.2243 24.5617 59.2243Z" fill="#FFEC4A"/>
<path id="Vector_38" d="M45.5094 55.7332C45.2073 55.7332 45.0059 55.4423 45.0059 55.1514C46.5166 45.2605 45.0059 33.7211 45.0059 33.5271C45.0059 33.2362 45.2073 33.0423 45.4087 32.9453C45.7109 32.9453 45.9123 33.1392 46.013 33.3332C46.013 33.4302 47.5238 45.1635 46.013 55.1514C46.013 55.5392 45.8116 55.7332 45.5094 55.7332Z" fill="#FFEC4A"/>
<path id="Vector_39" d="M61.1208 53.018H61.0201C60.7179 52.921 60.6172 52.7271 60.6172 52.4362C62.1279 45.4544 60.6172 37.3089 60.6172 37.2119C60.6172 36.921 60.7179 36.7271 61.0201 36.6301C61.3222 36.6301 61.5236 36.7271 61.6244 37.018C61.7251 37.4059 63.1351 45.4544 61.6244 52.6301C61.6244 52.921 61.4229 53.018 61.1208 53.018Z" fill="#FFEC4A"/>
<path id="Vector_40" d="M43.2944 35.4667H43.1937L27.5826 31.9758C27.2804 31.8788 27.1797 31.6849 27.1797 31.394C27.2804 31.1031 27.4818 31.0061 27.784 31.0061L43.3951 34.497C43.6973 34.594 43.798 34.7879 43.798 35.0788C43.6973 35.2728 43.4958 35.4667 43.2944 35.4667Z" fill="#FFEC4A"/>
<path id="Vector_41" d="M27.5837 56.9941C27.3822 56.9941 27.0801 56.8002 27.0801 56.6063C27.0801 56.3154 27.1808 56.1214 27.4829 56.0244L43.1948 53.8911C43.4969 53.8911 43.6984 53.9881 43.7991 54.279C43.7991 54.5699 43.6984 54.7638 43.3962 54.8608L27.5837 56.9941C27.6844 56.9941 27.6844 56.9941 27.5837 56.9941Z" fill="#FFEC4A"/>
<path id="Vector_42" d="M58.6037 37.9877L48.3306 35.9514C48.0285 35.8544 47.9277 35.6605 47.9277 35.3696C48.0285 35.0787 48.2299 34.9817 48.532 34.9817L58.7044 37.0181C59.0066 37.115 59.1073 37.309 59.1073 37.5999C59.1073 37.8908 58.9059 37.9877 58.6037 37.9877Z" fill="#FFEC4A"/>
<path id="Vector_43" d="M69.5806 40.2181H69.4799L63.5376 38.9575C63.2355 38.8605 63.1348 38.6666 63.1348 38.3757C63.2355 38.0848 63.4369 37.9878 63.7391 37.9878L69.6814 39.2484C69.9835 39.3454 70.0842 39.5393 70.0842 39.8302C69.9835 40.0242 69.7821 40.2181 69.5806 40.2181Z" fill="#FFEC4A"/>
<path id="Vector_44" d="M48.4313 54.1816C48.2299 54.1816 47.9277 53.9876 47.9277 53.7937C47.9277 53.5028 48.1292 53.3089 48.3306 53.3089L58.503 52.2422C58.8052 52.2422 59.0066 52.4361 59.0066 52.6301C59.0066 52.921 58.8052 53.1149 58.6037 53.1149L48.4313 54.1816Z" fill="#FFEC4A"/>
<path id="Vector_45" d="M63.6384 52.3392C63.4369 52.3392 63.1348 52.1453 63.1348 51.9513C63.1348 51.6604 63.3362 51.4665 63.5376 51.3695L69.2785 50.5938C69.5806 50.5938 69.7821 50.7877 69.8828 50.9816C69.8828 51.2725 69.6814 51.4665 69.4799 51.5634L63.6384 52.3392Z" fill="#FFEC4A"/>
<path id="Vector_46" d="M16.8049 61.0668C16.7042 61.0668 16.6035 60.9699 16.6035 60.8729C16.6035 60.7759 16.7042 60.679 16.8049 60.679H24.0566L71.1921 52.9214C71.3935 52.4365 72.6021 49.7214 72.6021 45.0669C72.6021 40.4123 71.1921 37.6972 70.9906 37.3093L24.258 26.4487L17.2078 26.5456C17.1071 26.5456 17.0064 26.4487 17.0064 26.3517C17.0064 26.2547 17.1071 26.1578 17.2078 26.1578L24.258 26.0608L71.0914 37.0184C71.0914 37.0184 71.1921 37.0184 71.1921 37.1153C71.2928 37.2123 72.9043 40.0244 72.9043 45.1638C72.9043 50.3032 71.4942 53.2123 71.4942 53.2123L71.3935 53.3093L24.1573 61.0668H16.8049Z" fill="white"/>
<path id="Vector_47" d="M24.5608 58.8365C24.4601 58.8365 24.3594 58.7395 24.3594 58.6425C28.4888 45.0668 24.3594 29.0668 24.3594 28.9698C24.3594 28.8728 24.3594 28.7759 24.4601 28.7759C24.5608 28.7759 24.6615 28.7759 24.6615 28.8728C24.6615 29.0668 28.7909 45.0668 24.6615 58.7395C24.6615 58.8365 24.5608 58.8365 24.5608 58.8365Z" fill="white"/>
<path id="Vector_48" d="M45.51 55.4423C45.4093 55.4423 45.3086 55.3454 45.3086 55.2484C46.8193 45.3575 45.3086 33.7211 45.3086 33.5272C45.3086 33.4302 45.4093 33.3333 45.4093 33.3333C45.51 33.3333 45.6107 33.4302 45.6107 33.4302C45.6107 33.5272 47.1215 45.2605 45.6107 55.2484C45.7115 55.3454 45.6107 55.4423 45.51 55.4423Z" fill="white"/>
<path id="Vector_49" d="M61.1194 52.7274C61.0187 52.7274 60.918 52.6305 60.918 52.5335C62.4287 45.4547 60.918 37.2123 60.918 37.1153C60.918 37.0184 60.918 36.9214 61.0187 36.9214C61.1194 36.9214 61.2201 36.9214 61.2201 37.0184C61.2201 37.1153 62.7309 45.4547 61.2201 52.5335C61.3208 52.7274 61.2201 52.7274 61.1194 52.7274Z" fill="white"/>
<path id="Vector_50" d="M43.293 35.0787C43.1923 35.0787 43.1923 35.0787 43.293 35.0787L27.5812 31.5878C27.4805 31.5878 27.4805 31.4908 27.4805 31.3938C27.4805 31.2969 27.5812 31.2969 27.6819 31.2969L43.293 34.7878C43.3937 34.7878 43.3937 34.8848 43.3937 34.9817C43.3937 35.0787 43.293 35.0787 43.293 35.0787Z" fill="white"/>
<path id="Vector_51" d="M27.5823 56.7031C27.4816 56.7031 27.4816 56.6061 27.3809 56.6061C27.3809 56.5092 27.3809 56.4122 27.4816 56.4122L43.0927 54.1819C43.1934 54.1819 43.2941 54.1819 43.2941 54.2789C43.2941 54.3758 43.2941 54.4728 43.1934 54.4728L27.5823 56.7031Z" fill="white"/>
<path id="Vector_52" d="M58.6024 37.6969L48.3292 35.6605C48.2285 35.6605 48.2285 35.5636 48.2285 35.4666C48.2285 35.3696 48.3292 35.3696 48.4299 35.3696L58.7031 37.406C58.8038 37.406 58.8038 37.503 58.8038 37.5999C58.8038 37.5999 58.7031 37.6969 58.6024 37.6969Z" fill="white"/>
<path id="Vector_53" d="M69.5801 39.8306L63.6378 38.57C63.5371 38.57 63.5371 38.473 63.5371 38.376C63.5371 38.2791 63.6378 38.2791 63.7385 38.2791L69.6808 39.5397C69.7816 39.5397 69.7816 39.6366 69.7816 39.7336C69.6808 39.8306 69.6808 39.8306 69.5801 39.8306Z" fill="white"/>
<path id="Vector_54" d="M48.4299 53.891C48.3292 53.891 48.2285 53.7941 48.2285 53.7941C48.2285 53.6971 48.3292 53.6001 48.3292 53.6001L58.5016 52.5334C58.6024 52.5334 58.7031 52.6304 58.7031 52.6304C58.7031 52.7274 58.6024 52.8244 58.6024 52.8244L48.4299 53.891Z" fill="white"/>
<path id="Vector_55" d="M63.6409 52.0484C63.5402 52.0484 63.4395 51.9514 63.4395 51.9514C63.4395 51.8544 63.5402 51.7574 63.5402 51.7574L69.281 50.9817C69.3818 50.9817 69.4825 51.0787 69.4825 51.0787C69.4825 51.1756 69.3818 51.2726 69.3818 51.2726L63.6409 52.0484Z" fill="white"/>
</g>
<defs>
<filter id="filter0_d_31_1100" x="0" y="0" width="96" height="96" filterUnits="userSpaceOnUse" color-interpolation-filters="sRGB">
<feFlood flood-opacity="0" result="BackgroundImageFix"/>
<feColorMatrix in="SourceAlpha" type="matrix" values="0 0 0 0 0 0 0 0 0 0 0 0 0 0 0 0 0 0 127 0" result="hardAlpha"/>
<feOffset dy="4"/>
<feGaussianBlur stdDeviation="8"/>
<feComposite in2="hardAlpha" operator="out"/>
<feColorMatrix type="matrix" values="0 0 0 0 0.968627 0 0 0 0 0.298039 0 0 0 0 0.478431 0 0 0 1 0"/>
<feBlend mode="normal" in2="BackgroundImageFix" result="effect1_dropShadow_31_1100"/>
<feBlend mode="normal" in="SourceGraphic" in2="effect1_dropShadow_31_1100" result="shape"/>
</filter>
</defs>
</svg>
