<svg width="88" height="90" viewBox="0 0 88 90" fill="none" xmlns="http://www.w3.org/2000/svg">
<g id="Group 5604">
<path id="Union" fill-rule="evenodd" clip-rule="evenodd" d="M44.1759 1.3735C44.1137 0.775102 43.6094 0.320435 43.0078 0.320435C42.4062 0.320435 41.9019 0.775102 41.8398 1.3735L40.9115 10.3154C40.5329 13.9627 37.6501 16.8455 34.0027 17.2242L25.0609 18.1524C24.4625 18.2145 24.0078 18.7188 24.0078 19.3204C24.0078 19.922 24.4625 20.4264 25.0609 20.4885L34.0027 21.4167C37.6501 21.7953 40.5329 24.6782 40.9115 28.3255L41.8398 37.2674C41.9019 37.8658 42.4062 38.3204 43.0078 38.3204C43.6094 38.3204 44.1137 37.8658 44.1759 37.2674L45.1041 28.3255C45.4827 24.6782 48.3656 21.7953 52.0129 21.4167L60.9548 20.4885C61.5531 20.4264 62.0078 19.922 62.0078 19.3204C62.0078 18.7188 61.5532 18.2145 60.9548 18.1524L52.0129 17.2242C48.3656 16.8455 45.4827 13.9627 45.1041 10.3154L44.1759 1.3735Z" fill="#4BE1F4"/>
<path id="Union_2" fill-rule="evenodd" clip-rule="evenodd" d="M79.084 71.0267C79.053 70.7275 78.8008 70.5001 78.5 70.5001C78.1992 70.5001 77.947 70.7275 77.916 71.0267L77.4519 75.4976C77.2626 77.3212 75.8211 78.7627 73.9975 78.952L69.5265 79.4161C69.2273 79.4472 69 79.6993 69 80.0001C69 80.3009 69.2273 80.5531 69.5265 80.5841L73.9975 81.0483C75.8211 81.2376 77.2626 82.679 77.4519 84.5027L77.916 88.9736C77.947 89.2728 78.1992 89.5001 78.5 89.5001C78.8008 89.5001 79.053 89.2728 79.084 88.9736L79.5481 84.5027C79.7374 82.679 81.1789 81.2376 83.0025 81.0483L87.4735 80.5841C87.7727 80.5531 88 80.3009 88 80.0001C88 79.6993 87.7727 79.4472 87.4735 79.4161L83.0025 78.952C81.1789 78.7627 79.7374 77.3212 79.5481 75.4976L79.084 71.0267Z" fill="#F87388"/>
<path id="Union_3" fill-rule="evenodd" clip-rule="evenodd" d="M10.084 55.0267C10.053 54.7275 9.80081 54.5001 9.5 54.5001C9.19919 54.5001 8.94704 54.7275 8.91598 55.0267L8.45186 59.4976C8.26255 61.3212 6.82112 62.7627 4.99746 62.952L0.526532 63.4161C0.227334 63.4472 0 63.6993 0 64.0001C0 64.3009 0.227334 64.5531 0.526532 64.5841L4.99746 65.0483C6.82112 65.2376 8.26255 66.679 8.45186 68.5027L8.91598 72.9736C8.94704 73.2728 9.19919 73.5001 9.5 73.5001C9.80081 73.5001 10.053 73.2728 10.084 72.9736L10.5481 68.5027C10.7374 66.679 12.1789 65.2376 14.0025 65.0483L18.4735 64.5841C18.7727 64.5531 19 64.3009 19 64.0001C19 63.6993 18.7727 63.4472 18.4735 63.4161L14.0025 62.952C12.1789 62.7627 10.7374 61.3212 10.5481 59.4976L10.084 55.0267Z" fill="#C8D316"/>
</g>
</svg>
