<svg width="146" height="39" viewBox="0 0 146 39" fill="none" xmlns="http://www.w3.org/2000/svg">
<g id="Frame" clip-path="url(#clip0_48_812)">
<g id="Group">
<path id="Vector" d="M114.548 34.7083C109.83 34.7083 104.672 30.4164 104.484 18.4738C104.358 11.5695 105.93 6.34464 109.013 3.23459C110.837 1.43076 113.038 0.435547 115.492 0.435547C120.713 0.435547 126.752 4.60301 126.94 16.2968C127.129 25.8757 122.977 33.0288 116.498 34.5217C115.806 34.6461 115.177 34.7083 114.548 34.7083ZM115.555 4.66521C114.234 4.66521 113.101 5.16282 112.158 6.15803C109.956 8.39727 108.761 12.7513 108.887 18.3494C109.013 26.3733 111.655 31.225 115.618 30.292C119.266 29.4834 122.914 24.8183 122.726 16.2968C122.537 9.14368 119.769 4.66521 115.555 4.66521Z" fill="#FF0703"/>
<path id="Vector_2" d="M50.7015 37.6939C50.387 37.6939 50.0724 37.6939 49.695 37.6317C44.5369 37.0097 38.6868 31.5982 38.8755 18.4116C39.0643 5.2872 45.1659 0.684326 50.3241 0.684326C54.4757 0.746527 59.2564 3.66997 60.2629 11.8183C60.3887 13.0001 59.5709 14.0575 58.3758 14.1819C57.1806 14.3063 56.1112 13.4977 55.9854 12.3159C55.4193 7.71303 53.3434 4.97619 50.3241 4.97619C46.1095 4.97619 43.3417 10.3255 43.2159 18.536C43.0901 28.2393 46.6756 33.0288 50.2612 33.4642C53.1547 33.8374 55.4193 31.1006 56.0483 26.4355C56.1741 25.2537 57.3064 24.4451 58.4387 24.5695C59.6338 24.6939 60.4516 25.7513 60.3258 26.9331C59.3193 34.4594 54.916 37.6939 50.7015 37.6939Z" fill="#FF0703"/>
<path id="Vector_3" d="M8.86945 28.2393C8.11461 28.2393 7.42266 28.1149 6.66782 27.8039C2.89358 26.4977 0 22.3302 0 18.4115C0 17.2297 0.943559 16.2967 2.13873 16.2967C3.33391 16.2967 4.27747 17.2297 4.27747 18.4115C4.27747 20.5886 6.03878 23.1388 8.1146 23.8852C8.68074 24.0718 9.18397 24.0718 9.5614 23.823C10.1904 23.3876 10.5679 22.4546 10.5679 21.2728L10.8195 2.17709C10.8195 0.99527 11.8259 0.0622559 13.0211 0.0622559C14.2163 0.0622559 15.1598 1.05747 15.1598 2.23929L14.9082 21.335C14.8453 23.9474 13.8389 26.1245 12.0146 27.3685C11.0711 27.9283 10.0017 28.2393 8.86945 28.2393Z" fill="#FF0703"/>
<path id="Vector_4" d="M87.3743 38.5647C86.1791 38.5647 85.2356 37.6317 85.2356 36.4499L85.0469 5.4116C85.0469 2.79916 86.6824 0.684326 88.8211 0.684326C90.0163 0.684326 90.9598 1.61734 90.9598 2.79916C90.9598 3.73217 90.3308 4.60299 89.4501 4.85179C89.3872 4.97619 89.3873 5.1628 89.3873 5.4116L89.576 36.4499C89.576 37.6317 88.5695 38.5647 87.3743 38.5647Z" fill="#FF0703"/>
<path id="Vector_5" d="M87.8147 22.268C87.563 22.268 87.3114 22.268 87.1227 22.2058C86.0533 22.0814 85.1727 21.2106 85.1727 20.091L85.0469 5.41154C85.0469 2.7369 86.6824 0.684271 88.8211 0.684271L95.3002 0.62207C99.5777 0.62207 102.912 5.16274 102.974 11.0096C103.037 16.7943 99.8293 21.5838 95.6147 21.8326C93.0986 22.0192 90.5824 22.1436 88.0034 22.2058C88.0034 22.268 87.8147 22.268 87.8147 22.268ZM89.3873 4.97614C89.3873 5.10054 89.3243 5.22494 89.3243 5.41154L89.3873 17.9139C91.3373 17.8517 93.2873 17.7273 95.2373 17.6029C96.8728 17.4785 98.6341 14.6795 98.5712 11.0718C98.5083 7.52638 96.747 4.91394 95.2373 4.91394L89.3873 4.97614Z" fill="#FF0703"/>
<path id="Vector_6" d="M65.3575 38.8757C64.1623 38.8757 63.2188 37.9427 63.2188 36.7609L63.3446 3.04794C63.3446 1.86612 64.2881 0.933105 65.4833 0.933105C66.6785 0.933105 67.622 1.86612 67.622 3.04794L67.4962 36.7609C67.4962 37.9427 66.5527 38.8757 65.3575 38.8757Z" fill="#FF0703"/>
<path id="Vector_7" d="M65.4191 25.3781C65.0417 25.3781 64.6014 25.2537 64.2239 25.0049C63.2175 24.3829 62.9659 23.0145 63.5949 22.0814C67.9353 15.6125 72.1498 9.08145 76.8047 1.80393C77.4338 0.808718 78.7547 0.497714 79.7612 1.11972C80.7677 1.74173 81.0822 3.04795 80.4532 4.04317C75.7983 11.3207 71.5837 17.8518 67.1804 24.3829C66.803 25.0671 66.1111 25.3781 65.4191 25.3781Z" fill="#FF0703"/>
<path id="Vector_8" d="M79.2591 39.0001C78.5043 39.0001 77.7494 38.5647 77.372 37.8805C74.0381 31.4738 70.7042 24.9427 67.4332 18.4116C66.9299 17.3542 67.3074 16.1102 68.3767 15.5503C69.4461 15.0527 70.7671 15.4259 71.2703 16.4834C74.5413 23.0145 77.8752 29.4834 81.2091 35.8901C81.7753 36.9475 81.3349 38.1915 80.2656 38.7513C79.8882 38.8757 79.5736 39.0001 79.2591 39.0001Z" fill="#FF0703"/>
<path id="Vector_9" d="M137.318 28.7369C136.123 28.7369 135.18 27.8039 135.18 26.6221L134.865 2.23929C134.865 1.05747 135.809 0.124457 137.004 0.0622559C138.199 0.0622559 139.143 0.99527 139.143 2.17709L139.394 26.5599C139.457 27.7417 138.514 28.7369 137.318 28.7369Z" fill="#FF0703"/>
<path id="Vector_10" d="M32.8987 23.8231C32.7729 23.8231 32.71 23.8231 32.5842 23.8231C28.9358 23.3255 25.3503 22.7657 21.7648 22.1437C20.5696 21.9571 19.8147 20.8375 20.0034 19.6556C20.1922 18.4738 21.3244 17.7274 22.5196 17.914C26.0422 18.536 29.6277 19.0958 33.2133 19.5934C34.4084 19.78 35.2262 20.8375 35.0375 22.0193C34.8488 23.0767 33.9052 23.8231 32.8987 23.8231Z" fill="#FF0703"/>
<path id="Vector_11" d="M35.5402 35.4547C34.5338 35.4547 33.6531 34.7704 33.4644 33.7752C31.3886 24.6939 29.4386 16.6078 27.6772 9.26805C25.4127 16.67 23.1482 23.6987 20.9465 30.1054C20.5691 31.225 19.311 31.847 18.2417 31.4738C17.1094 31.1006 16.4803 29.9188 16.8578 28.7992C19.5626 20.8374 22.3933 12.0049 25.1611 2.67475C25.7901 0.497718 27.2369 0.248914 27.866 0.311115C28.495 0.311115 29.9418 0.62212 30.445 2.79915C32.6467 11.6317 34.9741 21.4594 37.6161 32.9044C37.8677 34.024 37.1757 35.2059 35.9806 35.4547C35.9177 35.4547 35.7289 35.4547 35.5402 35.4547Z" fill="#FF0703"/>
<path id="Vector_12" d="M114.549 33.8997C110.208 33.8997 105.553 29.8566 105.365 18.4739C105.239 11.8184 106.749 6.78008 109.642 3.85664C111.278 2.17721 113.291 1.3064 115.492 1.3064C120.273 1.3064 125.934 5.22506 126.123 16.2968C126.249 25.4404 122.412 32.2825 116.31 33.7131C115.681 33.7753 115.115 33.8997 114.549 33.8997ZM115.555 3.79443C114.045 3.79443 112.662 4.41644 111.529 5.59826C109.139 7.9619 107.881 12.5648 108.007 18.4117C108.132 26.3734 110.649 31.2873 114.612 31.2873C114.989 31.2873 115.366 31.2251 115.807 31.1629C119.518 30.292 123.733 25.938 123.607 16.2968C123.355 8.70831 120.273 3.79443 115.555 3.79443Z" fill="#FF7424"/>
<path id="Vector_13" d="M50.7625 36.8231C50.448 36.8231 50.1335 36.8231 49.8819 36.7609C45.1012 36.1389 39.6285 30.9762 39.8172 18.4116C39.9431 5.97139 45.6044 1.49292 50.3222 1.49292C54.0964 1.49292 58.4997 4.29196 59.3804 11.8805C59.4433 12.5647 58.94 13.1867 58.2481 13.3111C57.4932 13.3733 56.8642 12.8757 56.8013 12.1915C56.1723 7.15321 53.7819 4.10536 50.3222 4.10536C45.6044 4.10536 42.4592 9.76565 42.3334 18.536C42.2076 28.7369 46.1705 33.8374 50.1335 34.335C53.5932 34.7704 56.1723 31.7848 56.8642 26.5599C56.9271 25.8757 57.6191 25.3781 58.311 25.4403C59.0029 25.5025 59.5062 26.1867 59.4433 26.8709C58.4997 34.2728 54.3481 36.8231 50.7625 36.8231Z" fill="#FF7424"/>
<path id="Vector_14" d="M8.86966 27.3685C8.24062 27.3685 7.61158 27.2441 6.98254 26.9953C3.58573 25.7512 0.880859 21.957 0.880859 18.3493C0.880859 17.6651 1.44699 17.1053 2.20184 17.1053C2.89378 17.1053 3.52282 17.6651 3.52282 18.4115C3.52282 20.9618 5.53575 23.823 7.9261 24.6316C8.74385 24.9426 9.5616 24.8804 10.1906 24.445C11.0713 23.8852 11.5745 22.6412 11.5745 21.2106L11.8261 2.11487C11.8261 1.43066 12.5181 0.933051 13.1471 0.87085C13.8391 0.87085 14.4052 1.43066 14.4052 2.17707L14.1536 21.2728C14.0907 23.5742 13.21 25.5646 11.6374 26.622C10.7568 27.1197 9.81322 27.3685 8.86966 27.3685Z" fill="#FF7424"/>
<path id="Vector_15" d="M87.373 37.7559C86.681 37.7559 86.1149 37.1961 86.052 36.5119L85.8633 5.53585C85.8633 3.35881 87.1214 1.67939 88.7569 1.67939C88.8198 1.67939 88.8827 1.67939 88.9456 1.67939L95.236 1.61719C99.0102 1.61719 101.967 5.78465 102.03 11.1339C102.092 16.4832 99.1989 20.8373 95.4876 21.0861C93.1601 21.2105 90.8327 21.3349 88.5682 21.4593L88.6311 36.5119C88.694 37.1339 88.1278 37.7559 87.373 37.7559ZM88.5052 5.47365L88.5682 18.7847C90.8327 18.6602 93.0972 18.598 95.3618 18.4114C97.6263 18.287 99.5763 14.8038 99.5134 11.0095C99.4505 7.21527 97.3747 3.91862 95.2989 3.98082L88.8198 4.04302C88.8198 4.10523 88.5052 4.54063 88.5052 5.34924V5.47365Z" fill="#FF7424"/>
<path id="Vector_16" d="M79.2595 38.1291C78.8191 38.1291 78.3159 37.8803 78.1272 37.4449C75.1078 31.7224 72.1513 25.8756 69.1948 20.0287C68.3771 21.2727 67.5593 22.4545 66.7416 23.6985L66.6787 36.7607C66.6787 37.4449 66.2383 38.0047 65.3577 38.0047C64.6657 38.0047 64.0996 37.4449 64.0996 36.6985L64.2254 2.98561C64.2254 2.3014 64.7915 1.74159 65.5464 1.74159C66.2383 1.74159 66.8674 2.3014 66.8674 3.04781L66.8045 18.9713C67.3077 18.2248 67.748 17.5406 68.2513 16.7942C68.2513 16.732 68.3142 16.732 68.3142 16.6698C71.3336 12.0669 74.4159 7.33967 77.624 2.3014C78.0014 1.67939 78.8191 1.55498 79.3853 1.92819C80.0143 2.3014 80.1401 3.11001 79.7627 3.66982C76.6175 8.52149 73.661 13.0622 70.7674 17.5406C73.9126 23.8229 77.1207 30.1052 80.3917 36.2631C80.7062 36.8851 80.4546 37.6315 79.8256 38.0047C79.6369 38.0669 79.4482 38.1291 79.2595 38.1291Z" fill="#FF7424"/>
<path id="Vector_17" d="M137.319 27.8661C136.627 27.8661 136.061 27.3063 135.998 26.6221L135.747 3.35895C133.608 3.42115 131.469 3.48336 129.393 3.54556C128.764 3.60776 128.072 2.98575 128.072 2.30154C128.072 1.61733 128.638 0.995317 129.33 0.995317C134.426 0.870915 139.584 0.684312 144.679 0.497709C145.434 0.435509 146 1.05752 146 1.74173C146 2.42594 145.434 3.04795 144.742 3.04795C142.603 3.11015 140.464 3.17235 138.326 3.23455L138.577 26.4977C138.64 27.3063 138.011 27.8661 137.319 27.8661Z" fill="#FF7424"/>
<path id="Vector_18" d="M35.6031 34.5837C35.0369 34.5837 34.4708 34.2105 34.345 33.5885C33.4643 29.8565 32.6466 26.2488 31.8288 22.8278C28.8724 22.3924 25.9159 21.9569 22.9594 21.4593C22.0158 24.3206 21.0723 27.1196 20.1916 29.8565C19.94 30.5407 19.1852 30.8517 18.5561 30.6651C17.8642 30.4163 17.4868 29.7321 17.7384 29.0479C20.4432 21.0239 23.2739 12.2536 26.1046 2.86126C26.5449 1.30623 27.4256 1.11963 27.9917 1.11963C28.6207 1.11963 29.3756 1.49283 29.753 2.98566C31.9547 11.756 34.2821 21.6459 36.9241 33.0909C37.0499 33.7751 36.6724 34.4593 35.9176 34.6459C35.7918 34.5837 35.666 34.5837 35.6031 34.5837ZM23.7142 19.0335C26.1675 19.4689 28.6836 19.8421 31.1998 20.2153C30.0046 15.177 28.8724 10.512 27.803 6.09571C26.4191 10.5742 25.0352 14.866 23.7142 19.0335Z" fill="#FF7424"/>
<path id="Vector_19" d="M114.549 33.0289C110.649 33.0289 106.371 29.1724 106.245 18.4738C106.119 10.3877 108.384 6.34466 110.271 4.41643C111.718 2.9236 113.542 2.11499 115.492 2.11499C119.895 2.11499 125.054 5.84705 125.242 16.2968C125.431 26.9332 120.399 31.847 116.121 32.8423C115.555 32.9667 115.052 33.0289 114.549 33.0289ZM115.555 2.9858C113.794 2.9858 112.221 3.73222 110.9 5.03844C108.384 7.58867 107 12.3781 107.126 18.4738C107.252 26.9332 110.145 32.2203 114.611 32.2203C115.052 32.2203 115.492 32.1581 115.995 32.0958C120.021 31.1628 124.613 26.4978 124.487 16.4212C124.236 8.21068 120.776 2.9858 115.555 2.9858Z" fill="#FFD60A"/>
<path id="Vector_20" d="M50.7006 36.0145C50.449 36.0145 50.1973 36.0145 49.9457 35.9523C45.5425 35.3925 40.4472 30.4786 40.6359 18.4738C40.7618 6.59344 45.9828 2.36377 50.3232 2.36377C53.7829 2.36377 57.6829 4.91401 58.5007 12.0049C58.5007 12.2537 58.3749 12.4403 58.1232 12.5025C57.8716 12.5025 57.6829 12.3781 57.62 12.1293C56.991 6.59343 54.2232 3.29678 50.2603 3.29678C45.0392 3.29678 41.5166 9.26808 41.3908 18.536C41.2021 29.981 45.9199 34.6461 49.9457 35.2059C53.9087 35.7035 56.9281 32.3446 57.62 26.6843C57.62 26.4355 57.8716 26.3111 58.1232 26.3111C58.3749 26.3111 58.5007 26.5599 58.5007 26.8087C57.6829 33.5886 53.9716 36.0145 50.7006 36.0145Z" fill="#FFD60A"/>
<path id="Vector_21" d="M8.87027 26.5598C8.36703 26.5598 7.8009 26.4354 7.23476 26.2488C4.21538 25.1292 1.69922 21.646 1.69922 18.4115C1.69922 18.1627 1.88793 17.9761 2.13955 17.9761C2.39116 17.9761 2.57987 18.1627 2.57987 18.4115C2.57987 21.2727 4.84441 24.5072 7.54928 25.4402C8.68155 25.8756 9.75092 25.7512 10.5687 25.1914C11.638 24.445 12.33 23.0144 12.33 21.2105L12.5816 2.11485C12.5816 1.86605 12.7703 1.67944 13.0219 1.67944C13.2735 1.67944 13.4623 1.86605 13.4623 2.11485L13.2106 21.2105C13.1477 23.2632 12.3929 24.9426 11.0719 25.8756C10.4429 26.311 9.68802 26.5598 8.87027 26.5598Z" fill="#FFD60A"/>
<path id="Vector_22" d="M87.3732 36.8851C87.1216 36.8851 86.9329 36.6985 86.9329 36.4497L86.7441 5.47363C86.7441 3.7942 87.6248 2.48798 88.7571 2.48798C88.82 2.48798 88.82 2.48798 88.8829 2.48798C91.0216 2.48798 93.0974 2.42578 95.2362 2.42578C98.4443 2.42578 101.149 6.34444 101.212 11.1339C101.275 15.9234 98.6959 20.0287 95.4878 20.2775C93.0345 20.4019 90.4555 20.5885 87.9393 20.6507C87.8764 20.6507 87.8135 20.6507 87.7506 20.6507L87.8764 36.5119C87.8135 36.6985 87.6248 36.8851 87.3732 36.8851ZM87.7506 19.7176C87.8135 19.7176 87.8764 19.7176 87.9393 19.7176C90.4555 19.5932 92.9716 19.4688 95.4878 19.3444C98.2556 19.1578 100.52 15.4258 100.457 11.0717C100.394 6.71765 98.1298 3.23439 95.362 3.23439C93.2233 3.23439 91.0845 3.29659 88.8829 3.29659C88.3167 3.29659 87.6877 4.16741 87.6877 5.41143V5.47363L87.7506 19.7176Z" fill="#FFD60A"/>
<path id="Vector_23" d="M79.2581 37.2584C79.1323 37.2584 78.9436 37.1962 78.8807 37.0096C76.05 31.5982 72.9677 25.6269 69.2564 18.225C68.1241 19.9666 66.9918 21.646 65.8596 23.3254L65.7967 36.6986C65.7967 36.9474 65.608 37.134 65.3563 37.134C65.1047 37.134 64.916 36.9474 64.916 36.6986L65.0418 2.98572C65.0418 2.73692 65.2305 2.55032 65.4822 2.55032C65.7338 2.55032 65.9225 2.73692 65.9225 2.98572L65.8596 21.7704C66.866 20.2154 67.8725 18.7226 68.9419 17.1675C68.9419 17.1675 68.9419 17.1053 69.0048 17.1053C72.0242 12.5025 75.1065 7.7752 78.3775 2.67472C78.5033 2.48812 78.7549 2.42591 79.0065 2.55032C79.1952 2.67472 79.2581 2.92352 79.1323 3.11013C75.9242 8.1484 72.9048 12.8135 69.8854 17.3541C73.7226 24.9427 76.8049 31.0384 79.6984 36.5742C79.8242 36.7608 79.6984 37.0096 79.5097 37.134C79.3839 37.2584 79.321 37.2584 79.2581 37.2584Z" fill="#FFD60A"/>
<path id="Vector_24" d="M137.319 27.0576C137.068 27.0576 136.879 26.871 136.879 26.6222L136.627 2.48821C134.237 2.55042 131.784 2.61262 129.393 2.67482C129.142 2.67482 128.953 2.48821 128.953 2.23941C128.953 1.99061 129.142 1.804 129.393 1.804C134.489 1.6796 139.647 1.493 144.742 1.3064C145.057 1.3064 145.182 1.493 145.182 1.7418C145.182 1.99061 144.994 2.17721 144.742 2.17721C142.352 2.23941 139.898 2.36381 137.508 2.42601L137.76 26.56C137.76 26.8088 137.571 26.9954 137.319 27.0576Z" fill="#FFD60A"/>
<path id="Vector_25" d="M35.6045 33.7751C35.4158 33.7751 35.2271 33.6507 35.1642 33.4641C34.2836 29.4832 33.4029 25.7512 32.5222 22.1435C29.1254 21.6459 25.6657 21.1483 22.3318 20.5263C21.3253 23.6364 20.3189 26.6842 19.3124 29.6076C19.2495 29.8565 18.9979 29.9187 18.7463 29.8565C18.4947 29.7943 18.3689 29.5454 18.4947 29.2966C21.1995 21.2727 24.0302 12.5024 26.798 3.11004C27.0496 2.36363 27.3641 1.92822 27.8044 1.92822C28.2448 1.92822 28.5593 2.36363 28.748 3.17224C30.9496 11.9426 33.2771 21.7703 35.9191 33.2153C35.982 33.4641 35.7932 33.6507 35.6045 33.7129C35.6674 33.7751 35.6045 33.7751 35.6045 33.7751ZM22.5834 19.7177C25.7915 20.2775 29.0625 20.7751 32.2706 21.2105C30.8238 14.8038 29.377 8.89473 27.9932 3.35884C27.9303 3.11004 27.8674 2.98564 27.8674 2.92344C27.8044 2.98564 27.7415 3.17224 27.6786 3.35884C25.9802 9.01913 24.2818 14.4928 22.5834 19.7177Z" fill="#FFD60A"/>
</g>
</g>
<defs>
<clipPath id="clip0_48_812">
<rect width="146" height="39" fill="white"/>
</clipPath>
</defs>
</svg>
