<svg width="1009" height="1147" viewBox="0 0 1009 1147" fill="none" xmlns="http://www.w3.org/2000/svg">
<g opacity="0.8">
<path d="M468.17 305.039C473.701 387.629 550.705 578.248 770.063 491.754C1044.26 383.638 1044.2 469.357 1124.45 604.999C1204.71 740.641 1330.23 736.855 1441.06 740.644" stroke="url(#paint0_linear_13_1728)" stroke-width="2"/>
<path d="M457.068 317.419C462.599 400.009 539.603 590.628 758.962 504.134C1033.16 396.017 1033.09 481.737 1113.35 617.379C1193.6 753.021 1319.13 749.235 1429.96 753.024" stroke="url(#paint1_linear_13_1728)" stroke-width="2"/>
<path d="M445.968 329.799C451.499 412.389 528.502 603.009 747.861 516.515C1022.06 408.398 1021.99 494.118 1102.25 629.759C1182.5 765.401 1308.03 761.615 1418.86 765.404" stroke="url(#paint2_linear_13_1728)" stroke-width="2"/>
<path d="M434.866 342.179C440.397 424.769 517.401 615.388 736.76 528.895C1010.96 420.778 1010.89 506.497 1091.15 642.139C1171.4 777.781 1296.93 773.995 1407.75 777.784" stroke="url(#paint3_linear_13_1728)" stroke-width="2"/>
<path d="M423.765 354.559C429.295 437.149 506.299 627.768 725.658 541.275C999.856 433.158 999.79 518.877 1080.05 654.519C1160.3 790.161 1285.82 786.375 1396.65 790.164" stroke="url(#paint4_linear_13_1728)" stroke-width="2"/>
<path d="M412.663 366.939C418.194 449.529 495.198 640.148 714.556 553.655C988.755 445.538 988.688 531.257 1068.94 666.899C1149.2 802.541 1274.72 798.755 1385.55 802.544" stroke="url(#paint5_linear_13_1728)" stroke-width="2"/>
<path d="M401.562 379.32C407.093 461.91 484.097 652.529 703.456 566.036C977.654 457.919 977.588 543.638 1057.84 679.28C1138.1 814.922 1263.62 811.136 1374.45 814.925" stroke="url(#paint6_linear_13_1728)" stroke-width="2"/>
<path d="M390.461 391.7C395.992 474.29 472.996 664.909 692.354 578.416C966.553 470.299 966.486 556.018 1046.74 691.66C1127 827.302 1252.52 823.516 1363.35 827.305" stroke="url(#paint7_linear_13_1728)" stroke-width="2"/>
<path d="M379.359 404.08C384.89 486.67 461.894 677.289 681.253 590.795C955.451 482.679 955.384 568.398 1035.64 704.04C1115.9 839.682 1241.42 835.896 1352.25 839.685" stroke="url(#paint8_linear_13_1728)" stroke-width="2"/>
<path d="M368.258 416.46C373.789 499.05 450.792 689.669 670.151 603.175C944.349 495.058 944.283 580.778 1024.54 716.42C1104.79 852.062 1230.32 848.276 1341.15 852.065" stroke="url(#paint9_linear_13_1728)" stroke-width="2"/>
<path d="M357.157 428.84C362.688 511.43 439.692 702.05 659.051 615.556C933.249 507.439 933.182 593.159 1013.44 728.801C1093.69 864.442 1219.22 860.656 1330.05 864.445" stroke="url(#paint10_linear_13_1728)" stroke-width="2"/>
<path d="M346.056 441.22C351.586 523.81 428.59 714.43 647.949 627.936C922.147 519.819 922.081 605.538 1002.34 741.18C1082.59 876.822 1208.12 873.036 1318.94 876.825" stroke="url(#paint11_linear_13_1728)" stroke-width="2"/>
<path d="M334.954 453.601C340.485 536.191 417.489 726.81 636.847 640.317C911.046 532.2 910.979 617.919 991.235 753.561C1071.49 889.203 1197.01 885.417 1307.84 889.206" stroke="url(#paint12_linear_13_1728)" stroke-width="2"/>
<path d="M323.853 465.982C329.384 548.572 406.388 739.191 625.747 652.698C899.945 544.581 899.879 630.3 980.134 765.942C1060.39 901.584 1185.91 897.798 1296.74 901.587" stroke="url(#paint13_linear_13_1728)" stroke-width="2"/>
<path d="M312.752 478.361C318.283 560.951 395.287 751.57 614.645 665.077C888.844 556.96 888.777 642.679 969.032 778.321C1049.29 913.963 1174.81 910.177 1285.64 913.966" stroke="url(#paint14_linear_13_1728)" stroke-width="2"/>
<path d="M301.65 490.742C307.181 573.332 384.185 763.951 603.544 677.458C877.742 569.341 877.676 655.06 957.931 790.702C1038.19 926.344 1163.71 922.558 1274.54 926.347" stroke="url(#paint15_linear_13_1728)" stroke-width="2"/>
<path d="M290.549 503.122C296.08 585.712 373.083 776.331 592.442 689.837C866.64 581.721 866.574 667.44 946.829 803.082C1027.08 938.724 1152.61 934.938 1263.44 938.727" stroke="url(#paint16_linear_13_1728)" stroke-width="2"/>
<path d="M279.448 515.503C284.979 598.093 361.983 788.712 581.342 702.218C855.54 594.101 855.473 679.821 935.729 815.463C1015.98 951.105 1141.51 947.318 1252.34 951.108" stroke="url(#paint17_linear_13_1728)" stroke-width="2"/>
<path d="M268.347 527.882C273.877 610.472 350.881 801.092 570.24 714.598C844.438 606.481 844.372 692.201 924.627 827.842C1004.88 963.484 1130.41 959.698 1241.23 963.487" stroke="url(#paint18_linear_13_1728)" stroke-width="2"/>
<path d="M257.245 540.262C262.776 622.852 339.78 813.471 559.138 726.978C833.337 618.861 833.27 704.58 913.526 840.222C993.781 975.864 1119.3 972.078 1230.13 975.867" stroke="url(#paint19_linear_13_1728)" stroke-width="2"/>
<path d="M246.143 552.643C251.674 635.233 328.678 825.852 548.037 739.359C822.235 631.242 822.169 716.961 902.424 852.603C982.679 988.245 1108.2 984.459 1219.03 988.248" stroke="url(#paint20_linear_13_1728)" stroke-width="2"/>
<path d="M235.042 565.023C240.573 647.613 317.577 838.232 536.935 751.739C811.134 643.622 811.067 729.341 891.322 864.983C971.578 1000.63 1097.1 996.839 1207.93 1000.63" stroke="url(#paint21_linear_13_1728)" stroke-width="2"/>
<path d="M223.941 577.403C229.472 659.993 306.476 850.612 525.835 764.119C800.033 656.002 799.967 741.721 880.222 877.363C960.477 1013 1086 1009.22 1196.83 1013.01" stroke="url(#paint22_linear_13_1728)" stroke-width="2"/>
<path d="M212.84 589.783C218.371 672.373 295.374 862.992 514.733 776.499C788.931 668.382 788.865 754.101 869.12 889.743C949.376 1025.38 1074.9 1021.6 1185.73 1025.39" stroke="url(#paint23_linear_13_1728)" stroke-width="2"/>
<path d="M201.738 602.164C207.269 684.754 284.273 875.373 503.632 788.879C777.83 680.763 777.763 766.482 858.019 902.124C938.274 1037.77 1063.8 1033.98 1174.63 1037.77" stroke="url(#paint24_linear_13_1728)" stroke-width="2"/>
<path d="M190.637 614.544C196.168 697.134 273.171 887.753 492.53 801.259C766.728 693.142 766.662 778.862 846.917 914.504C927.172 1050.15 1052.7 1046.36 1163.52 1050.15" stroke="url(#paint25_linear_13_1728)" stroke-width="2"/>
<path d="M179.536 626.924C185.067 709.514 262.071 900.134 481.429 813.64C755.628 705.523 755.561 791.243 835.817 926.884C916.072 1062.53 1041.6 1058.74 1152.42 1062.53" stroke="url(#paint26_linear_13_1728)" stroke-width="2"/>
<path d="M168.434 639.304C173.965 721.894 250.969 912.513 470.328 826.02C744.526 717.903 744.46 803.622 824.715 939.264C904.97 1074.91 1030.49 1071.12 1141.32 1074.91" stroke="url(#paint27_linear_13_1728)" stroke-width="2"/>
<path d="M157.333 651.685C162.864 734.275 239.868 924.894 459.226 838.401C733.425 730.284 733.358 816.003 813.613 951.645C893.869 1087.29 1019.39 1083.5 1130.22 1087.29" stroke="url(#paint28_linear_13_1728)" stroke-width="2"/>
</g>
<defs>
<linearGradient id="paint0_linear_13_1728" x1="468.37" y1="319.058" x2="1617.38" y2="805.464" gradientUnits="userSpaceOnUse">
<stop stop-opacity="0"/>
<stop offset="0.963542" stop-color="#EDC85C"/>
<stop offset="1" stop-color="#E3AF3D"/>
</linearGradient>
<linearGradient id="paint1_linear_13_1728" x1="457.269" y1="331.438" x2="1606.28" y2="817.843" gradientUnits="userSpaceOnUse">
<stop stop-opacity="0"/>
<stop offset="0.963542" stop-color="#EDC85C"/>
<stop offset="1" stop-color="#E3AF3D"/>
</linearGradient>
<linearGradient id="paint2_linear_13_1728" x1="446.168" y1="343.819" x2="1595.18" y2="830.224" gradientUnits="userSpaceOnUse">
<stop stop-opacity="0"/>
<stop offset="0.963542" stop-color="#EDC85C"/>
<stop offset="1" stop-color="#E3AF3D"/>
</linearGradient>
<linearGradient id="paint3_linear_13_1728" x1="435.067" y1="356.199" x2="1584.08" y2="842.604" gradientUnits="userSpaceOnUse">
<stop stop-opacity="0"/>
<stop offset="0.963542" stop-color="#EDC85C"/>
<stop offset="1" stop-color="#E3AF3D"/>
</linearGradient>
<linearGradient id="paint4_linear_13_1728" x1="423.965" y1="368.579" x2="1572.98" y2="854.984" gradientUnits="userSpaceOnUse">
<stop stop-opacity="0"/>
<stop offset="0.963542" stop-color="#EDC85C"/>
<stop offset="1" stop-color="#E3AF3D"/>
</linearGradient>
<linearGradient id="paint5_linear_13_1728" x1="412.864" y1="380.959" x2="1561.88" y2="867.364" gradientUnits="userSpaceOnUse">
<stop stop-opacity="0"/>
<stop offset="0.963542" stop-color="#EDC85C"/>
<stop offset="1" stop-color="#E3AF3D"/>
</linearGradient>
<linearGradient id="paint6_linear_13_1728" x1="401.763" y1="393.339" x2="1550.78" y2="879.745" gradientUnits="userSpaceOnUse">
<stop stop-opacity="0"/>
<stop offset="0.963542" stop-color="#EDC85C"/>
<stop offset="1" stop-color="#E3AF3D"/>
</linearGradient>
<linearGradient id="paint7_linear_13_1728" x1="390.661" y1="405.719" x2="1539.68" y2="892.125" gradientUnits="userSpaceOnUse">
<stop stop-opacity="0"/>
<stop offset="0.963542" stop-color="#EDC85C"/>
<stop offset="1" stop-color="#E3AF3D"/>
</linearGradient>
<linearGradient id="paint8_linear_13_1728" x1="379.56" y1="418.099" x2="1528.57" y2="904.505" gradientUnits="userSpaceOnUse">
<stop stop-opacity="0"/>
<stop offset="0.963542" stop-color="#EDC85C"/>
<stop offset="1" stop-color="#E3AF3D"/>
</linearGradient>
<linearGradient id="paint9_linear_13_1728" x1="368.458" y1="430.479" x2="1517.47" y2="916.884" gradientUnits="userSpaceOnUse">
<stop stop-opacity="0"/>
<stop offset="0.963542" stop-color="#EDC85C"/>
<stop offset="1" stop-color="#E3AF3D"/>
</linearGradient>
<linearGradient id="paint10_linear_13_1728" x1="357.358" y1="442.86" x2="1506.37" y2="929.265" gradientUnits="userSpaceOnUse">
<stop stop-opacity="0"/>
<stop offset="0.963542" stop-color="#EDC85C"/>
<stop offset="1" stop-color="#E3AF3D"/>
</linearGradient>
<linearGradient id="paint11_linear_13_1728" x1="346.256" y1="455.24" x2="1495.27" y2="941.645" gradientUnits="userSpaceOnUse">
<stop stop-opacity="0"/>
<stop offset="0.963542" stop-color="#EDC85C"/>
<stop offset="1" stop-color="#E3AF3D"/>
</linearGradient>
<linearGradient id="paint12_linear_13_1728" x1="335.155" y1="467.621" x2="1484.17" y2="954.026" gradientUnits="userSpaceOnUse">
<stop stop-opacity="0"/>
<stop offset="0.963542" stop-color="#EDC85C"/>
<stop offset="1" stop-color="#E3AF3D"/>
</linearGradient>
<linearGradient id="paint13_linear_13_1728" x1="324.054" y1="480.002" x2="1473.07" y2="966.407" gradientUnits="userSpaceOnUse">
<stop stop-opacity="0"/>
<stop offset="0.963542" stop-color="#EDC85C"/>
<stop offset="1" stop-color="#E3AF3D"/>
</linearGradient>
<linearGradient id="paint14_linear_13_1728" x1="312.952" y1="492.38" x2="1461.97" y2="978.786" gradientUnits="userSpaceOnUse">
<stop stop-opacity="0"/>
<stop offset="0.963542" stop-color="#EDC85C"/>
<stop offset="1" stop-color="#E3AF3D"/>
</linearGradient>
<linearGradient id="paint15_linear_13_1728" x1="301.851" y1="504.761" x2="1450.86" y2="991.167" gradientUnits="userSpaceOnUse">
<stop stop-opacity="0"/>
<stop offset="0.963542" stop-color="#EDC85C"/>
<stop offset="1" stop-color="#E3AF3D"/>
</linearGradient>
<linearGradient id="paint16_linear_13_1728" x1="290.749" y1="517.141" x2="1439.76" y2="1003.55" gradientUnits="userSpaceOnUse">
<stop stop-opacity="0"/>
<stop offset="0.963542" stop-color="#EDC85C"/>
<stop offset="1" stop-color="#E3AF3D"/>
</linearGradient>
<linearGradient id="paint17_linear_13_1728" x1="279.649" y1="529.522" x2="1428.66" y2="1015.93" gradientUnits="userSpaceOnUse">
<stop stop-opacity="0"/>
<stop offset="0.963542" stop-color="#EDC85C"/>
<stop offset="1" stop-color="#E3AF3D"/>
</linearGradient>
<linearGradient id="paint18_linear_13_1728" x1="268.547" y1="541.902" x2="1417.56" y2="1028.31" gradientUnits="userSpaceOnUse">
<stop stop-opacity="0"/>
<stop offset="0.963542" stop-color="#EDC85C"/>
<stop offset="1" stop-color="#E3AF3D"/>
</linearGradient>
<linearGradient id="paint19_linear_13_1728" x1="257.446" y1="554.282" x2="1406.46" y2="1040.69" gradientUnits="userSpaceOnUse">
<stop stop-opacity="0"/>
<stop offset="0.963542" stop-color="#EDC85C"/>
<stop offset="1" stop-color="#E3AF3D"/>
</linearGradient>
<linearGradient id="paint20_linear_13_1728" x1="246.344" y1="566.663" x2="1395.36" y2="1053.07" gradientUnits="userSpaceOnUse">
<stop stop-opacity="0"/>
<stop offset="0.963542" stop-color="#EDC85C"/>
<stop offset="1" stop-color="#E3AF3D"/>
</linearGradient>
<linearGradient id="paint21_linear_13_1728" x1="235.242" y1="579.043" x2="1384.26" y2="1065.45" gradientUnits="userSpaceOnUse">
<stop stop-opacity="0"/>
<stop offset="0.963542" stop-color="#EDC85C"/>
<stop offset="1" stop-color="#E3AF3D"/>
</linearGradient>
<linearGradient id="paint22_linear_13_1728" x1="224.142" y1="591.422" x2="1373.16" y2="1077.83" gradientUnits="userSpaceOnUse">
<stop stop-opacity="0"/>
<stop offset="0.963542" stop-color="#EDC85C"/>
<stop offset="1" stop-color="#E3AF3D"/>
</linearGradient>
<linearGradient id="paint23_linear_13_1728" x1="213.04" y1="603.802" x2="1362.05" y2="1090.21" gradientUnits="userSpaceOnUse">
<stop stop-opacity="0"/>
<stop offset="0.963542" stop-color="#EDC85C"/>
<stop offset="1" stop-color="#E3AF3D"/>
</linearGradient>
<linearGradient id="paint24_linear_13_1728" x1="201.939" y1="616.183" x2="1350.95" y2="1102.59" gradientUnits="userSpaceOnUse">
<stop stop-opacity="0"/>
<stop offset="0.963542" stop-color="#EDC85C"/>
<stop offset="1" stop-color="#E3AF3D"/>
</linearGradient>
<linearGradient id="paint25_linear_13_1728" x1="190.837" y1="628.563" x2="1339.85" y2="1114.97" gradientUnits="userSpaceOnUse">
<stop stop-opacity="0"/>
<stop offset="0.963542" stop-color="#EDC85C"/>
<stop offset="1" stop-color="#E3AF3D"/>
</linearGradient>
<linearGradient id="paint26_linear_13_1728" x1="179.737" y1="640.944" x2="1328.75" y2="1127.35" gradientUnits="userSpaceOnUse">
<stop stop-opacity="0"/>
<stop offset="0.963542" stop-color="#EDC85C"/>
<stop offset="1" stop-color="#E3AF3D"/>
</linearGradient>
<linearGradient id="paint27_linear_13_1728" x1="168.635" y1="653.324" x2="1317.65" y2="1139.73" gradientUnits="userSpaceOnUse">
<stop stop-opacity="0"/>
<stop offset="0.963542" stop-color="#EDC85C"/>
<stop offset="1" stop-color="#E3AF3D"/>
</linearGradient>
<linearGradient id="paint28_linear_13_1728" x1="157.533" y1="665.705" x2="1306.55" y2="1152.11" gradientUnits="userSpaceOnUse">
<stop stop-opacity="0"/>
<stop offset="0.963542" stop-color="#EDC85C"/>
<stop offset="1" stop-color="#E3AF3D"/>
</linearGradient>
</defs>
</svg>
