<svg width="1001" height="1394" viewBox="0 0 1001 1394" fill="none" xmlns="http://www.w3.org/2000/svg">
<g opacity="0.8">
<path d="M532.045 305.04C526.514 387.63 449.51 578.249 230.152 491.755C-44.0467 383.639 -43.9802 469.358 -124.236 605C-204.491 740.642 -330.015 736.856 -440.843 740.645" stroke="url(#paint0_linear_13_1698)" stroke-width="2"/>
<path d="M543.147 317.42C537.616 400.01 460.612 590.629 241.253 504.135C-32.9452 396.018 -32.8786 481.738 -113.134 617.38C-193.389 753.022 -318.913 749.235 -429.742 753.025" stroke="url(#paint1_linear_13_1698)" stroke-width="2"/>
<path d="M554.247 329.8C548.716 412.39 471.712 603.01 252.354 516.516C-21.8446 408.399 -21.7781 494.119 -102.033 629.76C-182.289 765.402 -307.812 761.616 -418.641 765.405" stroke="url(#paint2_linear_13_1698)" stroke-width="2"/>
<path d="M565.349 342.18C559.818 424.77 482.814 615.389 263.455 528.896C-10.743 420.779 -10.6765 506.498 -90.9318 642.14C-171.187 777.782 -296.711 773.996 -407.54 777.785" stroke="url(#paint3_linear_13_1698)" stroke-width="2"/>
<path d="M576.45 354.56C570.919 437.15 493.916 627.769 274.557 541.276C0.358553 433.159 0.425072 518.878 -79.8302 654.52C-160.086 790.162 -285.609 786.376 -396.438 790.165" stroke="url(#paint4_linear_13_1698)" stroke-width="2"/>
<path d="M587.552 366.94C582.021 449.53 505.017 640.149 285.658 553.656C11.4601 445.539 11.5266 531.258 -68.7287 666.9C-148.984 802.542 -274.508 798.756 -385.336 802.545" stroke="url(#paint5_linear_13_1698)" stroke-width="2"/>
<path d="M598.652 379.321C593.122 461.911 516.118 652.53 296.759 566.037C22.5607 457.92 22.6272 543.639 -57.6281 679.281C-137.883 814.923 -263.407 811.137 -374.236 814.926" stroke="url(#paint6_linear_13_1698)" stroke-width="2"/>
<path d="M609.754 391.701C604.223 474.291 527.219 664.91 307.861 578.417C33.6623 470.3 33.7288 556.019 -46.5265 691.661C-126.782 827.303 -252.306 823.517 -363.134 827.306" stroke="url(#paint7_linear_13_1698)" stroke-width="2"/>
<path d="M620.856 404.081C615.325 486.671 538.321 677.29 318.962 590.796C44.7638 482.68 44.8303 568.399 -35.425 704.041C-115.68 839.683 -241.204 835.897 -352.033 839.686" stroke="url(#paint8_linear_13_1698)" stroke-width="2"/>
<path d="M631.957 416.461C626.426 499.051 549.422 689.67 330.064 603.176C55.8654 495.059 55.9319 580.779 -24.3234 716.421C-104.579 852.063 -230.102 848.277 -340.931 852.066" stroke="url(#paint9_linear_13_1698)" stroke-width="2"/>
<path d="M643.058 428.841C637.527 511.431 560.523 702.051 341.164 615.557C66.966 507.44 67.0325 593.16 -13.2228 728.801C-93.4781 864.443 -219.002 860.657 -329.831 864.446" stroke="url(#paint10_linear_13_1698)" stroke-width="2"/>
<path d="M654.159 441.221C648.628 523.811 571.625 714.43 352.266 627.937C78.0675 519.82 78.1341 605.539 -2.12125 741.181C-82.3766 876.823 -207.9 873.037 -318.729 876.826" stroke="url(#paint11_linear_13_1698)" stroke-width="2"/>
<path d="M665.261 453.602C659.73 536.192 582.726 726.811 363.367 640.318C89.1691 532.201 89.2356 617.92 8.98031 753.562C-71.275 889.204 -196.799 885.418 -307.627 889.207" stroke="url(#paint12_linear_13_1698)" stroke-width="2"/>
<path d="M676.361 465.983C670.831 548.573 593.827 739.192 374.468 652.699C100.27 544.582 100.336 630.301 20.0809 765.943C-60.1744 901.585 -185.698 897.799 -296.527 901.588" stroke="url(#paint13_linear_13_1698)" stroke-width="2"/>
<path d="M687.463 478.362C681.932 560.952 604.928 751.571 385.57 665.078C111.371 556.961 111.438 642.68 31.1825 778.322C-49.0728 913.964 -174.597 910.178 -285.425 913.967" stroke="url(#paint14_linear_13_1698)" stroke-width="2"/>
<path d="M698.565 490.743C693.034 573.333 616.03 763.952 396.671 677.459C122.473 569.342 122.539 655.061 42.284 790.703C-37.9713 926.345 -163.495 922.559 -274.324 926.348" stroke="url(#paint15_linear_13_1698)" stroke-width="2"/>
<path d="M709.666 503.123C704.135 585.713 627.131 776.332 407.773 689.838C133.574 581.722 133.641 667.441 53.3856 803.083C-26.8697 938.725 -152.393 934.939 -263.222 938.728" stroke="url(#paint16_linear_13_1698)" stroke-width="2"/>
<path d="M720.768 515.504C715.237 598.094 638.233 788.713 418.874 702.219C144.676 594.102 144.742 679.822 64.4871 815.464C-15.7682 951.106 -141.292 947.319 -252.121 951.109" stroke="url(#paint17_linear_13_1698)" stroke-width="2"/>
<path d="M731.868 527.883C726.337 610.473 649.334 801.093 429.975 714.599C155.777 606.482 155.843 692.202 75.5877 827.843C-4.66757 963.485 -130.191 959.699 -241.02 963.488" stroke="url(#paint18_linear_13_1698)" stroke-width="2"/>
<path d="M742.97 540.263C737.439 622.853 660.435 813.472 441.076 726.979C166.878 618.862 166.945 704.581 86.6893 840.223C6.43399 975.865 -119.09 972.079 -229.918 975.868" stroke="url(#paint19_linear_13_1698)" stroke-width="2"/>
<path d="M754.071 552.644C748.54 635.234 671.537 825.853 452.178 739.36C177.98 631.243 178.046 716.962 97.7909 852.604C17.5356 988.246 -107.988 984.46 -218.817 988.249" stroke="url(#paint20_linear_13_1698)" stroke-width="2"/>
<path d="M765.173 565.024C759.642 647.614 682.638 838.233 463.28 751.74C189.081 643.623 189.148 729.342 108.892 864.984C28.6371 1000.63 -96.8867 996.84 -207.715 1000.63" stroke="url(#paint21_linear_13_1698)" stroke-width="2"/>
<path d="M776.274 577.404C770.743 659.994 693.739 850.613 474.38 764.12C200.182 656.003 200.248 741.722 119.993 877.364C39.7377 1013.01 -85.7861 1009.22 -196.615 1013.01" stroke="url(#paint22_linear_13_1698)" stroke-width="2"/>
<path d="M787.375 589.784C781.844 672.374 704.84 862.993 485.482 776.5C211.283 668.383 211.35 754.102 131.095 889.744C50.8393 1025.39 -74.6845 1021.6 -185.513 1025.39" stroke="url(#paint23_linear_13_1698)" stroke-width="2"/>
<path d="M798.477 602.165C792.946 684.755 715.942 875.374 496.583 788.88C222.385 680.764 222.451 766.483 142.196 902.125C61.9408 1037.77 -63.5829 1033.98 -174.412 1037.77" stroke="url(#paint24_linear_13_1698)" stroke-width="2"/>
<path d="M809.578 614.545C804.047 697.135 727.043 887.754 507.685 801.26C233.486 693.143 233.553 778.863 153.298 914.505C73.0424 1050.15 -52.4814 1046.36 -163.31 1050.15" stroke="url(#paint25_linear_13_1698)" stroke-width="2"/>
<path d="M820.68 626.925C815.149 709.515 738.145 900.135 518.786 813.641C244.588 705.524 244.655 791.244 164.399 926.885C84.144 1062.53 -41.3798 1058.74 -152.209 1062.53" stroke="url(#paint26_linear_13_1698)" stroke-width="2"/>
<path d="M831.78 639.305C826.249 721.895 749.246 912.514 529.887 826.021C255.689 717.904 255.755 803.623 175.5 939.265C95.2445 1074.91 -30.2792 1071.12 -141.108 1074.91" stroke="url(#paint27_linear_13_1698)" stroke-width="2"/>
<path d="M842.882 651.686C837.351 734.276 760.347 924.895 540.989 838.402C266.79 730.285 266.857 816.004 186.601 951.646C106.346 1087.29 -19.1777 1083.5 -130.006 1087.29" stroke="url(#paint28_linear_13_1698)" stroke-width="2"/>
</g>
<defs>
<linearGradient id="paint0_linear_13_1698" x1="531.844" y1="319.059" x2="-617.169" y2="805.465" gradientUnits="userSpaceOnUse">
<stop stop-opacity="0"/>
<stop offset="0.963542" stop-color="#EDC85C"/>
<stop offset="1" stop-color="#E3AF3D"/>
</linearGradient>
<linearGradient id="paint1_linear_13_1698" x1="542.946" y1="331.439" x2="-606.068" y2="817.844" gradientUnits="userSpaceOnUse">
<stop stop-opacity="0"/>
<stop offset="0.963542" stop-color="#EDC85C"/>
<stop offset="1" stop-color="#E3AF3D"/>
</linearGradient>
<linearGradient id="paint2_linear_13_1698" x1="554.047" y1="343.82" x2="-594.967" y2="830.225" gradientUnits="userSpaceOnUse">
<stop stop-opacity="0"/>
<stop offset="0.963542" stop-color="#EDC85C"/>
<stop offset="1" stop-color="#E3AF3D"/>
</linearGradient>
<linearGradient id="paint3_linear_13_1698" x1="565.148" y1="356.2" x2="-583.865" y2="842.605" gradientUnits="userSpaceOnUse">
<stop stop-opacity="0"/>
<stop offset="0.963542" stop-color="#EDC85C"/>
<stop offset="1" stop-color="#E3AF3D"/>
</linearGradient>
<linearGradient id="paint4_linear_13_1698" x1="576.25" y1="368.58" x2="-572.764" y2="854.985" gradientUnits="userSpaceOnUse">
<stop stop-opacity="0"/>
<stop offset="0.963542" stop-color="#EDC85C"/>
<stop offset="1" stop-color="#E3AF3D"/>
</linearGradient>
<linearGradient id="paint5_linear_13_1698" x1="587.351" y1="380.96" x2="-561.662" y2="867.365" gradientUnits="userSpaceOnUse">
<stop stop-opacity="0"/>
<stop offset="0.963542" stop-color="#EDC85C"/>
<stop offset="1" stop-color="#E3AF3D"/>
</linearGradient>
<linearGradient id="paint6_linear_13_1698" x1="598.452" y1="393.34" x2="-550.562" y2="879.746" gradientUnits="userSpaceOnUse">
<stop stop-opacity="0"/>
<stop offset="0.963542" stop-color="#EDC85C"/>
<stop offset="1" stop-color="#E3AF3D"/>
</linearGradient>
<linearGradient id="paint7_linear_13_1698" x1="609.553" y1="405.72" x2="-539.46" y2="892.126" gradientUnits="userSpaceOnUse">
<stop stop-opacity="0"/>
<stop offset="0.963542" stop-color="#EDC85C"/>
<stop offset="1" stop-color="#E3AF3D"/>
</linearGradient>
<linearGradient id="paint8_linear_13_1698" x1="620.655" y1="418.1" x2="-528.359" y2="904.506" gradientUnits="userSpaceOnUse">
<stop stop-opacity="0"/>
<stop offset="0.963542" stop-color="#EDC85C"/>
<stop offset="1" stop-color="#E3AF3D"/>
</linearGradient>
<linearGradient id="paint9_linear_13_1698" x1="631.757" y1="430.48" x2="-517.257" y2="916.885" gradientUnits="userSpaceOnUse">
<stop stop-opacity="0"/>
<stop offset="0.963542" stop-color="#EDC85C"/>
<stop offset="1" stop-color="#E3AF3D"/>
</linearGradient>
<linearGradient id="paint10_linear_13_1698" x1="642.857" y1="442.861" x2="-506.156" y2="929.266" gradientUnits="userSpaceOnUse">
<stop stop-opacity="0"/>
<stop offset="0.963542" stop-color="#EDC85C"/>
<stop offset="1" stop-color="#E3AF3D"/>
</linearGradient>
<linearGradient id="paint11_linear_13_1698" x1="653.959" y1="455.241" x2="-495.055" y2="941.646" gradientUnits="userSpaceOnUse">
<stop stop-opacity="0"/>
<stop offset="0.963542" stop-color="#EDC85C"/>
<stop offset="1" stop-color="#E3AF3D"/>
</linearGradient>
<linearGradient id="paint12_linear_13_1698" x1="665.06" y1="467.622" x2="-483.953" y2="954.027" gradientUnits="userSpaceOnUse">
<stop stop-opacity="0"/>
<stop offset="0.963542" stop-color="#EDC85C"/>
<stop offset="1" stop-color="#E3AF3D"/>
</linearGradient>
<linearGradient id="paint13_linear_13_1698" x1="676.161" y1="480.003" x2="-472.853" y2="966.408" gradientUnits="userSpaceOnUse">
<stop stop-opacity="0"/>
<stop offset="0.963542" stop-color="#EDC85C"/>
<stop offset="1" stop-color="#E3AF3D"/>
</linearGradient>
<linearGradient id="paint14_linear_13_1698" x1="687.262" y1="492.381" x2="-461.751" y2="978.787" gradientUnits="userSpaceOnUse">
<stop stop-opacity="0"/>
<stop offset="0.963542" stop-color="#EDC85C"/>
<stop offset="1" stop-color="#E3AF3D"/>
</linearGradient>
<linearGradient id="paint15_linear_13_1698" x1="698.364" y1="504.762" x2="-450.65" y2="991.168" gradientUnits="userSpaceOnUse">
<stop stop-opacity="0"/>
<stop offset="0.963542" stop-color="#EDC85C"/>
<stop offset="1" stop-color="#E3AF3D"/>
</linearGradient>
<linearGradient id="paint16_linear_13_1698" x1="709.466" y1="517.142" x2="-439.548" y2="1003.55" gradientUnits="userSpaceOnUse">
<stop stop-opacity="0"/>
<stop offset="0.963542" stop-color="#EDC85C"/>
<stop offset="1" stop-color="#E3AF3D"/>
</linearGradient>
<linearGradient id="paint17_linear_13_1698" x1="720.567" y1="529.523" x2="-428.447" y2="1015.93" gradientUnits="userSpaceOnUse">
<stop stop-opacity="0"/>
<stop offset="0.963542" stop-color="#EDC85C"/>
<stop offset="1" stop-color="#E3AF3D"/>
</linearGradient>
<linearGradient id="paint18_linear_13_1698" x1="731.668" y1="541.903" x2="-417.346" y2="1028.31" gradientUnits="userSpaceOnUse">
<stop stop-opacity="0"/>
<stop offset="0.963542" stop-color="#EDC85C"/>
<stop offset="1" stop-color="#E3AF3D"/>
</linearGradient>
<linearGradient id="paint19_linear_13_1698" x1="742.769" y1="554.283" x2="-406.244" y2="1040.69" gradientUnits="userSpaceOnUse">
<stop stop-opacity="0"/>
<stop offset="0.963542" stop-color="#EDC85C"/>
<stop offset="1" stop-color="#E3AF3D"/>
</linearGradient>
<linearGradient id="paint20_linear_13_1698" x1="753.871" y1="566.664" x2="-395.143" y2="1053.07" gradientUnits="userSpaceOnUse">
<stop stop-opacity="0"/>
<stop offset="0.963542" stop-color="#EDC85C"/>
<stop offset="1" stop-color="#E3AF3D"/>
</linearGradient>
<linearGradient id="paint21_linear_13_1698" x1="764.972" y1="579.044" x2="-384.041" y2="1065.45" gradientUnits="userSpaceOnUse">
<stop stop-opacity="0"/>
<stop offset="0.963542" stop-color="#EDC85C"/>
<stop offset="1" stop-color="#E3AF3D"/>
</linearGradient>
<linearGradient id="paint22_linear_13_1698" x1="776.073" y1="591.423" x2="-372.941" y2="1077.83" gradientUnits="userSpaceOnUse">
<stop stop-opacity="0"/>
<stop offset="0.963542" stop-color="#EDC85C"/>
<stop offset="1" stop-color="#E3AF3D"/>
</linearGradient>
<linearGradient id="paint23_linear_13_1698" x1="787.175" y1="603.803" x2="-361.839" y2="1090.21" gradientUnits="userSpaceOnUse">
<stop stop-opacity="0"/>
<stop offset="0.963542" stop-color="#EDC85C"/>
<stop offset="1" stop-color="#E3AF3D"/>
</linearGradient>
<linearGradient id="paint24_linear_13_1698" x1="798.276" y1="616.184" x2="-350.738" y2="1102.59" gradientUnits="userSpaceOnUse">
<stop stop-opacity="0"/>
<stop offset="0.963542" stop-color="#EDC85C"/>
<stop offset="1" stop-color="#E3AF3D"/>
</linearGradient>
<linearGradient id="paint25_linear_13_1698" x1="809.378" y1="628.564" x2="-339.636" y2="1114.97" gradientUnits="userSpaceOnUse">
<stop stop-opacity="0"/>
<stop offset="0.963542" stop-color="#EDC85C"/>
<stop offset="1" stop-color="#E3AF3D"/>
</linearGradient>
<linearGradient id="paint26_linear_13_1698" x1="820.479" y1="640.945" x2="-328.534" y2="1127.35" gradientUnits="userSpaceOnUse">
<stop stop-opacity="0"/>
<stop offset="0.963542" stop-color="#EDC85C"/>
<stop offset="1" stop-color="#E3AF3D"/>
</linearGradient>
<linearGradient id="paint27_linear_13_1698" x1="831.58" y1="653.325" x2="-317.434" y2="1139.73" gradientUnits="userSpaceOnUse">
<stop stop-opacity="0"/>
<stop offset="0.963542" stop-color="#EDC85C"/>
<stop offset="1" stop-color="#E3AF3D"/>
</linearGradient>
<linearGradient id="paint28_linear_13_1698" x1="842.681" y1="665.706" x2="-306.332" y2="1152.11" gradientUnits="userSpaceOnUse">
<stop stop-opacity="0"/>
<stop offset="0.963542" stop-color="#EDC85C"/>
<stop offset="1" stop-color="#E3AF3D"/>
</linearGradient>
</defs>
</svg>
