<svg width="43" height="43" viewBox="0 0 43 43" fill="none" xmlns="http://www.w3.org/2000/svg">
<path d="M40.7059 19.4555C33.4515 15.4901 27.4888 9.52405 23.5201 2.26967C22.5619 0.515152 20.0434 0.515152 19.0852 2.26967C15.1198 9.52405 9.15377 15.4868 1.89938 19.4555C0.144867 20.4137 0.144867 22.9322 1.89938 23.8904C9.15377 27.8591 15.1165 33.8219 19.0852 41.0762C20.0434 42.8308 22.5619 42.8308 23.5201 41.0762C27.4855 33.8219 33.4515 27.8591 40.7059 23.8904C42.4572 22.9322 42.4572 20.4137 40.7059 19.4555Z" fill="#2B8CD9"/>
<path d="M40.7059 19.4555C33.4515 15.4901 27.4888 9.52405 23.5201 2.26967C22.5619 0.515152 20.0434 0.515152 19.0852 2.26967C15.1198 9.52405 9.15377 15.4868 1.89938 19.4555C0.144867 20.4137 0.144867 22.9322 1.89938 23.8904C9.15377 27.8591 15.1165 33.8219 19.0852 41.0762C20.0434 42.8308 22.5619 42.8308 23.5201 41.0762C27.4855 33.8219 33.4515 27.8591 40.7059 23.8904C42.4572 22.9322 42.4572 20.4137 40.7059 19.4555Z" fill="url(#paint0_linear_1_1983)"/>
<defs>
<linearGradient id="paint0_linear_1_1983" x1="51.1415" y1="-12.132" x2="-9.74067" y2="-7.45341" gradientUnits="userSpaceOnUse">
<stop stop-color="#48C1C0"/>
<stop offset="1" stop-color="#2B8CD9"/>
</linearGradient>
</defs>
</svg>
