<svg width="128" height="25" viewBox="0 0 128 25" fill="none" xmlns="http://www.w3.org/2000/svg">
<path d="M11.0489 3.42705C11.3483 2.50574 12.6517 2.50574 12.9511 3.42705L14.4697 8.10081C14.6035 8.51284 14.9875 8.7918 15.4207 8.7918H20.335C21.3037 8.7918 21.7065 10.0314 20.9228 10.6008L16.947 13.4894C16.5966 13.744 16.4499 14.1954 16.5838 14.6074L18.1024 19.2812C18.4017 20.2025 17.3472 20.9686 16.5635 20.3992L12.5878 17.5106C12.2373 17.256 11.7627 17.256 11.4122 17.5106L7.43648 20.3992C6.65276 20.9686 5.59828 20.2025 5.89763 19.2812L7.41623 14.6074C7.55011 14.1954 7.40345 13.744 7.05296 13.4894L3.07722 10.6008C2.29351 10.0314 2.69628 8.7918 3.66501 8.7918H8.57929C9.01252 8.7918 9.39647 8.51284 9.53035 8.10081L11.0489 3.42705Z" fill="#F3B305"/>
<path d="M37.0489 3.42705C37.3483 2.50574 38.6517 2.50574 38.9511 3.42705L40.4697 8.10081C40.6035 8.51284 40.9875 8.7918 41.4207 8.7918H46.335C47.3037 8.7918 47.7065 10.0314 46.9228 10.6008L42.947 13.4894C42.5966 13.744 42.4499 14.1954 42.5838 14.6074L44.1024 19.2812C44.4017 20.2025 43.3472 20.9686 42.5635 20.3992L38.5878 17.5106C38.2373 17.256 37.7627 17.256 37.4122 17.5106L33.4365 20.3992C32.6528 20.9686 31.5983 20.2025 31.8976 19.2812L33.4162 14.6074C33.5501 14.1954 33.4034 13.744 33.053 13.4894L29.0772 10.6008C28.2935 10.0314 28.6963 8.7918 29.665 8.7918H34.5793C35.0125 8.7918 35.3965 8.51284 35.5303 8.10081L37.0489 3.42705Z" fill="#F3B305"/>
<path d="M63.0489 3.42705C63.3483 2.50574 64.6517 2.50574 64.9511 3.42705L66.4697 8.10081C66.6035 8.51284 66.9875 8.7918 67.4207 8.7918H72.335C73.3037 8.7918 73.7065 10.0314 72.9228 10.6008L68.947 13.4894C68.5966 13.744 68.4499 14.1954 68.5838 14.6074L70.1024 19.2812C70.4017 20.2025 69.3472 20.9686 68.5635 20.3992L64.5878 17.5106C64.2373 17.256 63.7627 17.256 63.4122 17.5106L59.4365 20.3992C58.6528 20.9686 57.5983 20.2025 57.8976 19.2812L59.4162 14.6074C59.5501 14.1954 59.4034 13.744 59.053 13.4894L55.0772 10.6008C54.2935 10.0314 54.6963 8.7918 55.665 8.7918H60.5793C61.0125 8.7918 61.3965 8.51284 61.5303 8.10081L63.0489 3.42705Z" fill="#F3B305"/>
<path d="M89.5245 3.58156C89.6741 3.1209 90.3259 3.12091 90.4755 3.58156L91.9941 8.25532C92.1949 8.87336 92.7709 9.2918 93.4207 9.2918H98.335C98.8194 9.2918 99.0207 9.9116 98.6289 10.1963L94.6531 13.0848C94.1274 13.4668 93.9074 14.1439 94.1082 14.7619L95.6268 19.4357C95.7765 19.8963 95.2493 20.2794 94.8574 19.9947L90.8817 17.1061C90.3559 16.7242 89.6441 16.7242 89.1183 17.1061L85.1426 19.9947C84.7507 20.2794 84.2235 19.8963 84.3732 19.4357L85.8918 14.7619C86.0926 14.1439 85.8726 13.4668 85.3469 13.0848L81.3711 10.1963C80.9793 9.9116 81.1806 9.2918 81.665 9.2918H86.5793C87.2291 9.2918 87.8051 8.87336 88.0059 8.25532L89.5245 3.58156Z" fill="url(#paint0_linear_30_5303)" stroke="#F3B305"/>
<path d="M115.524 3.58156C115.674 3.1209 116.326 3.12091 116.476 3.58156L117.994 8.25532C118.195 8.87336 118.771 9.2918 119.421 9.2918H124.335C124.819 9.2918 125.021 9.9116 124.629 10.1963L120.653 13.0848C120.127 13.4668 119.907 14.1439 120.108 14.7619L121.627 19.4357C121.777 19.8963 121.249 20.2794 120.857 19.9947L116.882 17.1061C116.356 16.7242 115.644 16.7242 115.118 17.1061L111.143 19.9947C110.751 20.2794 110.223 19.8963 110.373 19.4357L111.892 14.7619C112.093 14.1439 111.873 13.4668 111.347 13.0848L107.371 10.1963C106.979 9.9116 107.181 9.2918 107.665 9.2918H112.579C113.229 9.2918 113.805 8.87336 114.006 8.25532L115.524 3.58156Z" stroke="#F3B305"/>
<defs>
<linearGradient id="paint0_linear_30_5303" x1="87" y1="12" x2="91" y2="12" gradientUnits="userSpaceOnUse">
<stop offset="0.75293" stop-color="#F3B305"/>
<stop offset="0.754883" stop-color="#F3B305" stop-opacity="0"/>
</linearGradient>
</defs>
</svg>
