<svg width="108" height="111" viewBox="0 0 108 111" fill="none" xmlns="http://www.w3.org/2000/svg">
<g id="vector">
<path id="Vector" d="M64.08 2.27002C62.22 3.09002 60.47 4.15004 58.83 5.45004C41.39 19.32 22.23 31.93 3.95996 44.71" stroke="#67242F" stroke-width="2"/>
<path id="Vector_2" d="M3.95984 44.71L1.46979 46.67C1.3549 46.7601 1.2777 46.8894 1.2536 47.0321C1.2295 47.1749 1.26034 47.3205 1.33984 47.44L36.5898 103.28C36.7765 103.573 36.8998 103.887 36.9598 104.22C37.0398 104.693 37.2365 105.117 37.5498 105.49" stroke="#4C1D2D" stroke-width="2"/>
<path id="Vector_3" d="M50.4902 104.92L105.92 65.5101C106.28 65.2501 106.44 64.9034 106.4 64.4701C106.36 64.0167 106.15 63.6301 105.77 63.3101" stroke="#67242F" stroke-width="2"/>
<path id="Vector_4" d="M105.77 63.31C93.6034 43.9366 81.45 24.6466 69.31 5.43997C68.5767 4.27997 67.3067 3.03663 65.5 1.70996" stroke="#811D2D" stroke-width="2"/>
<path id="Vector_5" d="M65.5001 1.70993C65.1067 1.38993 64.6334 1.57659 64.0801 2.26993" stroke="#963E49" stroke-width="2"/>
<path id="Vector_6" d="M65.5 1.70996C65.6733 2.36996 65.93 2.96329 66.27 3.48996C75.47 17.8033 84.5166 32.21 93.41 46.71C95.54 50.17 99.93 55.66 102.14 61.06" stroke="#EB221C" stroke-width="2"/>
<path id="Vector_7" d="M102.14 61.06L65.0402 49.34C64.7485 49.2467 64.4393 49.2225 64.1372 49.2693C63.8352 49.3162 63.5486 49.4329 63.3002 49.61L37.6902 67.7C37.651 67.7263 37.609 67.7402 37.5702 67.74C37.2302 67.7533 37.2002 67.76 37.4802 67.76" stroke="#F92924" stroke-width="2"/>
<path id="Vector_8" d="M37.4801 67.76C37.1134 67.64 36.9534 67.4 37.0001 67.04" stroke="#B5221C" stroke-width="2"/>
<path id="Vector_9" d="M37 67.04L62.12 49.09C62.4467 48.85 62.5033 48.56 62.29 48.22L47.46 25.01" stroke="#EB221C" stroke-width="2"/>
<path id="Vector_10" d="M47.46 25.01L64.08 2.27002" stroke="#D1291E" stroke-width="2"/>
<path id="Vector_11" d="M105.77 63.31L102.27 61.28" stroke="#BC0702" stroke-width="2"/>
<path id="Vector_12" d="M102.27 61.2801C102.23 61.2067 102.187 61.1334 102.14 61.0601" stroke="#E40808" stroke-width="2"/>
<path id="Vector_13" d="M37.48 67.76L38.49 105.48" stroke="#AF0808" stroke-width="2"/>
<path id="Vector_14" d="M38.4898 105.48L38.5198 105.85C38.5532 106.203 38.4365 106.263 38.1698 106.03L37.5498 105.49" stroke="#471522" stroke-width="2"/>
<path id="Vector_15" d="M36.9998 67.04L22.0098 43.22" stroke="#A10000" stroke-width="2"/>
<path id="Vector_16" d="M47.4602 25.01C39.1802 31.13 30.7935 36.9733 22.3001 42.54C22.0401 42.7067 21.9435 42.9333 22.0102 43.22" stroke="#BC0702" stroke-width="2"/>
<path id="Vector_17" d="M22.0099 43.22C21.5499 43 21.2099 42.9133 20.9899 42.96C15.5566 44.16 10.0366 45.26 4.42989 46.26C4.33453 46.2783 4.23621 46.2719 4.14394 46.2415C4.05167 46.2111 3.96842 46.1576 3.90175 46.086C3.83509 46.0144 3.78719 45.9269 3.76241 45.8315C3.73763 45.7361 3.73676 45.6359 3.75991 45.54L3.95992 44.71" stroke="#870702" stroke-width="2"/>
<path id="Vector_18" d="M102.27 61.28L38.9302 106.46" stroke="#CA0F0A" stroke-width="2"/>
<path id="Vector_19" d="M38.9302 106.46C38.8769 106.053 38.7302 105.727 38.4902 105.48" stroke="#8A1C29" stroke-width="2"/>
<path id="Vector_20" d="M50.4902 104.92L44.0602 109.55C43.7723 109.756 43.4222 109.856 43.0688 109.835C42.7155 109.813 42.3805 109.67 42.1202 109.43L38.9302 106.46" stroke="#621C24" stroke-width="2"/>
<path id="Vector_21" d="M65.5001 1.70993C65.6734 2.36993 65.9301 2.96326 66.2701 3.48993C75.4701 17.8033 84.5167 32.2099 93.4101 46.7099C95.5401 50.1699 99.9301 55.6599 102.14 61.0599L65.0401 49.3399C64.7483 49.2466 64.4392 49.2224 64.1371 49.2693C63.8351 49.3162 63.5484 49.4328 63.3001 49.6099L37.6901 67.7C37.6509 67.7262 37.6089 67.7402 37.5701 67.7399C37.2301 67.7533 37.2001 67.7599 37.4801 67.7599C37.1134 67.6399 36.9534 67.3999 37.0001 67.0399L62.1201 49.0899C62.4468 48.8499 62.5034 48.5599 62.2901 48.2199L47.4601 25.0099L64.0801 2.26993C64.6334 1.57659 65.1068 1.38993 65.5001 1.70993Z" fill="#FF4338"/>
<path id="Vector_22" d="M65.5 1.70996C67.3067 3.03663 68.5767 4.27997 69.31 5.43997C81.45 24.6466 93.6034 43.9366 105.77 63.31L102.27 61.28C102.23 61.2066 102.187 61.1333 102.14 61.06C99.93 55.66 95.54 50.17 93.41 46.71C84.5166 32.21 75.47 17.8033 66.27 3.48996C65.93 2.96329 65.6733 2.36996 65.5 1.70996Z" fill="#D60000"/>
<path id="Vector_23" d="M64.0799 2.27002L47.4599 25.01C39.1799 31.13 30.7932 36.9734 22.2999 42.54C22.0399 42.7067 21.9432 42.9334 22.0099 43.22C21.5499 43 21.2099 42.9134 20.9899 42.96C15.5566 44.16 10.0366 45.26 4.42989 46.26C4.33453 46.2783 4.23621 46.2719 4.14394 46.2415C4.05167 46.2112 3.96842 46.1577 3.90175 46.086C3.83509 46.0144 3.78719 45.9269 3.76241 45.8315C3.73763 45.7361 3.73676 45.6359 3.75991 45.54L3.95992 44.71C22.2299 31.93 41.3899 19.32 58.8299 5.45004C60.4699 4.15004 62.2199 3.09002 64.0799 2.27002Z" fill="#A20E04"/>
<path id="Vector_24" d="M47.4602 25.01L62.2901 48.22C62.5035 48.56 62.4468 48.85 62.1201 49.09L37.0001 67.04L22.0102 43.22C21.9435 42.9333 22.0401 42.7067 22.3001 42.54C30.7935 36.9733 39.1802 31.13 47.4602 25.01Z" fill="#D60000"/>
<path id="Vector_25" d="M22.0098 43.22L36.9998 67.04C36.9532 67.4 37.1131 67.64 37.4798 67.76L38.4898 105.48L38.5198 105.85C38.5532 106.203 38.4365 106.263 38.1698 106.03L37.5498 105.49C37.2365 105.117 37.0398 104.693 36.9598 104.22C36.8998 103.887 36.7765 103.573 36.5898 103.28L1.33984 47.44C1.26034 47.3206 1.2295 47.1749 1.2536 47.0322C1.2777 46.8894 1.3549 46.7601 1.46979 46.67L3.95984 44.71L3.75983 45.54C3.73668 45.6359 3.73755 45.7361 3.76233 45.8315C3.78711 45.9269 3.83501 46.0144 3.90167 46.086C3.96833 46.1576 4.05159 46.2111 4.14386 46.2415C4.23613 46.2719 4.33445 46.2783 4.42981 46.26C10.0365 45.26 15.5565 44.16 20.9898 42.96C21.2098 42.9133 21.5498 43 22.0098 43.22Z" fill="#6B0000"/>
<path id="Vector_26" d="M102.14 61.06C102.187 61.1333 102.23 61.2067 102.27 61.28L38.9302 106.46C38.8769 106.053 38.7302 105.727 38.4902 105.48L37.4802 67.76C37.2002 67.76 37.2302 67.7533 37.5702 67.74C37.609 67.7402 37.651 67.7263 37.6902 67.7L63.3002 49.61C63.5486 49.4329 63.8352 49.3162 64.1372 49.2693C64.4393 49.2225 64.7485 49.2467 65.0402 49.34L102.14 61.06Z" fill="#F20F0F"/>
<path id="Vector_27" d="M102.27 61.28L105.77 63.31C106.15 63.63 106.36 64.0167 106.4 64.47C106.44 64.9034 106.28 65.25 105.92 65.51L50.4902 104.92L44.0602 109.55C43.7723 109.756 43.4222 109.857 43.0688 109.835C42.7155 109.813 42.3805 109.67 42.1202 109.43L38.9302 106.46L102.27 61.28Z" fill="#A20E04"/>
</g>
</svg>
