<svg width="79" height="118" viewBox="0 0 79 118" fill="none" xmlns="http://www.w3.org/2000/svg">
<g id="vector">
<path id="Vector" d="M50.3774 2.17993C38.7908 10.1533 27.3974 17.9799 16.1974 25.6599C15.4641 26.1599 14.8508 26.7399 14.3574 27.3999" stroke="#593A9A" stroke-width="2"/>
<path id="Vector_2" d="M14.358 27.4C14.178 27.7267 14.0014 28.22 13.828 28.88C9.90138 43.6 5.86138 58.29 1.70805 72.95C1.43805 73.88 1.51805 75.14 1.24805 76.17" stroke="#4C3280" stroke-width="2"/>
<path id="Vector_3" d="M1.2477 76.17C0.957703 76.91 0.857701 77.48 1.3077 78.2C7.47437 88.34 13.721 98.5667 20.0477 108.88" stroke="#593A9A" stroke-width="2"/>
<path id="Vector_4" d="M39.4678 107.98C47.9478 101.967 56.1544 96.16 64.0878 90.56C64.3411 90.3867 64.4844 90.03 64.5178 89.49" stroke="#4C3280" stroke-width="2"/>
<path id="Vector_5" d="M64.5185 89.49L77.2585 41.6C77.4785 40.7534 77.3585 39.9567 76.8985 39.21C70.2318 28.4034 63.4685 17.3934 56.6085 6.18002C55.4885 4.34669 54.1952 3.21002 52.7285 2.77002" stroke="#593A9A" stroke-width="2"/>
<path id="Vector_6" d="M52.7279 2.77004L51.8779 1.59004C51.6313 1.24338 51.3746 1.23672 51.1079 1.57005C50.7013 2.07005 50.4579 2.27337 50.3779 2.18004" stroke="#8D69AC" stroke-width="2"/>
<path id="Vector_7" d="M52.7285 2.77002L71.9985 34.8C72.1652 35.0734 72.2585 35.37 72.2785 35.69L72.2985 36.19" stroke="#B969EC" stroke-width="2"/>
<path id="Vector_8" d="M72.2978 36.19L55.2178 35.17" stroke="#C56EFE" stroke-width="2"/>
<path id="Vector_9" d="M55.2187 35.17L42.3887 14.46" stroke="#D579FF" stroke-width="2"/>
<path id="Vector_10" d="M42.3887 14.4599L50.3787 2.17993" stroke="#B969EC" stroke-width="2"/>
<path id="Vector_11" d="M64.5187 89.4899L64.2787 89.5699C63.9453 89.6833 63.6487 89.6233 63.3887 89.39L60.1787 86.5199C59.892 86.2533 59.5853 86.2333 59.2587 86.4599L22.3887 111.98" stroke="#7933C0" stroke-width="2"/>
<path id="Vector_12" d="M22.3878 111.98L20.0479 108.88" stroke="#54328F" stroke-width="2"/>
<path id="Vector_13" d="M1.24805 76.17C5.72805 74.67 5.98804 72.0099 9.48804 69.6899" stroke="#7933C0" stroke-width="2"/>
<path id="Vector_14" d="M9.48828 69.6899L21.9783 90.0299C22.1716 90.3433 22.4183 90.3966 22.7183 90.1899L44.7283 74.9899" stroke="#A14AED" stroke-width="2"/>
<path id="Vector_15" d="M44.7285 74.9899L59.2885 85.9099C59.3334 85.9427 59.3856 85.964 59.4406 85.972C59.4955 85.9799 59.5516 85.9743 59.6039 85.9555C59.6562 85.9368 59.7031 85.9055 59.7405 85.8644C59.7779 85.8234 59.8047 85.7738 59.8185 85.7199C63.8252 69.5266 68.0719 53.4566 72.5585 37.5099C72.7052 36.9833 72.6185 36.5433 72.2985 36.1899" stroke="#913FEC" stroke-width="2"/>
<path id="Vector_16" d="M55.2185 35.17L44.7285 74.99" stroke="#AD4FFF" stroke-width="2"/>
<path id="Vector_17" d="M9.48828 69.69L20.1283 29.65" stroke="#9443D3" stroke-width="2"/>
<path id="Vector_18" d="M42.3879 14.46L20.1279 29.65" stroke="#A14AED" stroke-width="2"/>
<path id="Vector_19" d="M20.1274 29.65L14.3574 27.4" stroke="#7933C0" stroke-width="2"/>
<path id="Vector_20" d="M39.4687 107.98L27.5687 116.12C27.352 116.271 27.0883 116.338 26.8258 116.311C26.5632 116.283 26.3194 116.162 26.1387 115.97L22.3887 111.98" stroke="#472A75" stroke-width="2"/>
<path id="Vector_21" d="M52.7287 2.77004L71.9987 34.8C72.1653 35.0734 72.2587 35.37 72.2787 35.69L72.2987 36.19L55.2187 35.1701L42.3887 14.46L50.3787 2.18004C50.4587 2.27337 50.702 2.07005 51.1087 1.57005C51.3753 1.23672 51.632 1.24338 51.8787 1.59004L52.7287 2.77004Z" fill="#ED98FE"/>
<path id="Vector_22" d="M50.3774 2.17993L42.3874 14.4599L20.1274 29.6499L14.3574 27.3999C14.8508 26.7399 15.4641 26.1599 16.1974 25.6599C27.3974 17.9799 38.7908 10.1533 50.3774 2.17993Z" fill="#853ADA"/>
<path id="Vector_23" d="M52.7277 2.77002C54.1944 3.21002 55.4877 4.34669 56.6077 6.18002C63.4677 17.3934 70.231 28.4034 76.8977 39.21C77.3577 39.9567 77.4777 40.7534 77.2577 41.6L64.5177 89.49L64.2777 89.57C63.9444 89.6834 63.6477 89.6234 63.3877 89.39L60.1777 86.52C59.891 86.2533 59.5844 86.2334 59.2577 86.46L22.3877 111.98L20.0477 108.88C13.721 98.5667 7.47437 88.34 1.3077 78.2C0.857701 77.48 0.957703 76.91 1.2477 76.17C5.7277 74.67 5.9877 72.01 9.4877 69.69L21.9777 90.03C22.171 90.3434 22.4177 90.3967 22.7177 90.19L44.7277 74.99L59.2877 85.91C59.3325 85.9428 59.3848 85.9641 59.4397 85.9721C59.4947 85.98 59.5508 85.9744 59.6031 85.9556C59.6554 85.9369 59.7023 85.9056 59.7397 85.8645C59.7771 85.8235 59.8039 85.7738 59.8177 85.72C63.8244 69.5267 68.071 53.4567 72.5577 37.51C72.7044 36.9834 72.6177 36.5434 72.2977 36.19L72.2777 35.69C72.2577 35.37 72.1644 35.0734 71.9977 34.8L52.7277 2.77002Z" fill="#853ADA"/>
<path id="Vector_24" d="M42.3883 14.46L55.2183 35.17L44.7283 74.99L22.7183 90.19C22.4183 90.3966 22.1716 90.3433 21.9783 90.03L9.48828 69.69L20.1283 29.65L42.3883 14.46Z" fill="#BC5AFF"/>
<path id="Vector_25" d="M14.358 27.4L20.1281 29.65L9.48804 69.69C5.98804 72.01 5.72805 74.67 1.24805 76.17C1.51805 75.14 1.43805 73.88 1.70805 72.95C5.86138 58.29 9.90138 43.6 13.828 28.88C14.0014 28.22 14.178 27.7267 14.358 27.4Z" fill="#6C2BA6"/>
<path id="Vector_26" d="M55.2185 35.17L72.2985 36.19C72.6185 36.5434 72.7052 36.9834 72.5585 37.51C68.0718 53.4567 63.8252 69.5267 59.8185 85.72C59.8047 85.7738 59.7779 85.8235 59.7405 85.8645C59.7031 85.9056 59.6562 85.9369 59.6039 85.9556C59.5516 85.9744 59.4955 85.98 59.4406 85.9721C59.3856 85.9641 59.3334 85.9428 59.2885 85.91L44.7285 74.99L55.2185 35.17Z" fill="#9D43FE"/>
<path id="Vector_27" d="M64.5187 89.4899C64.4853 90.0299 64.342 90.3866 64.0887 90.5599C56.1553 96.1599 47.9487 101.967 39.4687 107.98L27.5687 116.12C27.352 116.271 27.0883 116.338 26.8258 116.311C26.5632 116.283 26.3194 116.162 26.1387 115.97L22.3887 111.98L59.2587 86.4599C59.5853 86.2333 59.892 86.2533 60.1787 86.5199L63.3887 89.39C63.6487 89.6233 63.9453 89.6833 64.2787 89.5699L64.5187 89.4899Z" fill="#6C2BA6"/>
</g>
</svg>
