<svg width="228" height="198" viewBox="0 0 228 198" fill="none" xmlns="http://www.w3.org/2000/svg">
<g opacity="0.5" filter="url(#filter0_b_1_2062)">
<path fill-rule="evenodd" clip-rule="evenodd" d="M107.686 -114.063C85.518 -106.391 64.7001 -93.7038 46.9981 -76.0018C29.2962 -58.2999 16.6093 -37.482 8.93739 -15.3137L107.686 -114.063ZM0.194714 41.5122C-0.0207512 33.5896 0.348911 25.654 1.3037 17.7758L140.776 -121.696C148.654 -122.651 156.59 -123.021 164.512 -122.805L0.194714 41.5122ZM6.81129 82.9789C5.01299 76.9452 3.57799 70.8262 2.50629 64.6565L187.656 -120.494C193.826 -119.422 199.945 -117.987 205.979 -116.189L6.81129 82.9789ZM21.2378 116.636C18.4273 111.732 15.8975 106.712 13.6485 101.598L224.598 -109.351C229.712 -107.102 234.732 -104.573 239.636 -101.762L21.2378 116.636ZM41.4802 144.477C37.8443 140.464 34.4482 136.311 31.2919 132.037L255.037 -91.7081C259.311 -88.5518 263.464 -85.1556 267.476 -81.5197L41.4802 144.477ZM66.8691 167.171C62.5487 164.064 58.3483 160.716 54.2866 157.126L280.126 -68.7134C283.716 -64.6517 287.064 -60.4513 290.171 -56.1308L66.8691 167.171ZM97.6484 184.475C92.4801 182.285 87.4036 179.811 82.4426 177.053L300.053 -40.5574C302.811 -35.5964 305.285 -30.5198 307.475 -25.3515L97.6484 184.475ZM135.04 195.166C128.796 194.18 122.598 192.823 116.484 191.095L309.335 -1.75563L317.094 6.00406C317.49 8.01035 317.848 10.0228 318.166 12.0401L135.04 195.166ZM182.752 195.538C174.724 196.678 166.627 197.208 158.535 197.127L320.127 35.5351C320.208 43.6273 319.678 51.7245 318.538 59.7516L182.752 195.538ZM309.723 94.0227C301.938 114.529 289.788 133.757 273.272 150.272C256.757 166.788 237.529 178.938 217.023 186.723L309.723 94.0227Z" fill="#2B8CD9"/>
</g>
<defs>
<filter id="filter0_b_1_2062" x="-11.8647" y="-134.865" width="344" height="344" filterUnits="userSpaceOnUse" color-interpolation-filters="sRGB">
<feFlood flood-opacity="0" result="BackgroundImageFix"/>
<feGaussianBlur in="BackgroundImageFix" stdDeviation="6"/>
<feComposite in2="SourceAlpha" operator="in" result="effect1_backgroundBlur_1_2062"/>
<feBlend mode="normal" in="SourceGraphic" in2="effect1_backgroundBlur_1_2062" result="shape"/>
</filter>
</defs>
</svg>
