<svg width="321" height="205" viewBox="0 0 321 205" fill="none" xmlns="http://www.w3.org/2000/svg">
<g style="mix-blend-mode:overlay" opacity="0.9" filter="url(#filter0_b_1_2048)">
<path fill-rule="evenodd" clip-rule="evenodd" d="M107.686 8.93748C85.518 16.6094 64.7001 29.2963 46.9981 46.9982C29.2962 64.7002 16.6093 85.518 8.93739 107.686L107.686 8.93748ZM0.194714 164.512C-0.0207512 156.59 0.348911 148.654 1.3037 140.776L140.776 1.3038C148.654 0.349015 156.59 -0.0206556 164.512 0.194804L0.194714 164.512ZM6.81129 205.979C5.01299 199.945 3.57799 193.826 2.50629 187.657L187.656 2.50639C193.826 3.57808 199.945 5.01309 205.979 6.81139L6.81129 205.979ZM21.2378 239.636C18.4273 234.732 15.8975 229.712 13.6485 224.598L224.598 13.6486C229.712 15.8976 234.732 18.4274 239.636 21.2379L21.2378 239.636ZM41.4802 267.477C37.8443 263.464 34.4482 259.312 31.2919 255.038L255.037 31.292C259.311 34.4483 263.464 37.8444 267.476 41.4803L41.4802 267.477ZM66.8691 290.171C62.5487 287.064 58.3483 283.716 54.2866 280.126L280.126 54.2867C283.716 58.3484 287.064 62.5488 290.171 66.8692L66.8691 290.171ZM97.6484 307.475C92.4801 305.285 87.4036 302.811 82.4426 300.053L300.053 82.4427C302.811 87.4037 305.285 92.4802 307.475 97.6485L97.6484 307.475ZM135.04 318.167C128.796 317.18 122.598 315.823 116.484 314.096L309.335 121.244L317.094 129.004C317.49 131.01 317.848 133.023 318.166 135.04L135.04 318.167ZM182.752 318.538C174.724 319.678 166.627 320.208 158.535 320.127L320.127 158.535C320.208 166.627 319.678 174.725 318.538 182.752L182.752 318.538ZM309.723 217.023C301.938 237.529 289.788 256.757 273.272 273.272C256.757 289.788 237.529 301.938 217.023 309.723L309.723 217.023Z" fill="white" fill-opacity="0.5"/>
</g>
<defs>
<filter id="filter0_b_1_2048" x="-11.8647" y="-11.8647" width="344" height="344" filterUnits="userSpaceOnUse" color-interpolation-filters="sRGB">
<feFlood flood-opacity="0" result="BackgroundImageFix"/>
<feGaussianBlur in="BackgroundImageFix" stdDeviation="6"/>
<feComposite in2="SourceAlpha" operator="in" result="effect1_backgroundBlur_1_2048"/>
<feBlend mode="normal" in="SourceGraphic" in2="effect1_backgroundBlur_1_2048" result="shape"/>
</filter>
</defs>
</svg>
