<svg width="120" height="120" viewBox="0 0 120 120" fill="none" xmlns="http://www.w3.org/2000/svg">
<g id="vector">
<path id="Vector" d="M49.0074 3.92444C46.5174 4.33444 44.4274 4.11444 42.1774 5.44444C34.6507 9.88444 27.0807 14.2811 19.4674 18.6344C18.8808 18.9667 18.4039 19.4716 18.0974 20.0844L6.61741 43.1844C6.04046 44.3384 5.63293 45.5677 5.40739 46.8344L1.0474 70.9944C0.977592 71.3811 0.984953 71.7773 1.06907 72.1601C1.15318 72.5429 1.31237 72.9047 1.53739 73.2244C5.87739 79.3578 10.3441 85.5511 14.9374 91.8044C15.6774 92.8178 16.5041 93.7344 17.4174 94.5544C18.4841 95.5078 19.414 96.3278 20.2074 97.0144" stroke="#958737" stroke-width="2"/>
<path id="Vector_2" d="M20.207 97.0145C24.6004 102.888 29.9904 107.448 36.3771 110.695" stroke="#86532D" stroke-width="2"/>
<path id="Vector_3" d="M109.938 29.8644C107.904 24.6244 104.234 19.9778 98.9277 15.9244" stroke="#957435" stroke-width="2"/>
<path id="Vector_4" d="M98.928 15.9245C98.468 15.0445 97.6813 14.0545 96.568 12.9545C95.7413 12.1345 94.6913 11.4711 93.418 10.9645C88.198 8.87113 83.1146 6.86446 78.168 4.94446" stroke="#958737" stroke-width="2"/>
<path id="Vector_5" d="M78.1667 4.94449C74.9934 1.77783 71.1867 0.517826 66.7467 1.16449C60.6734 2.04449 54.6767 2.57783 48.7567 2.7645C48.3234 2.77783 48.14 2.99783 48.2067 3.4245C48.2534 3.73783 48.5201 3.9045 49.0067 3.9245" stroke="#27314E" stroke-width="2"/>
<path id="Vector_6" d="M78.1678 4.94446C73.9678 2.80446 69.8245 1.94779 65.7378 2.37446C60.1578 2.95446 54.5811 3.47113 49.0078 3.92446" stroke="#907F2C" stroke-width="2"/>
<path id="Vector_7" d="M98.9277 15.9244C100.948 21.0578 102.974 26.0011 105.008 30.7544C107.828 37.3444 112.718 42.2544 118.058 46.8344" stroke="#FDC213" stroke-width="2"/>
<path id="Vector_8" d="M118.057 46.8345L115.527 74.0945" stroke="#907F2C" stroke-width="2"/>
<path id="Vector_9" d="M115.527 74.0945C114.46 74.0879 113.757 73.5212 113.417 72.3945C113.384 72.2891 113.326 72.1931 113.247 72.1145L105.447 64.0345C105.321 63.9057 105.167 63.808 104.997 63.749C104.827 63.69 104.646 63.6714 104.467 63.6947C104.289 63.718 104.118 63.7825 103.969 63.8831C103.819 63.9838 103.696 64.1178 103.607 64.2745L90.207 87.9545" stroke="#FDCF16" stroke-width="2"/>
<path id="Vector_10" d="M90.2075 87.9545L65.2676 101.954" stroke="#FDC213" stroke-width="2"/>
<path id="Vector_11" d="M65.2673 101.954C64.9673 101.828 64.6707 101.804 64.3773 101.884C64.1173 101.951 63.9873 101.851 63.9873 101.584V100.634C63.9873 100.348 64.1207 100.148 64.3873 100.034C71.2973 97.0344 77.5473 92.7744 84.3273 89.1244C84.4977 89.0343 84.6453 88.9066 84.7591 88.7509C84.8729 88.5952 84.95 88.4154 84.9846 88.2251C85.0192 88.0347 85.0105 87.8386 84.959 87.6515C84.9075 87.4644 84.8146 87.2911 84.6873 87.1444C81.854 83.8978 79.3373 79.8644 77.1373 75.0444" stroke="#FDCF16" stroke-width="2"/>
<path id="Vector_12" d="M77.1367 75.0445L89.7067 60.3645C89.855 60.1909 89.9334 59.9628 89.9267 59.7245L88.4567 32.0545C88.4433 31.7345 88.3 31.4912 88.0267 31.3245L70.8867 20.5045" stroke="#FEB412" stroke-width="2"/>
<path id="Vector_13" d="M70.8874 20.5045L66.3973 17.7245C66.1373 17.5578 65.8574 17.5112 65.5574 17.5845L38.8674 24.0545C38.5607 24.1278 38.3107 24.2845 38.1174 24.5245L19.5273 47.2445" stroke="#EFA10B" stroke-width="2"/>
<path id="Vector_14" d="M19.5273 47.2445C19.634 56.0912 20.014 64.6412 20.6674 72.8945C20.8974 75.7645 22.1574 76.5645 24.4374 77.9445" stroke="#FDC213" stroke-width="2"/>
<path id="Vector_15" d="M24.4375 77.9445L41.1975 90.2445C41.3951 90.3917 41.6227 90.494 41.8645 90.5441C42.1063 90.5942 42.3565 90.5909 42.5975 90.5345L47.0175 89.4645" stroke="#FEB412" stroke-width="2"/>
<path id="Vector_16" d="M47.0176 89.4645C48.9909 94.7245 51.8176 99.5478 55.4976 103.934" stroke="#FDCF16" stroke-width="2"/>
<path id="Vector_17" d="M55.4972 103.934L38.1172 107.274" stroke="#FEB412" stroke-width="2"/>
<path id="Vector_18" d="M38.1171 107.275C32.6504 103.428 26.6804 100.008 20.207 97.0145" stroke="#EFA10B" stroke-width="2"/>
<path id="Vector_19" d="M36.377 110.694L46.687 117.034" stroke="#814B22" stroke-width="2"/>
<path id="Vector_20" d="M46.6875 117.035L48.3375 118.265C48.6108 118.465 48.9142 118.535 49.2475 118.475L75.5675 113.775" stroke="#905E29" stroke-width="2"/>
<path id="Vector_21" d="M75.5674 113.775L100.657 99.4045" stroke="#906C2A" stroke-width="2"/>
<path id="Vector_22" d="M100.657 99.4045L115.527 74.0945" stroke="#90792D" stroke-width="2"/>
<path id="Vector_23" d="M75.5671 113.775L65.207 102.115" stroke="#FEA10F" stroke-width="2"/>
<path id="Vector_24" d="M38.1172 107.275C40.9772 110.228 43.9505 113.075 47.0372 115.815C47.2638 116.015 47.1472 116.421 46.6872 117.035" stroke="#EF8007" stroke-width="2"/>
<path id="Vector_25" d="M100.657 99.4045L90.207 87.9545" stroke="#FDBC14" stroke-width="2"/>
<path id="Vector_26" d="M65.2671 101.954C65.2471 102.008 65.227 102.061 65.207 102.114" stroke="#FDBC14" stroke-width="2"/>
<path id="Vector_27" d="M65.207 102.115L55.4971 103.935" stroke="#FEAE13" stroke-width="2"/>
<path id="Vector_28" d="M77.1376 75.0444L70.9476 82.5244C70.7276 82.7844 70.4542 82.9611 70.1276 83.0544L47.0176 89.4644" stroke="#FEAE13" stroke-width="2"/>
<path id="Vector_29" d="M24.4377 77.9445L24.4277 49.1345" stroke="#FEA10F" stroke-width="2"/>
<path id="Vector_30" d="M70.8878 20.5045L42.1577 27.5645C41.4905 27.7262 40.8952 28.1102 40.4677 28.6545L24.4277 49.1345" stroke="#EF8007" stroke-width="2"/>
<path id="Vector_31" d="M24.4274 49.1345L19.5273 47.2445" stroke="#EF8E08" stroke-width="2"/>
<path id="Vector_32" d="M109.938 29.8645L118.057 46.8345" stroke="#906C2A" stroke-width="2"/>
<path id="Vector_33" d="M54.9672 34.5445C44.5072 34.4245 42.5072 44.4245 42.2372 52.8045C42.2239 53.1579 42.3638 53.4312 42.6572 53.6245L43.7572 54.3445" stroke="#FEAE13" stroke-width="2"/>
<path id="Vector_34" d="M43.7575 54.3445L43.1975 54.3245C42.7042 54.3112 42.6041 54.5045 42.8975 54.9045C44.9908 57.7045 48.2241 59.9045 52.5975 61.5045" stroke="#EF8007" stroke-width="2"/>
<path id="Vector_35" d="M52.5971 61.5044L39.2571 59.4545C38.9438 59.4011 38.6804 59.4911 38.4671 59.7244C35.5204 62.8244 34.3971 66.0378 35.0971 69.3644" stroke="#FEAE13" stroke-width="2"/>
<path id="Vector_36" d="M35.0977 69.3645C37.1777 72.8312 39.2277 74.4345 41.2477 74.1745" stroke="#EF8007" stroke-width="2"/>
<path id="Vector_37" d="M41.2471 74.1746L43.097 76.5946" stroke="#FEAE13" stroke-width="2"/>
<path id="Vector_38" d="M43.0977 76.5946C44.3277 81.3046 49.0077 80.9946 52.8277 80.4346C53.1744 80.3812 53.441 80.2079 53.6277 79.9146L55.6577 76.7545C55.8643 76.4412 56.151 76.2479 56.5177 76.1746L62.6677 74.9445C62.9477 74.8845 63.171 74.7379 63.3376 74.5045C66.0576 70.6445 69.3377 66.8046 69.4077 61.6546C69.4477 58.5646 69.5577 56.7846 67.2377 54.9246" stroke="#EF8007" stroke-width="2"/>
<path id="Vector_39" d="M67.2372 54.9246C67.1906 53.5712 65.9273 51.9846 63.4473 50.1646" stroke="#FEAE13" stroke-width="2"/>
<path id="Vector_40" d="M63.4473 50.1645C66.3673 50.3745 69.7472 53.0445 71.7272 49.3345C73.6739 45.6678 73.3839 42.5878 70.8572 40.0945" stroke="#EF8007" stroke-width="2"/>
<path id="Vector_41" d="M70.8568 40.0945C70.9701 39.2879 70.9435 38.5745 70.7768 37.9545C70.7421 37.8253 70.6679 37.7099 70.5641 37.624C70.4603 37.5381 70.332 37.4859 70.1968 37.4745L66.0268 37.1045C65.9241 37.0955 65.8249 37.063 65.7368 37.0094C65.6488 36.9558 65.5743 36.8826 65.5192 36.7956C65.464 36.7085 65.4297 36.6098 65.4189 36.5073C65.4081 36.4048 65.421 36.3012 65.4568 36.2045L66.6668 32.9545C67.1268 31.7212 66.7068 31.0045 65.4068 30.8045L58.5968 29.7645C58.3132 29.721 58.023 29.7669 57.7667 29.896C57.5104 30.025 57.3007 30.2307 57.1668 30.4845L54.9668 34.5445" stroke="#FEB412" stroke-width="2"/>
<path id="Vector_42" d="M70.8572 40.0945C70.1872 49.8145 66.1372 47.7245 59.1572 44.6645" stroke="#EFA10B" stroke-width="2"/>
<path id="Vector_43" d="M59.1568 44.6644C60.3101 41.3511 58.9135 37.9778 54.9668 34.5444" stroke="#FDCF16" stroke-width="2"/>
<path id="Vector_44" d="M59.1568 44.6645L56.5468 44.0945C56.2068 44.0212 55.9235 44.1145 55.6969 44.3745C54.3969 45.8445 55.1568 47.1945 56.9068 47.6645C59.3868 48.3245 61.5669 49.1578 63.4469 50.1645" stroke="#EF9B0C" stroke-width="2"/>
<path id="Vector_45" d="M67.2377 54.9246C67.2477 57.6646 67.6477 60.0945 66.3477 62.5845C64.801 65.5779 62.971 68.4346 60.8577 71.1546C60.7036 71.3532 60.477 71.4826 60.2277 71.5146L54.1677 72.3345C53.801 72.3879 53.5277 72.5779 53.3477 72.9046C51.8977 75.6046 52.1677 76.8746 48.4877 76.8546C46.8143 76.8479 45.0177 76.7612 43.0977 76.5946" stroke="#EF9B0C" stroke-width="2"/>
<path id="Vector_46" d="M41.2477 74.1745C41.1677 73.1678 41.5177 72.3645 42.2977 71.7645C42.3775 71.701 42.4378 71.6161 42.4714 71.5198C42.5051 71.4234 42.5106 71.3195 42.4876 71.22C42.4646 71.1206 42.4139 71.0298 42.3413 70.958C42.2688 70.8862 42.1774 70.8365 42.0777 70.8145L35.0977 69.3645" stroke="#EF9B0C" stroke-width="2"/>
<path id="Vector_47" d="M52.5978 61.5045C52.8911 62.1645 53.4378 62.1545 54.2378 61.4745C54.4911 61.2611 54.5644 60.9978 54.4578 60.6845C54.0311 59.4578 53.2911 58.6711 52.2378 58.3245C48.6778 57.1511 45.8511 55.8245 43.7578 54.3445" stroke="#EF9B0C" stroke-width="2"/>
<path id="Vector_48" d="M78.1667 4.94449C73.9667 2.80449 69.8234 1.94783 65.7367 2.37449C60.1567 2.95449 54.5801 3.47116 49.0067 3.9245C48.5201 3.9045 48.2534 3.73783 48.2067 3.4245C48.14 2.99783 48.3234 2.77783 48.7567 2.7645C54.6767 2.57783 60.6734 2.04449 66.7467 1.16449C71.1867 0.517826 74.9934 1.77783 78.1667 4.94449Z" fill="#222943"/>
<path id="Vector_49" d="M78.1674 4.94446C83.1141 6.86446 88.1974 8.87113 93.4174 10.9645C94.6907 11.4711 95.7408 12.1345 96.5674 12.9545C97.6808 14.0545 98.4674 15.0445 98.9274 15.9245C100.947 21.0578 102.974 26.0011 105.007 30.7545C107.827 37.3445 112.717 42.2545 118.057 46.8345L115.527 74.0945C114.461 74.0878 113.757 73.5211 113.417 72.3945C113.384 72.2891 113.326 72.193 113.247 72.1145L105.447 64.0345C105.322 63.9056 105.168 63.8079 104.998 63.7489C104.827 63.6899 104.646 63.6713 104.467 63.6946C104.289 63.7179 104.118 63.7824 103.969 63.8831C103.82 63.9837 103.696 64.1177 103.607 64.2745L90.2074 87.9545L65.2674 101.954C64.9674 101.828 64.6708 101.804 64.3774 101.884C64.1174 101.951 63.9874 101.851 63.9874 101.584V100.634C63.9874 100.348 64.1208 100.148 64.3874 100.034C71.2974 97.0345 77.5474 92.7745 84.3274 89.1245C84.4978 89.0343 84.6454 88.9066 84.7592 88.7509C84.873 88.5952 84.9501 88.4154 84.9847 88.2251C85.0193 88.0347 85.0106 87.8387 84.9591 87.6516C84.9076 87.4645 84.8147 87.2911 84.6874 87.1445C81.8541 83.8978 79.3374 79.8645 77.1374 75.0445L89.7074 60.3645C89.8557 60.1908 89.9341 59.9627 89.9274 59.7245L88.4574 32.0545C88.444 31.7345 88.3007 31.4911 88.0274 31.3245L70.8874 20.5045L66.3974 17.7245C66.1374 17.5578 65.8574 17.5111 65.5574 17.5845L38.8674 24.0545C38.5607 24.1278 38.3107 24.2845 38.1174 24.5245L19.5274 47.2445C19.634 56.0911 20.0141 64.6411 20.6674 72.8945C20.8974 75.7645 22.1574 76.5645 24.4374 77.9445L41.1974 90.2445C41.395 90.3917 41.6226 90.494 41.8644 90.5441C42.1062 90.5942 42.3564 90.5909 42.5974 90.5345L47.0174 89.4645C48.9908 94.7245 51.8174 99.5478 55.4974 103.934L38.1174 107.274C32.6507 103.428 26.6807 100.008 20.2074 97.0145C19.414 96.3278 18.4841 95.5078 17.4174 94.5545C16.5041 93.7345 15.6774 92.8178 14.9374 91.8045C10.3441 85.5511 5.87739 79.3578 1.53739 73.2245C1.31237 72.9047 1.15318 72.5429 1.06907 72.1601C0.984953 71.7773 0.977592 71.3811 1.0474 70.9945L5.40739 46.8345C5.63293 45.5677 6.04046 44.3385 6.61741 43.1845L18.0974 20.0845C18.4039 19.4716 18.8808 18.9668 19.4674 18.6345C27.0807 14.2811 34.6507 9.88446 42.1774 5.44446C44.4274 4.11446 46.5174 4.33446 49.0074 3.92446C54.5808 3.47113 60.1574 2.95446 65.7374 2.37446C69.8241 1.94779 73.9674 2.80446 78.1674 4.94446Z" fill="#FDD515"/>
<path id="Vector_50" d="M98.9277 15.9244C104.234 19.9778 107.904 24.6244 109.938 29.8644L118.058 46.8344C112.718 42.2544 107.828 37.3444 105.008 30.7544C102.974 26.0011 100.948 21.0578 98.9277 15.9244Z" fill="#FDAF10"/>
<path id="Vector_51" d="M70.8874 20.5045L42.1573 27.5645C41.4901 27.7262 40.8948 28.1102 40.4673 28.6545L24.4274 49.1345L19.5273 47.2445L38.1174 24.5245C38.3107 24.2845 38.5607 24.1278 38.8674 24.0545L65.5574 17.5845C65.8574 17.5112 66.1373 17.5578 66.3973 17.7245L70.8874 20.5045Z" fill="#E06D00"/>
<path id="Vector_52" d="M70.8878 20.5045L88.0277 31.3245C88.301 31.4912 88.4444 31.7345 88.4577 32.0545L89.9277 59.7245C89.9345 59.9628 89.856 60.1909 89.7077 60.3645L77.1378 75.0445L70.9478 82.5245C70.7278 82.7845 70.4544 82.9612 70.1277 83.0545L47.0178 89.4645L42.5977 90.5345C42.3567 90.591 42.1066 90.5942 41.8647 90.5442C41.6229 90.4941 41.3953 90.3918 41.1978 90.2445L24.4377 77.9445L24.4277 49.1345L40.4677 28.6545C40.8952 28.1102 41.4905 27.7262 42.1577 27.5645L70.8878 20.5045ZM54.9677 34.5445C44.5077 34.4245 42.5077 44.4245 42.2377 52.8045C42.2244 53.1578 42.3644 53.4312 42.6577 53.6245L43.7578 54.3445L43.1978 54.3245C42.7044 54.3112 42.6044 54.5045 42.8977 54.9045C44.991 57.7045 48.2244 59.9045 52.5977 61.5045L39.2578 59.4545C38.9444 59.4012 38.681 59.4912 38.4677 59.7245C35.521 62.8245 34.3977 66.0378 35.0977 69.3645C37.1777 72.8312 39.2277 74.4345 41.2477 74.1745L43.0977 76.5945C44.3277 81.3045 49.0078 80.9945 52.8278 80.4345C53.1744 80.3812 53.4411 80.2078 53.6277 79.9145L55.6577 76.7545C55.8644 76.4412 56.1511 76.2479 56.5178 76.1745L62.6677 74.9445C62.9477 74.8845 63.171 74.7378 63.3377 74.5045C66.0577 70.6445 69.3377 66.8045 69.4077 61.6545C69.4477 58.5645 69.5577 56.7845 67.2377 54.9245C67.1911 53.5712 65.9278 51.9845 63.4478 50.1645C66.3678 50.3745 69.7477 53.0445 71.7277 49.3345C73.6744 45.6678 73.3844 42.5879 70.8577 40.0945C70.9711 39.2879 70.9444 38.5745 70.7777 37.9545C70.743 37.8253 70.6688 37.7099 70.565 37.624C70.4612 37.5381 70.333 37.4859 70.1978 37.4745L66.0277 37.1045C65.925 37.0955 65.8258 37.063 65.7377 37.0094C65.6497 36.9558 65.5752 36.8826 65.5201 36.7955C65.4649 36.7085 65.4306 36.6098 65.4198 36.5073C65.409 36.4048 65.4219 36.3012 65.4577 36.2045L66.6677 32.9545C67.1277 31.7212 66.7077 31.0045 65.4077 30.8045L58.5977 29.7645C58.3141 29.721 58.0239 29.7669 57.7676 29.8959C57.5113 30.025 57.3016 30.2307 57.1677 30.4845L54.9677 34.5445Z" fill="#FE930E"/>
<path id="Vector_53" d="M70.8568 40.0945C70.1868 49.8145 66.1368 47.7245 59.1568 44.6645C60.3101 41.3512 58.9135 37.9779 54.9668 34.5445L57.1668 30.4845C57.3007 30.2307 57.5104 30.025 57.7667 29.896C58.023 29.7669 58.3132 29.721 58.5968 29.7645L65.4068 30.8045C66.7068 31.0045 67.1268 31.7212 66.6668 32.9545L65.4568 36.2045C65.421 36.3012 65.4081 36.4048 65.4189 36.5073C65.4297 36.6098 65.464 36.7085 65.5192 36.7956C65.5743 36.8826 65.6488 36.9558 65.7368 37.0094C65.8249 37.063 65.9241 37.0955 66.0268 37.1045L70.1968 37.4745C70.332 37.4859 70.4603 37.5381 70.5641 37.624C70.6679 37.7099 70.7421 37.8253 70.7768 37.9545C70.9435 38.5745 70.9701 39.2879 70.8568 40.0945Z" fill="#FDD515"/>
<path id="Vector_54" d="M54.9671 34.5445C58.9137 37.9779 60.3104 41.3512 59.1571 44.6645L56.5471 44.0945C56.2071 44.0212 55.9238 44.1145 55.6971 44.3745C54.3971 45.8445 55.1571 47.1945 56.9071 47.6645C59.3871 48.3245 61.5671 49.1579 63.4471 50.1645C65.9271 51.9845 67.1904 53.5712 67.2371 54.9245C67.2471 57.6645 67.6471 60.0945 66.3471 62.5845C64.8004 65.5779 62.9704 68.4345 60.8571 71.1545C60.703 71.3532 60.4764 71.4826 60.2271 71.5145L54.1671 72.3345C53.8004 72.3879 53.5271 72.5779 53.3471 72.9045C51.8971 75.6045 52.1671 76.8745 48.4871 76.8545C46.8137 76.8479 45.0171 76.7612 43.0971 76.5945L41.2471 74.1745C41.1671 73.1679 41.5171 72.3645 42.2971 71.7645C42.377 71.701 42.4372 71.6161 42.4708 71.5198C42.5045 71.4234 42.51 71.3195 42.487 71.2201C42.464 71.1206 42.4133 71.0298 42.3407 70.958C42.2682 70.8862 42.1768 70.8365 42.0771 70.8145L35.0971 69.3645C34.3971 66.0379 35.5204 62.8245 38.4671 59.7245C38.6804 59.4912 38.9438 59.4012 39.2571 59.4545L52.5971 61.5045C52.8904 62.1645 53.4371 62.1545 54.2371 61.4745C54.4904 61.2612 54.5637 60.9979 54.457 60.6845C54.0304 59.4579 53.2904 58.6712 52.2371 58.3245C48.6771 57.1512 45.8504 55.8245 43.7571 54.3445L42.6571 53.6245C42.3637 53.4312 42.2237 53.1579 42.2371 52.8045C42.5071 44.4245 44.5071 34.4245 54.9671 34.5445Z" fill="#FDC817"/>
<path id="Vector_55" d="M70.8568 40.0945C73.3835 42.5878 73.6735 45.6678 71.7268 49.3345C69.7468 53.0445 66.3669 50.3745 63.4469 50.1645C61.5669 49.1578 59.3868 48.3245 56.9068 47.6645C55.1568 47.1945 54.3969 45.8445 55.6969 44.3745C55.9235 44.1145 56.2068 44.0211 56.5468 44.0945L59.1568 44.6645C66.1368 47.7245 70.1868 49.8145 70.8568 40.0945Z" fill="#E06D00"/>
<path id="Vector_56" d="M19.5273 47.2445L24.4274 49.1345L24.4374 77.9445C22.1574 76.5645 20.8974 75.7645 20.6674 72.8945C20.014 64.6412 19.634 56.0912 19.5273 47.2445Z" fill="#FDAF10"/>
<path id="Vector_57" d="M43.7575 54.3445C45.8508 55.8245 48.6775 57.1512 52.2375 58.3245C53.2908 58.6712 54.0308 59.4578 54.4574 60.6845C54.5641 60.9978 54.4908 61.2612 54.2375 61.4745C53.4375 62.1545 52.8908 62.1645 52.5975 61.5045C48.2241 59.9045 44.9908 57.7045 42.8975 54.9045C42.6041 54.5045 42.7042 54.3112 43.1975 54.3245L43.7575 54.3445Z" fill="#E06D00"/>
<path id="Vector_58" d="M67.2377 54.9246C69.5577 56.7846 69.4477 58.5646 69.4077 61.6546C69.3377 66.8046 66.0576 70.6445 63.3376 74.5045C63.171 74.7379 62.9477 74.8846 62.6677 74.9445L56.5177 76.1746C56.151 76.2479 55.8643 76.4412 55.6577 76.7545L53.6277 79.9146C53.441 80.2079 53.1744 80.3812 52.8277 80.4346C49.0077 80.9946 44.3277 81.3046 43.0977 76.5946C45.0177 76.7612 46.8143 76.8479 48.4877 76.8546C52.1677 76.8746 51.8977 75.6046 53.3477 72.9046C53.5277 72.5779 53.801 72.3879 54.1677 72.3345L60.2277 71.5146C60.477 71.4826 60.7036 71.3532 60.8577 71.1546C62.971 68.4346 64.801 65.5779 66.3477 62.5845C67.6477 60.0945 67.2477 57.6646 67.2377 54.9246Z" fill="#E06D00"/>
<path id="Vector_59" d="M115.527 74.0945L100.657 99.4045L90.207 87.9545L103.607 64.2745C103.696 64.1178 103.819 63.9838 103.969 63.8831C104.118 63.7825 104.289 63.718 104.467 63.6947C104.646 63.6714 104.827 63.69 104.997 63.749C105.167 63.808 105.321 63.9057 105.447 64.0345L113.247 72.1145C113.326 72.1931 113.384 72.2891 113.417 72.3945C113.757 73.5212 114.46 74.0879 115.527 74.0945Z" fill="#FDC817"/>
<path id="Vector_60" d="M35.0977 69.3645L42.0777 70.8145C42.1774 70.8365 42.2688 70.8862 42.3413 70.958C42.4139 71.0298 42.4646 71.1206 42.4876 71.22C42.5106 71.3195 42.5051 71.4234 42.4714 71.5198C42.4378 71.6161 42.3775 71.701 42.2977 71.7645C41.5177 72.3645 41.1677 73.1678 41.2477 74.1745C39.2277 74.4345 37.1777 72.8312 35.0977 69.3645Z" fill="#E06D00"/>
<path id="Vector_61" d="M77.1376 75.0444C79.3376 79.8644 81.8542 83.8978 84.6876 87.1444C84.8149 87.2911 84.9078 87.4644 84.9592 87.6515C85.0107 87.8386 85.0195 88.0347 84.9849 88.2251C84.9503 88.4154 84.8731 88.5952 84.7593 88.7509C84.6455 88.9066 84.498 89.0343 84.3276 89.1244C77.5476 92.7744 71.2976 97.0344 64.3876 100.034C64.1209 100.148 63.9875 100.348 63.9875 100.634V101.584C63.9875 101.851 64.1176 101.951 64.3776 101.884C64.6709 101.804 64.9676 101.828 65.2676 101.954C65.2476 102.008 65.2275 102.061 65.2075 102.114L55.4976 103.934C51.8176 99.5478 48.9909 94.7244 47.0176 89.4644L70.1276 83.0544C70.4542 82.9611 70.7276 82.7844 70.9476 82.5244L77.1376 75.0444Z" fill="#FDC817"/>
<path id="Vector_62" d="M90.207 87.9545L100.657 99.4045L75.5671 113.774L65.207 102.114C65.227 102.061 65.2471 102.008 65.2671 101.954L90.207 87.9545Z" fill="#FDAF10"/>
<path id="Vector_63" d="M20.207 97.0145C26.6804 100.008 32.6504 103.428 38.1171 107.275C40.9771 110.228 43.9504 113.075 47.037 115.815C47.2637 116.015 47.1471 116.421 46.6871 117.035L36.3771 110.695C29.9904 107.448 24.6004 102.888 20.207 97.0145Z" fill="#E06D00"/>
<path id="Vector_64" d="M65.2072 102.115L75.5672 113.775L49.2472 118.475C48.9139 118.535 48.6105 118.465 48.3372 118.265L46.6872 117.035C47.1472 116.421 47.2638 116.015 47.0372 115.815C43.9505 113.075 40.9772 110.228 38.1172 107.275L55.4972 103.935L65.2072 102.115Z" fill="#FE930E"/>
</g>
</svg>
