<svg width="81" height="83" viewBox="0 0 81 83" fill="none" xmlns="http://www.w3.org/2000/svg">
<g id="vector">
<path id="Vector" d="M1.08794 38.5903C0.919389 39.5036 0.993135 40.2909 1.30916 40.9522C3.98484 46.5787 7.31889 53.1516 11.3113 60.6711C12.7176 63.3111 14.6454 65.4577 17.1473 66.6387C27.8114 71.6563 38.4825 76.6564 49.1606 81.6391C50.1508 82.1009 51.1252 82.0275 52.147 81.9173" stroke="#616893" stroke-width="2"/>
<path id="Vector_2" d="M52.1475 81.9172C53.4326 81.5218 54.2789 81.053 54.6862 80.5106C62.5025 70.024 70.3312 59.5443 78.1721 49.0717C80.5476 45.8963 80.4949 43.6394 78.6672 39.9969C74.2464 31.1723 71.0335 24.8811 69.0285 21.1231C68.6984 20.5073 68.0382 19.72 67.048 18.7612" stroke="#787EA7" stroke-width="2"/>
<path id="Vector_3" d="M67.0476 18.7613C66.0328 17.7081 64.4088 16.6583 62.1755 15.6121C52.6175 11.1369 43.063 6.65458 33.5121 2.16531C30.4045 0.706204 27.9237 0.207588 25.7484 3.13104C17.9391 13.6282 10.1017 24.1026 2.23615 34.5542C1.25647 35.8558 0.873721 37.2012 1.08792 38.5904" stroke="#8B8FB2" stroke-width="2"/>
<path id="Vector_4" d="M67.0477 18.7612L38.9531 56.3567" stroke="#ECEEF4" stroke-width="2"/>
<path id="Vector_5" d="M38.9529 56.3567L1.08789 38.5903" stroke="#D5D8E0" stroke-width="2"/>
<path id="Vector_6" d="M52.1472 81.9172C51.9154 81.7913 51.7697 81.5306 51.71 81.1352C51.6819 80.9707 51.6292 80.815 51.552 80.6681L38.9531 56.3567" stroke="#C2C7D5" stroke-width="2"/>
<path id="Vector_7" d="M39.2947 25.2462C38.7001 24.0577 37.5339 23.2141 36.0526 22.9007C34.5714 22.5874 32.8964 22.8301 31.3962 23.5754C30.6534 23.9445 29.9759 24.4258 29.4023 24.992C28.8287 25.5581 28.3703 26.198 28.0532 26.8751C27.7361 27.5521 27.5667 28.2531 27.5544 28.938C27.5422 29.6229 27.6874 30.2783 27.9819 30.8668C28.5765 32.0552 29.7427 32.8989 31.2239 33.2122C32.7052 33.5256 34.3801 33.2829 35.8803 32.5376C36.6231 32.1685 37.3007 31.6872 37.8743 31.121C38.4479 30.5548 38.9063 29.915 39.2234 29.2379C39.5404 28.5608 39.7099 27.8599 39.7221 27.175C39.7344 26.4901 39.5891 25.8347 39.2947 25.2462Z" stroke="#8F9091" stroke-width="2"/>
<path id="Vector_8" d="M62.6792 49.2365C63.4426 49.5912 64.4541 49.3345 65.491 48.5229C66.528 47.7113 67.5056 46.4112 68.2088 44.9087C68.9119 43.4061 69.2829 41.8242 69.2403 40.5109C69.1977 39.1976 68.7448 38.2605 67.9814 37.9058C67.218 37.551 66.2066 37.8077 65.1696 38.6193C64.1326 39.431 63.155 40.731 62.4518 42.2336C61.7487 43.7361 61.3777 45.318 61.4203 46.6313C61.4629 47.9446 61.9158 48.8817 62.6792 49.2365Z" stroke="#7C7F85" stroke-width="2"/>
<path id="Vector_9" d="M52.0477 63.4678C52.806 63.8202 53.814 63.5582 54.8499 62.7396C55.8859 61.921 56.8648 60.6127 57.5715 59.1026C57.9214 58.3548 58.1939 57.58 58.3735 56.8225C58.5531 56.0649 58.6362 55.3393 58.6181 54.6872C58.6 54.0351 58.481 53.4692 58.268 53.0219C58.055 52.5745 57.7521 52.2545 57.3766 52.08C56.6182 51.7276 55.6102 51.9895 54.5743 52.8082C53.5383 53.6268 52.5594 54.9351 51.8527 56.4452C51.5028 57.193 51.2303 57.9677 51.0507 58.7253C50.8712 59.4829 50.788 60.2085 50.8061 60.8606C50.8242 61.5127 50.9432 62.0786 51.1562 62.5259C51.3692 62.9733 51.6721 63.2933 52.0477 63.4678Z" stroke="#7C7F85" stroke-width="2"/>
<path id="Vector_10" d="M38.7701 25.5203C38.244 24.4689 37.2017 23.7278 35.8723 23.46C34.543 23.1922 33.0356 23.4196 31.6817 24.0922C30.3278 24.7649 29.2383 25.8277 28.6529 27.0468C28.0676 28.2659 28.0342 29.5414 28.5603 30.5929C29.0863 31.6443 30.1287 32.3854 31.458 32.6532C32.7874 32.921 34.2948 32.6936 35.6487 32.0209C37.0026 31.3483 38.0921 30.2855 38.6774 29.0664C39.2628 27.8473 39.2962 26.5717 38.7701 25.5203Z" stroke="#262729" stroke-width="2"/>
<path id="Vector_11" d="M63.0977 48.6225C63.4093 48.7588 63.776 48.7618 64.1769 48.6312C64.5777 48.5007 65.0049 48.2392 65.4341 47.8616C65.8632 47.484 66.2858 46.9979 66.6779 46.4308C67.0699 45.8637 67.4236 45.2269 67.7189 44.5566C68.0141 43.8864 68.2452 43.1958 68.3987 42.5244C68.5522 41.853 68.6253 41.2139 68.6137 40.6436C68.6022 40.0733 68.5062 39.5829 68.3313 39.2005C68.1564 38.8181 67.906 38.5511 67.5944 38.4148C67.2828 38.2785 66.9161 38.2755 66.5152 38.4061C66.1143 38.5366 65.6871 38.7981 65.258 39.1757C64.8289 39.5533 64.4062 40.0395 64.0142 40.6065C63.6222 41.1736 63.2684 41.8104 62.9731 42.4807C62.6779 43.151 62.4469 43.8415 62.2934 44.5129C62.1398 45.1843 62.0668 45.8234 62.0783 46.3937C62.0899 46.964 62.1859 47.4544 62.3608 47.8368C62.5357 48.2192 62.7861 48.4862 63.0977 48.6225Z" stroke="#262729" stroke-width="2"/>
<path id="Vector_12" d="M21.6861 56.3005C21.837 56.098 21.8554 55.8005 21.7403 55.425C21.6252 55.0495 21.3788 54.6033 21.0151 54.112C20.6514 53.6206 20.1776 53.0938 19.6208 52.5614C19.0639 52.0291 18.4349 51.5017 17.7697 51.0094C17.1044 50.5171 16.416 50.0694 15.7436 49.6921C15.0712 49.3148 14.4281 49.0151 13.851 48.8102C13.2739 48.6053 12.774 48.4991 12.38 48.4978C11.986 48.4965 11.7055 48.6001 11.5545 48.8026C11.4036 49.0051 11.3852 49.3027 11.5003 49.6782C11.6154 50.0537 11.8619 50.4998 12.2255 50.9912C12.5892 51.4825 13.063 52.0094 13.6198 52.5417C14.1767 53.074 14.8057 53.6014 15.4709 54.0937C16.1362 54.5861 16.8246 55.0337 17.497 55.411C18.1694 55.7884 18.8125 56.088 19.3896 56.293C19.9667 56.4979 20.4666 56.604 20.8606 56.6053C21.2547 56.6066 21.5351 56.503 21.6861 56.3005Z" stroke="#656972" stroke-width="2"/>
<path id="Vector_13" d="M36.2619 63.1464C36.5693 62.7324 36.332 61.9429 35.6021 60.9517C34.8722 59.9605 33.7096 58.8487 32.3699 57.8609C31.0303 56.8731 29.6234 56.0902 28.4587 55.6845C27.2941 55.2788 26.4671 55.2834 26.1596 55.6975C25.8522 56.1115 26.0895 56.901 26.8194 57.8922C27.5493 58.8834 28.7119 59.9952 30.0516 60.983C31.3912 61.9708 32.7981 62.7537 33.9628 63.1594C35.1275 63.5651 35.9545 63.5605 36.2619 63.1464Z" stroke="#656972" stroke-width="2"/>
<path id="Vector_14" d="M26.2712 65.3583C26.5761 64.9476 26.3391 64.1633 25.6122 63.178C24.8853 62.1926 23.7282 61.0869 22.3952 60.1041C21.7353 59.6174 21.052 59.1756 20.3844 58.8038C19.7169 58.432 19.0782 58.1375 18.5047 57.9372C17.9313 57.7369 17.4343 57.6346 17.0423 57.6362C16.6502 57.6379 16.3707 57.7434 16.2197 57.9468C15.9148 58.3574 16.1518 59.1417 16.8787 60.127C17.6056 61.1124 18.7627 62.2181 20.0956 63.2009C20.7556 63.6876 21.4389 64.1294 22.1065 64.5012C22.774 64.873 23.4127 65.1675 23.9862 65.3678C24.5596 65.5681 25.0566 65.6704 25.4487 65.6688C25.8407 65.6671 26.1202 65.5616 26.2712 65.3583Z" stroke="#656972" stroke-width="2"/>
<path id="Vector_15" d="M40.8695 72.2479C41.0205 72.0454 41.0401 71.7488 40.9273 71.375C40.8145 71.0012 40.5715 70.5576 40.2122 70.0695C39.8528 69.5813 39.3842 69.0583 38.833 68.5301C38.2818 68.0019 37.6588 67.479 36.9997 66.9912C35.6685 66.0061 34.2708 65.2238 33.1139 64.8164C31.9571 64.409 31.1359 64.4099 30.8311 64.8189C30.6802 65.0214 30.6605 65.318 30.7733 65.6918C30.8861 66.0656 31.1291 66.5092 31.4884 66.9973C31.8478 67.4855 32.3164 68.0085 32.8676 68.5367C33.4188 69.0649 34.0418 69.5878 34.7009 70.0756C36.0321 71.0607 37.4299 71.843 38.5867 72.2504C39.7435 72.6578 40.5647 72.6569 40.8695 72.2479Z" stroke="#656972" stroke-width="2"/>
<path id="Vector_16" d="M21.0021 55.7823C21.1147 55.6278 21.112 55.3921 20.9939 55.0886C20.8759 54.7852 20.645 54.4199 20.3143 54.0136C19.9836 53.6073 19.5596 53.168 19.0666 52.7207C18.5736 52.2735 18.0212 51.827 17.4409 51.4069C16.8606 50.9868 16.2638 50.6012 15.6846 50.2722C15.1054 49.9431 14.5551 49.6771 14.0651 49.4892C13.5751 49.3014 13.1551 49.1954 12.829 49.1773C12.5029 49.1593 12.2771 49.2295 12.1645 49.3839C12.0519 49.5384 12.0546 49.7741 12.1727 50.0776C12.2907 50.3811 12.5216 50.7464 12.8523 51.1526C13.183 51.5589 13.607 51.9983 14.1 52.4455C14.593 52.8928 15.1454 53.3392 15.7257 53.7593C16.306 54.1794 16.9028 54.565 17.482 54.8941C18.0612 55.2231 18.6116 55.4891 19.1015 55.677C19.5915 55.8648 20.0115 55.9708 20.3376 55.9889C20.6637 56.0069 20.8895 55.9367 21.0021 55.7823Z" stroke="#262729" stroke-width="2"/>
<path id="Vector_17" d="M52.3679 62.7997C52.9783 63.0795 53.8107 62.8128 54.6819 62.0582C55.5532 61.3037 56.3919 60.1232 57.0135 58.7763C57.6352 57.4295 57.9889 56.0266 57.9968 54.8764C58.0048 53.7262 57.6663 52.9229 57.0559 52.6431C56.4454 52.3633 55.613 52.63 54.7418 53.3846C53.8706 54.1391 53.0319 55.3196 52.4102 56.6665C51.7885 58.0133 51.4348 59.4161 51.4269 60.5663C51.419 61.7165 51.7574 62.5199 52.3679 62.7997Z" stroke="#262729" stroke-width="2"/>
<path id="Vector_18" d="M35.6519 62.6324C35.7659 62.4772 35.7651 62.2406 35.6495 61.9362C35.534 61.6317 35.3059 61.2654 34.9784 60.858C34.6509 60.4506 34.2303 60.0102 33.7408 59.562C33.2512 59.1137 32.7021 58.6664 32.125 58.2455C30.9594 57.3954 29.7501 56.7046 28.7632 56.3251C27.7762 55.9456 27.0924 55.9085 26.8622 56.2219C26.7482 56.377 26.7491 56.6136 26.8646 56.9181C26.9802 57.2225 27.2082 57.5889 27.5357 57.9962C27.8633 58.4036 28.2838 58.844 28.7734 59.2922C29.263 59.7405 29.812 60.1879 30.3892 60.6088C31.5547 61.4589 32.764 62.1496 33.751 62.5291C34.7379 62.9086 35.4217 62.9458 35.6519 62.6324Z" stroke="#262729" stroke-width="2"/>
<path id="Vector_19" d="M25.6336 64.8167C25.861 64.5048 25.6118 63.8672 24.9407 63.0444C24.2697 62.2215 23.2318 61.2807 22.0553 60.429C21.4728 60.0073 20.8737 59.6201 20.2924 59.2895C19.7111 58.959 19.159 58.6916 18.6674 58.5026C18.1759 58.3136 17.7546 58.2067 17.4276 58.188C17.1007 58.1693 16.8744 58.2392 16.7618 58.3937C16.5344 58.7057 16.7836 59.3432 17.4547 60.166C18.1257 60.9889 19.1637 61.9297 20.3401 62.7814C20.9227 63.2032 21.5217 63.5904 22.103 63.9209C22.6843 64.2514 23.2365 64.5188 23.728 64.7078C24.2195 64.8968 24.6408 65.0037 24.9678 65.0224C25.2948 65.0411 25.521 64.9712 25.6336 64.8167Z" stroke="#262729" stroke-width="2"/>
<path id="Vector_20" d="M40.2313 71.763C40.3442 71.6105 40.3412 71.375 40.2224 71.0702C40.1036 70.7654 39.8714 70.3971 39.5391 69.9864C39.2067 69.5757 38.7807 69.1307 38.2854 68.6766C37.79 68.2226 37.2351 67.7685 36.6522 67.3403C35.475 66.4754 34.2554 65.7684 33.2618 65.3747C32.2682 64.981 31.5819 64.9329 31.354 65.241C31.2411 65.3936 31.2441 65.629 31.3629 65.9338C31.4817 66.2387 31.7138 66.6069 32.0462 67.0176C32.3785 67.4283 32.8046 67.8734 33.2999 68.3274C33.7952 68.7814 34.3502 69.2355 34.9331 69.6638C36.1103 70.5287 37.3299 71.2357 38.3235 71.6294C39.3171 72.0231 40.0033 72.0711 40.2313 71.763Z" stroke="#262729" stroke-width="2"/>
<path id="Vector_21" d="M67.0476 18.7613L38.953 56.3568L1.08792 38.5904C0.873721 37.2012 1.25647 35.8559 2.23615 34.5542C10.1017 24.1026 17.9391 13.6282 25.7484 3.13104C27.9237 0.207588 30.4045 0.706204 33.5121 2.16531C43.063 6.65458 52.6175 11.1369 62.1755 15.6121C64.4088 16.6583 66.0328 17.7081 67.0476 18.7613ZM39.2949 25.2462C38.7003 24.0577 37.534 23.2141 36.0528 22.9007C34.5716 22.5874 32.8966 22.8301 31.3964 23.5754C30.6536 23.9445 29.9761 24.4258 29.4025 24.992C28.8289 25.5581 28.3705 26.198 28.0534 26.8751C27.7363 27.5521 27.5669 28.2531 27.5546 28.938C27.5424 29.6229 27.6876 30.2783 27.9821 30.8668C28.5767 32.0552 29.7429 32.8989 31.2241 33.2122C32.7054 33.5256 34.3803 33.2829 35.8805 32.5376C36.6233 32.1685 37.3009 31.6872 37.8745 31.121C38.4481 30.5548 38.9065 29.915 39.2235 29.2379C39.5406 28.5608 39.7101 27.8598 39.7223 27.1749C39.7346 26.49 39.5893 25.8346 39.2949 25.2462Z" fill="white"/>
<path id="Vector_22" d="M67.0477 18.7612C68.0379 19.72 68.6981 20.5073 69.0282 21.1231C71.0332 24.8811 74.2461 31.1723 78.6669 39.9969C80.4946 43.6394 80.5473 45.8963 78.1718 49.0717C70.3309 59.5443 62.5022 70.024 54.6859 80.5106C54.2786 81.053 53.4323 81.5218 52.1472 81.9172C51.9154 81.7913 51.7697 81.5306 51.71 81.1352C51.6819 80.9707 51.6292 80.815 51.552 80.6681L38.9531 56.3567L67.0477 18.7612ZM62.6795 49.2366C63.4429 49.5913 64.4544 49.3346 65.4914 48.523C66.5284 47.7114 67.506 46.4113 68.2091 44.9087C68.9122 43.4062 69.2833 41.8243 69.2407 40.511C69.198 39.1977 68.7452 38.2606 67.9818 37.9058C67.2184 37.5511 66.2069 37.8078 65.1699 38.6194C64.1329 39.431 63.1553 40.7311 62.4522 42.2337C61.7491 43.7362 61.378 45.3181 61.4207 46.6314C61.4633 47.9447 61.9161 48.8818 62.6795 49.2366ZM52.0478 63.4677C52.8061 63.8201 53.8141 63.5582 54.8501 62.7395C55.886 61.9209 56.865 60.6126 57.5716 59.1025C57.9215 58.3548 58.194 57.58 58.3736 56.8224C58.5532 56.0648 58.6363 55.3392 58.6182 54.6871C58.6001 54.035 58.4811 53.4691 58.2681 53.0218C58.0551 52.5744 57.7522 52.2544 57.3767 52.0799C56.6183 51.7275 55.6103 51.9895 54.5744 52.8081C53.5385 53.6268 52.5595 54.935 51.8528 56.4451C51.5029 57.1929 51.2304 57.9677 51.0508 58.7253C50.8713 59.4829 50.7882 60.2084 50.8063 60.8605C50.8244 61.5126 50.9433 62.0785 51.1563 62.5259C51.3693 62.9732 51.6723 63.2933 52.0478 63.4677Z" fill="#D8DDE8"/>
<path id="Vector_23" d="M39.2947 25.2462C39.5891 25.8347 39.7344 26.4901 39.7221 27.175C39.7099 27.8599 39.5404 28.5608 39.2234 29.2379C38.9063 29.915 38.4479 30.5548 37.8743 31.121C37.3007 31.6872 36.6231 32.1685 35.8803 32.5376C34.3801 33.2829 32.7052 33.5256 31.2239 33.2122C29.7427 32.8989 28.5765 32.0552 27.9819 30.8668C27.6874 30.2783 27.5422 29.6229 27.5544 28.938C27.5667 28.2531 27.7361 27.5521 28.0532 26.8751C28.3703 26.198 28.8287 25.5581 29.4023 24.992C29.9759 24.4258 30.6534 23.9445 31.3962 23.5754C32.8964 22.8301 34.5714 22.5874 36.0526 22.9007C37.5339 23.2141 38.7001 24.0577 39.2947 25.2462ZM38.7695 25.5202C38.2435 24.4688 37.2011 23.7277 35.8718 23.4599C34.5424 23.1921 33.035 23.4195 31.6811 24.0921C30.3272 24.7648 29.2377 25.8276 28.6523 27.0467C28.067 28.2658 28.0336 29.5413 28.5597 30.5928C29.0858 31.6442 30.1281 32.3853 31.4575 32.6531C32.7868 32.9209 34.2942 32.6935 35.6481 32.0208C37.002 31.3482 38.0915 30.2854 38.6769 29.0663C39.2622 27.8472 39.2956 26.5716 38.7695 25.5202Z" fill="#1F2022"/>
<path id="Vector_24" d="M38.7701 25.5203C39.2962 26.5717 39.2628 27.8473 38.6774 29.0664C38.0921 30.2855 37.0026 31.3483 35.6487 32.0209C34.2948 32.6936 32.7874 32.921 31.458 32.6532C30.1287 32.3854 29.0863 31.6443 28.5603 30.5929C28.0342 29.5414 28.0676 28.2659 28.6529 27.0468C29.2383 25.8277 30.3278 24.7649 31.6817 24.0922C33.0356 23.4196 34.543 23.1922 35.8723 23.46C37.2017 23.7278 38.244 24.4689 38.7701 25.5203Z" fill="#2C2D2F"/>
<path id="Vector_25" d="M62.6792 49.2367C61.9158 48.882 61.4629 47.9449 61.4203 46.6316C61.3777 45.3183 61.7487 43.7364 62.4518 42.2338C63.155 40.7313 64.1326 39.4312 65.1696 38.6196C66.2066 37.808 67.218 37.5513 67.9814 37.906C68.7448 38.2608 69.1977 39.1979 69.2403 40.5112C69.2829 41.8244 68.9119 43.4064 68.2088 44.9089C67.5056 46.4115 66.528 47.7115 65.491 48.5232C64.4541 49.3348 63.4426 49.5915 62.6792 49.2367ZM63.0977 48.6228C63.4094 48.7591 63.7761 48.762 64.1769 48.6315C64.5778 48.5009 65.005 48.2394 65.4341 47.8618C65.8633 47.4843 66.2859 46.9981 66.6779 46.431C67.07 45.8639 67.4237 45.2271 67.719 44.5568C68.0142 43.8866 68.2452 43.1961 68.3988 42.5247C68.5523 41.8533 68.6254 41.2142 68.6138 40.6438C68.6022 40.0735 68.5063 39.5831 68.3314 39.2007C68.1565 38.8183 67.9061 38.5513 67.5945 38.415C67.2829 38.2787 66.9161 38.2757 66.5153 38.4063C66.1144 38.5369 65.6872 38.7984 65.2581 39.1759C64.8289 39.5535 64.4063 40.0397 64.0143 40.6068C63.6222 41.1738 63.2685 41.8107 62.9732 42.4809C62.678 43.1512 62.447 43.8417 62.2934 44.5131C62.1399 45.1845 62.0668 45.8236 62.0784 46.3939C62.09 46.9642 62.1859 47.4546 62.3608 47.837C62.5357 48.2195 62.7861 48.4865 63.0977 48.6228Z" fill="#1F2022"/>
<path id="Vector_26" d="M63.0977 48.6228C62.7861 48.4865 62.5357 48.2195 62.3608 47.8371C62.1859 47.4546 62.0899 46.9643 62.0783 46.3939C62.0668 45.8236 62.1398 45.1845 62.2934 44.5131C62.4469 43.8417 62.6779 43.1512 62.9731 42.4809C63.2684 41.8107 63.6222 41.1738 64.0142 40.6068C64.4062 40.0397 64.8289 39.5535 65.258 39.1759C65.6871 38.7984 66.1143 38.5369 66.5152 38.4063C66.9161 38.2758 67.2828 38.2787 67.5944 38.415C67.906 38.5513 68.1564 38.8183 68.3313 39.2007C68.5062 39.5832 68.6022 40.0735 68.6137 40.6439C68.6253 41.2142 68.5522 41.8533 68.3987 42.5247C68.2452 43.1961 68.0141 43.8866 67.7189 44.5569C67.4236 45.2271 67.0699 45.864 66.6779 46.431C66.2858 46.9981 65.8632 47.4843 65.4341 47.8618C65.0049 48.2394 64.5777 48.5009 64.1769 48.6315C63.776 48.762 63.4093 48.7591 63.0977 48.6228Z" fill="#2C2D2F"/>
<path id="Vector_27" d="M1.08794 38.5903L38.953 56.3567L51.5518 80.6681C51.6291 80.8151 51.6818 80.9708 51.7098 81.1352C51.7695 81.5306 51.9153 81.7913 52.147 81.9173C51.1252 82.0275 50.1508 82.1009 49.1606 81.6391C38.4825 76.6564 27.8114 71.6563 17.1473 66.6387C14.6454 65.4577 12.7176 63.3111 11.3113 60.6711C7.31889 53.1516 3.98484 46.5787 1.30916 40.9522C0.993135 40.2909 0.919389 39.5036 1.08794 38.5903ZM21.6863 56.3005C21.8373 56.0979 21.8557 55.8004 21.7406 55.4249C21.6254 55.0494 21.379 54.6033 21.0153 54.1119C20.6517 53.6206 20.1779 53.0937 19.621 52.5614C19.0642 52.029 18.4352 51.5017 17.7699 51.0093C17.1047 50.517 16.4162 50.0694 15.7439 49.6921C15.0715 49.3147 14.4284 49.015 13.8512 48.8101C13.2741 48.6052 12.7743 48.4991 12.3802 48.4978C11.9862 48.4965 11.7057 48.6001 11.5548 48.8026C11.4039 49.0051 11.3854 49.3026 11.5005 49.6781C11.6157 50.0536 11.8621 50.4998 12.2258 50.9911C12.5894 51.4824 13.0632 52.0093 13.6201 52.5417C14.1769 53.074 14.8059 53.6014 15.4712 54.0937C16.1364 54.586 16.8249 55.0336 17.4972 55.411C18.1696 55.7883 18.8127 56.088 19.3899 56.2929C19.967 56.4978 20.4669 56.604 20.8609 56.6053C21.2549 56.6066 21.5354 56.503 21.6863 56.3005ZM36.2615 63.1464C36.5689 62.7324 36.3316 61.9429 35.6017 60.9516C34.8718 59.9604 33.7092 58.8486 32.3695 57.8608C31.0299 56.873 29.623 56.0902 28.4583 55.6844C27.2937 55.2787 26.4667 55.2834 26.1592 55.6974C25.8518 56.1114 26.0891 56.9009 26.819 57.8921C27.5489 58.8834 28.7115 59.9952 30.0512 60.983C31.3908 61.9708 32.7977 62.7536 33.9624 63.1594C35.1271 63.5651 35.9541 63.5604 36.2615 63.1464ZM26.2708 65.3583C26.5757 64.9476 26.3387 64.1633 25.6118 63.178C24.8849 62.1926 23.7278 61.0869 22.3949 60.1041C21.7349 59.6175 21.0516 59.1756 20.384 58.8038C19.7165 58.432 19.0778 58.1376 18.5043 57.9372C17.9309 57.7369 17.4339 57.6346 17.0419 57.6363C16.6498 57.6379 16.3703 57.7434 16.2193 57.9468C15.9144 58.3575 16.1514 59.1417 16.8783 60.1271C17.6052 61.1124 18.7623 62.2181 20.0952 63.201C20.7552 63.6876 21.4385 64.1295 22.1061 64.5013C22.7736 64.873 23.4123 65.1675 23.9858 65.3678C24.5592 65.5682 25.0562 65.6704 25.4483 65.6688C25.8403 65.6672 26.1198 65.5616 26.2708 65.3583ZM40.8699 72.2479C41.0208 72.0454 41.0405 71.7488 40.9277 71.375C40.8149 71.0012 40.5719 70.5576 40.2125 70.0695C39.8532 69.5814 39.3845 69.0583 38.8333 68.5301C38.2821 68.0019 37.6592 67.479 37.0001 66.9912C35.6689 66.0061 34.2711 65.2238 33.1143 64.8164C31.9575 64.409 31.1363 64.4099 30.8315 64.8189C30.6805 65.0214 30.6609 65.318 30.7737 65.6918C30.8864 66.0656 31.1294 66.5092 31.4888 66.9973C31.8481 67.4855 32.3168 68.0085 32.868 68.5367C33.4192 69.0649 34.0421 69.5878 34.7013 70.0756C36.0325 71.0607 37.4302 71.843 38.587 72.2504C39.7439 72.6578 40.565 72.6569 40.8699 72.2479Z" fill="#ABB1C1"/>
<path id="Vector_28" d="M21.6861 56.3005C21.5351 56.503 21.2547 56.6066 20.8606 56.6053C20.4666 56.604 19.9667 56.4979 19.3896 56.293C18.8125 56.088 18.1694 55.7884 17.497 55.411C16.8246 55.0337 16.1362 54.5861 15.4709 54.0937C14.8057 53.6014 14.1767 53.074 13.6198 52.5417C13.063 52.0094 12.5892 51.4825 12.2255 50.9912C11.8619 50.4998 11.6154 50.0537 11.5003 49.6782C11.3852 49.3027 11.4036 49.0051 11.5545 48.8026C11.7055 48.6001 11.986 48.4965 12.38 48.4978C12.774 48.4991 13.2739 48.6053 13.851 48.8102C14.4281 49.0151 15.0712 49.3148 15.7436 49.6921C16.416 50.0694 17.1044 50.5171 17.7697 51.0094C18.4349 51.5017 19.0639 52.0291 19.6208 52.5614C20.1776 53.0938 20.6514 53.6206 21.0151 54.112C21.3788 54.6033 21.6252 55.0495 21.7403 55.425C21.8554 55.8005 21.837 56.098 21.6861 56.3005ZM21.0023 55.7822C21.1149 55.6278 21.1121 55.3921 20.9941 55.0886C20.8761 54.7851 20.6451 54.4198 20.3144 54.0135C19.9837 53.6072 19.5598 53.1679 19.0668 52.7207C18.5737 52.2734 18.0213 51.827 17.441 51.4069C16.8607 50.9867 16.2639 50.6011 15.6847 50.2721C15.1055 49.9431 14.5552 49.677 14.0652 49.4892C13.5753 49.3013 13.1552 49.1954 12.8291 49.1773C12.503 49.1592 12.2772 49.2294 12.1646 49.3839C12.052 49.5384 12.0548 49.7741 12.1728 50.0775C12.2908 50.381 12.5218 50.7463 12.8525 51.1526C13.1831 51.5589 13.6071 51.9982 14.1001 52.4455C14.5931 52.8927 15.1456 53.3391 15.7259 53.7593C16.3061 54.1794 16.9029 54.565 17.4822 54.894C18.0614 55.223 18.6117 55.4891 19.1017 55.6769C19.5916 55.8648 20.0116 55.9708 20.3377 55.9888C20.6639 56.0069 20.8896 55.9367 21.0023 55.7822Z" fill="#1F2022"/>
<path id="Vector_29" d="M21.0021 55.7823C20.8895 55.9367 20.6637 56.0069 20.3376 55.9889C20.0115 55.9708 19.5915 55.8648 19.1015 55.677C18.6116 55.4891 18.0612 55.2231 17.482 54.8941C16.9028 54.565 16.306 54.1794 15.7257 53.7593C15.1454 53.3392 14.593 52.8928 14.1 52.4455C13.607 51.9983 13.183 51.5589 12.8523 51.1526C12.5216 50.7464 12.2907 50.3811 12.1727 50.0776C12.0546 49.7741 12.0519 49.5384 12.1645 49.3839C12.2771 49.2295 12.5029 49.1593 12.829 49.1773C13.1551 49.1954 13.5751 49.3014 14.0651 49.4892C14.5551 49.6771 15.1054 49.9431 15.6846 50.2722C16.2638 50.6012 16.8606 50.9868 17.4409 51.4069C18.0212 51.827 18.5736 52.2735 19.0666 52.7207C19.5596 53.168 19.9836 53.6073 20.3143 54.0136C20.645 54.4199 20.8759 54.7852 20.9939 55.0886C21.112 55.3921 21.1147 55.6278 21.0021 55.7823Z" fill="#2C2D2F"/>
<path id="Vector_30" d="M52.0477 63.4678C51.6721 63.2933 51.3692 62.9733 51.1562 62.5259C50.9432 62.0786 50.8242 61.5127 50.8061 60.8606C50.788 60.2085 50.8712 59.4829 51.0507 58.7253C51.2303 57.9677 51.5028 57.193 51.8527 56.4452C52.5594 54.9351 53.5383 53.6268 54.5743 52.8082C55.6102 51.9895 56.6182 51.7276 57.3766 52.08C57.7521 52.2545 58.055 52.5745 58.268 53.0219C58.481 53.4692 58.6 54.0351 58.6181 54.6872C58.6362 55.3393 58.5531 56.0649 58.3735 56.8225C58.1939 57.58 57.9214 58.3548 57.5715 59.1026C56.8648 60.6127 55.8859 61.921 54.8499 62.7396C53.814 63.5582 52.806 63.8202 52.0477 63.4678ZM52.3681 62.7997C52.9785 63.0795 53.8109 62.8128 54.6822 62.0582C55.5534 61.3037 56.3921 60.1232 57.0138 58.7763C57.6354 57.4295 57.9891 56.0267 57.9971 54.8765C58.005 53.7263 57.6666 52.9229 57.0561 52.6431C56.4457 52.3633 55.6133 52.63 54.742 53.3846C53.8708 54.1391 53.0321 55.3196 52.4104 56.6665C51.7888 58.0133 51.4351 59.4162 51.4271 60.5663C51.4192 61.7165 51.7577 62.5199 52.3681 62.7997Z" fill="#1F2022"/>
<path id="Vector_31" d="M52.3679 62.7997C51.7574 62.5199 51.419 61.7165 51.4269 60.5663C51.4348 59.4161 51.7885 58.0133 52.4102 56.6665C53.0319 55.3196 53.8706 54.1391 54.7418 53.3846C55.613 52.63 56.4454 52.3633 57.0559 52.6431C57.6663 52.9229 58.0048 53.7262 57.9968 54.8764C57.9889 56.0266 57.6352 57.4295 57.0135 58.7763C56.3919 60.1232 55.5532 61.3037 54.6819 62.0582C53.8107 62.8128 52.9783 63.0795 52.3679 62.7997Z" fill="#2C2D2F"/>
<path id="Vector_32" d="M36.2619 63.1464C35.9545 63.5605 35.1275 63.5651 33.9628 63.1594C32.7981 62.7537 31.3912 61.9708 30.0516 60.983C28.7119 59.9952 27.5493 58.8834 26.8194 57.8922C26.0895 56.901 25.8522 56.1115 26.1596 55.6975C26.4671 55.2834 27.2941 55.2788 28.4587 55.6845C29.6234 56.0902 31.0303 56.8731 32.3699 57.8609C33.7096 58.8487 34.8722 59.9605 35.6021 60.9517C36.332 61.9429 36.5693 62.7324 36.2619 63.1464ZM35.653 62.6325C35.767 62.4773 35.7662 62.2407 35.6506 61.9363C35.5351 61.6318 35.307 61.2654 34.9795 60.8581C34.652 60.4507 34.2314 60.0103 33.7419 59.5621C33.2523 59.1138 32.7032 58.6665 32.1261 58.2455C30.9605 57.3955 29.7512 56.7047 28.7643 56.3252C27.7773 55.9457 27.0935 55.9086 26.8633 56.222C26.7493 56.3771 26.7502 56.6137 26.8657 56.9182C26.9813 57.2226 27.2093 57.589 27.5368 57.9963C27.8644 58.4037 28.2849 58.8441 28.7745 59.2923C29.2641 59.7406 29.8131 60.188 30.3903 60.6089C31.5558 61.459 32.7651 62.1497 33.7521 62.5292C34.739 62.9087 35.4228 62.9458 35.653 62.6325Z" fill="#1F2022"/>
<path id="Vector_33" d="M35.6519 62.6324C35.4217 62.9458 34.7379 62.9086 33.751 62.5291C32.764 62.1496 31.5547 61.4589 30.3892 60.6088C29.812 60.1879 29.263 59.7405 28.7734 59.2922C28.2838 58.844 27.8633 58.4036 27.5357 57.9962C27.2082 57.5889 26.9802 57.2225 26.8646 56.9181C26.7491 56.6136 26.7482 56.377 26.8622 56.2219C27.0924 55.9085 27.7762 55.9456 28.7632 56.3251C29.7501 56.7046 30.9594 57.3954 32.125 58.2455C32.7021 58.6664 33.2512 59.1137 33.7408 59.562C34.2303 60.0102 34.6509 60.4506 34.9784 60.858C35.3059 61.2654 35.534 61.6317 35.6495 61.9362C35.7651 62.2406 35.7659 62.4772 35.6519 62.6324Z" fill="#2C2D2F"/>
<path id="Vector_34" d="M26.2712 65.3583C26.1202 65.5616 25.8407 65.6671 25.4487 65.6688C25.0566 65.6704 24.5596 65.5681 23.9862 65.3678C23.4127 65.1675 22.774 64.873 22.1065 64.5012C21.4389 64.1294 20.7556 63.6876 20.0956 63.2009C18.7627 62.2181 17.6056 61.1124 16.8787 60.127C16.1518 59.1417 15.9148 58.3574 16.2197 57.9468C16.3707 57.7434 16.6502 57.6379 17.0423 57.6362C17.4343 57.6346 17.9313 57.7369 18.5047 57.9372C19.0782 58.1375 19.7169 58.432 20.3844 58.8038C21.052 59.1756 21.7353 59.6174 22.3952 60.1041C23.7282 61.0869 24.8853 62.1926 25.6122 63.178C26.3391 64.1633 26.5761 64.9476 26.2712 65.3583ZM25.6339 64.8168C25.8614 64.5048 25.6121 63.8673 24.9411 63.0444C24.27 62.2216 23.2321 61.2808 22.0556 60.4291C21.4731 60.0073 20.8741 59.6201 20.2928 59.2896C19.7115 58.959 19.1593 58.6916 18.6678 58.5026C18.1762 58.3136 17.7549 58.2068 17.428 58.1881C17.101 58.1694 16.8748 58.2393 16.7622 58.3938C16.5347 58.7057 16.784 59.3432 17.455 60.1661C18.1261 60.9889 19.164 61.9297 20.3405 62.7815C20.923 63.2032 21.522 63.5904 22.1033 63.921C22.6846 64.2515 23.2368 64.5189 23.7283 64.7079C24.2199 64.8969 24.6412 65.0038 24.9681 65.0224C25.2951 65.0411 25.5213 64.9712 25.6339 64.8168Z" fill="#1F2022"/>
<path id="Vector_35" d="M25.6336 64.8169C25.521 64.9714 25.2948 65.0413 24.9678 65.0226C24.6408 65.0039 24.2195 64.8971 23.728 64.7081C23.2365 64.5191 22.6843 64.2517 22.103 63.9211C21.5217 63.5906 20.9227 63.2034 20.3401 62.7817C19.1637 61.9299 18.1257 60.9891 17.4547 60.1663C16.7836 59.3434 16.5344 58.7059 16.7618 58.394C16.8744 58.2395 17.1007 58.1696 17.4276 58.1883C17.7546 58.2069 18.1759 58.3138 18.6674 58.5028C19.159 58.6918 19.7111 58.9592 20.2924 59.2898C20.8737 59.6203 21.4728 60.0075 22.0553 60.4293C23.2318 61.281 24.2697 62.2218 24.9407 63.0446C25.6118 63.8675 25.861 64.505 25.6336 64.8169Z" fill="#2C2D2F"/>
<path id="Vector_36" d="M40.8695 72.2479C40.5647 72.6569 39.7435 72.6578 38.5867 72.2504C37.4299 71.843 36.0321 71.0607 34.7009 70.0756C34.0418 69.5878 33.4188 69.0649 32.8676 68.5367C32.3164 68.0085 31.8478 67.4855 31.4884 66.9973C31.1291 66.5092 30.8861 66.0656 30.7733 65.6918C30.6605 65.318 30.6802 65.0214 30.8311 64.8189C31.1359 64.4099 31.9571 64.409 33.1139 64.8164C34.2708 65.2238 35.6685 66.0061 36.9997 66.9912C37.6588 67.479 38.2818 68.0019 38.833 68.5301C39.3842 69.0583 39.8528 69.5813 40.2122 70.0695C40.5715 70.5576 40.8145 71.0012 40.9273 71.375C41.0401 71.7488 41.0205 72.0454 40.8695 72.2479ZM40.231 71.7629C40.3439 71.6103 40.3409 71.3749 40.2221 71.0701C40.1034 70.7653 39.8712 70.397 39.5388 69.9863C39.2065 69.5756 38.7804 69.1305 38.2851 68.6765C37.7898 68.2225 37.2348 67.7684 36.6519 67.3401C35.4747 66.4753 34.2551 65.7682 33.2615 65.3746C32.2679 64.9809 31.5817 64.9328 31.3537 65.2409C31.2408 65.3935 31.2438 65.6289 31.3626 65.9337C31.4814 66.2385 31.7136 66.6068 32.0459 67.0175C32.3783 67.4282 32.8043 67.8733 33.2996 68.3273C33.795 68.7813 34.3499 69.2354 34.9328 69.6637C36.1101 70.5285 37.3296 71.2356 38.3232 71.6293C39.3168 72.0229 40.0031 72.071 40.231 71.7629Z" fill="#1F2022"/>
<path id="Vector_37" d="M40.2313 71.763C40.0033 72.0711 39.3171 72.0231 38.3235 71.6294C37.3299 71.2357 36.1103 70.5287 34.9331 69.6638C34.3502 69.2355 33.7952 68.7814 33.2999 68.3274C32.8046 67.8734 32.3785 67.4283 32.0462 67.0176C31.7138 66.6069 31.4817 66.2387 31.3629 65.9338C31.2441 65.629 31.2411 65.3936 31.354 65.241C31.5819 64.9329 32.2682 64.981 33.2618 65.3747C34.2554 65.7684 35.475 66.4754 36.6522 67.3403C37.2351 67.7685 37.79 68.2226 38.2854 68.6766C38.7807 69.1307 39.2067 69.5757 39.5391 69.9864C39.8714 70.3971 40.1036 70.7654 40.2224 71.0702C40.3412 71.375 40.3442 71.6105 40.2313 71.763Z" fill="#2C2D2F"/>
</g>
</svg>
