
<svg width="196" height="204" viewBox="0 0 196 204" fill="none" xmlns="http://www.w3.org/2000/svg">
<g id="vector">
<path id="Vector" d="M1.5329 99.8382C-2.11103 136.18 13.0363 167.707 43.7953 187.964" stroke="#67242F" stroke-width="2"/>
<path id="Vector_2" d="M147.45 186.858C187.265 157.81 199.698 107.203 175.387 64.1565C175.11 63.6621 175.015 63.0879 175.119 62.5337C177.096 51.359 174.958 41.3612 168.706 32.5403" stroke="#67242F" stroke-width="2"/>
<path id="Vector_3" d="M168.707 32.5403L191.124 33.2001C191.541 33.212 191.779 33.0099 191.838 32.5938L194.982 10.8923C195.077 10.2147 194.786 9.82832 194.107 9.73322C177.578 7.45072 161.716 8.19966 146.521 11.98" stroke="#714D39" stroke-width="2"/>
<path id="Vector_4" d="M146.521 11.9801C139.257 6.35705 131.118 2.9452 122.103 1.74451C116.137 0.948015 111.6 0.858852 108.492 1.47703" stroke="#8F2434" stroke-width="2"/>
<path id="Vector_5" d="M108.493 1.47707C91.7917 -1.01941 74.3759 6.41653 65.8735 20.6286C65.5638 21.1517 65.1232 21.5202 64.5516 21.7342C28.8031 35.6194 7.79694 61.6541 1.5332 99.8383" stroke="#963E49" stroke-width="2"/>
<path id="Vector_6" d="M108.493 1.47693C81.092 4.86501 73.6255 30.2221 94.8996 47.216C100.068 51.353 105.653 54.8362 111.654 57.6655C111.75 57.7086 111.826 57.785 111.869 57.8802C111.911 57.9754 111.918 58.083 111.887 58.1826C111.827 58.3847 111.762 58.569 111.69 58.7354C111.512 59.1991 111.196 59.3298 110.743 59.1277C106.504 57.2732 102.42 55.1215 98.4899 52.6726C94.0957 49.9264 90.4161 50.1939 88.7728 55.5792C88.5822 56.2211 88.1476 56.5778 87.4688 56.6491L82.1458 57.2197C81.7052 57.2673 81.3718 57.4813 81.1455 57.8617C80.5025 58.9791 79.3771 59.5082 77.7695 59.4487" stroke="#F92924" stroke-width="2"/>
<path id="Vector_7" d="M77.7694 59.4488L76.4833 58.0579C75.8641 57.3803 75.2091 57.3386 74.5184 57.933L73.4467 58.8781C73.3441 58.9685 73.2619 59.0796 73.2056 59.2042C73.1493 59.3287 73.1201 59.4637 73.1201 59.6004C73.1201 59.737 73.1493 59.872 73.2056 59.9965C73.2619 60.121 73.3441 60.2322 73.4467 60.3226L80.1272 66.1536C80.2914 66.2911 80.4039 66.4801 80.4465 66.6897C80.4891 66.8993 80.4593 67.1171 80.3618 67.3076C80.2643 67.4981 80.105 67.6499 79.9099 67.7383C79.7148 67.8267 79.4955 67.8463 79.2877 67.7941C75.5545 66.9204 68.7846 64.8875 64.837 67.063C64.3012 67.3602 64.1821 67.7704 64.4798 68.2935C70.8388 79.6881 83.8069 88.1939 95.1852 93.6505" stroke="#D1291E" stroke-width="2"/>
<path id="Vector_8" d="M95.1843 93.6506C92.8979 96.9792 91.5344 100.338 91.0938 103.726C91.0696 103.931 90.9882 104.125 90.8588 104.287C90.7295 104.448 90.5574 104.57 90.362 104.639C90.1667 104.708 89.956 104.72 89.7538 104.676C89.5516 104.631 89.3661 104.53 89.2183 104.385L88.1823 103.387C87.4082 102.65 87.2594 102.757 87.7357 103.708C89.7125 107.738 89.4803 109.86 87.0391 110.074" stroke="#EB221C" stroke-width="2"/>
<path id="Vector_9" d="M87.04 110.074C74.6257 91.3324 57.1384 78.2794 34.2031 75.8186" stroke="#FE8628" stroke-width="2"/>
<path id="Vector_10" d="M34.2036 75.8186C27.0587 76.306 20.4675 78.8203 14.43 83.3616C8.85693 87.5699 6.92779 94.0073 4.83789 100.445" stroke="#FE8C27" stroke-width="2"/>
<path id="Vector_11" d="M4.83774 100.445L1.5332 99.8382" stroke="#D1291E" stroke-width="2"/>
<path id="Vector_12" d="M147.45 186.858C129.433 199.103 109.409 204.381 87.3791 202.693C71.6483 201.493 57.1202 196.583 43.7949 187.964" stroke="#621C24" stroke-width="2"/>
<path id="Vector_13" d="M4.837 100.444L4.0332 103.226" stroke="#D0720D" stroke-width="2"/>
<path id="Vector_14" d="M4.03368 103.226C2.87263 116.725 6.03426 140.103 13.1256 149.358C14.7332 151.444 16.966 151.694 18.5915 149.572C18.7536 149.362 18.9768 149.207 19.2305 149.129C19.4841 149.05 19.7558 149.053 20.0083 149.135C20.2608 149.217 20.4816 149.375 20.6405 149.587C20.7994 149.799 20.8885 150.056 20.8957 150.321C21.0267 159.058 24.6052 166.084 31.631 171.398C36.7516 175.273 40.6813 174.834 43.4202 170.078C43.5483 169.862 43.7379 169.689 43.965 169.581C44.192 169.473 44.4461 169.434 44.6951 169.47C44.944 169.507 45.1765 169.616 45.363 169.785C45.5495 169.953 45.6815 170.174 45.7423 170.417C48.511 181.901 60.7467 190.924 71.6785 182.846C72.1548 182.489 72.6847 182.311 73.2682 182.311C78.6626 182.258 84.3965 182.9 89.1657 181.009C105.188 174.679 105.581 153.655 101.098 139.318" stroke="#D06B0E" stroke-width="2"/>
<path id="Vector_15" d="M101.098 139.318C108.946 138.7 114.858 134.551 118.835 126.872C121.604 121.54 131.214 107.042 129.035 101.639C128.808 101.092 128.398 100.819 127.802 100.819C116.156 100.783 105.284 98.3939 95.1855 93.6506" stroke="#BC0702" stroke-width="2"/>
<path id="Vector_16" d="M146.522 11.98L129.839 18.3817" stroke="#D43814" stroke-width="2"/>
<path id="Vector_17" d="M129.838 18.3817C118.174 14.209 94.8459 16.7946 105.278 36.0888" stroke="#AF0808" stroke-width="2"/>
<path id="Vector_18" d="M105.278 36.0889C104.867 37.0875 105.242 38.1574 106.117 38.8528C111.601 43.2217 125.659 50.7467 133.143 47.8223" stroke="#BC2510" stroke-width="2"/>
<path id="Vector_19" d="M133.144 47.8224C139.276 46.8713 143.403 43.7151 145.522 38.3536" stroke="#AF0808" stroke-width="2"/>
<path id="Vector_20" d="M145.521 38.3535C151.499 35.6193 157.972 33.8183 164.938 32.9504" stroke="#D43814" stroke-width="2"/>
<path id="Vector_21" d="M164.938 32.9504C165.247 35.6133 165.438 38.3179 165.509 41.064C165.992 57.0058 148.326 62.5337 135.59 63.6928C135.007 63.7403 134.572 64.0256 134.286 64.5487C130.928 70.7542 126.772 76.3773 121.818 81.4178C121.378 81.8576 120.854 82.0181 120.246 81.8992C103.777 78.63 89.6182 71.1466 77.7695 59.4488" stroke="#CA0F0A" stroke-width="2"/>
<path id="Vector_22" d="M34.2025 75.8186C38.686 92.5272 39.0432 105.152 28.5938 118.669" stroke="#FDCF16" stroke-width="2"/>
<path id="Vector_23" d="M28.5946 118.669C27.3442 113.105 25.7366 108.938 23.7717 106.169C19.5026 100.141 13.5188 102.032 10.9287 108.291" stroke="#FE8C27" stroke-width="2"/>
<path id="Vector_24" d="M10.9281 108.291C8.66551 104.629 6.36722 102.941 4.0332 103.226" stroke="#FDCF16" stroke-width="2"/>
<path id="Vector_25" d="M87.0391 110.074C93.1242 118.693 97.8101 128.441 101.097 139.318" stroke="#EA640C" stroke-width="2"/>
<path id="Vector_26" d="M10.9293 108.291L10.3398 111.607" stroke="#FE8628" stroke-width="2"/>
<path id="Vector_27" d="M10.3392 111.607C9.83906 124.078 14.4833 133.404 24.2719 139.586C24.5833 139.783 24.9375 139.904 25.3049 139.937C25.6723 139.971 26.0425 139.917 26.3847 139.779C26.7269 139.641 27.0314 139.424 27.2728 139.145C27.5142 138.867 27.6856 138.535 27.7729 138.177C29.4043 131.65 29.5591 125.005 28.2373 118.241" stroke="#F86C13" stroke-width="2"/>
<path id="Vector_28" d="M28.2363 118.241C28.3554 118.383 28.4745 118.526 28.5936 118.669" stroke="#FE8628" stroke-width="2"/>
<path id="Vector_29" d="M168.706 32.5403L164.938 32.9505" stroke="#AC380E" stroke-width="2"/>
<path id="Vector_30" d="M145.521 38.3536L135.429 43.4535" stroke="#90310C" stroke-width="2"/>
<path id="Vector_31" d="M135.429 43.4533C125.271 41.5632 117.876 37.1349 113.244 30.1685" stroke="#9E4E14" stroke-width="2"/>
<path id="Vector_32" d="M113.244 30.1685L129.838 18.3816" stroke="#90310C" stroke-width="2"/>
<path id="Vector_33" d="M113.244 30.1685C111.732 31.5832 109.791 33.5685 107.421 36.1244C106.992 36.5761 106.278 36.5643 105.277 36.0887" stroke="#791E08" stroke-width="2"/>
<path id="Vector_34" d="M135.429 43.4535C131.499 45.6528 130.737 47.109 133.142 47.8223" stroke="#791E08" stroke-width="2"/>
<path id="Vector_35" d="M28.2379 118.241C20.2356 123.68 15.4306 118.098 10.3398 111.607" stroke="#F92924" stroke-width="2"/>
<path id="Vector_36" d="M74.9468 148.199C66.8373 142.564 58.573 142.308 50.1539 147.432C32.9345 157.935 70.6956 177.657 80.5377 167.225C86.2358 161.18 80.6985 152.193 74.9468 148.199Z" stroke="#EA640C" stroke-width="2"/>
<path id="Vector_37" d="M108.493 1.47707C81.0922 4.86515 73.6257 30.2222 94.8998 47.2161C100.068 51.3531 105.653 54.8363 111.655 57.6657C111.75 57.7088 111.826 57.7851 111.869 57.8803C111.912 57.9756 111.918 58.0831 111.887 58.1828C111.827 58.3849 111.762 58.5692 111.69 58.7356C111.512 59.1992 111.196 59.33 110.744 59.1279C106.504 57.2733 102.42 55.1216 98.4901 52.6727C94.096 49.9266 90.4163 50.1941 88.773 55.5793C88.5825 56.2213 88.1478 56.5779 87.469 56.6492L82.1461 57.2199C81.7055 57.2674 81.372 57.4814 81.1458 57.8618C80.5027 58.9793 79.3774 59.5083 77.7698 59.4489L76.4837 58.058C75.8645 57.3803 75.2095 57.3387 74.5188 57.9331L73.4471 58.8782C73.3444 58.9686 73.2623 59.0797 73.2059 59.2042C73.1496 59.3288 73.1205 59.4638 73.1205 59.6004C73.1205 59.7371 73.1496 59.8721 73.2059 59.9966C73.2623 60.1211 73.3444 60.2323 73.4471 60.3226L80.1276 66.1537C80.2917 66.2911 80.4043 66.4801 80.4469 66.6898C80.4895 66.8994 80.4597 67.1172 80.3622 67.3077C80.2647 67.4981 80.1054 67.65 79.9103 67.7383C79.7152 67.8267 79.4958 67.8464 79.2881 67.7942C75.5548 66.9204 68.785 64.8876 64.8374 67.0631C64.3016 67.3603 64.1825 67.7705 64.4802 68.2935C70.8392 79.6882 83.8073 88.194 95.1856 93.6506C92.8992 96.9792 91.5357 100.338 91.0951 103.726C91.0709 103.931 90.9895 104.125 90.8601 104.287C90.7308 104.448 90.5586 104.57 90.3633 104.639C90.168 104.708 89.9573 104.72 89.7551 104.676C89.5529 104.631 89.3674 104.53 89.2196 104.385L88.1835 103.387C87.4095 102.65 87.2606 102.757 87.737 103.708C89.7137 107.738 89.4815 109.86 87.0403 110.074C74.626 91.3324 57.1388 78.2794 34.2035 75.8186C27.0585 76.306 20.4673 78.8203 14.4298 83.3616C8.85678 87.5699 6.92764 94.0073 4.83774 100.445L1.5332 99.8383C7.79694 61.6541 28.8031 35.6194 64.5516 21.7342C65.1232 21.5202 65.5638 21.1517 65.8735 20.6286C74.3759 6.41653 91.7917 -1.01941 108.493 1.47707Z" fill="#FF4338"/>
<path id="Vector_38" d="M108.493 1.47703C111.601 0.858852 116.138 0.948015 122.104 1.74451C131.118 2.9452 139.258 6.35705 146.522 11.9801L129.838 18.3818C118.174 14.2091 94.846 16.7947 105.278 36.0889C104.867 37.0875 105.242 38.1574 106.117 38.8529C111.601 43.2217 125.659 50.7468 133.143 47.8223C139.276 46.8713 143.402 43.7151 145.521 38.3536C151.499 35.6193 157.972 33.8183 164.938 32.9505C165.247 35.6134 165.438 38.3179 165.509 41.064C165.992 57.0058 148.326 62.5338 135.59 63.6928C135.007 63.7404 134.572 64.0257 134.286 64.5488C130.928 70.7543 126.772 76.3773 121.818 81.4178C121.378 81.8577 120.854 82.0182 120.246 81.8993C103.777 78.6301 89.6182 71.1466 77.7695 59.4488C79.3771 59.5083 80.5025 58.9792 81.1455 57.8618C81.3718 57.4813 81.7052 57.2674 82.1458 57.2198L87.4688 56.6492C88.1476 56.5778 88.5822 56.2212 88.7728 55.5793C90.4161 50.194 94.0957 49.9265 98.4899 52.6726C102.42 55.1216 106.504 57.2733 110.743 59.1278C111.196 59.3299 111.512 59.1992 111.69 58.7355C111.762 58.5691 111.827 58.3848 111.887 58.1827C111.918 58.0831 111.911 57.9755 111.869 57.8803C111.826 57.7851 111.75 57.7087 111.654 57.6656C105.653 54.8363 100.068 51.3531 94.8996 47.2161C73.6255 30.2222 81.092 4.8651 108.493 1.47703Z" fill="#F20F0F"/>
<path id="Vector_39" d="M168.707 32.5403L164.938 32.9505C157.972 33.8183 151.499 35.6193 145.521 38.3535L135.429 43.4535C125.271 41.5633 117.876 37.135 113.244 30.1687L129.838 18.3817L146.522 11.98C161.717 8.19966 177.578 7.45072 194.107 9.73322C194.786 9.82832 195.078 10.2147 194.982 10.8923L191.839 32.5938C191.779 33.0099 191.541 33.212 191.124 33.2001L168.707 32.5403Z" fill="#B56118"/>
<path id="Vector_40" d="M129.838 18.3817L113.244 30.1686C111.732 31.5833 109.791 33.5686 107.421 36.1245C106.992 36.5762 106.278 36.5643 105.278 36.0888C94.8459 16.7946 118.174 14.209 129.838 18.3817Z" fill="#6B0000"/>
<path id="Vector_41" d="M113.244 30.1685C117.877 37.1349 125.272 41.5632 135.43 43.4533C131.5 45.6526 130.738 47.1089 133.143 47.8222C125.659 50.7466 111.601 43.2215 106.117 38.8527C105.242 38.1572 104.867 37.0873 105.278 36.0887C106.278 36.5643 106.993 36.5761 107.421 36.1244C109.791 33.5685 111.732 31.5832 113.244 30.1685Z" fill="#863B10"/>
<path id="Vector_42" d="M168.707 32.5403C174.959 41.3612 177.096 51.359 175.119 62.5337C175.016 63.0879 175.11 63.6621 175.387 64.1565C199.698 107.203 187.266 157.81 147.451 186.858C129.433 199.103 109.41 204.381 87.3794 202.693C71.6486 201.492 57.1206 196.583 43.7953 187.964C13.0363 167.707 -2.11103 136.18 1.5329 99.8382L4.83743 100.445L4.03363 103.226C2.87258 116.725 6.03421 140.103 13.1256 149.358C14.7332 151.444 16.966 151.694 18.5915 149.572C18.7535 149.362 18.9767 149.207 19.2304 149.129C19.4841 149.051 19.7558 149.053 20.0082 149.135C20.2607 149.217 20.4815 149.375 20.6404 149.587C20.7993 149.799 20.8885 150.056 20.8957 150.321C21.0267 159.058 24.6051 166.084 31.631 171.398C36.7515 175.273 40.6812 174.834 43.4201 170.078C43.5483 169.862 43.7379 169.689 43.9649 169.581C44.1919 169.473 44.4461 169.434 44.695 169.47C44.944 169.507 45.1765 169.616 45.3629 169.785C45.5494 169.953 45.6815 170.174 45.7423 170.417C48.5109 181.901 60.7467 190.924 71.6784 182.846C72.1547 182.49 72.6847 182.311 73.2682 182.311C78.6626 182.258 84.3964 182.9 89.1657 181.009C105.188 174.679 105.581 153.655 101.098 139.318C108.945 138.7 114.858 134.551 118.835 126.872C121.604 121.54 131.214 107.042 129.034 101.639C128.808 101.092 128.397 100.819 127.802 100.819C116.156 100.783 105.283 98.3939 95.1853 93.6506C83.8069 88.194 70.8389 79.6881 64.4799 68.2935C64.1822 67.7704 64.3013 67.3603 64.8371 67.0631C68.7847 64.8876 75.5545 66.9204 79.2878 67.7942C79.4955 67.8464 79.7149 67.8267 79.91 67.7383C80.1051 67.6499 80.2644 67.4981 80.3619 67.3076C80.4594 67.1172 80.4892 66.8993 80.4466 66.6897C80.404 66.4801 80.2914 66.2911 80.1273 66.1536L73.4468 60.3226C73.3441 60.2322 73.2619 60.1211 73.2056 59.9966C73.1493 59.8721 73.1202 59.737 73.1202 59.6004C73.1202 59.4638 73.1493 59.3287 73.2056 59.2042C73.2619 59.0797 73.3441 58.9685 73.4468 58.8782L74.5185 57.9331C75.2092 57.3387 75.8642 57.3803 76.4834 58.0579L77.7695 59.4488C89.6182 71.1466 103.777 78.6301 120.246 81.8993C120.854 82.0182 121.377 81.8577 121.818 81.4178C126.772 76.3773 130.928 70.7543 134.286 64.5488C134.572 64.0257 135.006 63.7404 135.59 63.6928C148.326 62.5338 165.992 57.0058 165.509 41.064C165.438 38.3179 165.247 35.6134 164.938 32.9505L168.707 32.5403Z" fill="#A20E04"/>
<path id="Vector_43" d="M145.521 38.3536C143.401 43.7151 139.275 46.8713 133.142 47.8224C130.737 47.1091 131.499 45.6528 135.429 43.4535L145.521 38.3536Z" fill="#6B0000"/>
<path id="Vector_44" d="M34.2027 75.8186C38.6862 92.5272 39.0434 105.152 28.594 118.669C27.3436 113.105 25.736 108.939 23.7711 106.169C19.502 100.141 13.5181 102.032 10.9281 108.291C8.66551 104.629 6.36722 102.941 4.0332 103.226L4.837 100.445C6.9269 94.0073 8.85604 87.5699 14.4291 83.3616C20.4666 78.8203 27.0578 76.306 34.2027 75.8186Z" fill="#FDD515"/>
<path id="Vector_45" d="M34.2032 75.8186C57.1385 78.2794 74.6257 91.3324 87.0401 110.074C93.1252 118.693 97.8111 128.441 101.098 139.318C105.581 153.655 105.188 174.679 89.1657 181.009C84.3965 182.9 78.6626 182.258 73.2682 182.311C72.6847 182.311 72.1548 182.49 71.6785 182.846C60.7467 190.924 48.511 181.901 45.7423 170.417C45.6815 170.174 45.5495 169.953 45.363 169.785C45.1765 169.616 44.944 169.507 44.6951 169.47C44.4461 169.434 44.192 169.473 43.965 169.581C43.7379 169.689 43.5483 169.862 43.4202 170.078C40.6813 174.834 36.7516 175.274 31.631 171.398C24.6052 166.084 21.0267 159.058 20.8957 150.321C20.8885 150.056 20.7994 149.799 20.6405 149.587C20.4816 149.375 20.2608 149.217 20.0083 149.135C19.7558 149.053 19.4841 149.051 19.2305 149.129C18.9768 149.207 18.7536 149.362 18.5915 149.572C16.966 151.694 14.7332 151.444 13.1256 149.358C6.03426 140.103 2.87263 116.725 4.03368 103.226C6.36769 102.941 8.66599 104.629 10.9286 108.291L10.3391 111.607C9.83895 124.078 14.4832 133.404 24.2717 139.586C24.5832 139.783 24.9374 139.904 25.3048 139.937C25.6722 139.971 26.0424 139.917 26.3846 139.779C26.7268 139.641 27.0313 139.424 27.2727 139.146C27.5141 138.867 27.6855 138.535 27.7728 138.177C29.4042 131.651 29.559 125.005 28.2372 118.241C28.3563 118.384 28.4753 118.526 28.5944 118.669C39.0439 105.152 38.6867 92.5272 34.2032 75.8186ZM74.9473 148.199C66.8378 142.564 58.5734 142.308 50.1543 147.432C32.935 157.935 70.696 177.657 80.5382 167.225C86.2363 161.18 80.699 152.193 74.9473 148.199Z" fill="#FDC817"/>
<path id="Vector_46" d="M95.1853 93.6506C105.283 98.3939 116.156 100.783 127.802 100.819C128.397 100.819 128.808 101.092 129.034 101.639C131.214 107.042 121.604 121.54 118.835 126.872C114.858 134.551 108.945 138.7 101.098 139.318C97.8111 128.441 93.1252 118.693 87.04 110.074C89.4812 109.86 89.7134 107.738 87.7367 103.708C87.2603 102.757 87.4092 102.65 88.1832 103.387L89.2192 104.385C89.3671 104.53 89.5526 104.631 89.7548 104.676C89.9569 104.72 90.1677 104.708 90.363 104.639C90.5583 104.57 90.7304 104.448 90.8598 104.287C90.9892 104.125 91.0706 103.931 91.0948 103.726C91.5354 100.338 92.8989 96.9792 95.1853 93.6506Z" fill="#D60000"/>
<path id="Vector_47" d="M28.5952 118.669C28.4761 118.526 28.357 118.384 28.2379 118.241C20.2356 123.68 15.4306 118.098 10.3398 111.607L10.9293 108.291C13.5193 102.032 19.5032 100.141 23.7723 106.169C25.7372 108.938 27.3448 113.105 28.5952 118.669Z" fill="#FF4338"/>
<path id="Vector_48" d="M10.3392 111.607C15.43 118.098 20.2349 123.68 28.2373 118.241C29.5591 125.005 29.4043 131.65 27.7729 138.177C27.6856 138.535 27.5142 138.867 27.2728 139.145C27.0314 139.424 26.7269 139.641 26.3847 139.779C26.0425 139.917 25.6723 139.971 25.3049 139.937C24.9375 139.904 24.5833 139.783 24.2719 139.586C14.4833 133.404 9.83906 124.078 10.3392 111.607Z" fill="#F20F0F"/>
<path id="Vector_49" d="M74.9468 148.199C80.6985 152.193 86.2358 161.18 80.5377 167.225C70.6956 177.657 32.9345 157.935 50.1539 147.432C58.573 142.308 66.8373 142.564 74.9468 148.199Z" fill="#D60000"/>
</g>
</svg>
