<svg width="35" height="35" viewBox="0 0 35 35" fill="none" xmlns="http://www.w3.org/2000/svg">
<path d="M33.1233 15.8273C27.1879 12.5828 22.3093 7.7015 19.0622 1.76609C18.2782 0.330578 16.2177 0.330578 15.4337 1.76609C12.1892 7.7015 7.30794 12.5801 1.37253 15.8273C-0.0629803 16.6112 -0.0629803 18.6718 1.37253 19.4558C7.30794 22.7029 12.1866 27.5815 15.4337 33.5169C16.2177 34.9524 18.2782 34.9524 19.0622 33.5169C22.3067 27.5815 27.1879 22.7029 33.1233 19.4558C34.5562 18.6718 34.5562 16.6112 33.1233 15.8273Z" fill="#4A2C83"/>
<path d="M33.1233 15.8273C27.1879 12.5828 22.3093 7.7015 19.0622 1.76609C18.2782 0.330578 16.2177 0.330578 15.4337 1.76609C12.1892 7.7015 7.30794 12.5801 1.37253 15.8273C-0.0629803 16.6112 -0.0629803 18.6718 1.37253 19.4558C7.30794 22.7029 12.1866 27.5815 15.4337 33.5169C16.2177 34.9524 18.2782 34.9524 19.0622 33.5169C22.3067 27.5815 27.1879 22.7029 33.1233 19.4558C34.5562 18.6718 34.5562 16.6112 33.1233 15.8273Z" fill="#4A2C83"/>
</svg>
