<svg width="73" height="77" viewBox="0 0 73 77" fill="none" xmlns="http://www.w3.org/2000/svg">
<g id="Group">
<path id="Vector" d="M72.6218 52.4699L63.9977 31.987V9.80399C63.9977 6.9701 61.6605 4.62255 58.8391 4.62255H52.4719L51.8264 3.16498C50.698 0.573974 47.7159 -0.720952 45.056 0.412488L35.2225 4.62255H24.5025C21.6811 4.62255 19.3439 6.9701 19.3439 9.80399V11.423L13.4601 13.9327C10.8806 15.0661 9.59136 18.0615 10.7198 20.7331L19.3445 41.216V42.8351C18.6192 42.7543 17.8939 42.673 17.0876 42.673C7.6572 42.673 0 50.364 0 59.8365C0 69.3088 7.65705 77 17.0876 77C22.9714 77 28.13 74.0046 31.2735 69.471L31.5152 70.038C32.3215 71.9812 34.2555 73.1954 36.2706 73.1954C36.9155 73.1954 37.6408 73.0334 38.2856 72.7905L48.1996 68.5805H58.9196C61.741 68.5805 64.0782 66.2329 64.0782 63.399V61.78L69.962 59.2704C72.4611 58.137 73.67 55.0609 72.6218 52.4699H72.6218ZM45.8619 2.19375C46.265 2.03167 46.6682 1.95091 47.1517 1.95091C48.4414 1.95091 49.5699 2.67942 50.1338 3.8941L50.456 4.62261H40.1389L45.8619 2.19375ZM12.4927 19.843C11.7674 18.224 12.5731 16.2806 14.1856 15.633L19.3441 13.4469V36.1966L12.4927 19.843ZM17.0867 44.4548C19.1822 44.4548 21.1168 44.8598 22.89 45.5882L21.6812 48.5836C20.3111 48.0166 18.6991 47.693 17.0866 47.693L17.0867 44.4548ZM11.3642 45.669L12.573 48.6644C11.1225 49.3121 9.8327 50.1214 8.70427 51.2554L6.36653 48.9885C7.81765 47.5309 9.51001 46.3975 11.3643 45.669H11.3642ZM3.14267 53.9271L6.12481 55.1412C5.56032 56.5175 5.23816 58.1366 5.23816 59.7562H2.01436C1.93396 57.651 2.33652 55.7082 3.14276 53.9271L3.14267 53.9271ZM6.36647 70.5239C4.99631 69.1476 3.86795 67.4472 3.06164 65.5853L6.04377 64.3711C6.68866 65.8281 7.57536 67.1236 8.62333 68.2571L6.36647 70.5239ZM17.0865 74.9762C15.0715 74.9762 13.0564 74.5713 11.2832 73.8428L12.492 70.8474C13.8622 71.4144 15.4741 71.738 17.0866 71.738L17.0865 74.9762ZM7.09218 59.7558C7.09218 54.1694 11.6057 49.7166 17.087 49.7166C22.6487 49.7166 27.0818 54.2502 27.0818 59.7558C27.0818 65.3421 22.5682 69.7949 17.087 69.7949C11.6057 69.7944 7.09218 65.2607 7.09218 59.7558ZM25.55 51.2548L27.8069 48.9879C29.1771 50.3642 30.3054 52.0646 31.1117 53.9265L28.1296 55.1407C27.5651 53.6837 26.6785 52.3882 25.55 51.2547V51.2548ZM22.9711 73.8426L21.6813 70.8473C23.1319 70.1995 24.4216 69.3903 25.5501 68.2563L27.8069 70.5231C26.4368 71.8999 24.8248 73.0333 22.9711 73.8426H22.9711ZM28.1296 64.2896C28.6941 62.9134 29.0163 61.2943 29.0163 59.6746H32.2401C32.2401 61.6986 31.8369 63.7226 31.1117 65.5038L28.1296 64.2896ZM37.479 70.9281C35.8671 71.5758 33.9324 70.8473 33.2876 69.2276L32.9654 68.4991H43.202L37.479 70.9281ZM62.0626 63.3183C62.0626 65.0994 60.6121 66.5564 58.8389 66.5564H32.8044C33.691 64.4516 34.1745 62.1848 34.1745 59.7559C34.1745 51.7407 28.6129 44.9402 21.1976 43.0781L21.1982 9.80361C21.1982 8.02249 22.6487 6.5655 24.422 6.5655H58.7584C60.5317 6.5655 61.9822 8.02249 61.9822 9.80361L61.9828 63.3181L62.0626 63.3183ZM69.1558 57.4892L63.9972 59.6752V37.0064L70.8487 53.2794C71.493 54.8178 70.7677 56.7604 69.1558 57.4895V57.4892Z" fill="#F837FC"/>
<path id="Vector_2" d="M42.3163 26.1577C41.9941 25.8341 41.4296 25.8341 41.0265 26.1577L33.3694 33.8488C31.3544 35.8728 31.3544 39.2731 33.3694 41.2971C34.4174 42.3498 35.7066 42.8355 37.0774 42.8355C38.0445 42.8355 39.012 42.5926 39.8988 42.0257L37.9642 46.3972C37.8028 46.8021 38.0446 47.207 38.5287 47.207H44.8156C45.2188 47.207 45.5409 46.8021 45.3801 46.3972L43.4455 42.0257C44.3322 42.5926 45.2992 42.8355 46.2669 42.8355C47.6371 42.8355 49.0072 42.2685 50.0552 41.2164C51.9898 39.1116 51.9089 35.7921 49.8938 33.7681L42.3163 26.1577Z" fill="#F837FC"/>
<path id="Vector_3" d="M27.7259 9.23732C27.6455 9.15657 27.4037 9.15657 27.3227 9.23732L24.7432 11.8283C24.0983 12.5568 24.0983 13.6903 24.7432 14.3379C25.0654 14.6615 25.5494 14.8236 26.0329 14.8236C26.3551 14.8236 26.6778 14.7429 27 14.5808L26.3551 16.0378C26.2747 16.1999 26.3551 16.2806 26.5165 16.2806H28.612C28.7733 16.2806 28.8537 16.1185 28.7733 16.0378L28.1285 14.5808C28.4506 14.7429 28.7733 14.9044 29.0955 14.9044C29.579 14.9044 30.0626 14.7423 30.3853 14.3374C31.0302 13.6089 31.0302 12.5563 30.3049 11.8278L27.7259 9.23732Z" fill="#F837FC"/>
<path id="Vector_4" d="M57.3874 58.2177C57.0653 58.2177 56.7425 58.2985 56.4204 58.4606L57.0653 57.0036C57.1457 56.8415 57.0653 56.7607 56.9039 56.7607H54.8084C54.647 56.7607 54.5666 56.9228 54.647 57.0036L55.2919 58.4606C54.9697 58.2985 54.647 58.137 54.3249 58.137C53.8413 58.137 53.3578 58.2991 53.0351 58.704C52.3902 59.4325 52.3902 60.4851 53.1155 61.2136L55.695 63.8046C55.7754 63.8853 56.0172 63.8853 56.0982 63.8046L58.6777 61.2136C59.403 60.4851 59.403 59.3516 58.6777 58.704C58.274 58.3798 57.7905 58.2177 57.3874 58.2177H57.3874Z" fill="#F837FC"/>
<path id="Vector_5" d="M17.652 58.7038H16.5236C15.637 58.7038 14.9921 57.9753 15.0731 57.0848C15.1535 56.3563 15.8793 55.7893 16.6047 55.7893H17.9743C18.4578 55.7893 18.8609 56.1129 18.9413 56.5991C18.9413 56.7612 19.1027 56.842 19.1831 56.842H20.6336C20.795 56.842 20.9558 56.6799 20.9558 56.5184C20.7944 55.0614 19.5856 53.8467 18.0541 53.7659L18.0553 52.2269C18.0553 52.0648 17.8939 51.9033 17.7331 51.9033H16.3624C16.201 51.9033 16.0402 52.0654 16.0402 52.2269V53.6839C14.1865 53.9267 12.8164 55.6271 12.9772 57.5698C13.1385 59.4318 14.8309 60.7273 16.6041 60.7273H17.5712C18.4578 60.7273 19.1028 61.4558 19.0217 62.3463C18.9413 63.0748 18.2155 63.6418 17.4901 63.6418H16.2004C15.7169 63.6418 15.3137 63.3182 15.2333 62.832C15.2333 62.6699 15.072 62.5892 14.9916 62.5892H13.541C13.3797 62.5892 13.2189 62.7512 13.2189 62.9127C13.3802 64.3697 14.589 65.5844 16.1205 65.6652V67.1222C16.1205 67.2843 16.2819 67.4458 16.4427 67.4458H17.8932C18.0546 67.4458 18.2154 67.2837 18.2154 67.1222V65.5838C19.8273 65.341 21.1171 64.0455 21.2784 62.4264C21.3594 60.4848 19.7474 58.7037 17.6521 58.7037L17.652 58.7038Z" fill="#F837FC"/>
</g>
</svg>
