<svg width="85" height="62" viewBox="0 0 85 62" fill="none" xmlns="http://www.w3.org/2000/svg">
<g id="Group">
<path id="Vector" d="M18.1822 34.0815L15.1372 33.4467C14.9579 33.4467 14.8685 33.3563 14.7792 33.1748L13.2566 30.4553C13.0773 30.093 12.6294 30.093 12.3607 30.4553L10.8382 33.1748C10.7488 33.2652 10.6589 33.3563 10.4802 33.4467L7.61377 34.0815C7.25578 34.1719 7.07647 34.6253 7.34512 34.8972L9.49486 37.1633C9.5842 37.2537 9.67417 37.4351 9.5842 37.5256L9.22621 40.6073C9.13687 40.9696 9.5842 41.2421 9.94282 41.1511L12.7192 39.7917C12.8085 39.7013 12.9878 39.7013 13.1672 39.7917L15.9435 41.1511C16.3015 41.3325 16.6601 41.0607 16.6601 40.6073L16.3021 37.5256C16.3021 37.3441 16.3021 37.2537 16.3915 37.1633L18.5412 34.8972C18.7193 34.6253 18.5406 34.1719 18.182 34.0815H18.1822Z" fill="#DDDFE9"/>
<path id="Vector_2" d="M31.7053 37.1633C31.7946 37.2537 31.8846 37.4351 31.7946 37.5256L31.4366 40.6073C31.3473 40.9696 31.7946 41.2421 32.1532 41.1511L34.9296 39.7917C35.0189 39.7013 35.1982 39.7013 35.3775 39.7917L38.1539 41.1511C38.5119 41.3325 38.8705 41.0607 38.8705 40.6073L38.5125 37.5256C38.5125 37.3441 38.5125 37.2537 38.6019 37.1633L40.7516 34.8972C41.0203 34.6253 40.841 34.1719 40.483 34.0815L37.4379 33.4467C37.2586 33.4467 37.1692 33.3563 37.0799 33.1748L35.5574 30.4553C35.3781 30.093 34.9301 30.093 34.6614 30.4553L33.1389 33.1748C33.0496 33.2652 32.9596 33.3563 32.7809 33.4467L29.7358 34.0815C29.3779 34.1719 29.1985 34.6253 29.4672 34.8972L31.7053 37.1633Z" fill="#DDDFE9"/>
<path id="Vector_3" d="M62.7857 34.0815L59.7406 33.4467C59.5613 33.4467 59.472 33.3563 59.3826 33.1748L57.8601 30.4553C57.6808 30.093 57.2328 30.093 56.9642 30.4553L55.4416 33.1748C55.3523 33.2652 55.2623 33.3563 55.0837 33.4467L52.0386 34.0815C51.6806 34.1719 51.5013 34.6253 51.7699 34.8972L53.9197 37.1633C54.009 37.2537 54.099 37.4351 54.009 37.5256L53.651 40.6073C53.5617 40.9696 54.009 41.2421 54.3676 41.1511L57.144 39.7917C57.2333 39.7013 57.4127 39.7013 57.592 39.7917L60.3683 41.1511C60.7263 41.3325 61.0849 41.0607 61.0849 40.6073L60.727 37.5256C60.727 37.3441 60.727 37.2537 60.8163 37.1633L62.966 34.8972C63.3234 34.6253 63.1441 34.1719 62.7855 34.0815H62.7857Z" fill="#DDDFE9"/>
<path id="Vector_4" d="M77.7429 4.96284H77.786C81.6576 4.98661 84.8342 8.2166 84.7483 12.1404L84.7482 12.1404V12.1459C84.7482 15.5686 82.4953 18.369 79.4718 19.1556L79.2847 19.2043V19.3976V31.3623C79.2847 34.6734 76.6152 37.4572 73.2653 37.4572H70.3096H70.0596V37.7072V45.2307C70.0596 47.9962 67.8403 50.238 65.1148 50.238H64.2189H63.9689V50.488V53.2075C63.9689 57.8779 60.2247 61.75 55.531 61.75H14.7786C10.171 61.75 6.34073 57.9651 6.34073 53.2075V50.488V50.238H6.09073H5.19481C2.46943 50.238 0.25 47.9964 0.25 45.2307V26.6486C0.25 23.8831 2.46928 21.6412 5.19481 21.6412H6.09073H6.34073V21.3912V18.5814C6.34073 13.911 10.0849 10.039 14.7786 10.0389C14.7786 10.0389 14.7786 10.0389 14.7786 10.0389L18.7196 10.0396L18.8761 10.0396L18.9445 9.89889C21.6769 4.2789 27.9459 0.25 35.1998 0.25C42.4515 0.25 48.6333 4.27751 51.4564 9.90125L51.5256 10.0391H51.6798H55.5308C60.1385 10.0391 63.9687 13.824 63.9687 18.5816V21.3914V21.6414H64.2187H65.1146C67.84 21.6414 70.0595 23.8831 70.0595 26.6487V34.1722V34.4222L70.3094 34.4222L73.3532 34.4229C75.1067 34.4229 76.4697 33.0384 76.4697 31.2719V19.3977V19.1965L76.2731 19.1535C73.0722 18.4528 70.6482 15.5615 70.6482 12.146C70.6482 8.20177 73.8535 4.96284 77.7429 4.96284ZM47.7381 10.1298H48.2113L47.9446 9.73894C45.299 5.86092 40.5625 3.2849 35.1992 3.2849C29.8358 3.2849 25.1001 5.86077 22.4532 9.7389L22.1864 10.1298H22.6597H47.7381ZM60.9043 21.7323H61.1543V21.4823V18.6725C61.1543 15.5432 58.6246 13.0746 55.62 13.0746H14.8676C11.7683 13.0746 9.33341 15.6391 9.33341 18.6725L9.33309 21.4823L9.33306 21.7323H9.58309H60.9043ZM44.8536 24.9271V24.6771H44.6036H25.7954H25.5454L25.5454 24.9271L25.5448 47.1349L25.5448 47.3849H25.7948H44.6036H44.8536V47.1349V24.9271ZM5.19468 47.3849H5.44468V47.2946H22.3017H22.5517V47.0446V24.8368V24.5868H22.3017H5.19468C4.0686 24.5868 3.15353 25.5171 3.15353 26.6495V45.3222C3.15353 46.4545 4.06854 47.3849 5.19468 47.3849ZM61.065 53.3895V53.1395H60.9758V50.67V50.42H60.7258H9.49416H9.24416V50.67V53.3895C9.24416 56.5188 11.7738 58.9874 14.7784 58.9874H55.5308C58.6301 58.9874 61.065 56.4229 61.065 53.3895ZM47.7576 47.1349V47.3849H48.0076H65.1146C66.2407 47.3849 67.1558 46.4546 67.1558 45.3222V26.7398C67.1558 25.6075 66.2408 24.6771 65.1146 24.6771H48.0076H47.7576V24.9271V47.1349ZM81.9338 12.1561L81.934 12.1561V12.1463C81.934 9.83523 80.0337 7.90775 77.7429 7.90775C75.4521 7.90775 73.5519 9.8354 73.5519 12.1463C73.5519 14.4573 75.4523 16.3848 77.7429 16.3848C80.0388 16.3848 81.8396 14.5443 81.9338 12.1561Z" fill="#DDDFE9" stroke="#13181C" stroke-width="0.5"/>
</g>
</svg>
