<svg width="70" height="73" viewBox="0 0 70 73" fill="none" xmlns="http://www.w3.org/2000/svg">
<g id="Group">
<path id="Vector" d="M43.9524 0.00242329C41.5763 -0.061511 39.2464 1.14192 37.97 3.3439L36.5562 5.78245L32.4814 4.69445C31.8089 4.51509 31.1341 4.4438 30.4746 4.46926C27.617 4.57902 25.0541 6.51398 24.2735 9.41645L23.9856 10.4858H18.0947C14.3816 10.4858 11.3921 13.4636 11.3921 17.1621V18.2688L4.9702 19.9825C1.3838 20.9398 -0.729167 24.5857 0.231853 28.1581L10.9621 68.0487C11.9232 71.6211 15.5834 73.7263 19.1698 72.7691L40.9393 66.9591C42.9789 66.4148 44.5399 64.9998 45.3323 63.2244C45.8571 62.7106 46.2922 62.1086 46.6245 61.4456C47.3754 60.6631 47.9565 59.6973 48.2586 58.5731L48.9505 56.0004L69.0956 21.2458C70.9525 18.0429 69.8596 13.9749 66.6442 12.1259L47.1257 0.900727C46.1209 0.323058 45.0321 0.032246 43.9523 0.00282884L43.9524 0.00242329ZM43.1986 2.33625C44.1176 2.27231 45.0657 2.4726 45.9274 2.96767L65.4459 14.1928C67.7429 15.514 68.5245 18.4193 67.1982 20.7068L50.8657 48.8856L58.9911 18.6833C59.9521 15.1104 57.8369 11.4627 54.2504 10.5055L38.4719 6.29379L39.3887 4.71474C40.2174 3.28443 41.6681 2.44421 43.1994 2.3379L43.1986 2.33625ZM31.0267 6.38281C31.3448 6.40205 31.6657 6.45184 31.9861 6.53727L35.5657 7.49289L37.4804 8.00322L53.7533 12.3473C56.315 13.0313 57.8248 15.6374 57.1381 18.189L47.333 54.6397V17.1635C47.333 13.465 44.3435 10.4872 40.6305 10.4872H25.9673L26.1223 9.91184C26.7227 7.67926 28.7993 6.24837 31.0254 6.38365L31.0267 6.38281ZM18.0953 12.3937H40.6296C43.2816 12.3937 45.4168 14.5206 45.4168 17.1622V57.8103L34.9484 18.8916C34.1674 15.9891 31.6046 14.0558 28.7474 13.946C28.0879 13.9205 27.4114 13.9918 26.739 14.1712L13.3078 17.7548V17.1607C13.3078 14.5191 15.4431 12.3923 18.0951 12.3923L18.0953 12.3937ZM53.4011 14.2286L50.5434 18.008L51.5852 18.2858L52.1276 17.522L53.7471 17.9543L53.8328 18.8856L54.8746 19.1634L54.2986 14.4674L53.4012 14.2292L53.4011 14.2286ZM40.7781 14.301L38.9997 18.6875H40.079L40.4044 17.81H42.08L42.4055 18.6875H43.4847L41.7063 14.301H40.7781ZM64.8552 15.5004L61.1132 18.4154L62.0481 18.9517L62.7701 18.3537L64.2231 19.1882L64.064 20.1105L64.9973 20.6485L65.6613 15.9638L64.8552 15.4998L64.8552 15.5004ZM53.4911 15.6549L53.5024 15.6589L53.6444 17.0184L52.6851 16.7616L53.4911 15.6549ZM41.2363 15.6566H41.2477L41.7395 16.9324H40.7467L41.2369 15.6566H41.2363ZM28.1943 15.858C30.4204 15.7228 32.497 17.1531 33.0974 19.3862L43.83 59.2769C44.0873 60.2336 44.0367 61.1977 43.7363 62.0656C43.734 62.0673 43.7328 62.0696 43.7306 62.0713C43.7277 62.0803 43.7226 62.0883 43.7192 62.0973C43.6579 62.2699 43.5749 62.4323 43.4931 62.5946C43.4636 62.6546 43.4409 62.7185 43.4091 62.7774C43.4079 62.7791 43.4079 62.7813 43.4074 62.783C43.4051 62.7876 43.4023 62.7915 43.4 62.796C43.2784 63.0105 43.1398 63.2153 42.9888 63.4105C42.9433 63.4693 42.9064 63.5344 42.8581 63.591C42.8167 63.6396 42.7706 63.6838 42.7275 63.7307C42.5775 63.8931 42.4162 64.0459 42.243 64.1873C42.1958 64.2258 42.1515 64.2677 42.1027 64.3044C41.8891 64.4657 41.659 64.6094 41.4165 64.735C41.3302 64.7797 41.2427 64.8221 41.1529 64.8617C41.0899 64.8895 41.0286 64.9183 40.9638 64.9438C40.7951 65.01 40.623 65.0694 40.4441 65.1169L40.3748 65.1356L18.6766 70.9269C16.1149 71.6109 13.5003 70.1071 12.8142 67.5554L2.08219 27.6648C1.39546 25.1131 2.90524 22.5087 5.46691 21.8254L11.8627 20.119L13.3082 19.7314L27.2347 16.0154C27.555 15.9299 27.8759 15.8785 28.194 15.8587L28.1943 15.858ZM64.5731 16.9047L64.5822 16.9087L64.3669 18.2592L63.5069 17.7658L64.5731 16.9053L64.5731 16.9047ZM28.7701 17.5791L27.8726 17.8196L27.295 22.5156L28.3367 22.2378L28.4225 21.3065L30.0419 20.8743L30.5844 21.6364L31.6261 21.3586L28.7707 17.5791L28.7701 17.5791ZM28.6786 19.0077L29.4847 20.1144L28.5253 20.3696L28.6673 19.01L28.6786 19.0083L28.6786 19.0077ZM51.037 19.5458C50.4502 19.5249 49.8862 19.9616 49.709 20.6208C49.1165 22.0228 50.7036 24.4195 51.0739 24.6125C51.0728 24.6142 51.0728 24.6164 51.0722 24.6181C51.075 24.6187 51.0801 24.6142 51.0836 24.6142C51.0875 24.6159 51.0932 24.6221 51.0966 24.6232C51.0972 24.6193 51.0995 24.6159 51.1006 24.6119C51.5272 24.6232 54.0934 23.3479 54.2838 21.8418C54.4866 21.0888 54.1088 20.3352 53.4386 20.1557C52.9688 20.0301 52.4826 20.2185 52.1634 20.6027C52.0788 20.1121 51.7567 19.707 51.2881 19.582C51.2046 19.5594 51.1211 19.5475 51.0376 19.5447L51.037 19.5458ZM41.2417 19.8904L38.981 22.4776L41.2417 25.0649L43.5024 22.4776L41.2417 19.8904ZM62.4222 20.5257C62.4216 20.5286 62.4199 20.532 62.4182 20.5348C62.4182 20.5348 59.4635 20.7119 59.0222 21.8723C58.7035 22.4222 58.9142 23.1357 59.4936 23.4689C59.7623 23.6233 60.061 23.659 60.3371 23.6086C60.3252 23.6364 60.3218 23.6584 60.3519 23.659C59.5788 24.1071 58.7416 24.0075 58.7416 24.0075L59.9946 24.7266L60.006 24.734L61.2607 25.4548C61.2607 25.4548 60.7524 24.7798 60.7558 23.8882C60.77 23.9114 60.7898 23.9069 60.8137 23.8899C60.908 24.149 61.0852 24.3838 61.3505 24.536C61.9293 24.8693 62.6552 24.6927 62.9738 24.1428C63.7634 23.1798 62.441 20.5422 62.441 20.5422C62.4427 20.5411 62.4433 20.5394 62.445 20.5382C62.4427 20.5371 62.4365 20.5377 62.4336 20.5365C62.4302 20.5337 62.4257 20.5275 62.4223 20.5252L62.4222 20.5257ZM30.0771 23.0593L30.0759 23.0599C29.9731 23.0587 29.8703 23.0723 29.7709 23.0989C29.166 23.2607 28.807 23.8802 28.9689 24.4828C29.0347 24.7278 29.1819 24.9439 29.3858 25.0956C29.3364 25.1018 29.2869 25.1114 29.2381 25.1238C28.9251 25.207 28.6587 25.4113 28.4968 25.6908C28.3355 25.9703 28.2918 26.3024 28.3759 26.6141C28.5508 27.262 29.2194 27.6461 29.8702 27.4724C30.0674 27.4198 30.248 27.3185 30.3957 27.1782C30.1338 28.1655 29.5073 28.5288 29.5073 28.5288L31.108 28.1005L31.125 28.0965L32.7257 27.6682C32.7257 27.6682 32.0009 27.6671 31.2784 26.9417C31.4772 26.9904 31.6845 26.9881 31.8822 26.9361C32.5331 26.7618 32.9188 26.0959 32.7444 25.4475C32.6609 25.1364 32.4564 24.8704 32.1764 24.7092C31.8964 24.5479 31.563 24.5038 31.2506 24.587C31.2012 24.6011 31.1534 24.6175 31.1063 24.6373C31.208 24.4042 31.2278 24.144 31.1625 23.8979C31.0307 23.4073 30.586 23.0645 30.0759 23.0599L30.0771 23.0593ZM21.746 35.1428L21.7449 35.1434C21.4081 35.1405 21.0729 35.183 20.748 35.2701C19.7938 35.5247 18.9804 36.1465 18.4868 36.9986C17.9932 37.8507 17.8591 38.8629 18.1147 39.8135C18.3311 40.6163 18.8122 41.3236 19.4802 41.8214C19.3183 41.8429 19.1576 41.874 18.9997 41.9148C17.9738 42.188 17.0992 42.8568 16.568 43.7728C16.0375 44.6888 15.8932 45.7768 16.1681 46.7986C16.443 47.8205 17.1138 48.6917 18.0334 49.2202C18.953 49.7492 20.0459 49.8924 21.0712 49.6191C21.717 49.4454 22.3083 49.1139 22.7917 48.6539C21.9329 51.893 19.8801 53.0817 19.8801 53.0817L25.1348 51.6791L25.1854 51.6661L30.4401 50.2635C30.4401 50.2635 28.0623 50.2578 25.6921 47.8775L25.6927 47.877C26.3431 48.036 27.0236 48.0297 27.671 47.8589C28.6969 47.585 29.571 46.9168 30.1021 46.0008C30.6332 45.0848 30.7769 43.9962 30.5026 42.9744C30.2277 41.9526 29.5563 41.0807 28.6367 40.5522C27.7165 40.0232 26.623 39.8801 25.5973 40.1539C25.4383 40.1986 25.2821 40.2529 25.1298 40.3163C25.461 39.5513 25.5246 38.6975 25.3093 37.8931C25.0986 37.1095 24.6362 36.4164 23.9921 35.9196C23.3486 35.4234 22.559 35.1507 21.7451 35.1434L21.746 35.1428ZM16.4016 58.4144L14.8009 58.841L14.7862 58.8467L13.1833 59.2733C13.1833 59.2733 13.9087 59.275 14.6306 59.9997L14.6289 60.0003C14.4307 59.9528 14.2239 59.955 14.0268 60.0076C13.7144 60.0908 13.4474 60.2945 13.2855 60.5734C13.1237 60.8529 13.0794 61.1845 13.1629 61.4962C13.3378 62.144 14.0063 62.5282 14.6572 62.3545C14.7055 62.3415 14.7527 62.3257 14.7992 62.3064C14.6993 62.5395 14.6811 62.7992 14.747 63.0442C14.8242 63.3339 15.0145 63.5811 15.2752 63.7311C15.5354 63.8816 15.8455 63.9223 16.1363 63.8448C16.4272 63.7673 16.6754 63.5777 16.8259 63.3175C16.9764 63.0578 17.0168 62.7489 16.9384 62.4592C16.8719 62.2136 16.7248 61.9981 16.5197 61.8464C16.5703 61.8402 16.6203 61.8306 16.6691 61.8182C17.3201 61.6445 17.7057 60.978 17.5314 60.3302C17.4479 60.0185 17.2434 59.7531 16.9634 59.5913C16.6833 59.43 16.3499 59.3859 16.0375 59.4696C15.8398 59.5228 15.6592 59.6247 15.5115 59.7656C15.7734 58.7771 16.3999 58.415 16.3999 58.415L16.4016 58.4144ZM18.6158 64.4276L17.574 64.7054L17.4883 65.6367L15.8688 66.069L15.3264 65.3052L14.2847 65.583L17.1423 69.3624L18.0397 69.1243L18.6157 64.4282L18.6158 64.4276ZM17.3855 66.5714L17.2435 67.931L17.2321 67.9327L16.4261 66.8283L17.3855 66.5714Z" fill="#DDDFE9"/>
</g>
</svg>
