<svg width="65" height="65" viewBox="0 0 65 65" fill="none" xmlns="http://www.w3.org/2000/svg">
<g id="Group">
<path id="Vector" d="M32.4998 0C14.5508 0 -0.000244141 14.551 -0.000244141 32.5C-0.000244141 50.4503 14.5508 65 32.4998 65C50.4487 65 64.9998 50.4503 64.9998 32.5C64.9998 14.551 50.4487 0 32.4998 0ZM49.8587 49.8603C47.604 52.115 44.9781 53.8841 42.0552 55.1212C39.0289 56.4006 35.8144 57.0501 32.4996 57.0501C29.1848 57.0501 25.9704 56.401 22.9441 55.1212C20.0211 53.8841 17.3953 52.115 15.1405 49.8603C12.8858 47.6055 11.1151 44.9787 9.8786 42.0557C8.59817 39.0294 7.94969 35.8155 7.94969 32.5001C7.94969 29.1853 8.59822 25.9704 9.8786 22.9446C11.1146 20.0211 12.8852 17.3953 15.1405 15.14C17.3953 12.8857 20.0212 11.1151 22.9441 9.8791C25.9703 8.59867 29.1848 7.9502 32.4996 7.9502C35.8144 7.9502 39.0288 8.59873 42.0552 9.8791C44.9782 11.1151 47.604 12.8857 49.8587 15.14C52.1135 17.3947 53.8841 20.0207 55.1207 22.9446C56.4011 25.9704 57.0496 29.1853 57.0496 32.5001C57.0496 35.8149 56.401 39.0293 55.1207 42.0547C53.8841 44.9786 52.114 47.605 49.8587 49.8603ZM31.8646 58.3109V63.7231C29.0016 63.6666 26.2008 63.2273 23.4973 62.4129L25.17 57.262C27.3007 57.8914 29.5438 58.256 31.8646 58.311V58.3109ZM33.1344 58.3109C35.4553 58.2559 37.6984 57.8918 39.829 57.2619L41.5017 62.4128C38.7977 63.2278 35.9972 63.6665 33.1344 63.7229V58.3109ZM6.68668 32.0168H1.27501C1.31838 29.1342 1.74855 26.3131 2.55896 23.5914L7.70946 25.2641C7.08412 27.412 6.72909 29.6763 6.68673 32.0168H6.68668ZM6.69374 33.2856C6.76333 35.62 7.14258 37.8748 7.79211 40.0129L2.64122 41.6857C1.80711 38.973 1.35021 36.16 1.27907 33.2856H6.69374ZM33.1337 6.6894V1.27773C36.0284 1.33472 38.8596 1.78305 41.5909 2.61458L39.9181 7.76547C37.7607 7.11945 35.4869 6.74627 33.1337 6.68929V6.6894ZM31.8639 6.6894C29.5108 6.74639 27.2369 7.11957 25.0795 7.76508L23.4067 2.61419C26.138 1.7836 28.9692 1.33477 31.8639 1.27734V6.6894ZM58.3039 33.2856H63.719C63.6484 36.1607 63.192 38.9732 62.3569 41.6857L57.206 40.0129C57.855 37.8748 58.2353 35.6195 58.3039 33.2856H58.3039ZM58.3109 32.0168C58.2676 29.6773 57.9135 27.413 57.2877 25.2641L62.4382 23.5914C63.2486 26.3141 63.6793 29.1342 63.7221 32.0168H58.3109ZM62.0523 22.38L56.9023 24.0538C56.1458 21.8681 55.105 19.8167 53.8226 17.9416L58.2044 14.7585C59.4127 16.5043 60.4405 18.3704 61.2746 20.3442C61.5585 21.0169 61.8172 21.6947 62.0522 22.3801L62.0523 22.38ZM57.4616 13.7297L53.0801 16.9123C51.6933 15.0847 50.069 13.4472 48.252 12.0458L51.4351 7.66437C52.536 8.50655 53.5875 9.42389 54.5799 10.4168C55.6243 11.4602 56.5845 12.5657 57.4614 13.7296L57.4616 13.7297ZM50.4124 6.91351L47.2292 11.2959C45.3588 9.99374 43.3093 8.93318 41.1237 8.15908L42.7964 3.0091C43.4212 3.22746 44.0405 3.46397 44.6528 3.72318C46.6927 4.58554 48.6166 5.65415 50.4124 6.91341V6.91351ZM22.1985 3.00923L23.8713 8.15921C21.6867 8.93332 19.6361 9.99387 17.7657 11.296L14.5826 6.91416C16.3784 5.65391 18.3028 4.5853 20.3417 3.72393C20.9544 3.46371 21.5742 3.22769 22.1985 3.00933V3.00923ZM10.4145 10.4175C11.407 9.42499 12.4574 8.50714 13.5593 7.66501L16.7425 12.0465C14.9255 13.4475 13.3011 15.0849 11.9143 16.9129L7.53287 13.7303C8.41087 12.5659 9.37102 11.4605 10.4144 10.4176L10.4145 10.4175ZM6.79067 14.7585L11.1725 17.9416C9.89056 19.8162 8.84868 21.8681 8.09279 24.0538L2.9428 22.381C3.1778 21.6957 3.43651 21.0159 3.71993 20.3447C4.55556 18.3714 5.58286 16.5055 6.7906 14.7585H6.79067ZM3.03872 42.8897L8.18871 41.2169C8.96382 43.3783 10.0199 45.4082 11.3118 47.259L6.92997 50.4416C5.66115 48.6387 4.58742 46.7053 3.72064 44.6563C3.47403 44.0734 3.24862 43.4843 3.03883 42.8897H3.03872ZM7.68237 51.4649L12.0642 48.2807C13.4536 50.0781 15.0754 51.6868 16.8833 53.0615L13.7002 57.4438C12.5463 56.5729 11.4494 55.6182 10.4142 54.5829C9.42976 53.599 8.51947 52.5567 7.68237 51.4649ZM14.729 58.1877L17.9116 53.8059C19.7674 55.0782 21.7982 56.1141 23.9597 56.871L22.287 62.021C21.6329 61.7956 20.9833 61.5479 20.3425 61.2771C18.358 60.438 16.483 59.4041 14.7291 58.1877L14.729 58.1877ZM42.7079 62.0219L41.0351 56.8719C43.1965 56.1149 45.2274 55.0791 47.0832 53.8068L50.2664 58.1886C48.5119 59.4045 46.6364 60.4378 44.6525 61.278C44.0121 61.5488 43.362 61.7954 42.708 62.0219L42.7079 62.0219ZM54.5802 54.5829C53.5448 55.6183 52.4479 56.5724 51.2941 57.4438L48.1115 53.062C49.9195 51.6868 51.5412 50.0786 52.9306 48.2812L57.3125 51.4654C56.4758 52.5567 55.5651 53.5991 54.5802 54.5829ZM58.0643 50.4411L53.6825 47.2585C54.9746 45.4072 56.0306 43.3783 56.8056 41.2164L61.9556 42.8892C61.7458 43.4833 61.5199 44.0728 61.2738 44.6553C60.4069 46.7048 59.3333 48.6383 58.0645 50.4411H58.0643Z" fill="#F837FC"/>
<path id="Vector_2" d="M32.5009 10.0437C20.0992 10.0437 10.0437 20.0975 10.0437 32.5009C10.0437 44.9026 20.098 54.9581 32.5009 54.9581C44.9038 54.9581 54.9581 44.9028 54.9581 32.5009C54.9581 20.0981 44.9038 10.0437 32.5009 10.0437ZM47.4831 47.4818C43.482 51.4835 38.1606 53.6867 32.5009 53.6867C26.8412 53.6867 21.5202 51.484 17.52 47.4822C13.5178 43.4806 11.3141 38.1592 11.3141 32.5C11.3141 26.8408 13.5178 21.5193 17.52 17.5178C21.5211 13.5161 26.842 11.3124 32.5009 11.3124C38.1598 11.3124 43.4816 13.5161 47.4831 17.5178C51.4848 21.5189 53.6885 26.8403 53.6885 32.5C53.6885 38.1597 51.4848 43.4807 47.4831 47.4822V47.4818Z" fill="#F837FC"/>
<path id="Vector_3" d="M42.4971 29.3836C41.6186 29.3836 40.8042 29.7417 40.2161 30.3761H37.6804C37.1131 28.9893 36.0092 27.8869 34.6228 27.3185V24.7828C35.2577 24.1948 35.6153 23.3804 35.6153 22.5018C35.6153 20.7832 34.2168 19.3843 32.4986 19.3843C30.78 19.3843 29.382 20.7832 29.382 22.5018C29.382 23.3803 29.7401 24.1947 30.3745 24.7828V27.3185C28.9887 27.8858 27.8853 28.9892 27.3168 30.3761H24.7811C24.1931 29.7412 23.3787 29.3836 22.5002 29.3836C20.7816 29.3836 19.3835 30.7821 19.3835 32.5003C19.3835 34.218 20.782 35.6164 22.5002 35.6164C23.3787 35.6164 24.1931 35.2594 24.7811 34.6239H27.3168C27.8842 36.0107 28.988 37.1131 30.3745 37.6816V40.2178C29.7395 40.8048 29.382 41.6197 29.382 42.4982C29.382 44.2168 30.7804 45.6149 32.4986 45.6149C34.2172 45.6149 35.6153 44.2164 35.6153 42.4982C35.6153 41.6197 35.2572 40.8053 34.6228 40.2167V37.6821C36.0086 37.1147 37.112 36.0114 37.6804 34.6244H40.2161C40.8041 35.2599 41.6186 35.6169 42.4971 35.6169C44.2157 35.6169 45.6137 34.2185 45.6137 32.5008C45.6137 30.7822 44.2153 29.3836 42.4971 29.3836ZM42.4971 34.3469C41.9106 34.3469 41.372 34.0772 41.0195 33.6086L40.8289 33.354H36.7702L36.6305 33.7988C36.2069 35.1472 35.1479 36.2062 33.7993 36.6299L33.3545 36.7696V40.8292L33.6082 41.0199C34.0772 41.3714 34.347 41.9105 34.347 42.4969C34.347 43.5151 33.5184 44.3442 32.4997 44.3442C31.4809 44.3442 30.6524 43.5157 30.6524 42.4969C30.6524 41.9104 30.9222 41.3713 31.3912 41.0199L31.6448 40.8292V36.7696L31.2 36.6299C29.8516 36.2063 28.7926 35.1473 28.3688 33.7988L28.2292 33.354H24.1705L23.9798 33.6071C23.6268 34.0771 23.0882 34.3469 22.5023 34.3469C21.4836 34.3469 20.655 33.5184 20.655 32.5007C20.655 31.482 21.4835 30.6533 22.5023 30.6533C23.0888 30.6533 23.6274 30.9221 23.9798 31.3921L24.1705 31.6458H28.2292L28.3688 31.201C28.7925 29.852 29.8509 28.7935 31.2006 28.3698L31.6444 28.2301V24.1705L31.3907 23.9804C30.9217 23.6274 30.6519 23.0888 30.6519 22.5028C30.6519 21.4842 31.4805 20.6555 32.4992 20.6555C33.5179 20.6555 34.3465 21.4841 34.3465 22.5028C34.3465 23.0893 34.0767 23.6279 33.6077 23.9804L33.354 24.1705V28.2301L33.7988 28.3698C35.1473 28.7934 36.2063 29.8519 36.63 31.201L36.7697 31.6458H40.8284L41.019 31.3921C41.3721 30.9221 41.9106 30.6533 42.4966 30.6533C43.5153 30.6533 44.3439 31.4819 44.3439 32.5007C44.3444 33.5178 43.5158 34.3469 42.4971 34.3469L42.4971 34.3469Z" fill="#F837FC"/>
<path id="Vector_4" d="M32.4991 30.1541C31.2055 30.1541 30.1531 31.2065 30.1531 32.5001C30.1531 33.7936 31.2055 34.8456 32.4991 34.8456C33.7927 34.8456 34.8451 33.7936 34.8451 32.5001C34.8451 31.2065 33.7927 30.1541 32.4991 30.1541ZM32.4991 33.5758C31.9055 33.5758 31.4234 33.0926 31.4234 32.5001C31.4234 31.9065 31.9056 31.4234 32.4991 31.4234C33.0927 31.4234 33.5748 31.9065 33.5748 32.5001C33.5748 33.0932 33.0927 33.5758 32.4991 33.5758Z" fill="#F837FC"/>
</g>
</svg>
