<svg width="65" height="65" viewBox="0 0 65 65" fill="none" xmlns="http://www.w3.org/2000/svg">
<g id="Group">
<path id="Vector" d="M27.3281 5.14833C27.3281 7.98714 29.6484 10.2972 32.5008 10.2972C35.3533 10.2972 37.6736 7.98772 37.6736 5.14833C37.6736 2.30952 35.3533 0 32.5008 0C29.6484 0 27.3281 2.30952 27.3281 5.14833ZM32.5008 1.62485C34.4572 1.62485 36.0487 3.20559 36.0487 5.14833C36.0487 7.09179 34.4572 8.67181 32.5008 8.67181C30.5445 8.67181 28.953 7.09107 28.953 5.14833C28.953 3.20559 30.5445 1.62485 32.5008 1.62485Z" fill="#F837FC"/>
<path id="Vector_2" d="M57.0019 13.1696C56.998 11.7923 56.4578 10.4956 55.4818 9.51912C54.5053 8.5426 53.2091 8.00309 51.8314 7.99902H51.8161C50.4422 7.99902 49.1524 8.53291 48.1832 9.502C47.2101 10.4745 46.6761 11.7708 46.6802 13.1497C46.6836 14.5269 47.2237 15.8237 48.2003 16.8001C49.1769 17.7766 50.473 18.3167 51.8507 18.3202H51.8655C53.2393 18.3202 54.5292 17.7869 55.4984 16.8172C56.4715 15.8447 57.006 14.5485 57.0019 13.1696H57.0019ZM54.3495 15.6684C53.6842 16.3332 52.7949 16.6999 51.8553 16.6954C50.9105 16.6931 50.0202 16.3219 49.3496 15.6514C48.6786 14.9804 48.3079 14.0905 48.3057 13.1457C48.3028 12.2021 48.6673 11.3163 49.3326 10.6515C49.9952 9.98897 50.8771 9.62455 51.8167 9.62455H51.8263C52.7717 9.62739 53.6614 9.99804 54.3325 10.6685C55.0029 11.3395 55.3741 12.2294 55.3764 13.1746C55.3792 14.1177 55.0143 15.0035 54.3495 15.6684H54.3495Z" fill="#F837FC"/>
<path id="Vector_3" d="M64.9998 32.5003C64.9998 29.6479 62.6903 27.3276 59.8515 27.3276C57.0127 27.3276 54.7031 29.6479 54.7031 32.5003C54.7031 35.3528 57.0127 37.673 59.8521 37.673C62.6903 37.673 64.9998 35.3528 64.9998 32.5003ZM56.3278 32.5003C56.3278 30.544 57.9086 28.9525 59.8513 28.9525C61.7941 28.9525 63.3748 30.544 63.3748 32.5003C63.3748 34.4567 61.7941 36.0482 59.8513 36.0482C57.9086 36.0482 56.3278 34.4567 56.3278 32.5003Z" fill="#F837FC"/>
<path id="Vector_4" d="M51.8175 57.0008H51.8328C53.21 56.9968 54.5068 56.4567 55.4833 55.4807C56.4598 54.5042 56.9993 53.208 57.0034 51.8303C57.0073 50.4508 56.4735 49.1551 55.5004 48.182C54.5278 47.2095 53.2617 46.6722 51.8527 46.679C50.4755 46.6824 49.1787 47.2225 48.2022 48.1991C47.2257 49.1756 46.6856 50.4718 46.6822 51.8495C46.6782 53.2285 47.2121 54.5241 48.1851 55.4972C49.1537 56.4669 50.4436 57.0008 51.8174 57.0008H51.8175ZM49.351 49.3485C50.022 48.6775 50.9119 48.3068 51.8567 48.3046H51.8669C52.8066 48.3046 53.6885 48.669 54.351 49.3315C55.0158 49.9963 55.3808 50.8822 55.3779 51.8257C55.3751 52.7711 55.0044 53.6608 54.334 54.3318C53.6629 55.0023 52.7731 55.3735 51.8278 55.3758H51.8182C50.8785 55.3758 49.9966 55.0114 49.3341 54.3488C48.6693 53.6841 48.3049 52.7981 48.3072 51.8546C48.3094 50.9093 48.6801 50.0195 49.3511 49.3485H49.351Z" fill="#F837FC"/>
<path id="Vector_5" d="M27.3281 59.8515C27.3281 62.6903 29.6484 64.9998 32.5008 64.9998C35.3533 64.9998 37.6736 62.6903 37.6736 59.8515C37.6736 57.0126 35.3533 54.7031 32.5008 54.7031C29.6484 54.7031 27.3281 57.0126 27.3281 59.8515ZM36.0487 59.8515C36.0487 61.7943 34.4572 63.3749 32.5008 63.3749C30.5445 63.3749 28.953 61.7942 28.953 59.8515C28.953 57.908 30.5445 56.328 32.5008 56.328C34.4572 56.328 36.0487 57.9087 36.0487 59.8515Z" fill="#F837FC"/>
<path id="Vector_6" d="M7.99961 51.8296C8.00358 53.2068 8.5437 54.5036 9.51971 55.48C10.4962 56.4566 11.7924 56.9961 13.1702 57.0001H13.1855C14.5593 57.0001 15.8492 56.4663 16.8184 55.4972C17.7915 54.5246 18.3254 53.2284 18.3213 51.8495C18.3179 50.4723 17.7778 49.1755 16.8012 48.199C15.8246 47.2226 14.5286 46.6824 13.1508 46.679C11.807 46.692 10.4762 47.2089 9.5031 48.1819C8.52998 49.1545 7.99547 50.4507 7.99953 51.8296H7.99961ZM10.652 49.3307C11.3145 48.6682 12.1965 48.3038 13.1361 48.3038H13.1463C14.091 48.3061 14.9814 48.6773 15.652 49.3477C16.323 50.0188 16.6937 50.9086 16.6959 51.8534C16.6987 52.7971 16.3343 53.6829 15.669 54.3477C15.0064 55.0102 14.1245 55.3746 13.1849 55.3746H13.1753C12.2299 55.3718 11.3402 55.0011 10.6691 54.3306C9.99865 53.6596 9.62743 52.7698 9.62516 51.8245C9.62233 50.8815 9.98732 49.9957 10.6521 49.3307H10.652Z" fill="#F837FC"/>
<path id="Vector_7" d="M5.1481 37.6721C7.98692 37.6721 10.297 35.3518 10.297 32.4994C10.297 29.6469 7.9875 27.3267 5.1481 27.3267C2.30929 27.3267 -0.000244141 29.6469 -0.000244141 32.4994C-0.000244141 35.3518 2.30929 37.6721 5.1481 37.6721ZM5.1481 28.9515C7.09157 28.9515 8.67159 30.543 8.67159 32.4994C8.67159 34.4557 7.09085 36.0472 5.1481 36.0472C3.20536 36.0472 1.62461 34.4557 1.62461 32.4994C1.62461 30.543 3.20536 28.9515 5.1481 28.9515Z" fill="#F837FC"/>
<path id="Vector_8" d="M13.136 18.3202H13.1507C14.5279 18.3168 15.8247 17.7767 16.8012 16.8001C17.7776 15.8235 18.3178 14.5274 18.3213 13.1497C18.3252 11.7708 17.7913 10.4751 16.8183 9.502C15.8491 8.53228 14.5592 7.99902 13.1854 7.99902H13.1701C11.7929 8.00299 10.4961 8.54311 9.51963 9.51912C8.54311 10.4956 8.0036 11.7918 7.99953 13.1696C7.99557 14.549 8.52944 15.8447 9.50251 16.8178C10.4728 17.787 11.7621 18.3202 13.136 18.3202H13.136ZM10.6689 10.6679C11.3399 9.99746 12.2297 9.62624 13.175 9.62397H13.1846C14.1243 9.62397 15.0062 9.98839 15.6687 10.6509C16.3335 11.3157 16.6979 12.2016 16.6957 13.1451C16.6934 14.0899 16.3222 14.9802 15.6517 15.6508C14.9807 16.3219 14.0908 16.6925 13.146 16.6948H13.1358C12.1961 16.6948 11.3142 16.3304 10.6517 15.6678C9.98694 15.003 9.62194 14.1171 9.62478 13.1736C9.62705 12.2288 9.99827 11.339 10.6687 10.6679H10.6689Z" fill="#F837FC"/>
<path id="Vector_9" d="M19.1949 9.40991C19.3292 9.40991 19.4647 9.37704 19.59 9.30676C21.2755 8.36595 23.0676 7.61053 24.9163 7.05962C25.3465 6.93154 25.5913 6.47927 25.4632 6.04911C25.3352 5.6178 24.8812 5.37525 24.4527 5.5022C22.4895 6.08651 20.5868 6.88961 18.7976 7.88818C18.4054 8.10695 18.2654 8.60173 18.4842 8.99335C18.6332 9.26029 18.9098 9.40992 19.1949 9.40992L19.1949 9.40991Z" fill="#F837FC"/>
<path id="Vector_10" d="M40.1433 5.37875C39.7115 5.25746 39.2626 5.5074 39.1402 5.9387C39.0178 6.37057 39.2683 6.81944 39.7001 6.94186C41.5586 7.46951 43.3603 8.20232 45.0554 9.11935C45.1784 9.18623 45.311 9.2174 45.4413 9.2174C45.7304 9.2174 46.0098 9.06325 46.1566 8.79177C46.3703 8.3973 46.2235 7.90367 45.829 7.69058C44.029 6.71633 42.1162 5.93877 40.1433 5.37873L40.1433 5.37875Z" fill="#F837FC"/>
<path id="Vector_11" d="M57.8395 24.8157C57.9444 25.1688 58.268 25.3966 58.6177 25.3966C58.6948 25.3966 58.7724 25.3853 58.8495 25.3626C59.2797 25.2345 59.5245 24.7823 59.3964 24.3521C58.8121 22.3889 58.009 20.4862 57.0104 18.697C56.7916 18.3048 56.2963 18.1648 55.9052 18.3836C55.5131 18.6023 55.3731 19.0971 55.5918 19.4887C56.5332 21.1742 57.2892 22.967 57.8395 24.8157L57.8395 24.8157Z" fill="#F837FC"/>
<path id="Vector_12" d="M58.9609 39.0386C58.5302 38.9162 58.0808 39.1672 57.9578 39.5985C57.4301 41.4564 56.6973 43.2581 55.7803 44.9538C55.5666 45.3482 55.7134 45.8419 56.1079 46.0549C56.2309 46.1218 56.3635 46.153 56.4938 46.153C56.7829 46.153 57.0623 45.9988 57.2091 45.7274C58.1833 43.9274 58.9609 42.0145 59.5209 40.0422C59.6434 39.6098 59.3928 39.1609 58.961 39.0385L58.9609 39.0386Z" fill="#F837FC"/>
<path id="Vector_13" d="M45.4112 55.4891C43.7257 56.4299 41.9336 57.1853 40.0848 57.7362C39.6547 57.8643 39.4098 58.3165 39.5379 58.7467C39.6428 59.0998 39.9664 59.3276 40.3161 59.3276C40.3932 59.3276 40.4708 59.3163 40.5479 59.2936C42.5111 58.7093 44.4138 57.9062 46.203 56.9076C46.5952 56.6889 46.7352 56.1941 46.5164 55.8025C46.2977 55.4103 45.8035 55.2703 45.4113 55.489L45.4112 55.4891Z" fill="#F837FC"/>
<path id="Vector_14" d="M19.9454 55.6777C19.551 55.4646 19.0579 55.6109 18.8442 56.0053C18.6306 56.3998 18.7774 56.8934 19.1718 57.1065C20.9718 58.0808 22.8847 58.8583 24.857 59.4184C24.9312 59.4393 25.0061 59.4495 25.0792 59.4495C25.4334 59.4495 25.7587 59.216 25.8601 58.8584C25.9826 58.4265 25.7321 57.9777 25.3002 57.8553C23.4423 57.3282 21.6406 56.5954 19.9455 55.6778L19.9454 55.6777Z" fill="#F837FC"/>
<path id="Vector_15" d="M7.16127 39.9818C7.03261 39.551 6.57865 39.3056 6.15075 39.4349C5.72059 39.563 5.47575 40.0152 5.60384 40.4454C6.18815 42.4086 6.99125 44.3113 7.98983 46.1005C8.13888 46.3669 8.4149 46.5171 8.69997 46.5171C8.83429 46.5171 8.96975 46.4842 9.095 46.4139C9.48719 46.1952 9.62719 45.7004 9.40842 45.3087C8.46761 43.6227 7.71161 41.8305 7.16128 39.9818L7.16127 39.9818Z" fill="#F837FC"/>
<path id="Vector_16" d="M6.03976 25.7593C6.11401 25.7803 6.18881 25.7905 6.26192 25.7905C6.61614 25.7905 6.94146 25.557 7.04291 25.1994C7.57056 23.3415 8.30337 21.5398 9.22041 19.8441C9.43408 19.4497 9.28729 18.956 8.89283 18.7429C8.49836 18.5287 8.00472 18.6761 7.79163 19.0705C6.81738 20.8705 6.03982 22.7833 5.47978 24.7557C5.35736 25.1875 5.60786 25.637 6.03973 25.7594L6.03976 25.7593Z" fill="#F837FC"/>
<path id="Vector_17" d="M49.3534 41.1549V23.8458C49.3534 19.4042 45.7398 15.791 41.2986 15.791H23.6993C19.2577 15.791 15.6445 19.4046 15.6445 23.8458V41.1549C15.6445 45.5965 19.2581 49.2096 23.6993 49.2096H41.2986C45.7397 49.2096 49.3534 45.5966 49.3534 41.1549ZM41.2986 47.5846H23.6993C20.1536 47.5846 17.2695 44.7004 17.2695 41.1549V23.8458C17.2695 20.3001 20.1538 17.416 23.6993 17.416H41.2986C44.8443 17.416 47.7284 20.3002 47.7284 23.8458V41.1549C47.7284 44.7005 44.8442 47.5846 41.2986 47.5846Z" fill="#F837FC"/>
<path id="Vector_18" d="M25.3625 21.1157C22.9946 21.1157 21.0681 23.028 21.0681 25.3783C21.0681 27.7286 22.9945 29.6409 25.3625 29.6409C27.7303 29.6409 29.6568 27.7286 29.6568 25.3783C29.6568 23.028 27.7305 21.1157 25.3625 21.1157ZM25.3625 28.0164C23.8905 28.0164 22.6931 26.8331 22.6931 25.3787C22.6931 23.9245 23.8907 22.741 25.3625 22.741C26.8344 22.741 28.0318 23.9244 28.0318 25.3787C28.0318 26.8329 26.8343 28.0164 25.3625 28.0164Z" fill="#F837FC"/>
<path id="Vector_19" d="M39.6376 21.1157C37.2698 21.1157 35.3433 23.028 35.3433 25.3783C35.3433 27.7286 37.2696 29.6409 39.6376 29.6409C42.0055 29.6409 43.932 27.7286 43.932 25.3783C43.932 23.028 42.0056 21.1157 39.6376 21.1157ZM39.6376 28.0164C38.1657 28.0164 36.9683 26.8331 36.9683 25.3787C36.9683 23.9245 38.1658 22.741 39.6376 22.741C41.1095 22.741 42.307 23.9244 42.307 25.3787C42.307 26.8329 41.1094 28.0164 39.6376 28.0164Z" fill="#F837FC"/>
<path id="Vector_20" d="M25.3625 35.3584C22.9946 35.3584 21.0681 37.2707 21.0681 39.621C21.0681 41.9713 22.9945 43.8835 25.3625 43.8835C27.7303 43.8835 29.6568 41.9713 29.6568 39.621C29.6568 37.2707 27.7305 35.3584 25.3625 35.3584ZM25.3625 42.2591C23.8905 42.2591 22.6931 41.0757 22.6931 39.6214C22.6931 38.1671 23.8907 36.9837 25.3625 36.9837C26.8344 36.9837 28.0318 38.1671 28.0318 39.6214C28.0318 41.0757 26.8343 42.2591 25.3625 42.2591Z" fill="#F837FC"/>
<path id="Vector_21" d="M39.6376 35.3584C37.2698 35.3584 35.3433 37.2707 35.3433 39.621C35.3433 41.9713 37.2696 43.8835 39.6376 43.8835C42.0055 43.8835 43.932 41.9713 43.932 39.621C43.932 37.2707 42.0056 35.3584 39.6376 35.3584ZM39.6376 42.2591C38.1657 42.2591 36.9683 41.0757 36.9683 39.6214C36.9683 38.1671 38.1658 36.9837 39.6376 36.9837C41.1095 36.9837 42.307 38.1671 42.307 39.6214C42.307 41.0757 41.1094 42.2591 39.6376 42.2591Z" fill="#F837FC"/>
</g>
</svg>
