<svg width="65" height="65" viewBox="0 0 65 65" fill="none" xmlns="http://www.w3.org/2000/svg">
<g id="Group">
<path id="Vector" d="M11.5316 40.4529L5.36903 46.6163C4.61036 47.3741 4.19287 48.3808 4.19287 49.454C4.19287 51.6664 5.99286 53.4674 8.20717 53.4674C9.03324 53.4674 9.81858 53.2137 10.4832 52.7536V56.6125H12.58V52.7536C13.2455 53.2137 14.03 53.4674 14.856 53.4674C17.0702 53.4674 18.8703 51.6664 18.8703 49.454C18.8703 48.3813 18.4528 47.3741 17.6941 46.6158L11.5316 40.4529ZM14.856 51.3706C14.3445 51.3706 13.8619 51.1712 13.5007 50.8099L11.5316 48.84L9.56258 50.8099C9.19986 51.1712 8.71872 51.3706 8.20722 51.3706C7.14948 51.3706 6.28969 50.5108 6.28969 49.454C6.28969 48.95 6.49422 48.4562 6.8518 48.0987L11.5317 43.4175L16.2129 48.0987C16.5691 48.4563 16.7736 48.9491 16.7736 49.454C16.7736 50.5108 15.9138 51.3706 14.856 51.3706H14.856Z" fill="#F837FC"/>
<path id="Vector_2" d="M4.19287 37.7415H6.28964V39.8382H4.19287V37.7415Z" fill="#F837FC"/>
<path id="Vector_3" d="M16.7729 58.7095H18.8697V60.8062H16.7729V58.7095Z" fill="#F837FC"/>
<path id="Vector_4" d="M59.8503 42.7006L49.2742 39.3964V37.3361L47.1774 38.0354V35.8632C49.4942 34.3481 51.2283 32.023 51.9883 29.293C54.5854 28.9827 56.6129 26.7914 56.6129 24.1129V15.7258C56.6129 7.05463 49.5583 0 40.8871 0C32.2159 0 25.1613 7.05463 25.1613 15.7258V24.1129C25.1613 26.7914 27.1888 28.9828 29.7859 29.2922C30.5451 32.0231 32.28 34.3473 34.5968 35.8624V38.0345L32.5 37.3353V39.3955L23.0645 42.3436V36.6936C23.0645 34.9595 21.6534 33.5484 19.9194 33.5484H3.14516C1.41107 33.5484 0 34.9595 0 36.6936V61.8548C0 63.5889 1.41107 65 3.14516 65H65V49.7055C65 46.4776 62.9304 43.6623 59.8503 42.701V42.7006ZM54.3692 43.1841L51.5826 50.6174L49.2742 51.7715V55.2635L44.4989 62.9032H44.2378L46.9459 47.8556L49.2734 48.6316V41.5914L54.3692 43.1841ZM47.1775 40.2454V45.7232L43.6079 44.5335C43.87 44.0744 44.0324 43.5502 44.0324 42.9838C44.0324 42.4174 43.87 41.8933 43.6079 41.4341L47.1775 40.2454ZM41.9356 42.9838C41.9356 43.5623 41.4648 44.0322 40.8872 44.0322C40.3097 44.0322 39.8388 43.5623 39.8388 42.9838C39.8388 42.4053 40.3097 41.9354 40.8872 41.9354C41.4648 41.9354 41.9356 42.4053 41.9356 42.9838ZM39.8388 46.1856V62.9035H39.6689L36.8748 47.1729L39.8388 46.1856ZM41.9356 46.1856L44.9361 47.1858L42.1074 62.9032H41.9357L41.9356 46.1856ZM52.3755 27.0786C52.3975 26.7903 52.4195 26.5029 52.4195 26.2095V21.1603C53.6368 21.5942 54.5163 22.7474 54.5163 24.1127C54.5163 25.4933 53.6158 26.6569 52.3755 27.0786L52.3755 27.0786ZM40.8872 2.09705C48.4019 2.09705 54.5162 8.21136 54.5162 15.7261V19.9468C53.9041 19.4835 53.1983 19.1362 52.4195 18.978V15.7261H50.3227V17.8042C46.8167 17.6586 43.3959 16.6374 40.379 14.8265L38.7904 13.8745V15.7261C38.7904 16.6425 38.9206 17.5589 39.17 18.4401C36.5125 17.7231 33.973 16.6453 31.6015 15.2225L29.355 13.8726V18.9774C28.5762 19.1365 27.8703 19.4828 27.2582 19.9462V15.7259C27.2582 8.2112 33.3725 2.09689 40.8872 2.09689V2.09705ZM27.2582 24.1132C27.2582 22.7484 28.1376 21.5951 29.355 21.1608V26.2099C29.355 26.5034 29.377 26.7908 29.399 27.0791C28.1586 26.6574 27.2582 25.4939 27.2582 24.1132L27.2582 24.1132ZM31.4517 26.2099V17.5565C34.3367 19.1586 37.4369 20.2982 40.6817 20.9469L42.7837 21.3672L41.7142 19.2283C41.4563 18.7125 41.256 18.1672 41.1175 17.6066C43.9903 18.9975 47.1256 19.781 50.3222 19.9013L50.3227 26.2098C50.3227 31.4129 46.0893 35.6453 40.8872 35.6453C35.685 35.6453 31.4517 31.4129 31.4517 26.2098L31.4517 26.2099ZM36.6937 36.9414C37.9957 37.452 39.4069 37.7422 40.8872 37.7422C42.3675 37.7422 43.7787 37.452 45.0808 36.9414V38.7339L41.6042 39.8932L41.6178 39.933C41.3819 39.8768 41.1399 39.8389 40.8872 39.8389C40.6344 39.8389 40.3925 39.8768 40.1575 39.9335L40.1711 39.8937L36.6937 38.7339L36.6937 36.9414ZM34.5969 40.2456L38.1666 41.4354C37.9045 41.8936 37.7421 42.4178 37.7421 42.9841C37.7421 43.5504 37.9045 44.0746 38.1666 44.5338L34.5969 45.7226V40.2456ZM34.8651 47.8446L37.5398 62.903H37.2759L32.5001 55.2633V51.7713L30.1918 50.6171L27.4051 43.1862L32.5 41.5925V48.6326L34.8651 47.8446ZM25.4006 43.8134L28.5177 52.1251L30.4034 53.0673V55.8656L34.8015 62.9033H22.8709C22.9893 62.5743 23.0647 62.2237 23.0647 61.8549V44.5439L25.4006 43.8134ZM17.8227 62.9036H3.14532C2.56777 62.9036 2.09693 62.4337 2.09693 61.8552V36.6939C2.09693 36.1155 2.56777 35.6455 3.14532 35.6455H19.9195C20.4971 35.6455 20.9679 36.1155 20.9679 36.6939V61.8552C20.9679 62.4337 20.4971 62.9036 19.9195 62.9036H17.8227ZM62.9034 62.9036H46.9727L51.3708 55.8659V53.0676L53.2559 52.125L56.3739 43.8113L59.2247 44.7024C61.4249 45.3905 62.9029 47.4002 62.9029 49.7057L62.9034 62.9036Z" fill="#F837FC"/>
<path id="Vector_5" d="M36.6939 23.064C36.6939 23.643 36.2245 24.1124 35.6456 24.1124C35.0666 24.1124 34.5972 23.643 34.5972 23.064C34.5972 22.4851 35.0666 22.0156 35.6456 22.0156C36.2245 22.0156 36.6939 22.4851 36.6939 23.064Z" fill="#F837FC"/>
<path id="Vector_6" d="M47.1788 23.064C47.1788 23.643 46.7094 24.1124 46.1304 24.1124C45.5515 24.1124 45.082 23.643 45.082 23.064C45.082 22.4851 45.5515 22.0156 46.1304 22.0156C46.7094 22.0156 47.1788 22.4851 47.1788 23.064Z" fill="#F837FC"/>
<path id="Vector_7" d="M45.0807 28.3062H42.9839C42.9839 29.4626 42.0436 30.4029 40.8872 30.4029C39.7307 30.4029 38.7904 29.4626 38.7904 28.3062H36.6936C36.6936 30.6187 38.5746 32.4997 40.8872 32.4997C43.1997 32.4997 45.0807 30.6187 45.0807 28.3062Z" fill="#F837FC"/>
</g>
</svg>
