<svg width="120" height="30" viewBox="0 0 120 30" fill="none" xmlns="http://www.w3.org/2000/svg">
<g id="copy1" clip-path="url(#clip0_64_938)">
<g id="Group">
<path id="Vector" d="M43.0435 5.78635C41.913 5.69733 40.5217 5.60831 40.4348 5.25223C40.3478 4.89614 40.8696 4.36202 41.2174 4.00593C41.4783 3.73887 41.6522 3.56083 41.6522 3.47181C41.6522 3.38279 41.3913 3.56083 41.1304 3.82789C40.6087 4.273 39.913 4.98516 39.7391 4.54006C39.6522 4.273 39.5652 3.11573 39.4783 2.1365C39.4783 1.06825 39.3913 0 39.3044 0C39.2174 0 39.0435 0.979228 38.9565 1.95846C38.8696 3.02671 38.6957 4.09496 38.5217 4.45104C38.3478 4.89614 37.5652 4.273 37.1304 3.82789C36.8696 3.64985 36.6957 3.47181 36.6957 3.47181C36.6957 3.47181 36.7826 3.64985 36.9565 3.91691C37.3913 4.36202 37.913 4.98516 37.8261 5.34125C37.7391 5.60831 36.2609 5.69733 34.9565 5.78635C34.087 5.78635 33.3044 5.87537 33.3044 5.96439C33.3044 6.05341 34.087 6.14243 34.9565 6.14243C36.2609 6.23145 37.8261 6.32047 37.913 6.58754V6.67656C37.6522 6.8546 37.2174 7.21068 36.7826 7.65579C31.3913 12.1068 29.3044 18.2493 28.5217 20.7418C28.4348 21.0979 28.3478 21.276 28.2609 21.454L24.7826 12.5519H21.5652L22.8696 15.8457L20.2609 22.2552L16.6957 12.5519H13.3044L19.913 30L24.4348 19.9407L28.3478 29.911L33.7391 14.9555C34.087 14.1543 34.5217 13.2641 34.9565 12.3739C35.7391 10.8605 36.6957 9.34718 37.4783 8.18991C37.4783 8.18991 37.4783 8.18991 37.5652 8.18991C37.6522 8.10089 37.7391 8.01187 37.8261 8.01187C38.087 7.74481 38.4348 7.38872 38.6957 7.47774C38.7826 7.47774 38.8696 8.18991 38.9565 8.90208C39.0435 9.97033 39.2174 11.1276 39.3913 11.2166C39.4783 10.5045 39.5652 9.79228 39.5652 9.25816C39.6522 8.27893 39.7391 7.65579 39.913 7.47774C40 7.12166 40.5217 7.65579 40.8696 8.01187C41.1304 8.27893 41.3044 8.45697 41.3913 8.36795C41.4783 8.27893 41.3044 8.18991 41.1304 7.92285C40.7826 7.56677 40.3478 7.03264 40.5217 6.67656C40.6957 6.32047 42 6.32047 43.0435 6.23145C43.8261 6.23145 44.5217 6.14243 44.5217 6.05341C44.5217 5.87537 43.8261 5.87537 43.0435 5.78635Z" fill="url(#paint0_linear_64_938)"/>
<path id="Vector_2" d="M43.0435 5.78635C41.913 5.69733 40.5217 5.60831 40.4348 5.25223C40.3478 4.89614 40.8696 4.36202 41.2174 4.00593C41.4783 3.73887 41.6522 3.56083 41.6522 3.47181C41.6522 3.38279 41.3913 3.56083 41.1304 3.82789C40.6087 4.273 39.913 4.98516 39.7391 4.54006C39.6522 4.273 39.5652 3.11573 39.4783 2.1365C39.4783 1.06825 39.3913 0 39.3044 0C39.2174 0 39.0435 0.979228 38.9565 1.95846C38.8696 3.02671 38.6957 4.09496 38.5217 4.45104C38.3478 4.89614 37.5652 4.273 37.1304 3.82789C36.8696 3.64985 36.6957 3.47181 36.6957 3.47181C36.6957 3.47181 36.7826 3.64985 36.9565 3.91691C37.3913 4.36202 37.913 4.98516 37.8261 5.34125C37.7391 5.60831 36.2609 5.69733 34.9565 5.78635C34.087 5.78635 33.3044 5.87537 33.3044 5.96439C33.3044 6.05341 34.087 6.14243 34.9565 6.14243C36.2609 6.23145 37.8261 6.32047 37.913 6.58754V6.67656C37.6522 6.8546 37.2174 7.21068 36.7826 7.65579C31.3913 12.1068 29.3044 18.2493 28.5217 20.7418C28.4348 21.0979 28.3478 21.276 28.2609 21.454L24.7826 12.5519H21.5652L22.8696 15.8457L20.2609 22.2552L16.6957 12.5519H13.3044L19.913 30L24.4348 19.9407L28.3478 29.911L33.7391 14.9555C34.087 14.1543 34.5217 13.2641 34.9565 12.3739C35.7391 10.8605 36.6957 9.34718 37.4783 8.18991C37.4783 8.18991 37.4783 8.18991 37.5652 8.18991C37.6522 8.10089 37.7391 8.01187 37.8261 8.01187C38.087 7.74481 38.4348 7.38872 38.6957 7.47774C38.7826 7.47774 38.8696 8.18991 38.9565 8.90208C39.0435 9.97033 39.2174 11.1276 39.3913 11.2166C39.4783 10.5045 39.5652 9.79228 39.5652 9.25816C39.6522 8.27893 39.7391 7.65579 39.913 7.47774C40 7.12166 40.5217 7.65579 40.8696 8.01187C41.1304 8.27893 41.3044 8.45697 41.3913 8.36795C41.4783 8.27893 41.3044 8.18991 41.1304 7.92285C40.7826 7.56677 40.3478 7.03264 40.5217 6.67656C40.6957 6.32047 42 6.32047 43.0435 6.23145C43.8261 6.23145 44.5217 6.14243 44.5217 6.05341C44.5217 5.87537 43.8261 5.87537 43.0435 5.78635Z" fill="url(#paint1_linear_64_938)"/>
<path id="Vector_3" d="M37.5652 12.4629V29.2878H40.7826V12.4629H37.6522H37.5652Z" fill="url(#paint2_linear_64_938)"/>
<path id="Vector_4" d="M37.5652 12.4629V29.2878H40.7826V12.4629H37.6522H37.5652Z" fill="url(#paint3_linear_64_938)"/>
<path id="Vector_5" d="M55.7391 22.1661L44.8696 11.6616H44.6956V29.2877H48L47.913 19.2284L58.7826 29.9109H58.8696V12.5518H55.6522L55.7391 22.1661Z" fill="url(#paint4_linear_64_938)"/>
<path id="Vector_6" d="M55.7391 22.1661L44.8696 11.6616H44.6956V29.2877H48L47.913 19.2284L58.7826 29.9109H58.8696V12.5518H55.6522L55.7391 22.1661Z" fill="url(#paint5_linear_64_938)"/>
<path id="Vector_7" d="M61.1304 15.6675H65.5652V29.2877H68.7826V15.6675H73.0435V12.5518H61.1304V15.6675Z" fill="url(#paint6_linear_64_938)"/>
<path id="Vector_8" d="M61.1304 15.6675H65.5652V29.2877H68.7826V15.6675H73.0435V12.5518H61.1304V15.6675Z" fill="url(#paint7_linear_64_938)"/>
<path id="Vector_9" d="M85.7391 23.2343C85.7391 23.7684 85.5652 24.3025 85.3043 24.7476C85.0435 25.2817 84.6087 25.6378 84.087 25.9939C83.5652 26.261 82.9565 26.439 82.2609 26.439C81.6522 26.439 81.0435 26.261 80.5217 25.9939C80 25.7268 79.5652 25.2817 79.3043 24.7476C78.9565 24.2135 78.8696 23.7684 78.8696 23.2343V12.5518H75.5652V23.3233C75.5652 24.5696 75.8261 25.7268 76.4348 26.617C77.0435 27.5963 77.8261 28.3084 78.8696 28.8426C79.913 29.3767 81.0435 29.6437 82.2609 29.6437C83.4783 29.6437 84.6087 29.3767 85.6522 28.8426C86.6956 28.3084 87.4783 27.5072 88.087 26.617C88.6957 25.6378 88.9565 24.5696 88.9565 23.3233V12.5518H85.7391V23.2343Z" fill="url(#paint8_linear_64_938)"/>
<path id="Vector_10" d="M85.7391 23.2343C85.7391 23.7684 85.5652 24.3025 85.3043 24.7476C85.0435 25.2817 84.6087 25.6378 84.087 25.9939C83.5652 26.261 82.9565 26.439 82.2609 26.439C81.6522 26.439 81.0435 26.261 80.5217 25.9939C80 25.7268 79.5652 25.2817 79.3043 24.7476C78.9565 24.2135 78.8696 23.7684 78.8696 23.2343V12.5518H75.5652V23.3233C75.5652 24.5696 75.8261 25.7268 76.4348 26.617C77.0435 27.5963 77.8261 28.3084 78.8696 28.8426C79.913 29.3767 81.0435 29.6437 82.2609 29.6437C83.4783 29.6437 84.6087 29.3767 85.6522 28.8426C86.6956 28.3084 87.4783 27.5072 88.087 26.617C88.6957 25.6378 88.9565 24.5696 88.9565 23.3233V12.5518H85.7391V23.2343Z" fill="url(#paint9_linear_64_938)"/>
<path id="Vector_11" d="M112.609 11.751H112.435L105.043 29.2881L100.957 22.8786C102.609 21.4542 103.304 20.475 103.304 17.9824C103.304 16.291 102.87 15.2228 101.826 14.0655C101.043 13.1753 99.3913 12.3741 97.2174 12.3741H92.0869V20.8311V29.2881H95.3913V15.4008H96.9565C98.3478 15.4008 99.5652 16.202 99.8261 18.0714C99.8261 19.3177 99.1304 20.386 98.7826 20.7421L96.7826 22.6115L100.957 29.3771H104.957H108.174L109.304 26.5284L116.174 29.3771H119.913L118.696 26.4394L112.609 11.751ZM110.609 23.4127L112.348 19.0507L114.522 24.837L110.609 23.4127Z" fill="url(#paint10_linear_64_938)"/>
<path id="Vector_12" d="M112.609 11.751H112.435L105.043 29.2881L100.957 22.8786C102.609 21.4542 103.304 20.475 103.304 17.9824C103.304 16.291 102.87 15.2228 101.826 14.0655C101.043 13.1753 99.3913 12.3741 97.2174 12.3741H92.0869V20.8311V29.2881H95.3913V15.4008H96.9565C98.3478 15.4008 99.5652 16.202 99.8261 18.0714C99.8261 19.3177 99.1304 20.386 98.7826 20.7421L96.7826 22.6115L100.957 29.3771H104.957H108.174L109.304 26.5284L116.174 29.3771H119.913L118.696 26.4394L112.609 11.751ZM110.609 23.4127L112.348 19.0507L114.522 24.837L110.609 23.4127Z" fill="url(#paint11_linear_64_938)"/>
<path id="Vector_13" d="M7.56522 11.751H7.3913L0 29.2881H3.21739L4.34783 26.5284L11.2174 29.3771H14.9565L13.7391 26.4394L7.56522 11.751ZM5.56522 23.4127L7.30435 19.0507L9.56522 24.926L5.56522 23.4127Z" fill="url(#paint12_linear_64_938)"/>
<path id="Vector_14" d="M7.56522 11.751H7.3913L0 29.2881H3.21739L4.34783 26.5284L11.2174 29.3771H14.9565L13.7391 26.4394L7.56522 11.751ZM5.56522 23.4127L7.30435 19.0507L9.56522 24.926L5.56522 23.4127Z" fill="url(#paint13_linear_64_938)"/>
</g>
</g>
<defs>
<linearGradient id="paint0_linear_64_938" x1="28.918" y1="20.3187" x2="28.918" y2="-0.227893" gradientUnits="userSpaceOnUse">
<stop stop-color="#FDEF5D"/>
<stop offset="0.4794" stop-color="#F3C223"/>
<stop offset="1" stop-color="#E06E0D"/>
</linearGradient>
<linearGradient id="paint1_linear_64_938" x1="28.918" y1="27.9472" x2="28.918" y2="-1.13021" gradientUnits="userSpaceOnUse">
<stop stop-color="#FDEF5D"/>
<stop offset="0.2743" stop-color="#F3C223"/>
<stop offset="0.6205" stop-color="#E06E0D"/>
</linearGradient>
<linearGradient id="paint2_linear_64_938" x1="39.141" y1="23.8812" x2="39.141" y2="12.3716" gradientUnits="userSpaceOnUse">
<stop stop-color="#FDEF5D"/>
<stop offset="0.4794" stop-color="#F3C223"/>
<stop offset="1" stop-color="#E06E0D"/>
</linearGradient>
<linearGradient id="paint3_linear_64_938" x1="39.141" y1="27.9472" x2="39.141" y2="-1.13023" gradientUnits="userSpaceOnUse">
<stop stop-color="#FDEF5D"/>
<stop offset="0.2743" stop-color="#F3C223"/>
<stop offset="0.6205" stop-color="#E06E0D"/>
</linearGradient>
<linearGradient id="paint4_linear_64_938" x1="51.8088" y1="24.0166" x2="51.8088" y2="11.5212" gradientUnits="userSpaceOnUse">
<stop stop-color="#FDEF5D"/>
<stop offset="0.4794" stop-color="#F3C223"/>
<stop offset="1" stop-color="#E06E0D"/>
</linearGradient>
<linearGradient id="paint5_linear_64_938" x1="51.8088" y1="27.9471" x2="51.8088" y2="-1.13031" gradientUnits="userSpaceOnUse">
<stop stop-color="#FDEF5D"/>
<stop offset="0.2743" stop-color="#F3C223"/>
<stop offset="0.6205" stop-color="#E06E0D"/>
</linearGradient>
<linearGradient id="paint6_linear_64_938" x1="67.1214" y1="23.9117" x2="67.1214" y2="12.4075" gradientUnits="userSpaceOnUse">
<stop stop-color="#FDEF5D"/>
<stop offset="0.4794" stop-color="#F3C223"/>
<stop offset="1" stop-color="#E06E0D"/>
</linearGradient>
<linearGradient id="paint7_linear_64_938" x1="67.1214" y1="27.947" x2="67.1214" y2="-1.13038" gradientUnits="userSpaceOnUse">
<stop stop-color="#FDEF5D"/>
<stop offset="0.2743" stop-color="#F3C223"/>
<stop offset="0.6205" stop-color="#E06E0D"/>
</linearGradient>
<linearGradient id="paint8_linear_64_938" x1="82.263" y1="24.1568" x2="82.263" y2="12.3934" gradientUnits="userSpaceOnUse">
<stop stop-color="#FDEF5D"/>
<stop offset="0.4794" stop-color="#F3C223"/>
<stop offset="1" stop-color="#E06E0D"/>
</linearGradient>
<linearGradient id="paint9_linear_64_938" x1="82.263" y1="27.947" x2="82.263" y2="-1.13038" gradientUnits="userSpaceOnUse">
<stop stop-color="#FDEF5D"/>
<stop offset="0.2743" stop-color="#F3C223"/>
<stop offset="0.6205" stop-color="#E06E0D"/>
</linearGradient>
<linearGradient id="paint10_linear_64_938" x1="106.043" y1="23.6671" x2="106.043" y2="11.6432" gradientUnits="userSpaceOnUse">
<stop stop-color="#FDEF5D"/>
<stop offset="0.4794" stop-color="#F3C223"/>
<stop offset="1" stop-color="#E06E0D"/>
</linearGradient>
<linearGradient id="paint11_linear_64_938" x1="106.043" y1="27.9474" x2="106.043" y2="-1.12997" gradientUnits="userSpaceOnUse">
<stop stop-color="#FDEF5D"/>
<stop offset="0.2743" stop-color="#F3C223"/>
<stop offset="0.6205" stop-color="#E06E0D"/>
</linearGradient>
<linearGradient id="paint12_linear_64_938" x1="7.49165" y1="23.6671" x2="7.49165" y2="11.6432" gradientUnits="userSpaceOnUse">
<stop stop-color="#FDEF5D"/>
<stop offset="0.4794" stop-color="#F3C223"/>
<stop offset="1" stop-color="#E06E0D"/>
</linearGradient>
<linearGradient id="paint13_linear_64_938" x1="7.49165" y1="27.9474" x2="7.49165" y2="-1.12997" gradientUnits="userSpaceOnUse">
<stop stop-color="#FDEF5D"/>
<stop offset="0.2743" stop-color="#F3C223"/>
<stop offset="0.6205" stop-color="#E06E0D"/>
</linearGradient>
<clipPath id="clip0_64_938">
<rect width="120" height="30" fill="white"/>
</clipPath>
</defs>
</svg>
