<svg width="1440" height="5068" viewBox="0 0 1440 5068" fill="none" xmlns="http://www.w3.org/2000/svg">
<path d="M480 0V240M480 240V720M480 240L720 240M480 240H240M480 720H720M480 720H240M480 720V1200M960 0V240M960 240V720M960 240L1440 240M960 240L720 240M960 720H1440M960 720L720 720M960 720V1200M240 0V240M240 240V720M240 240L2.09815e-05 240M240 720H0M240 720V1200M720 0V240M720 240V720M720 720V1200M480 1200V1680M480 1200H720M480 1200H240M480 1680H720M480 1680H240M480 1680V2160M960 1200V1680M960 1200H1440M960 1200H720M960 1680H1440M960 1680H720M960 1680V2160M240 1200V1680M240 1200H2.09815e-05M240 1680H0M240 1680V2160M720 1200V1680M720 1680V2160M480 2160V2640M480 2160H720M480 2160H240M480 2640H720M480 2640H240M480 2640V3120M960 2160V2640M960 2160H1440M960 2160H720M960 2640H1440M960 2640H720M960 2640V3120M240 2160V2640M240 2160H2.09815e-05M240 2640H0M240 2640V3120M720 2160V2640M720 2640V3120M480 3120V3600M480 3120H720M480 3120H240M480 3600H720M480 3600H240M480 3600V4080M960 3120V3600M960 3120H1440M960 3120H720M960 3600H1440M960 3600H720M960 3600V4080M240 3120V3600M240 3120H2.09815e-05M240 3600H0M240 3600V4080M720 3120V3600M720 3600V4080M480 4080V4560M480 4080H720M480 4080H240M480 4560H720M480 4560H240M480 4560V5040M960 4080V4560M960 4080H1440M960 4080H720M960 4560H1440M960 4560H720M960 4560V5040M240 4080V4560M240 4080H2.09815e-05M240 4560H0M240 4560V5040M720 4080V4560M720 4560V5040" stroke="#EAB246"/>
</svg>
