<svg width="877" height="1288" viewBox="0 0 877 1288" fill="none" xmlns="http://www.w3.org/2000/svg">
<path fill-rule="evenodd" clip-rule="evenodd" d="M711.375 -100.56C856.058 -92.8114 978.027 87.8216 1093.67 175.12C1207.2 260.827 1479.44 -228.161 1542.5 -100.655C1614.44 44.7855 1412.28 548.965 1245.57 645.142C1208.77 809.86 1735.68 1178.25 1181.94 1282.58C973.288 1321.89 931.307 1085.42 771.669 1112.04C667.143 1129.47 360.437 1282.58 314.058 1155.92C267.679 1029.26 396.417 873.817 314.065 757.619C231.971 641.786 -38.0426 539.449 5.77531 389.257C49.9772 237.748 301.975 360.955 435.043 276.092C560.827 195.875 562.403 -108.539 711.375 -100.56Z" stroke="#B79FFC" stroke-opacity="0.2" stroke-width="0.5"/>
<path fill-rule="evenodd" clip-rule="evenodd" d="M761.433 -24.8803C897.555 -17.5899 966.469 156.75 1075.27 238.882C1182.08 319.519 1484.05 -144.931 1543.39 -24.9692C1611.07 111.866 1420.87 586.213 1264.02 676.699C1229.39 831.672 1654.93 1107.19 1199.95 1246.31C1058.71 1303.21 902.172 1030.42 761.372 1074.28C620.571 1118.14 507.355 1184.13 387.625 1157.25C270.017 1093.04 440.785 905.522 387.631 782.522C329.24 647.403 26.6784 558.715 67.9036 417.409C109.49 274.865 375.295 388.638 500.489 308.797C618.831 233.327 621.275 -32.3869 761.433 -24.8803Z" stroke="#B79FFC" stroke-opacity="0.2" stroke-width="0.5"/>
<path fill-rule="evenodd" clip-rule="evenodd" d="M772.658 30.6612C908.781 37.9516 978.69 228.379 1087.49 310.512C1194.3 391.148 1550.64 -141.652 1609.97 -21.6909C1677.65 115.144 1487.46 589.492 1330.61 679.978C1295.98 834.95 1661 1047.16 1206.02 1186.29C1064.78 1243.19 972.168 1042.38 820.809 1025.78C693.798 1011.86 620.644 1112.05 454.217 1114.06C287.791 1116.07 507.372 908.801 454.217 785.8C395.826 650.681 93.2648 561.993 134.49 420.687C160.128 332.809 424.625 432.239 564.004 332.809C680.741 249.53 632.501 23.1546 772.658 30.6612Z" stroke="#B79FFC" stroke-opacity="0.2" stroke-width="0.5"/>
<path fill-rule="evenodd" clip-rule="evenodd" d="M788.713 70.7905C924.836 78.0809 975.256 279.955 1084.05 362.087C1190.87 442.724 1614.86 -112.37 1674.2 7.5915C1741.88 144.426 1551.68 618.774 1394.84 709.26C1360.21 864.233 1669.03 1023.09 1214.05 1162.21C1072.81 1219.12 1012.32 1010.28 860.961 993.685C733.949 979.76 557.139 1076 467.707 1065.91C378.274 1055.82 544.936 883.955 491.782 760.955C433.391 625.836 157.492 591.275 198.717 449.97C224.355 362.091 464.755 461.522 604.134 362.091C720.871 278.813 648.556 63.2839 788.713 70.7905Z" stroke="#B79FFC" stroke-opacity="0.2" stroke-width="0.5"/>
<path fill-rule="evenodd" clip-rule="evenodd" d="M812.771 110.88C929.574 126.869 983.828 333.08 1092.63 415.212C1199.44 495.849 1679.31 -80.8725 1738.64 39.0891C1806.33 175.924 1616.13 650.272 1459.28 740.758C1424.65 895.73 1440.33 1162.1 1278.49 1193.71C1116.65 1225.32 982.702 931.705 853.158 945.497C723.614 959.29 589.74 1033.09 515.788 1025.75C441.835 1018.41 570.004 883.887 556.227 792.452C531.363 627.438 221.937 622.773 263.162 481.467C288.8 393.588 512.888 491.192 652.267 391.761C769.004 308.483 672.613 103.374 812.771 110.88Z" stroke="#B79FFC" stroke-opacity="0.2" stroke-width="0.5"/>
<path fill-rule="evenodd" clip-rule="evenodd" d="M821.445 154.333C945.723 160.989 995.735 392.342 1095.06 467.328C1199.04 511.335 1637.09 -8.17384 1691.26 101.349C1753.05 226.277 1579.4 659.35 1436.21 741.963C1404.59 883.45 1686.54 1028.48 1271.15 1155.5C1142.2 1207.45 1007.64 920.563 869.453 905.413C753.494 892.7 598.322 1010.78 556.472 985.665C514.622 960.554 616.419 868.738 611.731 789.159C602.287 628.857 285.777 625.183 323.266 496.13C334.278 458.224 524.06 508.563 660.298 431.929C788.701 359.702 693.483 147.48 821.445 154.333Z" stroke="#B79FFC" stroke-opacity="0.2" stroke-width="0.5"/>
<path fill-rule="evenodd" clip-rule="evenodd" d="M833.457 193.819C942.929 199.682 981.062 430.662 1070.78 486.511C1150.98 576.55 1495.34 150.887 1543.06 247.361C1570.84 303.537 1497.42 655.655 1371.28 728.425C1343.43 853.056 1446.75 1066.23 1246.12 1106.35C1132.54 1152.12 993.772 885.748 872.048 872.403C769.904 861.204 618.916 957.576 596.355 943.093C573.793 928.61 649.16 840.097 645.03 769.999C636.711 628.795 357.91 625.559 390.933 511.881C400.633 478.491 567.804 522.833 687.811 455.329C800.916 391.707 720.741 187.782 833.457 193.819Z" stroke="#B79FFC" stroke-opacity="0.2" stroke-width="0.5"/>
<path fill-rule="evenodd" clip-rule="evenodd" d="M845.479 228.133C946.743 253.878 962.19 537.057 1130.39 518.193C1249.52 486.545 1559.59 176.063 1607.31 272.537C1635.1 328.714 1561.67 680.831 1435.53 753.601C1407.68 878.232 1511.01 1091.41 1310.38 1131.53C1196.8 1177.29 1006.73 854.504 885.007 841.159C782.863 829.96 652.382 921.898 644.304 897.579C636.227 873.259 687.834 811.864 684.382 753.601C677.099 630.68 455.872 628.039 443.858 533.64C439.469 499.148 588.446 539.095 708.453 471.591C821.558 407.97 747.648 228.133 845.479 228.133Z" stroke="#B79FFC" stroke-opacity="0.2" stroke-width="0.5"/>
<path fill-rule="evenodd" clip-rule="evenodd" d="M845.482 264.18C924.433 276.195 936.447 478.722 1045.52 536.254C1195.26 615.239 1430.73 311.549 1458.13 341.904C1491.76 379.143 1421.6 668.768 1320.61 727.025C1298.32 826.8 1381.04 997.458 1220.42 1029.58C1129.49 1066.22 977.332 807.804 879.884 797.12C798.112 788.155 706.903 868.267 700.437 848.798C693.97 829.33 726.531 774.595 719.272 727.025C704.401 629.575 479.912 600.581 507.367 561.106C534.822 521.63 623.199 550.121 719.272 496.08C809.819 445.147 789.306 272.268 845.482 264.18Z" stroke="#B79FFC" stroke-opacity="0.2" stroke-width="0.5"/>
<path fill-rule="evenodd" clip-rule="evenodd" d="M852.333 305.374C896.953 281.339 927.899 520.074 1025.68 554.242C1277.05 642.074 1352.85 358.495 1376.06 384.202C1404.53 415.739 1345.11 661.018 1259.59 710.355C1240.71 794.852 1310.77 939.38 1174.74 966.584C1097.74 997.61 968.874 778.765 886.347 769.717C817.095 762.125 739.853 829.971 734.376 813.483C728.9 796.995 756.475 750.641 750.327 710.355C737.733 627.826 574.435 608.942 577.721 569.689C579.688 546.197 668.965 560.538 750.327 514.771C827.01 471.637 807.714 329.409 852.333 305.374Z" stroke="#B79FFC" stroke-opacity="0.2" stroke-width="0.5"/>
<path fill-rule="evenodd" clip-rule="evenodd" d="M869.102 344.845C910.695 374.02 923.123 545.852 1008.53 575.693C1228.06 652.405 1293.76 451.118 1314.03 473.569C1338.9 501.114 1299.49 655.459 1224.8 698.549C1208.31 772.348 1269.49 898.576 1150.69 922.336C1083.43 949.434 953.596 754.368 881.518 746.466C821.034 739.835 773.023 790.044 768.24 775.644C763.457 761.244 785.381 733.735 780.011 698.549C769.012 626.469 626.39 609.977 629.26 575.693C630.977 555.176 708.951 567.701 780.011 527.729C846.985 490.056 827.509 315.669 869.102 344.845Z" stroke="#B79FFC" stroke-opacity="0.2" stroke-width="0.5"/>
<path fill-rule="evenodd" clip-rule="evenodd" d="M876.372 387.757C902.117 430.662 917.787 565.691 993.083 592.001C1186.64 659.633 1266.61 476.304 1284.48 496.098C1306.41 520.382 1271.66 656.461 1205.81 694.451C1191.27 759.515 1245.21 870.804 1140.47 891.752C1081.17 915.643 957.083 729.409 893.535 722.442C840.21 716.596 799.925 754.018 795.708 741.322C791.491 728.626 807.304 713.988 802.57 682.966C792.872 619.418 678.221 616.361 680.752 586.135C682.266 568.047 751.011 579.089 813.661 543.848C872.709 510.634 850.627 344.852 876.372 387.757Z" stroke="#B79FFC" stroke-opacity="0.2" stroke-width="0.5"/>
<path fill-rule="evenodd" clip-rule="evenodd" d="M881.515 434.084C902.11 480.43 916.407 583.738 979.346 605.73C1141.14 662.263 1223.57 543.608 1238.51 560.154C1256.84 580.453 1219.29 654.285 1164.25 686.041C1152.1 740.427 1212.78 845.67 1125.23 863.18C1075.67 883.15 953.512 707.668 900.394 701.845C855.82 696.958 824.968 722.755 821.443 712.143C817.918 701.53 830.549 696.881 826.592 670.951C818.486 617.831 723.248 620.767 725.363 595.502C726.629 580.381 784.092 589.611 836.46 560.154C885.817 532.391 860.919 387.738 881.515 434.084Z" stroke="#B79FFC" stroke-opacity="0.2" stroke-width="0.5"/>
</svg>
