<svg width="390" height="844" viewBox="0 0 390 844" fill="none" xmlns="http://www.w3.org/2000/svg">
<g opacity="0.2" filter="url(#filter0_f_1_779)">
<path fill-rule="evenodd" clip-rule="evenodd" d="M5.57143 30.878C8.64844 30.878 11.1429 25.5018 11.1429 18.8699C11.1429 12.238 8.64844 6.86179 5.57143 6.86179C2.49441 6.86179 0 12.238 0 18.8699C0 25.5018 2.49441 30.878 5.57143 30.878ZM43.7755 73.7642C46.8525 73.7642 49.3469 68.388 49.3469 61.7561C49.3469 55.1242 46.8525 49.748 43.7755 49.748C40.6985 49.748 38.2041 55.1242 38.2041 61.7561C38.2041 68.388 40.6985 73.7642 43.7755 73.7642ZM9.55102 61.7561C10.8697 61.7561 11.9388 59.452 11.9388 56.6098C11.9388 53.7675 10.8697 51.4634 9.55102 51.4634C8.2323 51.4634 7.16327 53.7675 7.16327 56.6098C7.16327 59.452 8.2323 61.7561 9.55102 61.7561ZM59.6939 114.935C61.0126 114.935 62.0816 112.631 62.0816 109.789C62.0816 106.946 61.0126 104.642 59.6939 104.642C58.3752 104.642 57.3061 106.946 57.3061 109.789C57.3061 112.631 58.3752 114.935 59.6939 114.935ZM23.8776 154.39C25.1963 154.39 26.2653 152.086 26.2653 149.244C26.2653 146.402 25.1963 144.098 23.8776 144.098C22.5588 144.098 21.4898 146.402 21.4898 149.244C21.4898 152.086 22.5588 154.39 23.8776 154.39ZM68.449 24.0163C69.7677 24.0163 70.8367 21.7122 70.8367 18.8699C70.8367 16.0277 69.7677 13.7236 68.449 13.7236C67.1303 13.7236 66.0612 16.0277 66.0612 18.8699C66.0612 21.7122 67.1303 24.0163 68.449 24.0163ZM6.36735 147.528C8.12564 147.528 9.55102 144.456 9.55102 140.667C9.55102 136.877 8.12564 133.805 6.36735 133.805C4.60905 133.805 3.18367 136.877 3.18367 140.667C3.18367 144.456 4.60905 147.528 6.36735 147.528ZM28.6531 36.0244C30.4114 36.0244 31.8367 32.9523 31.8367 29.1626C31.8367 25.3729 30.4114 22.3008 28.6531 22.3008C26.8948 22.3008 25.4694 25.3729 25.4694 29.1626C25.4694 32.9523 26.8948 36.0244 28.6531 36.0244ZM46.9592 17.1545C49.1571 17.1545 50.9388 13.3143 50.9388 8.57724C50.9388 3.84016 49.1571 0 46.9592 0C44.7613 0 42.9796 3.84016 42.9796 8.57724C42.9796 13.3143 44.7613 17.1545 46.9592 17.1545ZM42.1837 120.081C43.942 120.081 45.3673 117.009 45.3673 113.22C45.3673 109.43 43.942 106.358 42.1837 106.358C40.4254 106.358 39 109.43 39 113.22C39 117.009 40.4254 120.081 42.1837 120.081ZM65.2653 157.821C67.4632 157.821 69.2449 153.981 69.2449 149.244C69.2449 144.507 67.4632 140.667 65.2653 140.667C63.0674 140.667 61.2857 144.507 61.2857 149.244C61.2857 153.981 63.0674 157.821 65.2653 157.821ZM22.2857 108.073C24.4836 108.073 26.2653 104.233 26.2653 99.4959C26.2653 94.7589 24.4836 90.9187 22.2857 90.9187C20.0878 90.9187 18.3061 94.7589 18.3061 99.4959C18.3061 104.233 20.0878 108.073 22.2857 108.073ZM67.6531 85.7724C69.8509 85.7724 71.6327 81.9322 71.6327 77.1951C71.6327 72.458 69.8509 68.6179 67.6531 68.6179C65.4552 68.6179 63.6735 72.458 63.6735 77.1951C63.6735 81.9322 65.4552 85.7724 67.6531 85.7724ZM60.4898 49.748C61.3689 49.748 62.0816 48.2119 62.0816 46.3171C62.0816 44.4222 61.3689 42.8862 60.4898 42.8862C59.6106 42.8862 58.898 44.4222 58.898 46.3171C58.898 48.2119 59.6106 49.748 60.4898 49.748ZM44.5714 156.106C45.4506 156.106 46.1633 154.57 46.1633 152.675C46.1633 150.78 45.4506 149.244 44.5714 149.244C43.6923 149.244 42.9796 150.78 42.9796 152.675C42.9796 154.57 43.6923 156.106 44.5714 156.106ZM24.6735 70.3333C25.5526 70.3333 26.2653 68.7973 26.2653 66.9024C26.2653 65.0076 25.5526 63.4715 24.6735 63.4715C23.7943 63.4715 23.0816 65.0076 23.0816 66.9024C23.0816 68.7973 23.7943 70.3333 24.6735 70.3333ZM6.36735 102.927C7.24649 102.927 7.95918 101.391 7.95918 99.4959C7.95918 97.6011 7.24649 96.065 6.36735 96.065C5.4882 96.065 4.77551 97.6011 4.77551 99.4959C4.77551 101.391 5.4882 102.927 6.36735 102.927Z" fill="#FABD31"/>
<path fill-rule="evenodd" clip-rule="evenodd" d="M85.1633 30.878C88.2403 30.878 90.7347 25.5018 90.7347 18.8699C90.7347 12.238 88.2403 6.86179 85.1633 6.86179C82.0863 6.86179 79.5918 12.238 79.5918 18.8699C79.5918 25.5018 82.0863 30.878 85.1633 30.878ZM123.367 73.7642C126.444 73.7642 128.939 68.388 128.939 61.7561C128.939 55.1242 126.444 49.748 123.367 49.748C120.29 49.748 117.796 55.1242 117.796 61.7561C117.796 68.388 120.29 73.7642 123.367 73.7642ZM89.1429 61.7561C90.4616 61.7561 91.5306 59.452 91.5306 56.6098C91.5306 53.7675 90.4616 51.4634 89.1429 51.4634C87.8241 51.4634 86.7551 53.7675 86.7551 56.6098C86.7551 59.452 87.8241 61.7561 89.1429 61.7561ZM139.286 114.935C140.604 114.935 141.673 112.631 141.673 109.789C141.673 106.946 140.604 104.642 139.286 104.642C137.967 104.642 136.898 106.946 136.898 109.789C136.898 112.631 137.967 114.935 139.286 114.935ZM103.469 154.39C104.788 154.39 105.857 152.086 105.857 149.244C105.857 146.402 104.788 144.098 103.469 144.098C102.151 144.098 101.082 146.402 101.082 149.244C101.082 152.086 102.151 154.39 103.469 154.39ZM148.041 24.0163C149.36 24.0163 150.429 21.7122 150.429 18.8699C150.429 16.0277 149.36 13.7236 148.041 13.7236C146.722 13.7236 145.653 16.0277 145.653 18.8699C145.653 21.7122 146.722 24.0163 148.041 24.0163ZM85.9592 147.528C87.7175 147.528 89.1429 144.456 89.1429 140.667C89.1429 136.877 87.7175 133.805 85.9592 133.805C84.2009 133.805 82.7755 136.877 82.7755 140.667C82.7755 144.456 84.2009 147.528 85.9592 147.528ZM108.245 36.0244C110.003 36.0244 111.429 32.9523 111.429 29.1626C111.429 25.3729 110.003 22.3008 108.245 22.3008C106.487 22.3008 105.061 25.3729 105.061 29.1626C105.061 32.9523 106.487 36.0244 108.245 36.0244ZM126.551 17.1545C128.749 17.1545 130.531 13.3143 130.531 8.57724C130.531 3.84016 128.749 0 126.551 0C124.353 0 122.571 3.84016 122.571 8.57724C122.571 13.3143 124.353 17.1545 126.551 17.1545ZM121.776 120.081C123.534 120.081 124.959 117.009 124.959 113.22C124.959 109.43 123.534 106.358 121.776 106.358C120.017 106.358 118.592 109.43 118.592 113.22C118.592 117.009 120.017 120.081 121.776 120.081ZM144.857 157.821C147.055 157.821 148.837 153.981 148.837 149.244C148.837 144.507 147.055 140.667 144.857 140.667C142.659 140.667 140.878 144.507 140.878 149.244C140.878 153.981 142.659 157.821 144.857 157.821ZM101.878 108.073C104.075 108.073 105.857 104.233 105.857 99.4959C105.857 94.7589 104.075 90.9187 101.878 90.9187C99.6797 90.9187 97.898 94.7589 97.898 99.4959C97.898 104.233 99.6797 108.073 101.878 108.073ZM147.245 85.7724C149.443 85.7724 151.224 81.9322 151.224 77.1951C151.224 72.458 149.443 68.6179 147.245 68.6179C145.047 68.6179 143.265 72.458 143.265 77.1951C143.265 81.9322 145.047 85.7724 147.245 85.7724ZM140.082 49.748C140.961 49.748 141.673 48.2119 141.673 46.3171C141.673 44.4222 140.961 42.8862 140.082 42.8862C139.202 42.8862 138.49 44.4222 138.49 46.3171C138.49 48.2119 139.202 49.748 140.082 49.748ZM124.163 156.106C125.042 156.106 125.755 154.57 125.755 152.675C125.755 150.78 125.042 149.244 124.163 149.244C123.284 149.244 122.571 150.78 122.571 152.675C122.571 154.57 123.284 156.106 124.163 156.106ZM104.265 70.3333C105.144 70.3333 105.857 68.7973 105.857 66.9024C105.857 65.0076 105.144 63.4715 104.265 63.4715C103.386 63.4715 102.673 65.0076 102.673 66.9024C102.673 68.7973 103.386 70.3333 104.265 70.3333ZM85.9592 102.927C86.8383 102.927 87.551 101.391 87.551 99.4959C87.551 97.6011 86.8383 96.065 85.9592 96.065C85.08 96.065 84.3674 97.6011 84.3674 99.4959C84.3674 101.391 85.08 102.927 85.9592 102.927Z" fill="#FABD31"/>
<path fill-rule="evenodd" clip-rule="evenodd" d="M164.755 30.878C167.832 30.878 170.327 25.5018 170.327 18.8699C170.327 12.238 167.832 6.86179 164.755 6.86179C161.678 6.86179 159.184 12.238 159.184 18.8699C159.184 25.5018 161.678 30.878 164.755 30.878ZM202.959 73.7642C206.036 73.7642 208.531 68.388 208.531 61.7561C208.531 55.1242 206.036 49.748 202.959 49.748C199.882 49.748 197.388 55.1242 197.388 61.7561C197.388 68.388 199.882 73.7642 202.959 73.7642ZM168.735 61.7561C170.053 61.7561 171.122 59.452 171.122 56.6098C171.122 53.7675 170.053 51.4634 168.735 51.4634C167.416 51.4634 166.347 53.7675 166.347 56.6098C166.347 59.452 167.416 61.7561 168.735 61.7561ZM218.878 114.935C220.196 114.935 221.265 112.631 221.265 109.789C221.265 106.946 220.196 104.642 218.878 104.642C217.559 104.642 216.49 106.946 216.49 109.789C216.49 112.631 217.559 114.935 218.878 114.935ZM183.061 154.39C184.38 154.39 185.449 152.086 185.449 149.244C185.449 146.402 184.38 144.098 183.061 144.098C181.742 144.098 180.673 146.402 180.673 149.244C180.673 152.086 181.742 154.39 183.061 154.39ZM227.633 24.0163C228.951 24.0163 230.02 21.7122 230.02 18.8699C230.02 16.0277 228.951 13.7236 227.633 13.7236C226.314 13.7236 225.245 16.0277 225.245 18.8699C225.245 21.7122 226.314 24.0163 227.633 24.0163ZM165.551 147.528C167.309 147.528 168.735 144.456 168.735 140.667C168.735 136.877 167.309 133.805 165.551 133.805C163.793 133.805 162.367 136.877 162.367 140.667C162.367 144.456 163.793 147.528 165.551 147.528ZM187.837 36.0244C189.595 36.0244 191.02 32.9523 191.02 29.1626C191.02 25.3729 189.595 22.3008 187.837 22.3008C186.078 22.3008 184.653 25.3729 184.653 29.1626C184.653 32.9523 186.078 36.0244 187.837 36.0244ZM206.143 17.1545C208.341 17.1545 210.122 13.3143 210.122 8.57724C210.122 3.84016 208.341 0 206.143 0C203.945 0 202.163 3.84016 202.163 8.57724C202.163 13.3143 203.945 17.1545 206.143 17.1545ZM201.367 120.081C203.126 120.081 204.551 117.009 204.551 113.22C204.551 109.43 203.126 106.358 201.367 106.358C199.609 106.358 198.184 109.43 198.184 113.22C198.184 117.009 199.609 120.081 201.367 120.081ZM224.449 157.821C226.647 157.821 228.429 153.981 228.429 149.244C228.429 144.507 226.647 140.667 224.449 140.667C222.251 140.667 220.469 144.507 220.469 149.244C220.469 153.981 222.251 157.821 224.449 157.821ZM181.469 108.073C183.667 108.073 185.449 104.233 185.449 99.4959C185.449 94.7589 183.667 90.9187 181.469 90.9187C179.271 90.9187 177.49 94.7589 177.49 99.4959C177.49 104.233 179.271 108.073 181.469 108.073ZM226.837 85.7724C229.035 85.7724 230.816 81.9322 230.816 77.1951C230.816 72.458 229.035 68.6179 226.837 68.6179C224.639 68.6179 222.857 72.458 222.857 77.1951C222.857 81.9322 224.639 85.7724 226.837 85.7724ZM219.673 49.748C220.553 49.748 221.265 48.2119 221.265 46.3171C221.265 44.4222 220.553 42.8862 219.673 42.8862C218.794 42.8862 218.082 44.4222 218.082 46.3171C218.082 48.2119 218.794 49.748 219.673 49.748ZM203.755 156.106C204.634 156.106 205.347 154.57 205.347 152.675C205.347 150.78 204.634 149.244 203.755 149.244C202.876 149.244 202.163 150.78 202.163 152.675C202.163 154.57 202.876 156.106 203.755 156.106ZM183.857 70.3333C184.736 70.3333 185.449 68.7973 185.449 66.9024C185.449 65.0076 184.736 63.4715 183.857 63.4715C182.978 63.4715 182.265 65.0076 182.265 66.9024C182.265 68.7973 182.978 70.3333 183.857 70.3333ZM165.551 102.927C166.43 102.927 167.143 101.391 167.143 99.4959C167.143 97.6011 166.43 96.065 165.551 96.065C164.672 96.065 163.959 97.6011 163.959 99.4959C163.959 101.391 164.672 102.927 165.551 102.927Z" fill="#FABD31"/>
<path fill-rule="evenodd" clip-rule="evenodd" d="M244.347 30.878C247.424 30.878 249.918 25.5018 249.918 18.8699C249.918 12.238 247.424 6.86179 244.347 6.86179C241.27 6.86179 238.776 12.238 238.776 18.8699C238.776 25.5018 241.27 30.878 244.347 30.878ZM282.551 73.7642C285.628 73.7642 288.122 68.388 288.122 61.7561C288.122 55.1242 285.628 49.748 282.551 49.748C279.474 49.748 276.98 55.1242 276.98 61.7561C276.98 68.388 279.474 73.7642 282.551 73.7642ZM248.327 61.7561C249.645 61.7561 250.714 59.452 250.714 56.6098C250.714 53.7675 249.645 51.4634 248.327 51.4634C247.008 51.4634 245.939 53.7675 245.939 56.6098C245.939 59.452 247.008 61.7561 248.327 61.7561ZM298.469 114.935C299.788 114.935 300.857 112.631 300.857 109.789C300.857 106.946 299.788 104.642 298.469 104.642C297.151 104.642 296.082 106.946 296.082 109.789C296.082 112.631 297.151 114.935 298.469 114.935ZM262.653 154.39C263.972 154.39 265.041 152.086 265.041 149.244C265.041 146.402 263.972 144.098 262.653 144.098C261.334 144.098 260.265 146.402 260.265 149.244C260.265 152.086 261.334 154.39 262.653 154.39ZM307.224 24.0163C308.543 24.0163 309.612 21.7122 309.612 18.8699C309.612 16.0277 308.543 13.7236 307.224 13.7236C305.906 13.7236 304.837 16.0277 304.837 18.8699C304.837 21.7122 305.906 24.0163 307.224 24.0163ZM245.143 147.528C246.901 147.528 248.327 144.456 248.327 140.667C248.327 136.877 246.901 133.805 245.143 133.805C243.385 133.805 241.959 136.877 241.959 140.667C241.959 144.456 243.385 147.528 245.143 147.528ZM267.429 36.0244C269.187 36.0244 270.612 32.9523 270.612 29.1626C270.612 25.3729 269.187 22.3008 267.429 22.3008C265.67 22.3008 264.245 25.3729 264.245 29.1626C264.245 32.9523 265.67 36.0244 267.429 36.0244ZM285.735 17.1545C287.933 17.1545 289.714 13.3143 289.714 8.57724C289.714 3.84016 287.933 0 285.735 0C283.537 0 281.755 3.84016 281.755 8.57724C281.755 13.3143 283.537 17.1545 285.735 17.1545ZM280.959 120.081C282.717 120.081 284.143 117.009 284.143 113.22C284.143 109.43 282.717 106.358 280.959 106.358C279.201 106.358 277.776 109.43 277.776 113.22C277.776 117.009 279.201 120.081 280.959 120.081ZM304.041 157.821C306.239 157.821 308.02 153.981 308.02 149.244C308.02 144.507 306.239 140.667 304.041 140.667C301.843 140.667 300.061 144.507 300.061 149.244C300.061 153.981 301.843 157.821 304.041 157.821ZM261.061 108.073C263.259 108.073 265.041 104.233 265.041 99.4959C265.041 94.7589 263.259 90.9187 261.061 90.9187C258.863 90.9187 257.082 94.7589 257.082 99.4959C257.082 104.233 258.863 108.073 261.061 108.073ZM306.429 85.7724C308.626 85.7724 310.408 81.9322 310.408 77.1951C310.408 72.458 308.626 68.6179 306.429 68.6179C304.231 68.6179 302.449 72.458 302.449 77.1951C302.449 81.9322 304.231 85.7724 306.429 85.7724ZM299.265 49.748C300.144 49.748 300.857 48.2119 300.857 46.3171C300.857 44.4222 300.144 42.8862 299.265 42.8862C298.386 42.8862 297.673 44.4222 297.673 46.3171C297.673 48.2119 298.386 49.748 299.265 49.748ZM283.347 156.106C284.226 156.106 284.939 154.57 284.939 152.675C284.939 150.78 284.226 149.244 283.347 149.244C282.468 149.244 281.755 150.78 281.755 152.675C281.755 154.57 282.468 156.106 283.347 156.106ZM263.449 70.3333C264.328 70.3333 265.041 68.7973 265.041 66.9024C265.041 65.0076 264.328 63.4715 263.449 63.4715C262.57 63.4715 261.857 65.0076 261.857 66.9024C261.857 68.7973 262.57 70.3333 263.449 70.3333ZM245.143 102.927C246.022 102.927 246.735 101.391 246.735 99.4959C246.735 97.6011 246.022 96.065 245.143 96.065C244.264 96.065 243.551 97.6011 243.551 99.4959C243.551 101.391 244.264 102.927 245.143 102.927Z" fill="#FABD31"/>
<path fill-rule="evenodd" clip-rule="evenodd" d="M323.939 30.878C327.016 30.878 329.51 25.5018 329.51 18.8699C329.51 12.238 327.016 6.86179 323.939 6.86179C320.862 6.86179 318.367 12.238 318.367 18.8699C318.367 25.5018 320.862 30.878 323.939 30.878ZM362.143 73.7642C365.22 73.7642 367.714 68.388 367.714 61.7561C367.714 55.1242 365.22 49.748 362.143 49.748C359.066 49.748 356.571 55.1242 356.571 61.7561C356.571 68.388 359.066 73.7642 362.143 73.7642ZM327.918 61.7561C329.237 61.7561 330.306 59.452 330.306 56.6098C330.306 53.7675 329.237 51.4634 327.918 51.4634C326.6 51.4634 325.531 53.7675 325.531 56.6098C325.531 59.452 326.6 61.7561 327.918 61.7561ZM378.061 114.935C379.38 114.935 380.449 112.631 380.449 109.789C380.449 106.946 379.38 104.642 378.061 104.642C376.742 104.642 375.673 106.946 375.673 109.789C375.673 112.631 376.742 114.935 378.061 114.935ZM342.245 154.39C343.564 154.39 344.633 152.086 344.633 149.244C344.633 146.402 343.564 144.098 342.245 144.098C340.926 144.098 339.857 146.402 339.857 149.244C339.857 152.086 340.926 154.39 342.245 154.39ZM386.816 24.0163C388.135 24.0163 389.204 21.7122 389.204 18.8699C389.204 16.0277 388.135 13.7236 386.816 13.7236C385.498 13.7236 384.429 16.0277 384.429 18.8699C384.429 21.7122 385.498 24.0163 386.816 24.0163ZM324.735 147.528C326.493 147.528 327.918 144.456 327.918 140.667C327.918 136.877 326.493 133.805 324.735 133.805C322.976 133.805 321.551 136.877 321.551 140.667C321.551 144.456 322.976 147.528 324.735 147.528ZM347.02 36.0244C348.779 36.0244 350.204 32.9523 350.204 29.1626C350.204 25.3729 348.779 22.3008 347.02 22.3008C345.262 22.3008 343.837 25.3729 343.837 29.1626C343.837 32.9523 345.262 36.0244 347.02 36.0244ZM365.327 17.1545C367.524 17.1545 369.306 13.3143 369.306 8.57724C369.306 3.84016 367.524 0 365.327 0C363.129 0 361.347 3.84016 361.347 8.57724C361.347 13.3143 363.129 17.1545 365.327 17.1545ZM360.551 120.081C362.309 120.081 363.735 117.009 363.735 113.22C363.735 109.43 362.309 106.358 360.551 106.358C358.793 106.358 357.367 109.43 357.367 113.22C357.367 117.009 358.793 120.081 360.551 120.081ZM383.633 157.821C385.831 157.821 387.612 153.981 387.612 149.244C387.612 144.507 385.831 140.667 383.633 140.667C381.435 140.667 379.653 144.507 379.653 149.244C379.653 153.981 381.435 157.821 383.633 157.821ZM340.653 108.073C342.851 108.073 344.633 104.233 344.633 99.4959C344.633 94.7589 342.851 90.9187 340.653 90.9187C338.455 90.9187 336.673 94.7589 336.673 99.4959C336.673 104.233 338.455 108.073 340.653 108.073ZM386.02 85.7724C388.218 85.7724 390 81.9322 390 77.1951C390 72.458 388.218 68.6179 386.02 68.6179C383.823 68.6179 382.041 72.458 382.041 77.1951C382.041 81.9322 383.823 85.7724 386.02 85.7724ZM378.857 49.748C379.736 49.748 380.449 48.2119 380.449 46.3171C380.449 44.4222 379.736 42.8862 378.857 42.8862C377.978 42.8862 377.265 44.4222 377.265 46.3171C377.265 48.2119 377.978 49.748 378.857 49.748ZM362.939 156.106C363.818 156.106 364.531 154.57 364.531 152.675C364.531 150.78 363.818 149.244 362.939 149.244C362.06 149.244 361.347 150.78 361.347 152.675C361.347 154.57 362.06 156.106 362.939 156.106ZM343.041 70.3333C343.92 70.3333 344.633 68.7973 344.633 66.9024C344.633 65.0076 343.92 63.4715 343.041 63.4715C342.162 63.4715 341.449 65.0076 341.449 66.9024C341.449 68.7973 342.162 70.3333 343.041 70.3333ZM324.735 102.927C325.614 102.927 326.327 101.391 326.327 99.4959C326.327 97.6011 325.614 96.065 324.735 96.065C323.856 96.065 323.143 97.6011 323.143 99.4959C323.143 101.391 323.856 102.927 324.735 102.927Z" fill="#FABD31"/>
<path fill-rule="evenodd" clip-rule="evenodd" d="M5.57143 202.423C8.64844 202.423 11.1429 197.047 11.1429 190.415C11.1429 183.783 8.64844 178.406 5.57143 178.406C2.49441 178.406 0 183.783 0 190.415C0 197.047 2.49441 202.423 5.57143 202.423ZM43.7755 245.309C46.8525 245.309 49.3469 239.933 49.3469 233.301C49.3469 226.669 46.8525 221.293 43.7755 221.293C40.6985 221.293 38.2041 226.669 38.2041 233.301C38.2041 239.933 40.6985 245.309 43.7755 245.309ZM9.55102 233.301C10.8697 233.301 11.9388 230.997 11.9388 228.154C11.9388 225.312 10.8697 223.008 9.55102 223.008C8.2323 223.008 7.16327 225.312 7.16327 228.154C7.16327 230.997 8.2323 233.301 9.55102 233.301ZM59.6939 286.48C61.0126 286.48 62.0816 284.176 62.0816 281.333C62.0816 278.491 61.0126 276.187 59.6939 276.187C58.3752 276.187 57.3061 278.491 57.3061 281.333C57.3061 284.176 58.3752 286.48 59.6939 286.48ZM23.8776 325.935C25.1963 325.935 26.2653 323.631 26.2653 320.789C26.2653 317.946 25.1963 315.642 23.8776 315.642C22.5588 315.642 21.4898 317.946 21.4898 320.789C21.4898 323.631 22.5588 325.935 23.8776 325.935ZM68.449 195.561C69.7677 195.561 70.8367 193.257 70.8367 190.415C70.8367 187.572 69.7677 185.268 68.449 185.268C67.1303 185.268 66.0612 187.572 66.0612 190.415C66.0612 193.257 67.1303 195.561 68.449 195.561ZM6.36735 319.073C8.12564 319.073 9.55102 316.001 9.55102 312.211C9.55102 308.422 8.12564 305.35 6.36735 305.35C4.60905 305.35 3.18367 308.422 3.18367 312.211C3.18367 316.001 4.60905 319.073 6.36735 319.073ZM28.6531 207.569C30.4114 207.569 31.8367 204.497 31.8367 200.707C31.8367 196.918 30.4114 193.846 28.6531 193.846C26.8948 193.846 25.4694 196.918 25.4694 200.707C25.4694 204.497 26.8948 207.569 28.6531 207.569ZM46.9592 188.699C49.1571 188.699 50.9388 184.859 50.9388 180.122C50.9388 175.385 49.1571 171.545 46.9592 171.545C44.7613 171.545 42.9796 175.385 42.9796 180.122C42.9796 184.859 44.7613 188.699 46.9592 188.699ZM42.1837 291.626C43.942 291.626 45.3673 288.554 45.3673 284.764C45.3673 280.975 43.942 277.902 42.1837 277.902C40.4254 277.902 39 280.975 39 284.764C39 288.554 40.4254 291.626 42.1837 291.626ZM65.2653 329.366C67.4632 329.366 69.2449 325.526 69.2449 320.789C69.2449 316.052 67.4632 312.211 65.2653 312.211C63.0674 312.211 61.2857 316.052 61.2857 320.789C61.2857 325.526 63.0674 329.366 65.2653 329.366ZM22.2857 279.618C24.4836 279.618 26.2653 275.778 26.2653 271.041C26.2653 266.304 24.4836 262.463 22.2857 262.463C20.0878 262.463 18.3061 266.304 18.3061 271.041C18.3061 275.778 20.0878 279.618 22.2857 279.618ZM67.6531 257.317C69.8509 257.317 71.6327 253.477 71.6327 248.74C71.6327 244.003 69.8509 240.163 67.6531 240.163C65.4552 240.163 63.6735 244.003 63.6735 248.74C63.6735 253.477 65.4552 257.317 67.6531 257.317ZM60.4898 221.293C61.3689 221.293 62.0816 219.757 62.0816 217.862C62.0816 215.967 61.3689 214.431 60.4898 214.431C59.6106 214.431 58.898 215.967 58.898 217.862C58.898 219.757 59.6106 221.293 60.4898 221.293ZM44.5714 327.65C45.4506 327.65 46.1633 326.114 46.1633 324.22C46.1633 322.325 45.4506 320.789 44.5714 320.789C43.6923 320.789 42.9796 322.325 42.9796 324.22C42.9796 326.114 43.6923 327.65 44.5714 327.65ZM24.6735 241.878C25.5526 241.878 26.2653 240.342 26.2653 238.447C26.2653 236.552 25.5526 235.016 24.6735 235.016C23.7943 235.016 23.0816 236.552 23.0816 238.447C23.0816 240.342 23.7943 241.878 24.6735 241.878ZM6.36735 274.472C7.24649 274.472 7.95918 272.935 7.95918 271.041C7.95918 269.146 7.24649 267.61 6.36735 267.61C5.4882 267.61 4.77551 269.146 4.77551 271.041C4.77551 272.935 5.4882 274.472 6.36735 274.472Z" fill="#FABD31"/>
<path fill-rule="evenodd" clip-rule="evenodd" d="M85.1633 202.423C88.2403 202.423 90.7347 197.047 90.7347 190.415C90.7347 183.783 88.2403 178.406 85.1633 178.406C82.0863 178.406 79.5918 183.783 79.5918 190.415C79.5918 197.047 82.0863 202.423 85.1633 202.423ZM123.367 245.309C126.444 245.309 128.939 239.933 128.939 233.301C128.939 226.669 126.444 221.293 123.367 221.293C120.29 221.293 117.796 226.669 117.796 233.301C117.796 239.933 120.29 245.309 123.367 245.309ZM89.1429 233.301C90.4616 233.301 91.5306 230.997 91.5306 228.154C91.5306 225.312 90.4616 223.008 89.1429 223.008C87.8241 223.008 86.7551 225.312 86.7551 228.154C86.7551 230.997 87.8241 233.301 89.1429 233.301ZM139.286 286.48C140.604 286.48 141.673 284.176 141.673 281.333C141.673 278.491 140.604 276.187 139.286 276.187C137.967 276.187 136.898 278.491 136.898 281.333C136.898 284.176 137.967 286.48 139.286 286.48ZM103.469 325.935C104.788 325.935 105.857 323.631 105.857 320.789C105.857 317.946 104.788 315.642 103.469 315.642C102.151 315.642 101.082 317.946 101.082 320.789C101.082 323.631 102.151 325.935 103.469 325.935ZM148.041 195.561C149.36 195.561 150.429 193.257 150.429 190.415C150.429 187.572 149.36 185.268 148.041 185.268C146.722 185.268 145.653 187.572 145.653 190.415C145.653 193.257 146.722 195.561 148.041 195.561ZM85.9592 319.073C87.7175 319.073 89.1429 316.001 89.1429 312.211C89.1429 308.422 87.7175 305.35 85.9592 305.35C84.2009 305.35 82.7755 308.422 82.7755 312.211C82.7755 316.001 84.2009 319.073 85.9592 319.073ZM108.245 207.569C110.003 207.569 111.429 204.497 111.429 200.707C111.429 196.918 110.003 193.846 108.245 193.846C106.487 193.846 105.061 196.918 105.061 200.707C105.061 204.497 106.487 207.569 108.245 207.569ZM126.551 188.699C128.749 188.699 130.531 184.859 130.531 180.122C130.531 175.385 128.749 171.545 126.551 171.545C124.353 171.545 122.571 175.385 122.571 180.122C122.571 184.859 124.353 188.699 126.551 188.699ZM121.776 291.626C123.534 291.626 124.959 288.554 124.959 284.764C124.959 280.975 123.534 277.902 121.776 277.902C120.017 277.902 118.592 280.975 118.592 284.764C118.592 288.554 120.017 291.626 121.776 291.626ZM144.857 329.366C147.055 329.366 148.837 325.526 148.837 320.789C148.837 316.052 147.055 312.211 144.857 312.211C142.659 312.211 140.878 316.052 140.878 320.789C140.878 325.526 142.659 329.366 144.857 329.366ZM101.878 279.618C104.075 279.618 105.857 275.778 105.857 271.041C105.857 266.304 104.075 262.463 101.878 262.463C99.6797 262.463 97.898 266.304 97.898 271.041C97.898 275.778 99.6797 279.618 101.878 279.618ZM147.245 257.317C149.443 257.317 151.224 253.477 151.224 248.74C151.224 244.003 149.443 240.163 147.245 240.163C145.047 240.163 143.265 244.003 143.265 248.74C143.265 253.477 145.047 257.317 147.245 257.317ZM140.082 221.293C140.961 221.293 141.673 219.757 141.673 217.862C141.673 215.967 140.961 214.431 140.082 214.431C139.202 214.431 138.49 215.967 138.49 217.862C138.49 219.757 139.202 221.293 140.082 221.293ZM124.163 327.65C125.042 327.65 125.755 326.114 125.755 324.22C125.755 322.325 125.042 320.789 124.163 320.789C123.284 320.789 122.571 322.325 122.571 324.22C122.571 326.114 123.284 327.65 124.163 327.65ZM104.265 241.878C105.144 241.878 105.857 240.342 105.857 238.447C105.857 236.552 105.144 235.016 104.265 235.016C103.386 235.016 102.673 236.552 102.673 238.447C102.673 240.342 103.386 241.878 104.265 241.878ZM85.9592 274.472C86.8383 274.472 87.551 272.935 87.551 271.041C87.551 269.146 86.8383 267.61 85.9592 267.61C85.08 267.61 84.3674 269.146 84.3674 271.041C84.3674 272.935 85.08 274.472 85.9592 274.472Z" fill="#FABD31"/>
<path fill-rule="evenodd" clip-rule="evenodd" d="M164.755 202.423C167.832 202.423 170.327 197.047 170.327 190.415C170.327 183.783 167.832 178.406 164.755 178.406C161.678 178.406 159.184 183.783 159.184 190.415C159.184 197.047 161.678 202.423 164.755 202.423ZM202.959 245.309C206.036 245.309 208.531 239.933 208.531 233.301C208.531 226.669 206.036 221.293 202.959 221.293C199.882 221.293 197.388 226.669 197.388 233.301C197.388 239.933 199.882 245.309 202.959 245.309ZM168.735 233.301C170.053 233.301 171.122 230.997 171.122 228.154C171.122 225.312 170.053 223.008 168.735 223.008C167.416 223.008 166.347 225.312 166.347 228.154C166.347 230.997 167.416 233.301 168.735 233.301ZM218.878 286.48C220.196 286.48 221.265 284.176 221.265 281.333C221.265 278.491 220.196 276.187 218.878 276.187C217.559 276.187 216.49 278.491 216.49 281.333C216.49 284.176 217.559 286.48 218.878 286.48ZM183.061 325.935C184.38 325.935 185.449 323.631 185.449 320.789C185.449 317.946 184.38 315.642 183.061 315.642C181.742 315.642 180.673 317.946 180.673 320.789C180.673 323.631 181.742 325.935 183.061 325.935ZM227.633 195.561C228.951 195.561 230.02 193.257 230.02 190.415C230.02 187.572 228.951 185.268 227.633 185.268C226.314 185.268 225.245 187.572 225.245 190.415C225.245 193.257 226.314 195.561 227.633 195.561ZM165.551 319.073C167.309 319.073 168.735 316.001 168.735 312.211C168.735 308.422 167.309 305.35 165.551 305.35C163.793 305.35 162.367 308.422 162.367 312.211C162.367 316.001 163.793 319.073 165.551 319.073ZM187.837 207.569C189.595 207.569 191.02 204.497 191.02 200.707C191.02 196.918 189.595 193.846 187.837 193.846C186.078 193.846 184.653 196.918 184.653 200.707C184.653 204.497 186.078 207.569 187.837 207.569ZM206.143 188.699C208.341 188.699 210.122 184.859 210.122 180.122C210.122 175.385 208.341 171.545 206.143 171.545C203.945 171.545 202.163 175.385 202.163 180.122C202.163 184.859 203.945 188.699 206.143 188.699ZM201.367 291.626C203.126 291.626 204.551 288.554 204.551 284.764C204.551 280.975 203.126 277.902 201.367 277.902C199.609 277.902 198.184 280.975 198.184 284.764C198.184 288.554 199.609 291.626 201.367 291.626ZM224.449 329.366C226.647 329.366 228.429 325.526 228.429 320.789C228.429 316.052 226.647 312.211 224.449 312.211C222.251 312.211 220.469 316.052 220.469 320.789C220.469 325.526 222.251 329.366 224.449 329.366ZM181.469 279.618C183.667 279.618 185.449 275.778 185.449 271.041C185.449 266.304 183.667 262.463 181.469 262.463C179.271 262.463 177.49 266.304 177.49 271.041C177.49 275.778 179.271 279.618 181.469 279.618ZM226.837 257.317C229.035 257.317 230.816 253.477 230.816 248.74C230.816 244.003 229.035 240.163 226.837 240.163C224.639 240.163 222.857 244.003 222.857 248.74C222.857 253.477 224.639 257.317 226.837 257.317ZM219.673 221.293C220.553 221.293 221.265 219.757 221.265 217.862C221.265 215.967 220.553 214.431 219.673 214.431C218.794 214.431 218.082 215.967 218.082 217.862C218.082 219.757 218.794 221.293 219.673 221.293ZM203.755 327.65C204.634 327.65 205.347 326.114 205.347 324.22C205.347 322.325 204.634 320.789 203.755 320.789C202.876 320.789 202.163 322.325 202.163 324.22C202.163 326.114 202.876 327.65 203.755 327.65ZM183.857 241.878C184.736 241.878 185.449 240.342 185.449 238.447C185.449 236.552 184.736 235.016 183.857 235.016C182.978 235.016 182.265 236.552 182.265 238.447C182.265 240.342 182.978 241.878 183.857 241.878ZM165.551 274.472C166.43 274.472 167.143 272.935 167.143 271.041C167.143 269.146 166.43 267.61 165.551 267.61C164.672 267.61 163.959 269.146 163.959 271.041C163.959 272.935 164.672 274.472 165.551 274.472Z" fill="#FABD31"/>
<path fill-rule="evenodd" clip-rule="evenodd" d="M244.347 202.423C247.424 202.423 249.918 197.047 249.918 190.415C249.918 183.783 247.424 178.406 244.347 178.406C241.27 178.406 238.776 183.783 238.776 190.415C238.776 197.047 241.27 202.423 244.347 202.423ZM282.551 245.309C285.628 245.309 288.122 239.933 288.122 233.301C288.122 226.669 285.628 221.293 282.551 221.293C279.474 221.293 276.98 226.669 276.98 233.301C276.98 239.933 279.474 245.309 282.551 245.309ZM248.327 233.301C249.645 233.301 250.714 230.997 250.714 228.154C250.714 225.312 249.645 223.008 248.327 223.008C247.008 223.008 245.939 225.312 245.939 228.154C245.939 230.997 247.008 233.301 248.327 233.301ZM298.469 286.48C299.788 286.48 300.857 284.176 300.857 281.333C300.857 278.491 299.788 276.187 298.469 276.187C297.151 276.187 296.082 278.491 296.082 281.333C296.082 284.176 297.151 286.48 298.469 286.48ZM262.653 325.935C263.972 325.935 265.041 323.631 265.041 320.789C265.041 317.946 263.972 315.642 262.653 315.642C261.334 315.642 260.265 317.946 260.265 320.789C260.265 323.631 261.334 325.935 262.653 325.935ZM307.224 195.561C308.543 195.561 309.612 193.257 309.612 190.415C309.612 187.572 308.543 185.268 307.224 185.268C305.906 185.268 304.837 187.572 304.837 190.415C304.837 193.257 305.906 195.561 307.224 195.561ZM245.143 319.073C246.901 319.073 248.327 316.001 248.327 312.211C248.327 308.422 246.901 305.35 245.143 305.35C243.385 305.35 241.959 308.422 241.959 312.211C241.959 316.001 243.385 319.073 245.143 319.073ZM267.429 207.569C269.187 207.569 270.612 204.497 270.612 200.707C270.612 196.918 269.187 193.846 267.429 193.846C265.67 193.846 264.245 196.918 264.245 200.707C264.245 204.497 265.67 207.569 267.429 207.569ZM285.735 188.699C287.933 188.699 289.714 184.859 289.714 180.122C289.714 175.385 287.933 171.545 285.735 171.545C283.537 171.545 281.755 175.385 281.755 180.122C281.755 184.859 283.537 188.699 285.735 188.699ZM280.959 291.626C282.717 291.626 284.143 288.554 284.143 284.764C284.143 280.975 282.717 277.902 280.959 277.902C279.201 277.902 277.776 280.975 277.776 284.764C277.776 288.554 279.201 291.626 280.959 291.626ZM304.041 329.366C306.239 329.366 308.02 325.526 308.02 320.789C308.02 316.052 306.239 312.211 304.041 312.211C301.843 312.211 300.061 316.052 300.061 320.789C300.061 325.526 301.843 329.366 304.041 329.366ZM261.061 279.618C263.259 279.618 265.041 275.778 265.041 271.041C265.041 266.304 263.259 262.463 261.061 262.463C258.863 262.463 257.082 266.304 257.082 271.041C257.082 275.778 258.863 279.618 261.061 279.618ZM306.429 257.317C308.626 257.317 310.408 253.477 310.408 248.74C310.408 244.003 308.626 240.163 306.429 240.163C304.231 240.163 302.449 244.003 302.449 248.74C302.449 253.477 304.231 257.317 306.429 257.317ZM299.265 221.293C300.144 221.293 300.857 219.757 300.857 217.862C300.857 215.967 300.144 214.431 299.265 214.431C298.386 214.431 297.673 215.967 297.673 217.862C297.673 219.757 298.386 221.293 299.265 221.293ZM283.347 327.65C284.226 327.65 284.939 326.114 284.939 324.22C284.939 322.325 284.226 320.789 283.347 320.789C282.468 320.789 281.755 322.325 281.755 324.22C281.755 326.114 282.468 327.65 283.347 327.65ZM263.449 241.878C264.328 241.878 265.041 240.342 265.041 238.447C265.041 236.552 264.328 235.016 263.449 235.016C262.57 235.016 261.857 236.552 261.857 238.447C261.857 240.342 262.57 241.878 263.449 241.878ZM245.143 274.472C246.022 274.472 246.735 272.935 246.735 271.041C246.735 269.146 246.022 267.61 245.143 267.61C244.264 267.61 243.551 269.146 243.551 271.041C243.551 272.935 244.264 274.472 245.143 274.472Z" fill="#FABD31"/>
<path fill-rule="evenodd" clip-rule="evenodd" d="M323.939 202.423C327.016 202.423 329.51 197.047 329.51 190.415C329.51 183.783 327.016 178.406 323.939 178.406C320.862 178.406 318.367 183.783 318.367 190.415C318.367 197.047 320.862 202.423 323.939 202.423ZM362.143 245.309C365.22 245.309 367.714 239.933 367.714 233.301C367.714 226.669 365.22 221.293 362.143 221.293C359.066 221.293 356.571 226.669 356.571 233.301C356.571 239.933 359.066 245.309 362.143 245.309ZM327.918 233.301C329.237 233.301 330.306 230.997 330.306 228.154C330.306 225.312 329.237 223.008 327.918 223.008C326.6 223.008 325.531 225.312 325.531 228.154C325.531 230.997 326.6 233.301 327.918 233.301ZM378.061 286.48C379.38 286.48 380.449 284.176 380.449 281.333C380.449 278.491 379.38 276.187 378.061 276.187C376.742 276.187 375.673 278.491 375.673 281.333C375.673 284.176 376.742 286.48 378.061 286.48ZM342.245 325.935C343.564 325.935 344.633 323.631 344.633 320.789C344.633 317.946 343.564 315.642 342.245 315.642C340.926 315.642 339.857 317.946 339.857 320.789C339.857 323.631 340.926 325.935 342.245 325.935ZM386.816 195.561C388.135 195.561 389.204 193.257 389.204 190.415C389.204 187.572 388.135 185.268 386.816 185.268C385.498 185.268 384.429 187.572 384.429 190.415C384.429 193.257 385.498 195.561 386.816 195.561ZM324.735 319.073C326.493 319.073 327.918 316.001 327.918 312.211C327.918 308.422 326.493 305.35 324.735 305.35C322.976 305.35 321.551 308.422 321.551 312.211C321.551 316.001 322.976 319.073 324.735 319.073ZM347.02 207.569C348.779 207.569 350.204 204.497 350.204 200.707C350.204 196.918 348.779 193.846 347.02 193.846C345.262 193.846 343.837 196.918 343.837 200.707C343.837 204.497 345.262 207.569 347.02 207.569ZM365.327 188.699C367.524 188.699 369.306 184.859 369.306 180.122C369.306 175.385 367.524 171.545 365.327 171.545C363.129 171.545 361.347 175.385 361.347 180.122C361.347 184.859 363.129 188.699 365.327 188.699ZM360.551 291.626C362.309 291.626 363.735 288.554 363.735 284.764C363.735 280.975 362.309 277.902 360.551 277.902C358.793 277.902 357.367 280.975 357.367 284.764C357.367 288.554 358.793 291.626 360.551 291.626ZM383.633 329.366C385.831 329.366 387.612 325.526 387.612 320.789C387.612 316.052 385.831 312.211 383.633 312.211C381.435 312.211 379.653 316.052 379.653 320.789C379.653 325.526 381.435 329.366 383.633 329.366ZM340.653 279.618C342.851 279.618 344.633 275.778 344.633 271.041C344.633 266.304 342.851 262.463 340.653 262.463C338.455 262.463 336.673 266.304 336.673 271.041C336.673 275.778 338.455 279.618 340.653 279.618ZM386.02 257.317C388.218 257.317 390 253.477 390 248.74C390 244.003 388.218 240.163 386.02 240.163C383.823 240.163 382.041 244.003 382.041 248.74C382.041 253.477 383.823 257.317 386.02 257.317ZM378.857 221.293C379.736 221.293 380.449 219.757 380.449 217.862C380.449 215.967 379.736 214.431 378.857 214.431C377.978 214.431 377.265 215.967 377.265 217.862C377.265 219.757 377.978 221.293 378.857 221.293ZM362.939 327.65C363.818 327.65 364.531 326.114 364.531 324.22C364.531 322.325 363.818 320.789 362.939 320.789C362.06 320.789 361.347 322.325 361.347 324.22C361.347 326.114 362.06 327.65 362.939 327.65ZM343.041 241.878C343.92 241.878 344.633 240.342 344.633 238.447C344.633 236.552 343.92 235.016 343.041 235.016C342.162 235.016 341.449 236.552 341.449 238.447C341.449 240.342 342.162 241.878 343.041 241.878ZM324.735 274.472C325.614 274.472 326.327 272.935 326.327 271.041C326.327 269.146 325.614 267.61 324.735 267.61C323.856 267.61 323.143 269.146 323.143 271.041C323.143 272.935 323.856 274.472 324.735 274.472Z" fill="#FABD31"/>
<path fill-rule="evenodd" clip-rule="evenodd" d="M5.57143 373.967C8.64844 373.967 11.1429 368.591 11.1429 361.959C11.1429 355.327 8.64844 349.951 5.57143 349.951C2.49441 349.951 0 355.327 0 361.959C0 368.591 2.49441 373.967 5.57143 373.967ZM43.7755 416.854C46.8525 416.854 49.3469 411.477 49.3469 404.846C49.3469 398.214 46.8525 392.837 43.7755 392.837C40.6985 392.837 38.2041 398.214 38.2041 404.846C38.2041 411.477 40.6985 416.854 43.7755 416.854ZM9.55102 404.846C10.8697 404.846 11.9388 402.541 11.9388 399.699C11.9388 396.857 10.8697 394.553 9.55102 394.553C8.2323 394.553 7.16327 396.857 7.16327 399.699C7.16327 402.541 8.2323 404.846 9.55102 404.846ZM59.6939 458.024C61.0126 458.024 62.0816 455.72 62.0816 452.878C62.0816 450.036 61.0126 447.732 59.6939 447.732C58.3752 447.732 57.3061 450.036 57.3061 452.878C57.3061 455.72 58.3752 458.024 59.6939 458.024ZM23.8776 497.48C25.1963 497.48 26.2653 495.176 26.2653 492.333C26.2653 489.491 25.1963 487.187 23.8776 487.187C22.5588 487.187 21.4898 489.491 21.4898 492.333C21.4898 495.176 22.5588 497.48 23.8776 497.48ZM68.449 367.106C69.7677 367.106 70.8367 364.802 70.8367 361.959C70.8367 359.117 69.7677 356.813 68.449 356.813C67.1303 356.813 66.0612 359.117 66.0612 361.959C66.0612 364.802 67.1303 367.106 68.449 367.106ZM6.36735 490.618C8.12564 490.618 9.55102 487.546 9.55102 483.756C9.55102 479.966 8.12564 476.894 6.36735 476.894C4.60905 476.894 3.18367 479.966 3.18367 483.756C3.18367 487.546 4.60905 490.618 6.36735 490.618ZM28.6531 379.114C30.4114 379.114 31.8367 376.042 31.8367 372.252C31.8367 368.462 30.4114 365.39 28.6531 365.39C26.8948 365.39 25.4694 368.462 25.4694 372.252C25.4694 376.042 26.8948 379.114 28.6531 379.114ZM46.9592 360.244C49.1571 360.244 50.9388 356.404 50.9388 351.667C50.9388 346.93 49.1571 343.089 46.9592 343.089C44.7613 343.089 42.9796 346.93 42.9796 351.667C42.9796 356.404 44.7613 360.244 46.9592 360.244ZM42.1837 463.171C43.942 463.171 45.3673 460.099 45.3673 456.309C45.3673 452.519 43.942 449.447 42.1837 449.447C40.4254 449.447 39 452.519 39 456.309C39 460.099 40.4254 463.171 42.1837 463.171ZM65.2653 500.911C67.4632 500.911 69.2449 497.07 69.2449 492.333C69.2449 487.596 67.4632 483.756 65.2653 483.756C63.0674 483.756 61.2857 487.596 61.2857 492.333C61.2857 497.07 63.0674 500.911 65.2653 500.911ZM22.2857 451.163C24.4836 451.163 26.2653 447.322 26.2653 442.585C26.2653 437.848 24.4836 434.008 22.2857 434.008C20.0878 434.008 18.3061 437.848 18.3061 442.585C18.3061 447.322 20.0878 451.163 22.2857 451.163ZM67.6531 428.862C69.8509 428.862 71.6327 425.022 71.6327 420.285C71.6327 415.547 69.8509 411.707 67.6531 411.707C65.4552 411.707 63.6735 415.547 63.6735 420.285C63.6735 425.022 65.4552 428.862 67.6531 428.862ZM60.4898 392.837C61.3689 392.837 62.0816 391.301 62.0816 389.407C62.0816 387.512 61.3689 385.976 60.4898 385.976C59.6106 385.976 58.898 387.512 58.898 389.407C58.898 391.301 59.6106 392.837 60.4898 392.837ZM44.5714 499.195C45.4506 499.195 46.1633 497.659 46.1633 495.764C46.1633 493.869 45.4506 492.333 44.5714 492.333C43.6923 492.333 42.9796 493.869 42.9796 495.764C42.9796 497.659 43.6923 499.195 44.5714 499.195ZM24.6735 413.423C25.5526 413.423 26.2653 411.887 26.2653 409.992C26.2653 408.097 25.5526 406.561 24.6735 406.561C23.7943 406.561 23.0816 408.097 23.0816 409.992C23.0816 411.887 23.7943 413.423 24.6735 413.423ZM6.36735 446.016C7.24649 446.016 7.95918 444.48 7.95918 442.585C7.95918 440.691 7.24649 439.154 6.36735 439.154C5.4882 439.154 4.77551 440.691 4.77551 442.585C4.77551 444.48 5.4882 446.016 6.36735 446.016Z" fill="#FABD31"/>
<path fill-rule="evenodd" clip-rule="evenodd" d="M85.1633 373.967C88.2403 373.967 90.7347 368.591 90.7347 361.959C90.7347 355.327 88.2403 349.951 85.1633 349.951C82.0863 349.951 79.5918 355.327 79.5918 361.959C79.5918 368.591 82.0863 373.967 85.1633 373.967ZM123.367 416.854C126.444 416.854 128.939 411.477 128.939 404.846C128.939 398.214 126.444 392.837 123.367 392.837C120.29 392.837 117.796 398.214 117.796 404.846C117.796 411.477 120.29 416.854 123.367 416.854ZM89.1429 404.846C90.4616 404.846 91.5306 402.541 91.5306 399.699C91.5306 396.857 90.4616 394.553 89.1429 394.553C87.8241 394.553 86.7551 396.857 86.7551 399.699C86.7551 402.541 87.8241 404.846 89.1429 404.846ZM139.286 458.024C140.604 458.024 141.673 455.72 141.673 452.878C141.673 450.036 140.604 447.732 139.286 447.732C137.967 447.732 136.898 450.036 136.898 452.878C136.898 455.72 137.967 458.024 139.286 458.024ZM103.469 497.48C104.788 497.48 105.857 495.176 105.857 492.333C105.857 489.491 104.788 487.187 103.469 487.187C102.151 487.187 101.082 489.491 101.082 492.333C101.082 495.176 102.151 497.48 103.469 497.48ZM148.041 367.106C149.36 367.106 150.429 364.802 150.429 361.959C150.429 359.117 149.36 356.813 148.041 356.813C146.722 356.813 145.653 359.117 145.653 361.959C145.653 364.802 146.722 367.106 148.041 367.106ZM85.9592 490.618C87.7175 490.618 89.1429 487.546 89.1429 483.756C89.1429 479.966 87.7175 476.894 85.9592 476.894C84.2009 476.894 82.7755 479.966 82.7755 483.756C82.7755 487.546 84.2009 490.618 85.9592 490.618ZM108.245 379.114C110.003 379.114 111.429 376.042 111.429 372.252C111.429 368.462 110.003 365.39 108.245 365.39C106.487 365.39 105.061 368.462 105.061 372.252C105.061 376.042 106.487 379.114 108.245 379.114ZM126.551 360.244C128.749 360.244 130.531 356.404 130.531 351.667C130.531 346.93 128.749 343.089 126.551 343.089C124.353 343.089 122.571 346.93 122.571 351.667C122.571 356.404 124.353 360.244 126.551 360.244ZM121.776 463.171C123.534 463.171 124.959 460.099 124.959 456.309C124.959 452.519 123.534 449.447 121.776 449.447C120.017 449.447 118.592 452.519 118.592 456.309C118.592 460.099 120.017 463.171 121.776 463.171ZM144.857 500.911C147.055 500.911 148.837 497.07 148.837 492.333C148.837 487.596 147.055 483.756 144.857 483.756C142.659 483.756 140.878 487.596 140.878 492.333C140.878 497.07 142.659 500.911 144.857 500.911ZM101.878 451.163C104.075 451.163 105.857 447.322 105.857 442.585C105.857 437.848 104.075 434.008 101.878 434.008C99.6797 434.008 97.898 437.848 97.898 442.585C97.898 447.322 99.6797 451.163 101.878 451.163ZM147.245 428.862C149.443 428.862 151.224 425.022 151.224 420.285C151.224 415.547 149.443 411.707 147.245 411.707C145.047 411.707 143.265 415.547 143.265 420.285C143.265 425.022 145.047 428.862 147.245 428.862ZM140.082 392.837C140.961 392.837 141.673 391.301 141.673 389.407C141.673 387.512 140.961 385.976 140.082 385.976C139.202 385.976 138.49 387.512 138.49 389.407C138.49 391.301 139.202 392.837 140.082 392.837ZM124.163 499.195C125.042 499.195 125.755 497.659 125.755 495.764C125.755 493.869 125.042 492.333 124.163 492.333C123.284 492.333 122.571 493.869 122.571 495.764C122.571 497.659 123.284 499.195 124.163 499.195ZM104.265 413.423C105.144 413.423 105.857 411.887 105.857 409.992C105.857 408.097 105.144 406.561 104.265 406.561C103.386 406.561 102.673 408.097 102.673 409.992C102.673 411.887 103.386 413.423 104.265 413.423ZM85.9592 446.016C86.8383 446.016 87.551 444.48 87.551 442.585C87.551 440.691 86.8383 439.154 85.9592 439.154C85.08 439.154 84.3674 440.691 84.3674 442.585C84.3674 444.48 85.08 446.016 85.9592 446.016Z" fill="#FABD31"/>
<path fill-rule="evenodd" clip-rule="evenodd" d="M164.755 373.967C167.832 373.967 170.327 368.591 170.327 361.959C170.327 355.327 167.832 349.951 164.755 349.951C161.678 349.951 159.184 355.327 159.184 361.959C159.184 368.591 161.678 373.967 164.755 373.967ZM202.959 416.854C206.036 416.854 208.531 411.477 208.531 404.846C208.531 398.214 206.036 392.837 202.959 392.837C199.882 392.837 197.388 398.214 197.388 404.846C197.388 411.477 199.882 416.854 202.959 416.854ZM168.735 404.846C170.053 404.846 171.122 402.541 171.122 399.699C171.122 396.857 170.053 394.553 168.735 394.553C167.416 394.553 166.347 396.857 166.347 399.699C166.347 402.541 167.416 404.846 168.735 404.846ZM218.878 458.024C220.196 458.024 221.265 455.72 221.265 452.878C221.265 450.036 220.196 447.732 218.878 447.732C217.559 447.732 216.49 450.036 216.49 452.878C216.49 455.72 217.559 458.024 218.878 458.024ZM183.061 497.48C184.38 497.48 185.449 495.176 185.449 492.333C185.449 489.491 184.38 487.187 183.061 487.187C181.742 487.187 180.673 489.491 180.673 492.333C180.673 495.176 181.742 497.48 183.061 497.48ZM227.633 367.106C228.951 367.106 230.02 364.802 230.02 361.959C230.02 359.117 228.951 356.813 227.633 356.813C226.314 356.813 225.245 359.117 225.245 361.959C225.245 364.802 226.314 367.106 227.633 367.106ZM165.551 490.618C167.309 490.618 168.735 487.546 168.735 483.756C168.735 479.966 167.309 476.894 165.551 476.894C163.793 476.894 162.367 479.966 162.367 483.756C162.367 487.546 163.793 490.618 165.551 490.618ZM187.837 379.114C189.595 379.114 191.02 376.042 191.02 372.252C191.02 368.462 189.595 365.39 187.837 365.39C186.078 365.39 184.653 368.462 184.653 372.252C184.653 376.042 186.078 379.114 187.837 379.114ZM206.143 360.244C208.341 360.244 210.122 356.404 210.122 351.667C210.122 346.93 208.341 343.089 206.143 343.089C203.945 343.089 202.163 346.93 202.163 351.667C202.163 356.404 203.945 360.244 206.143 360.244ZM201.367 463.171C203.126 463.171 204.551 460.099 204.551 456.309C204.551 452.519 203.126 449.447 201.367 449.447C199.609 449.447 198.184 452.519 198.184 456.309C198.184 460.099 199.609 463.171 201.367 463.171ZM224.449 500.911C226.647 500.911 228.429 497.07 228.429 492.333C228.429 487.596 226.647 483.756 224.449 483.756C222.251 483.756 220.469 487.596 220.469 492.333C220.469 497.07 222.251 500.911 224.449 500.911ZM181.469 451.163C183.667 451.163 185.449 447.322 185.449 442.585C185.449 437.848 183.667 434.008 181.469 434.008C179.271 434.008 177.49 437.848 177.49 442.585C177.49 447.322 179.271 451.163 181.469 451.163ZM226.837 428.862C229.035 428.862 230.816 425.022 230.816 420.285C230.816 415.547 229.035 411.707 226.837 411.707C224.639 411.707 222.857 415.547 222.857 420.285C222.857 425.022 224.639 428.862 226.837 428.862ZM219.673 392.837C220.553 392.837 221.265 391.301 221.265 389.407C221.265 387.512 220.553 385.976 219.673 385.976C218.794 385.976 218.082 387.512 218.082 389.407C218.082 391.301 218.794 392.837 219.673 392.837ZM203.755 499.195C204.634 499.195 205.347 497.659 205.347 495.764C205.347 493.869 204.634 492.333 203.755 492.333C202.876 492.333 202.163 493.869 202.163 495.764C202.163 497.659 202.876 499.195 203.755 499.195ZM183.857 413.423C184.736 413.423 185.449 411.887 185.449 409.992C185.449 408.097 184.736 406.561 183.857 406.561C182.978 406.561 182.265 408.097 182.265 409.992C182.265 411.887 182.978 413.423 183.857 413.423ZM165.551 446.016C166.43 446.016 167.143 444.48 167.143 442.585C167.143 440.691 166.43 439.154 165.551 439.154C164.672 439.154 163.959 440.691 163.959 442.585C163.959 444.48 164.672 446.016 165.551 446.016Z" fill="#FABD31"/>
<path fill-rule="evenodd" clip-rule="evenodd" d="M244.347 373.967C247.424 373.967 249.918 368.591 249.918 361.959C249.918 355.327 247.424 349.951 244.347 349.951C241.27 349.951 238.776 355.327 238.776 361.959C238.776 368.591 241.27 373.967 244.347 373.967ZM282.551 416.854C285.628 416.854 288.122 411.477 288.122 404.846C288.122 398.214 285.628 392.837 282.551 392.837C279.474 392.837 276.98 398.214 276.98 404.846C276.98 411.477 279.474 416.854 282.551 416.854ZM248.327 404.846C249.645 404.846 250.714 402.541 250.714 399.699C250.714 396.857 249.645 394.553 248.327 394.553C247.008 394.553 245.939 396.857 245.939 399.699C245.939 402.541 247.008 404.846 248.327 404.846ZM298.469 458.024C299.788 458.024 300.857 455.72 300.857 452.878C300.857 450.036 299.788 447.732 298.469 447.732C297.151 447.732 296.082 450.036 296.082 452.878C296.082 455.72 297.151 458.024 298.469 458.024ZM262.653 497.48C263.972 497.48 265.041 495.176 265.041 492.333C265.041 489.491 263.972 487.187 262.653 487.187C261.334 487.187 260.265 489.491 260.265 492.333C260.265 495.176 261.334 497.48 262.653 497.48ZM307.224 367.106C308.543 367.106 309.612 364.802 309.612 361.959C309.612 359.117 308.543 356.813 307.224 356.813C305.906 356.813 304.837 359.117 304.837 361.959C304.837 364.802 305.906 367.106 307.224 367.106ZM245.143 490.618C246.901 490.618 248.327 487.546 248.327 483.756C248.327 479.966 246.901 476.894 245.143 476.894C243.385 476.894 241.959 479.966 241.959 483.756C241.959 487.546 243.385 490.618 245.143 490.618ZM267.429 379.114C269.187 379.114 270.612 376.042 270.612 372.252C270.612 368.462 269.187 365.39 267.429 365.39C265.67 365.39 264.245 368.462 264.245 372.252C264.245 376.042 265.67 379.114 267.429 379.114ZM285.735 360.244C287.933 360.244 289.714 356.404 289.714 351.667C289.714 346.93 287.933 343.089 285.735 343.089C283.537 343.089 281.755 346.93 281.755 351.667C281.755 356.404 283.537 360.244 285.735 360.244ZM280.959 463.171C282.717 463.171 284.143 460.099 284.143 456.309C284.143 452.519 282.717 449.447 280.959 449.447C279.201 449.447 277.776 452.519 277.776 456.309C277.776 460.099 279.201 463.171 280.959 463.171ZM304.041 500.911C306.239 500.911 308.02 497.07 308.02 492.333C308.02 487.596 306.239 483.756 304.041 483.756C301.843 483.756 300.061 487.596 300.061 492.333C300.061 497.07 301.843 500.911 304.041 500.911ZM261.061 451.163C263.259 451.163 265.041 447.322 265.041 442.585C265.041 437.848 263.259 434.008 261.061 434.008C258.863 434.008 257.082 437.848 257.082 442.585C257.082 447.322 258.863 451.163 261.061 451.163ZM306.429 428.862C308.626 428.862 310.408 425.022 310.408 420.285C310.408 415.547 308.626 411.707 306.429 411.707C304.231 411.707 302.449 415.547 302.449 420.285C302.449 425.022 304.231 428.862 306.429 428.862ZM299.265 392.837C300.144 392.837 300.857 391.301 300.857 389.407C300.857 387.512 300.144 385.976 299.265 385.976C298.386 385.976 297.673 387.512 297.673 389.407C297.673 391.301 298.386 392.837 299.265 392.837ZM283.347 499.195C284.226 499.195 284.939 497.659 284.939 495.764C284.939 493.869 284.226 492.333 283.347 492.333C282.468 492.333 281.755 493.869 281.755 495.764C281.755 497.659 282.468 499.195 283.347 499.195ZM263.449 413.423C264.328 413.423 265.041 411.887 265.041 409.992C265.041 408.097 264.328 406.561 263.449 406.561C262.57 406.561 261.857 408.097 261.857 409.992C261.857 411.887 262.57 413.423 263.449 413.423ZM245.143 446.016C246.022 446.016 246.735 444.48 246.735 442.585C246.735 440.691 246.022 439.154 245.143 439.154C244.264 439.154 243.551 440.691 243.551 442.585C243.551 444.48 244.264 446.016 245.143 446.016Z" fill="#FABD31"/>
<path fill-rule="evenodd" clip-rule="evenodd" d="M323.939 373.967C327.016 373.967 329.51 368.591 329.51 361.959C329.51 355.327 327.016 349.951 323.939 349.951C320.862 349.951 318.367 355.327 318.367 361.959C318.367 368.591 320.862 373.967 323.939 373.967ZM362.143 416.854C365.22 416.854 367.714 411.477 367.714 404.846C367.714 398.214 365.22 392.837 362.143 392.837C359.066 392.837 356.571 398.214 356.571 404.846C356.571 411.477 359.066 416.854 362.143 416.854ZM327.918 404.846C329.237 404.846 330.306 402.541 330.306 399.699C330.306 396.857 329.237 394.553 327.918 394.553C326.6 394.553 325.531 396.857 325.531 399.699C325.531 402.541 326.6 404.846 327.918 404.846ZM378.061 458.024C379.38 458.024 380.449 455.72 380.449 452.878C380.449 450.036 379.38 447.732 378.061 447.732C376.742 447.732 375.673 450.036 375.673 452.878C375.673 455.72 376.742 458.024 378.061 458.024ZM342.245 497.48C343.564 497.48 344.633 495.176 344.633 492.333C344.633 489.491 343.564 487.187 342.245 487.187C340.926 487.187 339.857 489.491 339.857 492.333C339.857 495.176 340.926 497.48 342.245 497.48ZM386.816 367.106C388.135 367.106 389.204 364.802 389.204 361.959C389.204 359.117 388.135 356.813 386.816 356.813C385.498 356.813 384.429 359.117 384.429 361.959C384.429 364.802 385.498 367.106 386.816 367.106ZM324.735 490.618C326.493 490.618 327.918 487.546 327.918 483.756C327.918 479.966 326.493 476.894 324.735 476.894C322.976 476.894 321.551 479.966 321.551 483.756C321.551 487.546 322.976 490.618 324.735 490.618ZM347.02 379.114C348.779 379.114 350.204 376.042 350.204 372.252C350.204 368.462 348.779 365.39 347.02 365.39C345.262 365.39 343.837 368.462 343.837 372.252C343.837 376.042 345.262 379.114 347.02 379.114ZM365.327 360.244C367.524 360.244 369.306 356.404 369.306 351.667C369.306 346.93 367.524 343.089 365.327 343.089C363.129 343.089 361.347 346.93 361.347 351.667C361.347 356.404 363.129 360.244 365.327 360.244ZM360.551 463.171C362.309 463.171 363.735 460.099 363.735 456.309C363.735 452.519 362.309 449.447 360.551 449.447C358.793 449.447 357.367 452.519 357.367 456.309C357.367 460.099 358.793 463.171 360.551 463.171ZM383.633 500.911C385.831 500.911 387.612 497.07 387.612 492.333C387.612 487.596 385.831 483.756 383.633 483.756C381.435 483.756 379.653 487.596 379.653 492.333C379.653 497.07 381.435 500.911 383.633 500.911ZM340.653 451.163C342.851 451.163 344.633 447.322 344.633 442.585C344.633 437.848 342.851 434.008 340.653 434.008C338.455 434.008 336.673 437.848 336.673 442.585C336.673 447.322 338.455 451.163 340.653 451.163ZM386.02 428.862C388.218 428.862 390 425.022 390 420.285C390 415.547 388.218 411.707 386.02 411.707C383.823 411.707 382.041 415.547 382.041 420.285C382.041 425.022 383.823 428.862 386.02 428.862ZM378.857 392.837C379.736 392.837 380.449 391.301 380.449 389.407C380.449 387.512 379.736 385.976 378.857 385.976C377.978 385.976 377.265 387.512 377.265 389.407C377.265 391.301 377.978 392.837 378.857 392.837ZM362.939 499.195C363.818 499.195 364.531 497.659 364.531 495.764C364.531 493.869 363.818 492.333 362.939 492.333C362.06 492.333 361.347 493.869 361.347 495.764C361.347 497.659 362.06 499.195 362.939 499.195ZM343.041 413.423C343.92 413.423 344.633 411.887 344.633 409.992C344.633 408.097 343.92 406.561 343.041 406.561C342.162 406.561 341.449 408.097 341.449 409.992C341.449 411.887 342.162 413.423 343.041 413.423ZM324.735 446.016C325.614 446.016 326.327 444.48 326.327 442.585C326.327 440.691 325.614 439.154 324.735 439.154C323.856 439.154 323.143 440.691 323.143 442.585C323.143 444.48 323.856 446.016 324.735 446.016Z" fill="#FABD31"/>
<path fill-rule="evenodd" clip-rule="evenodd" d="M5.57143 545.512C8.64844 545.512 11.1429 540.136 11.1429 533.504C11.1429 526.872 8.64844 521.496 5.57143 521.496C2.49441 521.496 0 526.872 0 533.504C0 540.136 2.49441 545.512 5.57143 545.512ZM43.7755 588.398C46.8525 588.398 49.3469 583.022 49.3469 576.39C49.3469 569.758 46.8525 564.382 43.7755 564.382C40.6985 564.382 38.2041 569.758 38.2041 576.39C38.2041 583.022 40.6985 588.398 43.7755 588.398ZM9.55102 576.39C10.8697 576.39 11.9388 574.086 11.9388 571.244C11.9388 568.402 10.8697 566.098 9.55102 566.098C8.2323 566.098 7.16327 568.402 7.16327 571.244C7.16327 574.086 8.2323 576.39 9.55102 576.39ZM59.6939 629.569C61.0126 629.569 62.0816 627.265 62.0816 624.423C62.0816 621.581 61.0126 619.276 59.6939 619.276C58.3752 619.276 57.3061 621.581 57.3061 624.423C57.3061 627.265 58.3752 629.569 59.6939 629.569ZM23.8776 669.024C25.1963 669.024 26.2653 666.72 26.2653 663.878C26.2653 661.036 25.1963 658.732 23.8776 658.732C22.5588 658.732 21.4898 661.036 21.4898 663.878C21.4898 666.72 22.5588 669.024 23.8776 669.024ZM68.449 538.65C69.7677 538.65 70.8367 536.346 70.8367 533.504C70.8367 530.662 69.7677 528.358 68.449 528.358C67.1303 528.358 66.0612 530.662 66.0612 533.504C66.0612 536.346 67.1303 538.65 68.449 538.65ZM6.36735 662.163C8.12564 662.163 9.55102 659.091 9.55102 655.301C9.55102 651.511 8.12564 648.439 6.36735 648.439C4.60905 648.439 3.18367 651.511 3.18367 655.301C3.18367 659.091 4.60905 662.163 6.36735 662.163ZM28.6531 550.659C30.4114 550.659 31.8367 547.586 31.8367 543.797C31.8367 540.007 30.4114 536.935 28.6531 536.935C26.8948 536.935 25.4694 540.007 25.4694 543.797C25.4694 547.586 26.8948 550.659 28.6531 550.659ZM46.9592 531.789C49.1571 531.789 50.9388 527.948 50.9388 523.211C50.9388 518.474 49.1571 514.634 46.9592 514.634C44.7613 514.634 42.9796 518.474 42.9796 523.211C42.9796 527.948 44.7613 531.789 46.9592 531.789ZM42.1837 634.715C43.942 634.715 45.3673 631.643 45.3673 627.854C45.3673 624.064 43.942 620.992 42.1837 620.992C40.4254 620.992 39 624.064 39 627.854C39 631.643 40.4254 634.715 42.1837 634.715ZM65.2653 672.455C67.4632 672.455 69.2449 668.615 69.2449 663.878C69.2449 659.141 67.4632 655.301 65.2653 655.301C63.0674 655.301 61.2857 659.141 61.2857 663.878C61.2857 668.615 63.0674 672.455 65.2653 672.455ZM22.2857 622.707C24.4836 622.707 26.2653 618.867 26.2653 614.13C26.2653 609.393 24.4836 605.553 22.2857 605.553C20.0878 605.553 18.3061 609.393 18.3061 614.13C18.3061 618.867 20.0878 622.707 22.2857 622.707ZM67.6531 600.406C69.8509 600.406 71.6327 596.566 71.6327 591.829C71.6327 587.092 69.8509 583.252 67.6531 583.252C65.4552 583.252 63.6735 587.092 63.6735 591.829C63.6735 596.566 65.4552 600.406 67.6531 600.406ZM60.4898 564.382C61.3689 564.382 62.0816 562.846 62.0816 560.951C62.0816 559.056 61.3689 557.52 60.4898 557.52C59.6106 557.52 58.898 559.056 58.898 560.951C58.898 562.846 59.6106 564.382 60.4898 564.382ZM44.5714 670.74C45.4506 670.74 46.1633 669.204 46.1633 667.309C46.1633 665.414 45.4506 663.878 44.5714 663.878C43.6923 663.878 42.9796 665.414 42.9796 667.309C42.9796 669.204 43.6923 670.74 44.5714 670.74ZM24.6735 584.967C25.5526 584.967 26.2653 583.431 26.2653 581.537C26.2653 579.642 25.5526 578.106 24.6735 578.106C23.7943 578.106 23.0816 579.642 23.0816 581.537C23.0816 583.431 23.7943 584.967 24.6735 584.967ZM6.36735 617.561C7.24649 617.561 7.95918 616.025 7.95918 614.13C7.95918 612.235 7.24649 610.699 6.36735 610.699C5.4882 610.699 4.77551 612.235 4.77551 614.13C4.77551 616.025 5.4882 617.561 6.36735 617.561Z" fill="#FABD31"/>
<path fill-rule="evenodd" clip-rule="evenodd" d="M85.1633 545.512C88.2403 545.512 90.7347 540.136 90.7347 533.504C90.7347 526.872 88.2403 521.496 85.1633 521.496C82.0863 521.496 79.5918 526.872 79.5918 533.504C79.5918 540.136 82.0863 545.512 85.1633 545.512ZM123.367 588.398C126.444 588.398 128.939 583.022 128.939 576.39C128.939 569.758 126.444 564.382 123.367 564.382C120.29 564.382 117.796 569.758 117.796 576.39C117.796 583.022 120.29 588.398 123.367 588.398ZM89.1429 576.39C90.4616 576.39 91.5306 574.086 91.5306 571.244C91.5306 568.402 90.4616 566.098 89.1429 566.098C87.8241 566.098 86.7551 568.402 86.7551 571.244C86.7551 574.086 87.8241 576.39 89.1429 576.39ZM139.286 629.569C140.604 629.569 141.673 627.265 141.673 624.423C141.673 621.581 140.604 619.276 139.286 619.276C137.967 619.276 136.898 621.581 136.898 624.423C136.898 627.265 137.967 629.569 139.286 629.569ZM103.469 669.024C104.788 669.024 105.857 666.72 105.857 663.878C105.857 661.036 104.788 658.732 103.469 658.732C102.151 658.732 101.082 661.036 101.082 663.878C101.082 666.72 102.151 669.024 103.469 669.024ZM148.041 538.65C149.36 538.65 150.429 536.346 150.429 533.504C150.429 530.662 149.36 528.358 148.041 528.358C146.722 528.358 145.653 530.662 145.653 533.504C145.653 536.346 146.722 538.65 148.041 538.65ZM85.9592 662.163C87.7175 662.163 89.1429 659.091 89.1429 655.301C89.1429 651.511 87.7175 648.439 85.9592 648.439C84.2009 648.439 82.7755 651.511 82.7755 655.301C82.7755 659.091 84.2009 662.163 85.9592 662.163ZM108.245 550.659C110.003 550.659 111.429 547.586 111.429 543.797C111.429 540.007 110.003 536.935 108.245 536.935C106.487 536.935 105.061 540.007 105.061 543.797C105.061 547.586 106.487 550.659 108.245 550.659ZM126.551 531.789C128.749 531.789 130.531 527.948 130.531 523.211C130.531 518.474 128.749 514.634 126.551 514.634C124.353 514.634 122.571 518.474 122.571 523.211C122.571 527.948 124.353 531.789 126.551 531.789ZM121.776 634.715C123.534 634.715 124.959 631.643 124.959 627.854C124.959 624.064 123.534 620.992 121.776 620.992C120.017 620.992 118.592 624.064 118.592 627.854C118.592 631.643 120.017 634.715 121.776 634.715ZM144.857 672.455C147.055 672.455 148.837 668.615 148.837 663.878C148.837 659.141 147.055 655.301 144.857 655.301C142.659 655.301 140.878 659.141 140.878 663.878C140.878 668.615 142.659 672.455 144.857 672.455ZM101.878 622.707C104.075 622.707 105.857 618.867 105.857 614.13C105.857 609.393 104.075 605.553 101.878 605.553C99.6797 605.553 97.898 609.393 97.898 614.13C97.898 618.867 99.6797 622.707 101.878 622.707ZM147.245 600.406C149.443 600.406 151.224 596.566 151.224 591.829C151.224 587.092 149.443 583.252 147.245 583.252C145.047 583.252 143.265 587.092 143.265 591.829C143.265 596.566 145.047 600.406 147.245 600.406ZM140.082 564.382C140.961 564.382 141.673 562.846 141.673 560.951C141.673 559.056 140.961 557.52 140.082 557.52C139.202 557.52 138.49 559.056 138.49 560.951C138.49 562.846 139.202 564.382 140.082 564.382ZM124.163 670.74C125.042 670.74 125.755 669.204 125.755 667.309C125.755 665.414 125.042 663.878 124.163 663.878C123.284 663.878 122.571 665.414 122.571 667.309C122.571 669.204 123.284 670.74 124.163 670.74ZM104.265 584.967C105.144 584.967 105.857 583.431 105.857 581.537C105.857 579.642 105.144 578.106 104.265 578.106C103.386 578.106 102.673 579.642 102.673 581.537C102.673 583.431 103.386 584.967 104.265 584.967ZM85.9592 617.561C86.8383 617.561 87.551 616.025 87.551 614.13C87.551 612.235 86.8383 610.699 85.9592 610.699C85.08 610.699 84.3674 612.235 84.3674 614.13C84.3674 616.025 85.08 617.561 85.9592 617.561Z" fill="#FABD31"/>
<path fill-rule="evenodd" clip-rule="evenodd" d="M164.755 545.512C167.832 545.512 170.327 540.136 170.327 533.504C170.327 526.872 167.832 521.496 164.755 521.496C161.678 521.496 159.184 526.872 159.184 533.504C159.184 540.136 161.678 545.512 164.755 545.512ZM202.959 588.398C206.036 588.398 208.531 583.022 208.531 576.39C208.531 569.758 206.036 564.382 202.959 564.382C199.882 564.382 197.388 569.758 197.388 576.39C197.388 583.022 199.882 588.398 202.959 588.398ZM168.735 576.39C170.053 576.39 171.122 574.086 171.122 571.244C171.122 568.402 170.053 566.098 168.735 566.098C167.416 566.098 166.347 568.402 166.347 571.244C166.347 574.086 167.416 576.39 168.735 576.39ZM218.878 629.569C220.196 629.569 221.265 627.265 221.265 624.423C221.265 621.581 220.196 619.276 218.878 619.276C217.559 619.276 216.49 621.581 216.49 624.423C216.49 627.265 217.559 629.569 218.878 629.569ZM183.061 669.024C184.38 669.024 185.449 666.72 185.449 663.878C185.449 661.036 184.38 658.732 183.061 658.732C181.742 658.732 180.673 661.036 180.673 663.878C180.673 666.72 181.742 669.024 183.061 669.024ZM227.633 538.65C228.951 538.65 230.02 536.346 230.02 533.504C230.02 530.662 228.951 528.358 227.633 528.358C226.314 528.358 225.245 530.662 225.245 533.504C225.245 536.346 226.314 538.65 227.633 538.65ZM165.551 662.163C167.309 662.163 168.735 659.091 168.735 655.301C168.735 651.511 167.309 648.439 165.551 648.439C163.793 648.439 162.367 651.511 162.367 655.301C162.367 659.091 163.793 662.163 165.551 662.163ZM187.837 550.659C189.595 550.659 191.02 547.586 191.02 543.797C191.02 540.007 189.595 536.935 187.837 536.935C186.078 536.935 184.653 540.007 184.653 543.797C184.653 547.586 186.078 550.659 187.837 550.659ZM206.143 531.789C208.341 531.789 210.122 527.948 210.122 523.211C210.122 518.474 208.341 514.634 206.143 514.634C203.945 514.634 202.163 518.474 202.163 523.211C202.163 527.948 203.945 531.789 206.143 531.789ZM201.367 634.715C203.126 634.715 204.551 631.643 204.551 627.854C204.551 624.064 203.126 620.992 201.367 620.992C199.609 620.992 198.184 624.064 198.184 627.854C198.184 631.643 199.609 634.715 201.367 634.715ZM224.449 672.455C226.647 672.455 228.429 668.615 228.429 663.878C228.429 659.141 226.647 655.301 224.449 655.301C222.251 655.301 220.469 659.141 220.469 663.878C220.469 668.615 222.251 672.455 224.449 672.455ZM181.469 622.707C183.667 622.707 185.449 618.867 185.449 614.13C185.449 609.393 183.667 605.553 181.469 605.553C179.271 605.553 177.49 609.393 177.49 614.13C177.49 618.867 179.271 622.707 181.469 622.707ZM226.837 600.406C229.035 600.406 230.816 596.566 230.816 591.829C230.816 587.092 229.035 583.252 226.837 583.252C224.639 583.252 222.857 587.092 222.857 591.829C222.857 596.566 224.639 600.406 226.837 600.406ZM219.673 564.382C220.553 564.382 221.265 562.846 221.265 560.951C221.265 559.056 220.553 557.52 219.673 557.52C218.794 557.52 218.082 559.056 218.082 560.951C218.082 562.846 218.794 564.382 219.673 564.382ZM203.755 670.74C204.634 670.74 205.347 669.204 205.347 667.309C205.347 665.414 204.634 663.878 203.755 663.878C202.876 663.878 202.163 665.414 202.163 667.309C202.163 669.204 202.876 670.74 203.755 670.74ZM183.857 584.967C184.736 584.967 185.449 583.431 185.449 581.537C185.449 579.642 184.736 578.106 183.857 578.106C182.978 578.106 182.265 579.642 182.265 581.537C182.265 583.431 182.978 584.967 183.857 584.967ZM165.551 617.561C166.43 617.561 167.143 616.025 167.143 614.13C167.143 612.235 166.43 610.699 165.551 610.699C164.672 610.699 163.959 612.235 163.959 614.13C163.959 616.025 164.672 617.561 165.551 617.561Z" fill="#FABD31"/>
<path fill-rule="evenodd" clip-rule="evenodd" d="M244.347 545.512C247.424 545.512 249.918 540.136 249.918 533.504C249.918 526.872 247.424 521.496 244.347 521.496C241.27 521.496 238.776 526.872 238.776 533.504C238.776 540.136 241.27 545.512 244.347 545.512ZM282.551 588.398C285.628 588.398 288.122 583.022 288.122 576.39C288.122 569.758 285.628 564.382 282.551 564.382C279.474 564.382 276.98 569.758 276.98 576.39C276.98 583.022 279.474 588.398 282.551 588.398ZM248.327 576.39C249.645 576.39 250.714 574.086 250.714 571.244C250.714 568.402 249.645 566.098 248.327 566.098C247.008 566.098 245.939 568.402 245.939 571.244C245.939 574.086 247.008 576.39 248.327 576.39ZM298.469 629.569C299.788 629.569 300.857 627.265 300.857 624.423C300.857 621.581 299.788 619.276 298.469 619.276C297.151 619.276 296.082 621.581 296.082 624.423C296.082 627.265 297.151 629.569 298.469 629.569ZM262.653 669.024C263.972 669.024 265.041 666.72 265.041 663.878C265.041 661.036 263.972 658.732 262.653 658.732C261.334 658.732 260.265 661.036 260.265 663.878C260.265 666.72 261.334 669.024 262.653 669.024ZM307.224 538.65C308.543 538.65 309.612 536.346 309.612 533.504C309.612 530.662 308.543 528.358 307.224 528.358C305.906 528.358 304.837 530.662 304.837 533.504C304.837 536.346 305.906 538.65 307.224 538.65ZM245.143 662.163C246.901 662.163 248.327 659.091 248.327 655.301C248.327 651.511 246.901 648.439 245.143 648.439C243.385 648.439 241.959 651.511 241.959 655.301C241.959 659.091 243.385 662.163 245.143 662.163ZM267.429 550.659C269.187 550.659 270.612 547.586 270.612 543.797C270.612 540.007 269.187 536.935 267.429 536.935C265.67 536.935 264.245 540.007 264.245 543.797C264.245 547.586 265.67 550.659 267.429 550.659ZM285.735 531.789C287.933 531.789 289.714 527.948 289.714 523.211C289.714 518.474 287.933 514.634 285.735 514.634C283.537 514.634 281.755 518.474 281.755 523.211C281.755 527.948 283.537 531.789 285.735 531.789ZM280.959 634.715C282.717 634.715 284.143 631.643 284.143 627.854C284.143 624.064 282.717 620.992 280.959 620.992C279.201 620.992 277.776 624.064 277.776 627.854C277.776 631.643 279.201 634.715 280.959 634.715ZM304.041 672.455C306.239 672.455 308.02 668.615 308.02 663.878C308.02 659.141 306.239 655.301 304.041 655.301C301.843 655.301 300.061 659.141 300.061 663.878C300.061 668.615 301.843 672.455 304.041 672.455ZM261.061 622.707C263.259 622.707 265.041 618.867 265.041 614.13C265.041 609.393 263.259 605.553 261.061 605.553C258.863 605.553 257.082 609.393 257.082 614.13C257.082 618.867 258.863 622.707 261.061 622.707ZM306.429 600.406C308.626 600.406 310.408 596.566 310.408 591.829C310.408 587.092 308.626 583.252 306.429 583.252C304.231 583.252 302.449 587.092 302.449 591.829C302.449 596.566 304.231 600.406 306.429 600.406ZM299.265 564.382C300.144 564.382 300.857 562.846 300.857 560.951C300.857 559.056 300.144 557.52 299.265 557.52C298.386 557.52 297.673 559.056 297.673 560.951C297.673 562.846 298.386 564.382 299.265 564.382ZM283.347 670.74C284.226 670.74 284.939 669.204 284.939 667.309C284.939 665.414 284.226 663.878 283.347 663.878C282.468 663.878 281.755 665.414 281.755 667.309C281.755 669.204 282.468 670.74 283.347 670.74ZM263.449 584.967C264.328 584.967 265.041 583.431 265.041 581.537C265.041 579.642 264.328 578.106 263.449 578.106C262.57 578.106 261.857 579.642 261.857 581.537C261.857 583.431 262.57 584.967 263.449 584.967ZM245.143 617.561C246.022 617.561 246.735 616.025 246.735 614.13C246.735 612.235 246.022 610.699 245.143 610.699C244.264 610.699 243.551 612.235 243.551 614.13C243.551 616.025 244.264 617.561 245.143 617.561Z" fill="#FABD31"/>
<path fill-rule="evenodd" clip-rule="evenodd" d="M323.939 545.512C327.016 545.512 329.51 540.136 329.51 533.504C329.51 526.872 327.016 521.496 323.939 521.496C320.862 521.496 318.367 526.872 318.367 533.504C318.367 540.136 320.862 545.512 323.939 545.512ZM362.143 588.398C365.22 588.398 367.714 583.022 367.714 576.39C367.714 569.758 365.22 564.382 362.143 564.382C359.066 564.382 356.571 569.758 356.571 576.39C356.571 583.022 359.066 588.398 362.143 588.398ZM327.918 576.39C329.237 576.39 330.306 574.086 330.306 571.244C330.306 568.402 329.237 566.098 327.918 566.098C326.6 566.098 325.531 568.402 325.531 571.244C325.531 574.086 326.6 576.39 327.918 576.39ZM378.061 629.569C379.38 629.569 380.449 627.265 380.449 624.423C380.449 621.581 379.38 619.276 378.061 619.276C376.742 619.276 375.673 621.581 375.673 624.423C375.673 627.265 376.742 629.569 378.061 629.569ZM342.245 669.024C343.564 669.024 344.633 666.72 344.633 663.878C344.633 661.036 343.564 658.732 342.245 658.732C340.926 658.732 339.857 661.036 339.857 663.878C339.857 666.72 340.926 669.024 342.245 669.024ZM386.816 538.65C388.135 538.65 389.204 536.346 389.204 533.504C389.204 530.662 388.135 528.358 386.816 528.358C385.498 528.358 384.429 530.662 384.429 533.504C384.429 536.346 385.498 538.65 386.816 538.65ZM324.735 662.163C326.493 662.163 327.918 659.091 327.918 655.301C327.918 651.511 326.493 648.439 324.735 648.439C322.976 648.439 321.551 651.511 321.551 655.301C321.551 659.091 322.976 662.163 324.735 662.163ZM347.02 550.659C348.779 550.659 350.204 547.586 350.204 543.797C350.204 540.007 348.779 536.935 347.02 536.935C345.262 536.935 343.837 540.007 343.837 543.797C343.837 547.586 345.262 550.659 347.02 550.659ZM365.327 531.789C367.524 531.789 369.306 527.948 369.306 523.211C369.306 518.474 367.524 514.634 365.327 514.634C363.129 514.634 361.347 518.474 361.347 523.211C361.347 527.948 363.129 531.789 365.327 531.789ZM360.551 634.715C362.309 634.715 363.735 631.643 363.735 627.854C363.735 624.064 362.309 620.992 360.551 620.992C358.793 620.992 357.367 624.064 357.367 627.854C357.367 631.643 358.793 634.715 360.551 634.715ZM383.633 672.455C385.831 672.455 387.612 668.615 387.612 663.878C387.612 659.141 385.831 655.301 383.633 655.301C381.435 655.301 379.653 659.141 379.653 663.878C379.653 668.615 381.435 672.455 383.633 672.455ZM340.653 622.707C342.851 622.707 344.633 618.867 344.633 614.13C344.633 609.393 342.851 605.553 340.653 605.553C338.455 605.553 336.673 609.393 336.673 614.13C336.673 618.867 338.455 622.707 340.653 622.707ZM386.02 600.406C388.218 600.406 390 596.566 390 591.829C390 587.092 388.218 583.252 386.02 583.252C383.823 583.252 382.041 587.092 382.041 591.829C382.041 596.566 383.823 600.406 386.02 600.406ZM378.857 564.382C379.736 564.382 380.449 562.846 380.449 560.951C380.449 559.056 379.736 557.52 378.857 557.52C377.978 557.52 377.265 559.056 377.265 560.951C377.265 562.846 377.978 564.382 378.857 564.382ZM362.939 670.74C363.818 670.74 364.531 669.204 364.531 667.309C364.531 665.414 363.818 663.878 362.939 663.878C362.06 663.878 361.347 665.414 361.347 667.309C361.347 669.204 362.06 670.74 362.939 670.74ZM343.041 584.967C343.92 584.967 344.633 583.431 344.633 581.537C344.633 579.642 343.92 578.106 343.041 578.106C342.162 578.106 341.449 579.642 341.449 581.537C341.449 583.431 342.162 584.967 343.041 584.967ZM324.735 617.561C325.614 617.561 326.327 616.025 326.327 614.13C326.327 612.235 325.614 610.699 324.735 610.699C323.856 610.699 323.143 612.235 323.143 614.13C323.143 616.025 323.856 617.561 324.735 617.561Z" fill="#FABD31"/>
<path fill-rule="evenodd" clip-rule="evenodd" d="M5.57143 717.057C8.64844 717.057 11.1429 711.681 11.1429 705.049C11.1429 698.417 8.64844 693.041 5.57143 693.041C2.49441 693.041 0 698.417 0 705.049C0 711.681 2.49441 717.057 5.57143 717.057ZM43.7755 759.943C46.8525 759.943 49.3469 754.567 49.3469 747.935C49.3469 741.303 46.8525 735.927 43.7755 735.927C40.6985 735.927 38.2041 741.303 38.2041 747.935C38.2041 754.567 40.6985 759.943 43.7755 759.943ZM9.55102 747.935C10.8697 747.935 11.9388 745.631 11.9388 742.789C11.9388 739.946 10.8697 737.642 9.55102 737.642C8.2323 737.642 7.16327 739.946 7.16327 742.789C7.16327 745.631 8.2323 747.935 9.55102 747.935ZM59.6939 801.114C61.0126 801.114 62.0816 798.81 62.0816 795.967C62.0816 793.125 61.0126 790.821 59.6939 790.821C58.3752 790.821 57.3061 793.125 57.3061 795.967C57.3061 798.81 58.3752 801.114 59.6939 801.114ZM23.8776 840.569C25.1963 840.569 26.2653 838.265 26.2653 835.423C26.2653 832.581 25.1963 830.276 23.8776 830.276C22.5588 830.276 21.4898 832.581 21.4898 835.423C21.4898 838.265 22.5588 840.569 23.8776 840.569ZM68.449 710.195C69.7677 710.195 70.8367 707.891 70.8367 705.049C70.8367 702.207 69.7677 699.902 68.449 699.902C67.1303 699.902 66.0612 702.207 66.0612 705.049C66.0612 707.891 67.1303 710.195 68.449 710.195ZM6.36735 833.707C8.12564 833.707 9.55102 830.635 9.55102 826.846C9.55102 823.056 8.12564 819.984 6.36735 819.984C4.60905 819.984 3.18367 823.056 3.18367 826.846C3.18367 830.635 4.60905 833.707 6.36735 833.707ZM28.6531 722.203C30.4114 722.203 31.8367 719.131 31.8367 715.341C31.8367 711.552 30.4114 708.48 28.6531 708.48C26.8948 708.48 25.4694 711.552 25.4694 715.341C25.4694 719.131 26.8948 722.203 28.6531 722.203ZM46.9592 703.333C49.1571 703.333 50.9388 699.493 50.9388 694.756C50.9388 690.019 49.1571 686.179 46.9592 686.179C44.7613 686.179 42.9796 690.019 42.9796 694.756C42.9796 699.493 44.7613 703.333 46.9592 703.333ZM42.1837 806.26C43.942 806.26 45.3673 803.188 45.3673 799.398C45.3673 795.609 43.942 792.537 42.1837 792.537C40.4254 792.537 39 795.609 39 799.398C39 803.188 40.4254 806.26 42.1837 806.26ZM65.2653 844C67.4632 844 69.2449 840.16 69.2449 835.423C69.2449 830.686 67.4632 826.846 65.2653 826.846C63.0674 826.846 61.2857 830.686 61.2857 835.423C61.2857 840.16 63.0674 844 65.2653 844ZM22.2857 794.252C24.4836 794.252 26.2653 790.412 26.2653 785.675C26.2653 780.938 24.4836 777.098 22.2857 777.098C20.0878 777.098 18.3061 780.938 18.3061 785.675C18.3061 790.412 20.0878 794.252 22.2857 794.252ZM67.6531 771.951C69.8509 771.951 71.6327 768.111 71.6327 763.374C71.6327 758.637 69.8509 754.797 67.6531 754.797C65.4552 754.797 63.6735 758.637 63.6735 763.374C63.6735 768.111 65.4552 771.951 67.6531 771.951ZM60.4898 735.927C61.3689 735.927 62.0816 734.391 62.0816 732.496C62.0816 730.601 61.3689 729.065 60.4898 729.065C59.6106 729.065 58.898 730.601 58.898 732.496C58.898 734.391 59.6106 735.927 60.4898 735.927ZM44.5714 842.285C45.4506 842.285 46.1633 840.748 46.1633 838.854C46.1633 836.959 45.4506 835.423 44.5714 835.423C43.6923 835.423 42.9796 836.959 42.9796 838.854C42.9796 840.748 43.6923 842.285 44.5714 842.285ZM24.6735 756.512C25.5526 756.512 26.2653 754.976 26.2653 753.081C26.2653 751.186 25.5526 749.65 24.6735 749.65C23.7943 749.65 23.0816 751.186 23.0816 753.081C23.0816 754.976 23.7943 756.512 24.6735 756.512ZM6.36735 789.106C7.24649 789.106 7.95918 787.57 7.95918 785.675C7.95918 783.78 7.24649 782.244 6.36735 782.244C5.4882 782.244 4.77551 783.78 4.77551 785.675C4.77551 787.57 5.4882 789.106 6.36735 789.106Z" fill="#FABD31"/>
<path fill-rule="evenodd" clip-rule="evenodd" d="M85.1633 717.057C88.2403 717.057 90.7347 711.681 90.7347 705.049C90.7347 698.417 88.2403 693.041 85.1633 693.041C82.0863 693.041 79.5918 698.417 79.5918 705.049C79.5918 711.681 82.0863 717.057 85.1633 717.057ZM123.367 759.943C126.444 759.943 128.939 754.567 128.939 747.935C128.939 741.303 126.444 735.927 123.367 735.927C120.29 735.927 117.796 741.303 117.796 747.935C117.796 754.567 120.29 759.943 123.367 759.943ZM89.1429 747.935C90.4616 747.935 91.5306 745.631 91.5306 742.789C91.5306 739.946 90.4616 737.642 89.1429 737.642C87.8241 737.642 86.7551 739.946 86.7551 742.789C86.7551 745.631 87.8241 747.935 89.1429 747.935ZM139.286 801.114C140.604 801.114 141.673 798.81 141.673 795.967C141.673 793.125 140.604 790.821 139.286 790.821C137.967 790.821 136.898 793.125 136.898 795.967C136.898 798.81 137.967 801.114 139.286 801.114ZM103.469 840.569C104.788 840.569 105.857 838.265 105.857 835.423C105.857 832.581 104.788 830.276 103.469 830.276C102.151 830.276 101.082 832.581 101.082 835.423C101.082 838.265 102.151 840.569 103.469 840.569ZM148.041 710.195C149.36 710.195 150.429 707.891 150.429 705.049C150.429 702.207 149.36 699.902 148.041 699.902C146.722 699.902 145.653 702.207 145.653 705.049C145.653 707.891 146.722 710.195 148.041 710.195ZM85.9592 833.707C87.7175 833.707 89.1429 830.635 89.1429 826.846C89.1429 823.056 87.7175 819.984 85.9592 819.984C84.2009 819.984 82.7755 823.056 82.7755 826.846C82.7755 830.635 84.2009 833.707 85.9592 833.707ZM108.245 722.203C110.003 722.203 111.429 719.131 111.429 715.341C111.429 711.552 110.003 708.48 108.245 708.48C106.487 708.48 105.061 711.552 105.061 715.341C105.061 719.131 106.487 722.203 108.245 722.203ZM126.551 703.333C128.749 703.333 130.531 699.493 130.531 694.756C130.531 690.019 128.749 686.179 126.551 686.179C124.353 686.179 122.571 690.019 122.571 694.756C122.571 699.493 124.353 703.333 126.551 703.333ZM121.776 806.26C123.534 806.26 124.959 803.188 124.959 799.398C124.959 795.609 123.534 792.537 121.776 792.537C120.017 792.537 118.592 795.609 118.592 799.398C118.592 803.188 120.017 806.26 121.776 806.26ZM144.857 844C147.055 844 148.837 840.16 148.837 835.423C148.837 830.686 147.055 826.846 144.857 826.846C142.659 826.846 140.878 830.686 140.878 835.423C140.878 840.16 142.659 844 144.857 844ZM101.878 794.252C104.075 794.252 105.857 790.412 105.857 785.675C105.857 780.938 104.075 777.098 101.878 777.098C99.6797 777.098 97.898 780.938 97.898 785.675C97.898 790.412 99.6797 794.252 101.878 794.252ZM147.245 771.951C149.443 771.951 151.224 768.111 151.224 763.374C151.224 758.637 149.443 754.797 147.245 754.797C145.047 754.797 143.265 758.637 143.265 763.374C143.265 768.111 145.047 771.951 147.245 771.951ZM140.082 735.927C140.961 735.927 141.673 734.391 141.673 732.496C141.673 730.601 140.961 729.065 140.082 729.065C139.202 729.065 138.49 730.601 138.49 732.496C138.49 734.391 139.202 735.927 140.082 735.927ZM124.163 842.285C125.042 842.285 125.755 840.748 125.755 838.854C125.755 836.959 125.042 835.423 124.163 835.423C123.284 835.423 122.571 836.959 122.571 838.854C122.571 840.748 123.284 842.285 124.163 842.285ZM104.265 756.512C105.144 756.512 105.857 754.976 105.857 753.081C105.857 751.186 105.144 749.65 104.265 749.65C103.386 749.65 102.673 751.186 102.673 753.081C102.673 754.976 103.386 756.512 104.265 756.512ZM85.9592 789.106C86.8383 789.106 87.551 787.57 87.551 785.675C87.551 783.78 86.8383 782.244 85.9592 782.244C85.08 782.244 84.3674 783.78 84.3674 785.675C84.3674 787.57 85.08 789.106 85.9592 789.106Z" fill="#FABD31"/>
<path fill-rule="evenodd" clip-rule="evenodd" d="M164.755 717.057C167.832 717.057 170.327 711.681 170.327 705.049C170.327 698.417 167.832 693.041 164.755 693.041C161.678 693.041 159.184 698.417 159.184 705.049C159.184 711.681 161.678 717.057 164.755 717.057ZM202.959 759.943C206.036 759.943 208.531 754.567 208.531 747.935C208.531 741.303 206.036 735.927 202.959 735.927C199.882 735.927 197.388 741.303 197.388 747.935C197.388 754.567 199.882 759.943 202.959 759.943ZM168.735 747.935C170.053 747.935 171.122 745.631 171.122 742.789C171.122 739.946 170.053 737.642 168.735 737.642C167.416 737.642 166.347 739.946 166.347 742.789C166.347 745.631 167.416 747.935 168.735 747.935ZM218.878 801.114C220.196 801.114 221.265 798.81 221.265 795.967C221.265 793.125 220.196 790.821 218.878 790.821C217.559 790.821 216.49 793.125 216.49 795.967C216.49 798.81 217.559 801.114 218.878 801.114ZM183.061 840.569C184.38 840.569 185.449 838.265 185.449 835.423C185.449 832.581 184.38 830.276 183.061 830.276C181.742 830.276 180.673 832.581 180.673 835.423C180.673 838.265 181.742 840.569 183.061 840.569ZM227.633 710.195C228.951 710.195 230.02 707.891 230.02 705.049C230.02 702.207 228.951 699.902 227.633 699.902C226.314 699.902 225.245 702.207 225.245 705.049C225.245 707.891 226.314 710.195 227.633 710.195ZM165.551 833.707C167.309 833.707 168.735 830.635 168.735 826.846C168.735 823.056 167.309 819.984 165.551 819.984C163.793 819.984 162.367 823.056 162.367 826.846C162.367 830.635 163.793 833.707 165.551 833.707ZM187.837 722.203C189.595 722.203 191.02 719.131 191.02 715.341C191.02 711.552 189.595 708.48 187.837 708.48C186.078 708.48 184.653 711.552 184.653 715.341C184.653 719.131 186.078 722.203 187.837 722.203ZM206.143 703.333C208.341 703.333 210.122 699.493 210.122 694.756C210.122 690.019 208.341 686.179 206.143 686.179C203.945 686.179 202.163 690.019 202.163 694.756C202.163 699.493 203.945 703.333 206.143 703.333ZM201.367 806.26C203.126 806.26 204.551 803.188 204.551 799.398C204.551 795.609 203.126 792.537 201.367 792.537C199.609 792.537 198.184 795.609 198.184 799.398C198.184 803.188 199.609 806.26 201.367 806.26ZM224.449 844C226.647 844 228.429 840.16 228.429 835.423C228.429 830.686 226.647 826.846 224.449 826.846C222.251 826.846 220.469 830.686 220.469 835.423C220.469 840.16 222.251 844 224.449 844ZM181.469 794.252C183.667 794.252 185.449 790.412 185.449 785.675C185.449 780.938 183.667 777.098 181.469 777.098C179.271 777.098 177.49 780.938 177.49 785.675C177.49 790.412 179.271 794.252 181.469 794.252ZM226.837 771.951C229.035 771.951 230.816 768.111 230.816 763.374C230.816 758.637 229.035 754.797 226.837 754.797C224.639 754.797 222.857 758.637 222.857 763.374C222.857 768.111 224.639 771.951 226.837 771.951ZM219.673 735.927C220.553 735.927 221.265 734.391 221.265 732.496C221.265 730.601 220.553 729.065 219.673 729.065C218.794 729.065 218.082 730.601 218.082 732.496C218.082 734.391 218.794 735.927 219.673 735.927ZM203.755 842.285C204.634 842.285 205.347 840.748 205.347 838.854C205.347 836.959 204.634 835.423 203.755 835.423C202.876 835.423 202.163 836.959 202.163 838.854C202.163 840.748 202.876 842.285 203.755 842.285ZM183.857 756.512C184.736 756.512 185.449 754.976 185.449 753.081C185.449 751.186 184.736 749.65 183.857 749.65C182.978 749.65 182.265 751.186 182.265 753.081C182.265 754.976 182.978 756.512 183.857 756.512ZM165.551 789.106C166.43 789.106 167.143 787.57 167.143 785.675C167.143 783.78 166.43 782.244 165.551 782.244C164.672 782.244 163.959 783.78 163.959 785.675C163.959 787.57 164.672 789.106 165.551 789.106Z" fill="#FABD31"/>
<path fill-rule="evenodd" clip-rule="evenodd" d="M244.347 717.057C247.424 717.057 249.918 711.681 249.918 705.049C249.918 698.417 247.424 693.041 244.347 693.041C241.27 693.041 238.776 698.417 238.776 705.049C238.776 711.681 241.27 717.057 244.347 717.057ZM282.551 759.943C285.628 759.943 288.122 754.567 288.122 747.935C288.122 741.303 285.628 735.927 282.551 735.927C279.474 735.927 276.98 741.303 276.98 747.935C276.98 754.567 279.474 759.943 282.551 759.943ZM248.327 747.935C249.645 747.935 250.714 745.631 250.714 742.789C250.714 739.946 249.645 737.642 248.327 737.642C247.008 737.642 245.939 739.946 245.939 742.789C245.939 745.631 247.008 747.935 248.327 747.935ZM298.469 801.114C299.788 801.114 300.857 798.81 300.857 795.967C300.857 793.125 299.788 790.821 298.469 790.821C297.151 790.821 296.082 793.125 296.082 795.967C296.082 798.81 297.151 801.114 298.469 801.114ZM262.653 840.569C263.972 840.569 265.041 838.265 265.041 835.423C265.041 832.581 263.972 830.276 262.653 830.276C261.334 830.276 260.265 832.581 260.265 835.423C260.265 838.265 261.334 840.569 262.653 840.569ZM307.224 710.195C308.543 710.195 309.612 707.891 309.612 705.049C309.612 702.207 308.543 699.902 307.224 699.902C305.906 699.902 304.837 702.207 304.837 705.049C304.837 707.891 305.906 710.195 307.224 710.195ZM245.143 833.707C246.901 833.707 248.327 830.635 248.327 826.846C248.327 823.056 246.901 819.984 245.143 819.984C243.385 819.984 241.959 823.056 241.959 826.846C241.959 830.635 243.385 833.707 245.143 833.707ZM267.429 722.203C269.187 722.203 270.612 719.131 270.612 715.341C270.612 711.552 269.187 708.48 267.429 708.48C265.67 708.48 264.245 711.552 264.245 715.341C264.245 719.131 265.67 722.203 267.429 722.203ZM285.735 703.333C287.933 703.333 289.714 699.493 289.714 694.756C289.714 690.019 287.933 686.179 285.735 686.179C283.537 686.179 281.755 690.019 281.755 694.756C281.755 699.493 283.537 703.333 285.735 703.333ZM280.959 806.26C282.717 806.26 284.143 803.188 284.143 799.398C284.143 795.609 282.717 792.537 280.959 792.537C279.201 792.537 277.776 795.609 277.776 799.398C277.776 803.188 279.201 806.26 280.959 806.26ZM304.041 844C306.239 844 308.02 840.16 308.02 835.423C308.02 830.686 306.239 826.846 304.041 826.846C301.843 826.846 300.061 830.686 300.061 835.423C300.061 840.16 301.843 844 304.041 844ZM261.061 794.252C263.259 794.252 265.041 790.412 265.041 785.675C265.041 780.938 263.259 777.098 261.061 777.098C258.863 777.098 257.082 780.938 257.082 785.675C257.082 790.412 258.863 794.252 261.061 794.252ZM306.429 771.951C308.626 771.951 310.408 768.111 310.408 763.374C310.408 758.637 308.626 754.797 306.429 754.797C304.231 754.797 302.449 758.637 302.449 763.374C302.449 768.111 304.231 771.951 306.429 771.951ZM299.265 735.927C300.144 735.927 300.857 734.391 300.857 732.496C300.857 730.601 300.144 729.065 299.265 729.065C298.386 729.065 297.673 730.601 297.673 732.496C297.673 734.391 298.386 735.927 299.265 735.927ZM283.347 842.285C284.226 842.285 284.939 840.748 284.939 838.854C284.939 836.959 284.226 835.423 283.347 835.423C282.468 835.423 281.755 836.959 281.755 838.854C281.755 840.748 282.468 842.285 283.347 842.285ZM263.449 756.512C264.328 756.512 265.041 754.976 265.041 753.081C265.041 751.186 264.328 749.65 263.449 749.65C262.57 749.65 261.857 751.186 261.857 753.081C261.857 754.976 262.57 756.512 263.449 756.512ZM245.143 789.106C246.022 789.106 246.735 787.57 246.735 785.675C246.735 783.78 246.022 782.244 245.143 782.244C244.264 782.244 243.551 783.78 243.551 785.675C243.551 787.57 244.264 789.106 245.143 789.106Z" fill="#FABD31"/>
<path fill-rule="evenodd" clip-rule="evenodd" d="M323.939 717.057C327.016 717.057 329.51 711.681 329.51 705.049C329.51 698.417 327.016 693.041 323.939 693.041C320.862 693.041 318.367 698.417 318.367 705.049C318.367 711.681 320.862 717.057 323.939 717.057ZM362.143 759.943C365.22 759.943 367.714 754.567 367.714 747.935C367.714 741.303 365.22 735.927 362.143 735.927C359.066 735.927 356.571 741.303 356.571 747.935C356.571 754.567 359.066 759.943 362.143 759.943ZM327.918 747.935C329.237 747.935 330.306 745.631 330.306 742.789C330.306 739.946 329.237 737.642 327.918 737.642C326.6 737.642 325.531 739.946 325.531 742.789C325.531 745.631 326.6 747.935 327.918 747.935ZM378.061 801.114C379.38 801.114 380.449 798.81 380.449 795.967C380.449 793.125 379.38 790.821 378.061 790.821C376.742 790.821 375.673 793.125 375.673 795.967C375.673 798.81 376.742 801.114 378.061 801.114ZM342.245 840.569C343.564 840.569 344.633 838.265 344.633 835.423C344.633 832.581 343.564 830.276 342.245 830.276C340.926 830.276 339.857 832.581 339.857 835.423C339.857 838.265 340.926 840.569 342.245 840.569ZM386.816 710.195C388.135 710.195 389.204 707.891 389.204 705.049C389.204 702.207 388.135 699.902 386.816 699.902C385.498 699.902 384.429 702.207 384.429 705.049C384.429 707.891 385.498 710.195 386.816 710.195ZM324.735 833.707C326.493 833.707 327.918 830.635 327.918 826.846C327.918 823.056 326.493 819.984 324.735 819.984C322.976 819.984 321.551 823.056 321.551 826.846C321.551 830.635 322.976 833.707 324.735 833.707ZM347.02 722.203C348.779 722.203 350.204 719.131 350.204 715.341C350.204 711.552 348.779 708.48 347.02 708.48C345.262 708.48 343.837 711.552 343.837 715.341C343.837 719.131 345.262 722.203 347.02 722.203ZM365.327 703.333C367.524 703.333 369.306 699.493 369.306 694.756C369.306 690.019 367.524 686.179 365.327 686.179C363.129 686.179 361.347 690.019 361.347 694.756C361.347 699.493 363.129 703.333 365.327 703.333ZM360.551 806.26C362.309 806.26 363.735 803.188 363.735 799.398C363.735 795.609 362.309 792.537 360.551 792.537C358.793 792.537 357.367 795.609 357.367 799.398C357.367 803.188 358.793 806.26 360.551 806.26ZM383.633 844C385.831 844 387.612 840.16 387.612 835.423C387.612 830.686 385.831 826.846 383.633 826.846C381.435 826.846 379.653 830.686 379.653 835.423C379.653 840.16 381.435 844 383.633 844ZM340.653 794.252C342.851 794.252 344.633 790.412 344.633 785.675C344.633 780.938 342.851 777.098 340.653 777.098C338.455 777.098 336.673 780.938 336.673 785.675C336.673 790.412 338.455 794.252 340.653 794.252ZM386.02 771.951C388.218 771.951 390 768.111 390 763.374C390 758.637 388.218 754.797 386.02 754.797C383.823 754.797 382.041 758.637 382.041 763.374C382.041 768.111 383.823 771.951 386.02 771.951ZM378.857 735.927C379.736 735.927 380.449 734.391 380.449 732.496C380.449 730.601 379.736 729.065 378.857 729.065C377.978 729.065 377.265 730.601 377.265 732.496C377.265 734.391 377.978 735.927 378.857 735.927ZM362.939 842.285C363.818 842.285 364.531 840.748 364.531 838.854C364.531 836.959 363.818 835.423 362.939 835.423C362.06 835.423 361.347 836.959 361.347 838.854C361.347 840.748 362.06 842.285 362.939 842.285ZM343.041 756.512C343.92 756.512 344.633 754.976 344.633 753.081C344.633 751.186 343.92 749.65 343.041 749.65C342.162 749.65 341.449 751.186 341.449 753.081C341.449 754.976 342.162 756.512 343.041 756.512ZM324.735 789.106C325.614 789.106 326.327 787.57 326.327 785.675C326.327 783.78 325.614 782.244 324.735 782.244C323.856 782.244 323.143 783.78 323.143 785.675C323.143 787.57 323.856 789.106 324.735 789.106Z" fill="#FABD31"/>
</g>
<defs>
<filter id="filter0_f_1_779" x="-24" y="-24" width="438" height="892" filterUnits="userSpaceOnUse" color-interpolation-filters="sRGB">
<feFlood flood-opacity="0" result="BackgroundImageFix"/>
<feBlend mode="normal" in="SourceGraphic" in2="BackgroundImageFix" result="shape"/>
<feGaussianBlur stdDeviation="12" result="effect1_foregroundBlur_1_779"/>
</filter>
</defs>
</svg>
