<svg width="1488" height="2418" viewBox="0 0 1488 2418" fill="none" xmlns="http://www.w3.org/2000/svg">
<path d="M1464 2417C1324.81 2337.37 1459.88 2149.84 1390 2005.5C1312.84 1846.11 1415 1612 1458.5 1498C1484.5 1399 1353.5 1284 1464 1127" stroke="url(#paint0_linear_1_875)"/>
<path d="M24.0202 226C38.6365 237.585 52.4889 253.757 65.5262 271.899C87.8115 302.91 102.748 347.711 118.894 391.45C136.945 440.352 165.132 483.185 165.979 544.032C166.825 604.869 142.431 654.564 123.209 701.618C106.144 743.392 85.4424 777.752 61.0994 800.769C49.2293 811.993 36.7623 818.049 24 822" stroke="url(#paint1_linear_1_875)"/>
<path d="M1240.98 30C1199.38 47.0989 1162.39 74.0751 1124.6 102.081C1055.49 153.292 958.062 189.183 945.872 274.328C933.114 363.444 986.882 463.156 1067.04 504.137C1139.63 541.247 1215.99 464.148 1296.85 453.766C1353.22 446.527 1420.07 488.389 1464 460.263" stroke="url(#paint2_linear_1_875)"/>
<g opacity="0.2" filter="url(#filter0_f_1_875)">
<path fill-rule="evenodd" clip-rule="evenodd" d="M44.5714 75.8415C55.9327 75.8415 65.1429 66.8153 65.1429 55.6809C65.1429 44.5465 55.9327 35.5203 44.5714 35.5203C33.2101 35.5203 24 44.5465 24 55.6809C24 66.8153 33.2101 75.8415 44.5714 75.8415ZM185.633 147.843C196.994 147.843 206.204 138.817 206.204 127.683C206.204 116.549 196.994 107.522 185.633 107.522C174.271 107.522 165.061 116.549 165.061 127.683C165.061 138.817 174.271 147.843 185.633 147.843ZM59.2653 127.683C64.1344 127.683 68.0816 123.815 68.0816 119.043C68.0816 114.271 64.1344 110.402 59.2653 110.402C54.3962 110.402 50.449 114.271 50.449 119.043C50.449 123.815 54.3962 127.683 59.2653 127.683ZM244.408 216.965C249.277 216.965 253.225 213.097 253.225 208.325C253.225 203.553 249.277 199.685 244.408 199.685C239.539 199.685 235.592 203.553 235.592 208.325C235.592 213.097 239.539 216.965 244.408 216.965ZM112.163 283.207C117.032 283.207 120.98 279.339 120.98 274.567C120.98 269.795 117.032 265.927 112.163 265.927C107.294 265.927 103.347 269.795 103.347 274.567C103.347 279.339 107.294 283.207 112.163 283.207ZM276.735 64.3211C281.604 64.3211 285.551 60.4528 285.551 55.6809C285.551 50.909 281.604 47.0406 276.735 47.0406C271.866 47.0406 267.918 50.909 267.918 55.6809C267.918 60.4528 271.866 64.3211 276.735 64.3211ZM47.5102 271.687C54.0024 271.687 59.2653 266.529 59.2653 260.167C59.2653 253.804 54.0024 248.646 47.5102 248.646C41.018 248.646 35.7551 253.804 35.7551 260.167C35.7551 266.529 41.018 271.687 47.5102 271.687ZM129.796 84.4817C136.288 84.4817 141.551 79.3239 141.551 72.9614C141.551 66.5989 136.288 61.4411 129.796 61.4411C123.304 61.4411 118.041 66.5989 118.041 72.9614C118.041 79.3239 123.304 84.4817 129.796 84.4817ZM197.388 52.8008C205.503 52.8008 212.082 46.3535 212.082 38.4004C212.082 30.4473 205.503 24 197.388 24C189.273 24 182.694 30.4473 182.694 38.4004C182.694 46.3535 189.273 52.8008 197.388 52.8008ZM179.755 225.606C186.247 225.606 191.51 220.448 191.51 214.085C191.51 207.723 186.247 202.565 179.755 202.565C173.263 202.565 168 207.723 168 214.085C168 220.448 173.263 225.606 179.755 225.606ZM264.98 288.967C273.095 288.967 279.673 282.52 279.673 274.567C279.673 266.614 273.095 260.167 264.98 260.167C256.864 260.167 250.286 266.614 250.286 274.567C250.286 282.52 256.864 288.967 264.98 288.967ZM106.286 205.445C114.401 205.445 120.98 198.998 120.98 191.045C120.98 183.092 114.401 176.644 106.286 176.644C98.1705 176.644 91.5918 183.092 91.5918 191.045C91.5918 198.998 98.1705 205.445 106.286 205.445ZM273.796 168.004C281.911 168.004 288.49 161.557 288.49 153.604C288.49 145.651 281.911 139.203 273.796 139.203C265.681 139.203 259.102 145.651 259.102 153.604C259.102 161.557 265.681 168.004 273.796 168.004ZM247.347 107.522C250.593 107.522 253.225 104.943 253.225 101.762C253.225 98.5809 250.593 96.002 247.347 96.002C244.101 96.002 241.469 98.5809 241.469 101.762C241.469 104.943 244.101 107.522 247.347 107.522ZM188.571 286.087C191.818 286.087 194.449 283.508 194.449 280.327C194.449 277.146 191.818 274.567 188.571 274.567C185.325 274.567 182.694 277.146 182.694 280.327C182.694 283.508 185.325 286.087 188.571 286.087ZM115.102 142.083C118.348 142.083 120.98 139.504 120.98 136.323C120.98 133.142 118.348 130.563 115.102 130.563C111.856 130.563 109.224 133.142 109.224 136.323C109.224 139.504 111.856 142.083 115.102 142.083ZM47.5102 196.805C50.7563 196.805 53.3878 194.226 53.3878 191.045C53.3878 187.863 50.7563 185.285 47.5102 185.285C44.2641 185.285 41.6327 187.863 41.6327 191.045C41.6327 194.226 44.2641 196.805 47.5102 196.805Z" fill="#FABD31"/>
<path fill-rule="evenodd" clip-rule="evenodd" d="M338.449 75.8415C349.81 75.8415 359.02 66.8153 359.02 55.6809C359.02 44.5465 349.81 35.5203 338.449 35.5203C327.088 35.5203 317.878 44.5465 317.878 55.6809C317.878 66.8153 327.088 75.8415 338.449 75.8415ZM479.51 147.843C490.872 147.843 500.082 138.817 500.082 127.683C500.082 116.549 490.872 107.522 479.51 107.522C468.149 107.522 458.939 116.549 458.939 127.683C458.939 138.817 468.149 147.843 479.51 147.843ZM353.143 127.683C358.012 127.683 361.959 123.815 361.959 119.043C361.959 114.271 358.012 110.402 353.143 110.402C348.274 110.402 344.327 114.271 344.327 119.043C344.327 123.815 348.274 127.683 353.143 127.683ZM538.286 216.965C543.155 216.965 547.102 213.097 547.102 208.325C547.102 203.553 543.155 199.685 538.286 199.685C533.417 199.685 529.469 203.553 529.469 208.325C529.469 213.097 533.417 216.965 538.286 216.965ZM406.041 283.207C410.91 283.207 414.857 279.339 414.857 274.567C414.857 269.795 410.91 265.927 406.041 265.927C401.172 265.927 397.224 269.795 397.224 274.567C397.224 279.339 401.172 283.207 406.041 283.207ZM570.612 64.3211C575.481 64.3211 579.429 60.4528 579.429 55.6809C579.429 50.909 575.481 47.0406 570.612 47.0406C565.743 47.0406 561.796 50.909 561.796 55.6809C561.796 60.4528 565.743 64.3211 570.612 64.3211ZM341.388 271.687C347.88 271.687 353.143 266.529 353.143 260.167C353.143 253.804 347.88 248.646 341.388 248.646C334.896 248.646 329.633 253.804 329.633 260.167C329.633 266.529 334.896 271.687 341.388 271.687ZM423.673 84.4817C430.166 84.4817 435.429 79.3239 435.429 72.9614C435.429 66.5989 430.166 61.4411 423.673 61.4411C417.181 61.4411 411.918 66.5989 411.918 72.9614C411.918 79.3239 417.181 84.4817 423.673 84.4817ZM491.265 52.8008C499.381 52.8008 505.959 46.3535 505.959 38.4004C505.959 30.4473 499.381 24 491.265 24C483.15 24 476.571 30.4473 476.571 38.4004C476.571 46.3535 483.15 52.8008 491.265 52.8008ZM473.633 225.606C480.125 225.606 485.388 220.448 485.388 214.085C485.388 207.723 480.125 202.565 473.633 202.565C467.141 202.565 461.878 207.723 461.878 214.085C461.878 220.448 467.141 225.606 473.633 225.606ZM558.857 288.967C566.972 288.967 573.551 282.52 573.551 274.567C573.551 266.614 566.972 260.167 558.857 260.167C550.742 260.167 544.163 266.614 544.163 274.567C544.163 282.52 550.742 288.967 558.857 288.967ZM400.163 205.445C408.278 205.445 414.857 198.998 414.857 191.045C414.857 183.092 408.278 176.644 400.163 176.644C392.048 176.644 385.469 183.092 385.469 191.045C385.469 198.998 392.048 205.445 400.163 205.445ZM567.674 168.004C575.789 168.004 582.367 161.557 582.367 153.604C582.367 145.651 575.789 139.203 567.674 139.203C559.558 139.203 552.98 145.651 552.98 153.604C552.98 161.557 559.558 168.004 567.674 168.004ZM541.225 107.522C544.471 107.522 547.102 104.943 547.102 101.762C547.102 98.5809 544.471 96.002 541.225 96.002C537.978 96.002 535.347 98.5809 535.347 101.762C535.347 104.943 537.978 107.522 541.225 107.522ZM482.449 286.087C485.695 286.087 488.327 283.508 488.327 280.327C488.327 277.146 485.695 274.567 482.449 274.567C479.203 274.567 476.571 277.146 476.571 280.327C476.571 283.508 479.203 286.087 482.449 286.087ZM408.98 142.083C412.226 142.083 414.857 139.504 414.857 136.323C414.857 133.142 412.226 130.563 408.98 130.563C405.734 130.563 403.102 133.142 403.102 136.323C403.102 139.504 405.734 142.083 408.98 142.083ZM341.388 196.805C344.634 196.805 347.265 194.226 347.265 191.045C347.265 187.863 344.634 185.285 341.388 185.285C338.142 185.285 335.51 187.863 335.51 191.045C335.51 194.226 338.142 196.805 341.388 196.805Z" fill="#FABD31"/>
<path fill-rule="evenodd" clip-rule="evenodd" d="M632.326 75.8415C643.688 75.8415 652.898 66.8153 652.898 55.6809C652.898 44.5465 643.688 35.5203 632.326 35.5203C620.965 35.5203 611.755 44.5465 611.755 55.6809C611.755 66.8153 620.965 75.8415 632.326 75.8415ZM773.388 147.843C784.749 147.843 793.959 138.817 793.959 127.683C793.959 116.549 784.749 107.522 773.388 107.522C762.026 107.522 752.816 116.549 752.816 127.683C752.816 138.817 762.026 147.843 773.388 147.843ZM647.02 127.683C651.889 127.683 655.837 123.815 655.837 119.043C655.837 114.271 651.889 110.402 647.02 110.402C642.151 110.402 638.204 114.271 638.204 119.043C638.204 123.815 642.151 127.683 647.02 127.683ZM832.163 216.965C837.032 216.965 840.98 213.097 840.98 208.325C840.98 203.553 837.032 199.685 832.163 199.685C827.294 199.685 823.347 203.553 823.347 208.325C823.347 213.097 827.294 216.965 832.163 216.965ZM699.918 283.207C704.787 283.207 708.735 279.339 708.735 274.567C708.735 269.795 704.787 265.927 699.918 265.927C695.049 265.927 691.102 269.795 691.102 274.567C691.102 279.339 695.049 283.207 699.918 283.207ZM864.49 64.3211C869.359 64.3211 873.306 60.4528 873.306 55.6809C873.306 50.909 869.359 47.0406 864.49 47.0406C859.621 47.0406 855.673 50.909 855.673 55.6809C855.673 60.4528 859.621 64.3211 864.49 64.3211ZM635.265 271.687C641.757 271.687 647.02 266.529 647.02 260.167C647.02 253.804 641.757 248.646 635.265 248.646C628.773 248.646 623.51 253.804 623.51 260.167C623.51 266.529 628.773 271.687 635.265 271.687ZM717.551 84.4817C724.043 84.4817 729.306 79.3239 729.306 72.9614C729.306 66.5989 724.043 61.4411 717.551 61.4411C711.059 61.4411 705.796 66.5989 705.796 72.9614C705.796 79.3239 711.059 84.4817 717.551 84.4817ZM785.143 52.8008C793.258 52.8008 799.837 46.3535 799.837 38.4004C799.837 30.4473 793.258 24 785.143 24C777.028 24 770.449 30.4473 770.449 38.4004C770.449 46.3535 777.028 52.8008 785.143 52.8008ZM767.51 225.606C774.002 225.606 779.265 220.448 779.265 214.085C779.265 207.723 774.002 202.565 767.51 202.565C761.018 202.565 755.755 207.723 755.755 214.085C755.755 220.448 761.018 225.606 767.51 225.606ZM852.735 288.967C860.85 288.967 867.429 282.52 867.429 274.567C867.429 266.614 860.85 260.167 852.735 260.167C844.619 260.167 838.041 266.614 838.041 274.567C838.041 282.52 844.619 288.967 852.735 288.967ZM694.041 205.445C702.156 205.445 708.735 198.998 708.735 191.045C708.735 183.092 702.156 176.644 694.041 176.644C685.926 176.644 679.347 183.092 679.347 191.045C679.347 198.998 685.926 205.445 694.041 205.445ZM861.551 168.004C869.666 168.004 876.245 161.557 876.245 153.604C876.245 145.651 869.666 139.203 861.551 139.203C853.436 139.203 846.857 145.651 846.857 153.604C846.857 161.557 853.436 168.004 861.551 168.004ZM835.102 107.522C838.348 107.522 840.98 104.943 840.98 101.762C840.98 98.5809 838.348 96.002 835.102 96.002C831.856 96.002 829.224 98.5809 829.224 101.762C829.224 104.943 831.856 107.522 835.102 107.522ZM776.326 286.087C779.573 286.087 782.204 283.508 782.204 280.327C782.204 277.146 779.573 274.567 776.326 274.567C773.08 274.567 770.449 277.146 770.449 280.327C770.449 283.508 773.08 286.087 776.326 286.087ZM702.857 142.083C706.103 142.083 708.735 139.504 708.735 136.323C708.735 133.142 706.103 130.563 702.857 130.563C699.611 130.563 696.98 133.142 696.98 136.323C696.98 139.504 699.611 142.083 702.857 142.083ZM635.265 196.805C638.511 196.805 641.143 194.226 641.143 191.045C641.143 187.863 638.511 185.285 635.265 185.285C632.019 185.285 629.388 187.863 629.388 191.045C629.388 194.226 632.019 196.805 635.265 196.805Z" fill="#FABD31"/>
<path fill-rule="evenodd" clip-rule="evenodd" d="M926.204 75.8415C937.565 75.8415 946.776 66.8153 946.776 55.6809C946.776 44.5465 937.565 35.5203 926.204 35.5203C914.843 35.5203 905.633 44.5465 905.633 55.6809C905.633 66.8153 914.843 75.8415 926.204 75.8415ZM1067.27 147.843C1078.63 147.843 1087.84 138.817 1087.84 127.683C1087.84 116.549 1078.63 107.522 1067.27 107.522C1055.9 107.522 1046.69 116.549 1046.69 127.683C1046.69 138.817 1055.9 147.843 1067.27 147.843ZM940.898 127.683C945.767 127.683 949.714 123.815 949.714 119.043C949.714 114.271 945.767 110.402 940.898 110.402C936.029 110.402 932.082 114.271 932.082 119.043C932.082 123.815 936.029 127.683 940.898 127.683ZM1126.04 216.965C1130.91 216.965 1134.86 213.097 1134.86 208.325C1134.86 203.553 1130.91 199.685 1126.04 199.685C1121.17 199.685 1117.22 203.553 1117.22 208.325C1117.22 213.097 1121.17 216.965 1126.04 216.965ZM993.796 283.207C998.665 283.207 1002.61 279.339 1002.61 274.567C1002.61 269.795 998.665 265.927 993.796 265.927C988.927 265.927 984.98 269.795 984.98 274.567C984.98 279.339 988.927 283.207 993.796 283.207ZM1158.37 64.3211C1163.24 64.3211 1167.18 60.4528 1167.18 55.6809C1167.18 50.909 1163.24 47.0406 1158.37 47.0406C1153.5 47.0406 1149.55 50.909 1149.55 55.6809C1149.55 60.4528 1153.5 64.3211 1158.37 64.3211ZM929.143 271.687C935.635 271.687 940.898 266.529 940.898 260.167C940.898 253.804 935.635 248.646 929.143 248.646C922.651 248.646 917.388 253.804 917.388 260.167C917.388 266.529 922.651 271.687 929.143 271.687ZM1011.43 84.4817C1017.92 84.4817 1023.18 79.3239 1023.18 72.9614C1023.18 66.5989 1017.92 61.4411 1011.43 61.4411C1004.94 61.4411 999.674 66.5989 999.674 72.9614C999.674 79.3239 1004.94 84.4817 1011.43 84.4817ZM1079.02 52.8008C1087.14 52.8008 1093.71 46.3535 1093.71 38.4004C1093.71 30.4473 1087.14 24 1079.02 24C1070.91 24 1064.33 30.4473 1064.33 38.4004C1064.33 46.3535 1070.91 52.8008 1079.02 52.8008ZM1061.39 225.606C1067.88 225.606 1073.14 220.448 1073.14 214.085C1073.14 207.723 1067.88 202.565 1061.39 202.565C1054.9 202.565 1049.63 207.723 1049.63 214.085C1049.63 220.448 1054.9 225.606 1061.39 225.606ZM1146.61 288.967C1154.73 288.967 1161.31 282.52 1161.31 274.567C1161.31 266.614 1154.73 260.167 1146.61 260.167C1138.5 260.167 1131.92 266.614 1131.92 274.567C1131.92 282.52 1138.5 288.967 1146.61 288.967ZM987.918 205.445C996.034 205.445 1002.61 198.998 1002.61 191.045C1002.61 183.092 996.034 176.644 987.918 176.644C979.803 176.644 973.225 183.092 973.225 191.045C973.225 198.998 979.803 205.445 987.918 205.445ZM1155.43 168.004C1163.54 168.004 1170.12 161.557 1170.12 153.604C1170.12 145.651 1163.54 139.203 1155.43 139.203C1147.31 139.203 1140.73 145.651 1140.73 153.604C1140.73 161.557 1147.31 168.004 1155.43 168.004ZM1128.98 107.522C1132.23 107.522 1134.86 104.943 1134.86 101.762C1134.86 98.5809 1132.23 96.002 1128.98 96.002C1125.73 96.002 1123.1 98.5809 1123.1 101.762C1123.1 104.943 1125.73 107.522 1128.98 107.522ZM1070.2 286.087C1073.45 286.087 1076.08 283.508 1076.08 280.327C1076.08 277.146 1073.45 274.567 1070.2 274.567C1066.96 274.567 1064.33 277.146 1064.33 280.327C1064.33 283.508 1066.96 286.087 1070.2 286.087ZM996.735 142.083C999.981 142.083 1002.61 139.504 1002.61 136.323C1002.61 133.142 999.981 130.563 996.735 130.563C993.489 130.563 990.857 133.142 990.857 136.323C990.857 139.504 993.489 142.083 996.735 142.083ZM929.143 196.805C932.389 196.805 935.02 194.226 935.02 191.045C935.02 187.863 932.389 185.285 929.143 185.285C925.897 185.285 923.265 187.863 923.265 191.045C923.265 194.226 925.897 196.805 929.143 196.805Z" fill="#FABD31"/>
<path fill-rule="evenodd" clip-rule="evenodd" d="M1220.08 75.8415C1231.44 75.8415 1240.65 66.8153 1240.65 55.6809C1240.65 44.5465 1231.44 35.5203 1220.08 35.5203C1208.72 35.5203 1199.51 44.5465 1199.51 55.6809C1199.51 66.8153 1208.72 75.8415 1220.08 75.8415ZM1361.14 147.843C1372.5 147.843 1381.71 138.817 1381.71 127.683C1381.71 116.549 1372.5 107.522 1361.14 107.522C1349.78 107.522 1340.57 116.549 1340.57 127.683C1340.57 138.817 1349.78 147.843 1361.14 147.843ZM1234.78 127.683C1239.64 127.683 1243.59 123.815 1243.59 119.043C1243.59 114.271 1239.64 110.402 1234.78 110.402C1229.91 110.402 1225.96 114.271 1225.96 119.043C1225.96 123.815 1229.91 127.683 1234.78 127.683ZM1419.92 216.965C1424.79 216.965 1428.73 213.097 1428.73 208.325C1428.73 203.553 1424.79 199.685 1419.92 199.685C1415.05 199.685 1411.1 203.553 1411.1 208.325C1411.1 213.097 1415.05 216.965 1419.92 216.965ZM1287.67 283.207C1292.54 283.207 1296.49 279.339 1296.49 274.567C1296.49 269.795 1292.54 265.927 1287.67 265.927C1282.8 265.927 1278.86 269.795 1278.86 274.567C1278.86 279.339 1282.8 283.207 1287.67 283.207ZM1452.24 64.3211C1457.11 64.3211 1461.06 60.4528 1461.06 55.6809C1461.06 50.909 1457.11 47.0406 1452.24 47.0406C1447.38 47.0406 1443.43 50.909 1443.43 55.6809C1443.43 60.4528 1447.38 64.3211 1452.24 64.3211ZM1223.02 271.687C1229.51 271.687 1234.78 266.529 1234.78 260.167C1234.78 253.804 1229.51 248.646 1223.02 248.646C1216.53 248.646 1211.27 253.804 1211.27 260.167C1211.27 266.529 1216.53 271.687 1223.02 271.687ZM1305.31 84.4817C1311.8 84.4817 1317.06 79.3239 1317.06 72.9614C1317.06 66.5989 1311.8 61.4411 1305.31 61.4411C1298.81 61.4411 1293.55 66.5989 1293.55 72.9614C1293.55 79.3239 1298.81 84.4817 1305.31 84.4817ZM1372.9 52.8008C1381.01 52.8008 1387.59 46.3535 1387.59 38.4004C1387.59 30.4473 1381.01 24 1372.9 24C1364.78 24 1358.2 30.4473 1358.2 38.4004C1358.2 46.3535 1364.78 52.8008 1372.9 52.8008ZM1355.27 225.606C1361.76 225.606 1367.02 220.448 1367.02 214.085C1367.02 207.723 1361.76 202.565 1355.27 202.565C1348.77 202.565 1343.51 207.723 1343.51 214.085C1343.51 220.448 1348.77 225.606 1355.27 225.606ZM1440.49 288.967C1448.6 288.967 1455.18 282.52 1455.18 274.567C1455.18 266.614 1448.6 260.167 1440.49 260.167C1432.37 260.167 1425.8 266.614 1425.8 274.567C1425.8 282.52 1432.37 288.967 1440.49 288.967ZM1281.8 205.445C1289.91 205.445 1296.49 198.998 1296.49 191.045C1296.49 183.092 1289.91 176.644 1281.8 176.644C1273.68 176.644 1267.1 183.092 1267.1 191.045C1267.1 198.998 1273.68 205.445 1281.8 205.445ZM1449.31 168.004C1457.42 168.004 1464 161.557 1464 153.604C1464 145.651 1457.42 139.203 1449.31 139.203C1441.19 139.203 1434.61 145.651 1434.61 153.604C1434.61 161.557 1441.19 168.004 1449.31 168.004ZM1422.86 107.522C1426.1 107.522 1428.73 104.943 1428.73 101.762C1428.73 98.5809 1426.1 96.002 1422.86 96.002C1419.61 96.002 1416.98 98.5809 1416.98 101.762C1416.98 104.943 1419.61 107.522 1422.86 107.522ZM1364.08 286.087C1367.33 286.087 1369.96 283.508 1369.96 280.327C1369.96 277.146 1367.33 274.567 1364.08 274.567C1360.84 274.567 1358.2 277.146 1358.2 280.327C1358.2 283.508 1360.84 286.087 1364.08 286.087ZM1290.61 142.083C1293.86 142.083 1296.49 139.504 1296.49 136.323C1296.49 133.142 1293.86 130.563 1290.61 130.563C1287.37 130.563 1284.73 133.142 1284.73 136.323C1284.73 139.504 1287.37 142.083 1290.61 142.083ZM1223.02 196.805C1226.27 196.805 1228.9 194.226 1228.9 191.045C1228.9 187.863 1226.27 185.285 1223.02 185.285C1219.77 185.285 1217.14 187.863 1217.14 191.045C1217.14 194.226 1219.77 196.805 1223.02 196.805Z" fill="#FABD31"/>
<path fill-rule="evenodd" clip-rule="evenodd" d="M44.5714 363.85C55.9327 363.85 65.1429 354.823 65.1429 343.689C65.1429 332.555 55.9327 323.528 44.5714 323.528C33.2101 323.528 24 332.555 24 343.689C24 354.823 33.2101 363.85 44.5714 363.85ZM185.633 435.852C196.994 435.852 206.204 426.825 206.204 415.691C206.204 404.557 196.994 395.53 185.633 395.53C174.271 395.53 165.061 404.557 165.061 415.691C165.061 426.825 174.271 435.852 185.633 435.852ZM59.2653 415.691C64.1344 415.691 68.0816 411.823 68.0816 407.051C68.0816 402.279 64.1344 398.411 59.2653 398.411C54.3962 398.411 50.449 402.279 50.449 407.051C50.449 411.823 54.3962 415.691 59.2653 415.691ZM244.408 504.974C249.277 504.974 253.225 501.105 253.225 496.333C253.225 491.561 249.277 487.693 244.408 487.693C239.539 487.693 235.592 491.561 235.592 496.333C235.592 501.105 239.539 504.974 244.408 504.974ZM112.163 571.215C117.032 571.215 120.98 567.347 120.98 562.575C120.98 557.803 117.032 553.935 112.163 553.935C107.294 553.935 103.347 557.803 103.347 562.575C103.347 567.347 107.294 571.215 112.163 571.215ZM276.735 352.329C281.604 352.329 285.551 348.461 285.551 343.689C285.551 338.917 281.604 335.049 276.735 335.049C271.866 335.049 267.918 338.917 267.918 343.689C267.918 348.461 271.866 352.329 276.735 352.329ZM47.5102 559.695C54.0024 559.695 59.2653 554.537 59.2653 548.175C59.2653 541.812 54.0024 536.654 47.5102 536.654C41.018 536.654 35.7551 541.812 35.7551 548.175C35.7551 554.537 41.018 559.695 47.5102 559.695ZM129.796 372.49C136.288 372.49 141.551 367.332 141.551 360.97C141.551 354.607 136.288 349.449 129.796 349.449C123.304 349.449 118.041 354.607 118.041 360.97C118.041 367.332 123.304 372.49 129.796 372.49ZM197.388 340.809C205.503 340.809 212.082 334.362 212.082 326.409C212.082 318.455 205.503 312.008 197.388 312.008C189.273 312.008 182.694 318.455 182.694 326.409C182.694 334.362 189.273 340.809 197.388 340.809ZM179.755 513.614C186.247 513.614 191.51 508.456 191.51 502.094C191.51 495.731 186.247 490.573 179.755 490.573C173.263 490.573 168 495.731 168 502.094C168 508.456 173.263 513.614 179.755 513.614ZM264.98 576.976C273.095 576.976 279.673 570.528 279.673 562.575C279.673 554.622 273.095 548.175 264.98 548.175C256.864 548.175 250.286 554.622 250.286 562.575C250.286 570.528 256.864 576.976 264.98 576.976ZM106.286 493.453C114.401 493.453 120.98 487.006 120.98 479.053C120.98 471.1 114.401 464.652 106.286 464.652C98.1705 464.652 91.5918 471.1 91.5918 479.053C91.5918 487.006 98.1705 493.453 106.286 493.453ZM273.796 456.012C281.911 456.012 288.49 449.565 288.49 441.612C288.49 433.659 281.911 427.211 273.796 427.211C265.681 427.211 259.102 433.659 259.102 441.612C259.102 449.565 265.681 456.012 273.796 456.012ZM247.347 395.53C250.593 395.53 253.225 392.952 253.225 389.77C253.225 386.589 250.593 384.01 247.347 384.01C244.101 384.01 241.469 386.589 241.469 389.77C241.469 392.952 244.101 395.53 247.347 395.53ZM188.571 574.096C191.818 574.096 194.449 571.517 194.449 568.335C194.449 565.154 191.818 562.575 188.571 562.575C185.325 562.575 182.694 565.154 182.694 568.335C182.694 571.517 185.325 574.096 188.571 574.096ZM115.102 430.091C118.348 430.091 120.98 427.513 120.98 424.331C120.98 421.15 118.348 418.571 115.102 418.571C111.856 418.571 109.224 421.15 109.224 424.331C109.224 427.513 111.856 430.091 115.102 430.091ZM47.5102 484.813C50.7563 484.813 53.3878 482.234 53.3878 479.053C53.3878 475.872 50.7563 473.293 47.5102 473.293C44.2641 473.293 41.6327 475.872 41.6327 479.053C41.6327 482.234 44.2641 484.813 47.5102 484.813Z" fill="#FABD31"/>
<path fill-rule="evenodd" clip-rule="evenodd" d="M338.449 363.85C349.81 363.85 359.02 354.823 359.02 343.689C359.02 332.555 349.81 323.528 338.449 323.528C327.088 323.528 317.878 332.555 317.878 343.689C317.878 354.823 327.088 363.85 338.449 363.85ZM479.51 435.852C490.872 435.852 500.082 426.825 500.082 415.691C500.082 404.557 490.872 395.53 479.51 395.53C468.149 395.53 458.939 404.557 458.939 415.691C458.939 426.825 468.149 435.852 479.51 435.852ZM353.143 415.691C358.012 415.691 361.959 411.823 361.959 407.051C361.959 402.279 358.012 398.411 353.143 398.411C348.274 398.411 344.327 402.279 344.327 407.051C344.327 411.823 348.274 415.691 353.143 415.691ZM538.286 504.974C543.155 504.974 547.102 501.105 547.102 496.333C547.102 491.561 543.155 487.693 538.286 487.693C533.417 487.693 529.469 491.561 529.469 496.333C529.469 501.105 533.417 504.974 538.286 504.974ZM406.041 571.215C410.91 571.215 414.857 567.347 414.857 562.575C414.857 557.803 410.91 553.935 406.041 553.935C401.172 553.935 397.224 557.803 397.224 562.575C397.224 567.347 401.172 571.215 406.041 571.215ZM570.612 352.329C575.481 352.329 579.429 348.461 579.429 343.689C579.429 338.917 575.481 335.049 570.612 335.049C565.743 335.049 561.796 338.917 561.796 343.689C561.796 348.461 565.743 352.329 570.612 352.329ZM341.388 559.695C347.88 559.695 353.143 554.537 353.143 548.175C353.143 541.812 347.88 536.654 341.388 536.654C334.896 536.654 329.633 541.812 329.633 548.175C329.633 554.537 334.896 559.695 341.388 559.695ZM423.673 372.49C430.166 372.49 435.429 367.332 435.429 360.97C435.429 354.607 430.166 349.449 423.673 349.449C417.181 349.449 411.918 354.607 411.918 360.97C411.918 367.332 417.181 372.49 423.673 372.49ZM491.265 340.809C499.381 340.809 505.959 334.362 505.959 326.409C505.959 318.455 499.381 312.008 491.265 312.008C483.15 312.008 476.571 318.455 476.571 326.409C476.571 334.362 483.15 340.809 491.265 340.809ZM473.633 513.614C480.125 513.614 485.388 508.456 485.388 502.094C485.388 495.731 480.125 490.573 473.633 490.573C467.141 490.573 461.878 495.731 461.878 502.094C461.878 508.456 467.141 513.614 473.633 513.614ZM558.857 576.976C566.972 576.976 573.551 570.528 573.551 562.575C573.551 554.622 566.972 548.175 558.857 548.175C550.742 548.175 544.163 554.622 544.163 562.575C544.163 570.528 550.742 576.976 558.857 576.976ZM400.163 493.453C408.278 493.453 414.857 487.006 414.857 479.053C414.857 471.1 408.278 464.652 400.163 464.652C392.048 464.652 385.469 471.1 385.469 479.053C385.469 487.006 392.048 493.453 400.163 493.453ZM567.674 456.012C575.789 456.012 582.367 449.565 582.367 441.612C582.367 433.659 575.789 427.211 567.674 427.211C559.558 427.211 552.98 433.659 552.98 441.612C552.98 449.565 559.558 456.012 567.674 456.012ZM541.225 395.53C544.471 395.53 547.102 392.952 547.102 389.77C547.102 386.589 544.471 384.01 541.225 384.01C537.978 384.01 535.347 386.589 535.347 389.77C535.347 392.952 537.978 395.53 541.225 395.53ZM482.449 574.096C485.695 574.096 488.327 571.517 488.327 568.335C488.327 565.154 485.695 562.575 482.449 562.575C479.203 562.575 476.571 565.154 476.571 568.335C476.571 571.517 479.203 574.096 482.449 574.096ZM408.98 430.091C412.226 430.091 414.857 427.513 414.857 424.331C414.857 421.15 412.226 418.571 408.98 418.571C405.734 418.571 403.102 421.15 403.102 424.331C403.102 427.513 405.734 430.091 408.98 430.091ZM341.388 484.813C344.634 484.813 347.265 482.234 347.265 479.053C347.265 475.872 344.634 473.293 341.388 473.293C338.142 473.293 335.51 475.872 335.51 479.053C335.51 482.234 338.142 484.813 341.388 484.813Z" fill="#FABD31"/>
<path fill-rule="evenodd" clip-rule="evenodd" d="M632.326 363.85C643.688 363.85 652.898 354.823 652.898 343.689C652.898 332.555 643.688 323.528 632.326 323.528C620.965 323.528 611.755 332.555 611.755 343.689C611.755 354.823 620.965 363.85 632.326 363.85ZM773.388 435.852C784.749 435.852 793.959 426.825 793.959 415.691C793.959 404.557 784.749 395.53 773.388 395.53C762.026 395.53 752.816 404.557 752.816 415.691C752.816 426.825 762.026 435.852 773.388 435.852ZM647.02 415.691C651.889 415.691 655.837 411.823 655.837 407.051C655.837 402.279 651.889 398.411 647.02 398.411C642.151 398.411 638.204 402.279 638.204 407.051C638.204 411.823 642.151 415.691 647.02 415.691ZM832.163 504.974C837.032 504.974 840.98 501.105 840.98 496.333C840.98 491.561 837.032 487.693 832.163 487.693C827.294 487.693 823.347 491.561 823.347 496.333C823.347 501.105 827.294 504.974 832.163 504.974ZM699.918 571.215C704.787 571.215 708.735 567.347 708.735 562.575C708.735 557.803 704.787 553.935 699.918 553.935C695.049 553.935 691.102 557.803 691.102 562.575C691.102 567.347 695.049 571.215 699.918 571.215ZM864.49 352.329C869.359 352.329 873.306 348.461 873.306 343.689C873.306 338.917 869.359 335.049 864.49 335.049C859.621 335.049 855.673 338.917 855.673 343.689C855.673 348.461 859.621 352.329 864.49 352.329ZM635.265 559.695C641.757 559.695 647.02 554.537 647.02 548.175C647.02 541.812 641.757 536.654 635.265 536.654C628.773 536.654 623.51 541.812 623.51 548.175C623.51 554.537 628.773 559.695 635.265 559.695ZM717.551 372.49C724.043 372.49 729.306 367.332 729.306 360.97C729.306 354.607 724.043 349.449 717.551 349.449C711.059 349.449 705.796 354.607 705.796 360.97C705.796 367.332 711.059 372.49 717.551 372.49ZM785.143 340.809C793.258 340.809 799.837 334.362 799.837 326.409C799.837 318.455 793.258 312.008 785.143 312.008C777.028 312.008 770.449 318.455 770.449 326.409C770.449 334.362 777.028 340.809 785.143 340.809ZM767.51 513.614C774.002 513.614 779.265 508.456 779.265 502.094C779.265 495.731 774.002 490.573 767.51 490.573C761.018 490.573 755.755 495.731 755.755 502.094C755.755 508.456 761.018 513.614 767.51 513.614ZM852.735 576.976C860.85 576.976 867.429 570.528 867.429 562.575C867.429 554.622 860.85 548.175 852.735 548.175C844.619 548.175 838.041 554.622 838.041 562.575C838.041 570.528 844.619 576.976 852.735 576.976ZM694.041 493.453C702.156 493.453 708.735 487.006 708.735 479.053C708.735 471.1 702.156 464.652 694.041 464.652C685.926 464.652 679.347 471.1 679.347 479.053C679.347 487.006 685.926 493.453 694.041 493.453ZM861.551 456.012C869.666 456.012 876.245 449.565 876.245 441.612C876.245 433.659 869.666 427.211 861.551 427.211C853.436 427.211 846.857 433.659 846.857 441.612C846.857 449.565 853.436 456.012 861.551 456.012ZM835.102 395.53C838.348 395.53 840.98 392.952 840.98 389.77C840.98 386.589 838.348 384.01 835.102 384.01C831.856 384.01 829.224 386.589 829.224 389.77C829.224 392.952 831.856 395.53 835.102 395.53ZM776.326 574.096C779.573 574.096 782.204 571.517 782.204 568.335C782.204 565.154 779.573 562.575 776.326 562.575C773.08 562.575 770.449 565.154 770.449 568.335C770.449 571.517 773.08 574.096 776.326 574.096ZM702.857 430.091C706.103 430.091 708.735 427.513 708.735 424.331C708.735 421.15 706.103 418.571 702.857 418.571C699.611 418.571 696.98 421.15 696.98 424.331C696.98 427.513 699.611 430.091 702.857 430.091ZM635.265 484.813C638.511 484.813 641.143 482.234 641.143 479.053C641.143 475.872 638.511 473.293 635.265 473.293C632.019 473.293 629.388 475.872 629.388 479.053C629.388 482.234 632.019 484.813 635.265 484.813Z" fill="#FABD31"/>
<path fill-rule="evenodd" clip-rule="evenodd" d="M926.204 363.85C937.565 363.85 946.776 354.823 946.776 343.689C946.776 332.555 937.565 323.528 926.204 323.528C914.843 323.528 905.633 332.555 905.633 343.689C905.633 354.823 914.843 363.85 926.204 363.85ZM1067.27 435.852C1078.63 435.852 1087.84 426.825 1087.84 415.691C1087.84 404.557 1078.63 395.53 1067.27 395.53C1055.9 395.53 1046.69 404.557 1046.69 415.691C1046.69 426.825 1055.9 435.852 1067.27 435.852ZM940.898 415.691C945.767 415.691 949.714 411.823 949.714 407.051C949.714 402.279 945.767 398.411 940.898 398.411C936.029 398.411 932.082 402.279 932.082 407.051C932.082 411.823 936.029 415.691 940.898 415.691ZM1126.04 504.974C1130.91 504.974 1134.86 501.105 1134.86 496.333C1134.86 491.561 1130.91 487.693 1126.04 487.693C1121.17 487.693 1117.22 491.561 1117.22 496.333C1117.22 501.105 1121.17 504.974 1126.04 504.974ZM993.796 571.215C998.665 571.215 1002.61 567.347 1002.61 562.575C1002.61 557.803 998.665 553.935 993.796 553.935C988.927 553.935 984.98 557.803 984.98 562.575C984.98 567.347 988.927 571.215 993.796 571.215ZM1158.37 352.329C1163.24 352.329 1167.18 348.461 1167.18 343.689C1167.18 338.917 1163.24 335.049 1158.37 335.049C1153.5 335.049 1149.55 338.917 1149.55 343.689C1149.55 348.461 1153.5 352.329 1158.37 352.329ZM929.143 559.695C935.635 559.695 940.898 554.537 940.898 548.175C940.898 541.812 935.635 536.654 929.143 536.654C922.651 536.654 917.388 541.812 917.388 548.175C917.388 554.537 922.651 559.695 929.143 559.695ZM1011.43 372.49C1017.92 372.49 1023.18 367.332 1023.18 360.97C1023.18 354.607 1017.92 349.449 1011.43 349.449C1004.94 349.449 999.674 354.607 999.674 360.97C999.674 367.332 1004.94 372.49 1011.43 372.49ZM1079.02 340.809C1087.14 340.809 1093.71 334.362 1093.71 326.409C1093.71 318.455 1087.14 312.008 1079.02 312.008C1070.91 312.008 1064.33 318.455 1064.33 326.409C1064.33 334.362 1070.91 340.809 1079.02 340.809ZM1061.39 513.614C1067.88 513.614 1073.14 508.456 1073.14 502.094C1073.14 495.731 1067.88 490.573 1061.39 490.573C1054.9 490.573 1049.63 495.731 1049.63 502.094C1049.63 508.456 1054.9 513.614 1061.39 513.614ZM1146.61 576.976C1154.73 576.976 1161.31 570.528 1161.31 562.575C1161.31 554.622 1154.73 548.175 1146.61 548.175C1138.5 548.175 1131.92 554.622 1131.92 562.575C1131.92 570.528 1138.5 576.976 1146.61 576.976ZM987.918 493.453C996.034 493.453 1002.61 487.006 1002.61 479.053C1002.61 471.1 996.034 464.652 987.918 464.652C979.803 464.652 973.225 471.1 973.225 479.053C973.225 487.006 979.803 493.453 987.918 493.453ZM1155.43 456.012C1163.54 456.012 1170.12 449.565 1170.12 441.612C1170.12 433.659 1163.54 427.211 1155.43 427.211C1147.31 427.211 1140.73 433.659 1140.73 441.612C1140.73 449.565 1147.31 456.012 1155.43 456.012ZM1128.98 395.53C1132.23 395.53 1134.86 392.952 1134.86 389.77C1134.86 386.589 1132.23 384.01 1128.98 384.01C1125.73 384.01 1123.1 386.589 1123.1 389.77C1123.1 392.952 1125.73 395.53 1128.98 395.53ZM1070.2 574.096C1073.45 574.096 1076.08 571.517 1076.08 568.335C1076.08 565.154 1073.45 562.575 1070.2 562.575C1066.96 562.575 1064.33 565.154 1064.33 568.335C1064.33 571.517 1066.96 574.096 1070.2 574.096ZM996.735 430.091C999.981 430.091 1002.61 427.513 1002.61 424.331C1002.61 421.15 999.981 418.571 996.735 418.571C993.489 418.571 990.857 421.15 990.857 424.331C990.857 427.513 993.489 430.091 996.735 430.091ZM929.143 484.813C932.389 484.813 935.02 482.234 935.02 479.053C935.02 475.872 932.389 473.293 929.143 473.293C925.897 473.293 923.265 475.872 923.265 479.053C923.265 482.234 925.897 484.813 929.143 484.813Z" fill="#FABD31"/>
<path fill-rule="evenodd" clip-rule="evenodd" d="M1220.08 363.85C1231.44 363.85 1240.65 354.823 1240.65 343.689C1240.65 332.555 1231.44 323.528 1220.08 323.528C1208.72 323.528 1199.51 332.555 1199.51 343.689C1199.51 354.823 1208.72 363.85 1220.08 363.85ZM1361.14 435.852C1372.5 435.852 1381.71 426.825 1381.71 415.691C1381.71 404.557 1372.5 395.53 1361.14 395.53C1349.78 395.53 1340.57 404.557 1340.57 415.691C1340.57 426.825 1349.78 435.852 1361.14 435.852ZM1234.78 415.691C1239.64 415.691 1243.59 411.823 1243.59 407.051C1243.59 402.279 1239.64 398.411 1234.78 398.411C1229.91 398.411 1225.96 402.279 1225.96 407.051C1225.96 411.823 1229.91 415.691 1234.78 415.691ZM1419.92 504.974C1424.79 504.974 1428.73 501.105 1428.73 496.333C1428.73 491.561 1424.79 487.693 1419.92 487.693C1415.05 487.693 1411.1 491.561 1411.1 496.333C1411.1 501.105 1415.05 504.974 1419.92 504.974ZM1287.67 571.215C1292.54 571.215 1296.49 567.347 1296.49 562.575C1296.49 557.803 1292.54 553.935 1287.67 553.935C1282.8 553.935 1278.86 557.803 1278.86 562.575C1278.86 567.347 1282.8 571.215 1287.67 571.215ZM1452.24 352.329C1457.11 352.329 1461.06 348.461 1461.06 343.689C1461.06 338.917 1457.11 335.049 1452.24 335.049C1447.38 335.049 1443.43 338.917 1443.43 343.689C1443.43 348.461 1447.38 352.329 1452.24 352.329ZM1223.02 559.695C1229.51 559.695 1234.78 554.537 1234.78 548.175C1234.78 541.812 1229.51 536.654 1223.02 536.654C1216.53 536.654 1211.27 541.812 1211.27 548.175C1211.27 554.537 1216.53 559.695 1223.02 559.695ZM1305.31 372.49C1311.8 372.49 1317.06 367.332 1317.06 360.97C1317.06 354.607 1311.8 349.449 1305.31 349.449C1298.81 349.449 1293.55 354.607 1293.55 360.97C1293.55 367.332 1298.81 372.49 1305.31 372.49ZM1372.9 340.809C1381.01 340.809 1387.59 334.362 1387.59 326.409C1387.59 318.455 1381.01 312.008 1372.9 312.008C1364.78 312.008 1358.2 318.455 1358.2 326.409C1358.2 334.362 1364.78 340.809 1372.9 340.809ZM1355.27 513.614C1361.76 513.614 1367.02 508.456 1367.02 502.094C1367.02 495.731 1361.76 490.573 1355.27 490.573C1348.77 490.573 1343.51 495.731 1343.51 502.094C1343.51 508.456 1348.77 513.614 1355.27 513.614ZM1440.49 576.976C1448.6 576.976 1455.18 570.528 1455.18 562.575C1455.18 554.622 1448.6 548.175 1440.49 548.175C1432.37 548.175 1425.8 554.622 1425.8 562.575C1425.8 570.528 1432.37 576.976 1440.49 576.976ZM1281.8 493.453C1289.91 493.453 1296.49 487.006 1296.49 479.053C1296.49 471.1 1289.91 464.652 1281.8 464.652C1273.68 464.652 1267.1 471.1 1267.1 479.053C1267.1 487.006 1273.68 493.453 1281.8 493.453ZM1449.31 456.012C1457.42 456.012 1464 449.565 1464 441.612C1464 433.659 1457.42 427.211 1449.31 427.211C1441.19 427.211 1434.61 433.659 1434.61 441.612C1434.61 449.565 1441.19 456.012 1449.31 456.012ZM1422.86 395.53C1426.1 395.53 1428.73 392.952 1428.73 389.77C1428.73 386.589 1426.1 384.01 1422.86 384.01C1419.61 384.01 1416.98 386.589 1416.98 389.77C1416.98 392.952 1419.61 395.53 1422.86 395.53ZM1364.08 574.096C1367.33 574.096 1369.96 571.517 1369.96 568.335C1369.96 565.154 1367.33 562.575 1364.08 562.575C1360.84 562.575 1358.2 565.154 1358.2 568.335C1358.2 571.517 1360.84 574.096 1364.08 574.096ZM1290.61 430.091C1293.86 430.091 1296.49 427.513 1296.49 424.331C1296.49 421.15 1293.86 418.571 1290.61 418.571C1287.37 418.571 1284.73 421.15 1284.73 424.331C1284.73 427.513 1287.37 430.091 1290.61 430.091ZM1223.02 484.813C1226.27 484.813 1228.9 482.234 1228.9 479.053C1228.9 475.872 1226.27 473.293 1223.02 473.293C1219.77 473.293 1217.14 475.872 1217.14 479.053C1217.14 482.234 1219.77 484.813 1223.02 484.813Z" fill="#FABD31"/>
<path fill-rule="evenodd" clip-rule="evenodd" d="M44.5714 651.858C55.9327 651.858 65.1429 642.832 65.1429 631.697C65.1429 620.563 55.9327 611.537 44.5714 611.537C33.2101 611.537 24 620.563 24 631.697C24 642.832 33.2101 651.858 44.5714 651.858ZM185.633 723.86C196.994 723.86 206.204 714.834 206.204 703.699C206.204 692.565 196.994 683.539 185.633 683.539C174.271 683.539 165.061 692.565 165.061 703.699C165.061 714.834 174.271 723.86 185.633 723.86ZM59.2653 703.699C64.1344 703.699 68.0816 699.831 68.0816 695.059C68.0816 690.287 64.1344 686.419 59.2653 686.419C54.3962 686.419 50.449 690.287 50.449 695.059C50.449 699.831 54.3962 703.699 59.2653 703.699ZM244.408 792.982C249.277 792.982 253.225 789.113 253.225 784.341C253.225 779.57 249.277 775.701 244.408 775.701C239.539 775.701 235.592 779.57 235.592 784.341C235.592 789.113 239.539 792.982 244.408 792.982ZM112.163 859.224C117.032 859.224 120.98 855.355 120.98 850.583C120.98 845.811 117.032 841.943 112.163 841.943C107.294 841.943 103.347 845.811 103.347 850.583C103.347 855.355 107.294 859.224 112.163 859.224ZM276.735 640.337C281.604 640.337 285.551 636.469 285.551 631.697C285.551 626.925 281.604 623.057 276.735 623.057C271.866 623.057 267.918 626.925 267.918 631.697C267.918 636.469 271.866 640.337 276.735 640.337ZM47.5102 847.703C54.0024 847.703 59.2653 842.545 59.2653 836.183C59.2653 829.82 54.0024 824.663 47.5102 824.663C41.018 824.663 35.7551 829.82 35.7551 836.183C35.7551 842.545 41.018 847.703 47.5102 847.703ZM129.796 660.498C136.288 660.498 141.551 655.34 141.551 648.978C141.551 642.615 136.288 637.457 129.796 637.457C123.304 637.457 118.041 642.615 118.041 648.978C118.041 655.34 123.304 660.498 129.796 660.498ZM197.388 628.817C205.503 628.817 212.082 622.37 212.082 614.417C212.082 606.464 205.503 600.016 197.388 600.016C189.273 600.016 182.694 606.464 182.694 614.417C182.694 622.37 189.273 628.817 197.388 628.817ZM179.755 801.622C186.247 801.622 191.51 796.464 191.51 790.102C191.51 783.739 186.247 778.581 179.755 778.581C173.263 778.581 168 783.739 168 790.102C168 796.464 173.263 801.622 179.755 801.622ZM264.98 864.984C273.095 864.984 279.673 858.536 279.673 850.583C279.673 842.63 273.095 836.183 264.98 836.183C256.864 836.183 250.286 842.63 250.286 850.583C250.286 858.536 256.864 864.984 264.98 864.984ZM106.286 781.461C114.401 781.461 120.98 775.014 120.98 767.061C120.98 759.108 114.401 752.661 106.286 752.661C98.1705 752.661 91.5918 759.108 91.5918 767.061C91.5918 775.014 98.1705 781.461 106.286 781.461ZM273.796 744.02C281.911 744.02 288.49 737.573 288.49 729.62C288.49 721.667 281.911 715.22 273.796 715.22C265.681 715.22 259.102 721.667 259.102 729.62C259.102 737.573 265.681 744.02 273.796 744.02ZM247.347 683.539C250.593 683.539 253.225 680.96 253.225 677.779C253.225 674.597 250.593 672.018 247.347 672.018C244.101 672.018 241.469 674.597 241.469 677.779C241.469 680.96 244.101 683.539 247.347 683.539ZM188.571 862.104C191.818 862.104 194.449 859.525 194.449 856.344C194.449 853.162 191.818 850.583 188.571 850.583C185.325 850.583 182.694 853.162 182.694 856.344C182.694 859.525 185.325 862.104 188.571 862.104ZM115.102 718.1C118.348 718.1 120.98 715.521 120.98 712.339C120.98 709.158 118.348 706.579 115.102 706.579C111.856 706.579 109.224 709.158 109.224 712.339C109.224 715.521 111.856 718.1 115.102 718.1ZM47.5102 772.821C50.7563 772.821 53.3878 770.242 53.3878 767.061C53.3878 763.88 50.7563 761.301 47.5102 761.301C44.2641 761.301 41.6327 763.88 41.6327 767.061C41.6327 770.242 44.2641 772.821 47.5102 772.821Z" fill="#FABD31"/>
<path fill-rule="evenodd" clip-rule="evenodd" d="M338.449 651.858C349.81 651.858 359.02 642.832 359.02 631.697C359.02 620.563 349.81 611.537 338.449 611.537C327.088 611.537 317.878 620.563 317.878 631.697C317.878 642.832 327.088 651.858 338.449 651.858ZM479.51 723.86C490.872 723.86 500.082 714.834 500.082 703.699C500.082 692.565 490.872 683.539 479.51 683.539C468.149 683.539 458.939 692.565 458.939 703.699C458.939 714.834 468.149 723.86 479.51 723.86ZM353.143 703.699C358.012 703.699 361.959 699.831 361.959 695.059C361.959 690.287 358.012 686.419 353.143 686.419C348.274 686.419 344.327 690.287 344.327 695.059C344.327 699.831 348.274 703.699 353.143 703.699ZM538.286 792.982C543.155 792.982 547.102 789.113 547.102 784.341C547.102 779.57 543.155 775.701 538.286 775.701C533.417 775.701 529.469 779.57 529.469 784.341C529.469 789.113 533.417 792.982 538.286 792.982ZM406.041 859.224C410.91 859.224 414.857 855.355 414.857 850.583C414.857 845.811 410.91 841.943 406.041 841.943C401.172 841.943 397.224 845.811 397.224 850.583C397.224 855.355 401.172 859.224 406.041 859.224ZM570.612 640.337C575.481 640.337 579.429 636.469 579.429 631.697C579.429 626.925 575.481 623.057 570.612 623.057C565.743 623.057 561.796 626.925 561.796 631.697C561.796 636.469 565.743 640.337 570.612 640.337ZM341.388 847.703C347.88 847.703 353.143 842.545 353.143 836.183C353.143 829.82 347.88 824.663 341.388 824.663C334.896 824.663 329.633 829.82 329.633 836.183C329.633 842.545 334.896 847.703 341.388 847.703ZM423.673 660.498C430.166 660.498 435.429 655.34 435.429 648.978C435.429 642.615 430.166 637.457 423.673 637.457C417.181 637.457 411.918 642.615 411.918 648.978C411.918 655.34 417.181 660.498 423.673 660.498ZM491.265 628.817C499.381 628.817 505.959 622.37 505.959 614.417C505.959 606.464 499.381 600.016 491.265 600.016C483.15 600.016 476.571 606.464 476.571 614.417C476.571 622.37 483.15 628.817 491.265 628.817ZM473.633 801.622C480.125 801.622 485.388 796.464 485.388 790.102C485.388 783.739 480.125 778.581 473.633 778.581C467.141 778.581 461.878 783.739 461.878 790.102C461.878 796.464 467.141 801.622 473.633 801.622ZM558.857 864.984C566.972 864.984 573.551 858.536 573.551 850.583C573.551 842.63 566.972 836.183 558.857 836.183C550.742 836.183 544.163 842.63 544.163 850.583C544.163 858.536 550.742 864.984 558.857 864.984ZM400.163 781.461C408.278 781.461 414.857 775.014 414.857 767.061C414.857 759.108 408.278 752.661 400.163 752.661C392.048 752.661 385.469 759.108 385.469 767.061C385.469 775.014 392.048 781.461 400.163 781.461ZM567.674 744.02C575.789 744.02 582.367 737.573 582.367 729.62C582.367 721.667 575.789 715.22 567.674 715.22C559.558 715.22 552.98 721.667 552.98 729.62C552.98 737.573 559.558 744.02 567.674 744.02ZM541.225 683.539C544.471 683.539 547.102 680.96 547.102 677.779C547.102 674.597 544.471 672.018 541.225 672.018C537.978 672.018 535.347 674.597 535.347 677.779C535.347 680.96 537.978 683.539 541.225 683.539ZM482.449 862.104C485.695 862.104 488.327 859.525 488.327 856.344C488.327 853.162 485.695 850.583 482.449 850.583C479.203 850.583 476.571 853.162 476.571 856.344C476.571 859.525 479.203 862.104 482.449 862.104ZM408.98 718.1C412.226 718.1 414.857 715.521 414.857 712.339C414.857 709.158 412.226 706.579 408.98 706.579C405.734 706.579 403.102 709.158 403.102 712.339C403.102 715.521 405.734 718.1 408.98 718.1ZM341.388 772.821C344.634 772.821 347.265 770.242 347.265 767.061C347.265 763.88 344.634 761.301 341.388 761.301C338.142 761.301 335.51 763.88 335.51 767.061C335.51 770.242 338.142 772.821 341.388 772.821Z" fill="#FABD31"/>
<path fill-rule="evenodd" clip-rule="evenodd" d="M632.326 651.858C643.688 651.858 652.898 642.832 652.898 631.697C652.898 620.563 643.688 611.537 632.326 611.537C620.965 611.537 611.755 620.563 611.755 631.697C611.755 642.832 620.965 651.858 632.326 651.858ZM773.388 723.86C784.749 723.86 793.959 714.834 793.959 703.699C793.959 692.565 784.749 683.539 773.388 683.539C762.026 683.539 752.816 692.565 752.816 703.699C752.816 714.834 762.026 723.86 773.388 723.86ZM647.02 703.699C651.889 703.699 655.837 699.831 655.837 695.059C655.837 690.287 651.889 686.419 647.02 686.419C642.151 686.419 638.204 690.287 638.204 695.059C638.204 699.831 642.151 703.699 647.02 703.699ZM832.163 792.982C837.032 792.982 840.98 789.113 840.98 784.341C840.98 779.57 837.032 775.701 832.163 775.701C827.294 775.701 823.347 779.57 823.347 784.341C823.347 789.113 827.294 792.982 832.163 792.982ZM699.918 859.224C704.787 859.224 708.735 855.355 708.735 850.583C708.735 845.811 704.787 841.943 699.918 841.943C695.049 841.943 691.102 845.811 691.102 850.583C691.102 855.355 695.049 859.224 699.918 859.224ZM864.49 640.337C869.359 640.337 873.306 636.469 873.306 631.697C873.306 626.925 869.359 623.057 864.49 623.057C859.621 623.057 855.673 626.925 855.673 631.697C855.673 636.469 859.621 640.337 864.49 640.337ZM635.265 847.703C641.757 847.703 647.02 842.545 647.02 836.183C647.02 829.82 641.757 824.663 635.265 824.663C628.773 824.663 623.51 829.82 623.51 836.183C623.51 842.545 628.773 847.703 635.265 847.703ZM717.551 660.498C724.043 660.498 729.306 655.34 729.306 648.978C729.306 642.615 724.043 637.457 717.551 637.457C711.059 637.457 705.796 642.615 705.796 648.978C705.796 655.34 711.059 660.498 717.551 660.498ZM785.143 628.817C793.258 628.817 799.837 622.37 799.837 614.417C799.837 606.464 793.258 600.016 785.143 600.016C777.028 600.016 770.449 606.464 770.449 614.417C770.449 622.37 777.028 628.817 785.143 628.817ZM767.51 801.622C774.002 801.622 779.265 796.464 779.265 790.102C779.265 783.739 774.002 778.581 767.51 778.581C761.018 778.581 755.755 783.739 755.755 790.102C755.755 796.464 761.018 801.622 767.51 801.622ZM852.735 864.984C860.85 864.984 867.429 858.536 867.429 850.583C867.429 842.63 860.85 836.183 852.735 836.183C844.619 836.183 838.041 842.63 838.041 850.583C838.041 858.536 844.619 864.984 852.735 864.984ZM694.041 781.461C702.156 781.461 708.735 775.014 708.735 767.061C708.735 759.108 702.156 752.661 694.041 752.661C685.926 752.661 679.347 759.108 679.347 767.061C679.347 775.014 685.926 781.461 694.041 781.461ZM861.551 744.02C869.666 744.02 876.245 737.573 876.245 729.62C876.245 721.667 869.666 715.22 861.551 715.22C853.436 715.22 846.857 721.667 846.857 729.62C846.857 737.573 853.436 744.02 861.551 744.02ZM835.102 683.539C838.348 683.539 840.98 680.96 840.98 677.779C840.98 674.597 838.348 672.018 835.102 672.018C831.856 672.018 829.224 674.597 829.224 677.779C829.224 680.96 831.856 683.539 835.102 683.539ZM776.326 862.104C779.573 862.104 782.204 859.525 782.204 856.344C782.204 853.162 779.573 850.583 776.326 850.583C773.08 850.583 770.449 853.162 770.449 856.344C770.449 859.525 773.08 862.104 776.326 862.104ZM702.857 718.1C706.103 718.1 708.735 715.521 708.735 712.339C708.735 709.158 706.103 706.579 702.857 706.579C699.611 706.579 696.98 709.158 696.98 712.339C696.98 715.521 699.611 718.1 702.857 718.1ZM635.265 772.821C638.511 772.821 641.143 770.242 641.143 767.061C641.143 763.88 638.511 761.301 635.265 761.301C632.019 761.301 629.388 763.88 629.388 767.061C629.388 770.242 632.019 772.821 635.265 772.821Z" fill="#FABD31"/>
<path fill-rule="evenodd" clip-rule="evenodd" d="M926.204 651.858C937.565 651.858 946.776 642.832 946.776 631.697C946.776 620.563 937.565 611.537 926.204 611.537C914.843 611.537 905.633 620.563 905.633 631.697C905.633 642.832 914.843 651.858 926.204 651.858ZM1067.27 723.86C1078.63 723.86 1087.84 714.834 1087.84 703.699C1087.84 692.565 1078.63 683.539 1067.27 683.539C1055.9 683.539 1046.69 692.565 1046.69 703.699C1046.69 714.834 1055.9 723.86 1067.27 723.86ZM940.898 703.699C945.767 703.699 949.714 699.831 949.714 695.059C949.714 690.287 945.767 686.419 940.898 686.419C936.029 686.419 932.082 690.287 932.082 695.059C932.082 699.831 936.029 703.699 940.898 703.699ZM1126.04 792.982C1130.91 792.982 1134.86 789.113 1134.86 784.341C1134.86 779.57 1130.91 775.701 1126.04 775.701C1121.17 775.701 1117.22 779.57 1117.22 784.341C1117.22 789.113 1121.17 792.982 1126.04 792.982ZM993.796 859.224C998.665 859.224 1002.61 855.355 1002.61 850.583C1002.61 845.811 998.665 841.943 993.796 841.943C988.927 841.943 984.98 845.811 984.98 850.583C984.98 855.355 988.927 859.224 993.796 859.224ZM1158.37 640.337C1163.24 640.337 1167.18 636.469 1167.18 631.697C1167.18 626.925 1163.24 623.057 1158.37 623.057C1153.5 623.057 1149.55 626.925 1149.55 631.697C1149.55 636.469 1153.5 640.337 1158.37 640.337ZM929.143 847.703C935.635 847.703 940.898 842.545 940.898 836.183C940.898 829.82 935.635 824.663 929.143 824.663C922.651 824.663 917.388 829.82 917.388 836.183C917.388 842.545 922.651 847.703 929.143 847.703ZM1011.43 660.498C1017.92 660.498 1023.18 655.34 1023.18 648.978C1023.18 642.615 1017.92 637.457 1011.43 637.457C1004.94 637.457 999.674 642.615 999.674 648.978C999.674 655.34 1004.94 660.498 1011.43 660.498ZM1079.02 628.817C1087.14 628.817 1093.71 622.37 1093.71 614.417C1093.71 606.464 1087.14 600.016 1079.02 600.016C1070.91 600.016 1064.33 606.464 1064.33 614.417C1064.33 622.37 1070.91 628.817 1079.02 628.817ZM1061.39 801.622C1067.88 801.622 1073.14 796.464 1073.14 790.102C1073.14 783.739 1067.88 778.581 1061.39 778.581C1054.9 778.581 1049.63 783.739 1049.63 790.102C1049.63 796.464 1054.9 801.622 1061.39 801.622ZM1146.61 864.984C1154.73 864.984 1161.31 858.536 1161.31 850.583C1161.31 842.63 1154.73 836.183 1146.61 836.183C1138.5 836.183 1131.92 842.63 1131.92 850.583C1131.92 858.536 1138.5 864.984 1146.61 864.984ZM987.918 781.461C996.034 781.461 1002.61 775.014 1002.61 767.061C1002.61 759.108 996.034 752.661 987.918 752.661C979.803 752.661 973.225 759.108 973.225 767.061C973.225 775.014 979.803 781.461 987.918 781.461ZM1155.43 744.02C1163.54 744.02 1170.12 737.573 1170.12 729.62C1170.12 721.667 1163.54 715.22 1155.43 715.22C1147.31 715.22 1140.73 721.667 1140.73 729.62C1140.73 737.573 1147.31 744.02 1155.43 744.02ZM1128.98 683.539C1132.23 683.539 1134.86 680.96 1134.86 677.779C1134.86 674.597 1132.23 672.018 1128.98 672.018C1125.73 672.018 1123.1 674.597 1123.1 677.779C1123.1 680.96 1125.73 683.539 1128.98 683.539ZM1070.2 862.104C1073.45 862.104 1076.08 859.525 1076.08 856.344C1076.08 853.162 1073.45 850.583 1070.2 850.583C1066.96 850.583 1064.33 853.162 1064.33 856.344C1064.33 859.525 1066.96 862.104 1070.2 862.104ZM996.735 718.1C999.981 718.1 1002.61 715.521 1002.61 712.339C1002.61 709.158 999.981 706.579 996.735 706.579C993.489 706.579 990.857 709.158 990.857 712.339C990.857 715.521 993.489 718.1 996.735 718.1ZM929.143 772.821C932.389 772.821 935.02 770.242 935.02 767.061C935.02 763.88 932.389 761.301 929.143 761.301C925.897 761.301 923.265 763.88 923.265 767.061C923.265 770.242 925.897 772.821 929.143 772.821Z" fill="#FABD31"/>
<path fill-rule="evenodd" clip-rule="evenodd" d="M1220.08 651.858C1231.44 651.858 1240.65 642.832 1240.65 631.697C1240.65 620.563 1231.44 611.537 1220.08 611.537C1208.72 611.537 1199.51 620.563 1199.51 631.697C1199.51 642.832 1208.72 651.858 1220.08 651.858ZM1361.14 723.86C1372.5 723.86 1381.71 714.834 1381.71 703.699C1381.71 692.565 1372.5 683.539 1361.14 683.539C1349.78 683.539 1340.57 692.565 1340.57 703.699C1340.57 714.834 1349.78 723.86 1361.14 723.86ZM1234.78 703.699C1239.64 703.699 1243.59 699.831 1243.59 695.059C1243.59 690.287 1239.64 686.419 1234.78 686.419C1229.91 686.419 1225.96 690.287 1225.96 695.059C1225.96 699.831 1229.91 703.699 1234.78 703.699ZM1419.92 792.982C1424.79 792.982 1428.73 789.113 1428.73 784.341C1428.73 779.57 1424.79 775.701 1419.92 775.701C1415.05 775.701 1411.1 779.57 1411.1 784.341C1411.1 789.113 1415.05 792.982 1419.92 792.982ZM1287.67 859.224C1292.54 859.224 1296.49 855.355 1296.49 850.583C1296.49 845.811 1292.54 841.943 1287.67 841.943C1282.8 841.943 1278.86 845.811 1278.86 850.583C1278.86 855.355 1282.8 859.224 1287.67 859.224ZM1452.24 640.337C1457.11 640.337 1461.06 636.469 1461.06 631.697C1461.06 626.925 1457.11 623.057 1452.24 623.057C1447.38 623.057 1443.43 626.925 1443.43 631.697C1443.43 636.469 1447.38 640.337 1452.24 640.337ZM1223.02 847.703C1229.51 847.703 1234.78 842.545 1234.78 836.183C1234.78 829.82 1229.51 824.663 1223.02 824.663C1216.53 824.663 1211.27 829.82 1211.27 836.183C1211.27 842.545 1216.53 847.703 1223.02 847.703ZM1305.31 660.498C1311.8 660.498 1317.06 655.34 1317.06 648.978C1317.06 642.615 1311.8 637.457 1305.31 637.457C1298.81 637.457 1293.55 642.615 1293.55 648.978C1293.55 655.34 1298.81 660.498 1305.31 660.498ZM1372.9 628.817C1381.01 628.817 1387.59 622.37 1387.59 614.417C1387.59 606.464 1381.01 600.016 1372.9 600.016C1364.78 600.016 1358.2 606.464 1358.2 614.417C1358.2 622.37 1364.78 628.817 1372.9 628.817ZM1355.27 801.622C1361.76 801.622 1367.02 796.464 1367.02 790.102C1367.02 783.739 1361.76 778.581 1355.27 778.581C1348.77 778.581 1343.51 783.739 1343.51 790.102C1343.51 796.464 1348.77 801.622 1355.27 801.622ZM1440.49 864.984C1448.6 864.984 1455.18 858.536 1455.18 850.583C1455.18 842.63 1448.6 836.183 1440.49 836.183C1432.37 836.183 1425.8 842.63 1425.8 850.583C1425.8 858.536 1432.37 864.984 1440.49 864.984ZM1281.8 781.461C1289.91 781.461 1296.49 775.014 1296.49 767.061C1296.49 759.108 1289.91 752.661 1281.8 752.661C1273.68 752.661 1267.1 759.108 1267.1 767.061C1267.1 775.014 1273.68 781.461 1281.8 781.461ZM1449.31 744.02C1457.42 744.02 1464 737.573 1464 729.62C1464 721.667 1457.42 715.22 1449.31 715.22C1441.19 715.22 1434.61 721.667 1434.61 729.62C1434.61 737.573 1441.19 744.02 1449.31 744.02ZM1422.86 683.539C1426.1 683.539 1428.73 680.96 1428.73 677.779C1428.73 674.597 1426.1 672.018 1422.86 672.018C1419.61 672.018 1416.98 674.597 1416.98 677.779C1416.98 680.96 1419.61 683.539 1422.86 683.539ZM1364.08 862.104C1367.33 862.104 1369.96 859.525 1369.96 856.344C1369.96 853.162 1367.33 850.583 1364.08 850.583C1360.84 850.583 1358.2 853.162 1358.2 856.344C1358.2 859.525 1360.84 862.104 1364.08 862.104ZM1290.61 718.1C1293.86 718.1 1296.49 715.521 1296.49 712.339C1296.49 709.158 1293.86 706.579 1290.61 706.579C1287.37 706.579 1284.73 709.158 1284.73 712.339C1284.73 715.521 1287.37 718.1 1290.61 718.1ZM1223.02 772.821C1226.27 772.821 1228.9 770.242 1228.9 767.061C1228.9 763.88 1226.27 761.301 1223.02 761.301C1219.77 761.301 1217.14 763.88 1217.14 767.061C1217.14 770.242 1219.77 772.821 1223.02 772.821Z" fill="#FABD31"/>
<path fill-rule="evenodd" clip-rule="evenodd" d="M44.5714 939.866C55.9327 939.866 65.1429 930.84 65.1429 919.705C65.1429 908.571 55.9327 899.545 44.5714 899.545C33.2101 899.545 24 908.571 24 919.705C24 930.84 33.2101 939.866 44.5714 939.866ZM185.633 1011.87C196.994 1011.87 206.204 1002.84 206.204 991.707C206.204 980.573 196.994 971.547 185.633 971.547C174.271 971.547 165.061 980.573 165.061 991.707C165.061 1002.84 174.271 1011.87 185.633 1011.87ZM59.2653 991.707C64.1344 991.707 68.0816 987.839 68.0816 983.067C68.0816 978.295 64.1344 974.427 59.2653 974.427C54.3962 974.427 50.449 978.295 50.449 983.067C50.449 987.839 54.3962 991.707 59.2653 991.707ZM244.408 1080.99C249.277 1080.99 253.225 1077.12 253.225 1072.35C253.225 1067.58 249.277 1063.71 244.408 1063.71C239.539 1063.71 235.592 1067.58 235.592 1072.35C235.592 1077.12 239.539 1080.99 244.408 1080.99ZM112.163 1147.23C117.032 1147.23 120.98 1143.36 120.98 1138.59C120.98 1133.82 117.032 1129.95 112.163 1129.95C107.294 1129.95 103.347 1133.82 103.347 1138.59C103.347 1143.36 107.294 1147.23 112.163 1147.23ZM276.735 928.346C281.604 928.346 285.551 924.477 285.551 919.705C285.551 914.933 281.604 911.065 276.735 911.065C271.866 911.065 267.918 914.933 267.918 919.705C267.918 924.477 271.866 928.346 276.735 928.346ZM47.5102 1135.71C54.0024 1135.71 59.2653 1130.55 59.2653 1124.19C59.2653 1117.83 54.0024 1112.67 47.5102 1112.67C41.018 1112.67 35.7551 1117.83 35.7551 1124.19C35.7551 1130.55 41.018 1135.71 47.5102 1135.71ZM129.796 948.506C136.288 948.506 141.551 943.348 141.551 936.986C141.551 930.623 136.288 925.465 129.796 925.465C123.304 925.465 118.041 930.623 118.041 936.986C118.041 943.348 123.304 948.506 129.796 948.506ZM197.388 916.825C205.503 916.825 212.082 910.378 212.082 902.425C212.082 894.472 205.503 888.024 197.388 888.024C189.273 888.024 182.694 894.472 182.694 902.425C182.694 910.378 189.273 916.825 197.388 916.825ZM179.755 1089.63C186.247 1089.63 191.51 1084.47 191.51 1078.11C191.51 1071.75 186.247 1066.59 179.755 1066.59C173.263 1066.59 168 1071.75 168 1078.11C168 1084.47 173.263 1089.63 179.755 1089.63ZM264.98 1152.99C273.095 1152.99 279.673 1146.54 279.673 1138.59C279.673 1130.64 273.095 1124.19 264.98 1124.19C256.864 1124.19 250.286 1130.64 250.286 1138.59C250.286 1146.54 256.864 1152.99 264.98 1152.99ZM106.286 1069.47C114.401 1069.47 120.98 1063.02 120.98 1055.07C120.98 1047.12 114.401 1040.67 106.286 1040.67C98.1705 1040.67 91.5918 1047.12 91.5918 1055.07C91.5918 1063.02 98.1705 1069.47 106.286 1069.47ZM273.796 1032.03C281.911 1032.03 288.49 1025.58 288.49 1017.63C288.49 1009.67 281.911 1003.23 273.796 1003.23C265.681 1003.23 259.102 1009.67 259.102 1017.63C259.102 1025.58 265.681 1032.03 273.796 1032.03ZM247.347 971.547C250.593 971.547 253.225 968.968 253.225 965.787C253.225 962.605 250.593 960.026 247.347 960.026C244.101 960.026 241.469 962.605 241.469 965.787C241.469 968.968 244.101 971.547 247.347 971.547ZM188.571 1150.11C191.818 1150.11 194.449 1147.53 194.449 1144.35C194.449 1141.17 191.818 1138.59 188.571 1138.59C185.325 1138.59 182.694 1141.17 182.694 1144.35C182.694 1147.53 185.325 1150.11 188.571 1150.11ZM115.102 1006.11C118.348 1006.11 120.98 1003.53 120.98 1000.35C120.98 997.166 118.348 994.587 115.102 994.587C111.856 994.587 109.224 997.166 109.224 1000.35C109.224 1003.53 111.856 1006.11 115.102 1006.11ZM47.5102 1060.83C50.7563 1060.83 53.3878 1058.25 53.3878 1055.07C53.3878 1051.89 50.7563 1049.31 47.5102 1049.31C44.2641 1049.31 41.6327 1051.89 41.6327 1055.07C41.6327 1058.25 44.2641 1060.83 47.5102 1060.83Z" fill="#FABD31"/>
<path fill-rule="evenodd" clip-rule="evenodd" d="M338.449 939.866C349.81 939.866 359.02 930.84 359.02 919.705C359.02 908.571 349.81 899.545 338.449 899.545C327.088 899.545 317.878 908.571 317.878 919.705C317.878 930.84 327.088 939.866 338.449 939.866ZM479.51 1011.87C490.872 1011.87 500.082 1002.84 500.082 991.707C500.082 980.573 490.872 971.547 479.51 971.547C468.149 971.547 458.939 980.573 458.939 991.707C458.939 1002.84 468.149 1011.87 479.51 1011.87ZM353.143 991.707C358.012 991.707 361.959 987.839 361.959 983.067C361.959 978.295 358.012 974.427 353.143 974.427C348.274 974.427 344.327 978.295 344.327 983.067C344.327 987.839 348.274 991.707 353.143 991.707ZM538.286 1080.99C543.155 1080.99 547.102 1077.12 547.102 1072.35C547.102 1067.58 543.155 1063.71 538.286 1063.71C533.417 1063.71 529.469 1067.58 529.469 1072.35C529.469 1077.12 533.417 1080.99 538.286 1080.99ZM406.041 1147.23C410.91 1147.23 414.857 1143.36 414.857 1138.59C414.857 1133.82 410.91 1129.95 406.041 1129.95C401.172 1129.95 397.224 1133.82 397.224 1138.59C397.224 1143.36 401.172 1147.23 406.041 1147.23ZM570.612 928.346C575.481 928.346 579.429 924.477 579.429 919.705C579.429 914.933 575.481 911.065 570.612 911.065C565.743 911.065 561.796 914.933 561.796 919.705C561.796 924.477 565.743 928.346 570.612 928.346ZM341.388 1135.71C347.88 1135.71 353.143 1130.55 353.143 1124.19C353.143 1117.83 347.88 1112.67 341.388 1112.67C334.896 1112.67 329.633 1117.83 329.633 1124.19C329.633 1130.55 334.896 1135.71 341.388 1135.71ZM423.673 948.506C430.166 948.506 435.429 943.348 435.429 936.986C435.429 930.623 430.166 925.465 423.673 925.465C417.181 925.465 411.918 930.623 411.918 936.986C411.918 943.348 417.181 948.506 423.673 948.506ZM491.265 916.825C499.381 916.825 505.959 910.378 505.959 902.425C505.959 894.472 499.381 888.024 491.265 888.024C483.15 888.024 476.571 894.472 476.571 902.425C476.571 910.378 483.15 916.825 491.265 916.825ZM473.633 1089.63C480.125 1089.63 485.388 1084.47 485.388 1078.11C485.388 1071.75 480.125 1066.59 473.633 1066.59C467.141 1066.59 461.878 1071.75 461.878 1078.11C461.878 1084.47 467.141 1089.63 473.633 1089.63ZM558.857 1152.99C566.972 1152.99 573.551 1146.54 573.551 1138.59C573.551 1130.64 566.972 1124.19 558.857 1124.19C550.742 1124.19 544.163 1130.64 544.163 1138.59C544.163 1146.54 550.742 1152.99 558.857 1152.99ZM400.163 1069.47C408.278 1069.47 414.857 1063.02 414.857 1055.07C414.857 1047.12 408.278 1040.67 400.163 1040.67C392.048 1040.67 385.469 1047.12 385.469 1055.07C385.469 1063.02 392.048 1069.47 400.163 1069.47ZM567.674 1032.03C575.789 1032.03 582.367 1025.58 582.367 1017.63C582.367 1009.67 575.789 1003.23 567.674 1003.23C559.558 1003.23 552.98 1009.67 552.98 1017.63C552.98 1025.58 559.558 1032.03 567.674 1032.03ZM541.225 971.547C544.471 971.547 547.102 968.968 547.102 965.787C547.102 962.605 544.471 960.026 541.225 960.026C537.978 960.026 535.347 962.605 535.347 965.787C535.347 968.968 537.978 971.547 541.225 971.547ZM482.449 1150.11C485.695 1150.11 488.327 1147.53 488.327 1144.35C488.327 1141.17 485.695 1138.59 482.449 1138.59C479.203 1138.59 476.571 1141.17 476.571 1144.35C476.571 1147.53 479.203 1150.11 482.449 1150.11ZM408.98 1006.11C412.226 1006.11 414.857 1003.53 414.857 1000.35C414.857 997.166 412.226 994.587 408.98 994.587C405.734 994.587 403.102 997.166 403.102 1000.35C403.102 1003.53 405.734 1006.11 408.98 1006.11ZM341.388 1060.83C344.634 1060.83 347.265 1058.25 347.265 1055.07C347.265 1051.89 344.634 1049.31 341.388 1049.31C338.142 1049.31 335.51 1051.89 335.51 1055.07C335.51 1058.25 338.142 1060.83 341.388 1060.83Z" fill="#FABD31"/>
<path fill-rule="evenodd" clip-rule="evenodd" d="M632.326 939.866C643.688 939.866 652.898 930.84 652.898 919.705C652.898 908.571 643.688 899.545 632.326 899.545C620.965 899.545 611.755 908.571 611.755 919.705C611.755 930.84 620.965 939.866 632.326 939.866ZM773.388 1011.87C784.749 1011.87 793.959 1002.84 793.959 991.707C793.959 980.573 784.749 971.547 773.388 971.547C762.026 971.547 752.816 980.573 752.816 991.707C752.816 1002.84 762.026 1011.87 773.388 1011.87ZM647.02 991.707C651.889 991.707 655.837 987.839 655.837 983.067C655.837 978.295 651.889 974.427 647.02 974.427C642.151 974.427 638.204 978.295 638.204 983.067C638.204 987.839 642.151 991.707 647.02 991.707ZM832.163 1080.99C837.032 1080.99 840.98 1077.12 840.98 1072.35C840.98 1067.58 837.032 1063.71 832.163 1063.71C827.294 1063.71 823.347 1067.58 823.347 1072.35C823.347 1077.12 827.294 1080.99 832.163 1080.99ZM699.918 1147.23C704.787 1147.23 708.735 1143.36 708.735 1138.59C708.735 1133.82 704.787 1129.95 699.918 1129.95C695.049 1129.95 691.102 1133.82 691.102 1138.59C691.102 1143.36 695.049 1147.23 699.918 1147.23ZM864.49 928.346C869.359 928.346 873.306 924.477 873.306 919.705C873.306 914.933 869.359 911.065 864.49 911.065C859.621 911.065 855.673 914.933 855.673 919.705C855.673 924.477 859.621 928.346 864.49 928.346ZM635.265 1135.71C641.757 1135.71 647.02 1130.55 647.02 1124.19C647.02 1117.83 641.757 1112.67 635.265 1112.67C628.773 1112.67 623.51 1117.83 623.51 1124.19C623.51 1130.55 628.773 1135.71 635.265 1135.71ZM717.551 948.506C724.043 948.506 729.306 943.348 729.306 936.986C729.306 930.623 724.043 925.465 717.551 925.465C711.059 925.465 705.796 930.623 705.796 936.986C705.796 943.348 711.059 948.506 717.551 948.506ZM785.143 916.825C793.258 916.825 799.837 910.378 799.837 902.425C799.837 894.472 793.258 888.024 785.143 888.024C777.028 888.024 770.449 894.472 770.449 902.425C770.449 910.378 777.028 916.825 785.143 916.825ZM767.51 1089.63C774.002 1089.63 779.265 1084.47 779.265 1078.11C779.265 1071.75 774.002 1066.59 767.51 1066.59C761.018 1066.59 755.755 1071.75 755.755 1078.11C755.755 1084.47 761.018 1089.63 767.51 1089.63ZM852.735 1152.99C860.85 1152.99 867.429 1146.54 867.429 1138.59C867.429 1130.64 860.85 1124.19 852.735 1124.19C844.619 1124.19 838.041 1130.64 838.041 1138.59C838.041 1146.54 844.619 1152.99 852.735 1152.99ZM694.041 1069.47C702.156 1069.47 708.735 1063.02 708.735 1055.07C708.735 1047.12 702.156 1040.67 694.041 1040.67C685.926 1040.67 679.347 1047.12 679.347 1055.07C679.347 1063.02 685.926 1069.47 694.041 1069.47ZM861.551 1032.03C869.666 1032.03 876.245 1025.58 876.245 1017.63C876.245 1009.67 869.666 1003.23 861.551 1003.23C853.436 1003.23 846.857 1009.67 846.857 1017.63C846.857 1025.58 853.436 1032.03 861.551 1032.03ZM835.102 971.547C838.348 971.547 840.98 968.968 840.98 965.787C840.98 962.605 838.348 960.026 835.102 960.026C831.856 960.026 829.224 962.605 829.224 965.787C829.224 968.968 831.856 971.547 835.102 971.547ZM776.326 1150.11C779.573 1150.11 782.204 1147.53 782.204 1144.35C782.204 1141.17 779.573 1138.59 776.326 1138.59C773.08 1138.59 770.449 1141.17 770.449 1144.35C770.449 1147.53 773.08 1150.11 776.326 1150.11ZM702.857 1006.11C706.103 1006.11 708.735 1003.53 708.735 1000.35C708.735 997.166 706.103 994.587 702.857 994.587C699.611 994.587 696.98 997.166 696.98 1000.35C696.98 1003.53 699.611 1006.11 702.857 1006.11ZM635.265 1060.83C638.511 1060.83 641.143 1058.25 641.143 1055.07C641.143 1051.89 638.511 1049.31 635.265 1049.31C632.019 1049.31 629.388 1051.89 629.388 1055.07C629.388 1058.25 632.019 1060.83 635.265 1060.83Z" fill="#FABD31"/>
<path fill-rule="evenodd" clip-rule="evenodd" d="M926.204 939.866C937.565 939.866 946.776 930.84 946.776 919.705C946.776 908.571 937.565 899.545 926.204 899.545C914.843 899.545 905.633 908.571 905.633 919.705C905.633 930.84 914.843 939.866 926.204 939.866ZM1067.27 1011.87C1078.63 1011.87 1087.84 1002.84 1087.84 991.707C1087.84 980.573 1078.63 971.547 1067.27 971.547C1055.9 971.547 1046.69 980.573 1046.69 991.707C1046.69 1002.84 1055.9 1011.87 1067.27 1011.87ZM940.898 991.707C945.767 991.707 949.714 987.839 949.714 983.067C949.714 978.295 945.767 974.427 940.898 974.427C936.029 974.427 932.082 978.295 932.082 983.067C932.082 987.839 936.029 991.707 940.898 991.707ZM1126.04 1080.99C1130.91 1080.99 1134.86 1077.12 1134.86 1072.35C1134.86 1067.58 1130.91 1063.71 1126.04 1063.71C1121.17 1063.71 1117.22 1067.58 1117.22 1072.35C1117.22 1077.12 1121.17 1080.99 1126.04 1080.99ZM993.796 1147.23C998.665 1147.23 1002.61 1143.36 1002.61 1138.59C1002.61 1133.82 998.665 1129.95 993.796 1129.95C988.927 1129.95 984.98 1133.82 984.98 1138.59C984.98 1143.36 988.927 1147.23 993.796 1147.23ZM1158.37 928.346C1163.24 928.346 1167.18 924.477 1167.18 919.705C1167.18 914.933 1163.24 911.065 1158.37 911.065C1153.5 911.065 1149.55 914.933 1149.55 919.705C1149.55 924.477 1153.5 928.346 1158.37 928.346ZM929.143 1135.71C935.635 1135.71 940.898 1130.55 940.898 1124.19C940.898 1117.83 935.635 1112.67 929.143 1112.67C922.651 1112.67 917.388 1117.83 917.388 1124.19C917.388 1130.55 922.651 1135.71 929.143 1135.71ZM1011.43 948.506C1017.92 948.506 1023.18 943.348 1023.18 936.986C1023.18 930.623 1017.92 925.465 1011.43 925.465C1004.94 925.465 999.674 930.623 999.674 936.986C999.674 943.348 1004.94 948.506 1011.43 948.506ZM1079.02 916.825C1087.14 916.825 1093.71 910.378 1093.71 902.425C1093.71 894.472 1087.14 888.024 1079.02 888.024C1070.91 888.024 1064.33 894.472 1064.33 902.425C1064.33 910.378 1070.91 916.825 1079.02 916.825ZM1061.39 1089.63C1067.88 1089.63 1073.14 1084.47 1073.14 1078.11C1073.14 1071.75 1067.88 1066.59 1061.39 1066.59C1054.9 1066.59 1049.63 1071.75 1049.63 1078.11C1049.63 1084.47 1054.9 1089.63 1061.39 1089.63ZM1146.61 1152.99C1154.73 1152.99 1161.31 1146.54 1161.31 1138.59C1161.31 1130.64 1154.73 1124.19 1146.61 1124.19C1138.5 1124.19 1131.92 1130.64 1131.92 1138.59C1131.92 1146.54 1138.5 1152.99 1146.61 1152.99ZM987.918 1069.47C996.034 1069.47 1002.61 1063.02 1002.61 1055.07C1002.61 1047.12 996.034 1040.67 987.918 1040.67C979.803 1040.67 973.225 1047.12 973.225 1055.07C973.225 1063.02 979.803 1069.47 987.918 1069.47ZM1155.43 1032.03C1163.54 1032.03 1170.12 1025.58 1170.12 1017.63C1170.12 1009.67 1163.54 1003.23 1155.43 1003.23C1147.31 1003.23 1140.73 1009.67 1140.73 1017.63C1140.73 1025.58 1147.31 1032.03 1155.43 1032.03ZM1128.98 971.547C1132.23 971.547 1134.86 968.968 1134.86 965.787C1134.86 962.605 1132.23 960.026 1128.98 960.026C1125.73 960.026 1123.1 962.605 1123.1 965.787C1123.1 968.968 1125.73 971.547 1128.98 971.547ZM1070.2 1150.11C1073.45 1150.11 1076.08 1147.53 1076.08 1144.35C1076.08 1141.17 1073.45 1138.59 1070.2 1138.59C1066.96 1138.59 1064.33 1141.17 1064.33 1144.35C1064.33 1147.53 1066.96 1150.11 1070.2 1150.11ZM996.735 1006.11C999.981 1006.11 1002.61 1003.53 1002.61 1000.35C1002.61 997.166 999.981 994.587 996.735 994.587C993.489 994.587 990.857 997.166 990.857 1000.35C990.857 1003.53 993.489 1006.11 996.735 1006.11ZM929.143 1060.83C932.389 1060.83 935.02 1058.25 935.02 1055.07C935.02 1051.89 932.389 1049.31 929.143 1049.31C925.897 1049.31 923.265 1051.89 923.265 1055.07C923.265 1058.25 925.897 1060.83 929.143 1060.83Z" fill="#FABD31"/>
<path fill-rule="evenodd" clip-rule="evenodd" d="M1220.08 939.866C1231.44 939.866 1240.65 930.84 1240.65 919.705C1240.65 908.571 1231.44 899.545 1220.08 899.545C1208.72 899.545 1199.51 908.571 1199.51 919.705C1199.51 930.84 1208.72 939.866 1220.08 939.866ZM1361.14 1011.87C1372.5 1011.87 1381.71 1002.84 1381.71 991.707C1381.71 980.573 1372.5 971.547 1361.14 971.547C1349.78 971.547 1340.57 980.573 1340.57 991.707C1340.57 1002.84 1349.78 1011.87 1361.14 1011.87ZM1234.78 991.707C1239.64 991.707 1243.59 987.839 1243.59 983.067C1243.59 978.295 1239.64 974.427 1234.78 974.427C1229.91 974.427 1225.96 978.295 1225.96 983.067C1225.96 987.839 1229.91 991.707 1234.78 991.707ZM1419.92 1080.99C1424.79 1080.99 1428.73 1077.12 1428.73 1072.35C1428.73 1067.58 1424.79 1063.71 1419.92 1063.71C1415.05 1063.71 1411.1 1067.58 1411.1 1072.35C1411.1 1077.12 1415.05 1080.99 1419.92 1080.99ZM1287.67 1147.23C1292.54 1147.23 1296.49 1143.36 1296.49 1138.59C1296.49 1133.82 1292.54 1129.95 1287.67 1129.95C1282.8 1129.95 1278.86 1133.82 1278.86 1138.59C1278.86 1143.36 1282.8 1147.23 1287.67 1147.23ZM1452.24 928.346C1457.11 928.346 1461.06 924.477 1461.06 919.705C1461.06 914.933 1457.11 911.065 1452.24 911.065C1447.38 911.065 1443.43 914.933 1443.43 919.705C1443.43 924.477 1447.38 928.346 1452.24 928.346ZM1223.02 1135.71C1229.51 1135.71 1234.78 1130.55 1234.78 1124.19C1234.78 1117.83 1229.51 1112.67 1223.02 1112.67C1216.53 1112.67 1211.27 1117.83 1211.27 1124.19C1211.27 1130.55 1216.53 1135.71 1223.02 1135.71ZM1305.31 948.506C1311.8 948.506 1317.06 943.348 1317.06 936.986C1317.06 930.623 1311.8 925.465 1305.31 925.465C1298.81 925.465 1293.55 930.623 1293.55 936.986C1293.55 943.348 1298.81 948.506 1305.31 948.506ZM1372.9 916.825C1381.01 916.825 1387.59 910.378 1387.59 902.425C1387.59 894.472 1381.01 888.024 1372.9 888.024C1364.78 888.024 1358.2 894.472 1358.2 902.425C1358.2 910.378 1364.78 916.825 1372.9 916.825ZM1355.27 1089.63C1361.76 1089.63 1367.02 1084.47 1367.02 1078.11C1367.02 1071.75 1361.76 1066.59 1355.27 1066.59C1348.77 1066.59 1343.51 1071.75 1343.51 1078.11C1343.51 1084.47 1348.77 1089.63 1355.27 1089.63ZM1440.49 1152.99C1448.6 1152.99 1455.18 1146.54 1455.18 1138.59C1455.18 1130.64 1448.6 1124.19 1440.49 1124.19C1432.37 1124.19 1425.8 1130.64 1425.8 1138.59C1425.8 1146.54 1432.37 1152.99 1440.49 1152.99ZM1281.8 1069.47C1289.91 1069.47 1296.49 1063.02 1296.49 1055.07C1296.49 1047.12 1289.91 1040.67 1281.8 1040.67C1273.68 1040.67 1267.1 1047.12 1267.1 1055.07C1267.1 1063.02 1273.68 1069.47 1281.8 1069.47ZM1449.31 1032.03C1457.42 1032.03 1464 1025.58 1464 1017.63C1464 1009.67 1457.42 1003.23 1449.31 1003.23C1441.19 1003.23 1434.61 1009.67 1434.61 1017.63C1434.61 1025.58 1441.19 1032.03 1449.31 1032.03ZM1422.86 971.547C1426.1 971.547 1428.73 968.968 1428.73 965.787C1428.73 962.605 1426.1 960.026 1422.86 960.026C1419.61 960.026 1416.98 962.605 1416.98 965.787C1416.98 968.968 1419.61 971.547 1422.86 971.547ZM1364.08 1150.11C1367.33 1150.11 1369.96 1147.53 1369.96 1144.35C1369.96 1141.17 1367.33 1138.59 1364.08 1138.59C1360.84 1138.59 1358.2 1141.17 1358.2 1144.35C1358.2 1147.53 1360.84 1150.11 1364.08 1150.11ZM1290.61 1006.11C1293.86 1006.11 1296.49 1003.53 1296.49 1000.35C1296.49 997.166 1293.86 994.587 1290.61 994.587C1287.37 994.587 1284.73 997.166 1284.73 1000.35C1284.73 1003.53 1287.37 1006.11 1290.61 1006.11ZM1223.02 1060.83C1226.27 1060.83 1228.9 1058.25 1228.9 1055.07C1228.9 1051.89 1226.27 1049.31 1223.02 1049.31C1219.77 1049.31 1217.14 1051.89 1217.14 1055.07C1217.14 1058.25 1219.77 1060.83 1223.02 1060.83Z" fill="#FABD31"/>
<path fill-rule="evenodd" clip-rule="evenodd" d="M44.5714 1227.87C55.9327 1227.87 65.1429 1218.85 65.1429 1207.71C65.1429 1196.58 55.9327 1187.55 44.5714 1187.55C33.2101 1187.55 24 1196.58 24 1207.71C24 1218.85 33.2101 1227.87 44.5714 1227.87ZM185.633 1299.88C196.994 1299.88 206.204 1290.85 206.204 1279.72C206.204 1268.58 196.994 1259.55 185.633 1259.55C174.271 1259.55 165.061 1268.58 165.061 1279.72C165.061 1290.85 174.271 1299.88 185.633 1299.88ZM59.2653 1279.72C64.1344 1279.72 68.0816 1275.85 68.0816 1271.08C68.0816 1266.3 64.1344 1262.44 59.2653 1262.44C54.3962 1262.44 50.449 1266.3 50.449 1271.08C50.449 1275.85 54.3962 1279.72 59.2653 1279.72ZM244.408 1369C249.277 1369 253.225 1365.13 253.225 1360.36C253.225 1355.59 249.277 1351.72 244.408 1351.72C239.539 1351.72 235.592 1355.59 235.592 1360.36C235.592 1365.13 239.539 1369 244.408 1369ZM112.163 1435.24C117.032 1435.24 120.98 1431.37 120.98 1426.6C120.98 1421.83 117.032 1417.96 112.163 1417.96C107.294 1417.96 103.347 1421.83 103.347 1426.6C103.347 1431.37 107.294 1435.24 112.163 1435.24ZM276.735 1216.35C281.604 1216.35 285.551 1212.49 285.551 1207.71C285.551 1202.94 281.604 1199.07 276.735 1199.07C271.866 1199.07 267.918 1202.94 267.918 1207.71C267.918 1212.49 271.866 1216.35 276.735 1216.35ZM47.5102 1423.72C54.0024 1423.72 59.2653 1418.56 59.2653 1412.2C59.2653 1405.84 54.0024 1400.68 47.5102 1400.68C41.018 1400.68 35.7551 1405.84 35.7551 1412.2C35.7551 1418.56 41.018 1423.72 47.5102 1423.72ZM129.796 1236.51C136.288 1236.51 141.551 1231.36 141.551 1224.99C141.551 1218.63 136.288 1213.47 129.796 1213.47C123.304 1213.47 118.041 1218.63 118.041 1224.99C118.041 1231.36 123.304 1236.51 129.796 1236.51ZM197.388 1204.83C205.503 1204.83 212.082 1198.39 212.082 1190.43C212.082 1182.48 205.503 1176.03 197.388 1176.03C189.273 1176.03 182.694 1182.48 182.694 1190.43C182.694 1198.39 189.273 1204.83 197.388 1204.83ZM179.755 1377.64C186.247 1377.64 191.51 1372.48 191.51 1366.12C191.51 1359.76 186.247 1354.6 179.755 1354.6C173.263 1354.6 168 1359.76 168 1366.12C168 1372.48 173.263 1377.64 179.755 1377.64ZM264.98 1441C273.095 1441 279.673 1434.55 279.673 1426.6C279.673 1418.65 273.095 1412.2 264.98 1412.2C256.864 1412.2 250.286 1418.65 250.286 1426.6C250.286 1434.55 256.864 1441 264.98 1441ZM106.286 1357.48C114.401 1357.48 120.98 1351.03 120.98 1343.08C120.98 1335.12 114.401 1328.68 106.286 1328.68C98.1705 1328.68 91.5918 1335.12 91.5918 1343.08C91.5918 1351.03 98.1705 1357.48 106.286 1357.48ZM273.796 1320.04C281.911 1320.04 288.49 1313.59 288.49 1305.64C288.49 1297.68 281.911 1291.24 273.796 1291.24C265.681 1291.24 259.102 1297.68 259.102 1305.64C259.102 1313.59 265.681 1320.04 273.796 1320.04ZM247.347 1259.55C250.593 1259.55 253.225 1256.98 253.225 1253.79C253.225 1250.61 250.593 1248.03 247.347 1248.03C244.101 1248.03 241.469 1250.61 241.469 1253.79C241.469 1256.98 244.101 1259.55 247.347 1259.55ZM188.571 1438.12C191.818 1438.12 194.449 1435.54 194.449 1432.36C194.449 1429.18 191.818 1426.6 188.571 1426.6C185.325 1426.6 182.694 1429.18 182.694 1432.36C182.694 1435.54 185.325 1438.12 188.571 1438.12ZM115.102 1294.12C118.348 1294.12 120.98 1291.54 120.98 1288.36C120.98 1285.17 118.348 1282.6 115.102 1282.6C111.856 1282.6 109.224 1285.17 109.224 1288.36C109.224 1291.54 111.856 1294.12 115.102 1294.12ZM47.5102 1348.84C50.7563 1348.84 53.3878 1346.26 53.3878 1343.08C53.3878 1339.9 50.7563 1337.32 47.5102 1337.32C44.2641 1337.32 41.6327 1339.9 41.6327 1343.08C41.6327 1346.26 44.2641 1348.84 47.5102 1348.84Z" fill="#FABD31"/>
<path fill-rule="evenodd" clip-rule="evenodd" d="M338.449 1227.87C349.81 1227.87 359.02 1218.85 359.02 1207.71C359.02 1196.58 349.81 1187.55 338.449 1187.55C327.088 1187.55 317.878 1196.58 317.878 1207.71C317.878 1218.85 327.088 1227.87 338.449 1227.87ZM479.51 1299.88C490.872 1299.88 500.082 1290.85 500.082 1279.72C500.082 1268.58 490.872 1259.55 479.51 1259.55C468.149 1259.55 458.939 1268.58 458.939 1279.72C458.939 1290.85 468.149 1299.88 479.51 1299.88ZM353.143 1279.72C358.012 1279.72 361.959 1275.85 361.959 1271.08C361.959 1266.3 358.012 1262.44 353.143 1262.44C348.274 1262.44 344.327 1266.3 344.327 1271.08C344.327 1275.85 348.274 1279.72 353.143 1279.72ZM538.286 1369C543.155 1369 547.102 1365.13 547.102 1360.36C547.102 1355.59 543.155 1351.72 538.286 1351.72C533.417 1351.72 529.469 1355.59 529.469 1360.36C529.469 1365.13 533.417 1369 538.286 1369ZM406.041 1435.24C410.91 1435.24 414.857 1431.37 414.857 1426.6C414.857 1421.83 410.91 1417.96 406.041 1417.96C401.172 1417.96 397.224 1421.83 397.224 1426.6C397.224 1431.37 401.172 1435.24 406.041 1435.24ZM570.612 1216.35C575.481 1216.35 579.429 1212.49 579.429 1207.71C579.429 1202.94 575.481 1199.07 570.612 1199.07C565.743 1199.07 561.796 1202.94 561.796 1207.71C561.796 1212.49 565.743 1216.35 570.612 1216.35ZM341.388 1423.72C347.88 1423.72 353.143 1418.56 353.143 1412.2C353.143 1405.84 347.88 1400.68 341.388 1400.68C334.896 1400.68 329.633 1405.84 329.633 1412.2C329.633 1418.56 334.896 1423.72 341.388 1423.72ZM423.673 1236.51C430.166 1236.51 435.429 1231.36 435.429 1224.99C435.429 1218.63 430.166 1213.47 423.673 1213.47C417.181 1213.47 411.918 1218.63 411.918 1224.99C411.918 1231.36 417.181 1236.51 423.673 1236.51ZM491.265 1204.83C499.381 1204.83 505.959 1198.39 505.959 1190.43C505.959 1182.48 499.381 1176.03 491.265 1176.03C483.15 1176.03 476.571 1182.48 476.571 1190.43C476.571 1198.39 483.15 1204.83 491.265 1204.83ZM473.633 1377.64C480.125 1377.64 485.388 1372.48 485.388 1366.12C485.388 1359.76 480.125 1354.6 473.633 1354.6C467.141 1354.6 461.878 1359.76 461.878 1366.12C461.878 1372.48 467.141 1377.64 473.633 1377.64ZM558.857 1441C566.972 1441 573.551 1434.55 573.551 1426.6C573.551 1418.65 566.972 1412.2 558.857 1412.2C550.742 1412.2 544.163 1418.65 544.163 1426.6C544.163 1434.55 550.742 1441 558.857 1441ZM400.163 1357.48C408.278 1357.48 414.857 1351.03 414.857 1343.08C414.857 1335.12 408.278 1328.68 400.163 1328.68C392.048 1328.68 385.469 1335.12 385.469 1343.08C385.469 1351.03 392.048 1357.48 400.163 1357.48ZM567.674 1320.04C575.789 1320.04 582.367 1313.59 582.367 1305.64C582.367 1297.68 575.789 1291.24 567.674 1291.24C559.558 1291.24 552.98 1297.68 552.98 1305.64C552.98 1313.59 559.558 1320.04 567.674 1320.04ZM541.225 1259.55C544.471 1259.55 547.102 1256.98 547.102 1253.79C547.102 1250.61 544.471 1248.03 541.225 1248.03C537.978 1248.03 535.347 1250.61 535.347 1253.79C535.347 1256.98 537.978 1259.55 541.225 1259.55ZM482.449 1438.12C485.695 1438.12 488.327 1435.54 488.327 1432.36C488.327 1429.18 485.695 1426.6 482.449 1426.6C479.203 1426.6 476.571 1429.18 476.571 1432.36C476.571 1435.54 479.203 1438.12 482.449 1438.12ZM408.98 1294.12C412.226 1294.12 414.857 1291.54 414.857 1288.36C414.857 1285.17 412.226 1282.6 408.98 1282.6C405.734 1282.6 403.102 1285.17 403.102 1288.36C403.102 1291.54 405.734 1294.12 408.98 1294.12ZM341.388 1348.84C344.634 1348.84 347.265 1346.26 347.265 1343.08C347.265 1339.9 344.634 1337.32 341.388 1337.32C338.142 1337.32 335.51 1339.9 335.51 1343.08C335.51 1346.26 338.142 1348.84 341.388 1348.84Z" fill="#FABD31"/>
<path fill-rule="evenodd" clip-rule="evenodd" d="M632.326 1227.87C643.688 1227.87 652.898 1218.85 652.898 1207.71C652.898 1196.58 643.688 1187.55 632.326 1187.55C620.965 1187.55 611.755 1196.58 611.755 1207.71C611.755 1218.85 620.965 1227.87 632.326 1227.87ZM773.388 1299.88C784.749 1299.88 793.959 1290.85 793.959 1279.72C793.959 1268.58 784.749 1259.55 773.388 1259.55C762.026 1259.55 752.816 1268.58 752.816 1279.72C752.816 1290.85 762.026 1299.88 773.388 1299.88ZM647.02 1279.72C651.889 1279.72 655.837 1275.85 655.837 1271.08C655.837 1266.3 651.889 1262.44 647.02 1262.44C642.151 1262.44 638.204 1266.3 638.204 1271.08C638.204 1275.85 642.151 1279.72 647.02 1279.72ZM832.163 1369C837.032 1369 840.98 1365.13 840.98 1360.36C840.98 1355.59 837.032 1351.72 832.163 1351.72C827.294 1351.72 823.347 1355.59 823.347 1360.36C823.347 1365.13 827.294 1369 832.163 1369ZM699.918 1435.24C704.787 1435.24 708.735 1431.37 708.735 1426.6C708.735 1421.83 704.787 1417.96 699.918 1417.96C695.049 1417.96 691.102 1421.83 691.102 1426.6C691.102 1431.37 695.049 1435.24 699.918 1435.24ZM864.49 1216.35C869.359 1216.35 873.306 1212.49 873.306 1207.71C873.306 1202.94 869.359 1199.07 864.49 1199.07C859.621 1199.07 855.673 1202.94 855.673 1207.71C855.673 1212.49 859.621 1216.35 864.49 1216.35ZM635.265 1423.72C641.757 1423.72 647.02 1418.56 647.02 1412.2C647.02 1405.84 641.757 1400.68 635.265 1400.68C628.773 1400.68 623.51 1405.84 623.51 1412.2C623.51 1418.56 628.773 1423.72 635.265 1423.72ZM717.551 1236.51C724.043 1236.51 729.306 1231.36 729.306 1224.99C729.306 1218.63 724.043 1213.47 717.551 1213.47C711.059 1213.47 705.796 1218.63 705.796 1224.99C705.796 1231.36 711.059 1236.51 717.551 1236.51ZM785.143 1204.83C793.258 1204.83 799.837 1198.39 799.837 1190.43C799.837 1182.48 793.258 1176.03 785.143 1176.03C777.028 1176.03 770.449 1182.48 770.449 1190.43C770.449 1198.39 777.028 1204.83 785.143 1204.83ZM767.51 1377.64C774.002 1377.64 779.265 1372.48 779.265 1366.12C779.265 1359.76 774.002 1354.6 767.51 1354.6C761.018 1354.6 755.755 1359.76 755.755 1366.12C755.755 1372.48 761.018 1377.64 767.51 1377.64ZM852.735 1441C860.85 1441 867.429 1434.55 867.429 1426.6C867.429 1418.65 860.85 1412.2 852.735 1412.2C844.619 1412.2 838.041 1418.65 838.041 1426.6C838.041 1434.55 844.619 1441 852.735 1441ZM694.041 1357.48C702.156 1357.48 708.735 1351.03 708.735 1343.08C708.735 1335.12 702.156 1328.68 694.041 1328.68C685.926 1328.68 679.347 1335.12 679.347 1343.08C679.347 1351.03 685.926 1357.48 694.041 1357.48ZM861.551 1320.04C869.666 1320.04 876.245 1313.59 876.245 1305.64C876.245 1297.68 869.666 1291.24 861.551 1291.24C853.436 1291.24 846.857 1297.68 846.857 1305.64C846.857 1313.59 853.436 1320.04 861.551 1320.04ZM835.102 1259.55C838.348 1259.55 840.98 1256.98 840.98 1253.79C840.98 1250.61 838.348 1248.03 835.102 1248.03C831.856 1248.03 829.224 1250.61 829.224 1253.79C829.224 1256.98 831.856 1259.55 835.102 1259.55ZM776.326 1438.12C779.573 1438.12 782.204 1435.54 782.204 1432.36C782.204 1429.18 779.573 1426.6 776.326 1426.6C773.08 1426.6 770.449 1429.18 770.449 1432.36C770.449 1435.54 773.08 1438.12 776.326 1438.12ZM702.857 1294.12C706.103 1294.12 708.735 1291.54 708.735 1288.36C708.735 1285.17 706.103 1282.6 702.857 1282.6C699.611 1282.6 696.98 1285.17 696.98 1288.36C696.98 1291.54 699.611 1294.12 702.857 1294.12ZM635.265 1348.84C638.511 1348.84 641.143 1346.26 641.143 1343.08C641.143 1339.9 638.511 1337.32 635.265 1337.32C632.019 1337.32 629.388 1339.9 629.388 1343.08C629.388 1346.26 632.019 1348.84 635.265 1348.84Z" fill="#FABD31"/>
<path fill-rule="evenodd" clip-rule="evenodd" d="M926.204 1227.87C937.565 1227.87 946.776 1218.85 946.776 1207.71C946.776 1196.58 937.565 1187.55 926.204 1187.55C914.843 1187.55 905.633 1196.58 905.633 1207.71C905.633 1218.85 914.843 1227.87 926.204 1227.87ZM1067.27 1299.88C1078.63 1299.88 1087.84 1290.85 1087.84 1279.72C1087.84 1268.58 1078.63 1259.55 1067.27 1259.55C1055.9 1259.55 1046.69 1268.58 1046.69 1279.72C1046.69 1290.85 1055.9 1299.88 1067.27 1299.88ZM940.898 1279.72C945.767 1279.72 949.714 1275.85 949.714 1271.08C949.714 1266.3 945.767 1262.44 940.898 1262.44C936.029 1262.44 932.082 1266.3 932.082 1271.08C932.082 1275.85 936.029 1279.72 940.898 1279.72ZM1126.04 1369C1130.91 1369 1134.86 1365.13 1134.86 1360.36C1134.86 1355.59 1130.91 1351.72 1126.04 1351.72C1121.17 1351.72 1117.22 1355.59 1117.22 1360.36C1117.22 1365.13 1121.17 1369 1126.04 1369ZM993.796 1435.24C998.665 1435.24 1002.61 1431.37 1002.61 1426.6C1002.61 1421.83 998.665 1417.96 993.796 1417.96C988.927 1417.96 984.98 1421.83 984.98 1426.6C984.98 1431.37 988.927 1435.24 993.796 1435.24ZM1158.37 1216.35C1163.24 1216.35 1167.18 1212.49 1167.18 1207.71C1167.18 1202.94 1163.24 1199.07 1158.37 1199.07C1153.5 1199.07 1149.55 1202.94 1149.55 1207.71C1149.55 1212.49 1153.5 1216.35 1158.37 1216.35ZM929.143 1423.72C935.635 1423.72 940.898 1418.56 940.898 1412.2C940.898 1405.84 935.635 1400.68 929.143 1400.68C922.651 1400.68 917.388 1405.84 917.388 1412.2C917.388 1418.56 922.651 1423.72 929.143 1423.72ZM1011.43 1236.51C1017.92 1236.51 1023.18 1231.36 1023.18 1224.99C1023.18 1218.63 1017.92 1213.47 1011.43 1213.47C1004.94 1213.47 999.674 1218.63 999.674 1224.99C999.674 1231.36 1004.94 1236.51 1011.43 1236.51ZM1079.02 1204.83C1087.14 1204.83 1093.71 1198.39 1093.71 1190.43C1093.71 1182.48 1087.14 1176.03 1079.02 1176.03C1070.91 1176.03 1064.33 1182.48 1064.33 1190.43C1064.33 1198.39 1070.91 1204.83 1079.02 1204.83ZM1061.39 1377.64C1067.88 1377.64 1073.14 1372.48 1073.14 1366.12C1073.14 1359.76 1067.88 1354.6 1061.39 1354.6C1054.9 1354.6 1049.63 1359.76 1049.63 1366.12C1049.63 1372.48 1054.9 1377.64 1061.39 1377.64ZM1146.61 1441C1154.73 1441 1161.31 1434.55 1161.31 1426.6C1161.31 1418.65 1154.73 1412.2 1146.61 1412.2C1138.5 1412.2 1131.92 1418.65 1131.92 1426.6C1131.92 1434.55 1138.5 1441 1146.61 1441ZM987.918 1357.48C996.034 1357.48 1002.61 1351.03 1002.61 1343.08C1002.61 1335.12 996.034 1328.68 987.918 1328.68C979.803 1328.68 973.225 1335.12 973.225 1343.08C973.225 1351.03 979.803 1357.48 987.918 1357.48ZM1155.43 1320.04C1163.54 1320.04 1170.12 1313.59 1170.12 1305.64C1170.12 1297.68 1163.54 1291.24 1155.43 1291.24C1147.31 1291.24 1140.73 1297.68 1140.73 1305.64C1140.73 1313.59 1147.31 1320.04 1155.43 1320.04ZM1128.98 1259.55C1132.23 1259.55 1134.86 1256.98 1134.86 1253.79C1134.86 1250.61 1132.23 1248.03 1128.98 1248.03C1125.73 1248.03 1123.1 1250.61 1123.1 1253.79C1123.1 1256.98 1125.73 1259.55 1128.98 1259.55ZM1070.2 1438.12C1073.45 1438.12 1076.08 1435.54 1076.08 1432.36C1076.08 1429.18 1073.45 1426.6 1070.2 1426.6C1066.96 1426.6 1064.33 1429.18 1064.33 1432.36C1064.33 1435.54 1066.96 1438.12 1070.2 1438.12ZM996.735 1294.12C999.981 1294.12 1002.61 1291.54 1002.61 1288.36C1002.61 1285.17 999.981 1282.6 996.735 1282.6C993.489 1282.6 990.857 1285.17 990.857 1288.36C990.857 1291.54 993.489 1294.12 996.735 1294.12ZM929.143 1348.84C932.389 1348.84 935.02 1346.26 935.02 1343.08C935.02 1339.9 932.389 1337.32 929.143 1337.32C925.897 1337.32 923.265 1339.9 923.265 1343.08C923.265 1346.26 925.897 1348.84 929.143 1348.84Z" fill="#FABD31"/>
<path fill-rule="evenodd" clip-rule="evenodd" d="M1220.08 1227.87C1231.44 1227.87 1240.65 1218.85 1240.65 1207.71C1240.65 1196.58 1231.44 1187.55 1220.08 1187.55C1208.72 1187.55 1199.51 1196.58 1199.51 1207.71C1199.51 1218.85 1208.72 1227.87 1220.08 1227.87ZM1361.14 1299.88C1372.5 1299.88 1381.71 1290.85 1381.71 1279.72C1381.71 1268.58 1372.5 1259.55 1361.14 1259.55C1349.78 1259.55 1340.57 1268.58 1340.57 1279.72C1340.57 1290.85 1349.78 1299.88 1361.14 1299.88ZM1234.78 1279.72C1239.64 1279.72 1243.59 1275.85 1243.59 1271.08C1243.59 1266.3 1239.64 1262.44 1234.78 1262.44C1229.91 1262.44 1225.96 1266.3 1225.96 1271.08C1225.96 1275.85 1229.91 1279.72 1234.78 1279.72ZM1419.92 1369C1424.79 1369 1428.73 1365.13 1428.73 1360.36C1428.73 1355.59 1424.79 1351.72 1419.92 1351.72C1415.05 1351.72 1411.1 1355.59 1411.1 1360.36C1411.1 1365.13 1415.05 1369 1419.92 1369ZM1287.67 1435.24C1292.54 1435.24 1296.49 1431.37 1296.49 1426.6C1296.49 1421.83 1292.54 1417.96 1287.67 1417.96C1282.8 1417.96 1278.86 1421.83 1278.86 1426.6C1278.86 1431.37 1282.8 1435.24 1287.67 1435.24ZM1452.24 1216.35C1457.11 1216.35 1461.06 1212.49 1461.06 1207.71C1461.06 1202.94 1457.11 1199.07 1452.24 1199.07C1447.38 1199.07 1443.43 1202.94 1443.43 1207.71C1443.43 1212.49 1447.38 1216.35 1452.24 1216.35ZM1223.02 1423.72C1229.51 1423.72 1234.78 1418.56 1234.78 1412.2C1234.78 1405.84 1229.51 1400.68 1223.02 1400.68C1216.53 1400.68 1211.27 1405.84 1211.27 1412.2C1211.27 1418.56 1216.53 1423.72 1223.02 1423.72ZM1305.31 1236.51C1311.8 1236.51 1317.06 1231.36 1317.06 1224.99C1317.06 1218.63 1311.8 1213.47 1305.31 1213.47C1298.81 1213.47 1293.55 1218.63 1293.55 1224.99C1293.55 1231.36 1298.81 1236.51 1305.31 1236.51ZM1372.9 1204.83C1381.01 1204.83 1387.59 1198.39 1387.59 1190.43C1387.59 1182.48 1381.01 1176.03 1372.9 1176.03C1364.78 1176.03 1358.2 1182.48 1358.2 1190.43C1358.2 1198.39 1364.78 1204.83 1372.9 1204.83ZM1355.27 1377.64C1361.76 1377.64 1367.02 1372.48 1367.02 1366.12C1367.02 1359.76 1361.76 1354.6 1355.27 1354.6C1348.77 1354.6 1343.51 1359.76 1343.51 1366.12C1343.51 1372.48 1348.77 1377.64 1355.27 1377.64ZM1440.49 1441C1448.6 1441 1455.18 1434.55 1455.18 1426.6C1455.18 1418.65 1448.6 1412.2 1440.49 1412.2C1432.37 1412.2 1425.8 1418.65 1425.8 1426.6C1425.8 1434.55 1432.37 1441 1440.49 1441ZM1281.8 1357.48C1289.91 1357.48 1296.49 1351.03 1296.49 1343.08C1296.49 1335.12 1289.91 1328.68 1281.8 1328.68C1273.68 1328.68 1267.1 1335.12 1267.1 1343.08C1267.1 1351.03 1273.68 1357.48 1281.8 1357.48ZM1449.31 1320.04C1457.42 1320.04 1464 1313.59 1464 1305.64C1464 1297.68 1457.42 1291.24 1449.31 1291.24C1441.19 1291.24 1434.61 1297.68 1434.61 1305.64C1434.61 1313.59 1441.19 1320.04 1449.31 1320.04ZM1422.86 1259.55C1426.1 1259.55 1428.73 1256.98 1428.73 1253.79C1428.73 1250.61 1426.1 1248.03 1422.86 1248.03C1419.61 1248.03 1416.98 1250.61 1416.98 1253.79C1416.98 1256.98 1419.61 1259.55 1422.86 1259.55ZM1364.08 1438.12C1367.33 1438.12 1369.96 1435.54 1369.96 1432.36C1369.96 1429.18 1367.33 1426.6 1364.08 1426.6C1360.84 1426.6 1358.2 1429.18 1358.2 1432.36C1358.2 1435.54 1360.84 1438.12 1364.08 1438.12ZM1290.61 1294.12C1293.86 1294.12 1296.49 1291.54 1296.49 1288.36C1296.49 1285.17 1293.86 1282.6 1290.61 1282.6C1287.37 1282.6 1284.73 1285.17 1284.73 1288.36C1284.73 1291.54 1287.37 1294.12 1290.61 1294.12ZM1223.02 1348.84C1226.27 1348.84 1228.9 1346.26 1228.9 1343.08C1228.9 1339.9 1226.27 1337.32 1223.02 1337.32C1219.77 1337.32 1217.14 1339.9 1217.14 1343.08C1217.14 1346.26 1219.77 1348.84 1223.02 1348.84Z" fill="#FABD31"/>
</g>
<defs>
<filter id="filter0_f_1_875" x="0" y="0" width="1488" height="1465" filterUnits="userSpaceOnUse" color-interpolation-filters="sRGB">
<feFlood flood-opacity="0" result="BackgroundImageFix"/>
<feBlend mode="normal" in="SourceGraphic" in2="BackgroundImageFix" result="shape"/>
<feGaussianBlur stdDeviation="12" result="effect1_foregroundBlur_1_875"/>
</filter>
<linearGradient id="paint0_linear_1_875" x1="1936.72" y1="1404.47" x2="1323.24" y2="2215.96" gradientUnits="userSpaceOnUse">
<stop stop-color="#DED967"/>
<stop offset="1" stop-color="#9E388C"/>
</linearGradient>
<linearGradient id="paint1_linear_1_875" x1="-10.8227" y1="207.5" x2="-10.8227" y2="842.125" gradientUnits="userSpaceOnUse">
<stop stop-color="#DED267"/>
<stop offset="1" stop-color="#9E388C"/>
</linearGradient>
<linearGradient id="paint2_linear_1_875" x1="1244.32" y1="-3" x2="1244.32" y2="514.162" gradientUnits="userSpaceOnUse">
<stop stop-color="#DED967"/>
<stop offset="1" stop-color="#9E388C"/>
</linearGradient>
</defs>
</svg>
