<svg width="363" height="806" viewBox="0 0 363 806" fill="none" xmlns="http://www.w3.org/2000/svg">
<path d="M573.413 559.235L358.277 702.075C344.604 711.19 330 706.736 322.025 694.825L85.4582 338.726C77.4829 326.815 80.3834 310.863 92.813 302.577L307.95 159.737C320.172 151.657 335.709 154.35 343.063 165.433L580.665 523.189C588.122 534.168 587.5 549.912 573.413 559.235ZM92.7094 305.995C82.8693 312.521 80.0723 325.882 86.7012 335.619L325.443 694.928C331.968 704.768 345.33 707.357 355.17 700.832L573.517 555.817C583.357 549.291 586.154 535.929 579.629 526.089L340.887 166.779C334.362 156.94 321.001 154.35 311.16 160.876L92.7094 305.995Z" fill="#D5DBDA"/>
<path d="M571.859 555.817L355.687 699.486C345.225 706.426 331.242 703.63 324.303 693.168L87.4256 336.551C80.5897 326.194 83.283 312.107 93.7446 305.167L309.917 161.498C320.378 154.558 334.361 157.355 341.301 167.816L578.178 524.433C585.118 534.894 582.217 548.981 571.859 555.817Z" fill="#B8BCBB"/>
<path d="M574.449 554.055L353.927 700.624C344.501 706.943 331.761 704.354 325.443 694.928L87.4264 336.758C80.5904 326.4 83.2838 312.313 93.7454 305.373L309.918 161.704C320.379 154.764 334.362 157.561 341.302 168.022L579.94 527.228C585.844 536.032 583.461 548.151 574.449 554.055Z" fill="url(#paint0_linear_1_53)"/>
<path d="M300.797 389.164C299.244 388.854 297.483 389.993 297.068 391.65C294.686 403.562 284.12 430.7 293.442 444.786C301.107 456.387 314.675 453.59 320.787 444.786C323.791 440.539 325.034 437.017 325.448 434.531C327.312 437.846 329.695 442.3 329.798 444.889C330.005 448.204 326.069 451.725 325.448 452.14L325.344 452.243L327.209 454.936L336.945 448.514L337.152 448.307L346.889 441.885L345.024 439.192L344.921 439.296C344.299 439.71 339.431 442.092 336.531 440.435C334.252 439.192 331.145 435.463 328.659 432.356C331.248 433.081 335.392 433.495 341.192 432.045C350.929 429.559 357.972 417.544 350.722 406.564C341.814 392.478 311.466 391.546 300.797 389.164Z" fill="#161719"/>
<path d="M141.391 347.839C137.455 348.875 133.415 349.808 129.894 350.429C129.169 350.533 128.651 350.636 128.133 350.947C122.332 354.469 113.839 352.397 107.521 342.765C101.203 333.132 101.721 323.914 108.143 319.563C114.668 315.316 123.058 318.734 129.065 327.642C134.244 335.307 134.658 342.143 131.758 346.493L131.862 346.597C134.762 345.768 137.869 344.732 140.148 343.903L141.391 347.839ZM125.855 330.024C121.919 324.017 115.29 319.459 110.214 322.878C105.035 326.399 106.382 334.168 110.732 340.589C114.875 347.011 121.607 350.844 126.476 347.633C131.344 344.421 130.412 336.86 125.855 330.024Z" fill="#C71C1C"/>
<path d="M163.038 368.037C158.585 361.304 143.359 359.958 138.801 359.751C137.973 359.751 137.351 360.166 137.04 360.891C135.486 365.137 130.929 379.639 135.382 386.371C139.111 391.964 145.533 390.721 148.433 386.371C151.23 382.331 150.816 379.638 150.816 379.638C150.816 379.638 153.302 381.502 158.377 380.156C163.142 379.12 166.456 373.319 163.038 368.037Z" fill="#C71C1C"/>
<path d="M160.241 383.678C160.034 383.885 157.652 385.024 156.202 384.196C154.337 383.16 150.919 378.292 150.919 378.292L150.298 378.706L150.194 378.81L149.573 379.224C149.573 379.224 152.887 384.196 152.991 386.371C153.094 387.925 151.126 389.685 150.919 389.893L151.541 391.343L156.305 388.235L156.409 388.132L161.173 385.024L160.241 383.678Z" fill="#C71C1C"/>
<g opacity="0.15">
<path d="M575.071 558.199L357.759 702.592C346.676 709.947 331.657 706.943 324.303 695.86L86.2871 337.483C78.9332 326.4 81.9374 311.381 93.0205 304.027L310.332 159.633C321.415 152.279 336.434 155.282 343.788 166.365L581.804 524.742C589.158 535.825 586.154 550.844 575.071 558.199ZM94.6777 306.305C84.8375 312.831 82.1442 326.089 88.6694 335.929L326.686 694.307C333.211 704.146 346.469 706.839 356.309 700.314L573.621 555.92C583.461 549.394 586.154 536.136 579.629 526.296L341.613 167.919C335.087 158.079 321.829 155.386 311.989 161.912L94.6777 306.305Z" fill="url(#paint1_linear_1_53)"/>
</g>
<path opacity="0.2" d="M253.665 581.511L89.9123 334.893C83.0763 324.535 85.7697 310.449 96.0242 303.716L310.228 161.394C320.586 154.557 334.466 157.457 341.405 167.919L373.203 215.875L253.665 581.511Z" fill="url(#paint2_linear_1_53)"/>
<path d="M572.17 556.749L356.205 700.21C345.329 707.357 330.725 704.354 323.578 693.686L86.7011 337.069C79.5544 326.193 82.4549 311.485 93.2272 304.441L309.192 160.98C319.965 153.729 334.673 156.836 341.82 167.505L578.697 524.121C585.843 534.997 582.943 549.705 572.17 556.749ZM94.263 306.098C84.3193 312.728 81.626 326.193 88.2548 336.136L325.132 692.753C331.761 702.697 345.226 705.39 355.066 698.864L571.031 555.402C580.975 548.773 583.668 535.308 577.039 525.364L340.162 168.748C333.533 158.804 320.068 156.111 310.228 162.637L94.263 306.098Z" fill="white"/>
<path d="M356.828 615.069L356.103 613.929L171.428 336.031L305.461 246.95L490.861 525.988L356.828 615.069ZM175.261 336.756L357.657 611.34L487.236 525.263L304.84 250.679L175.261 336.756Z" fill="#202321"/>
<path d="M578.074 564.31L342.119 669.344C327.1 676.077 313.428 669.241 307.628 656.19L133.831 265.495C128.031 252.444 133.417 237.114 147.194 231.003L383.148 125.968C396.614 119.961 411.426 125.243 416.811 137.465L591.437 529.818C596.719 541.936 593.508 557.37 578.074 564.31ZM146.365 234.317C135.593 239.082 130.724 251.822 135.488 262.594L310.839 656.708C315.603 667.48 328.343 672.348 339.116 667.583L578.696 560.995C589.468 556.23 594.337 543.49 589.572 532.718L414.222 138.604C409.457 127.832 396.717 122.964 385.945 127.729L146.365 234.317Z" fill="#D5DBDA"/>
<path d="M577.039 560.581L339.944 666.133C328.654 671.209 315.189 666.03 310.114 654.74L136.11 263.63C131.138 252.237 136.214 238.875 147.504 233.799L384.599 128.247C396.096 123.172 409.354 128.35 414.429 139.64L588.433 530.75C593.612 542.144 588.536 555.505 577.039 560.581Z" fill="#B8BCBB"/>
<path d="M580.043 559.234L338.08 666.962C327.618 671.623 315.5 666.962 310.839 656.501L136.006 263.526C131.035 252.133 136.111 238.771 147.401 233.695L384.495 128.143C395.992 123.068 409.25 128.246 414.325 139.536L589.676 533.65C594.233 543.387 589.779 554.884 580.043 559.234Z" fill="url(#paint3_linear_1_53)"/>
<path d="M337.673 351.046C336.223 350.424 334.255 351.356 333.633 352.806C329.283 364.2 314.47 389.163 321.203 404.596C326.796 417.233 340.572 416.922 348.133 409.153C351.758 405.528 353.519 402.11 354.348 399.831C355.695 403.456 357.145 408.221 356.937 410.707C356.73 414.021 352.069 416.818 351.344 417.129L351.24 417.232L352.587 420.236L363.359 415.471L363.67 415.367L374.442 410.603L373.096 407.599C372.474 407.806 367.295 409.463 364.602 407.392C362.634 405.838 360.045 401.592 358.284 398.174C360.666 399.313 364.706 400.452 370.714 400.038C380.761 399.105 389.669 388.54 384.386 376.629C377.654 361.195 347.824 355.189 337.673 351.046Z" fill="#161719"/>
<path d="M149.575 257.415L152.889 255.965L160.346 272.538L160.45 272.434C160.45 270.777 160.657 269.327 160.864 267.877L162.833 251.408L166.872 249.647L164.283 268.394L183.03 283.827L179.198 285.588L163.35 272.434L162.625 277.302L168.529 290.457L165.214 291.907L149.575 257.415Z" fill="#C71C1C"/>
<path d="M205.402 307.236C202.191 299.882 187.38 296.05 183.029 295.014C182.201 294.807 181.476 295.118 181.061 295.947C178.782 299.883 171.842 313.452 175.053 320.806C177.746 326.813 184.375 326.606 188 322.981C191.419 319.563 191.522 316.766 191.522 316.766C191.522 316.766 193.594 319.044 198.876 318.526C203.641 318.112 207.991 312.933 205.402 307.236Z" fill="#C71C1C"/>
<path d="M200.016 322.152C199.705 322.255 197.219 323.084 195.976 322.048C194.216 320.702 191.73 315.315 191.73 315.315L191.005 315.626L190.901 315.73L190.176 316.041C190.176 316.041 192.558 321.53 192.455 323.705C192.351 325.259 190.072 326.709 189.762 326.813L190.383 328.263L195.562 325.984L195.666 325.88L200.845 323.602L200.016 322.152Z" fill="#C71C1C"/>
<g opacity="0.15">
<path d="M579.835 563.378L341.498 669.344C329.275 674.731 315.085 669.241 309.699 657.226L134.763 264.148C129.274 252.03 134.867 237.736 146.883 232.349L385.22 126.383C397.442 120.996 411.633 126.486 416.915 138.604L592.162 531.579C597.444 543.697 592.057 557.991 579.835 563.378ZM148.229 234.939C137.457 239.704 132.588 252.444 137.456 263.112L312.289 656.087C317.053 666.859 329.69 671.623 340.462 666.858L578.799 560.892C589.572 556.127 594.44 543.387 589.572 532.718L414.74 139.744C409.975 128.972 397.235 124.104 386.566 128.972L148.229 234.939Z" fill="url(#paint4_linear_1_53)"/>
</g>
<path d="M577.245 561.617L340.358 666.962C328.446 672.245 314.567 666.859 309.285 654.948L135.281 263.838C129.999 251.926 135.385 238.046 147.193 232.66L384.08 127.315C395.992 122.032 409.871 127.418 415.154 139.33L589.158 530.44C594.44 542.351 589.157 556.334 577.245 561.617ZM147.918 234.628C137.042 239.496 132.07 252.34 136.938 263.216L311.046 654.222C315.914 665.098 328.757 670.07 339.633 665.201L576.52 559.856C587.396 554.988 592.368 542.144 587.5 531.268L413.496 140.158C408.628 129.283 395.785 124.311 384.909 129.18L147.918 234.628Z" fill="white"/>
<path d="M355.172 583.166L354.551 581.923L218.869 276.99L365.953 211.525L366.678 212.871L502.359 517.805L501.116 518.426L355.172 583.166ZM222.598 278.44L356.622 579.644L498.734 516.458L364.71 215.254L222.598 278.44Z" fill="white"/>
<path d="M603.657 625.317L350.095 674.626C333.937 677.734 322.129 667.998 319.436 653.911L238.032 234.211C235.34 220.125 244.04 206.452 258.749 203.552L512.311 154.243C526.708 151.446 540.07 159.835 542.659 172.99L624.477 594.554C626.963 607.812 620.333 622.106 603.657 625.317ZM257.402 206.763C245.801 209.042 238.136 220.228 240.415 231.829L322.543 655.361C324.822 666.962 336.112 674.523 347.713 672.244L605.004 622.313C616.605 620.035 624.27 608.848 621.991 597.247L539.759 173.818C537.48 162.218 526.19 154.657 514.589 156.936L257.402 206.763Z" fill="#D5DBDA"/>
<path d="M603.553 621.485L348.748 671.002C336.422 673.384 324.614 665.305 322.232 653.187L240.725 232.969C238.343 220.643 246.422 208.835 258.541 206.453L513.346 156.936C525.672 154.554 537.48 162.633 539.862 174.751L621.369 594.969C623.751 607.295 615.879 619.103 603.553 621.485Z" fill="#B8BCBB"/>
<path d="M606.766 620.966L346.782 671.311C335.699 673.487 324.823 666.133 322.648 655.05L240.726 232.761C238.344 220.435 246.424 208.627 258.542 206.244L513.347 156.728C525.673 154.345 537.481 162.424 539.863 174.543L622.096 597.971C624.167 608.744 617.331 618.895 606.766 620.966Z" fill="url(#paint5_linear_1_53)"/>
<path d="M416.393 354.981C414.735 353.738 412.042 354.359 411.007 356.017C402.616 368.757 377.343 394.86 381.382 415.679C384.696 432.666 401.476 435.98 412.869 428.729C418.359 425.311 421.467 421.789 423.124 419.096C423.745 423.861 424.159 430.075 423.227 433.079C421.984 437.015 415.562 439.087 414.734 439.294L414.63 439.398L415.459 443.334L429.856 440.537L430.374 440.433L444.771 437.636L444.047 433.597L443.943 433.7C443.114 433.907 436.278 434.322 433.689 431.111C431.617 428.625 429.856 422.721 428.51 418.06C431.099 420.235 435.657 422.721 443.114 423.757C455.647 425.517 469.424 415.055 466.42 399.001C462.174 378.596 427.579 362.853 416.393 354.981Z" fill="#161719"/>
<path d="M265.272 253.374L264.444 266.425L260.3 267.254L263.305 225.718L268.173 224.786L286.506 262.178L282.156 263.006L276.459 251.302L265.272 253.374ZM274.698 247.47L269.52 236.698C268.277 234.212 267.345 232.037 266.516 229.758L266.412 229.861C266.412 232.347 266.412 234.833 266.205 237.319L265.376 249.334L274.698 247.47Z" fill="#C71C1C"/>
<path d="M298.418 291.075C296.864 283.099 283.399 276.056 279.36 274.088C278.635 273.778 277.806 273.985 277.288 274.503C274.181 277.817 264.444 289.418 265.894 297.497C267.24 304.023 273.662 305.266 278.012 302.573C282.052 299.983 282.674 297.29 282.674 297.29C282.674 297.29 284.227 299.879 289.406 300.708C294.274 301.226 299.557 297.186 298.418 291.075Z" fill="#C71C1C"/>
<path d="M289.718 304.333C289.407 304.436 286.818 304.54 285.782 303.297C284.332 301.64 283.192 295.736 283.192 295.736L282.364 295.943L282.157 295.943L281.328 296.15C281.328 296.15 282.364 301.951 281.742 304.022C281.224 305.576 278.738 306.405 278.531 306.405L278.842 307.958L284.435 306.922L284.642 306.922L290.132 305.783L289.718 304.333Z" fill="#C71C1C"/>
<g opacity="0.15">
<path d="M605.728 624.903L349.68 674.627C336.629 677.113 323.992 668.62 321.507 655.569L239.585 233.28C237.1 220.229 245.593 207.592 258.644 205.106L514.692 155.382C527.743 152.896 540.38 161.389 542.865 174.44L624.787 596.73C627.273 609.78 618.779 622.417 605.728 624.903ZM258.955 207.695C247.354 209.974 239.896 221.161 242.071 232.658L324.096 655.051C326.375 666.652 337.561 674.109 349.058 671.934L605.106 622.21C616.707 619.931 624.269 608.641 621.99 597.247L540.069 174.958C537.79 163.358 526.604 155.9 515.107 158.075L258.955 207.695Z" fill="url(#paint6_linear_1_53)"/>
</g>
<path d="M603.554 622.521L349.06 671.933C336.319 674.316 323.89 666.03 321.508 653.29L240.001 233.072C237.515 220.228 245.905 207.902 258.542 205.416L513.036 156.003C525.776 153.621 538.206 161.907 540.588 174.647L622.095 594.865C624.581 607.708 616.191 620.034 603.554 622.521ZM258.749 207.281C247.044 209.456 239.379 220.85 241.658 232.658L323.269 652.979C325.444 664.683 336.941 672.451 348.645 670.069L603.14 620.656C614.844 618.481 622.509 607.087 620.231 595.279L538.723 175.061C536.548 163.357 525.155 155.692 513.347 157.971L258.749 207.281Z" fill="white"/>
<defs>
<linearGradient id="paint0_linear_1_53" x1="74.0275" y1="330.63" x2="435.311" y2="357.204" gradientUnits="userSpaceOnUse">
<stop offset="0.0824" stop-color="#DFDCFF"/>
<stop offset="1" stop-color="#F7F7F7"/>
</linearGradient>
<linearGradient id="paint1_linear_1_53" x1="207.889" y1="620.3" x2="460.257" y2="241.837" gradientUnits="userSpaceOnUse">
<stop stop-color="white"/>
<stop offset="1"/>
</linearGradient>
<linearGradient id="paint2_linear_1_53" x1="89.8147" y1="312.974" x2="329.741" y2="381.008" gradientUnits="userSpaceOnUse">
<stop offset="0.0824" stop-color="#E1DEFF"/>
<stop offset="1" stop-color="#877BFF"/>
</linearGradient>
<linearGradient id="paint3_linear_1_53" x1="68.6668" y1="283.695" x2="611.18" y2="494.121" gradientUnits="userSpaceOnUse">
<stop stop-color="white"/>
<stop offset="1"/>
</linearGradient>
<linearGradient id="paint4_linear_1_53" x1="225.184" y1="605.316" x2="501.817" y2="190.464" gradientUnits="userSpaceOnUse">
<stop stop-color="white"/>
<stop offset="1"/>
</linearGradient>
<linearGradient id="paint5_linear_1_53" x1="278.864" y1="311.021" x2="606.96" y2="533.975" gradientUnits="userSpaceOnUse">
<stop stop-color="white"/>
<stop offset="0.1144" stop-color="#E9E9E9"/>
<stop offset="0.3525" stop-color="#B1B1B1"/>
<stop offset="0.6905" stop-color="#575757"/>
<stop offset="1"/>
</linearGradient>
<linearGradient id="paint6_linear_1_53" x1="282.975" y1="638.548" x2="581.165" y2="191.37" gradientUnits="userSpaceOnUse">
<stop stop-color="white"/>
<stop offset="1"/>
</linearGradient>
</defs>
</svg>
