<svg width="20" height="20" viewBox="0 0 20 20" fill="none" xmlns="http://www.w3.org/2000/svg">
<path d="M0.273844 18.2841L16.5173 2.04065L1.29416 2.04065C1.02355 2.04065 0.764031 1.93315 0.572686 1.74181C0.381338 1.55046 0.27384 1.29093 0.27384 1.02032C0.27384 0.749719 0.381338 0.49019 0.572685 0.298843C0.764031 0.107496 1.02355 -2.15572e-06 1.29416 -2.17938e-06L18.9797 -3.7255e-06C19.2503 -3.74916e-06 19.5098 0.107494 19.7012 0.298842C19.8925 0.490189 20 0.749718 20 1.02032L20 18.7059C20 18.9765 19.8925 19.236 19.7012 19.4274C19.5098 19.6187 19.2503 19.7262 18.9797 19.7262C18.7091 19.7262 18.4496 19.6187 18.2582 19.4274C18.0669 19.236 17.9594 18.9765 17.9594 18.7059L17.9594 3.4827L1.7159 19.7262C1.52248 19.9064 1.26665 20.0045 1.00232 19.9998C0.737989 19.9952 0.485788 19.8881 0.298847 19.7012C0.111908 19.5142 0.00482553 19.262 0.000162037 18.9977C-0.00450145 18.7333 0.0936144 18.4775 0.273844 18.2841Z" fill="white"/>
</svg>
