<svg width="300" height="450" viewBox="0 0 300 450" fill="none" xmlns="http://www.w3.org/2000/svg">
<path d="M300 150C300 232.843 232.843 300 150 300L150 150L300 150Z" fill="#5E3695"/>
<rect x="300" y="450" width="150" height="150" transform="rotate(180 300 450)" fill="#A19FB7"/>
<path d="M225.46 375C225.46 395.584 208.774 412.27 188.19 412.27L150 412.27L150 337.73L188.19 337.73C208.774 337.73 225.46 354.416 225.46 375Z" fill="#D9D9D9"/>
<rect x="300" y="150" width="150" height="150" transform="rotate(180 300 150)" fill="#A19FB7"/>
<path d="M150 1.96701e-05C232.843 8.80661e-06 300 67.1573 300 150C217.157 150 150 82.8427 150 1.96701e-05Z" fill="#151412"/>
<path d="M150 300C150 382.843 82.8427 450 1.52588e-05 450C8.01645e-06 367.157 67.1573 300 150 300Z" fill="#5E3695"/>
<rect x="150" y="300" width="150" height="150" transform="rotate(180 150 300)" fill="#A19FB7"/>
<circle cx="75" cy="225" r="39.1104" transform="rotate(180 75 225)" fill="#151412"/>
</svg>
