<svg width="300" height="450" viewBox="0 0 300 450" fill="none" xmlns="http://www.w3.org/2000/svg">
<path d="M150 300C67.1573 300 5.87108e-06 232.843 1.31134e-05 150L150 150L150 300Z" fill="#5E3695"/>
<rect width="150" height="150" fill="#A19FB7"/>
<path d="M74.5399 75C74.5399 54.4164 91.2262 37.73 111.81 37.73H150V112.27H111.81C91.2262 112.27 74.5399 95.5836 74.5399 75Z" fill="#D9D9D9"/>
<rect x="150" y="150" width="150" height="150" fill="#A19FB7"/>
<path d="M300 300C217.157 300 150 232.843 150 150C232.843 150 300 217.157 300 300Z" fill="#151412"/>
<path d="M150 150C150 67.1573 217.157 0 300 0C300 82.8427 232.843 150 150 150Z" fill="#5E3695"/>
<rect y="300" width="150" height="150" fill="#A19FB7"/>
<circle cx="75" cy="375" r="39.1104" fill="#151412"/>
</svg>
