<svg width="300" height="604" viewBox="0 0 300 604" fill="none" xmlns="http://www.w3.org/2000/svg">
<path d="M150 301.852C232.843 301.852 300 369.935 300 452.778H150V301.852Z" fill="#5E3695"/>
<rect y="150.926" width="150" height="150.926" fill="#D9D9D9"/>
<path d="M150 301.852C67.1573 301.852 5.91551e-06 233.769 1.31134e-05 150.926L150 150.926L150 301.852Z" fill="#5E3695"/>
<rect x="150" y="150.926" width="150" height="150.926" fill="#A19FB7"/>
<path d="M224.54 226.389C224.54 205.678 241.329 188.889 262.04 188.889H300V263.889H262.04C241.329 263.889 224.54 247.1 224.54 226.389Z" fill="#D9D9D9"/>
<rect x="150" y="301.852" width="150.926" height="150" transform="rotate(90 150 301.852)" fill="#A19FB7"/>
<path d="M75.0001 376.852C95.5837 376.852 112.27 393.538 112.27 414.122L112.27 452.778L37.7301 452.778L37.7301 414.122C37.7301 393.538 54.4165 376.852 75.0001 376.852Z" fill="#D9D9D9"/>
<rect width="150" height="150.926" fill="#A19FB7"/>
<path d="M150 150.926C67.1573 150.926 -2.95366e-06 83.3541 -6.59718e-06 -1.52588e-05C82.8427 -1.888e-05 150 67.5718 150 150.926Z" fill="#151412"/>
<path d="M150 150.926C150 67.5718 217.157 0 300 0C300 83.3541 232.843 150.926 150 150.926Z" fill="#5E3695"/>
<rect x="150" y="452.778" width="150" height="150.926" fill="#A19FB7"/>
<ellipse cx="225" cy="528.241" rx="39.1104" ry="39.3519" fill="#151412"/>
</svg>
