<svg width="1440" height="3404" viewBox="0 0 1440 3404" fill="none" xmlns="http://www.w3.org/2000/svg">
<line x1="-1326.34" y1="466.263" x2="1492.74" y2="-559.797" stroke="#F2DB39" stroke-width="2"/>
<line x1="-1305.82" y1="522.645" x2="1513.26" y2="-503.415" stroke="#F2DB39" stroke-width="2"/>
<line x1="-1285.3" y1="579.026" x2="1533.78" y2="-447.034" stroke="#F2DB39" stroke-width="2"/>
<line x1="-1264.78" y1="635.408" x2="1554.3" y2="-390.652" stroke="#F2DB39" stroke-width="2"/>
<line x1="-1244.26" y1="691.79" x2="1574.82" y2="-334.271" stroke="#F2DB39" stroke-width="2"/>
<line x1="-1223.74" y1="748.172" x2="1595.34" y2="-277.889" stroke="#F2DB39" stroke-width="2"/>
<line x1="-1203.22" y1="804.552" x2="1615.86" y2="-221.508" stroke="#F2DB39" stroke-width="2"/>
<line x1="-1182.69" y1="860.934" x2="1636.38" y2="-165.126" stroke="#F2DB39" stroke-width="2"/>
<line x1="-1162.17" y1="917.316" x2="1656.91" y2="-108.744" stroke="#F2DB39" stroke-width="2"/>
<line x1="-1141.65" y1="973.697" x2="1677.43" y2="-52.3634" stroke="#F2DB39" stroke-width="2"/>
<line x1="-1121.13" y1="1030.08" x2="1697.95" y2="4.0184" stroke="#F2DB39" stroke-width="2"/>
<line x1="-1100.61" y1="1086.46" x2="1718.47" y2="60.4002" stroke="#F2DB39" stroke-width="2"/>
<line x1="-1080.09" y1="1142.84" x2="1738.99" y2="116.782" stroke="#F2DB39" stroke-width="2"/>
<line x1="-1059.57" y1="1199.22" x2="1759.51" y2="173.163" stroke="#F2DB39" stroke-width="2"/>
<line x1="-1039.05" y1="1255.61" x2="1780.03" y2="229.545" stroke="#F2DB39" stroke-width="2"/>
<line x1="-1018.52" y1="1311.99" x2="1800.55" y2="285.927" stroke="#F2DB39" stroke-width="2"/>
<line x1="-998.003" y1="1368.37" x2="1821.07" y2="342.307" stroke="#F2DB39" stroke-width="2"/>
<line x1="-977.482" y1="1424.75" x2="1841.6" y2="398.689" stroke="#F2DB39" stroke-width="2"/>
<line x1="-956.96" y1="1481.13" x2="1862.12" y2="455.071" stroke="#F2DB39" stroke-width="2"/>
<line x1="-936.439" y1="1537.51" x2="1882.64" y2="511.453" stroke="#F2DB39" stroke-width="2"/>
<line x1="-915.918" y1="1593.89" x2="1903.16" y2="567.834" stroke="#F2DB39" stroke-width="2"/>
<line x1="-895.397" y1="1650.28" x2="1923.68" y2="624.216" stroke="#F2DB39" stroke-width="2"/>
<line x1="-874.875" y1="1706.66" x2="1944.2" y2="680.597" stroke="#F2DB39" stroke-width="2"/>
<line x1="-854.354" y1="1763.04" x2="1964.72" y2="736.978" stroke="#F2DB39" stroke-width="2"/>
<line x1="-833.833" y1="1819.42" x2="1985.24" y2="793.36" stroke="#F2DB39" stroke-width="2"/>
<line x1="-813.312" y1="1875.8" x2="2005.77" y2="849.742" stroke="#F2DB39" stroke-width="2"/>
<line x1="-792.79" y1="1932.18" x2="2026.29" y2="906.124" stroke="#F2DB39" stroke-width="2"/>
<line x1="-772.27" y1="1988.57" x2="2046.81" y2="962.505" stroke="#F2DB39" stroke-width="2"/>
<line x1="-751.748" y1="2044.95" x2="2067.33" y2="1018.89" stroke="#F2DB39" stroke-width="2"/>
<line x1="-731.227" y1="2101.33" x2="2087.85" y2="1075.27" stroke="#F2DB39" stroke-width="2"/>
<line x1="-710.705" y1="2157.71" x2="2108.37" y2="1131.65" stroke="#F2DB39" stroke-width="2"/>
<line x1="-690.185" y1="2214.09" x2="2128.89" y2="1188.03" stroke="#F2DB39" stroke-width="2"/>
<line x1="-669.663" y1="2270.47" x2="2149.41" y2="1244.41" stroke="#F2DB39" stroke-width="2"/>
<line x1="-649.142" y1="2326.86" x2="2169.94" y2="1300.79" stroke="#F2DB39" stroke-width="2"/>
<line x1="-628.621" y1="2383.24" x2="2190.46" y2="1357.18" stroke="#F2DB39" stroke-width="2"/>
<line x1="-608.1" y1="2439.62" x2="2210.98" y2="1413.56" stroke="#F2DB39" stroke-width="2"/>
<line x1="-587.578" y1="2496" x2="2231.5" y2="1469.94" stroke="#F2DB39" stroke-width="2"/>
<line x1="-567.057" y1="2552.38" x2="2252.02" y2="1526.32" stroke="#F2DB39" stroke-width="2"/>
<line x1="-546.536" y1="2608.76" x2="2272.54" y2="1582.7" stroke="#F2DB39" stroke-width="2"/>
<line x1="-526.015" y1="2665.14" x2="2293.06" y2="1639.08" stroke="#F2DB39" stroke-width="2"/>
<line x1="-505.493" y1="2721.53" x2="2313.58" y2="1695.47" stroke="#F2DB39" stroke-width="2"/>
<line x1="-484.973" y1="2777.91" x2="2334.1" y2="1751.85" stroke="#F2DB39" stroke-width="2"/>
<line x1="-464.451" y1="2834.29" x2="2354.63" y2="1808.23" stroke="#F2DB39" stroke-width="2"/>
<line x1="-443.93" y1="2890.67" x2="2375.15" y2="1864.61" stroke="#F2DB39" stroke-width="2"/>
<line x1="-423.408" y1="2947.05" x2="2395.67" y2="1920.99" stroke="#F2DB39" stroke-width="2"/>
<line x1="-402.888" y1="3003.43" x2="2416.19" y2="1977.37" stroke="#F2DB39" stroke-width="2"/>
<line x1="-382.366" y1="3059.82" x2="2436.71" y2="2033.75" stroke="#F2DB39" stroke-width="2"/>
<line x1="-361.845" y1="3116.2" x2="2457.23" y2="2090.14" stroke="#F2DB39" stroke-width="2"/>
<line x1="-341.324" y1="3172.58" x2="2477.75" y2="2146.52" stroke="#F2DB39" stroke-width="2"/>
<line x1="-320.803" y1="3228.96" x2="2498.27" y2="2202.9" stroke="#F2DB39" stroke-width="2"/>
<line x1="-300.281" y1="3285.34" x2="2518.8" y2="2259.28" stroke="#F2DB39" stroke-width="2"/>
<line x1="-279.76" y1="3341.72" x2="2539.32" y2="2315.66" stroke="#F2DB39" stroke-width="2"/>
<line x1="-259.239" y1="3398.1" x2="2559.84" y2="2372.04" stroke="#F2DB39" stroke-width="2"/>
<line x1="-238.718" y1="3454.49" x2="2580.36" y2="2428.43" stroke="#F2DB39" stroke-width="2"/>
<line x1="-218.197" y1="3510.87" x2="2600.88" y2="2484.81" stroke="#F2DB39" stroke-width="2"/>
<line x1="-197.675" y1="3567.25" x2="2621.4" y2="2541.19" stroke="#F2DB39" stroke-width="2"/>
<line x1="-177.155" y1="3623.63" x2="2641.92" y2="2597.57" stroke="#F2DB39" stroke-width="2"/>
<line x1="-156.633" y1="3680.01" x2="2662.44" y2="2653.95" stroke="#F2DB39" stroke-width="2"/>
<line x1="-136.112" y1="3736.39" x2="2682.97" y2="2710.33" stroke="#F2DB39" stroke-width="2"/>
<line x1="-115.591" y1="3792.78" x2="2703.49" y2="2766.71" stroke="#F2DB39" stroke-width="2"/>
<line x1="-95.0696" y1="3849.16" x2="2724.01" y2="2823.1" stroke="#F2DB39" stroke-width="2"/>
<line x1="-74.5481" y1="3905.54" x2="2744.53" y2="2879.48" stroke="#F2DB39" stroke-width="2"/>
<line x1="-54.0266" y1="3961.92" x2="2765.05" y2="2935.86" stroke="#F2DB39" stroke-width="2"/>
<line x1="1.75757" y1="3942.68" x2="-1270.56" y2="447.023" stroke="#F2DB39" stroke-width="2"/>
<line x1="58.1384" y1="3922.16" x2="-1214.18" y2="426.503" stroke="#F2DB39" stroke-width="2"/>
<line x1="114.52" y1="3901.64" x2="-1157.79" y2="405.981" stroke="#F2DB39" stroke-width="2"/>
<line x1="170.902" y1="3881.12" x2="-1101.41" y2="385.46" stroke="#F2DB39" stroke-width="2"/>
<line x1="227.284" y1="3860.59" x2="-1045.03" y2="364.938" stroke="#F2DB39" stroke-width="2"/>
<line x1="283.666" y1="3840.07" x2="-988.649" y2="344.418" stroke="#F2DB39" stroke-width="2"/>
<line x1="340.048" y1="3819.55" x2="-932.267" y2="323.896" stroke="#F2DB39" stroke-width="2"/>
<line x1="396.429" y1="3799.03" x2="-875.886" y2="303.375" stroke="#F2DB39" stroke-width="2"/>
<line x1="452.81" y1="3778.51" x2="-819.505" y2="282.853" stroke="#F2DB39" stroke-width="2"/>
<line x1="509.192" y1="3757.99" x2="-763.123" y2="262.333" stroke="#F2DB39" stroke-width="2"/>
<line x1="565.574" y1="3737.47" x2="-706.741" y2="241.811" stroke="#F2DB39" stroke-width="2"/>
<line x1="621.956" y1="3716.95" x2="-650.359" y2="221.29" stroke="#F2DB39" stroke-width="2"/>
<line x1="678.338" y1="3696.43" x2="-593.977" y2="200.768" stroke="#F2DB39" stroke-width="2"/>
<line x1="734.719" y1="3675.9" x2="-537.596" y2="180.247" stroke="#F2DB39" stroke-width="2"/>
<line x1="791.1" y1="3655.38" x2="-481.215" y2="159.727" stroke="#F2DB39" stroke-width="2"/>
<line x1="847.482" y1="3634.86" x2="-424.833" y2="139.205" stroke="#F2DB39" stroke-width="2"/>
<line x1="903.864" y1="3614.34" x2="-368.451" y2="118.684" stroke="#F2DB39" stroke-width="2"/>
<line x1="960.246" y1="3593.82" x2="-312.069" y2="98.162" stroke="#F2DB39" stroke-width="2"/>
<line x1="1016.63" y1="3573.3" x2="-255.687" y2="77.6415" stroke="#F2DB39" stroke-width="2"/>
<line x1="1073.01" y1="3552.78" x2="-199.306" y2="57.1201" stroke="#F2DB39" stroke-width="2"/>
<line x1="1129.39" y1="3532.26" x2="-142.925" y2="36.5986" stroke="#F2DB39" stroke-width="2"/>
<line x1="1185.77" y1="3511.73" x2="-86.5429" y2="16.0771" stroke="#F2DB39" stroke-width="2"/>
<line x1="1242.15" y1="3491.21" x2="-30.161" y2="-4.44342" stroke="#F2DB39" stroke-width="2"/>
<line x1="1298.54" y1="3470.69" x2="26.2208" y2="-24.9649" stroke="#F2DB39" stroke-width="2"/>
<line x1="1354.92" y1="3450.17" x2="82.6026" y2="-45.4864" stroke="#F2DB39" stroke-width="2"/>
<line x1="1411.3" y1="3429.65" x2="138.984" y2="-66.0079" stroke="#F2DB39" stroke-width="2"/>
<line x1="1467.68" y1="3409.13" x2="195.365" y2="-86.5284" stroke="#F2DB39" stroke-width="2"/>
<line x1="1524.06" y1="3388.61" x2="251.747" y2="-107.05" stroke="#F2DB39" stroke-width="2"/>
<line x1="1580.44" y1="3368.09" x2="308.129" y2="-127.571" stroke="#F2DB39" stroke-width="2"/>
<line x1="1636.83" y1="3347.56" x2="364.511" y2="-148.093" stroke="#F2DB39" stroke-width="2"/>
<line x1="1693.21" y1="3327.04" x2="420.893" y2="-168.613" stroke="#F2DB39" stroke-width="2"/>
<line x1="1749.59" y1="3306.52" x2="477.275" y2="-189.135" stroke="#F2DB39" stroke-width="2"/>
<line x1="1805.97" y1="3286" x2="533.655" y2="-209.656" stroke="#F2DB39" stroke-width="2"/>
<line x1="1862.35" y1="3265.48" x2="590.037" y2="-230.178" stroke="#F2DB39" stroke-width="2"/>
<line x1="1918.73" y1="3244.96" x2="646.419" y2="-250.699" stroke="#F2DB39" stroke-width="2"/>
<line x1="1975.12" y1="3224.44" x2="702.801" y2="-271.22" stroke="#F2DB39" stroke-width="2"/>
<line x1="2031.5" y1="3203.92" x2="759.183" y2="-291.741" stroke="#F2DB39" stroke-width="2"/>
<line x1="2087.88" y1="3183.39" x2="815.565" y2="-312.263" stroke="#F2DB39" stroke-width="2"/>
<line x1="2144.26" y1="3162.87" x2="871.946" y2="-332.784" stroke="#F2DB39" stroke-width="2"/>
<line x1="2200.64" y1="3142.35" x2="928.328" y2="-353.306" stroke="#F2DB39" stroke-width="2"/>
<line x1="2257.03" y1="3121.83" x2="984.71" y2="-373.826" stroke="#F2DB39" stroke-width="2"/>
<line x1="2313.41" y1="3101.31" x2="1041.09" y2="-394.348" stroke="#F2DB39" stroke-width="2"/>
<line x1="2369.79" y1="3080.79" x2="1097.47" y2="-414.869" stroke="#F2DB39" stroke-width="2"/>
<line x1="2426.17" y1="3060.27" x2="1153.86" y2="-435.391" stroke="#F2DB39" stroke-width="2"/>
<line x1="2482.55" y1="3039.74" x2="1210.24" y2="-455.912" stroke="#F2DB39" stroke-width="2"/>
<line x1="2538.93" y1="3019.22" x2="1266.62" y2="-476.433" stroke="#F2DB39" stroke-width="2"/>
<line x1="2595.32" y1="2998.7" x2="1323" y2="-496.954" stroke="#F2DB39" stroke-width="2"/>
<line x1="2651.7" y1="2978.18" x2="1379.38" y2="-517.476" stroke="#F2DB39" stroke-width="2"/>
<line x1="2708.08" y1="2957.66" x2="1435.76" y2="-537.997" stroke="#F2DB39" stroke-width="2"/>
</svg>
