<svg width="14" height="14" viewBox="0 0 14 14" fill="none" xmlns="http://www.w3.org/2000/svg">
<g id="material-symbols:lock-outline">
<path id="Vector" d="M3.50065 12.833C3.17982 12.833 2.90507 12.7187 2.6764 12.49C2.44774 12.2613 2.3336 11.9868 2.33399 11.6663V5.83301C2.33399 5.51218 2.44832 5.23742 2.67699 5.00876C2.90565 4.78009 3.18021 4.66595 3.50065 4.66634H4.08399V3.49967C4.08399 2.69273 4.36846 2.00479 4.9374 1.43584C5.50635 0.866897 6.1941 0.582619 7.00065 0.583008C7.8076 0.583008 8.49554 0.86748 9.06449 1.43642C9.63343 2.00537 9.91771 2.69312 9.91732 3.49967V4.66634H10.5007C10.8215 4.66634 11.0962 4.78067 11.3249 5.00934C11.5536 5.23801 11.6677 5.51256 11.6673 5.83301V11.6663C11.6673 11.9872 11.553 12.2619 11.3243 12.4906C11.0957 12.7193 10.8211 12.8334 10.5007 12.833H3.50065ZM3.50065 11.6663H10.5007V5.83301H3.50065V11.6663ZM7.00065 9.91634C7.32149 9.91634 7.59624 9.80201 7.8249 9.57334C8.05357 9.34468 8.16771 9.07012 8.16732 8.74967C8.16732 8.42884 8.05299 8.15409 7.82432 7.92542C7.59565 7.69676 7.3211 7.58262 7.00065 7.58301C6.67982 7.58301 6.40507 7.69734 6.1764 7.92601C5.94774 8.15468 5.8336 8.42923 5.83399 8.74967C5.83399 9.07051 5.94832 9.34526 6.17699 9.57393C6.40565 9.80259 6.68021 9.91673 7.00065 9.91634ZM5.25065 4.66634H8.75065V3.49967C8.75065 3.01356 8.58051 2.60037 8.24024 2.26009C7.89996 1.91981 7.48676 1.74967 7.00065 1.74967C6.51454 1.74967 6.10135 1.91981 5.76107 2.26009C5.42079 2.60037 5.25065 3.01356 5.25065 3.49967V4.66634Z" fill="#A4B6DA"/>
</g>
</svg>
