<svg width="30" height="24" viewBox="0 0 30 24" fill="none" xmlns="http://www.w3.org/2000/svg">
<g id="mdi:fire">
<path id="Vector" d="M20.6723 11.2C20.4423 10.9 20.1623 10.64 19.9023 10.38C19.2323 9.78 18.4723 9.35 17.8323 8.72C16.3423 7.26 16.0123 4.85 16.9623 3C16.0123 3.23 15.1823 3.75 14.4723 4.32C11.8823 6.4 10.8623 10.07 12.0823 13.22C12.1223 13.32 12.1623 13.42 12.1623 13.55C12.1623 13.77 12.0123 13.97 11.8123 14.05C11.5823 14.15 11.3423 14.09 11.1523 13.93C11.0952 13.8828 11.0476 13.8251 11.0123 13.76C9.88226 12.33 9.70226 10.28 10.4623 8.64C8.79226 10 7.88226 12.3 8.01226 14.47C8.07226 14.97 8.13226 15.47 8.30226 15.97C8.44226 16.57 8.71226 17.17 9.01226 17.7C10.0923 19.43 11.9623 20.67 13.9723 20.92C16.1123 21.19 18.4023 20.8 20.0423 19.32C21.8723 17.66 22.5123 15 21.5723 12.72L21.4423 12.46C21.2323 12 20.6723 11.2 20.6723 11.2ZM17.5123 17.5C17.2323 17.74 16.7723 18 16.4123 18.1C15.2923 18.5 14.1723 17.94 13.5123 17.28C14.7023 17 15.4123 16.12 15.6223 15.23C15.7923 14.43 15.4723 13.77 15.3423 13C15.2223 12.26 15.2423 11.63 15.5123 10.94C15.7023 11.32 15.9023 11.7 16.1423 12C16.9123 13 18.1223 13.44 18.3823 14.8C18.4223 14.94 18.4423 15.08 18.4423 15.23C18.4723 16.05 18.1123 16.95 17.5123 17.5Z" fill="#E7E7E7"/>
</g>
</svg>
