<svg width="24" height="24" viewBox="0 0 24 24" fill="none" xmlns="http://www.w3.org/2000/svg">
<g id="mdi:people-add-outline">
<path id="Vector" d="M13 11C13.5933 11 14.1734 10.8241 14.6667 10.4944C15.1601 10.1648 15.5446 9.69623 15.7716 9.14805C15.9987 8.59987 16.0581 7.99667 15.9424 7.41473C15.8266 6.83279 15.5409 6.29824 15.1213 5.87868C14.7018 5.45912 14.1672 5.1734 13.5853 5.05765C13.0033 4.94189 12.4001 5.0013 11.8519 5.22836C11.3038 5.45543 10.8352 5.83994 10.5056 6.33329C10.1759 6.82664 10 7.40666 10 8C10 8.79565 10.3161 9.55871 10.8787 10.1213C11.4413 10.6839 12.2044 11 13 11ZM13 7C13.1978 7 13.3911 7.05865 13.5556 7.16853C13.72 7.27841 13.8482 7.43459 13.9239 7.61732C13.9996 7.80004 14.0194 8.00111 13.9808 8.19509C13.9422 8.38907 13.847 8.56726 13.7071 8.70711C13.5673 8.84696 13.3891 8.9422 13.1951 8.98079C13.0011 9.01937 12.8 8.99957 12.6173 8.92388C12.4346 8.84819 12.2784 8.72002 12.1685 8.55557C12.0586 8.39112 12 8.19778 12 8C12 7.73478 12.1054 7.48043 12.2929 7.29289C12.4804 7.10536 12.7348 7 13 7ZM13 13C7 13 7 17 7 17V19H19V17C19 17 19 13 13 13ZM9 17C9 16.71 9.32 15 13 15C16.5 15 16.94 16.56 17 17M8 12H5V15H3V12H0V10H3V7H5V10H8V12Z" fill="white"/>
</g>
</svg>
