<svg width="1440" height="926" viewBox="0 0 1440 926" fill="none" xmlns="http://www.w3.org/2000/svg">
<mask id="mask0_2_2122" style="mask-type:alpha" maskUnits="userSpaceOnUse" x="0" y="0" width="1440" height="926">
<rect width="1440" height="926" fill="#D9D9D9"/>
</mask>
<g mask="url(#mask0_2_2122)">
<path d="M791.255 433.861L826.808 286.054L963.173 353.577L927.62 501.383L791.255 433.861Z" fill="url(#paint0_radial_2_2122)"/>
<path d="M826.808 286.054L963.173 353.577L927.62 501.383L791.255 433.861L826.808 286.054ZM825.542 283.375C824.733 283.755 824.125 284.487 823.923 285.372L788.37 433.178C788.041 434.518 788.699 435.908 789.939 436.514L926.304 504.037C927.114 504.441 928.05 504.441 928.86 504.062C929.67 503.683 930.277 502.95 930.479 502.065L966.032 354.259C966.361 352.92 965.703 351.53 964.463 350.923L828.098 283.401C827.314 282.996 826.352 282.996 825.542 283.375Z" fill="url(#paint1_linear_2_2122)"/>
<path d="M438.614 116.54L556.558 51.5698L593.73 180.878L475.786 245.849L438.614 116.54Z" fill="url(#paint2_radial_2_2122)"/>
<path d="M556.558 51.57L593.73 180.879L475.786 245.849L438.614 116.54L556.558 51.57ZM557.57 49.144C556.836 48.8408 556.001 48.8913 555.293 49.2704L437.349 114.266C436.286 114.847 435.755 116.111 436.109 117.273L473.281 246.582C473.509 247.34 474.066 247.971 474.8 248.275C475.533 248.578 476.368 248.527 477.077 248.148L595.02 183.153C596.083 182.572 596.615 181.308 596.26 180.146L559.088 50.8371C558.861 50.079 558.304 49.4472 557.57 49.144Z" fill="url(#paint3_linear_2_2122)"/>
<path d="M822.404 172.464C801.655 156.948 785.055 162.431 784.802 160.511C784.524 158.59 814.206 162.608 836.372 133.067C855.781 107.216 850.518 70.5482 824.606 51.1658C798.72 31.7835 762.003 37.0397 742.595 62.9166C720.631 92.1797 732.422 119.775 730.373 120.078C728.323 120.381 728.677 102.338 708.662 87.353C682.775 67.9706 646.059 73.2269 626.65 99.1038C626.6 99.1543 626.574 99.2301 626.524 99.3059C626.499 99.3565 626.423 99.407 626.372 99.4828C624.044 102.566 622.146 105.826 620.552 109.212C608.887 133.825 615.744 164.049 638.392 181.005C686.242 216.788 719.011 162.153 727.488 174.283C710.99 192.68 667.719 239.051 648.286 242.513L690.265 273.924C688.115 254.289 720.605 199.73 733.612 178.781C748.01 183.33 703.803 229.954 752.134 266.116C774.807 283.072 805.805 281.152 826.175 263.058C828.958 260.607 831.539 257.827 833.867 254.744C833.918 254.694 833.969 254.618 833.994 254.567C834.044 254.491 834.095 254.441 834.146 254.39C853.554 228.488 848.291 191.821 822.404 172.464Z" fill="url(#paint4_radial_2_2122)"/>
<path d="M824.606 51.191C850.492 70.5734 855.756 107.215 836.373 133.092C814.206 162.633 784.524 158.615 784.803 160.536C784.803 160.612 784.853 160.688 784.929 160.763C786.599 162.002 802.617 157.68 822.405 172.489C848.291 191.871 853.554 228.513 834.171 254.39C834.121 254.441 834.07 254.517 834.019 254.567C833.994 254.618 833.918 254.693 833.893 254.744C831.565 257.827 828.984 260.607 826.2 263.058C805.83 281.152 774.858 283.097 752.16 266.116C705.651 231.318 744.847 186.817 735.004 179.464C734.624 179.186 734.169 178.958 733.612 178.781C720.605 199.73 688.115 254.314 690.266 273.924L648.286 242.513C667.719 239.051 710.99 192.68 727.488 174.283C727.185 173.853 726.856 173.5 726.501 173.247C716.683 165.893 684.547 215.55 638.392 181.005C615.719 164.049 608.862 133.8 620.552 109.212C622.121 105.851 624.044 102.591 626.372 99.4827C626.423 99.4322 626.473 99.3564 626.524 99.3058C626.575 99.23 626.6 99.1795 626.651 99.1037C646.059 73.252 682.75 67.9958 708.662 87.3529C727.741 101.631 728.323 118.663 730.095 120.002C730.196 120.078 730.272 120.103 730.373 120.078C732.423 119.775 720.631 92.1796 742.595 62.9164C762.003 37.0648 798.72 31.8086 824.606 51.191ZM826.706 48.386C799.302 27.8917 760.333 33.4764 739.811 60.819C728.905 75.3748 725.919 89.6273 725.59 100.519C722.402 95.3636 717.746 89.7536 710.787 84.5479C683.383 64.0536 644.414 69.6384 623.892 96.9809C623.867 97.0315 623.816 97.082 623.766 97.1578C623.715 97.2336 623.665 97.2842 623.614 97.3347C621.235 100.494 619.16 103.981 617.44 107.67C604.889 134.154 612.834 166.146 636.367 183.759C669.87 208.828 696.693 191.897 712.736 181.788C714.684 180.575 717.493 178.781 719.897 177.518C686.546 214.033 659.799 236.903 647.754 239.026C646.388 239.279 645.275 240.315 644.971 241.654C644.642 243.019 645.173 244.434 646.287 245.268L688.267 276.679C689.38 277.513 690.898 277.614 692.087 276.906C693.302 276.224 693.985 274.885 693.834 273.495C692.492 261.34 706.992 229.196 732.802 186.842C732.22 189.496 731.284 192.73 730.626 194.954C725.261 213.124 716.304 243.549 750.136 268.845C773.669 286.458 806.665 285.094 828.579 265.585C831.59 262.932 834.348 259.95 836.752 256.766L836.879 256.589L837.031 256.412C857.552 229.044 851.96 190.128 824.581 169.633C817.673 164.478 811.17 161.496 805.501 159.803C815.8 156.442 828.377 149.619 839.232 135.139C859.678 107.822 854.086 68.8803 826.706 48.386Z" fill="url(#paint5_linear_2_2122)"/>
<path d="M1237.88 442.377C1228.16 414.124 1193.21 403.056 1161.18 410.864C1126.44 419.204 1100.4 452.08 1109.91 497.845C1118.52 539.263 1156.62 563.422 1199.74 587.808C1243.67 612.648 1268.6 630.666 1278.52 637.919C1278.52 637.944 1278.52 637.944 1278.52 637.944C1278.52 637.969 1278.52 637.969 1278.52 637.969C1278.52 637.944 1278.49 637.969 1278.52 637.944C1278.52 637.944 1278.49 637.944 1278.52 637.919C1284.71 627.331 1300.4 600.872 1330.79 560.617C1360.63 521.094 1385.93 483.795 1377.33 442.377C1367.81 396.637 1330.84 376.8 1295.65 382.966C1263.13 388.551 1235.5 412.583 1237.88 442.377Z" fill="url(#paint6_radial_2_2122)"/>
<path d="M1292.76 383.497C1293.72 383.294 1294.68 383.118 1295.65 382.941C1330.82 376.775 1367.81 396.587 1377.33 442.351C1385.93 483.77 1360.63 521.069 1330.79 560.592C1300.4 600.847 1284.71 627.305 1278.52 637.894C1268.6 630.641 1243.67 612.623 1199.74 587.782C1156.62 563.397 1118.52 539.238 1109.91 497.82C1100.4 452.08 1126.41 419.178 1161.18 410.839C1162.14 410.612 1163.08 410.384 1164.04 410.182C1195.26 403.713 1228.44 414.933 1237.85 442.351C1235.57 413.467 1261.54 389.991 1292.76 383.497ZM1291.98 379.757C1265.86 385.164 1240.43 403.056 1234.97 428.453C1219.83 407.327 1189.39 401.034 1163.25 406.442C1162.24 406.644 1161.25 406.872 1160.27 407.124C1126.74 415.16 1095.49 447.229 1106.17 498.578C1115.02 541.184 1152.93 565.671 1197.85 591.093C1241.93 616.009 1267.23 634.381 1275.91 640.724C1276.06 640.876 1276.24 641.002 1276.44 641.128C1277.3 641.684 1278.34 641.861 1279.3 641.659C1279.78 641.558 1280.26 641.356 1280.67 641.078C1281.27 640.673 1281.73 640.092 1282.01 639.435C1287.4 630.237 1303.16 603.501 1333.81 562.891C1364.88 521.726 1389.88 484.174 1381.02 441.568C1370.34 390.219 1328.92 373.212 1294.94 379.175C1293.98 379.378 1292.99 379.554 1291.98 379.757Z" fill="url(#paint7_linear_2_2122)"/>
<path d="M990.401 86.9738C1001.51 58.4941 981.519 26.7798 951.331 11.7439C918.664 -4.6566 876.583 3.85952 853.733 45.8842C833.059 83.9161 846.85 127.937 864.411 175.445C882.301 223.838 889.867 254.365 892.828 266.571C892.828 266.571 892.803 266.571 892.803 266.596C892.803 266.596 892.803 266.571 892.828 266.571C904.67 262.401 934.428 252.065 984.809 240.643C1034.25 229.448 1078.74 216.965 1099.39 178.933C1122.21 136.908 1106.42 97.0062 1074.84 78.6346C1045.74 61.5771 1008.27 62.133 990.401 86.9738Z" fill="url(#paint8_radial_2_2122)"/>
<path d="M1072.23 77.1943C1073.12 77.6744 1073.98 78.1546 1074.84 78.66C1106.42 97.0568 1122.21 136.934 1099.39 178.958C1078.71 216.99 1034.25 229.474 984.809 240.668C934.428 252.091 904.695 262.401 892.827 266.596C889.867 254.39 882.326 223.864 864.411 175.471C846.849 127.963 833.059 83.9415 853.732 45.9096C876.557 3.88489 918.663 -4.6565 951.331 11.7693C952.242 12.2241 953.127 12.679 953.988 13.1591C982.658 28.7004 1001.18 59.3534 990.401 86.9992C1007.73 62.866 1043.54 61.6277 1072.23 77.1943ZM892.827 266.596C892.802 266.621 892.827 266.621 892.827 266.596C892.802 266.596 892.802 266.621 892.827 266.596ZM1074.11 73.7575C1050.12 60.7433 1018.41 57.9635 997.334 74.1871C999.46 47.6785 979.849 22.6861 955.835 9.69709C954.924 9.19168 953.988 8.71154 953.052 8.25667C921.548 -7.58786 875.924 -3.16555 850.291 44.0143C829.035 83.1581 842.446 127.305 860.741 176.81C878.707 225.355 886.324 256.412 888.93 267.076C888.956 267.303 889.006 267.531 889.057 267.733C889.361 268.744 890.044 269.553 890.929 270.058C891.385 270.311 891.866 270.462 892.397 270.513C893.156 270.589 893.89 270.437 894.523 270.134C904.822 266.495 934.832 256.008 985.644 244.484C1037.16 232.809 1081.55 219.972 1102.8 180.828C1128.44 133.648 1107.28 93.0388 1076.79 75.2738C1075.93 74.7683 1075.02 74.2377 1074.11 73.7575Z" fill="url(#paint9_linear_2_2122)"/>
<path d="M1081.22 470.225C1062.06 436.312 1060.47 419.659 1060.47 419.659H1060.44C1060.44 419.659 1049.41 432.218 1014.04 448.593C985.669 461.709 962.87 472.423 955.43 495.445C948.927 515.585 960.01 537.166 980.153 543.635C994.272 548.184 1009.38 546.491 1019.15 537.924C1012.47 551.722 1001.96 572.241 990.983 575.577L1025.68 586.747C1018.72 577.624 1022.21 554.83 1024.84 539.744C1027.75 552.404 1039.04 562.588 1053.13 567.137C1073.3 573.631 1094.88 562.563 1101.39 542.448C1108.83 519.426 1096.58 497.416 1081.22 470.225Z" fill="url(#paint10_radial_2_2122)"/>
<path d="M1060.47 419.659C1060.47 419.659 1062.06 436.312 1081.22 470.225C1096.58 497.416 1108.82 519.401 1101.39 542.447C1094.88 562.588 1073.27 573.631 1053.13 567.137C1039.01 562.588 1027.75 552.404 1024.84 539.744C1022.21 554.83 1018.72 577.624 1025.67 586.746L990.982 575.577C1001.96 572.241 1012.47 551.696 1019.15 537.924C1009.38 546.491 994.272 548.184 980.152 543.635C959.985 537.141 948.927 515.56 955.43 495.445C962.869 472.398 985.669 461.709 1014.03 448.593C1049.41 432.243 1060.44 419.659 1060.44 419.659H1060.47ZM1061.15 417.536H1061.13C1060.27 417.258 1059.35 417.511 1058.75 418.193C1058.65 418.319 1047.44 430.677 1013.07 446.572C985.162 459.459 961.073 470.604 953.279 494.787C946.422 516.065 958.163 538.935 979.444 545.808C991.539 549.7 1003.86 549.068 1013.45 544.393C1007.76 555.538 998.852 570.902 990.299 573.505C989.363 573.783 988.73 574.642 988.705 575.627C988.705 576.613 989.338 577.472 990.249 577.775L1024.94 588.945C1025.88 589.248 1026.89 588.894 1027.45 588.111C1028 587.302 1028 586.241 1027.4 585.458C1021.98 578.382 1023.75 560.718 1025.62 548.335C1030.66 557.736 1040.3 565.444 1052.4 569.335C1073.7 576.183 1096.6 564.458 1103.49 543.206C1111.28 519.047 1098.25 495.95 1083.14 469.189C1064.54 436.236 1062.67 419.684 1062.67 419.507C1062.59 418.572 1061.99 417.814 1061.15 417.536Z" fill="url(#paint11_linear_2_2122)"/>
<path d="M1383.6 228.185C1346.56 208.499 1321.36 221.412 1320.44 218.405C1319.53 215.423 1368.02 214.463 1396.13 161.699C1420.73 115.504 1403.19 58.1657 1356.96 33.5776C1310.7 9.01478 1253.29 26.5272 1228.67 72.6962C1200.81 124.955 1226.54 166.197 1223.33 167.182C1220.11 168.168 1216.22 139.233 1180.44 120.205C1134.18 95.6417 1076.76 113.154 1052.14 159.323C1052.09 159.424 1052.04 159.551 1051.99 159.677C1051.94 159.778 1051.86 159.879 1051.81 159.98C1048.88 165.489 1046.6 171.2 1044.93 176.962C1032.38 219.239 1050.85 265.914 1091.34 287.444C1176.79 332.855 1215.63 237.282 1232.23 254.592C1210.4 288.126 1152.7 373.06 1122.46 383.421L1197.44 423.272C1189.12 392.392 1227.53 297.021 1243.14 260.278C1267.31 263.993 1208.19 349.559 1294.51 395.424C1335.02 416.955 1384.11 406.19 1412.2 372.15C1416.04 367.526 1419.51 362.472 1422.45 356.938C1422.5 356.836 1422.57 356.71 1422.62 356.609C1422.7 356.483 1422.75 356.382 1422.8 356.281C1447.4 310.112 1429.86 252.748 1383.6 228.185Z" fill="url(#paint12_radial_2_2122)"/>
<path d="M1356.96 33.5775C1403.21 58.1403 1420.75 115.504 1396.13 161.698C1368.02 214.463 1319.53 215.398 1320.44 218.405C1320.49 218.531 1320.57 218.658 1320.72 218.734C1323.68 220.3 1348.25 209.434 1383.6 228.21C1429.86 252.773 1447.4 310.137 1422.77 356.331C1422.72 356.432 1422.67 356.533 1422.6 356.659C1422.55 356.76 1422.47 356.862 1422.42 356.988C1419.49 362.497 1416.02 367.576 1412.17 372.201C1384.08 406.215 1334.99 417.005 1294.48 395.475C1211.38 351.327 1263.05 270.412 1245.49 261.087C1244.81 260.733 1244.03 260.455 1243.11 260.329C1227.5 297.072 1189.09 392.468 1197.41 423.323L1122.44 383.471C1152.68 373.11 1210.37 288.177 1232.21 254.643C1231.63 254.036 1231.02 253.556 1230.36 253.228C1212.8 243.903 1173.76 331.313 1091.31 287.494C1050.83 265.989 1032.33 219.29 1044.91 177.012C1046.6 171.225 1048.85 165.539 1051.79 160.031C1051.84 159.929 1051.94 159.803 1051.97 159.727C1052.04 159.601 1052.07 159.5 1052.12 159.374C1076.71 113.179 1134.15 95.6668 1180.41 120.255C1214.5 138.374 1219.63 165.464 1222.82 167.157C1222.97 167.233 1223.12 167.258 1223.28 167.207C1226.49 166.222 1200.75 124.981 1228.61 72.7213C1253.29 26.5018 1310.73 8.98941 1356.96 33.5775ZM1359.62 28.574C1310.68 2.57073 1249.69 21.1697 1223.66 70.0427C1209.81 96.0459 1208.6 119.573 1210.75 137.11C1204.37 129.681 1195.52 121.822 1183.09 115.226C1134.15 89.2229 1073.17 107.822 1047.13 156.695C1047.08 156.771 1047.03 156.897 1046.98 157.023C1046.9 157.15 1046.85 157.251 1046.78 157.352C1043.77 163.012 1041.31 169.077 1039.47 175.42C1025.95 220.907 1046.63 270.134 1088.66 292.473C1148.53 324.288 1187.22 290.552 1210.35 270.386C1213.13 267.96 1217.2 264.423 1220.72 261.769C1176.41 328.483 1139.32 371.695 1120.59 378.089C1118.47 378.822 1116.95 380.742 1116.77 382.991C1116.59 385.24 1117.76 387.388 1119.76 388.424L1194.73 428.276C1196.73 429.337 1199.16 429.11 1200.93 427.694C1202.7 426.279 1203.46 423.98 1202.88 421.806C1197.72 402.677 1212.93 347.638 1243.7 273.495C1243.44 277.892 1242.73 283.299 1242.23 287.014C1238.18 317.44 1231.42 368.334 1291.83 400.428C1333.86 422.767 1386.31 412.381 1416.55 375.764C1420.73 370.76 1424.39 365.327 1427.43 359.616L1427.61 359.288L1427.79 358.959C1453.82 310.086 1435.2 249.184 1386.26 223.181C1373.94 216.636 1362.78 213.503 1353.29 212.163C1368.93 204.254 1387.37 190.203 1401.14 164.352C1427.18 115.479 1408.55 54.5772 1359.62 28.574Z" fill="url(#paint13_linear_2_2122)"/>
<circle cx="1392" cy="528" r="226" fill="url(#paint14_radial_2_2122)" fill-opacity="0.57"/>
<circle cx="777" cy="389" r="226" fill="url(#paint15_radial_2_2122)" fill-opacity="0.57"/>
<circle cx="424" cy="124" r="158" fill="url(#paint16_radial_2_2122)" fill-opacity="0.57"/>
</g>
<defs>
<radialGradient id="paint0_radial_2_2122" cx="0" cy="0" r="1" gradientUnits="userSpaceOnUse" gradientTransform="translate(849.219 328.866) rotate(-25.0302) scale(171.868 171.72)">
<stop offset="0.4275" stop-color="#C30012"/>
<stop offset="0.5103" stop-color="#B80011"/>
<stop offset="0.6538" stop-color="#9C000F"/>
<stop offset="0.7826" stop-color="#7D000C"/>
</radialGradient>
<linearGradient id="paint1_linear_2_2122" x1="825.547" y1="283.374" x2="928.641" y2="504.156" gradientUnits="userSpaceOnUse">
<stop stop-color="#E6C57E"/>
<stop offset="0.2279" stop-color="#FDDD9E"/>
<stop offset="0.414" stop-color="#E9BE5A"/>
<stop offset="0.586" stop-color="#94690C"/>
<stop offset="0.7721" stop-color="#7B4900"/>
<stop offset="1" stop-color="#A2781C"/>
</linearGradient>
<radialGradient id="paint2_radial_2_2122" cx="0" cy="0" r="1" gradientUnits="userSpaceOnUse" gradientTransform="translate(541.915 91.7461) rotate(22.5182) scale(152.114 151.97)">
<stop offset="0.4275" stop-color="#C30012"/>
<stop offset="0.5103" stop-color="#B80011"/>
<stop offset="0.6538" stop-color="#9C000F"/>
<stop offset="0.7826" stop-color="#7D000C"/>
</radialGradient>
<linearGradient id="paint3_linear_2_2122" x1="557.564" y1="49.1489" x2="474.978" y2="248.35" gradientUnits="userSpaceOnUse">
<stop stop-color="#E6C57E"/>
<stop offset="0.2279" stop-color="#FDDD9E"/>
<stop offset="0.414" stop-color="#E9BE5A"/>
<stop offset="0.586" stop-color="#94690C"/>
<stop offset="0.7721" stop-color="#7B4900"/>
<stop offset="1" stop-color="#A2781C"/>
</linearGradient>
<radialGradient id="paint4_radial_2_2122" cx="0" cy="0" r="1" gradientUnits="userSpaceOnUse" gradientTransform="translate(789.491 100.303) rotate(36.8032) scale(187.363 187.292)">
<stop offset="0.2015" stop-color="#222222"/>
<stop offset="0.4869" stop-color="#151515"/>
<stop offset="1"/>
</radialGradient>
<linearGradient id="paint5_linear_2_2122" x1="826.695" y1="48.3819" x2="667.466" y2="261.204" gradientUnits="userSpaceOnUse">
<stop stop-color="#E6C57E"/>
<stop offset="0.2279" stop-color="#FDDD9E"/>
<stop offset="0.414" stop-color="#E9BE5A"/>
<stop offset="0.586" stop-color="#94690C"/>
<stop offset="0.7721" stop-color="#7B4900"/>
<stop offset="1" stop-color="#A2781C"/>
</linearGradient>
<radialGradient id="paint6_radial_2_2122" cx="0" cy="0" r="1" gradientUnits="userSpaceOnUse" gradientTransform="translate(1242.73 419.828) rotate(-11.7167) scale(221.005 220.733)">
<stop offset="0.4275" stop-color="#C30012"/>
<stop offset="0.5103" stop-color="#B80011"/>
<stop offset="0.6538" stop-color="#9C000F"/>
<stop offset="0.7826" stop-color="#7D000C"/>
</radialGradient>
<linearGradient id="paint7_linear_2_2122" x1="1227.61" y1="393.115" x2="1279.17" y2="641.705" gradientUnits="userSpaceOnUse">
<stop stop-color="#E6C57E"/>
<stop offset="0.2279" stop-color="#FDDD9E"/>
<stop offset="0.414" stop-color="#E9BE5A"/>
<stop offset="0.586" stop-color="#94690C"/>
<stop offset="0.7721" stop-color="#7B4900"/>
<stop offset="1" stop-color="#A2781C"/>
</linearGradient>
<radialGradient id="paint8_radial_2_2122" cx="0" cy="0" r="1" gradientUnits="userSpaceOnUse" gradientTransform="translate(1009.11 72.5583) rotate(28.4468) scale(226.097 225.932)">
<stop offset="0.4275" stop-color="#C30012"/>
<stop offset="0.5103" stop-color="#B80011"/>
<stop offset="0.6538" stop-color="#9C000F"/>
<stop offset="0.7826" stop-color="#7D000C"/>
</radialGradient>
<linearGradient id="paint9_linear_2_2122" x1="1014.97" y1="41.7142" x2="891.19" y2="270.197" gradientUnits="userSpaceOnUse">
<stop stop-color="#E6C57E"/>
<stop offset="0.2279" stop-color="#FDDD9E"/>
<stop offset="0.414" stop-color="#E9BE5A"/>
<stop offset="0.586" stop-color="#94690C"/>
<stop offset="0.7721" stop-color="#7B4900"/>
<stop offset="1" stop-color="#A2781C"/>
</linearGradient>
<radialGradient id="paint10_radial_2_2122" cx="0" cy="0" r="1" gradientUnits="userSpaceOnUse" gradientTransform="translate(1053.03 444.209) rotate(17.8508) scale(142.811 142.656)">
<stop offset="0.2015" stop-color="#222222"/>
<stop offset="0.4869" stop-color="#151515"/>
<stop offset="1"/>
</radialGradient>
<linearGradient id="paint11_linear_2_2122" x1="1061.13" y1="417.537" x2="1007.73" y2="583.346" gradientUnits="userSpaceOnUse">
<stop stop-color="#E6C57E"/>
<stop offset="0.2279" stop-color="#FDDD9E"/>
<stop offset="0.414" stop-color="#E9BE5A"/>
<stop offset="0.586" stop-color="#94690C"/>
<stop offset="0.7721" stop-color="#7B4900"/>
<stop offset="1" stop-color="#A2781C"/>
</linearGradient>
<radialGradient id="paint12_radial_2_2122" cx="0" cy="0" r="1" gradientUnits="userSpaceOnUse" gradientTransform="translate(1313 120.879) rotate(27.9847) scale(303.451 303.224)">
<stop offset="0.2015" stop-color="#222222"/>
<stop offset="0.4869" stop-color="#151515"/>
<stop offset="1"/>
</radialGradient>
<linearGradient id="paint13_linear_2_2122" x1="1359.62" y1="28.5692" x2="1157.7" y2="408.572" gradientUnits="userSpaceOnUse">
<stop stop-color="#E6C57E"/>
<stop offset="0.2279" stop-color="#FDDD9E"/>
<stop offset="0.414" stop-color="#E9BE5A"/>
<stop offset="0.586" stop-color="#94690C"/>
<stop offset="0.7721" stop-color="#7B4900"/>
<stop offset="1" stop-color="#A2781C"/>
</linearGradient>
<radialGradient id="paint14_radial_2_2122" cx="0" cy="0" r="1" gradientUnits="userSpaceOnUse" gradientTransform="translate(1392 528) rotate(90) scale(226)">
<stop stop-color="#C10012"/>
<stop offset="1" stop-color="#C10012" stop-opacity="0"/>
</radialGradient>
<radialGradient id="paint15_radial_2_2122" cx="0" cy="0" r="1" gradientUnits="userSpaceOnUse" gradientTransform="translate(777 389) rotate(90) scale(226)">
<stop stop-color="#C10012"/>
<stop offset="1" stop-color="#C10012" stop-opacity="0"/>
</radialGradient>
<radialGradient id="paint16_radial_2_2122" cx="0" cy="0" r="1" gradientUnits="userSpaceOnUse" gradientTransform="translate(424 124) rotate(90) scale(158)">
<stop stop-color="#C10012"/>
<stop offset="1" stop-color="#C10012" stop-opacity="0"/>
</radialGradient>
</defs>
</svg>
