<svg width="46" height="46" viewBox="0 0 46 46" fill="none" xmlns="http://www.w3.org/2000/svg">
<g id="material-symbols:login">
<g id="Vector">
<path d="M21.5 35V32.2222H31.2222V12.7778H21.5V10H31.2222C31.9861 10 32.6403 10.2722 33.1847 10.8167C33.7292 11.3611 34.0009 12.0148 34 12.7778V32.2222C34 32.9861 33.7278 33.6403 33.1833 34.1847C32.6389 34.7292 31.9852 35.0009 31.2222 35H21.5ZM18.7222 29.4444L16.8125 27.4306L20.3542 23.8889H9V21.1111H20.3542L16.8125 17.5694L18.7222 15.5556L25.6667 22.5L18.7222 29.4444Z" fill="white"/>
<path d="M21.5 35V32.2222H31.2222V12.7778H21.5V10H31.2222C31.9861 10 32.6403 10.2722 33.1847 10.8167C33.7292 11.3611 34.0009 12.0148 34 12.7778V32.2222C34 32.9861 33.7278 33.6403 33.1833 34.1847C32.6389 34.7292 31.9852 35.0009 31.2222 35H21.5ZM18.7222 29.4444L16.8125 27.4306L20.3542 23.8889H9V21.1111H20.3542L16.8125 17.5694L18.7222 15.5556L25.6667 22.5L18.7222 29.4444Z" fill="#FD521B"/>
</g>
</g>
</svg>
