<svg width="645" height="386" viewBox="0 0 645 386" fill="none" xmlns="http://www.w3.org/2000/svg">
<g opacity="0.2">
<circle cx="223.911" cy="172.912" r="15.1461" transform="rotate(-105.538 223.911 172.912)" fill="#FF4225"/>
<circle cx="540.512" cy="153.993" r="15.1461" transform="rotate(-105.538 540.512 153.993)" fill="#313E47"/>
<path d="M490.223 315.856C470.227 308 451.974 296.282 436.507 281.372C421.039 266.461 408.66 248.65 400.076 228.956C391.492 209.261 386.871 188.069 386.477 166.588C386.083 145.108 389.924 123.76 397.78 103.764C405.636 83.7681 417.354 65.5152 432.265 50.0478C447.175 34.5803 464.986 22.2011 484.681 13.6169C504.375 5.0328 525.568 0.411857 547.048 0.0179385C568.528 -0.37598 589.876 3.46484 609.872 11.3211L578.157 92.044C568.761 88.3527 558.731 86.548 548.638 86.7331C538.545 86.9182 528.588 89.0894 519.334 93.1227C510.08 97.1561 501.712 102.973 494.706 110.24C487.7 117.508 482.194 126.084 478.503 135.479C474.812 144.875 473.007 154.905 473.192 164.998C473.377 175.091 475.548 185.048 479.582 194.302C483.615 203.556 489.432 211.924 496.699 218.93C503.967 225.936 512.543 231.442 521.938 235.133L490.223 315.856Z" fill="#FF4225"/>
<path d="M279.692 28.3726C298.915 37.1258 316.226 49.5796 330.636 65.0229C345.046 80.4663 356.273 98.5967 363.677 118.379C371.08 138.161 374.515 159.208 373.784 180.318C373.053 201.427 368.172 222.186 359.419 241.409C350.666 260.633 338.212 277.944 322.769 292.354C307.325 306.764 289.195 317.991 269.413 325.394C249.63 332.798 228.583 336.232 207.474 335.502C186.364 334.771 165.605 329.89 146.382 321.137L175.247 257.746C186.145 262.709 197.915 265.476 209.883 265.891C221.851 266.305 233.784 264.358 244.999 260.16C256.215 255.963 266.494 249.598 275.25 241.428C284.005 233.258 291.066 223.443 296.029 212.545C300.991 201.646 303.759 189.877 304.173 177.909C304.587 165.94 302.64 154.008 298.443 142.792C294.245 131.577 287.88 121.298 279.71 112.542C271.54 103.786 261.726 96.7256 250.827 91.763L279.692 28.3726Z" fill="#313E47"/>
<path d="M842.135 165.151C802.507 134.979 752.516 121.786 703.16 128.473C653.804 135.159 609.126 161.179 578.954 200.807C548.782 240.435 535.589 290.426 542.275 339.782C548.962 389.138 574.982 433.816 614.61 463.988L728.372 314.57L842.135 165.151Z" fill="#313E47"/>
<circle cx="145.351" cy="-34.6486" r="97.7409" transform="rotate(-105.538 145.351 -34.6486)" fill="#FF4225"/>
</g>
</svg>
