<svg width="35" height="35" viewBox="0 0 35 35" fill="none" xmlns="http://www.w3.org/2000/svg">
<path d="M33.1229 15.8273C27.1875 12.5828 22.3088 7.7015 19.0617 1.76609C18.2777 0.330578 16.2172 0.330578 15.4332 1.76609C12.1887 7.7015 7.30745 12.5801 1.37205 15.8273C-0.0634686 16.6112 -0.0634686 18.6718 1.37205 19.4558C7.30745 22.7029 12.1861 27.5815 15.4332 33.5169C16.2172 34.9524 18.2777 34.9524 19.0617 33.5169C22.3062 27.5815 27.1875 22.7029 33.1229 19.4558C34.5557 18.6718 34.5557 16.6112 33.1229 15.8273Z" fill="#FF4225"/>
<path d="M33.1229 15.8273C27.1875 12.5828 22.3088 7.7015 19.0617 1.76609C18.2777 0.330578 16.2172 0.330578 15.4332 1.76609C12.1887 7.7015 7.30745 12.5801 1.37205 15.8273C-0.0634686 16.6112 -0.0634686 18.6718 1.37205 19.4558C7.30745 22.7029 12.1861 27.5815 15.4332 33.5169C16.2172 34.9524 18.2777 34.9524 19.0617 33.5169C22.3062 27.5815 27.1875 22.7029 33.1229 19.4558C34.5557 18.6718 34.5557 16.6112 33.1229 15.8273Z" fill="#FF4225"/>
</svg>
