<svg width="33" height="20" viewBox="0 0 33 20" fill="none" xmlns="http://www.w3.org/2000/svg">
<g id="Frame">
<path id="Vector" d="M20.5904 10.9207L19.1801 10.9326C17.4464 9.98198 14.286 9.3457 10.6742 9.3457C6.88188 9.3457 3.58724 10.0472 1.91926 11.0775L0.758179 11.0872V12.6027C0.758179 12.606 0.758179 12.6093 0.758179 12.6128C0.758179 14.4166 5.19851 15.8789 10.6742 15.8789C16.1499 15.8789 20.5904 14.4166 20.5904 12.6128C20.5904 12.6093 20.5904 12.606 20.5904 12.6027V10.9207Z" fill="url(#paint0_linear_70_3623)"/>
<path id="Vector_2" d="M10.6742 14.2835C16.1507 14.2835 20.5902 12.8211 20.5902 11.0171C20.5902 9.21315 16.1507 7.75073 10.6742 7.75073C5.19772 7.75073 0.758179 9.21315 0.758179 11.0171C0.758179 12.8211 5.19772 14.2835 10.6742 14.2835Z" fill="#FF922E"/>
<path id="Vector_3" d="M10.6743 13.0239C14.0391 13.0239 16.7668 12.1254 16.7668 11.0171C16.7668 9.90871 14.0391 9.01025 10.6743 9.01025C7.30949 9.01025 4.58179 9.90871 4.58179 11.0171C4.58179 12.1254 7.30949 13.0239 10.6743 13.0239Z" fill="white"/>
<path id="Vector_4" d="M10.6804 8.95439H10.398C10.1781 8.95747 9.96177 8.96436 9.74883 8.97504L9.81786 9.12725C10.1012 9.11341 10.3916 9.10638 10.6804 9.10638V8.95264V8.95439ZM8.8379 9.0451L8.81592 9.04752H8.80911H8.80493H8.80229H8.79834H8.79526H8.79152H8.78845H8.78449H8.78163H8.77767H8.76273H8.76009H8.72953H8.7269H8.71569H8.71305H8.70513H8.70272H8.69964H8.6937H8.69063H8.68755H8.68447H8.6781H8.67172H8.66425H8.66095H8.65787H8.65458H8.64974H8.64644H8.64337H8.64007H8.63325H8.62644H8.61963H8.61303H8.60622C8.38699 9.08793 8.17434 9.12426 7.9683 9.15646L8.17098 9.29527C8.43014 9.25419 8.70074 9.21927 8.97529 9.1916L8.83812 9.04422L8.8379 9.0451ZM7.15893 9.3102C6.90988 9.36621 6.67379 9.42771 6.45222 9.49447L6.44694 9.49623L6.44166 9.49777H6.43925H6.43705H6.43463H6.43265H6.43045L6.74787 9.61066C6.95912 9.54631 7.18751 9.48679 7.42447 9.43342L7.16069 9.30603L7.15893 9.3102ZM5.79122 9.72751C5.60976 9.80091 5.43312 9.88562 5.26234 9.98118L5.66658 10.0585C5.82466 9.9702 5.98809 9.89177 6.1559 9.82371L5.7921 9.72707L5.79122 9.72751ZM4.85436 10.2579C4.76867 10.3278 4.69031 10.4062 4.62047 10.4918C4.61981 10.4926 4.61922 10.4934 4.61871 10.4943C4.61825 10.4951 4.61766 10.4958 4.61695 10.4964L4.61519 10.4986L4.61365 10.5008L4.6119 10.503L4.61014 10.5052L4.60838 10.5074V10.5085V10.5096V10.5107V10.5118V10.5131C4.60842 10.5137 4.60842 10.5142 4.60838 10.5147L4.60684 10.5171L4.60398 10.521L5.05945 10.5557C5.13273 10.4543 5.21914 10.3629 5.31641 10.2841L4.88183 10.2274L4.85436 10.2579ZM4.43516 10.8558C4.42859 10.8833 4.42373 10.9113 4.42065 10.9394C4.42065 10.9394 4.42065 10.941 4.42065 10.9419V10.9443V10.9467V10.9482V10.9496V10.9531V10.9564V10.9862V10.9886V10.9897V10.9908V10.9933V10.997V10.9994V11.0005V11.0016V11.004V11.0051V11.0062V11.0086V11.0097V11.0108V11.0119V11.0152V11.0163V11.0174V11.0185V11.0196V11.0207V11.0229V11.024V11.0262C4.42065 11.0262 4.42065 11.0286 4.42065 11.0297V11.0319C4.42197 11.0572 4.42461 11.0823 4.42857 11.1073C4.42844 11.108 4.42844 11.1087 4.42857 11.1094V11.1105V11.1125V11.1176V11.1198C4.42989 11.1268 4.43121 11.1336 4.43274 11.1406L4.89898 11.1299C4.8788 11.0356 4.87992 10.9381 4.90228 10.8443L4.43626 10.8325L4.43516 10.8558ZM5.02274 11.4341L4.56639 11.4677C4.61194 11.5342 4.66344 11.5965 4.72027 11.6537L4.72246 11.6559L4.72466 11.6581L4.72686 11.6605H4.72796V11.6616L4.72906 11.6627H4.73016H4.73126L4.73236 11.6638V11.6649V11.666H4.73346L4.73455 11.6671L4.73675 11.6691L4.73895 11.6711L4.74115 11.6732L4.74335 11.6754C4.74506 11.6768 4.74667 11.6783 4.74818 11.6798C4.76753 11.6976 4.78753 11.7154 4.80819 11.733L5.24431 11.6774C5.16094 11.6055 5.08653 11.5238 5.02274 11.4341ZM5.64482 11.9634L5.23904 12.0398L5.26454 12.0545L5.26827 12.0565L5.27157 12.0583H5.27311H5.27465H5.27619H5.27751H5.27861H5.27992H5.28124H5.28256H5.2841H5.28608L5.28938 12.06L5.29267 12.0618C5.37957 12.1095 5.47183 12.1558 5.56943 12.2006L5.5736 12.2026L5.57756 12.2043H5.57998H5.5813H5.58349H5.58481H5.58679L5.59031 12.2059H5.59185H5.59295H5.59426H5.59536H5.59646H5.59778H5.5991H5.60042H5.60218H5.60372H5.60548H5.60701H5.60899L5.61295 12.2076L5.61713 12.2094L5.62152 12.2111C5.65905 12.2281 5.69743 12.2447 5.73671 12.2608L6.10358 12.1654C5.93758 12.097 5.77605 12.0181 5.61998 11.9293L5.64482 11.9634ZM6.71358 12.4092L6.39352 12.5215L6.47662 12.5467L6.48189 12.5483L6.48717 12.5498H6.48959H6.492H6.49464H6.49706H6.49948L6.50431 12.5511H6.50673H6.50915H6.51135H6.51355H6.51596H6.51794H6.52014H6.52234H6.52476H6.52695H6.52871H6.53091H6.53289H6.53509H6.53663H6.53882H6.54058H6.54256H6.54366H6.5452H6.54652H6.54806H6.54916H6.55113H6.55245H6.55355H6.55553H6.55663H6.55795H6.55905H6.56103H6.56212H6.56344H6.56476H6.56652H6.56806H6.5696H6.57092H6.57224H6.57356H6.57531H6.57641H6.57751H6.57949H6.58059H6.58191H6.58301H6.58499H6.58718H6.58916H6.59026H6.5918H6.594H6.59554H6.59796H6.59927H6.60037H6.60257H6.60477H6.60697H6.60961H6.61114H6.61378H6.61532H6.61774H6.61928H6.62214L6.62675 12.5524L6.63181 12.5538H6.63466H6.6362H6.63928H6.64082H6.64368L6.64851 12.5551L6.65357 12.5564H6.65643H6.65797H6.66104H6.66258H6.66544L6.6705 12.5579L6.67555 12.5593H6.67863H6.68039H6.68368H6.68544H6.68896L6.69424 12.5608L6.69951 12.5623L6.70479 12.5636L6.7138 12.5661L6.71908 12.5674L6.72435 12.5689L6.72963 12.5702L6.73864 12.5727L6.74391 12.5742L6.74919 12.5755L6.75447 12.5768L6.76348 12.5792L6.76897 12.5808L6.77447 12.5821L6.77975 12.5836L6.78524 12.585H6.78876L6.79403 12.5863L6.79953 12.5876L6.8048 12.5889H6.8081H6.80986H6.81316H6.81492H6.81843L6.82371 12.5902L6.82876 12.5915H6.83184H6.8336H6.83646H6.83822H6.84151L6.84657 12.5929L6.85163 12.5942H6.85492H6.85756H6.8602H6.86174H6.8646H6.86745H6.87031L6.87515 12.5955H6.87756H6.8791H6.88152H6.88306H6.88416H6.88636H6.93516H6.93648H6.93867H6.93977H6.94131H6.94307H6.94549H6.94769H6.94923H6.95164H6.95274H6.95406H6.95626H6.95868H6.96022H6.96197H6.96329H6.96439H6.96659H6.96791H6.96923H6.97121H6.97253H6.97912H6.98066H6.98242H6.98352H6.98528H6.98659H6.98813H6.98923H6.99165H6.99341H6.99561H6.99737H6.99956H7.00066H7.00242H7.00462H7.00572H7.00748H7.00946H7.01187H7.01385H7.01627H7.01825H7.02067H7.02264H7.02506H7.02748H7.03012H7.03276H7.03517H7.03781H7.04023H7.04309H7.04573H7.04836L7.05386 12.5968H7.0565H7.05913H7.06177H7.06463H7.06727L7.07298 12.5981L7.0787 12.5994L7.08441 12.6008L7.10244 12.6049L7.36842 12.4782C7.13211 12.4244 6.9057 12.3642 6.69599 12.2992L6.71358 12.4092ZM8.13097 12.7321L7.92434 12.8707C7.96742 12.8777 8.01073 12.8845 8.05425 12.8911H8.06063H8.06656H8.07228H8.07513H8.07887H8.08151H8.09228H8.09426H8.10371H8.10635H8.10833H8.1158H8.11866H8.12086H8.12372H8.12723H8.13031H8.13317H8.13624L8.1424 12.8922H8.14877H8.15515C8.35943 12.9215 8.56929 12.9475 8.78471 12.9702L8.92539 12.8233C8.6515 12.7949 8.38178 12.7593 8.1235 12.7176L8.13097 12.7321ZM9.77411 12.903L9.70157 13.055H9.75345H9.76026H9.7851H9.80708C10.077 13.0673 10.3529 13.0741 10.6327 13.0747L10.6362 12.921C10.3474 12.921 10.0575 12.9124 9.77433 12.8979L9.77411 12.903ZM12.3427 12.8468C12.0675 12.874 11.7835 12.8944 11.4986 12.9076L11.5645 13.06L11.6536 13.0558H11.6606H11.6676H11.8404H11.8472H11.854H11.8608H11.8679C12.0744 13.0428 12.277 13.0265 12.4757 13.0069L12.3427 12.8468ZM13.9014 12.6052C13.6623 12.6579 13.4092 12.7051 13.1494 12.7455L13.3488 12.8848C13.5021 12.861 13.6517 12.8353 13.7977 12.8077L13.8196 12.8033L13.8256 12.8022L13.8315 12.8011L13.8375 12.8H13.8412H13.8436H13.8471H13.8491H13.8526H13.8581L13.8636 12.7989H13.8667H13.8698H13.8726H13.8742H13.8814H13.8838H13.8865H13.888H13.8913H13.8926H13.8948H13.8988H13.901H13.9023H13.9036H13.9049H13.9071H13.91H13.9113H13.9146H13.9164H13.9179H13.9197H13.9219H13.9238H13.9263H13.9298H13.9324H13.9344H13.9368H13.939H13.9416H13.9438H13.9463H13.9489H13.9515H13.9542H13.9564H13.959H13.9612H13.9639H13.9663H13.9689H13.9744H13.9773H13.9801H13.983H13.9858H13.9887H13.9915H13.9944L14.0003 12.7978L14.0061 12.7967L14.012 12.7956L14.0179 12.7943C14.061 12.7853 14.1037 12.7762 14.1459 12.7668L13.9034 12.6047L13.9014 12.6052ZM15.1764 12.2226C14.9948 12.2961 14.7948 12.3658 14.5829 12.4294L14.8976 12.5434C15.1282 12.4743 15.3428 12.3996 15.5397 12.3199L15.1783 12.2221L15.1764 12.2226ZM16.0556 11.7339C15.9354 11.8299 15.807 11.9152 15.6721 11.9891L16.0743 12.0675C16.0981 12.0543 16.1214 12.0411 16.144 12.0277L16.1462 12.0264H16.1473L16.1491 12.0253H16.1504H16.1515H16.1528H16.1541H16.1554H16.1568H16.1583H16.1596H16.1612H16.1625H16.164H16.1653H16.1671H16.1686L16.1704 12.0242L16.1737 12.022L16.177 12.0201C16.2335 11.9857 16.2873 11.9506 16.3381 11.9148L16.3412 11.9126L16.3443 11.9105L16.3473 11.9083L16.3502 11.9063H16.3515H16.3531L16.3544 11.9052H16.3557H16.3568H16.3581H16.3592H16.3605H16.3616H16.3629H16.3643H16.3656L16.368 11.9032L16.3706 11.9012L16.3733 11.8993C16.3981 11.8806 16.4221 11.8619 16.4454 11.843L16.0121 11.785L16.0556 11.7339ZM16.4562 11.1819C16.4284 11.2834 16.3818 11.3787 16.3188 11.4628L16.7736 11.4986C16.7961 11.4678 16.8169 11.4357 16.836 11.4027L16.8373 11.4005V11.3991V11.3978V11.3967V11.3954V11.3943V11.3928V11.3917V11.3906V11.3895V11.3873C16.8373 11.3866 16.8373 11.3858 16.8373 11.3851L16.8386 11.3829C16.8386 11.3829 16.8386 11.3814 16.8386 11.3807L16.84 11.3785C16.8651 11.3294 16.8852 11.2779 16.9 11.2248V11.2237V11.2223V11.2212V11.2201L16.4342 11.2072L16.4562 11.1819ZM16.805 10.5819L16.348 10.6142C16.4053 10.6997 16.4454 10.7955 16.4658 10.8964L16.9325 10.8872C16.9285 10.8652 16.9235 10.845 16.9178 10.8241V10.8217V10.8193V10.8182V10.8171V10.816V10.8149V10.8138V10.8127V10.8116V10.8092V10.7872V10.7861V10.785V10.7837V10.7824V10.7809V10.7793V10.7778V10.7754C16.9179 10.7746 16.9179 10.7738 16.9178 10.773V10.7706V10.7681C16.9177 10.7673 16.9177 10.7665 16.9178 10.7657V10.7633C16.8944 10.704 16.8649 10.6474 16.8298 10.5942L16.805 10.5819ZM16.1455 10.0086L15.738 10.084C15.8675 10.1587 15.9899 10.2451 16.1036 10.342L16.5412 10.2867L16.5104 10.2606L16.5089 10.2592L16.5074 10.2579L16.5058 10.2568L16.5045 10.2557V10.2546L16.5032 10.2535V10.2524L16.5019 10.2513H16.5006H16.4992L16.4966 10.2494L16.494 10.2472C16.384 10.159 16.2675 10.0793 16.1455 10.0086ZM15.0025 9.52413L14.68 9.63526C14.8884 9.70115 15.0834 9.77187 15.2601 9.84655L15.629 9.75211C15.5424 9.71543 15.4518 9.67963 15.3579 9.64492L15.3531 9.64317L15.3485 9.64163L15.3439 9.64009H15.3415H15.3395H15.3375H15.336H15.334H15.3324H15.3305H15.3285H15.3267H15.3247H15.3234H15.3217H15.3203H15.3186H15.3175H15.316H15.3146H15.3127H15.3113H15.3091L15.3047 9.63856L15.3003 9.63702L15.2975 9.63592H15.2959H15.2931L15.2885 9.63438L15.2839 9.63262C15.1978 9.60232 15.1093 9.57304 15.0183 9.54477L15.0025 9.52413ZM13.4785 9.17117L13.2694 9.30888C13.5262 9.35105 13.775 9.40025 14.0116 9.45472L14.2806 9.32777C14.1536 9.29849 14.0231 9.2706 13.8893 9.24409L13.8832 9.24277H13.877L13.855 9.23838H13.8487L13.8425 9.23706H13.8394L13.8269 9.23465H13.8205L13.8144 9.23333L13.7924 9.22916L13.7862 9.22806L13.7801 9.22674L13.7737 9.22564L13.7643 9.22389L13.7581 9.22257L13.7495 9.21795L13.7434 9.21686L13.7372 9.21554L13.7278 9.21378L13.7214 9.21268L13.715 9.21159L13.7089 9.21049H13.7027L13.6963 9.20939H13.6933H13.6871H13.6809L13.6748 9.20829L13.6684 9.20719L13.662 9.2061H13.659L13.6526 9.205L13.6464 9.2039L13.6403 9.2028H13.6374H13.6343H13.6315H13.6286H13.6258H13.6229H13.6198L13.6139 9.2017H13.6082H13.6053H13.6027H13.5998H13.5974H13.5948H13.5926H13.5899H13.5875H13.5851H13.5822H13.5798H13.577H13.5748H13.5721H13.5702H13.5675H13.5664H13.5644H13.562H13.5598H13.5554H13.5532H13.5297H13.5273H13.5231H13.5209H13.5165H13.5143H13.5117H13.5095H13.5053H13.5025H13.5007H13.4976H13.4959H13.4921L13.4862 9.2006H13.4813L13.4785 9.17117ZM11.7063 8.98185L11.6305 9.13384C11.9143 9.14921 12.1967 9.17183 12.47 9.20104L12.6142 9.05455C12.5539 9.04796 12.4935 9.04203 12.4324 9.0361H12.4258H12.4194H12.4163H12.3647H12.3614H12.3579H12.351H12.3442H12.3374C12.1314 9.01765 11.9215 9.00258 11.7076 8.99085L11.7063 8.98185Z" fill="#FF922E"/>
<path id="Vector_5" d="M10.6743 8.69781C11.591 8.69548 12.5068 8.75641 13.4152 8.88011C14.2536 8.99695 15.0067 9.16409 15.6534 9.37714C16.3001 9.59019 16.8077 9.83837 17.1624 10.1145C17.5295 10.4 17.7157 10.7042 17.7157 11.0172C17.7157 11.3301 17.5304 11.6341 17.1624 11.9196C16.8077 12.1957 16.3001 12.4439 15.6534 12.6567C15.0067 12.8695 14.2536 13.0371 13.4152 13.154C12.5068 13.2775 11.591 13.3383 10.6743 13.3361C9.75761 13.3383 8.84187 13.2775 7.93358 13.154C7.0952 13.0371 6.3421 12.8698 5.69539 12.6567C5.04869 12.4437 4.54091 12.1961 4.18744 11.9196C3.82034 11.6341 3.63416 11.3299 3.63416 11.0167C3.63416 10.7035 3.82034 10.4 4.18744 10.114C4.54201 9.83771 5.04979 9.58975 5.69649 9.3767C6.3432 9.16366 7.09629 8.99651 7.93468 8.87967C8.84295 8.75597 9.75869 8.69507 10.6754 8.69737M10.6754 8.65894C6.72216 8.65894 3.51721 9.7145 3.51721 11.0167C3.51721 12.3189 6.72107 13.3751 10.6743 13.3751C14.6275 13.3751 17.8327 12.3194 17.8327 11.0172C17.8327 9.71494 14.6288 8.65937 10.6743 8.65937L10.6754 8.65894Z" fill="#F7FAF6"/>
<path id="Vector_6" d="M10.6742 8.83966C11.5349 8.83748 12.3946 8.89465 13.2474 9.01075C14.0346 9.12057 14.7422 9.27739 15.3486 9.47747C15.9551 9.67756 16.4326 9.91037 16.7654 10.1695C17.1103 10.4379 17.285 10.7232 17.285 11.0171C17.285 11.311 17.1092 11.5963 16.7654 11.8647C16.4326 12.1241 15.9558 12.3569 15.3486 12.5569C14.7415 12.757 14.0352 12.9139 13.2474 13.0237C12.3946 13.1398 11.5349 13.1969 10.6742 13.1948C9.81398 13.1969 8.95467 13.1397 8.10232 13.0237C7.31515 12.9139 6.60756 12.7568 6.00086 12.5569C5.39416 12.3571 4.91605 12.1241 4.58303 11.8647C4.23835 11.5963 4.0636 11.3112 4.0636 11.0171C4.0636 10.723 4.23835 10.4379 4.58303 10.1695C4.91605 9.91037 5.39262 9.67734 5.99976 9.47747C6.6069 9.27761 7.31405 9.12035 8.10122 9.01075C8.95392 8.89465 9.81363 8.83748 10.6742 8.83966ZM10.6742 8.80122C6.95927 8.80122 3.94775 9.79331 3.94775 11.0171C3.94775 12.2409 6.95927 13.2332 10.6753 13.2332C14.3913 13.2332 17.4031 12.2411 17.4031 11.0171C17.4031 9.79309 14.3898 8.80078 10.6742 8.80078V8.80122Z" fill="#F7FAF6"/>
<path id="Vector_7" d="M13.9587 11.8519C13.8888 11.8427 13.8176 11.8551 13.7549 11.8875H12.7486L12.6064 12.0182C12.575 12.0469 12.4919 12.0663 12.3989 12.0663L12.5934 11.8886H12.4461L12.3044 12.0179C12.2727 12.0467 12.1896 12.066 12.0966 12.066L12.291 11.8886H12.1448L12.0032 12.0177C11.9716 12.0465 11.8885 12.0658 11.7955 12.0658L11.9896 11.8888H10.9043H10.162C10.1893 11.8545 10.2834 11.8306 10.3908 11.8306H10.9531L11.815 10.8308H10.2957C9.89999 11.2464 9.50432 11.7155 9.10864 12.1418C9.0427 12.2138 9.20383 12.3024 9.43222 12.303C10.8331 12.3083 12.2338 12.298 13.6347 12.303C13.7147 12.303 13.7853 12.2859 13.8062 12.2604L14.0809 11.9272C14.1071 11.8956 14.0546 11.8616 13.9587 11.8519Z" fill="#FF922E"/>
<path id="Vector_8" d="M12.7602 9.73157V9.73047H11.2055C11.06 9.73047 10.9417 9.76938 10.9417 9.8184H11.715C11.679 9.85049 11.5875 9.87225 11.4835 9.87313L11.187 9.87621C11.0534 10.0192 10.9199 10.1625 10.7865 10.306H12.2679L12.6875 9.81796H12.7284C12.7961 9.81796 12.8561 9.80169 12.8636 9.77949C12.871 9.75729 12.8244 9.73618 12.7602 9.73157Z" fill="url(#paint1_linear_70_3623)"/>
<path id="Vector_9" d="M14.0031 10.4698C14.0031 10.4654 14.0011 10.4613 13.9998 10.4569C13.9178 10.1553 13.1392 9.92603 12.2193 9.92603H9.55882C9.33768 9.92603 9.14116 9.97171 9.06467 10.04L8.8554 10.2069H8.62327C8.46302 10.2069 8.31179 10.2315 8.21419 10.2728H9.53156L9.87558 10.2746C10.0468 10.2757 10.1688 10.3269 10.1429 10.38L9.83205 10.6609H9.68565L9.98197 10.3903H9.88898L9.59267 10.6622H9.40538L9.70214 10.3917C9.21238 10.3886 8.81583 10.3853 8.3263 10.3822C8.20825 10.3822 8.099 10.4029 8.04427 10.4371C8.02429 10.4487 8.00703 10.4645 7.99371 10.4835C7.97744 10.5087 8.04163 10.5324 8.11945 10.5291H8.12208C8.20693 10.525 8.24342 10.5004 8.24606 10.4986H9.09852C9.09852 10.5206 9.0429 10.5395 8.97454 10.5395H8.52897C7.91172 11.1437 7.47934 11.579 7.29974 11.7136C7.12015 11.8483 7.27337 11.9038 7.40394 11.9249C7.46401 11.9342 7.52473 11.9387 7.58551 11.9383H8.7101L9.45748 11.2184H9.23766C9.11786 11.2184 9.0207 11.1865 9.0207 11.147H10.2763C10.8085 11.3936 11.3407 11.6429 11.8728 11.8898C12.3844 11.8898 12.8957 11.8871 13.4072 11.8871L11.6319 11.1009L12.2186 11.1061C13.0979 11.1061 13.8545 10.8964 13.9864 10.6102C14.0073 10.5665 14.0132 10.5172 14.0031 10.4698ZM9.48672 10.7589H9.3146L9.39857 10.6824H9.57025L9.48672 10.7589ZM9.72544 10.7589H9.59487L9.67818 10.6829H9.80875L9.72544 10.7589ZM10.4948 10.7589C10.3273 10.7589 10.1229 10.7589 9.88151 10.7589L9.96526 10.6833H10.5781L10.4948 10.7589ZM9.9879 10.6625L10.2763 10.4C10.5251 10.4011 10.7315 10.4015 10.8839 10.4018L10.5981 10.6622L9.9879 10.6625ZM10.7885 10.7595H10.6493L10.7331 10.6833H10.8725L10.7885 10.7595ZM10.7555 10.6625L11.0413 10.402H11.1806L10.8949 10.6622L10.7555 10.6625ZM11.5629 10.7134C11.3581 10.7452 11.1511 10.7606 10.9439 10.7593L11.0276 10.6829C11.1842 10.6855 11.3182 10.6846 11.4233 10.6829C11.6194 10.6794 11.7091 10.6728 11.7952 10.6572C11.8304 10.6512 11.8652 10.6434 11.8994 10.6337C11.7892 10.6687 11.6763 10.6953 11.562 10.7132L11.5629 10.7134ZM11.9968 10.5654C11.9614 10.6093 11.8229 10.6313 11.7489 10.642C11.6493 10.6572 11.5622 10.6592 11.3923 10.6625C11.2582 10.6651 11.1419 10.6642 11.0498 10.6625L11.3343 10.4029C11.3728 10.4007 11.6792 10.3853 11.8728 10.4531C11.8981 10.4619 12.039 10.5114 11.9959 10.5652L11.9968 10.5654Z" fill="#FF922E"/>
<path id="Vector_10" d="M10.8848 10.4019C10.7325 10.4019 10.5261 10.4019 10.2772 10.4001L9.98706 10.6626H10.5997L10.8848 10.4019ZM10.0873 10.6393L10.326 10.4234L10.7852 10.4248L10.5502 10.6393H10.0873Z" fill="white"/>
<path id="Vector_11" d="M9.59558 10.7587L9.72549 10.7585L9.80946 10.6826H9.67867L9.59558 10.7587Z" fill="white"/>
<path id="Vector_12" d="M9.3147 10.7591H9.48681L9.57035 10.6829H9.39867L9.3147 10.7591ZM9.44791 10.7057H9.46989L9.43692 10.7358H9.41493L9.44791 10.7057Z" fill="white"/>
<path id="Vector_13" d="M14.0731 10.4699C14.0722 10.4654 14.0711 10.4609 14.0698 10.4565C14.0287 10.3052 13.8159 10.1652 13.471 10.0629C13.1261 9.96055 12.6832 9.90454 12.22 9.90454H9.5589C9.30984 9.90454 9.08519 9.95638 8.99946 10.0332L8.89527 10.1163L8.80866 10.1844H8.62335C8.44266 10.1844 8.26878 10.2125 8.15866 10.2597L8.07073 10.2968H9.53054L9.87302 10.2986C9.92534 10.2977 9.97743 10.3059 10.0269 10.3229C10.0594 10.3357 10.0764 10.3517 10.0753 10.368H9.83983L9.82312 10.3833L9.54351 10.639H9.50548L9.61385 10.5402L9.76773 10.3994L9.80092 10.3691H9.7031L9.01221 10.3645L8.3277 10.3601H8.32C8.17778 10.3601 8.04809 10.3858 7.98192 10.4275C7.9591 10.4405 7.93943 10.4585 7.92433 10.48C7.91268 10.4982 7.92631 10.5169 7.96192 10.5314C8.00746 10.5472 8.05549 10.5546 8.1037 10.5533C8.11161 10.5533 8.11997 10.5533 8.12788 10.5533H8.13206C8.18387 10.5522 8.23506 10.542 8.28329 10.523H8.47387L8.46332 10.5334C8.34374 10.6505 8.2312 10.761 8.12568 10.865C7.69264 11.2907 7.37984 11.5981 7.23652 11.7058C7.02747 11.8624 7.233 11.9243 7.3739 11.9474C7.44425 11.9581 7.51531 11.9633 7.58647 11.963H8.75964L8.7759 11.9474L9.52329 11.2274L9.55494 11.1969H9.23708C9.19275 11.199 9.14854 11.1903 9.10827 11.1716H10.2395C10.4986 11.292 10.7617 11.4145 11.0163 11.5331C11.2669 11.65 11.5254 11.7703 11.7804 11.8887H11.8663C11.3361 11.6427 10.8059 11.3943 10.2755 11.1486H9.02012C9.02012 11.1881 9.11728 11.2199 9.23708 11.2199H9.4569L8.70952 11.9399H7.58559C7.52481 11.9403 7.46409 11.9358 7.40402 11.9265C7.27345 11.9045 7.11825 11.8512 7.29982 11.7152C7.48139 11.5793 7.9118 11.1453 8.52905 10.541H8.97374C9.0421 10.541 9.09772 10.5226 9.09772 10.5002H8.24526C8.24263 10.5019 8.20614 10.5265 8.12129 10.5307H8.10392C8.03292 10.5307 7.97796 10.5088 7.99401 10.4848C8.00733 10.4659 8.02459 10.4501 8.04457 10.4385C8.09842 10.4046 8.20482 10.3836 8.32044 10.3836H8.3266C8.81613 10.3866 9.21268 10.3899 9.70244 10.393L9.40568 10.6636H9.59297L9.88929 10.393H9.98227L9.68595 10.6636H9.83235L10.143 10.382C10.1689 10.3289 10.0469 10.2777 9.87566 10.2766L9.53164 10.2748H8.21427C8.31187 10.2331 8.4631 10.209 8.62335 10.209H8.85548L9.06475 10.042C9.14036 9.97373 9.33776 9.92804 9.5589 9.92804H12.22C13.1393 9.92804 13.9179 10.1573 14.0005 10.4589C14.0019 10.4633 14.003 10.4675 14.0038 10.4719C14.0135 10.5191 14.0073 10.5682 13.9863 10.6115C13.8544 10.8971 13.0975 11.1075 12.2185 11.1075L11.6318 11.1022L13.407 11.8885H13.495L13.464 11.8749L12.4308 11.4174L11.7744 11.1266L12.2167 11.1305H12.2185C12.6614 11.1305 13.0909 11.0787 13.4275 10.9845C13.764 10.8903 13.9891 10.7585 14.0553 10.6148C14.077 10.5698 14.0832 10.5189 14.0731 10.4699ZM10.0746 10.3763L10.0432 10.404L10.048 10.3994L10.0746 10.3752V10.3763Z" fill="white"/>
<path id="Vector_14" d="M9.88062 10.7584H10.0734H10.4939L10.5772 10.6824H9.96437L9.88062 10.7584ZM10.0125 10.7059H10.4763L10.4438 10.7356H9.97997L10.0125 10.7059Z" fill="white"/>
<path id="Vector_15" d="M11.8987 10.6335C11.8644 10.6432 11.8296 10.6511 11.7945 10.6571C11.7065 10.6727 11.6186 10.679 11.4225 10.6828C11.3652 10.6828 11.299 10.6843 11.2247 10.6843C11.1634 10.6843 11.097 10.6843 11.0269 10.6828L10.9431 10.7593C11.1504 10.7606 11.3573 10.7452 11.5621 10.7133C11.6762 10.6953 11.7887 10.6686 11.8987 10.6335ZM11.0458 10.7347L11.0763 10.7065C11.1264 10.7065 11.1768 10.7076 11.2265 10.7076C11.2924 10.7076 11.361 10.7076 11.4274 10.7059H11.4469C11.3139 10.723 11.1799 10.7326 11.0458 10.7347Z" fill="white"/>
<path id="Vector_16" d="M11.3914 10.6626C11.5613 10.6593 11.6484 10.6573 11.748 10.6421C11.8221 10.6307 11.9605 10.6096 11.9959 10.5654C12.0399 10.5115 11.8981 10.4621 11.872 10.4531C11.744 10.4091 11.5666 10.3997 11.4499 10.3997C11.3903 10.3997 11.3464 10.4019 11.3334 10.4027L11.049 10.6626C11.0993 10.6626 11.1567 10.6641 11.2202 10.6641C11.2732 10.6641 11.3314 10.6637 11.3914 10.6626ZM11.3848 10.4238C11.4026 10.4238 11.4248 10.4238 11.4508 10.4238C11.5607 10.4238 11.713 10.432 11.8216 10.47C11.8638 10.4847 11.9588 10.5232 11.9289 10.5606C11.9021 10.5944 11.7878 10.6118 11.7194 10.6221C11.6332 10.6353 11.56 10.6371 11.3881 10.6406C11.3327 10.6417 11.2765 10.6421 11.2211 10.6421H11.1483L11.3848 10.4238Z" fill="white"/>
<path id="Vector_17" d="M11.1792 10.4021H11.0398L10.754 10.6628H10.8934L11.1792 10.4021Z" fill="white"/>
<path id="Vector_18" d="M10.7877 10.7593L10.8717 10.6826H10.7323L10.6486 10.7589H10.7877V10.7593Z" fill="white"/>
<path id="Vector_19" d="M7.64976 8.6918C8.65672 8.55417 9.672 8.48647 10.6883 8.48913V7.75098H10.6742C9.28938 7.75098 7.97245 7.8444 6.77576 8.01344L7.64976 8.6918Z" fill="#F7FAF6"/>
<path id="Vector_20" d="M15.4898 8.16138L14.4584 8.77394C15.3761 8.94174 16.171 9.16511 16.8205 9.43767L18.4898 9.00653C17.6741 8.66302 16.6539 8.37486 15.4898 8.16138Z" fill="white"/>
<path id="Vector_21" d="M1.02393 11.8585V13.3657C1.33563 13.8003 1.91111 14.2016 2.69257 14.5499V12.9466L1.06591 11.8008C1.05184 11.8199 1.03777 11.8392 1.02393 11.8585Z" fill="#EDE8E8"/>
<path id="Vector_22" d="M6.34534 15.5515C7.51037 15.738 8.80313 15.8517 10.1689 15.8741V14.2792L6.34534 13.9563V15.5515Z" fill="#EDE8E8"/>
<path id="Vector_23" d="M15.1064 15.5346C16.3205 15.3342 17.3926 15.0544 18.2591 14.7158V13.2295L15.1064 14.0103V15.5346Z" fill="#EDE8E8"/>
<path id="Vector_24" d="M20.5904 12.6123C20.5904 12.6088 20.5904 12.6055 20.5904 12.6022V10.9209L20.4616 10.922L20.3264 11.7685V13.3635C20.4979 13.1223 20.5904 12.8708 20.5904 12.6123Z" fill="#EDE8E8"/>
<path id="Vector_25" d="M18.4756 11.0191C18.4756 11.2187 18.4061 11.4173 18.2692 11.6092L20.3269 11.7687C20.4992 11.5271 20.5907 11.2758 20.5907 11.0173C20.5886 10.8263 20.5407 10.6386 20.4509 10.47L18.3657 10.5862C18.4365 10.7196 18.4742 10.868 18.4756 11.0191Z" fill="white"/>
<path id="Vector_26" d="M18.2591 13.2296L16.6797 12.7666C15.9794 13.0256 15.1443 13.2322 14.1975 13.3803L15.1065 14.0104C16.3115 13.8213 17.382 13.5544 18.2591 13.2296Z" fill="white"/>
<path id="Vector_27" d="M6.34534 13.9569C7.51037 14.1438 8.80379 14.2574 10.1702 14.2801L10.2801 13.5806C9.27512 13.5666 8.27244 13.4812 7.27957 13.3252L6.34534 13.9569Z" fill="white"/>
<path id="Vector_28" d="M1.02393 11.7706C1.33343 12.2024 1.9032 12.6008 2.67498 12.9474L4.35967 12.5485C3.74616 12.2674 3.31883 11.9542 3.09022 11.6179L1.02393 11.7706Z" fill="white"/>
<path id="Vector_29" d="M1.09851 10.1666L3.18964 10.3601C3.47167 10.0285 3.94846 9.72318 4.60637 9.45237L2.8819 8.99707C2.06505 9.33838 1.4511 9.73482 1.09851 10.1666Z" fill="white"/>
<path id="Vector_30" d="M7.64976 8.6918C8.65672 8.55417 9.672 8.48647 10.6883 8.48913V7.75098H10.6742C9.28938 7.75098 7.97245 7.8444 6.77576 8.01344L7.64976 8.6918Z" fill="white"/>
<path id="Vector_31" d="M21.36 8.35747L19.9499 8.36933C18.2162 7.41853 15.0557 6.78247 11.4429 6.78247C7.65041 6.78247 4.35577 7.48398 2.68779 8.51429L1.52759 8.52395V10.0394C1.52759 10.0427 1.52759 10.046 1.52759 10.0495C1.52759 11.8536 5.96792 13.3151 11.444 13.3151C16.9202 13.3151 21.36 11.8536 21.36 10.0489C21.36 10.0454 21.36 10.0421 21.36 10.0388V8.35747Z" fill="url(#paint2_linear_70_3623)"/>
<path id="Vector_32" d="M11.4441 11.7201C16.9206 11.7201 21.3601 10.2576 21.3601 8.45366C21.3601 6.64967 16.9206 5.18726 11.4441 5.18726C5.96762 5.18726 1.52808 6.64967 1.52808 8.45366C1.52808 10.2576 5.96762 11.7201 11.4441 11.7201Z" fill="#FF922E"/>
<path id="Vector_33" d="M11.444 10.4604C14.8088 10.4604 17.5365 9.5619 17.5365 8.45358C17.5365 7.34524 14.8088 6.44678 11.444 6.44678C8.07927 6.44678 5.35156 7.34524 5.35156 8.45358C5.35156 9.5619 8.07927 10.4604 11.444 10.4604Z" fill="white"/>
<path id="Vector_34" d="M11.4501 6.39018H11.1677C10.9478 6.39326 10.7314 6.40016 10.5183 6.41083L10.5873 6.56304C10.8709 6.5492 11.1611 6.54217 11.4501 6.54217V6.38843V6.39018ZM9.6074 6.48089L9.58541 6.48331H9.57882H9.57442H9.57179H9.56783H9.55794H9.5542H9.5509H9.54717H9.54607H9.54211H9.532H9.52936H9.49815H9.49573H9.48496H9.4821H9.47441H9.47177H9.46298H9.4599H9.45682H9.45286H9.44671H9.44033H9.4366H9.4333H9.43H9.42693H9.42363H9.41901H9.41549H9.4122H9.4089H9.40209H9.39527H9.38846H9.38164H9.37483C9.15692 6.50835 8.94486 6.53765 8.73867 6.57116L8.94135 6.70997C9.20051 6.6689 9.47133 6.63398 9.74588 6.6063L9.6085 6.45893L9.6074 6.48089ZM7.92842 6.74687C7.67937 6.80288 7.44328 6.86438 7.22171 6.93114L7.21643 6.9329L7.21138 6.93444H7.20874H7.20654H7.20412H7.20214H7.19995L7.51736 7.04733C7.72883 6.98298 7.957 6.92346 8.19396 6.87009L7.93018 6.7427L7.92842 6.74687ZM6.56071 7.16418C6.37934 7.23723 6.20276 7.32168 6.03205 7.41698L6.43608 7.49429C6.59415 7.40599 6.75758 7.32756 6.92539 7.2595L6.56137 7.16374L6.56071 7.16418ZM5.62385 7.69459C5.53812 7.76474 5.45975 7.84342 5.38996 7.92938L5.3882 7.9318L5.38644 7.934L5.38469 7.93619L5.38293 7.93839L5.38139 7.94058L5.37963 7.94278L5.37787 7.94476V7.94586V7.94695V7.94827V7.94981L5.37633 7.95223L5.37347 7.95618L5.82894 7.99088C5.90229 7.88945 5.98868 7.79811 6.08591 7.71919L5.65133 7.66253L5.62385 7.69459ZM5.20465 8.29244C5.19808 8.32 5.19322 8.34796 5.19015 8.37612C5.19004 8.37693 5.19004 8.37774 5.19015 8.37853V8.38095V8.38315V8.38468V8.386V8.38732V8.39062V8.42158V8.42729V8.42971V8.43081V8.43191V8.43432V8.43542V8.43652V8.43762V8.44926V8.45167V8.45277V8.45387V8.45607V8.45716V8.45826V8.45936V8.46046V8.46156V8.46375V8.46595C5.19026 8.46714 5.19026 8.4683 5.19015 8.46946V8.47166C5.19129 8.4969 5.19386 8.52207 5.19784 8.54699V8.54809C5.19784 8.54809 5.19784 8.54963 5.19784 8.55029V8.55139V8.55336V8.55842V8.56061C5.19916 8.56764 5.20048 8.57445 5.20202 8.58148L5.66847 8.57071C5.65884 8.52626 5.65398 8.48091 5.65396 8.43542C5.65405 8.38499 5.65994 8.33472 5.67155 8.28563L5.20553 8.27377L5.20465 8.29244ZM5.79201 8.87074L5.33567 8.90434C5.38121 8.97089 5.43272 9.03316 5.48954 9.09037L5.49174 9.09257L5.49394 9.09476L5.49613 9.09718V9.09828V9.09938L5.49723 9.10047L5.49833 9.10157V9.10267L5.49943 9.10377L5.50053 9.10487H5.50163V9.10596L5.50361 9.10794L5.50581 9.10992L5.508 9.11211L5.5102 9.11431L5.51482 9.11892C5.53416 9.13671 5.55417 9.1545 5.57505 9.17207L6.01095 9.11651C5.91552 9.03742 5.83122 8.94581 5.76035 8.84416L5.79201 8.87074ZM6.41409 9.40005L6.00831 9.47649L6.03403 9.4912L6.03755 9.49318L6.04106 9.49494H6.04282H6.04436H6.0459H6.04722H6.04876H6.0503H6.05139H6.05249H6.05381H6.05513L6.05733 9.49603L6.06063 9.49779L6.06392 9.49955C6.15069 9.54699 6.24292 9.59327 6.34068 9.63836L6.34485 9.64033L6.34881 9.64209L6.35123 9.64319H6.35233L6.35474 9.64429H6.35584H6.35782L6.36134 9.64583H6.3631H6.36442H6.36573H6.36705H6.36837H6.36947H6.37123H6.37255H6.37453H6.37607H6.37782L6.38178 9.64758L6.38596 9.64934L6.39013 9.6511C6.42794 9.66779 6.46619 9.68448 6.50532 9.70073L6.8977 9.63528C6.73171 9.5668 6.57019 9.48793 6.41409 9.39918V9.40005ZM7.48285 9.84591L7.1628 9.95815L7.24589 9.9834L7.25116 9.98494L7.25644 9.98648H7.25908H7.26171H7.26435H7.26677H7.26919L7.27402 9.9878H7.27644H7.27886H7.28128H7.28348H7.28589H7.28787H7.29029H7.29249H7.29491H7.29711H7.29908H7.30128H7.30304H7.30502H7.30678H7.30876H7.31051H7.31249H7.31359H7.31513H7.31645H7.31799H7.31909H7.32107H7.3226H7.3237H7.32568H7.32722H7.32942H7.33074H7.33228H7.33382H7.33491H7.33645H7.33777H7.33931H7.34041H7.34195H7.34349H7.34459H7.34591H7.34766H7.34898H7.35008H7.3514H7.35316H7.35448H7.35558H7.35756H7.35887H7.35997H7.36195H7.36327H7.36547H7.36701H7.36921H7.3714H7.3725H7.37382H7.37624H7.37778H7.3802H7.38174H7.38415H7.38569H7.38855L7.39339 9.98911L7.39844 9.99043H7.4013H7.40306H7.40614H7.40767H7.41075L7.41581 9.99175L7.42064 9.99307H7.4235H7.42526H7.42812H7.42988H7.43273L7.43757 9.99439L7.44263 9.9957H7.4457H7.44724H7.45076H7.45252H7.45581L7.46109 9.99724L7.46615 9.99856L7.47142 9.99988L7.48043 10.0023L7.48571 10.0038L7.49099 10.0054L7.49626 10.0067L7.50549 10.0091L7.51099 10.0106L7.51626 10.012L7.52154 10.0133L7.53055 10.0157L7.53583 10.017L7.5411 10.0183L7.54638 10.0199L7.55165 10.0212H7.55539L7.56089 10.0225L7.56616 10.0238L7.57144 10.0251H7.57474H7.57649H7.57979H7.58155H7.58485L7.59012 10.0265L7.59518 10.0278H7.59826H7.60089H7.60375H7.60551H7.60881L7.61386 10.0289L7.61892 10.0302H7.622H7.62463H7.62727H7.62881H7.63167H7.63453H7.63716L7.642 10.0315H7.64464H7.64618H7.64881H7.65013H7.65233H7.70443H7.70575H7.70707H7.70926H7.71168H7.71344H7.71608H7.71806H7.71938H7.7207H7.72311H7.72421H7.72553H7.72685H7.72883H7.73125H7.73279H7.73454H7.73586H7.73718H7.73916H7.74048H7.7418H7.74378H7.7451H7.74839H7.74993H7.75169H7.75279H7.75455H7.75587H7.75763H7.75982H7.7618H7.764H7.7651H7.76664H7.77037H7.77257H7.77433H7.77675H7.77851H7.77983H7.78159H7.784H7.78576H7.78818H7.78994H7.79236H7.79455H7.79697H7.79961H7.80203H7.80445H7.80686H7.8095L7.77675 10.0416L7.81456 10.0315L7.78818 10.0416L7.79961 10.0526L7.80445 10.0636H7.79455L7.79697 10.0746H7.83346L8.14055 9.91422C7.90424 9.86041 7.7873 9.86847 7.57649 9.80346L7.48285 9.84591ZM8.90068 10.1692L8.69493 10.3074C8.73786 10.3144 8.7811 10.3212 8.82462 10.3278H8.831H8.83693H8.84265H8.84551H8.84924H8.85188H8.86287H8.86463H8.87408H8.87672H8.87892H8.88178H8.88551H8.88837H8.89079H8.89365H8.89738H8.90024H8.9031H8.9064L8.91255 10.3289H8.91871H8.92508C9.12951 10.3582 9.33937 10.3842 9.55464 10.4069L9.69554 10.2599C9.42165 10.2316 9.15171 10.196 8.89343 10.1543L8.90068 10.1692ZM10.5438 10.3401L10.4713 10.4921H10.5234H10.53H10.5473H10.5546L10.5766 10.4932C10.8468 10.5055 11.1221 10.5121 11.4024 10.5129L11.406 10.3592C11.1169 10.3592 10.8269 10.3506 10.5438 10.3361V10.3401ZM13.1133 10.2834C12.8381 10.3107 12.5543 10.3311 12.2692 10.3443L12.3351 10.4967L12.423 10.4925H12.4303H12.4373H12.4525H12.4569H12.5919H12.6103H12.6171H12.624H12.6308H12.6378C12.844 10.4796 13.0465 10.4633 13.2454 10.4435L13.1115 10.2959L13.1133 10.2834ZM14.672 10.0418C14.4328 10.0945 14.1798 10.1418 13.92 10.1822L14.1194 10.3214C14.2725 10.2977 14.4221 10.272 14.5683 10.2443L14.5902 10.2399L14.5962 10.2388H14.6021H14.6078H14.6116H14.6138H14.6173H14.619H14.6226H14.628H14.6335H14.6366H14.6399H14.6428H14.6443H14.6507H14.6529H14.6555H14.6571H14.6604H14.6617H14.6639H14.6678H14.67H14.6714H14.6729H14.6753H14.6779H14.6795H14.6815H14.6843H14.6859H14.6887H14.6909H14.6929H14.6953H14.6973H14.6997H14.7017H14.7041H14.7063H14.7087H14.7111H14.7136H14.7162H14.7186H14.7213H14.7234H14.7261H14.7283H14.7309H14.7333H14.736L14.7415 10.2377H14.7443H14.7472H14.7503H14.7531H14.756H14.7588H14.7619L14.7679 10.2364L14.7736 10.2353L14.7795 10.2342L14.7857 10.2329C14.8287 10.224 14.8715 10.2148 14.9138 10.2052L14.6727 10.0414L14.672 10.0418ZM15.947 9.65922C15.7652 9.7328 15.5651 9.80243 15.3534 9.86612L15.6682 9.97989C15.8986 9.91092 16.1131 9.83625 16.3103 9.75652L15.9476 9.65878L15.947 9.65922ZM16.8251 9.17054C16.705 9.26663 16.5766 9.35202 16.4416 9.42575L16.8438 9.50416C16.8676 9.49098 16.8909 9.47781 16.9137 9.46441L16.9159 9.46309H16.917L16.919 9.46199H16.9203H16.9216H16.923H16.9245H16.9258H16.9273H16.9289H16.9304H16.932H16.9335H16.935H16.9366L16.9383 9.46089L16.9588 9.43761L16.9623 9.43564C17.019 9.40109 17.0727 9.36601 17.1234 9.33043L17.1265 9.32823L17.1294 9.32604L17.1322 9.32384L17.1351 9.32165L17.1366 9.32055H17.1379H17.1393H17.1406L17.1419 9.31945H17.1432H17.1445H17.1456H17.1469H17.1483H17.1494H17.1507H17.1518L17.1542 9.31747L17.1568 9.3155L17.1595 9.31352C17.1843 9.29485 17.2085 9.27618 17.2316 9.25729L16.7983 9.19931L16.8251 9.17054ZM17.2256 8.6186C17.1979 8.72 17.1514 8.81528 17.0885 8.89951L17.5431 8.93531C17.5656 8.90449 17.5865 8.87245 17.6055 8.83933L17.6068 8.83713V8.83581V8.8345V8.8334V8.83186V8.83076V8.82966V8.82747C17.6069 8.82683 17.6069 8.82615 17.6068 8.82549V8.82329V8.8211L17.6079 8.8189C17.6331 8.76944 17.6533 8.71756 17.6681 8.66406V8.66296V8.66164V8.66055V8.65923V8.65813V8.65703L17.2023 8.64407L17.2256 8.6186ZM17.5743 8.01855L17.1171 8.05084C17.1744 8.13634 17.2144 8.23221 17.2349 8.33307L17.7013 8.32341C17.6974 8.30144 17.6925 8.28124 17.6866 8.26037V8.25796V8.25554V8.25444V8.25334V8.25225V8.25115V8.24214V8.2305V8.2294V8.22809V8.22677V8.22523V8.22369V8.22216V8.21974C17.6865 8.21895 17.6865 8.21814 17.6866 8.21732V8.21491V8.21249C17.6866 8.21249 17.6866 8.21095 17.6866 8.21008C17.6865 8.20929 17.6865 8.20847 17.6866 8.20766C17.6631 8.14849 17.6336 8.09182 17.5987 8.03854L17.5743 8.01855ZM16.9148 7.44465L16.5073 7.51998C16.6368 7.59464 16.7591 7.68104 16.8728 7.77805L17.3105 7.72446L17.2797 7.69833L17.2782 7.69701L17.2764 7.69569L17.2751 7.69459H17.274H17.2729H17.2716L17.2705 7.6935H17.2692H17.2681H17.2667L17.2654 7.6924L17.2628 7.69042L17.2599 7.68822C17.1573 7.6076 17.0492 7.53422 16.9364 7.46859L16.9148 7.44465ZM15.7718 6.96014L15.4491 7.07149C15.6575 7.13738 15.8527 7.2081 16.0292 7.28278L16.3982 7.18834C16.3115 7.15159 16.2211 7.11586 16.127 7.08115L16.1222 7.0794L16.1178 7.07786L16.1134 7.07632H16.1112H16.1092H16.107H16.1052H16.103H16.1015H16.0995H16.0978H16.096H16.0942H16.0927H16.0907H16.089H16.0879H16.0863H16.085H16.083H16.0817H16.0795L16.0753 7.07479L16.0709 7.07325H16.0679H16.0663H16.0632L16.0586 7.07171L16.054 7.06995C15.9681 7.03964 15.8796 7.01037 15.7885 6.9821L15.7718 6.96014ZM14.2478 6.60696L14.0387 6.74489C14.2957 6.78706 14.5454 6.83626 14.7808 6.89073L15.0499 6.76488C14.9228 6.7356 14.7924 6.70771 14.6586 6.6812L14.6524 6.67988L14.6463 6.67878L14.6243 6.67439L14.6182 6.67329L14.6118 6.67198H14.6087L14.596 6.66956L14.5898 6.66846L14.5836 6.66714L14.5617 6.66297H14.5553L14.5489 6.66165L14.5425 6.66055L14.5331 6.6588L14.5267 6.65748L14.5203 6.65638H14.514H14.5076L14.4979 6.65462H14.4918L14.4856 6.65353L14.4795 6.65243L14.4731 6.65133H14.4667H14.4636L14.4575 6.65023L14.4515 6.64913H14.4454L14.439 6.64804H14.4329H14.4298L14.4236 6.64694L14.4172 6.64584H14.4111H14.408H14.4052H14.4021H14.399H14.3961H14.3933H14.3904L14.3847 6.64474H14.3788H14.3757H14.3731H14.3702H14.3678H14.3649H14.3625H14.3597H14.3575H14.3548H14.3522H14.3498H14.3471H14.3449H14.3423H14.3403H14.3377H14.3355H14.3328H14.3317H14.3298H14.3254H14.3232H14.3188H14.3163H14.3124H14.31H14.3056H14.3034H14.3007H14.2985H14.277H14.2739H14.2706H14.2675H14.2656H14.2618L14.2559 6.64364H14.2511L14.2478 6.60696ZM12.4758 6.41786L12.3997 6.56985C12.6835 6.58522 12.966 6.60784 13.2392 6.63705L13.3834 6.49056C13.3232 6.48397 13.2627 6.47782 13.2019 6.47211H13.1955H13.1893H13.1863H13.1339H13.1309H13.1271H13.1203H13.1135H13.1065C12.9013 6.45366 12.6914 6.43859 12.4769 6.42686L12.4758 6.41786Z" fill="#FF922E"/>
<path id="Vector_35" d="M11.444 6.13438C12.3607 6.13208 13.2765 6.19298 14.1847 6.31668C15.0231 6.43353 15.7762 6.60067 16.4229 6.81371C17.0696 7.02676 17.5774 7.27494 17.932 7.55103C18.2991 7.83655 18.4853 8.14074 18.4853 8.45372C18.4853 8.7667 18.2991 9.07068 17.932 9.35664C17.5774 9.63272 17.0696 9.88091 16.4229 10.0937C15.7762 10.3066 15.0231 10.4741 14.1847 10.591C13.2764 10.7145 12.3607 10.7753 11.444 10.7731C10.5273 10.7753 9.61149 10.7145 8.70311 10.591C7.86473 10.4741 7.11163 10.3068 6.46492 10.0937C5.81822 9.88069 5.31066 9.6325 4.95587 9.35664C4.58877 9.07111 4.40259 8.76692 4.40259 8.45372C4.40259 8.14052 4.58877 7.83699 4.95587 7.55103C5.31066 7.27473 5.81822 7.02676 6.46492 6.81371C7.11163 6.60067 7.86473 6.43353 8.70311 6.31668C9.61147 6.19298 10.5273 6.13208 11.444 6.13438ZM11.444 6.09595C7.4906 6.09595 4.28564 7.15151 4.28564 8.45372C4.28564 9.75594 7.4906 10.8117 11.444 10.8117C15.3975 10.8117 18.6022 9.75594 18.6022 8.45372C18.6022 7.15151 15.3981 6.09595 11.444 6.09595Z" fill="#F7FAF6"/>
<path id="Vector_36" d="M11.444 6.2762C12.3043 6.27412 13.1636 6.33127 14.0159 6.4473C14.8031 6.55712 15.5107 6.71394 16.1174 6.91402C16.7241 7.11411 17.2011 7.34692 17.5341 7.60609C17.8788 7.87448 18.0535 8.15979 18.0535 8.45366C18.0535 8.74753 17.8777 9.03284 17.5341 9.30123C17.2011 9.56062 16.7245 9.79343 16.1174 9.99352C15.5102 10.1936 14.8031 10.3504 14.0159 10.4602C13.1636 10.5762 12.3042 10.6333 11.444 10.6313C10.5834 10.6334 9.72364 10.5762 8.87085 10.4602C8.08368 10.3504 7.37609 10.1934 6.76961 9.99352C6.16313 9.79365 5.68568 9.56062 5.35244 9.30123C5.00776 9.03284 4.83301 8.74775 4.83301 8.45366C4.83301 8.15957 5.00886 7.87448 5.35244 7.60609C5.68546 7.34692 6.16225 7.11389 6.76939 6.91402C7.37653 6.71416 8.08346 6.5569 8.87063 6.4473C9.7234 6.33122 10.5832 6.27405 11.4438 6.2762M11.4438 6.23755C7.7289 6.23755 4.71606 7.22986 4.71606 8.45366C4.71606 9.67746 7.72758 10.6698 11.4438 10.6698C15.1601 10.6698 18.1703 9.67768 18.1703 8.45366C18.1703 7.22964 15.1588 6.23755 11.4438 6.23755Z" fill="#F7FAF6"/>
<path id="Vector_37" d="M14.7285 9.28841C14.6585 9.27915 14.5874 9.29158 14.5247 9.324H13.5182L13.3757 9.45468C13.3441 9.48345 13.261 9.50278 13.168 9.50278L13.3628 9.32509H13.2153L13.0735 9.45446C13.0418 9.48323 12.959 9.50256 12.8658 9.50256L13.0601 9.32509H12.9141L12.7726 9.45424C12.7409 9.48301 12.658 9.50234 12.565 9.50234L12.7589 9.32509L11.6737 9.32619H10.9316C10.959 9.29193 11.0529 9.26799 11.1604 9.26799H11.7229L12.5844 8.26733H11.0654C10.6698 8.68288 10.2741 9.1518 9.87842 9.57833C9.81248 9.65037 9.9736 9.73888 10.2018 9.73954C11.6027 9.74481 13.0036 9.73449 14.4045 9.73954C14.4843 9.73954 14.5548 9.72241 14.5757 9.69693L14.8505 9.36375C14.8767 9.33212 14.8241 9.29808 14.7285 9.28841Z" fill="#FF922E"/>
<path id="Vector_38" d="M13.5297 7.16821H11.9734C11.8278 7.16821 11.7096 7.20712 11.7096 7.25614H12.4827C12.4464 7.28823 12.355 7.31 12.2512 7.31087L11.9545 7.31395C11.8211 7.45714 11.6876 7.60031 11.554 7.74348H13.0353L13.4549 7.2557H13.4958C13.5635 7.2557 13.6235 7.23921 13.631 7.21701C13.6385 7.19481 13.5941 7.17283 13.5297 7.16821Z" fill="url(#paint3_linear_70_3623)"/>
<path id="Vector_39" d="M14.7728 7.90734C14.7728 7.90295 14.7708 7.89877 14.7697 7.89438C14.6875 7.59282 13.9089 7.36353 12.9892 7.36353H10.3287C10.1076 7.36353 9.90994 7.40921 9.83454 7.47752L9.62505 7.64444H9.39314C9.2329 7.64444 9.08166 7.66882 8.98384 7.71033H10.3012L10.6452 7.71209C10.8165 7.71209 10.9385 7.76436 10.9125 7.81751L10.6017 8.09886H10.4553L10.7516 7.82827H10.6586L10.3623 8.09886H10.1753L10.4718 7.82827C9.98226 7.8252 9.58548 7.8219 9.09595 7.81883C8.97791 7.81883 8.86866 7.83947 8.81392 7.87374C8.79383 7.88531 8.77649 7.90112 8.76314 7.92008C8.7471 7.94534 8.81106 7.96906 8.88888 7.96576H8.89152C8.97637 7.96159 9.01286 7.93699 9.0155 7.93523H9.86795C9.86795 7.9572 9.81256 7.97609 9.74397 7.97609H9.29862C8.68137 8.58096 8.24899 9.01584 8.0694 9.15047C7.88981 9.28511 8.04302 9.34067 8.17359 9.36176C8.23367 9.37103 8.29438 9.37551 8.35516 9.37516H9.47975L10.2271 8.6552H10.0073C9.88752 8.6552 9.79036 8.62335 9.79036 8.58381H11.0457C11.5779 8.83046 12.1099 9.07975 12.6421 9.32662C13.1536 9.32662 13.6651 9.32398 14.1764 9.32398L12.4009 8.53703L12.9876 8.5423C13.8669 8.5423 14.6235 8.33255 14.7554 8.04637C14.7762 8.00317 14.7823 7.95434 14.7728 7.90734ZM10.2564 8.1955H10.0843L10.1682 8.11907H10.3399L10.2564 8.1955ZM10.4951 8.1955H10.3643L10.4476 8.11951H10.5782L10.4951 8.1955ZM11.2645 8.1955C11.0971 8.1955 10.8927 8.1955 10.6512 8.1955L10.7349 8.11995H11.3469L11.2645 8.1955ZM10.7576 8.09908L11.0477 7.83684C11.2968 7.83684 11.503 7.83838 11.6555 7.83859L11.3698 8.09908H10.7576ZM11.5581 8.19616H11.419L11.5027 8.11995H11.6423L11.5581 8.19616ZM11.5252 8.09908L11.8109 7.83859H11.9503L11.6645 8.09886L11.5252 8.09908ZM12.3326 8.15004C12.1278 8.18186 11.9208 8.19721 11.7135 8.19594L11.7973 8.11951C11.9538 8.12214 12.0879 8.12126 12.193 8.11951C12.389 8.11599 12.4787 8.1094 12.5651 8.09381C12.6002 8.08777 12.635 8.07993 12.6693 8.07031C12.5589 8.10519 12.446 8.13176 12.3317 8.14982L12.3326 8.15004ZM12.7665 8.002C12.7311 8.04593 12.5926 8.06789 12.5185 8.07866C12.4189 8.09359 12.3321 8.09557 12.162 8.09908C12.0279 8.10172 11.9116 8.10084 11.8197 8.09908L12.1039 7.83947C12.1424 7.83728 12.4491 7.8219 12.6425 7.88977C12.6678 7.89855 12.8087 7.94797 12.7656 8.00178L12.7665 8.002Z" fill="#FF922E"/>
<path id="Vector_40" d="M11.6546 7.83843C11.502 7.83843 11.2958 7.83843 11.0468 7.83667L10.7566 8.09913H11.3692L11.6546 7.83843ZM10.8568 8.07605L11.0956 7.86019L11.5548 7.86151L11.32 8.07605H10.8568Z" fill="white"/>
<path id="Vector_41" d="M10.3651 8.19544L10.495 8.19522L10.579 8.11938H10.4484L10.3651 8.19544Z" fill="white"/>
<path id="Vector_42" d="M10.0842 8.19591H10.2563L10.3399 8.11963H10.1682L10.0842 8.19591ZM10.2174 8.14249H10.2394L10.2062 8.17261H10.1842L10.2174 8.14249Z" fill="white"/>
<path id="Vector_43" d="M14.8426 7.90591C14.8426 7.9013 14.8406 7.89691 14.8395 7.89252C14.7982 7.74119 14.5854 7.60128 14.2405 7.49893C13.8956 7.39658 13.4527 7.34058 12.9897 7.34058H10.3286C10.0794 7.34058 9.8547 7.39241 9.76897 7.46928L9.66499 7.5523L9.57816 7.62149H9.39308C9.21217 7.62149 9.03851 7.6496 8.92816 7.69682L8.84133 7.73394H10.3011L10.6438 7.7357C10.6962 7.73469 10.7483 7.74295 10.7977 7.76008C10.83 7.77282 10.847 7.78885 10.8459 7.804H10.6093L10.5926 7.81938L10.313 8.07591H10.275L10.3836 7.97708L10.5375 7.83629L10.5706 7.80598H10.4728L9.78194 7.80137L9.09698 7.79676H9.08929C8.94685 7.79676 8.81715 7.82245 8.75099 7.86396C8.72824 7.87721 8.70859 7.8952 8.6934 7.91668C8.68175 7.93491 8.69559 7.95358 8.7312 7.96807C8.77666 7.98388 8.82463 7.99133 8.87277 7.99003C8.8809 7.99003 8.88903 7.99003 8.89695 7.99003H8.90112C8.953 7.98894 9.00428 7.97868 9.05258 7.95973H9.24316L9.23261 7.97005C9.11288 8.08718 9.00026 8.19774 8.89475 8.3017C8.46193 8.72735 8.14891 9.03484 8.00558 9.14246C7.79676 9.29906 8.00207 9.36077 8.14297 9.38405C8.21331 9.39473 8.28438 9.39996 8.35554 9.39965H9.53046L9.54651 9.38405L10.2939 8.66409L10.3255 8.63356H10.0068C9.96239 8.63561 9.91814 8.62695 9.87778 8.60831H11.009C11.2681 8.72845 11.5313 8.85122 11.786 8.96982C12.0364 9.08667 12.2949 9.20703 12.5499 9.32541H12.6361C12.1056 9.07942 11.5754 8.83101 11.0452 8.58524H9.78985C9.78985 8.62478 9.88701 8.65663 10.0068 8.65663H10.2266L9.47925 9.37659H8.3551C8.29432 9.37694 8.2336 9.37246 8.17353 9.36319C8.04295 9.34123 7.88776 9.28785 8.06933 9.1519C8.2509 9.01595 8.68131 8.58085 9.29856 7.97774H9.74325C9.81183 7.97774 9.86723 7.95929 9.86723 7.93688H9.01477C9.01213 7.93864 8.97564 7.96324 8.89079 7.96741H8.87343C8.80265 7.96741 8.74747 7.94545 8.76352 7.92151C8.77686 7.90255 8.7942 7.88674 8.8143 7.87517C8.86815 7.84134 8.97454 7.82026 9.09039 7.82026H9.09632C9.58586 7.82333 9.98263 7.82663 10.4722 7.8297L10.1752 8.09897H10.3623L10.6586 7.82838H10.7516L10.4552 8.09897H10.6016L10.9125 7.81806C10.9384 7.76491 10.8164 7.71374 10.6452 7.71264L10.3011 7.71088H8.98378C9.0816 7.66893 9.23283 7.64499 9.39308 7.64499H9.62499L9.83447 7.47807C9.90987 7.40976 10.1075 7.36408 10.3286 7.36408H12.9897C13.9088 7.36408 14.6874 7.59338 14.7703 7.89493C14.7714 7.89933 14.7725 7.9035 14.7734 7.90789C14.783 7.95509 14.777 8.00418 14.756 8.04758C14.6241 8.3331 13.867 8.54351 12.9882 8.54351L12.4009 8.53714L14.1759 9.32344H14.2638L14.233 9.31026L13.1999 8.85298L12.5433 8.56218L12.9856 8.56614H12.9875C13.4303 8.56614 13.8598 8.5143 14.1965 8.42008C14.5333 8.32586 14.758 8.19407 14.8241 8.05043C14.846 8.00561 14.8525 7.95481 14.8426 7.90591ZM10.8441 7.81235L10.8127 7.84068L10.8177 7.83607L10.8443 7.81191L10.8441 7.81235Z" fill="white"/>
<path id="Vector_44" d="M10.65 8.19505H10.8428H11.2633L11.3468 8.11987H10.734L10.65 8.19505ZM10.783 8.14251H11.2468L11.2141 8.17219H10.7503L10.783 8.14251Z" fill="white"/>
<path id="Vector_45" d="M12.6684 8.07031C12.6341 8.07994 12.5993 8.08779 12.5642 8.09383C12.4763 8.10944 12.3884 8.11582 12.1921 8.11955C12.1347 8.11955 12.0685 8.12109 11.9942 8.12109C11.9331 8.12109 11.8667 8.12109 11.7964 8.11955L11.7126 8.19605C11.9199 8.19732 12.1269 8.18196 12.3317 8.15011C12.4457 8.13193 12.5583 8.10526 12.6684 8.07031ZM11.8151 8.17143L11.8456 8.14329C11.8958 8.14329 11.9461 8.14439 11.9958 8.14439C12.0617 8.14439 12.1303 8.14439 12.1967 8.14263H12.2165C12.0833 8.15976 11.9493 8.16936 11.8151 8.17143Z" fill="white"/>
<path id="Vector_46" d="M12.1611 8.09908C12.3312 8.09557 12.4181 8.09359 12.5177 8.07864C12.5917 8.06721 12.7302 8.04611 12.7656 8.00192C12.8096 7.94807 12.6678 7.89861 12.6416 7.8896C12.5137 7.84563 12.3363 7.83618 12.2198 7.83618C12.16 7.83618 12.1163 7.83838 12.1031 7.83926L11.8188 8.09908C11.869 8.09908 11.9263 8.10062 11.9899 8.10062C12.0428 8.10062 12.1009 8.10018 12.1611 8.09908ZM12.1545 7.86036C12.1723 7.86036 12.1945 7.85926 12.2205 7.85926C12.3304 7.85926 12.4825 7.8674 12.5913 7.90542C12.6335 7.92015 12.7285 7.95862 12.6986 7.99599C12.6715 8.02984 12.5572 8.04721 12.4889 8.05754C12.4029 8.07073 12.3297 8.07249 12.1576 8.076C12.1022 8.076 12.0461 8.07754 11.9905 8.07754H11.9178L12.1545 7.86036Z" fill="white"/>
<path id="Vector_47" d="M11.9487 7.83862H11.8093L11.5236 8.09933H11.6631L11.9487 7.83862Z" fill="white"/>
<path id="Vector_48" d="M11.5572 8.19615L11.6414 8.11987H11.5018L11.4181 8.19615H11.5572Z" fill="white"/>
<path id="Vector_49" d="M8.41931 6.12876C9.42634 5.99113 10.4417 5.92341 11.4581 5.92609V5.1875H11.444C10.0592 5.1875 8.74222 5.28092 7.54553 5.44996L8.41931 6.12876Z" fill="#F7FAF6"/>
<path id="Vector_50" d="M16.2596 5.5979L15.228 6.21046C16.1458 6.37804 16.9406 6.60163 17.5902 6.87442L19.2595 6.44327C18.4437 6.09911 17.4236 5.81139 16.2596 5.5979Z" fill="white"/>
<path id="Vector_51" d="M1.79358 9.29524V10.8024C2.10528 11.237 2.68077 11.6383 3.462 11.9866V10.3833L1.83688 9.23682C1.8215 9.25658 1.80743 9.27591 1.79358 9.29524Z" fill="#EDE8E8"/>
<path id="Vector_52" d="M7.11487 12.9882C8.27991 13.1747 9.57288 13.2882 10.9384 13.3108V11.7159L7.11487 11.3923V12.9882Z" fill="#EDE8E8"/>
<path id="Vector_53" d="M15.876 12.9713C17.09 12.771 18.1621 12.4912 19.0286 12.1525V10.6663L15.876 11.4471V12.9713Z" fill="#EDE8E8"/>
<path id="Vector_54" d="M21.3601 10.0488C21.3601 10.0453 21.3601 10.042 21.3601 10.0387V8.35742L21.2315 8.35852L21.0961 9.20499V10.7993C21.2684 10.5588 21.3601 10.3073 21.3601 10.0488Z" fill="#EDE8E8"/>
<path id="Vector_55" d="M19.245 8.45534C19.245 8.65498 19.1755 8.85353 19.0386 9.04549L21.0963 9.20495C21.2686 8.96335 21.3601 8.71209 21.3601 8.45358C21.3582 8.26261 21.3104 8.07491 21.2207 7.90625L19.1351 8.02266C19.2059 8.156 19.2436 8.30438 19.245 8.45534Z" fill="white"/>
<path id="Vector_56" d="M19.0286 10.6663L17.4492 10.2031C16.7489 10.4623 15.9138 10.669 14.967 10.817L15.876 11.4471C17.081 11.258 18.1518 10.9912 19.0286 10.6663Z" fill="white"/>
<path id="Vector_57" d="M7.11487 11.3928C8.27991 11.5797 9.57332 11.6933 10.9397 11.716L11.0496 11.0165C10.045 11.0026 9.04272 10.9175 8.0502 10.7617L7.11487 11.3928Z" fill="white"/>
<path id="Vector_58" d="M1.79358 9.20733C2.10308 9.63892 2.67285 10.0376 3.44463 10.3841L5.12932 9.98528C4.51581 9.70415 4.0887 9.39095 3.85987 9.05469L1.79358 9.20733Z" fill="white"/>
<path id="Vector_59" d="M1.86804 7.60315L3.95917 7.79621C4.24142 7.46434 4.71798 7.15927 5.3759 6.88846L3.65142 6.43359C2.83458 6.77491 2.22063 7.17135 1.86804 7.60315Z" fill="white"/>
<path id="Vector_60" d="M8.41931 6.12876C9.42634 5.99113 10.4417 5.92341 11.4581 5.92609V5.1875H11.444C10.0592 5.1875 8.74222 5.28092 7.54553 5.44996L8.41931 6.12876Z" fill="white"/>
<path id="Vector_61" d="M28.7546 15.2946C28.773 15.2709 28.7915 15.2469 28.8095 15.2228L29.8413 13.8725L29.5738 13.7069C30.494 10.6603 28.3894 6.9463 24.556 5.10774C21.4524 3.61928 18.0975 3.78313 15.9754 5.29136L15.8286 5.20065L15.0465 6.13168C15.0119 6.17152 14.9779 6.21178 14.9447 6.25248L14.9313 6.26851C14.6913 6.56464 14.4865 6.88762 14.3211 7.23095C12.8043 10.3873 14.9284 14.554 19.0643 16.5375C22.768 18.3139 26.8292 17.7367 28.7264 15.3295L28.7546 15.2946Z" fill="url(#paint4_linear_70_3623)"/>
<path id="Vector_62" d="M29.9901 13.5854C31.5064 10.429 29.3827 6.26232 25.2468 4.27882C21.1109 2.29533 16.5289 3.24613 15.0126 6.40247C13.4964 9.55884 15.62 13.7255 19.756 15.709C23.8919 17.6925 28.474 16.7417 29.9901 13.5854Z" fill="#FF922E"/>
<path id="Vector_63" d="M27.1023 12.2005C28.0339 10.2613 26.7291 7.70136 24.1882 6.48272C21.6471 5.2641 18.832 5.84826 17.9004 7.78746C16.9688 9.72668 18.2736 12.2866 20.8146 13.5052C23.3557 14.7239 26.1707 14.1397 27.1023 12.2005Z" fill="white"/>
<path id="Vector_64" d="M17.7722 7.72202V7.72399V7.72575V7.72773V7.72926V7.73102V7.73278V7.73476V7.73629V7.73827V7.74003V7.74178V7.74354V7.7453V7.74705V7.74859V7.75035V7.75189V7.75364V7.75496V7.75694V7.75848V7.76045V7.76177V7.76353V7.76485V7.7666V7.76814V7.76968V7.771V7.77209V7.77385V7.77517V7.77693V7.77802V7.77956V7.7811V7.7822V7.78395V7.78527V7.78659V7.78769V7.78901V7.79032V7.79142V7.79274V7.79428V7.79603V7.79757V7.79867V7.80043V7.80152V7.80372V7.80504L17.7711 7.80745V7.80877L17.7695 7.81273L17.7678 7.81668L17.7662 7.82063V7.82195L17.7651 7.82459V7.8259L17.7638 7.82854V7.82986L17.7621 7.83425L17.7603 7.83864C17.7603 7.83996 17.7603 7.84128 17.7585 7.84282C17.7058 7.97196 17.6617 8.10447 17.6267 8.23948L17.9951 8.3673C18.0418 8.18817 18.1056 8.01393 18.1857 7.84699L17.7722 7.72202ZM17.4701 8.88388C17.4701 8.88893 17.4701 8.89421 17.4701 8.89926V8.90387C17.4701 8.90497 17.4701 8.90585 17.4701 8.90694V8.90848V8.91134V8.91287V8.91749V8.92188V8.92803V8.98162V8.98645V8.99853V9.00073V9.00292V9.00512V9.00732V9.00973V9.01193V9.01435V9.01654V9.01896V9.02379V9.02862C17.4701 9.03038 17.4701 9.03192 17.4701 9.03345V9.04224C17.4703 9.04384 17.4703 9.04547 17.4701 9.04707C17.4675 9.20112 17.4748 9.3552 17.4921 9.5083L17.8658 9.5441C17.8435 9.35232 17.8384 9.15893 17.8506 8.96625L17.4752 8.88366L17.4701 8.88388ZM17.615 10.1439C17.6755 10.3525 17.7513 10.5564 17.8416 10.7539L17.8436 10.7587L17.8458 10.7633L17.8469 10.7655V10.7675V10.7697V10.7714V10.7734L18.194 10.7148C18.106 10.5257 18.0325 10.3301 17.9742 10.1299L17.6095 10.1415L17.615 10.1439ZM18.1916 11.3904C18.3237 11.5942 18.4691 11.7892 18.6268 11.9739L18.9163 11.8263C18.7703 11.6553 18.6358 11.4749 18.5134 11.2862L18.1916 11.3904ZM19.1482 12.5136C19.2977 12.6502 19.4557 12.7812 19.6222 12.9067L19.627 12.9102L19.6316 12.9137L19.6362 12.9172L19.6408 12.9208L19.6455 12.9241L19.6499 12.9274L19.6543 12.9306L19.6565 12.9324L19.6584 12.9339L19.6604 12.9355L19.6622 12.9368L19.6641 12.9381L19.6657 12.9392L19.6677 12.9408L19.6692 12.9418C19.6697 12.9425 19.6703 12.943 19.671 12.9434L19.6723 12.9445L19.674 12.9458H19.6754L19.6771 12.9471H19.6782L19.6802 12.9484H19.6815L19.6831 12.9495L19.6846 12.9506H19.6859L19.6879 12.952H19.6892L19.6914 12.9535H19.6927L19.6951 12.955V12.9561L19.6973 12.9579H19.6987L19.7013 12.9599C19.7017 12.9603 19.7022 12.9607 19.7028 12.961L19.7059 12.9629L19.7108 12.9664L19.7191 12.9726L19.9246 12.7481C19.7415 12.6172 19.566 12.476 19.3988 12.3253L19.1485 12.5136H19.1482ZM20.4038 13.413C20.4654 13.4472 20.5279 13.4807 20.5913 13.5133L20.5966 13.5162L20.6021 13.5188L20.6076 13.5215L20.6109 13.5232H20.6127L20.6155 13.5245H20.6173L20.6201 13.5259H20.6217L20.6243 13.5272H20.6259L20.6283 13.5285H20.6298H20.6311H20.6331H20.6344H20.6364H20.6377L20.6399 13.5296H20.641H20.6423H20.6441H20.6456H20.6467H20.6483H20.6498H20.6514H20.6525H20.654H20.6555H20.6571H20.6588H20.6601H20.6617L20.6637 13.5307H20.665H20.6665L20.6687 13.5318H20.6705L20.6727 13.5329H20.6742L20.6764 13.534H20.6782H20.6804H20.6821H20.6843L20.6865 13.5351H20.6889L20.6911 13.5362L20.6936 13.5373L20.6958 13.5384L20.698 13.5395L20.7004 13.5406L20.7026 13.5417L20.705 13.5428L20.7072 13.5439L20.7098 13.5452L20.712 13.5463L20.7144 13.5476L20.7164 13.5487L20.7188 13.55L20.721 13.5511L20.7237 13.5522L20.7261 13.5533L20.7285 13.5546L20.7309 13.5559L20.7336 13.5573L20.736 13.5586L20.7384 13.5597L20.7404 13.5608L20.7428 13.5619H20.7448H20.7468L20.7492 13.563H20.7512L20.7534 13.5641H20.7553H20.7573H20.7597L20.7617 13.5652L20.7639 13.5663L20.7663 13.5676H20.7683L20.7705 13.5687H20.7729H20.7751L20.7775 13.5698H20.7799L20.785 13.5722L20.7874 13.5735L20.7925 13.5759L20.8002 13.5797L20.8054 13.5821C20.8641 13.6092 20.9223 13.6352 20.9802 13.6603H20.9828L20.9881 13.6625H20.9903L20.9927 13.6636H20.9947H20.9967H20.9987H21.0002H21.002H21.0037H21.005L21.0101 13.6658L21.0591 13.6862L21.1635 13.4057C21.0585 13.3618 20.9527 13.3148 20.8494 13.2652C20.7351 13.2102 20.621 13.1514 20.5109 13.0894L20.4038 13.413ZM21.8931 13.711L21.8436 14.0108C22.0003 14.0558 22.1568 14.0944 22.3132 14.1268L22.3189 14.1281H22.3246L22.3303 14.1294H22.3334H22.336H22.3389H22.3415H22.3442H22.3466H22.3492H22.3517H22.3543H22.3565H22.3591H22.3611H22.3635H22.3657H22.3679H22.3701H22.3725H22.3765H22.3782H22.3884H22.3897H22.3941H22.3956H22.3998H22.4015H22.4051H22.4075H22.411H22.4134H22.415H22.418L22.4233 14.1305L22.4286 14.1316L22.4339 14.1327H22.4394L22.4508 14.1347C22.4971 14.1432 22.5433 14.1512 22.5895 14.1588L22.5862 13.8656C22.3521 13.8278 22.1204 13.776 21.8924 13.7106L21.8931 13.711ZM23.278 13.9346L23.3408 14.2524C23.3542 14.2524 23.3679 14.2524 23.3813 14.2537H23.4472C23.5802 14.2562 23.7121 14.2539 23.8429 14.2469H23.8484H23.8539H23.8688H23.8735H23.915H23.9205H23.926C23.9746 14.2436 24.0231 14.2396 24.0715 14.2351L23.9541 13.9188C23.7299 13.9398 23.5044 13.9463 23.2793 13.9381L23.278 13.9346ZM24.6345 13.8962L24.7657 14.1165C24.7927 14.1101 24.8195 14.1033 24.8466 14.0965L24.8516 14.0951L24.8565 14.0938H24.8591H24.8615H24.864H24.8664H24.8688L24.8734 14.0925H24.8756H24.878H24.8802H24.8822H24.8846H24.8864H24.8886H24.8908H24.893H24.8949H24.8967H24.8989H24.9007H24.9026H24.904H24.9059H24.9075H24.9095H24.911H24.9123H24.9136H24.9154H24.9167H24.9185H24.9207H24.9224H24.9235H24.9248H24.9264H24.9277H24.929H24.9303H24.9317H24.9332H24.935H24.9361H24.9378H24.94H24.9418H24.9429H24.9448H24.9477H24.9499H24.9512H24.9523H24.9543H24.9563H24.9574H24.9587H24.9609H24.9638H24.9659H24.9673H24.9695H24.9708H24.9734L24.9778 14.0912L24.9824 14.0899H24.9853H24.9868H24.9895H24.991H24.9936L24.998 14.0886L25.0024 14.0872H25.0051H25.0064H25.009H25.0106H25.0132L25.0176 14.0859L25.0222 14.0844H25.0251H25.0266H25.0297H25.0312H25.0343L25.0389 14.0831L25.0435 14.0818L25.0482 14.0802L25.0563 14.0778L25.0611 14.0765L25.0657 14.0752L25.0704 14.0736L25.0785 14.071L25.0833 14.0695L25.0879 14.0679L25.0926 14.0666L25.1005 14.0642L25.1053 14.0626L25.1099 14.0611L25.1145 14.0593L25.1192 14.0578L25.1222 14.0567L25.1269 14.0552L25.1315 14.0534L25.1361 14.0519H25.1389H25.1405H25.1433H25.1449L25.148 14.0508L25.1526 14.0492L25.157 14.0477H25.1596H25.1609H25.1633H25.1649H25.1677L25.1721 14.0462L25.1765 14.0446H25.1792H25.1805H25.1827H25.184H25.1864H25.1877H25.1902L25.1943 14.0431H25.1965H25.1979H25.2001H25.2014H25.2031H25.2045H25.2062H25.2075H25.2091H25.2108H25.2119H25.2132H25.2152H25.2163H25.2181H25.2192H25.2205H25.222H25.2238H25.2251H25.2269H25.2282H25.2295H25.231H25.2324H25.2343H25.2359H25.2379H25.2392H25.2409H25.2425H25.2445H25.246H25.2473H25.2493H25.2508H25.2528H25.2544H25.2563H25.2579H25.2601H25.262H25.2642H25.2664H25.2684H25.2706H25.2726H25.2748H25.2768H25.279L25.2836 14.0413H25.2858H25.288H25.2902H25.2924H25.2946L25.2992 14.0396L25.3038 14.0376L25.3084 14.0356L25.3229 14.0297L25.1064 13.7371C24.9125 13.8157 24.838 13.8477 24.6345 13.8962ZM25.7305 13.3477L25.9903 13.6185C26.0182 13.6014 26.0459 13.5839 26.073 13.566L26.0769 13.5634L26.0806 13.561L26.0842 13.5586L26.0859 13.5573L26.0875 13.5562L26.0888 13.5551L26.0903 13.554H26.0916H26.0932H26.0945L26.0963 13.5529H26.0978H26.0993H26.1007L26.1024 13.5518H26.1039H26.1059L26.1077 13.5507L26.1094 13.5494L26.1134 13.5467L26.1171 13.5441L26.1211 13.5415C26.2449 13.457 26.3629 13.3644 26.4743 13.2645L26.1767 13.0229C26.0373 13.1433 25.8883 13.2517 25.7307 13.3471L25.7305 13.3477ZM26.5772 12.5887L26.9069 12.7978L26.9083 12.796L26.9096 12.7943V12.7932V12.7916L26.9109 12.7899V12.7888L26.9122 12.787V12.7859L26.9149 12.7826L26.9175 12.7791L26.9201 12.7756L26.9228 12.7721V12.771L26.9245 12.7686V12.7672L26.9274 12.7635L26.9357 12.7521C27.0399 12.6088 27.1316 12.4569 27.2099 12.2979L26.8581 12.1266C26.7762 12.2926 26.6786 12.4505 26.5664 12.5979L26.5772 12.5887ZM27.1584 11.0446C27.1446 11.2316 27.1129 11.4169 27.0641 11.5979L27.4317 11.7279C27.4367 11.7093 27.4418 11.6906 27.4464 11.6719V11.6675L27.4477 11.6631V11.6603V11.659C27.4477 11.6576 27.4477 11.6561 27.4477 11.6548V11.6519V11.6506V11.648V11.6467V11.6442V11.6421V11.6399V11.6339V11.6322V11.6293V11.6276V11.6247V11.6229V11.6183V11.6135V11.6089V11.6076V11.6058V11.603V11.6012V11.5983V11.5966V11.59V11.5885V11.5865V11.5849V11.583V11.5812V11.5792V11.5775V11.5755V11.568V11.5658V11.5639V11.5617V11.5575V11.5533V11.5489V11.5445V11.5401V11.5355C27.475 11.4021 27.4934 11.2672 27.5035 11.1314L27.1584 11.0446ZM27.0349 9.88058C27.089 10.073 27.127 10.2696 27.1485 10.4683L27.5222 10.5065C27.5101 10.3922 27.4925 10.2776 27.4695 10.1628C27.4695 10.1569 27.4673 10.151 27.4659 10.1452C27.4659 10.1437 27.4659 10.1422 27.4659 10.1406C27.4659 10.1391 27.4659 10.1376 27.4659 10.136C27.4659 10.1345 27.4659 10.1329 27.4659 10.1314V10.1283V10.1268V10.1239V10.1226V10.1198V10.1154V10.111V10.1083V10.1059V10.1037V10.1024V10.1007V10.0985V10.0974V10.0936V10.0919V10.0888V10.087V10.0837V10.082V10.0745V10.073V10.0706V10.0682V10.0664V10.0633V10.0613V10.0585V10.0565V10.0548V10.0526V10.0508V10.0488V10.0471V10.0451V10.0431V10.0411V10.0392V10.0374V10.0352V10.0334V10.0315V10.0297V10.0275V10.0231C27.4659 10.0223 27.4659 10.0215 27.4659 10.0207V10.0185V10.0163V10.0141V10.0119V10.0095V10.0071C27.4659 10.0056 27.4659 10.004 27.4659 10.0025C27.4659 10.0009 27.4659 9.99941 27.4659 9.99787L27.4646 9.99304C27.4646 9.99128 27.4646 9.98974 27.4646 9.98798C27.4558 9.95328 27.4466 9.91858 27.4369 9.88388L27.0716 9.89332L27.0349 9.88058ZM26.5108 8.72487C26.6273 8.90776 26.7309 9.09858 26.8206 9.29592L27.1687 9.23969C27.0718 9.02713 26.9599 8.82164 26.8342 8.62471L26.5108 8.72662V8.72487ZM25.6346 7.68051C25.8043 7.8377 25.9641 8.00523 26.1132 8.18215L26.4044 8.03653C26.3807 8.00842 26.3567 7.98046 26.3326 7.95263L26.3304 7.94978V7.94846L26.3284 7.94626L26.3273 7.94517L26.3257 7.94363V7.94253L26.3244 7.94121L26.3231 7.93967V7.93858L26.3218 7.93704V7.93594L26.3203 7.93418L26.3189 7.93265L26.3176 7.93089L26.3161 7.92891L26.3145 7.92738L26.3128 7.92562L26.3112 7.92408L26.3095 7.9221L26.3079 7.92035L26.3062 7.91859L26.3046 7.91683L26.3029 7.91486L26.2991 7.91068L26.2952 7.90651C26.2319 7.83607 26.1664 7.7666 26.0989 7.69808L26.0947 7.69412L26.0908 7.69017L26.0866 7.68622L26.0826 7.68226L26.0809 7.68029L26.0789 7.67831L26.0769 7.67633L26.0752 7.67458L26.0732 7.6726L26.0714 7.67084L26.0697 7.66908L26.0679 7.66755L26.0661 7.66579L26.0646 7.66403L26.0631 7.66228L26.0615 7.66052L26.0602 7.6592L26.0587 7.65744L26.0573 7.65613L26.0558 7.65437L26.0545 7.65305L26.053 7.65151L26.0514 7.6502V7.6491L26.0501 7.64778L26.0486 7.64624L26.047 7.64471V7.64361L26.0455 7.64207L26.042 7.63856L26.0382 7.63504C26.0371 7.63368 26.0358 7.63245 26.0345 7.63131C25.9987 7.59645 25.9622 7.56197 25.9246 7.52786L25.6346 7.68051ZM24.4797 6.8426C24.6892 6.96035 24.8917 7.09 25.0862 7.23091L25.2939 7.0082C25.2275 6.95989 25.1598 6.91266 25.091 6.86654L25.0862 6.86325L25.0831 6.86105H25.0816L25.0785 6.85907H25.0772L25.0748 6.85754H25.0732L25.0706 6.85578H25.0693H25.0679L25.0662 6.85446H25.0651L25.0633 6.85314H25.0622L25.0605 6.85204H25.0589L25.057 6.85073H25.0554L25.0534 6.84941H25.0519L25.0497 6.84809L25.0482 6.84699L25.046 6.84546L25.044 6.84436L25.0262 6.82393L25.024 6.82239L25.0194 6.81932L25.0145 6.81624L25.0097 6.81317L25.0049 6.81009L24.9998 6.8068C24.8901 6.73579 24.7773 6.66755 24.6617 6.6021L24.6591 6.60056L24.6564 6.59903L24.654 6.59749L24.6516 6.59595L24.6494 6.59463L24.647 6.59332L24.645 6.592L24.6428 6.59068L24.4839 6.84458L24.4797 6.8426ZM23.2017 5.98273L23.1491 6.28165C23.38 6.34926 23.6068 6.42993 23.8286 6.52325L23.9359 6.24388C23.8862 6.22191 23.8367 6.20281 23.7871 6.18304L23.7813 6.18084L23.7759 6.17865L23.7732 6.17755H23.7706H23.7682H23.7655H23.7633H23.7609H23.7587H23.7563H23.7543L23.7517 6.17645H23.7495H23.7471H23.7451H23.7431H23.7413H23.7396H23.7383H23.7365H23.735H23.7336H23.7319H23.7308H23.7293H23.7279H23.7262H23.7251H23.7235H23.7222H23.7205H23.7191H23.7172H23.7158H23.7145H23.713H23.7112H23.7097H23.7077H23.7064H23.7049H23.7033L23.7009 6.17535H23.6994L23.6965 6.17425H23.695L23.6917 6.17294H23.6899L23.6866 6.17162H23.6848L23.6811 6.1703H23.6794L23.6758 6.16898H23.6741L23.6703 6.16766H23.6684L23.6629 6.16547L23.6574 6.16349L23.6517 6.16151L23.6459 6.15932L23.6193 6.1211L23.6136 6.11912C23.4767 6.06905 23.3393 6.02396 23.2017 5.98383V5.98273ZM21.7034 5.73169L21.7634 6.0495C21.9955 6.05952 22.2267 6.08379 22.4558 6.1222L22.4519 5.81032L22.3831 5.79934H22.3796H22.3776H22.3743H22.3725H22.3695H22.3664H22.3637H22.3174H22.3147H22.3121H22.3092H22.3035H22.2978C22.0985 5.77122 21.9011 5.75306 21.7056 5.74487L21.7034 5.73169ZM20.2761 5.85754L20.4423 6.16503C20.6547 6.11618 20.8702 6.08214 21.0873 6.06312L20.9727 5.74772C20.8646 5.75717 20.7575 5.76969 20.6518 5.78594H20.6465H20.6412H20.6364H20.634H20.5858H20.5834H20.5788H20.5742H20.5709H20.5691H20.5658H20.5608H20.5557C20.4621 5.80191 20.3699 5.82049 20.2792 5.84173L20.2761 5.85754ZM19.0451 6.34754L19.303 6.61945C19.4755 6.51585 19.6562 6.42652 19.8433 6.35238L19.629 6.05894C19.5264 6.0998 19.4264 6.14432 19.3289 6.19248L19.3245 6.19468L19.3199 6.19688L19.3039 6.205L19.2995 6.2072L19.2949 6.20939L19.2927 6.21049L19.2836 6.21511L19.2792 6.2173L19.2749 6.21972L19.2592 6.22784L19.2548 6.23004L19.2505 6.23224L19.2458 6.23465L19.2392 6.23817L19.2348 6.24058L19.2304 6.24278L19.2261 6.24498L19.2217 6.24739L19.2151 6.25091L19.2107 6.25332L19.2065 6.25574L19.2021 6.25815L19.1977 6.26057L19.1933 6.26299L19.1911 6.2643L19.1869 6.2665L19.1827 6.2687L19.1786 6.27111L19.1742 6.27353L19.1698 6.27594H19.1676L19.1632 6.27836L19.159 6.28078L19.1548 6.28319L19.1529 6.28451L19.1507 6.28561H19.1487L19.1467 6.28671L19.1445 6.2878L19.1425 6.2889H19.1403L19.1364 6.2911L19.1324 6.29351L19.1304 6.29461H19.1285H19.1267H19.1249L19.1232 6.29571H19.1216H19.1199H19.1183H19.1166L19.1148 6.29681H19.1133H19.1113H19.11H19.1082H19.1069L19.1052 6.29791H19.1036H19.1019H19.1003H19.099H19.0975H19.0961H19.0946H19.0935H19.092H19.0909H19.0893H19.088H19.0869H19.0851H19.084L19.0821 6.29901L19.0797 6.30032L19.0757 6.30274L19.0726 6.3045L19.0451 6.34754ZM18.1206 7.16019L18.4479 7.37104C18.5635 7.22252 18.6929 7.08523 18.8343 6.96098L18.5385 6.71697C18.507 6.74464 18.4763 6.77254 18.4461 6.80131L18.4428 6.80438L18.4398 6.80724L18.4382 6.80856V6.80966V6.81075L18.4369 6.81207L18.4356 6.81339V6.81449L18.4343 6.8158L18.4329 6.81712L18.4314 6.81866L18.4301 6.8202L18.4286 6.82174L18.427 6.82327L18.4253 6.82481L18.422 6.8281L18.4187 6.8314L18.4154 6.83469C18.3158 6.93289 18.2229 7.0375 18.1371 7.14789L18.1206 7.16019Z" fill="#FF922E"/>
<path id="Vector_65" d="M17.1843 7.4443C17.4481 6.89653 17.8438 6.43244 18.361 6.06521C18.8611 5.71028 19.4529 5.46034 20.1196 5.32175C20.7863 5.18316 21.4963 5.16339 22.2276 5.26267C23.7789 5.48355 25.2244 6.17685 26.3673 7.24816C26.9023 7.75618 27.3303 8.32173 27.6398 8.92858C27.9493 9.53543 28.1234 10.1535 28.1597 10.7652C28.1966 11.3984 28.0818 11.9973 27.8187 12.5442C27.5556 13.0911 27.1593 13.5561 26.642 13.9233C26.1419 14.2782 25.55 14.5282 24.8835 14.6668C24.217 14.8053 23.5068 14.8251 22.7754 14.7258C21.2241 14.505 19.7786 13.8117 18.6358 12.7403C18.1019 12.2332 17.6726 11.6679 17.3633 11.0608C17.054 10.4537 16.8797 9.83589 16.8434 9.22421C16.8065 8.59101 16.9212 7.99228 17.1843 7.44517M17.0964 7.40278C16.0015 9.68039 17.5343 12.6883 20.5199 14.1201C23.5054 15.5519 26.8133 14.8668 27.9077 12.5875C29.0022 10.3081 27.4694 7.30109 24.4839 5.8693C21.4983 4.4375 18.1898 5.12342 17.096 7.40191L17.0964 7.40278Z" fill="#F7FAF6"/>
<path id="Vector_66" d="M17.5097 7.60026C17.7568 7.08588 18.1285 6.65034 18.6143 6.30442C19.0838 5.97123 19.6395 5.73644 20.266 5.60642C20.8925 5.4764 21.5586 5.45795 22.2444 5.55107C23.7014 5.75904 25.0587 6.41063 26.1317 7.41709C26.634 7.89413 27.036 8.42477 27.3264 8.99472C27.6168 9.56467 27.781 10.1447 27.8144 10.7189C27.8491 11.3134 27.7414 11.8757 27.4943 12.39C27.2472 12.9044 26.8755 13.34 26.3895 13.6848C25.9202 14.018 25.3645 14.2528 24.7378 14.3828C24.1111 14.5128 23.4453 14.5313 22.7594 14.4381C21.3022 14.2309 19.9445 13.5797 18.8713 12.5732C18.369 12.0962 17.9672 11.5655 17.6768 10.9956C17.3864 10.4256 17.222 9.8458 17.1886 9.27146C17.1538 8.67691 17.2616 8.11465 17.5088 7.60026M17.4209 7.55787C16.3922 9.69931 17.8329 12.5262 20.6388 13.8719C23.4448 15.2176 26.5535 14.5728 27.5822 12.4316C28.611 10.2903 27.1703 7.46321 24.3643 6.11751C21.5583 4.77181 18.4501 5.41666 17.4205 7.55787H17.4209Z" fill="#F7FAF6"/>
<path id="Vector_67" d="M25.3254 9.0204C25.2933 9.05005 25.2842 9.09837 25.3506 9.177L25.0739 9.75793L25.3322 9.98262C25.3895 10.0325 25.4104 10.1014 25.3847 10.155L25.0312 9.84754L24.9908 9.93254L25.2484 10.1568C25.3058 10.2066 25.3269 10.2756 25.301 10.3292L24.9492 10.0217L24.9088 10.1069L25.1658 10.3305C25.2231 10.3804 25.2442 10.4493 25.2185 10.5029L24.8668 10.1954L24.5685 10.8221L24.3634 11.2492C24.2924 11.1959 24.2638 11.1155 24.2935 11.0536L24.4492 10.7294L22.3906 9.13241L21.9707 10.0088C22.8139 10.6938 23.7798 11.4377 24.6481 12.1346C24.7945 12.2521 25.0422 12.2561 25.1073 12.1256C25.5071 11.3239 25.8712 10.5051 26.271 9.70346C26.293 9.65778 26.273 9.59782 26.2205 9.55784L25.5318 9.03226C25.4658 8.98218 25.3739 8.97515 25.3254 9.0204Z" fill="#FF922E"/>
<path id="Vector_68" d="M20.1323 7.37858L20.1301 7.37682L20.122 7.39395L19.7316 8.2066L19.6992 8.27249C19.659 8.35639 19.7155 8.46709 19.8254 8.5198L19.9081 8.34761L20.04 8.07416C20.1035 8.13017 20.1279 8.20594 20.1015 8.26766C20.0751 8.32938 20.0512 8.38385 20.0261 8.44205L20.8995 9.14488L21.3112 8.29336L20.3097 7.51541L20.3209 7.49169C20.3396 7.45282 20.3189 7.40032 20.2701 7.37155C20.2213 7.34278 20.1606 7.34717 20.1323 7.37858Z" fill="#FF922E"/>
<path id="Vector_69" d="M22.1712 7.4753L22.1407 7.46301C21.4265 7.17858 20.6855 7.37515 20.4309 7.90513L20.321 8.13245L19.6934 9.43884C19.6323 9.56622 19.682 9.73007 19.8181 9.84889L20.1425 10.1529L20.0783 10.2866C20.0344 10.3791 20.0482 10.4931 20.117 10.5954L20.4819 9.83616C20.5149 9.77013 20.548 9.70475 20.5813 9.64002C20.6312 9.5425 20.782 9.52845 20.8967 9.60181L21.4546 10.0898L21.4142 10.1742L20.8758 9.70569L20.8501 9.75928L21.3889 10.2282L21.3372 10.336L20.7989 9.86756C20.6562 10.1463 20.5393 10.3714 20.3966 10.6503C20.3623 10.7173 20.3808 10.8041 20.4445 10.8733C20.4725 10.9031 20.5037 10.9299 20.5375 10.953C20.5909 10.9901 20.663 10.9794 20.6769 10.931C20.6768 10.9305 20.6768 10.93 20.6769 10.9295C20.6907 10.8761 20.6446 10.828 20.6408 10.8245L20.671 10.7619L20.731 10.6369L20.8769 10.3332C20.9286 10.358 20.9552 10.4101 20.9363 10.4496L20.8132 10.7057C22.0277 11.7261 22.9058 12.4538 23.1652 12.7055C23.4246 12.9572 23.5939 12.9297 23.6787 12.8777C23.7139 12.8561 23.7418 12.8248 23.7594 12.7876L24.0709 12.139L22.6273 10.917L22.5664 11.0439C22.5333 11.1129 22.433 11.1338 22.3424 11.0903L22.484 10.7955L22.69 10.3668C23.4031 10.3314 24.1219 10.2989 24.835 10.2636C24.9768 9.96881 25.1124 9.67055 25.2539 9.37646L22.9599 9.53548L23.1345 9.20317C23.3778 8.69647 23.1063 8.02966 22.4867 7.63893C22.3863 7.57566 22.2808 7.52092 22.1712 7.4753ZM21.5814 10.3951L21.5344 10.4946L21.3821 10.3628L21.4295 10.264L21.5814 10.3951ZM21.6474 10.2572L21.6118 10.3321L21.4605 10.2003L21.4966 10.125L21.6474 10.2572ZM21.8606 9.81441C21.8136 9.91039 21.7564 10.0281 21.69 10.1676L21.5397 10.0358L21.7094 9.68263L21.8606 9.81441ZM21.499 10.0004L20.9783 9.54492C21.0499 9.4026 21.108 9.28421 21.1506 9.19658L21.6687 9.64727L21.499 10.0004ZM21.9435 9.64595L21.9215 9.68988L21.9041 9.7248L21.7522 9.59302L21.7907 9.51263L21.9435 9.64595ZM21.7116 9.5581L21.1928 9.10807L21.2315 9.0279L21.7494 9.47837L21.7116 9.5581ZM22.0521 9.14892C22.0741 9.31035 22.0395 9.43444 21.9861 9.5559L21.834 9.42412C21.8759 9.35068 21.9126 9.27444 21.9439 9.19592C21.9905 9.0793 21.9998 9.02021 21.9879 8.95432C21.9827 8.92415 21.974 8.89465 21.9619 8.86647C22.0071 8.95507 22.0373 9.0505 22.0512 9.14892H22.0521ZM21.8323 8.73601C21.9239 8.80497 21.9338 8.90798 21.9391 8.96311C21.9463 9.03713 21.9268 9.0894 21.8872 9.19109C21.8608 9.25935 21.8291 9.32544 21.7925 9.38876L21.2759 8.93939C21.2818 8.91501 21.3315 8.72151 21.5397 8.68439C21.5683 8.6789 21.7204 8.65189 21.832 8.73601H21.8323Z" fill="#FF922E"/>
<path id="Vector_70" d="M21.1496 9.19604C21.107 9.28397 21.049 9.40221 20.9773 9.54466L21.498 10.0006L21.6677 9.64709L21.1496 9.19604ZM21.4728 9.91727L21.0443 9.54226C21.0883 9.45433 21.1323 9.3664 21.1747 9.27848L21.6011 9.64975L21.4728 9.91727Z" fill="white"/>
<path id="Vector_71" d="M21.6108 10.3323L21.6464 10.2571L21.4956 10.1252L21.4596 10.2006L21.6108 10.3323Z" fill="white"/>
<path id="Vector_72" d="M21.5343 10.4949L21.5813 10.3953L21.4294 10.2634L21.382 10.3623L21.5343 10.4949ZM21.4486 10.3593L21.4547 10.3463L21.5149 10.3984L21.5086 10.4116L21.4486 10.3593Z" fill="white"/>
<path id="Vector_73" d="M22.1867 7.4335L22.1553 7.42054C21.7968 7.278 21.4176 7.24681 21.087 7.33269C20.7564 7.41857 20.506 7.61272 20.3778 7.87958L20.2679 8.1069L19.6406 9.41351C19.5715 9.55715 19.628 9.74296 19.7808 9.87759L19.9421 10.0287L20.0767 10.1548L20.0252 10.2615C19.9753 10.3656 19.9918 10.4967 20.0692 10.6129L20.1305 10.7039L20.1699 10.6217L20.5348 9.86244C20.5669 9.79787 20.6007 9.73198 20.6337 9.66697C20.6436 9.64928 20.6578 9.63437 20.6749 9.62359C20.6921 9.6128 20.7117 9.6065 20.732 9.60525C20.7722 9.60103 20.8127 9.60867 20.8487 9.62721L20.8227 9.68146L20.797 9.73505L20.7832 9.76338L20.8137 9.78974L21.3215 10.2316L21.311 10.2536L21.1142 10.0823L20.8344 9.83872L20.7742 9.78623L20.7456 9.84201C20.6739 9.98192 20.6089 10.1084 20.5436 10.2349C20.4783 10.3614 20.415 10.4849 20.344 10.6237C20.344 10.6252 20.3424 10.6265 20.3418 10.6279C20.3024 10.71 20.3257 10.813 20.4027 10.8969C20.4341 10.9311 20.4693 10.9617 20.5075 10.9881C20.5448 11.0145 20.5902 11.0268 20.6357 11.0228C20.6544 11.0219 20.6726 11.0162 20.6885 11.0062C20.7043 10.9963 20.7173 10.9824 20.7262 10.9659C20.7285 10.9612 20.7303 10.9564 20.7317 10.9514V10.9488C20.736 10.9278 20.7357 10.9063 20.731 10.8855C20.7262 10.8647 20.7171 10.8452 20.7043 10.8282L20.7236 10.7878L20.7566 10.7188L20.7786 10.7364C21.0142 10.9342 21.2364 11.1206 21.445 11.2956C22.301 12.0131 22.9196 12.5317 23.1267 12.7326C23.428 13.0252 23.6265 12.9742 23.718 12.9187C23.7591 12.8935 23.792 12.857 23.8127 12.8134L24.1249 12.1653L24.1387 12.1363L24.1073 12.11L22.6628 10.8873L22.6015 10.8352L22.5743 10.8919L22.5134 11.019C22.5041 11.0352 22.4903 11.0482 22.4736 11.0565C22.4569 11.0648 22.4382 11.068 22.4197 11.0656L22.5369 10.8214L22.7327 10.4135C23.0803 10.3962 23.4342 10.3795 23.7769 10.3632C24.1139 10.3472 24.4616 10.3307 24.8037 10.3138L24.8274 10.2644C24.1167 10.2995 23.4005 10.332 22.6899 10.3672L22.4839 10.7959L22.3423 11.0906C22.4329 11.1346 22.5331 11.1126 22.5663 11.0443L22.6272 10.9173L24.0708 12.1392L23.7593 12.7873C23.7417 12.8245 23.7138 12.8558 23.6786 12.8774C23.5938 12.9294 23.4269 12.9593 23.1651 12.7052C22.9033 12.4511 22.028 11.7258 20.8131 10.7065L20.9362 10.4502C20.9551 10.4106 20.9285 10.3586 20.8768 10.3338L20.7309 10.6375L20.6708 10.7625L20.6407 10.8251C20.6445 10.8286 20.6906 10.8767 20.6768 10.9301C20.6767 10.9306 20.6767 10.9311 20.6768 10.9316C20.6759 10.9347 20.6748 10.9377 20.6733 10.9406C20.6537 10.9815 20.5875 10.9887 20.5374 10.954C20.5038 10.9307 20.4727 10.9038 20.4449 10.8739C20.3822 10.8056 20.3633 10.7201 20.3952 10.6542C20.3952 10.6531 20.3963 10.652 20.397 10.6507C20.5396 10.372 20.6566 10.1469 20.7992 9.86815L21.3376 10.3366L21.3892 10.2288L20.8511 9.76031L20.8768 9.70672L21.4152 10.1752L21.4556 10.0909L20.8977 9.60283C20.783 9.52925 20.6322 9.54353 20.5823 9.64105C20.5488 9.70562 20.5157 9.77101 20.4829 9.83718L20.118 10.5965C20.0492 10.4941 20.0349 10.3801 20.0793 10.2877L20.1435 10.1539L19.8186 9.84904C19.6825 9.73022 19.6329 9.56637 19.694 9.43898L20.322 8.1326L20.4319 7.90528C20.6865 7.37552 21.4275 7.17873 22.1417 7.46315L22.1722 7.47545C22.2817 7.52107 22.3871 7.5758 22.4874 7.63908C23.1071 8.02981 23.3786 8.69662 23.1352 9.20332L22.9598 9.53562L25.2541 9.37727L25.2782 9.32675L25.238 9.32961L23.9037 9.42185L23.0552 9.48028L23.1871 9.22967C23.3095 8.97468 23.3095 8.67004 23.1871 8.372C23.0647 8.07396 22.8246 7.80095 22.5138 7.60328C22.4097 7.53765 22.3003 7.48086 22.1867 7.4335ZM20.8652 9.63534L20.9217 9.68454L20.9126 9.67663L20.8643 9.63468L20.8652 9.63534Z" fill="white"/>
<path id="Vector_74" d="M21.6891 10.168C21.7075 10.1292 21.7253 10.092 21.7422 10.0566C21.7862 9.96467 21.8253 9.88408 21.8596 9.81475L21.7084 9.68286L21.5387 10.0363L21.6891 10.168ZM21.6053 10.0333L21.7337 9.76573L21.7928 9.81739C21.759 9.88641 21.7242 9.95829 21.6893 10.0313L21.6629 10.0845L21.6053 10.0333Z" fill="white"/>
<path id="Vector_75" d="M21.9619 8.8667C21.9733 8.89433 21.9817 8.92315 21.9869 8.95265C21.9981 9.01969 21.9889 9.07838 21.943 9.19445C21.9293 9.22874 21.9126 9.26765 21.8924 9.31029C21.8753 9.34546 21.8559 9.38325 21.8335 9.42282L21.9856 9.55471C22.0392 9.43249 22.0735 9.30895 22.0516 9.14739C22.0373 9.04954 22.007 8.95469 21.9619 8.8667ZM21.9566 9.4703L21.901 9.42174C21.9161 9.3936 21.9309 9.36501 21.9449 9.33621C21.9634 9.29774 21.9808 9.25798 21.9966 9.21841L22.0012 9.20676C22.0049 9.29704 21.9897 9.38712 21.9566 9.4712V9.4703Z" fill="white"/>
<path id="Vector_76" d="M21.8869 9.19172C21.9265 9.08994 21.9461 9.03785 21.9388 8.96355C21.9336 8.90837 21.9237 8.80528 21.832 8.73626C21.7203 8.65207 21.5682 8.6791 21.5401 8.68416C21.4882 8.69304 21.4393 8.71452 21.3976 8.74672C21.3559 8.7789 21.3228 8.82082 21.3011 8.86881C21.2902 8.89138 21.2817 8.91503 21.2756 8.93937L21.7922 9.38912C21.8083 9.3612 21.8258 9.32889 21.8434 9.29218C21.8582 9.2625 21.8729 9.22821 21.8869 9.19172ZM21.3374 8.93299C21.3418 8.9198 21.347 8.90688 21.353 8.89431C21.3717 8.85214 21.4005 8.81522 21.4368 8.78673C21.4731 8.75826 21.5158 8.73911 21.5612 8.73098C21.6067 8.72285 21.721 8.71032 21.7986 8.76879C21.8685 8.82155 21.8766 8.90662 21.8815 8.95739C21.8876 9.02136 21.8718 9.06576 21.8318 9.16864C21.819 9.20183 21.8047 9.23458 21.7894 9.2669C21.7825 9.28075 21.7757 9.29459 21.7685 9.30844L21.3374 8.93299Z" fill="white"/>
<path id="Vector_77" d="M21.2314 9.02734L21.1927 9.10824L21.7106 9.5593L21.7493 9.47885L21.2314 9.02734Z" fill="white"/>
<path id="Vector_78" d="M21.9425 9.64617L21.7887 9.51318L21.7509 9.59364L21.9027 9.72553L21.9201 9.69058L21.9425 9.64617Z" fill="white"/>
<path id="Vector_79" d="M16.3321 9.18042C16.2903 8.47891 16.4172 7.81474 16.7093 7.20635L15.0167 6.39502L15.0127 6.40293C14.6294 7.20064 14.479 8.06292 14.5346 8.93817L16.3321 9.18042Z" fill="#F7FAF6"/>
<path id="Vector_80" d="M17.2886 4.0786L18.4072 5.34654C19.0447 5.00194 19.778 4.78955 20.5834 4.71532L20.0567 3.27979C19.0432 3.37203 18.0997 3.64306 17.2886 4.0786Z" fill="white"/>
<path id="Vector_81" d="M24.6659 5.50076C25.1196 5.71831 25.5531 5.97554 25.9615 6.26948L26.8968 5.25916C25.9978 4.61265 25.0053 4.10687 23.9537 3.75928L23.6433 5.08894C23.9926 5.20436 24.3342 5.3419 24.6659 5.50076Z" fill="white"/>
<path id="Vector_82" d="M29.5281 8.1084L28.0289 8.50923C28.4292 9.198 28.6715 9.90633 28.7491 10.6149L30.4454 10.784C30.3458 9.88151 30.0302 8.9709 29.5281 8.1084Z" fill="white"/>
<path id="Vector_83" d="M28.7271 15.3302L28.7543 15.2944C28.7728 15.2707 28.7913 15.2468 28.8093 15.2226L29.8411 13.8723L28.0421 15.7214L28.0861 16.0032C28.3197 15.7987 28.5343 15.5735 28.7271 15.3302Z" fill="#EDE8E8"/>
<path id="Vector_84" d="M21.2864 17.3201C22.4554 17.5903 23.6105 17.6413 24.6755 17.4889L24.7127 16.7275L21.5576 16.385L21.2864 17.3201Z" fill="#EDE8E8"/>
<path id="Vector_85" d="M15.0334 13.1109C15.6285 14.0114 16.4297 14.846 17.4024 15.5501L17.9008 14.5783L15.7129 12.2644L15.0334 13.1109Z" fill="#EDE8E8"/>
<path id="Vector_86" d="M15.0134 6.40308L14.611 6.71276C14.5039 6.87953 14.4071 7.05262 14.321 7.2311C13.9592 7.98444 13.8049 8.79533 13.8354 9.62028L14.5347 8.93832L15.0134 6.40308Z" fill="#EDE8E8"/>
<path id="Vector_87" d="M28.0423 15.7217C28.7928 15.2552 29.4114 14.6349 29.8413 13.8726L28.2692 13.041C27.9375 13.6268 27.4618 14.1144 26.8551 14.4906L28.0423 15.7217Z" fill="white"/>
<path id="Vector_88" d="M21.5576 16.3848C22.633 16.6813 23.7041 16.7911 24.7127 16.7272L24.2647 15.3178C23.45 15.3617 22.6141 15.2642 21.7807 15.0264L21.5576 16.3848Z" fill="white"/>
<path id="Vector_89" d="M17.9007 14.5781L18.9222 13.5854C18.2408 13.0582 17.6717 12.4474 17.2336 11.7708L15.7129 12.2643C16.2695 13.1105 17.0085 13.9003 17.9007 14.5781Z" fill="white"/>
<path id="Vector_90" d="M16.3321 9.18042C16.2903 8.47891 16.4172 7.81474 16.7093 7.20635L15.0167 6.39502L15.0127 6.40293C14.6294 7.20064 14.479 8.06292 14.5346 8.93817L16.3321 9.18042Z" fill="white"/>
<path id="Vector_91" d="M7.81441 10.0088H7.61658V10.0747H7.81441V10.0088Z" fill="#FF922E"/>
</g>
<defs>
<linearGradient id="paint0_linear_70_3623" x1="4.78305" y1="10.5021" x2="13.1341" y2="13.2578" gradientUnits="userSpaceOnUse">
<stop stop-color="#D86C1A"/>
<stop offset="1" stop-color="#E87E25"/>
</linearGradient>
<linearGradient id="paint1_linear_70_3623" x1="11.8871" y1="9.79553" x2="10.5865" y2="14.9257" gradientUnits="userSpaceOnUse">
<stop stop-color="#FF922E"/>
<stop offset="1" stop-color="#FFC239"/>
</linearGradient>
<linearGradient id="paint2_linear_70_3623" x1="5.55268" y1="7.93885" x2="13.904" y2="10.6946" gradientUnits="userSpaceOnUse">
<stop stop-color="#D86C1A"/>
<stop offset="1" stop-color="#E87E25"/>
</linearGradient>
<linearGradient id="paint3_linear_70_3623" x1="12.6568" y1="7.23218" x2="11.3563" y2="12.3623" gradientUnits="userSpaceOnUse">
<stop stop-color="#FF922E"/>
<stop offset="1" stop-color="#FFC239"/>
</linearGradient>
<linearGradient id="paint4_linear_70_3623" x1="13.8322" y1="10.8226" x2="29.8413" y2="10.8226" gradientUnits="userSpaceOnUse">
<stop stop-color="#D86C1A"/>
<stop offset="1" stop-color="#E87E25"/>
</linearGradient>
</defs>
</svg>
