<svg width="18" height="17" viewBox="0 0 18 17" fill="none" xmlns="http://www.w3.org/2000/svg">
<g id="svg3393963975" clip-path="url(#clip0_1_248)">
<path id="Vector" d="M17.973 3.2368C17.508 3.8568 16.947 4.3968 16.31 4.8378C16.31 4.99979 16.31 5.16079 16.31 5.33179C16.315 8.27079 15.142 11.0888 13.052 13.1538C10.962 15.2198 8.13099 16.3598 5.19399 16.3188C3.49599 16.3248 1.81999 15.9368 0.295988 15.1858C0.213988 15.1498 0.160988 15.0688 0.161988 14.9788V14.8798C0.161988 14.7508 0.265988 14.6468 0.394988 14.6468C2.06399 14.5918 3.67399 14.0128 4.99599 12.9918C3.48599 12.9618 2.12599 12.0668 1.50099 10.6908C1.46899 10.6158 1.47899 10.5288 1.52699 10.4628C1.57399 10.3968 1.65299 10.3608 1.73399 10.3668C2.19299 10.4128 2.65699 10.3708 3.09999 10.2408C1.43199 9.8948 0.178988 8.5098 -1.15572e-05 6.81579C-0.00701156 6.7338 0.0299884 6.65579 0.0959884 6.60779C0.161988 6.55979 0.247988 6.54979 0.322988 6.58179C0.770988 6.77979 1.25399 6.88379 1.74299 6.88779C0.281989 5.92779 -0.349012 4.1038 0.206988 2.4458C0.263988 2.2848 0.401988 2.1658 0.569988 2.1328C0.736988 2.0998 0.909988 2.1568 1.02399 2.2838C2.99599 4.3828 5.70599 5.63379 8.58199 5.77279C8.50799 5.47879 8.47199 5.1768 8.47399 4.8738C8.50099 3.2848 9.48399 1.8688 10.963 1.2898C12.443 0.710795 14.125 1.0818 15.223 2.2298C15.971 2.0878 16.695 1.8358 17.371 1.4838C17.42 1.4528 17.483 1.4528 17.532 1.4838C17.563 1.5338 17.563 1.5968 17.532 1.6458C17.205 2.3958 16.652 3.0238 15.951 3.4438C16.565 3.3728 17.169 3.2278 17.748 3.0128C17.797 2.9788 17.861 2.9788 17.91 3.0128C17.951 3.0308 17.981 3.0668 17.994 3.1098C18.006 3.1538 17.998 3.1998 17.973 3.2368Z" fill="#FAF9FB"/>
</g>
<defs>
<clipPath id="clip0_1_248">
<rect width="18" height="16" fill="white" transform="translate(0 0.52002)"/>
</clipPath>
</defs>
</svg>
