<svg width="18" height="19" viewBox="0 0 18 19" fill="none" xmlns="http://www.w3.org/2000/svg">
<g id="svg884905854" clip-path="url(#clip0_1_256)">
<path id="Vector" d="M2 0.52002H16C17.105 0.52002 18 1.41502 18 2.52002V16.52C18 17.625 17.105 18.52 16 18.52H2C0.895 18.52 0 17.625 0 16.52V2.52002C0 1.41502 0.895 0.52002 2 0.52002ZM5 15.52C5.276 15.52 5.5 15.296 5.5 15.02V8.02002C5.5 7.74402 5.276 7.52002 5 7.52002H3.5C3.224 7.52002 3 7.74402 3 8.02002V15.02C3 15.296 3.224 15.52 3.5 15.52H5ZM4.25 6.52002C3.422 6.52002 2.75 5.84802 2.75 5.02002C2.75 4.19202 3.422 3.52002 4.25 3.52002C5.078 3.52002 5.75 4.19202 5.75 5.02002C5.75 5.84802 5.078 6.52002 4.25 6.52002ZM14.5 15.52C14.776 15.52 15 15.296 15 15.02V10.42C15.033 8.83102 13.858 7.47502 12.28 7.28002C11.177 7.17902 10.108 7.69402 9.5 8.62002V8.02002C9.5 7.74402 9.276 7.52002 9 7.52002H7.5C7.224 7.52002 7 7.74402 7 8.02002V15.02C7 15.296 7.224 15.52 7.5 15.52H9C9.276 15.52 9.5 15.296 9.5 15.02V11.27C9.5 10.442 10.172 9.77002 11 9.77002C11.828 9.77002 12.5 10.442 12.5 11.27V15.02C12.5 15.296 12.724 15.52 13 15.52H14.5Z" fill="#FAF9FB"/>
</g>
<defs>
<clipPath id="clip0_1_256">
<rect width="18" height="18" fill="white" transform="translate(0 0.52002)"/>
</clipPath>
</defs>
</svg>
