<svg width="24" height="25" viewBox="0 0 24 25" fill="none" xmlns="http://www.w3.org/2000/svg">
<g id="image">
<path id="Vector" d="M15.983 11.574L10.733 8.19902C10.564 8.09002 10.367 8.02802 10.165 8.02102C9.964 8.01402 9.763 8.06102 9.586 8.15802C9.409 8.25502 9.261 8.39702 9.158 8.57102C9.055 8.74502 9 8.94302 9 9.14502V15.895C9 16.097 9.055 16.295 9.158 16.469C9.261 16.643 9.409 16.785 9.586 16.882C9.763 16.979 9.964 17.026 10.165 17.019C10.367 17.012 10.564 16.95 10.733 16.841L15.983 13.466C16.142 13.364 16.272 13.224 16.362 13.059C16.452 12.893 16.499 12.708 16.499 12.52C16.499 12.332 16.452 12.146 16.362 11.981C16.272 11.816 16.142 11.676 15.983 11.574ZM11.25 13.832V11.207L13.295 12.52L11.25 13.832ZM22.332 6.94202C22.229 6.53802 22.031 6.16502 21.755 5.85302C21.479 5.54102 21.133 5.30002 20.745 5.14702C17.475 3.88702 12.308 3.89502 12 3.89502C11.692 3.89502 6.525 3.88702 3.255 5.14902C2.867 5.30102 2.521 5.54302 2.245 5.85502C1.969 6.16702 1.771 6.54002 1.668 6.94402C1.42 7.90002 1.125 9.64402 1.125 12.52C1.125 15.396 1.42 17.14 1.668 18.096C1.771 18.5 1.969 18.873 2.245 19.185C2.521 19.497 2.867 19.739 3.255 19.891C6.395 21.103 11.284 21.145 11.941 21.145H12.059C12.715 21.145 17.605 21.103 20.745 19.891C21.133 19.739 21.479 19.497 21.755 19.185C22.031 18.873 22.229 18.5 22.332 18.096C22.58 17.14 22.875 15.396 22.875 12.52C22.875 9.64402 22.58 7.90002 22.332 6.94402V6.94202ZM20.156 17.532C20.143 17.589 20.116 17.643 20.078 17.688C20.04 17.733 19.991 17.769 19.937 17.792C17.136 18.873 12.4 18.895 12.03 18.895H11.993C11.944 18.895 6.965 18.911 4.066 17.792C4.011 17.769 3.962 17.734 3.924 17.688C3.885 17.643 3.858 17.59 3.844 17.532C3.667 16.853 3.375 15.299 3.375 12.52C3.375 9.74102 3.67 8.18702 3.844 7.50802C3.857 7.45102 3.884 7.39702 3.922 7.35202C3.96 7.30702 4.009 7.27102 4.063 7.24802C6.965 6.12902 11.943 6.14502 11.992 6.14502H12.007C12.057 6.14502 17.035 6.12902 19.934 7.24802C19.989 7.27102 20.038 7.30602 20.076 7.35202C20.115 7.39702 20.142 7.45002 20.156 7.50802C20.332 8.18702 20.625 9.74102 20.625 12.52C20.625 15.299 20.33 16.853 20.156 17.532Z" fill="white"/>
</g>
</svg>
