<svg width="475" height="622" viewBox="0 0 475 622" fill="none" xmlns="http://www.w3.org/2000/svg">
<path fill-rule="evenodd" clip-rule="evenodd" d="M211.617 82.5686C251.779 64.5988 294.652 45.797 338.003 53.2432C380.535 60.5487 410.152 96.6934 444.646 122.595C478.294 147.862 406.832 225.81 426.5 263C446.565 300.939 503.588 328.317 499 371C494.442 413.399 537.19 413.433 512.222 448.028C487.315 482.538 451.506 506.807 412.951 524.851C374.12 543.024 332.366 553.918 289.534 552.247C245.216 550.518 198.11 543.63 164.149 515.144C130.798 487.171 123.488 440.43 107.816 399.827C93.0123 361.477 75.1164 324.344 74.6303 283.232C74.1119 239.391 80.2169 193.748 104.95 157.518C129.87 121.014 171.262 100.624 211.617 82.5686Z" fill="#FF0404" fill-opacity="0.14"/>
<path fill-rule="evenodd" clip-rule="evenodd" d="M254.539 66.2432C297.364 56.1472 343.008 45.7438 384.185 61.2101C424.584 76.384 446.875 117.454 475.882 149.38C504.178 180.525 540.449 206.541 552.772 246.766C565.343 287.802 556.941 332.003 544.407 373.061C531.957 413.846 512.078 452.434 481.049 481.715C450.097 510.925 410.363 528.026 369.102 538.498C327.547 549.043 284.488 551.891 242.735 542.195C199.533 532.162 154.563 516.537 126.565 482.173C99.0699 448.426 100.681 401.145 92.924 358.319C85.5973 317.869 75.0043 278.033 82.2586 237.563C89.9945 194.407 104.574 150.727 135.68 119.795C167.02 88.629 211.509 76.3874 254.539 66.2432Z" stroke="#FF0404"/>
<path fill-rule="evenodd" clip-rule="evenodd" d="M313.652 68.605C357.648 69.0748 404.455 69.9223 440.721 94.813C476.301 119.233 488.092 164.451 508.595 202.402C528.596 239.425 557.567 273.38 559.883 315.387C562.246 358.24 543.488 399.135 521.473 435.989C499.604 472.598 471.05 505.291 433.904 526.277C396.85 547.21 354.174 554.283 311.606 554.552C268.734 554.824 226.249 547.261 188.041 527.834C148.506 507.732 108.596 481.778 89.6566 441.702C71.058 402.346 83.962 356.83 86.7026 313.395C89.2913 272.368 88.5618 231.154 105.311 193.605C123.171 153.564 147.802 114.656 185.419 92.0864C223.319 69.3471 269.444 68.1328 313.652 68.605Z" stroke="#FF0404"/>
<path fill-rule="evenodd" clip-rule="evenodd" d="M70.4784 262.966C78.7708 219.755 87.9348 173.847 118.882 142.589C149.245 111.923 195.839 108.368 236.834 94.9465C276.824 81.8538 315.394 59.3876 357.142 64.5845C399.732 69.8862 436.636 95.6227 468.983 123.845C501.116 151.881 528.206 185.797 542.245 226.084C556.25 266.273 555.615 309.526 548.304 351.463C540.941 393.698 525.938 434.159 500.021 468.3C473.205 503.626 440.562 538.28 397.755 549.785C355.717 561.082 313.225 540.284 270.971 529.857C231.059 520.008 190.373 513.391 156.405 490.227C120.181 465.525 86.278 434.364 70.7635 393.331C55.1323 351.989 62.1463 306.383 70.4784 262.966Z" stroke="#FF0404"/>
</svg>
