<svg width="270" height="483" viewBox="0 0 270 483" fill="none" xmlns="http://www.w3.org/2000/svg">
<path fill-rule="evenodd" clip-rule="evenodd" d="M238.118 19.1846C272.491 28.5527 289.797 64.8135 319.61 84.3566C351.901 105.524 401.806 103.278 419.123 137.838C436.531 172.581 417.082 214.283 402.826 250.44C389.357 284.598 367.513 313.178 340.291 337.764C310.046 365.08 276.652 386.033 238.118 399.197C182.397 418.232 117.888 462.961 68.698 430.545C20.0802 398.506 25.5241 321.636 32.5693 263.742C37.9924 219.177 87.4059 194.889 102.518 152.627C116.828 112.608 86.2423 58.7855 116.506 29.0033C146.255 -0.272589 197.889 8.22092 238.118 19.1846Z" fill="#FF0404" fill-opacity="0.14"/>
<path fill-rule="evenodd" clip-rule="evenodd" d="M217.44 28.6601C251.001 34.1933 270.973 66.9087 301.195 82.5412C333.927 99.4728 381.107 92.47 400.924 123.571C420.845 154.836 406.441 196.303 396.426 232C386.965 265.725 369.006 294.973 345.548 320.958C319.486 349.829 289.813 372.969 254.498 389.221C203.432 412.721 146.525 461.457 96.6447 435.502C47.3446 409.848 45.019 336.382 46.0646 280.764C46.8695 237.951 91.4326 210.083 101.664 168.509C111.353 129.141 77.0549 81.0593 102.894 49.8474C128.294 19.1661 178.163 22.1845 217.44 28.6601Z" stroke="#FF0404"/>
<path fill-rule="evenodd" clip-rule="evenodd" d="M229.248 30.0292C262.053 39.0161 278.522 73.6279 306.957 92.3129C337.755 112.551 385.407 110.483 401.889 143.474C418.457 176.637 399.826 216.385 386.16 250.849C373.249 283.41 352.351 310.637 326.323 334.046C297.405 360.056 265.49 379.99 228.679 392.489C175.449 410.561 113.792 453.127 66.8745 422.134C20.5035 391.502 25.8164 318.192 32.6296 262.982C37.8742 220.484 85.0892 197.392 99.5809 157.105C113.304 118.955 84.182 67.5732 113.122 39.212C141.569 11.333 190.855 19.5116 229.248 30.0292Z" stroke="#FF0404"/>
<path fill-rule="evenodd" clip-rule="evenodd" d="M275.349 51.6172C305.798 66.7761 315.266 103.919 339.552 127.748C365.858 153.558 413.011 160.74 422.804 196.295C432.649 232.035 406.686 267.432 386.616 298.605C367.654 328.055 341.887 350.729 311.825 368.665C278.424 388.594 243.258 401.984 204.725 407.13C149.006 414.572 80.2826 444.416 40.2416 404.939C0.66656 365.921 20.0507 295.02 37.4079 242.168C50.7686 201.486 101.557 187.956 123.563 151.23C144.401 116.453 125.762 60.4109 159.638 38.1788C192.938 16.3248 239.714 33.8765 275.349 51.6172Z" stroke="#FF0404"/>
</svg>
