<svg width="146" height="194" viewBox="0 0 146 194" fill="none" xmlns="http://www.w3.org/2000/svg">
<g id="vector">
<path id="Vector" d="M32.3326 5.77881C28.2697 6.44879 24.8595 6.08928 21.1882 8.26265C8.90713 15.5181 -3.4447 22.7027 -15.8672 29.8165C-16.8243 30.3596 -17.6025 31.1845 -18.1026 32.186L-36.8342 69.9339C-37.7756 71.8196 -38.4406 73.8284 -38.8086 75.8984L-45.9227 115.378C-46.0366 116.01 -46.0246 116.658 -45.8873 117.283C-45.7501 117.909 -45.4903 118.5 -45.1232 119.022C-38.0417 129.045 -30.7535 139.166 -23.2586 149.384C-22.0512 151.04 -20.7024 152.538 -19.2121 153.878C-17.4717 155.436 -15.9542 156.776 -14.6598 157.898" stroke="#958737" stroke-width="2"/>
<path id="Vector_2" d="M-14.6604 157.898C-7.4919 167.496 1.30291 174.947 11.7239 180.253" stroke="#86532D" stroke-width="2"/>
<path id="Vector_3" d="M131.75 48.1676C128.433 39.6049 122.444 32.0118 113.786 25.3882" stroke="#957435" stroke-width="2"/>
<path id="Vector_4" d="M113.786 25.3881C113.035 23.9501 111.752 22.3323 109.935 20.5348C108.586 19.1948 106.873 18.1108 104.795 17.2829C96.2781 13.8622 87.9837 10.583 79.9124 7.44556" stroke="#958737" stroke-width="2"/>
<path id="Vector_5" d="M79.912 7.44573C74.7341 2.27105 68.5229 0.212076 61.2782 1.2688C51.3685 2.70681 41.5839 3.57835 31.9244 3.88338C31.2173 3.90517 30.9181 4.26467 31.0269 4.96189C31.103 5.47391 31.5382 5.74626 32.3323 5.77894" stroke="#27314E" stroke-width="2"/>
<path id="Vector_6" d="M79.9122 7.44577C73.0591 3.94878 66.2986 2.5489 59.6304 3.24612C50.5257 4.1939 41.4264 5.03819 32.3325 5.77899" stroke="#907F2C" stroke-width="2"/>
<path id="Vector_7" d="M113.786 25.3882C117.082 33.7766 120.389 41.8545 123.706 49.622C128.308 60.3908 136.286 68.4142 145 75.8985" stroke="#FDC213" stroke-width="2"/>
<path id="Vector_8" d="M145 75.8984L140.872 120.444" stroke="#907F2C" stroke-width="2"/>
<path id="Vector_9" d="M140.871 120.444C139.131 120.433 137.983 119.507 137.428 117.666C137.375 117.494 137.279 117.337 137.151 117.209L124.424 104.005C124.219 103.795 123.967 103.635 123.69 103.538C123.412 103.442 123.116 103.412 122.825 103.45C122.534 103.488 122.255 103.593 122.012 103.758C121.768 103.922 121.566 104.141 121.422 104.397L99.5571 143.093" stroke="#FDCF16" stroke-width="2"/>
<path id="Vector_10" d="M99.5579 143.093L58.864 165.971" stroke="#FDC213" stroke-width="2"/>
<path id="Vector_11" d="M58.8635 165.97C58.374 165.763 57.8899 165.725 57.4113 165.856C56.987 165.965 56.7749 165.802 56.7749 165.366V163.813C56.7749 163.345 56.9925 163.018 57.4276 162.833C68.7025 157.931 78.9005 150.969 89.9632 145.005C90.2412 144.858 90.482 144.649 90.6677 144.394C90.8535 144.14 90.9793 143.846 91.0357 143.535C91.0922 143.224 91.0779 142.904 90.9939 142.598C90.9099 142.292 90.7584 142.009 90.5506 141.769C85.9275 136.464 81.8212 129.873 78.2315 121.997" stroke="#FDCF16" stroke-width="2"/>
<path id="Vector_12" d="M78.2314 121.997L98.7415 98.0081C98.9835 97.7243 99.1115 97.3516 99.1005 96.9623L96.7019 51.7465C96.6802 51.2236 96.4463 50.826 96.0003 50.5536L68.0334 32.8726" stroke="#FEB412" stroke-width="2"/>
<path id="Vector_13" d="M68.0337 32.8724L60.7074 28.3296C60.2832 28.0572 59.8263 27.981 59.3368 28.1008L15.7874 38.6735C15.287 38.7933 14.8791 39.0493 14.5636 39.4415L-15.7693 76.5685" stroke="#EFA10B" stroke-width="2"/>
<path id="Vector_14" d="M-7.75757 126.736L19.5893 146.835C19.9117 147.076 20.2831 147.243 20.6777 147.325C21.0722 147.407 21.4804 147.401 21.8736 147.309L29.0857 145.561" stroke="#FEB412" stroke-width="2"/>
<path id="Vector_15" d="M29.0859 145.561C32.3058 154.156 36.918 162.038 42.9225 169.206" stroke="#FDCF16" stroke-width="2"/>
<path id="Vector_16" d="M42.9218 169.206L14.5632 174.664" stroke="#FEB412" stroke-width="2"/>
<path id="Vector_17" d="M14.563 174.664C5.64315 168.378 -4.09801 162.79 -14.6604 157.898" stroke="#EFA10B" stroke-width="2"/>
<path id="Vector_18" d="M11.7246 180.253L28.5472 190.613" stroke="#814B22" stroke-width="2"/>
<path id="Vector_19" d="M28.5471 190.613L31.2393 192.623C31.6853 192.95 32.1803 193.064 32.7242 192.966L75.67 185.286" stroke="#905E29" stroke-width="2"/>
<path id="Vector_20" d="M75.6699 185.286L116.609 161.804" stroke="#906C2A" stroke-width="2"/>
<path id="Vector_21" d="M116.608 161.804L140.871 120.444" stroke="#90792D" stroke-width="2"/>
<path id="Vector_22" d="M75.6694 185.286L58.7651 166.232" stroke="#FEA10F" stroke-width="2"/>
<path id="Vector_23" d="M14.5632 174.664C19.2298 179.49 24.0813 184.142 29.1178 188.619C29.4876 188.946 29.2973 189.611 28.5467 190.613" stroke="#EF8007" stroke-width="2"/>
<path id="Vector_24" d="M116.608 161.804L99.5571 143.093" stroke="#FDBC14" stroke-width="2"/>
<path id="Vector_25" d="M58.8631 165.97C58.8305 166.058 58.7978 166.145 58.7651 166.232" stroke="#FDBC14" stroke-width="2"/>
<path id="Vector_26" d="M58.7651 166.232L42.9216 169.206" stroke="#FEAE13" stroke-width="2"/>
<path id="Vector_27" d="M78.232 121.997L68.132 134.22C67.773 134.645 67.327 134.933 66.794 135.086L29.0859 145.56" stroke="#FEAE13" stroke-width="2"/>
<path id="Vector_28" d="M68.0333 32.8726L21.1552 44.4094C20.0664 44.6736 19.0951 45.301 18.3976 46.1905L-7.77441 79.6571" stroke="#EF8007" stroke-width="2"/>
<path id="Vector_29" d="M131.751 48.1677L145 75.8985" stroke="#906C2A" stroke-width="2"/>
<path id="Vector_30" d="M42.0571 55.8155C24.9897 55.6194 21.7264 71.9604 21.2858 85.6543C21.2641 86.2317 21.4925 86.6783 21.9711 86.9943L23.766 88.1708" stroke="#FEAE13" stroke-width="2"/>
<path id="Vector_31" d="M23.7665 88.1707L22.8527 88.138C22.0478 88.1162 21.8845 88.4322 22.3631 89.0858C25.7788 93.6613 31.0546 97.2563 38.1904 99.8709" stroke="#EF8007" stroke-width="2"/>
<path id="Vector_32" d="M38.1896 99.8708L16.4231 96.5209C15.9118 96.4338 15.4821 96.5808 15.134 96.9621C10.326 102.028 8.49309 107.279 9.63527 112.715" stroke="#FEAE13" stroke-width="2"/>
<path id="Vector_33" d="M9.6355 112.715C13.0294 118.38 16.3744 121 19.6704 120.575" stroke="#EF8007" stroke-width="2"/>
<path id="Vector_34" d="M19.6702 120.575L22.6887 124.53" stroke="#FEAE13" stroke-width="2"/>
<path id="Vector_35" d="M22.689 124.53C24.6959 132.226 32.3322 131.72 38.5652 130.805C39.1309 130.718 39.566 130.434 39.8706 129.955L43.1828 124.791C43.52 124.279 43.9879 123.963 44.5861 123.843L54.6209 121.833C55.0778 121.735 55.4421 121.496 55.7141 121.114C60.1522 114.807 65.5042 108.532 65.6184 100.116C65.6836 95.0668 65.8632 92.1581 62.0777 89.1187" stroke="#EF8007" stroke-width="2"/>
<path id="Vector_36" d="M62.0778 89.1185C62.0017 86.907 59.9404 84.3142 55.8938 81.3401" stroke="#FEAE13" stroke-width="2"/>
<path id="Vector_37" d="M55.8938 81.34C60.6583 81.6831 66.1733 86.0462 69.404 79.9837C72.5804 73.9919 72.1072 68.9589 67.9845 64.8845" stroke="#EF8007" stroke-width="2"/>
<path id="Vector_38" d="M67.9845 64.8847C68.1694 63.5666 68.1259 62.4009 67.8539 61.3878C67.7974 61.1767 67.6762 60.9881 67.5069 60.8477C67.3375 60.7073 67.1283 60.622 66.9076 60.6034L60.1035 59.9988C59.9359 59.9841 59.774 59.9309 59.6303 59.8433C59.4866 59.7558 59.3652 59.6362 59.2752 59.4939C59.1852 59.3516 59.1292 59.1904 59.1116 59.0229C59.0939 58.8554 59.115 58.686 59.1734 58.5281L61.1478 53.2172C61.8983 51.2018 61.213 50.0307 59.0918 49.7039L47.9801 48.0044C47.5173 47.9332 47.0439 48.0083 46.6257 48.2192C46.2075 48.43 45.8653 48.7662 45.6468 49.181L42.0571 55.8154" stroke="#FEB412" stroke-width="2"/>
<path id="Vector_39" d="M67.9844 64.8845C66.8912 80.7681 60.2829 77.3528 48.8938 72.3524" stroke="#EFA10B" stroke-width="2"/>
<path id="Vector_40" d="M48.8939 72.3523C50.7757 66.938 48.4968 61.4256 42.0571 55.8152" stroke="#FDCF16" stroke-width="2"/>
<path id="Vector_41" d="M48.8939 72.3526L44.6352 71.4211C44.0804 71.3013 43.6182 71.4538 43.2483 71.8787C41.1272 74.2808 42.3672 76.4869 45.2226 77.2549C49.2692 78.3334 52.8263 79.6952 55.8938 81.3402" stroke="#EF9B0C" stroke-width="2"/>
<path id="Vector_42" d="M62.0777 89.1187C62.094 93.5961 62.7466 97.567 60.6255 101.636C58.1018 106.527 55.1158 111.195 51.6676 115.64C51.4161 115.965 51.0465 116.176 50.6396 116.228L40.7516 117.568C40.1534 117.656 39.7074 117.966 39.4137 118.5C37.0477 122.912 37.4883 124.987 31.4837 124.955C28.7534 124.944 25.8218 124.802 22.689 124.53" stroke="#EF9B0C" stroke-width="2"/>
<path id="Vector_43" d="M19.6704 120.575C19.5398 118.93 20.1109 117.617 21.3836 116.637C21.5139 116.533 21.6123 116.394 21.6671 116.237C21.722 116.08 21.7311 115.91 21.6935 115.747C21.6559 115.585 21.5732 115.436 21.4548 115.319C21.3364 115.202 21.1873 115.12 21.0247 115.085L9.6355 112.715" stroke="#EF9B0C" stroke-width="2"/>
<path id="Vector_44" d="M38.1901 99.8708C38.6687 100.949 39.5607 100.933 40.8661 99.8218C41.2794 99.4732 41.399 99.0429 41.225 98.5309C40.5288 96.5264 39.3214 95.2409 37.6027 94.6744C31.7939 92.757 27.1818 90.5891 23.7661 88.1707" stroke="#EF9B0C" stroke-width="2"/>
<path id="Vector_45" d="M79.9119 7.44573C73.0589 3.94873 66.2983 2.54885 59.6302 3.24607C50.5255 4.19385 41.4262 5.03815 32.3323 5.77894C31.5382 5.74626 31.103 5.47391 31.0269 4.96189C30.9181 4.26467 31.2173 3.90517 31.9244 3.88338C41.5839 3.57835 51.3685 2.70681 61.2782 1.2688C68.5229 0.212076 74.7341 2.27105 79.9119 7.44573Z" fill="#222943"/>
<path id="Vector_46" d="M79.9122 7.44578C87.9836 10.5833 96.278 13.8624 104.795 17.2831C106.873 18.1111 108.586 19.195 109.935 20.535C111.752 22.3325 113.035 23.9503 113.786 25.3883C117.082 33.7767 120.389 41.8546 123.706 49.6221C128.308 60.3909 136.287 68.4143 145 75.8986L140.872 120.444C139.131 120.433 137.984 119.507 137.429 117.666C137.375 117.494 137.28 117.337 137.152 117.209L124.424 104.005C124.219 103.795 123.968 103.635 123.69 103.539C123.413 103.442 123.117 103.412 122.825 103.45C122.534 103.488 122.256 103.593 122.012 103.758C121.769 103.922 121.567 104.141 121.422 104.397L99.5576 143.093L58.8637 165.971C58.3742 165.764 57.8901 165.725 57.4115 165.856C56.9872 165.965 56.7751 165.802 56.7751 165.366V163.814C56.7751 163.345 56.9927 163.018 57.4278 162.833C68.7027 157.931 78.9007 150.969 89.9634 145.005C90.2414 144.858 90.4822 144.649 90.6679 144.395C90.8536 144.14 90.9794 143.846 91.0359 143.535C91.0924 143.224 91.0781 142.904 90.9941 142.598C90.9101 142.292 90.7586 142.009 90.5508 141.769C85.9277 136.464 81.8214 129.873 78.2317 121.997L98.7418 98.008C98.9837 97.7243 99.1118 97.3515 99.1008 96.9622L96.7022 51.7464C96.6804 51.2235 96.4465 50.8259 96.0006 50.5536L68.0337 32.8725L60.7074 28.3297C60.2831 28.0573 59.8263 27.9811 59.3368 28.1009L15.7874 38.6736C15.287 38.7934 14.8791 39.0494 14.5636 39.4416L-15.7693 76.5685C-15.5953 91.0249 -14.9752 104.997 -13.9092 118.483C-13.5339 123.173 -11.4779 124.481 -7.75771 126.736L19.5892 146.835C19.9115 147.076 20.2829 147.243 20.6775 147.325C21.0721 147.407 21.4803 147.401 21.8735 147.309L29.0856 145.561C32.3054 154.156 36.9176 162.038 42.9222 169.206L14.5636 174.664C5.64378 168.378 -4.09739 162.79 -14.6598 157.898C-15.9542 156.776 -17.4717 155.436 -19.2121 153.878C-20.7024 152.538 -22.0512 151.04 -23.2586 149.384C-30.7535 139.166 -38.0417 129.045 -45.1232 119.023C-45.4903 118.5 -45.7501 117.909 -45.8873 117.283C-46.0246 116.658 -46.0366 116.01 -45.9227 115.379L-38.8086 75.8986C-38.4406 73.8286 -37.7756 71.8198 -36.8342 69.9341L-18.1026 32.1862C-17.6025 31.1847 -16.8243 30.3598 -15.8672 29.8167C-3.4447 22.7029 8.90713 15.5183 21.1882 8.26283C24.8595 6.08947 28.2697 6.44897 32.3326 5.77899C41.4265 5.03819 50.5258 4.1939 59.6305 3.24612C66.2986 2.5489 73.0592 3.94878 79.9122 7.44578Z" fill="#FDD515"/>
<path id="Vector_47" d="M113.786 25.3882C122.444 32.0118 128.433 39.6049 131.75 48.1676L145 75.8985C136.286 68.4142 128.308 60.3908 123.706 49.622C120.389 41.8545 117.082 33.7766 113.786 25.3882Z" fill="#FDAF10"/>
<path id="Vector_48" d="M68.0337 32.8724L21.1556 44.4092C20.0668 44.6735 19.0955 45.3009 18.398 46.1904L-7.77403 79.6569L-15.7693 76.5685L14.5636 39.4415C14.8791 39.0493 15.287 38.7933 15.7874 38.6735L59.3368 28.1008C59.8263 27.981 60.2832 28.0572 60.7074 28.3296L68.0337 32.8724Z" fill="#E06D00"/>
<path id="Vector_49" d="M68.0333 32.8726L96.0002 50.5536C96.4462 50.826 96.68 51.2236 96.7018 51.7465L99.1004 96.9623C99.1114 97.3516 98.9834 97.7243 98.7414 98.0081L78.2313 121.997L68.1312 134.22C67.7723 134.645 67.3262 134.933 66.7932 135.086L29.0852 145.561L21.8731 147.309C21.4799 147.401 21.0717 147.407 20.6772 147.325C20.2826 147.243 19.9112 147.076 19.5888 146.835L-7.75808 126.736L-7.77441 79.6571L18.3976 46.1905C19.0951 45.301 20.0664 44.6736 21.1552 44.4094L68.0333 32.8726ZM42.057 55.8154C24.9896 55.6193 21.7263 71.9604 21.2857 85.6542C21.264 86.2316 21.4924 86.6783 21.971 86.9942L23.7659 88.1708L22.8522 88.1381C22.0472 88.1163 21.884 88.4322 22.3626 89.0859C25.7783 93.6614 31.054 97.2564 38.1899 99.871L16.4234 96.5211C15.9121 96.4339 15.4824 96.581 15.1343 96.9623C10.3263 102.028 8.49338 107.279 9.63555 112.715C13.0294 118.38 16.3744 121 19.6704 120.575L22.689 124.53C24.6959 132.226 32.3322 131.72 38.5652 130.805C39.1309 130.717 39.566 130.434 39.8706 129.955L43.1828 124.791C43.52 124.279 43.9879 123.963 44.5861 123.843L54.6209 121.833C55.0778 121.735 55.4421 121.496 55.7141 121.114C60.1522 114.807 65.5042 108.532 65.6184 100.116C65.6836 95.0667 65.8632 92.158 62.0777 89.1186C62.0015 86.9071 59.9402 84.3143 55.8936 81.3402C60.6581 81.6834 66.1732 86.0464 69.4039 79.9839C72.5802 73.9922 72.107 68.9591 67.9843 64.8847C68.1693 63.5666 68.1257 62.4009 67.8538 61.3878C67.7972 61.1766 67.676 60.9881 67.5067 60.8477C67.3373 60.7073 67.1281 60.622 66.9075 60.6034L60.1033 59.9987C59.9357 59.9841 59.7738 59.9309 59.6301 59.8433C59.4865 59.7558 59.365 59.6362 59.275 59.4938C59.185 59.3515 59.129 59.1904 59.1114 59.0229C59.0938 58.8553 59.1149 58.686 59.1732 58.5281L61.1476 53.2172C61.8982 51.2018 61.2129 50.0307 59.0917 49.7039L47.98 48.0044C47.5172 47.9332 47.0437 48.0083 46.6255 48.2192C46.2073 48.43 45.8652 48.7662 45.6467 49.181L42.057 55.8154Z" fill="#FE930E"/>
<path id="Vector_50" d="M67.9845 64.8847C66.8913 80.7683 60.283 77.353 48.8939 72.3526C50.7757 66.9383 48.4968 61.4259 42.0571 55.8154L45.6468 49.181C45.8653 48.7662 46.2075 48.43 46.6257 48.2192C47.0439 48.0083 47.5173 47.9332 47.9801 48.0044L59.0918 49.7039C61.213 50.0307 61.8983 51.2018 61.1478 53.2172L59.1734 58.5281C59.115 58.686 59.0939 58.8554 59.1116 59.0229C59.1292 59.1904 59.1852 59.3516 59.2752 59.4939C59.3652 59.6362 59.4866 59.7558 59.6303 59.8433C59.774 59.9309 59.9359 59.9841 60.1035 59.9988L66.9076 60.6034C67.1283 60.622 67.3375 60.7073 67.5069 60.8477C67.6762 60.9881 67.7974 61.1767 67.8539 61.3878C68.1259 62.4009 68.1694 63.5666 67.9845 64.8847Z" fill="#FDD515"/>
<path id="Vector_51" d="M42.0567 55.8155C48.4964 61.4259 50.7753 66.9383 48.8934 72.3526L44.6348 71.4212C44.08 71.3014 43.6177 71.4539 43.2479 71.8788C41.1267 74.2809 42.3667 76.4869 45.2221 77.255C49.2687 78.3335 52.8258 79.6952 55.8934 81.3402C59.9399 84.3143 62.0012 86.9071 62.0774 89.1186C62.0937 93.5961 62.7463 97.5669 60.6252 101.636C58.1015 106.527 55.1156 111.195 51.6673 115.64C51.4158 115.965 51.0462 116.176 50.6393 116.228L40.7514 117.568C40.1531 117.656 39.7071 117.966 39.4134 118.5C37.0474 122.912 37.488 124.987 31.4834 124.955C28.7531 124.944 25.8215 124.802 22.6887 124.53L19.6701 120.575C19.5396 118.93 20.1107 117.617 21.3834 116.637C21.5137 116.533 21.612 116.394 21.6669 116.237C21.7217 116.08 21.7309 115.91 21.6933 115.747C21.6557 115.585 21.573 115.436 21.4546 115.319C21.3362 115.202 21.1871 115.12 21.0244 115.085L9.63527 112.715C8.49309 107.279 10.326 102.028 15.134 96.9623C15.4821 96.581 15.9118 96.434 16.4231 96.5211L38.1896 99.871C38.6682 100.95 39.5602 100.933 40.8656 99.822C41.2789 99.4734 41.3986 99.0431 41.2245 98.5311C40.5283 96.5265 39.3209 95.241 37.6022 94.6746C31.7935 92.7572 27.1813 90.5893 23.7656 88.1708L21.9707 86.9943C21.4921 86.6783 21.2637 86.2317 21.2855 85.6543C21.726 71.9604 24.9893 55.6194 42.0567 55.8155Z" fill="#FDC817"/>
<path id="Vector_52" d="M67.9845 64.8845C72.1072 68.9589 72.5804 73.9919 69.4041 79.9837C66.1733 86.0462 60.6583 81.6831 55.8938 81.34C52.8263 79.695 49.2692 78.3332 45.2226 77.2547C42.3672 76.4867 41.1272 74.2806 43.2483 71.8785C43.6182 71.4536 44.0804 71.3011 44.6352 71.421L48.8939 72.3524C60.283 77.3528 66.8913 80.7681 67.9845 64.8845Z" fill="#E06D00"/>
<path id="Vector_53" d="M23.7665 88.1707C27.1821 90.5892 31.7943 92.7571 37.603 94.6744C39.3217 95.2409 40.5291 96.5264 41.2253 98.5309C41.3994 99.043 41.2798 99.4733 40.8664 99.8219C39.5611 100.933 38.6691 100.949 38.1904 99.8709C31.0546 97.2563 25.7788 93.6613 22.3631 89.0858C21.8845 88.4322 22.0478 88.1162 22.8527 88.138L23.7665 88.1707Z" fill="#E06D00"/>
<path id="Vector_54" d="M62.0777 89.1187C65.8632 92.1581 65.6836 95.0668 65.6184 100.116C65.5042 108.532 60.1522 114.807 55.7141 121.114C55.4421 121.496 55.0778 121.735 54.6209 121.833L44.5861 123.843C43.9879 123.963 43.52 124.279 43.1828 124.791L39.8706 129.955C39.566 130.434 39.1309 130.718 38.5652 130.805C32.3322 131.72 24.6959 132.226 22.689 124.53C25.8218 124.802 28.7534 124.944 31.4837 124.955C37.4883 124.987 37.0477 122.912 39.4137 118.5C39.7074 117.966 40.1534 117.656 40.7516 117.568L50.6396 116.228C51.0465 116.176 51.4161 115.965 51.6676 115.64C55.1158 111.195 58.1018 106.527 60.6255 101.636C62.7466 97.567 62.094 93.5961 62.0777 89.1187Z" fill="#E06D00"/>
<path id="Vector_55" d="M140.871 120.444L116.608 161.803L99.5571 143.093L121.422 104.397C121.566 104.141 121.768 103.922 122.012 103.758C122.255 103.593 122.534 103.488 122.825 103.45C123.116 103.412 123.412 103.442 123.69 103.538C123.967 103.635 124.219 103.795 124.424 104.005L137.151 117.209C137.279 117.337 137.375 117.494 137.428 117.666C137.983 119.507 139.131 120.433 140.871 120.444Z" fill="#FDC817"/>
<path id="Vector_56" d="M9.6355 112.715L21.0247 115.085C21.1873 115.12 21.3364 115.202 21.4548 115.319C21.5732 115.436 21.6559 115.585 21.6935 115.747C21.7311 115.91 21.722 116.08 21.6671 116.237C21.6123 116.394 21.5139 116.533 21.3836 116.637C20.1109 117.617 19.5398 118.93 19.6704 120.575C16.3744 121 13.0294 118.38 9.6355 112.715Z" fill="#E06D00"/>
<path id="Vector_57" d="M78.232 121.997C81.8217 129.873 85.9281 136.464 90.5512 141.769C90.7589 142.009 90.9105 142.292 90.9944 142.598C91.0784 142.904 91.0927 143.224 91.0363 143.535C90.9798 143.846 90.854 144.14 90.6683 144.394C90.4826 144.649 90.2418 144.858 89.9638 145.005C78.901 150.969 68.703 157.931 57.4282 162.833C56.993 163.018 56.7754 163.345 56.7754 163.813V165.366C56.7754 165.802 56.9876 165.965 57.4118 165.856C57.8904 165.725 58.3745 165.763 58.864 165.97C58.8314 166.058 58.7987 166.145 58.766 166.232L42.9225 169.206C36.918 162.038 32.3058 154.156 29.0859 145.56L66.794 135.086C67.327 134.933 67.773 134.645 68.132 134.22L78.232 121.997Z" fill="#FDC817"/>
<path id="Vector_58" d="M99.5571 143.093L116.608 161.804L75.6694 185.286L58.7651 166.232C58.7978 166.145 58.8305 166.058 58.8631 165.971L99.5571 143.093Z" fill="#FDAF10"/>
<path id="Vector_59" d="M-14.6604 157.898C-4.09801 162.79 5.64315 168.378 14.563 174.664C19.2296 179.49 24.0811 184.142 29.1175 188.619C29.4874 188.946 29.297 189.611 28.5465 190.613L11.7239 180.253C1.30291 174.947 -7.4919 167.496 -14.6604 157.898Z" fill="#E06D00"/>
<path id="Vector_60" d="M58.7653 166.232L75.6695 185.286L32.7238 192.966C32.1799 193.064 31.6849 192.95 31.2389 192.623L28.5467 190.613C29.2973 189.611 29.4876 188.946 29.1178 188.619C24.0813 184.142 19.2298 179.49 14.5632 174.664L42.9218 169.206L58.7653 166.232Z" fill="#FE930E"/>
</g>
</svg>
