<svg width="150" height="188" viewBox="0 0 150 188" fill="none" xmlns="http://www.w3.org/2000/svg">
<g id="pic">
<g id="vector">
<path id="Vector" d="M101.106 8.83038C100.819 16.037 99.4623 22.9004 97.0356 29.4204" stroke="#5D3949" stroke-width="2"/>
<path id="Vector_2" d="M97.0357 29.4204C88.2257 27.0904 71.1157 24.6604 68.5757 36.8204" stroke="#4A5294" stroke-width="2"/>
<path id="Vector_3" d="M68.5756 36.8204L67.0256 40.7304C66.9807 40.8454 66.9052 40.9468 66.8069 41.024C66.7085 41.1013 66.5908 41.1518 66.4656 41.1704C28.8656 46.2204 1.86558 76.3204 1.99558 114.6" stroke="#394184" stroke-width="2"/>
<path id="Vector_4" d="M1.99561 114.6C3.22227 139.174 13.7389 158.627 33.5456 172.96" stroke="#303779" stroke-width="2"/>
<path id="Vector_5" d="M33.5457 172.96C49.9723 183.774 67.679 187.567 86.6657 184.34C102.216 181.69 119.606 172.11 129.596 159.87C152.816 131.42 152.046 92.2904 127.826 64.5904C127.606 64.3371 127.509 64.0471 127.536 63.7204L127.946 59.0404" stroke="#262C6B" stroke-width="2"/>
<path id="Vector_6" d="M127.946 59.0404C135.506 50.3704 121.506 40.2004 114.256 36.4404" stroke="#394184" stroke-width="2"/>
<path id="Vector_7" d="M114.256 36.4404C117.502 27.5737 119.476 18.3604 120.176 8.80042" stroke="#5D3949" stroke-width="2"/>
<path id="Vector_8" d="M120.175 8.80041C120.525 1.61041 101.895 0.530406 101.105 8.83041" stroke="#72504E" stroke-width="2"/>
<path id="Vector_9" d="M120.175 8.80042C113.765 12.8304 107.355 12.8304 101.105 8.83041" stroke="#B86B32" stroke-width="2"/>
<path id="Vector_10" d="M114.256 36.4404C112.669 40.867 111.189 44.3304 109.816 46.8304C108.316 49.5704 105.832 50.5337 102.366 49.7204" stroke="#7F5C68" stroke-width="2"/>
<path id="Vector_11" d="M102.365 49.7204L97.9154 48.2904C97.6021 48.1904 97.3654 47.9971 97.2054 47.7104C96.9321 47.2171 96.3921 46.8271 95.5854 46.5404C90.3554 44.6904 90.7054 39.5304 93.9154 36.0704C94.1554 35.8037 94.2788 35.4937 94.2854 35.1404C94.2921 33.9471 94.7554 32.9537 95.6754 32.1604C95.9288 31.9404 96.0754 31.6604 96.1154 31.3204C96.1954 30.6337 96.5021 30.0004 97.0354 29.4204" stroke="#906D78" stroke-width="2"/>
<path id="Vector_12" d="M127.946 59.0404C123.792 60.6937 119.456 61.4637 114.936 61.3504C114.821 61.3483 114.709 61.3769 114.609 61.4332C114.509 61.4894 114.427 61.5713 114.37 61.6703C114.313 61.7693 114.283 61.8819 114.284 61.9962C114.285 62.1105 114.317 62.2225 114.376 62.3204C114.386 62.3404 110.056 73.1304 109.676 74.3204C109.623 74.4831 109.52 74.6249 109.382 74.7255C109.243 74.8261 109.077 74.8803 108.906 74.8804C100.696 74.9904 91.0156 71.3404 83.4456 67.7404C83.3407 67.6943 83.2228 67.6872 83.1131 67.7205C83.0035 67.7538 82.9093 67.8252 82.8477 67.9218C82.7861 68.0184 82.7611 68.1339 82.7772 68.2474C82.7934 68.3608 82.8495 68.4648 82.9356 68.5404C83.6023 69.0804 84.579 69.4838 85.8656 69.7504" stroke="#474F8A" stroke-width="2"/>
<path id="Vector_13" d="M85.8656 69.7504L85.2756 74.7704C85.2558 74.9209 85.2765 75.076 85.3356 75.2204C85.7222 76.1604 86.3622 76.8804 87.2556 77.3804C87.5556 77.5471 87.7555 77.7904 87.8555 78.1104C90.3822 85.9237 90.4756 93.3804 88.1356 100.48" stroke="#515998" stroke-width="2"/>
<path id="Vector_14" d="M88.1356 100.48C81.6889 96.9404 75.5456 95.0137 69.7056 94.7004" stroke="#878EBE" stroke-width="2"/>
<path id="Vector_15" d="M69.7056 94.7004C64.9456 94.1404 60.2156 94.327 55.5156 95.2604" stroke="#99A0C6" stroke-width="2"/>
<path id="Vector_16" d="M55.5157 95.2604C55.3291 91.3671 55.0191 88.3904 54.5857 86.3304C54.5057 85.9704 54.2691 85.7071 53.8757 85.5404C53.5757 85.4071 53.3357 85.1971 53.1557 84.9104C49.1891 78.5571 43.6424 77.0837 36.5157 80.4904C35.4891 80.9771 34.6724 81.6537 34.0657 82.5204C30.1191 88.0937 30.2757 93.5571 34.5357 98.9104C36.0757 100.844 37.8124 100.92 39.7457 99.1404C39.8693 99.0263 40.0253 98.9534 40.1921 98.9319C40.3589 98.9105 40.5282 98.9414 40.6766 99.0206C40.825 99.0997 40.9451 99.2231 41.0202 99.3736C41.0953 99.5241 41.1217 99.6942 41.0957 99.8604C41.0824 99.9737 41.1391 100.157 41.2657 100.41" stroke="#6B75B3" stroke-width="2"/>
<path id="Vector_17" d="M41.2658 100.41C33.2524 105.25 28.2991 112.107 26.4058 120.98" stroke="#99A0C6" stroke-width="2"/>
<path id="Vector_18" d="M26.4058 120.98L26.8358 129.8" stroke="#878EBE" stroke-width="2"/>
<path id="Vector_19" d="M26.8356 129.8C22.4156 133.15 19.8756 130.12 17.9956 126.65C17.84 126.365 17.5906 126.137 17.2856 126C15.8856 125.4 14.6689 124.567 13.6356 123.5C12.3656 122.18 11.2156 121.77 9.82561 120.74C9.57894 120.554 9.39894 120.317 9.28561 120.03C8.55227 118.13 7.53228 116.4 6.22561 114.84C5.97894 114.54 5.67561 114.46 5.31561 114.6C4.42227 114.954 3.5356 114.997 2.6556 114.73C2.58893 114.71 2.5556 114.664 2.5556 114.59C2.56227 114.504 2.57227 114.42 2.5856 114.34C2.69227 113.674 2.61561 113.627 2.35561 114.2C2.26227 114.407 2.14227 114.54 1.99561 114.6" stroke="#515998" stroke-width="2"/>
<path id="Vector_20" d="M102.366 49.7204C102.366 50.5804 102.872 51.0671 103.886 51.1804C104.286 51.2271 104.456 51.4504 104.396 51.8504L103.336 58.7904C103.321 58.8899 103.285 58.9851 103.231 59.0699C103.177 59.1547 103.105 59.2273 103.022 59.2829C102.938 59.3385 102.843 59.3758 102.744 59.3926C102.645 59.4094 102.543 59.4053 102.446 59.3804C91.1157 56.4404 75.8956 49.4604 70.3756 38.4504C70.249 38.2037 70.049 38.0804 69.7757 38.0804H69.2656C68.899 38.0804 68.669 37.9037 68.5756 37.5504C68.5223 37.3437 68.5223 37.1004 68.5756 36.8204" stroke="#6B75B3" stroke-width="2"/>
<path id="Vector_21" d="M105.506 117.52C102.526 112.56 98.639 108.197 93.8457 104.43" stroke="#757BAF" stroke-width="2"/>
<path id="Vector_22" d="M93.8457 104.43L88.1357 100.48" stroke="#7E84B2" stroke-width="2"/>
<path id="Vector_23" d="M69.7055 94.7004C68.4955 100.43 65.1055 104.76 63.6355 109.81C62.5421 113.564 60.9488 116.184 58.8555 117.67" stroke="#C6CBE0" stroke-width="2"/>
<path id="Vector_24" d="M58.8556 117.67C53.2956 109.45 43.4256 113.1 41.0256 121.47" stroke="#99A0C6" stroke-width="2"/>
<path id="Vector_25" d="M41.0258 121.47C39.7524 120.937 38.6191 120.667 37.6258 120.66C36.4958 120.66 35.2358 121.8 34.3058 121.62C31.9058 121.154 29.2724 120.94 26.4058 120.98" stroke="#C6CBE0" stroke-width="2"/>
<path id="Vector_26" d="M93.8456 104.43C92.919 104.53 92.899 105.044 93.7856 105.97C94.0056 106.204 94.1123 106.477 94.1056 106.79C93.9456 112.72 93.1156 117.86 87.9356 121.33C85.4656 122.98 84.5356 124.35 85.0056 127.21" stroke="#ABB0D5" stroke-width="2"/>
<path id="Vector_27" d="M85.0055 127.21C77.9455 130.524 73.7355 135.324 72.3755 141.61" stroke="#7E84B2" stroke-width="2"/>
<path id="Vector_28" d="M72.3757 141.61C71.5823 143.39 69.999 144.594 67.6257 145.22C67.2523 145.32 67.0657 145.567 67.0657 145.96V146.33C67.0657 147.17 66.999 147.2 66.8657 146.42C66.8057 146.087 66.699 145.867 66.5457 145.76" stroke="#ABB0D5" stroke-width="2"/>
<path id="Vector_29" d="M66.5457 145.76C66.6057 144.487 66.049 143.427 64.8757 142.58C64.6024 142.38 64.2957 142.287 63.9557 142.3C61.309 142.407 59.6057 143.9 58.8457 146.78" stroke="#7E84B2" stroke-width="2"/>
<path id="Vector_30" d="M58.8455 146.78L50.9155 152.15" stroke="#ABB0D5" stroke-width="2"/>
<path id="Vector_31" d="M50.9155 152.15L47.9855 150.94C47.6788 150.807 47.3988 150.854 47.1455 151.08C37.7255 159.68 27.5555 152.07 32.8055 140.88C32.8682 140.741 32.8893 140.587 32.8662 140.436C32.8432 140.285 32.7769 140.144 32.6755 140.03C30.1088 137.137 28.1621 133.727 26.8354 129.8" stroke="#7E84B2" stroke-width="2"/>
<path id="Vector_32" d="M41.0258 121.47C38.6058 130.24 50.8958 141.76 59.1058 136.73C59.3856 136.561 59.6089 136.306 59.7458 136C62.4391 129.774 62.1424 123.664 58.8558 117.67" stroke="#878EBE" stroke-width="2"/>
<path id="Vector_33" d="M33.5457 172.96C33.9923 172.707 34.279 172.254 34.4056 171.6C34.4856 171.227 34.709 170.994 35.0757 170.9C38.1023 170.087 42.0157 169.73 46.8157 169.83C49.5957 169.884 51.5557 168.324 52.6957 165.15" stroke="#3E457F" stroke-width="2"/>
<path id="Vector_34" d="M52.6956 165.15C58.9256 170.26 65.1656 164.64 68.0056 158.99C68.1522 158.697 68.3822 158.597 68.6956 158.69L71.4156 159.51C71.7022 159.597 71.8755 159.787 71.9355 160.08C72.6755 163.96 73.6756 168.12 77.6656 169.57C83.0656 171.54 87.8855 166.56 89.3255 161.68C89.4255 161.354 89.6422 161.16 89.9756 161.1C112.046 157.34 115.456 134.04 105.506 117.52" stroke="#6B70A1" stroke-width="2"/>
<path id="Vector_35" d="M105.506 117.52C109.946 118.48 108.826 114.21 110.326 111.82C113.836 106.25 114.616 95.0904 114.796 88.5804C114.916 84.3604 113.196 81.2804 113.036 77.2804C113.033 77.1848 112.995 77.0935 112.928 77.0249C112.861 76.9563 112.771 76.9154 112.676 76.9104C102.549 76.2971 93.6124 73.9104 85.8657 69.7504" stroke="#3E457F" stroke-width="2"/>
<path id="Vector_36" d="M55.5156 95.2604C50.3356 96.0137 45.5856 97.7304 41.2656 100.41" stroke="#AAB2D5" stroke-width="2"/>
<path id="Vector_37" d="M52.6956 165.15C49.7456 161.77 50.3456 157.12 50.9156 152.15" stroke="#757BAF" stroke-width="2"/>
<path id="Vector_38" d="M58.8457 146.78C60.7857 148.45 67.7257 152.34 66.5457 145.76" stroke="#757BAF" stroke-width="2"/>
<path id="Vector_39" d="M72.3755 141.61C73.4488 144.217 75.4088 145.977 78.2555 146.89C101.275 154.26 102.475 122.87 85.0055 127.21" stroke="#757BAF" stroke-width="2"/>
<path id="Vector_40" d="M120.175 8.80041C113.765 12.8304 107.355 12.8304 101.105 8.83041C101.895 0.530406 120.525 1.61041 120.175 8.80041Z" fill="#5B287B"/>
<path id="Vector_41" d="M101.105 8.83041C107.355 12.8304 113.765 12.8304 120.175 8.80042C119.475 18.3604 117.502 27.5737 114.255 36.4404C112.669 40.8671 111.189 44.3304 109.815 46.8304C108.315 49.5704 105.832 50.5338 102.365 49.7204L97.9154 48.2904C97.6021 48.1904 97.3654 47.9971 97.2054 47.7104C96.9321 47.2171 96.3921 46.8271 95.5854 46.5404C90.3554 44.6904 90.7054 39.5304 93.9154 36.0704C94.1554 35.8037 94.2788 35.4937 94.2854 35.1404C94.2921 33.9471 94.7554 32.9537 95.6754 32.1604C95.9288 31.9404 96.0754 31.6604 96.1154 31.3204C96.1954 30.6337 96.5021 30.0004 97.0354 29.4204C99.4621 22.9004 100.819 16.0371 101.105 8.83041Z" fill="#8D5AAD"/>
<path id="Vector_42" d="M97.0357 29.4204C96.5023 30.0004 96.1957 30.6337 96.1157 31.3204C96.0757 31.6604 95.929 31.9404 95.6757 32.1604C94.7557 32.9537 94.2923 33.9471 94.2857 35.1404C94.279 35.4937 94.1557 35.8037 93.9157 36.0704C90.7057 39.5304 90.3557 44.6904 95.5857 46.5404C96.3923 46.8271 96.9323 47.2171 97.2057 47.7104C97.3657 47.9971 97.6023 48.1904 97.9157 48.2904L102.366 49.7204C102.366 50.5804 102.872 51.0671 103.886 51.1804C104.286 51.2271 104.456 51.4504 104.396 51.8504L103.336 58.7904C103.321 58.8899 103.285 58.9851 103.231 59.07C103.177 59.1548 103.105 59.2273 103.022 59.2829C102.938 59.3385 102.843 59.3759 102.744 59.3927C102.645 59.4095 102.543 59.4053 102.446 59.3804C91.1157 56.4404 75.8956 49.4604 70.3756 38.4504C70.249 38.2037 70.049 38.0804 69.7757 38.0804H69.2656C68.899 38.0804 68.669 37.9038 68.5756 37.5504C68.5223 37.3438 68.5223 37.1004 68.5756 36.8204C71.1156 24.6604 88.2257 27.0904 97.0357 29.4204Z" fill="#5AAD69"/>
<path id="Vector_43" d="M114.256 36.4404C121.506 40.2004 135.506 50.3704 127.946 59.0404C123.792 60.6938 119.456 61.4638 114.936 61.3504C114.821 61.3483 114.708 61.3769 114.609 61.4332C114.509 61.4895 114.427 61.5713 114.37 61.6703C114.312 61.7694 114.283 61.8819 114.284 61.9962C114.285 62.1105 114.317 62.2225 114.376 62.3204C114.386 62.3404 110.056 73.1304 109.676 74.3204C109.623 74.4831 109.52 74.6249 109.382 74.7255C109.243 74.8261 109.077 74.8803 108.906 74.8804C100.696 74.9904 91.0156 71.3404 83.4456 67.7404C83.3407 67.6943 83.2227 67.6873 83.1131 67.7205C83.0034 67.7538 82.9093 67.8252 82.8477 67.9218C82.7861 68.0184 82.761 68.1339 82.7772 68.2474C82.7933 68.3609 82.8495 68.4648 82.9356 68.5404C83.6022 69.0804 84.5789 69.4838 85.8656 69.7505L85.2756 74.7704C85.2559 74.9209 85.2766 75.076 85.3356 75.2205C85.7223 76.1605 86.3623 76.8804 87.2556 77.3804C87.5556 77.5471 87.7556 77.7904 87.8556 78.1104C90.3822 85.9238 90.4756 93.3804 88.1356 100.48C81.6889 96.9404 75.5456 95.0138 69.7056 94.7004C64.9456 94.1404 60.2156 94.3271 55.5156 95.2604C55.3289 91.3671 55.0189 88.3904 54.5856 86.3304C54.5056 85.9704 54.2689 85.7071 53.8756 85.5404C53.5756 85.4071 53.3356 85.1971 53.1556 84.9104C49.1889 78.5571 43.6423 77.0838 36.5156 80.4904C35.4889 80.9771 34.6723 81.6538 34.0656 82.5204C30.1189 88.0938 30.2756 93.5571 34.5356 98.9104C36.0756 100.844 37.8122 100.92 39.7456 99.1404C39.8691 99.0263 40.0251 98.9534 40.1919 98.932C40.3587 98.9105 40.5281 98.9415 40.6765 99.0206C40.8249 99.0998 40.945 99.2232 41.0201 99.3737C41.0952 99.5241 41.1216 99.6943 41.0956 99.8604C41.0823 99.9738 41.1389 100.157 41.2656 100.41C33.2523 105.25 28.2989 112.107 26.4056 120.98L26.8356 129.8C22.4156 133.15 19.8756 130.12 17.9956 126.65C17.84 126.365 17.5906 126.137 17.2856 126C15.8856 125.4 14.6689 124.567 13.6356 123.5C12.3656 122.18 11.2156 121.77 9.82559 120.74C9.57892 120.554 9.39892 120.317 9.28559 120.03C8.55225 118.13 7.53225 116.4 6.22559 114.84C5.97892 114.54 5.67558 114.46 5.31558 114.6C4.42225 114.954 3.53558 114.997 2.65558 114.73C2.58891 114.71 2.55558 114.664 2.55558 114.59C2.56225 114.504 2.57225 114.42 2.58558 114.34C2.69225 113.674 2.61559 113.627 2.35559 114.2C2.26225 114.407 2.14225 114.54 1.99558 114.6C1.86558 76.3204 28.8656 46.2204 66.4656 41.1704C66.5908 41.1518 66.7085 41.1013 66.8069 41.0241C66.9052 40.9468 66.9807 40.8455 67.0256 40.7304L68.5756 36.8204C68.5222 37.1004 68.5222 37.3438 68.5756 37.5504C68.6689 37.9038 68.8989 38.0804 69.2656 38.0804H69.7756C70.0489 38.0804 70.2489 38.2038 70.3756 38.4504C75.8956 49.4604 91.1156 56.4404 102.446 59.3804C102.543 59.4053 102.645 59.4095 102.744 59.3927C102.843 59.3759 102.938 59.3385 103.021 59.2829C103.105 59.2273 103.177 59.1548 103.231 59.07C103.285 58.9852 103.321 58.8899 103.336 58.7904L104.396 51.8504C104.456 51.4504 104.286 51.2271 103.886 51.1805C102.872 51.0671 102.366 50.5805 102.366 49.7205C105.832 50.5338 108.316 49.5704 109.816 46.8304C111.189 44.3304 112.669 40.8671 114.256 36.4404Z" fill="#6EC17D"/>
<path id="Vector_44" d="M127.945 59.0404L127.535 63.7204C127.509 64.0471 127.605 64.3371 127.825 64.5904C152.045 92.2904 152.815 131.42 129.595 159.87C119.605 172.11 102.215 181.69 86.6654 184.34C67.6787 187.567 49.9721 183.774 33.5454 172.96C33.9921 172.707 34.2787 172.254 34.4054 171.6C34.4854 171.227 34.7087 170.994 35.0754 170.9C38.1021 170.087 42.0154 169.73 46.8154 169.83C49.5954 169.884 51.5554 168.324 52.6954 165.15C58.9254 170.26 65.1654 164.64 68.0054 158.99C68.1521 158.697 68.3821 158.597 68.6954 158.69L71.4154 159.51C71.7021 159.597 71.8754 159.787 71.9354 160.08C72.6754 163.96 73.6754 168.12 77.6654 169.57C83.0654 171.54 87.8854 166.56 89.3254 161.68C89.4254 161.354 89.6421 161.16 89.9754 161.1C112.045 157.34 115.455 134.04 105.505 117.52C109.945 118.48 108.825 114.21 110.325 111.82C113.835 106.25 114.615 95.0904 114.795 88.5804C114.915 84.3604 113.195 81.2804 113.035 77.2804C113.033 77.1848 112.995 77.0935 112.928 77.0249C112.861 76.9563 112.771 76.9154 112.675 76.9104C102.549 76.2971 93.6121 73.9104 85.8654 69.7504C84.5787 69.4838 83.6021 69.0804 82.9354 68.5404C82.8493 68.4648 82.7931 68.3608 82.777 68.2474C82.7609 68.1339 82.7859 68.0184 82.8475 67.9218C82.9091 67.8252 83.0032 67.7538 83.1129 67.7205C83.2226 67.6872 83.3405 67.6943 83.4454 67.7404C91.0154 71.3404 100.695 74.9904 108.905 74.8804C109.076 74.8803 109.243 74.8261 109.381 74.7255C109.52 74.6249 109.623 74.4831 109.675 74.3204C110.055 73.1304 114.385 62.3404 114.375 62.3204C114.316 62.2225 114.285 62.1105 114.284 61.9962C114.283 61.8819 114.312 61.7693 114.369 61.6703C114.427 61.5713 114.509 61.4894 114.609 61.4332C114.708 61.3769 114.821 61.3483 114.935 61.3504C119.455 61.4637 123.792 60.6937 127.945 59.0404Z" fill="#3C8F4B"/>
<path id="Vector_45" d="M85.8656 69.7505C93.6122 73.9105 102.549 76.2971 112.676 76.9105C112.771 76.9155 112.861 76.9564 112.928 77.025C112.995 77.0936 113.033 77.1848 113.036 77.2805C113.196 81.2805 114.916 84.3605 114.796 88.5805C114.616 95.0905 113.836 106.25 110.326 111.82C108.826 114.21 109.946 118.48 105.506 117.52C102.526 112.56 98.6389 108.197 93.8455 104.43L88.1356 100.48C90.4756 93.3805 90.3822 85.9238 87.8555 78.1105C87.7555 77.7905 87.5556 77.5471 87.2556 77.3805C86.3622 76.8805 85.7222 76.1605 85.3356 75.2205C85.2765 75.076 85.2558 74.9209 85.2756 74.7705L85.8656 69.7505Z" fill="#5AAD69"/>
<path id="Vector_46" d="M55.5157 95.2604C50.3357 96.0137 45.5857 97.7304 41.2657 100.41C41.1391 100.157 41.0824 99.9737 41.0957 99.8604C41.1217 99.6942 41.0953 99.5241 41.0202 99.3736C40.9451 99.2231 40.825 99.0997 40.6766 99.0206C40.5282 98.9414 40.3589 98.9105 40.1921 98.9319C40.0253 98.9534 39.8693 99.0263 39.7457 99.1404C37.8124 100.92 36.0757 100.844 34.5357 98.9104C30.2757 93.5571 30.1191 88.0937 34.0657 82.5204C34.6724 81.6537 35.4891 80.9771 36.5157 80.4904C43.6424 77.0837 49.1891 78.5571 53.1557 84.9104C53.3357 85.1971 53.5757 85.4071 53.8757 85.5404C54.2691 85.7071 54.5057 85.9704 54.5857 86.3304C55.0191 88.3904 55.3291 91.3671 55.5157 95.2604Z" fill="#8D5AAD"/>
<path id="Vector_47" d="M69.7055 94.7004C68.4955 100.43 65.1055 104.76 63.6355 109.81C62.5422 113.564 60.9488 116.184 58.8555 117.67C53.2955 109.45 43.4255 113.1 41.0255 121.47C39.7522 120.937 38.6189 120.667 37.6255 120.66C36.4955 120.66 35.2355 121.8 34.3055 121.62C31.9055 121.154 29.2722 120.94 26.4055 120.98C28.2989 112.107 33.2522 105.25 41.2655 100.41C45.5855 97.7304 50.3355 96.0138 55.5155 95.2604C60.2155 94.3271 64.9455 94.1404 69.7055 94.7004Z" fill="#D8DDE8"/>
<path id="Vector_48" d="M69.7055 94.7004C75.5455 95.0138 81.6889 96.9404 88.1355 100.48L93.8455 104.43C92.9189 104.53 92.8989 105.044 93.7855 105.97C94.0055 106.204 94.1122 106.477 94.1055 106.79C93.9455 112.72 93.1155 117.86 87.9355 121.33C85.4655 122.98 84.5355 124.35 85.0055 127.21C77.9455 130.524 73.7355 135.324 72.3755 141.61C71.5822 143.39 69.9989 144.594 67.6255 145.22C67.2522 145.32 67.0655 145.567 67.0655 145.96V146.33C67.0655 147.17 66.9989 147.2 66.8655 146.42C66.8055 146.087 66.6988 145.867 66.5455 145.76C66.6055 144.487 66.0489 143.427 64.8755 142.58C64.6022 142.38 64.2955 142.287 63.9555 142.3C61.3089 142.407 59.6055 143.9 58.8455 146.78L50.9155 152.15L47.9855 150.94C47.6789 150.807 47.3989 150.854 47.1455 151.08C37.7255 159.68 27.5555 152.07 32.8055 140.88C32.8683 140.741 32.8894 140.587 32.8663 140.436C32.8432 140.285 32.777 140.144 32.6755 140.03C30.1089 137.137 28.1622 133.727 26.8355 129.8L26.4055 120.98C29.2722 120.94 31.9055 121.154 34.3055 121.62C35.2355 121.8 36.4955 120.66 37.6255 120.66C38.6189 120.667 39.7522 120.937 41.0255 121.47C38.6055 130.24 50.8955 141.76 59.1055 136.73C59.3854 136.561 59.6087 136.306 59.7455 136C62.4388 129.774 62.1422 123.664 58.8555 117.67C60.9488 116.184 62.5422 113.564 63.6355 109.81C65.1055 104.76 68.4955 100.43 69.7055 94.7004Z" fill="#B4B9D8"/>
<path id="Vector_49" d="M93.8456 104.43C98.6389 108.197 102.526 112.56 105.506 117.52C115.456 134.04 112.046 157.34 89.9756 161.1C89.6422 161.16 89.4256 161.354 89.3256 161.68C87.8856 166.56 83.0656 171.54 77.6656 169.57C73.6756 168.12 72.6756 163.96 71.9356 160.08C71.8756 159.787 71.7022 159.597 71.4156 159.51L68.6956 158.69C68.3822 158.597 68.1522 158.697 68.0056 158.99C65.1656 164.64 58.9256 170.26 52.6956 165.15C49.7456 161.77 50.3456 157.12 50.9156 152.15L58.8456 146.78C60.7856 148.45 67.7256 152.34 66.5456 145.76C66.6989 145.867 66.8056 146.087 66.8656 146.42C66.9989 147.2 67.0656 147.17 67.0656 146.33V145.96C67.0656 145.567 67.2522 145.32 67.6256 145.22C69.9989 144.594 71.5822 143.39 72.3756 141.61C73.4489 144.217 75.4089 145.977 78.2556 146.89C101.276 154.26 102.476 122.87 85.0056 127.21C84.5356 124.35 85.4656 122.98 87.9356 121.33C93.1156 117.86 93.9456 112.72 94.1056 106.79C94.1122 106.477 94.0056 106.204 93.7856 105.97C92.8989 105.044 92.9189 104.53 93.8456 104.43Z" fill="#A1A6D1"/>
<path id="Vector_50" d="M58.8555 117.67C62.1422 123.664 62.4389 129.774 59.7455 136.001C59.6087 136.306 59.3854 136.561 59.1055 136.73C50.8955 141.76 38.6056 130.241 41.0256 121.471C43.4256 113.101 53.2955 109.45 58.8555 117.67Z" fill="#5AAD69"/>
<path id="Vector_51" d="M26.8356 129.8C28.1623 133.727 30.1089 137.137 32.6756 140.031C32.7771 140.144 32.8433 140.285 32.8664 140.436C32.8895 140.587 32.8683 140.741 32.8056 140.88C27.5556 152.07 37.7256 159.68 47.1456 151.08C47.3989 150.854 47.6789 150.807 47.9856 150.94L50.9156 152.15C50.3456 157.12 49.7456 161.77 52.6956 165.15C51.5556 168.324 49.5956 169.884 46.8156 169.83C42.0156 169.73 38.1023 170.087 35.0756 170.9C34.7089 170.994 34.4856 171.227 34.4056 171.6C34.2789 172.254 33.9923 172.707 33.5456 172.96C13.7389 158.627 3.22227 139.174 1.99561 114.6C2.14227 114.54 2.26227 114.407 2.35561 114.2C2.61561 113.627 2.69227 113.674 2.5856 114.34C2.57227 114.42 2.56227 114.504 2.5556 114.59C2.5556 114.664 2.58893 114.71 2.6556 114.73C3.5356 114.997 4.42227 114.954 5.31561 114.6C5.67561 114.46 5.97894 114.54 6.22561 114.84C7.53228 116.4 8.55227 118.131 9.28561 120.031C9.39894 120.317 9.57894 120.554 9.82561 120.74C11.2156 121.77 12.3656 122.181 13.6356 123.501C14.6689 124.567 15.8856 125.401 17.2856 126.001C17.5906 126.137 17.84 126.365 17.9956 126.65C19.8756 130.12 22.4156 133.15 26.8356 129.8Z" fill="#5AAD69"/>
<path id="Vector_52" d="M72.3755 141.61C73.7355 135.324 77.9455 130.524 85.0055 127.21C102.475 122.87 101.275 154.26 78.2555 146.89C75.4088 145.977 73.4488 144.217 72.3755 141.61Z" fill="#5AAD69"/>
<path id="Vector_53" d="M66.5457 145.76C67.7257 152.34 60.7857 148.45 58.8457 146.78C59.6057 143.9 61.309 142.407 63.9557 142.3C64.2957 142.287 64.6024 142.38 64.8757 142.58C66.049 143.427 66.6057 144.487 66.5457 145.76Z" fill="#5AAD69"/>
</g>
</g>
</svg>
