<svg width="157" height="138" viewBox="0 0 157 138" fill="none" xmlns="http://www.w3.org/2000/svg">
<g id="pic">
<g id="vector">
<path id="Vector" d="M51.0049 121.87L64.8149 135.81C64.9472 135.943 65.1153 136.033 65.2974 136.069C65.4794 136.105 65.6668 136.084 65.8349 136.01C84.1249 128.12 101.965 120.49 119.425 109.88C140.025 97.3704 163.695 72.9004 152.745 46.2104C149.845 39.1304 143.505 33.3904 137.545 28.3304" stroke="#681D41" stroke-width="2"/>
<path id="Vector_2" d="M137.545 28.3304C133.992 24.2037 131.282 21.3471 129.415 19.7604C113.675 6.37039 92.785 10.0304 78.245 23.2104C77.9516 23.4771 77.685 23.4537 77.445 23.1404C67.465 10.3604 58.395 0.790402 41.045 1.8304C28.7316 2.56374 18.5783 7.97375 10.585 18.0604C-2.94499 35.1404 -1.17502 57.3904 9.80498 74.9004C21.005 92.7704 36.135 106.96 51.005 121.87" stroke="#883457" stroke-width="2"/>
<path id="Vector_3" d="M137.545 28.3304C140.018 35.3704 141.232 40.2071 141.185 42.8404C140.435 87.2404 84.3349 107.62 51.0049 121.87" stroke="#D93332" stroke-width="2"/>
<path id="Vector_4" d="M137.545 28.3304C140.018 35.3704 141.232 40.2071 141.185 42.8404C140.435 87.2404 84.335 107.62 51.005 121.87C36.135 106.96 21.005 92.7704 9.80498 74.9004C-1.17502 57.3904 -2.94499 35.1404 10.585 18.0604C18.5783 7.97375 28.7316 2.56374 41.045 1.8304C58.395 0.790402 67.465 10.3604 77.445 23.1404C77.685 23.4537 77.9516 23.4771 78.245 23.2104C92.785 10.0304 113.675 6.37039 129.415 19.7604C131.282 21.3471 133.992 24.2037 137.545 28.3304Z" fill="#F84948"/>
<path id="Vector_5" d="M137.545 28.3304C143.505 33.3904 149.845 39.1304 152.745 46.2104C163.695 72.9005 140.025 97.3704 119.425 109.88C101.965 120.49 84.1249 128.12 65.8349 136.01C65.6668 136.084 65.4794 136.105 65.2974 136.069C65.1153 136.033 64.9472 135.943 64.8149 135.81L51.0049 121.87C84.3349 107.62 140.435 87.2405 141.185 42.8405C141.232 40.2071 140.018 35.3704 137.545 28.3304Z" fill="#B91C1C"/>
</g>
</g>
</svg>
