<svg width="293" height="593" viewBox="0 0 293 593" fill="none" xmlns="http://www.w3.org/2000/svg">
<path fill-rule="evenodd" clip-rule="evenodd" d="M-72.0356 69.1483C-23.4718 64.7966 25.0372 76.0169 67.1552 100.61C112.702 127.204 155.782 162.821 173.524 212.53C191.517 262.939 178.526 317.639 162.891 368.83C146.997 420.866 133.508 485.304 83.6166 506.893C33.4816 528.588 -20.1697 487.625 -72.0356 470.488C-106.486 459.105 -138.975 446.395 -167.478 423.926C-194.937 402.28 -218.842 376.864 -231.949 344.428C-245.803 310.141 -249.346 273.217 -243.106 236.761C-236.023 195.373 -224.205 153.402 -194.229 124.031C-161.523 91.9867 -117.616 73.2326 -72.0356 69.1483Z" fill="#FF0404" fill-opacity="0.14"/>
<path fill-rule="evenodd" clip-rule="evenodd" d="M-22.2569 65.7511C26.0726 72.2038 70.9185 93.8339 106.585 127.1C145.155 163.075 179.331 207.306 185.688 259.703C192.134 312.836 167.413 363.331 140.886 409.82C113.921 457.077 86.5684 516.961 33.1469 527.03C-20.5354 537.148 -63.8459 485.374 -110.663 457.233C-141.76 438.541 -170.651 418.986 -193.505 390.791C-215.521 363.628 -233.24 333.571 -238.88 299.044C-244.841 262.547 -240.163 225.75 -226.047 191.564C-210.021 152.752 -189.248 114.416 -153.538 92.3698C-114.577 68.3165 -67.617 59.6948 -22.2569 65.7511Z" stroke="#FF0404"/>
<path fill-rule="evenodd" clip-rule="evenodd" d="M9.45508 75.9019C57.7845 82.3546 102.63 103.985 138.297 137.251C176.867 173.225 211.042 217.457 217.4 269.854C223.846 322.987 199.125 373.482 172.598 419.971C145.633 467.228 118.28 527.112 64.8589 537.181C11.1765 547.299 -32.1339 495.525 -78.9509 467.384C-110.048 448.691 -138.939 429.137 -161.793 400.942C-183.809 373.779 -201.528 343.722 -207.168 309.195C-213.13 272.698 -208.451 235.901 -194.335 201.715C-178.309 162.903 -157.536 124.567 -121.826 102.521C-82.8651 78.4674 -35.905 69.8457 9.45508 75.9019Z" stroke="#FF0404"/>
<path fill-rule="evenodd" clip-rule="evenodd" d="M66.7766 81.3811C111.838 100.005 149.642 132.407 175.591 173.703C203.652 218.362 225.349 269.875 218.065 322.151C210.677 375.162 173.84 417.634 136.284 455.771C98.1068 494.539 56.3199 545.411 2.10222 541.452C-52.3803 537.473 -80.9741 476.328 -119.014 437.127C-144.282 411.089 -167.196 384.783 -182.06 351.672C-196.379 319.773 -205.802 286.179 -202.404 251.36C-198.812 214.554 -184.859 180.185 -162.453 150.759C-137.014 117.352 -107.11 85.6199 -66.9419 73.4628C-23.1172 60.1988 24.484 63.9012 66.7766 81.3811Z" stroke="#FF0404"/>
</svg>
