<svg width="390" height="844" viewBox="0 0 390 844" fill="none" xmlns="http://www.w3.org/2000/svg">
<path d="M130 0V236.571M130 236.571V709.714M130 236.571L195 236.571M130 236.571H65M130 709.714H195M130 709.714H65M130 709.714V844.857M260 0V236.571M260 236.571V709.714M260 236.571L390 236.571M260 236.571L195 236.571M260 709.714H390M260 709.714L195 709.714M260 709.714V844.857M65 0V236.571M65 236.571V709.714M65 236.571L5.66244e-06 236.571M65 709.714H0M65 709.714V844.857M195 0V236.571M195 236.571V709.714M195 709.714V844.857" stroke="#EAB246"/>
</svg>
