<svg width="242" height="242" viewBox="0 0 242 242" fill="none" xmlns="http://www.w3.org/2000/svg">
<path id="Vector" d="M1 121L1.01083 119.641L1.04332 118.282L1.09744 116.924L1.17317 115.567L1.27047 114.212L1.38929 112.859L1.52955 111.51L1.6912 110.163L1.87414 108.82L2.07827 107.481L2.30349 106.147L2.54968 104.818L2.8167 103.494L3.10441 102.177L3.41267 100.865L3.74129 99.5607L4.09013 98.2633L4.45898 96.9736L4.84765 95.6919L5.25594 94.4186L5.68362 93.1543L6.13049 91.8992L6.59629 90.6538L7.08079 89.4184L7.58373 88.1935L8.10485 86.9794L8.64387 85.7765L9.20052 84.5852L9.77449 83.4057L10.3655 82.2385L10.9732 81.0839L11.5974 79.9422L12.2376 78.8137L12.8936 77.6988L13.565 76.5977L14.2515 75.5108L14.9526 74.4383L15.6682 73.3806L16.3977 72.3378L17.1409 71.3102L17.8973 70.2982L18.6666 69.3018L19.4483 68.3214L20.2421 67.3572L21.0476 66.4094L21.8644 65.4781L22.6921 64.5636L23.5302 63.666L24.3783 62.7855L25.2361 61.9223L26.1031 61.0764L26.9788 60.2481L27.8629 59.4374L28.755 58.6445L29.6545 57.8695L30.5611 57.1123L31.4743 56.3732L32.3936 55.6522L33.3188 54.9493L34.2492 54.2646L35.1846 53.5981L36.1244 52.9498L37.0682 52.3198L38.0155 51.708L38.966 51.1144L39.9192 50.5389L40.8747 49.9817L41.8321 49.4425L42.7908 48.9214L43.7506 48.4182L44.7109 47.933L45.6714 47.4655L46.6316 47.0158L47.5912 46.5836L48.5497 46.1689L49.5067 45.7715L50.4619 45.3913L51.4148 45.0281L52.365 44.6818L53.3122 44.3522L54.2559 44.0391L55.1959 43.7423L56.1318 43.4616L57.0631 43.1968L57.9896 42.9477L58.9109 42.714L59.8266 42.4955L60.7364 42.292L61.6401 42.1032L62.5373 41.9288L63.4276 41.7686L64.3108 41.6223L65.1866 41.4896L66.0547 41.3702L66.9148 41.2639L67.7667 41.1702L68.6101 41.089L69.4448 41.0198L70.2706 40.9624L71.0871 40.9164L71.8942 40.8815L72.6917 40.8573L73.4793 40.8435L74.257 40.8398L75.0244 40.8458L75.7815 40.8611L76.5281 40.8854L77.264 40.9184L77.9892 40.9595L78.7034 41.0086L79.4065 41.0651L80.0985 41.1288L80.7793 41.1992L81.4488 41.276L82.1069 41.3588L82.7535 41.4472L83.3886 41.5408L84.0122 41.6392L84.6242 41.7421L85.2246 41.8491L85.8135 41.9598L86.3907 42.0738L86.9564 42.1907L87.5105 42.3102L88.0531 42.4319L88.5843 42.5553L89.104 42.6802L89.6124 42.8062L90.1096 42.9328L90.5956 43.0598L91.0705 43.1867L91.5344 43.3133L91.9876 43.439L92.43 43.5637L92.8618 43.687L93.2832 43.8084L93.6944 43.9278L94.8681 44.2698L95.2401 44.3775L95.6026 44.4814L95.9562 44.5813L96.3008 44.6769L96.6367 44.7679L96.9642 44.8541L97.2836 44.9351L97.595 45.0107L97.8988 45.0807L98.1952 45.1447L98.4845 45.2026L98.7669 45.2542L99.0428 45.2991L99.3125 45.3372L99.5762 45.3683L99.8343 45.3921L100.087 45.4086L100.335 45.4175L100.578 45.4186L100.816 45.4119L101.051 45.3971L101.282 45.3741L101.51 45.3427L101.734 45.303L101.956 45.2546L102.176 45.1977L102.393 45.132L102.609 45.0575L102.824 44.9741L103.038 44.8818L103.251 44.7805L103.464 44.6702L103.677 44.5509L103.891 44.4225L104.106 44.2851L104.322 44.1387L104.54 43.9832L104.759 43.8187L104.981 43.6453L105.206 43.4629L105.434 43.2718L105.665 43.0718L105.9 42.8632L106.139 42.646L106.383 42.4203L106.631 42.1863L106.885 41.944L107.144 41.6936L107.41 41.4352L107.681 41.169L107.959 40.8952L108.835 40.0297L109.142 39.7271L109.457 39.4179L109.781 39.1022L110.113 38.7803L110.455 38.4525L110.805 38.1188L111.165 37.7797L111.535 37.4354L111.915 37.0862L112.306 36.7323L112.706 36.374L113.118 36.0117L113.541 35.6456L113.975 35.276L114.42 34.9032L114.877 34.5277L115.346 34.1496L115.826 33.7694L116.319 33.3874L116.825 33.0039L117.342 32.6193L117.873 32.2339L118.416 31.8481L118.972 31.4623L119.542 31.0768L120.124 30.692L120.719 30.3083L121.328 29.9261L121.95 29.5457L122.586 29.1676L123.235 28.792L123.898 28.4195L124.574 28.0505L125.264 27.6852L125.968 27.3241L126.685 26.9676L127.415 26.6161L128.159 26.27L128.917 25.9297L129.688 25.5957L130.473 25.2681L131.271 24.9476L132.082 24.6345L132.906 24.3291L133.744 24.032L134.594 23.7433L135.457 23.4637L136.333 23.1934L137.222 22.9328L138.123 22.6823L139.036 22.4422L139.961 22.2131L140.898 21.9951L141.847 21.7888L142.807 21.5943L143.779 21.4122L144.761 21.2428L145.755 21.0863L146.759 20.9432L147.773 20.8137L148.797 20.6983L149.831 20.5971L150.874 20.5106L151.927 20.4391L152.988 20.3827L154.058 20.3419L155.137 20.317L156.223 20.3081L157.317 20.3156L158.418 20.3397L159.526 20.3806L160.64 20.4387L161.761 20.5142L162.887 20.6072L164.019 20.718L165.156 20.8469L166.297 20.9939L167.443 21.1593L168.593 21.3433L169.746 21.546L170.902 21.7676L172.061 22.0083L173.222 22.2681L174.384 22.5472L175.549 22.8458L176.714 23.1639L177.879 23.5015L179.045 23.8589L180.21 24.2361L181.374 24.633L182.538 25.0499L183.699 25.4867L184.858 25.9434L186.015 26.42L187.169 26.9167L188.319 27.4333L189.465 27.9698L190.607 28.5262L191.743 29.1025L192.875 29.6986L194.001 30.3145L195.12 30.95L196.233 31.6051L197.339 32.2797L198.438 32.9736L199.528 33.6869L200.61 34.4192L201.683 35.1705L202.747 35.9406L203.801 36.7294L204.845 37.5367L205.878 38.3622L206.901 39.2059L207.912 40.0674L208.911 40.9467L209.899 41.8433L210.873 42.7571L211.835 43.688L212.783 44.6355L213.718 45.5994L214.638 46.5794L215.544 47.5754L216.436 48.5869L217.312 49.6136L218.173 50.6553L219.017 51.7117L219.846 52.7823L220.658 53.8669L221.454 54.9651L222.232 56.0765L222.993 57.2008L223.737 58.3377L224.462 59.4867L225.17 60.6475L225.859 61.8196L226.529 63.0027L227.181 64.1964L227.813 65.4003L228.426 66.614L229.019 67.837L229.593 69.0689L230.147 70.3093L230.681 71.5578L231.194 72.8139L231.687 74.0772L232.16 75.3472L232.612 76.6236L233.043 77.9058L233.453 79.1934L233.843 80.4859L234.211 81.783L234.558 83.0841L234.884 84.3887L235.189 85.6965L235.472 87.007L235.735 88.3196L235.976 89.634L236.195 90.9497L236.394 92.2662L236.571 93.583L236.727 94.8998L236.862 96.216L236.975 97.5311L237.068 98.8449L237.14 100.157L237.19 101.466L237.22 102.773L237.23 104.076L237.218 105.376L237.187 106.671L237.135 107.962L237.063 109.248L236.971 110.529L236.859 111.804L236.728 113.072L236.577 114.334L236.407 115.589L236.218 116.837L236.01 118.076L235.784 119.308L235.54 120.53L235.278 121.744L234.998 122.949L234.7 124.143L234.385 125.328L234.054 126.503L233.706 127.666L233.341 128.819L232.961 129.961L232.565 131.09L232.153 132.208L231.727 133.314L231.286 134.407L230.831 135.487L230.361 136.554L229.878 137.608L229.382 138.649L228.873 139.675L228.352 140.688L227.818 141.687L227.273 142.671L226.716 143.64L226.149 144.595L225.571 145.535L224.983 146.459L224.385 147.369L223.778 148.263L223.162 149.142L222.537 150.005L221.904 150.852L221.264 151.684L220.617 152.499L219.962 153.299L219.301 154.082L218.635 154.85L217.962 155.601L217.285 156.337L216.602 157.056L215.916 157.759L215.225 158.446L214.531 159.117L213.834 159.771L213.135 160.41L212.433 161.033L211.729 161.639L211.024 162.23L210.318 162.805L209.611 163.365L208.904 163.909L208.197 164.437L207.49 164.95L206.785 165.448L206.081 165.931L205.378 166.399L204.678 166.852L203.98 167.291L203.284 167.715L202.592 168.125L201.903 168.521L201.218 168.904L200.538 169.273L199.861 169.628L199.19 169.971L198.523 170.301L197.862 170.618L197.206 170.923L196.556 171.215L195.913 171.496L195.276 171.766L194.646 172.024L194.023 172.272L193.407 172.509L192.798 172.735L192.197 172.952L191.605 173.159L191.02 173.357L190.443 173.545L189.875 173.725L189.316 173.897L188.766 174.061L188.224 174.217L187.692 174.366L187.169 174.508L186.655 174.643L186.151 174.772L185.656 174.895L185.171 175.013L184.696 175.126L184.231 175.234L183.775 175.337L183.33 175.437L182.894 175.532L182.469 175.625L180.868 175.97L180.492 176.052L180.127 176.133L179.771 176.213L179.426 176.292L179.09 176.372L178.764 176.452L178.447 176.533L178.14 176.615L177.843 176.698L177.554 176.784L177.275 176.871L177.005 176.961L176.743 177.053L176.491 177.149L176.247 177.248L176.011 177.351L175.783 177.458L175.564 177.569L175.352 177.685L175.147 177.806L174.95 177.933L174.76 178.064L174.577 178.202L174.4 178.345L174.23 178.495L174.066 178.652L173.908 178.815L173.755 178.986L173.607 179.163L173.465 179.349L173.327 179.541L173.193 179.742L173.064 179.951L172.938 180.168L172.816 180.394L172.696 180.628L172.58 180.871L172.466 181.123L172.354 181.383L172.243 181.654L172.134 181.933L172.027 182.221L171.919 182.52L171.813 182.827L171.706 183.145L171.599 183.472L171.491 183.808L171.382 184.155L171.271 184.511L171.159 184.877L170.683 186.44L170.556 186.855L170.425 187.28L170.289 187.714L170.149 188.158L170.003 188.612L169.852 189.075L169.695 189.547L169.531 190.029L169.362 190.519L169.185 191.019L169.001 191.527L168.809 192.044L168.609 192.57L168.401 193.104L168.184 193.646L167.959 194.196L167.723 194.753L167.479 195.319L167.224 195.891L166.959 196.471L166.684 197.058L166.398 197.651L166.1 198.25L165.791 198.856L165.471 199.467L165.138 200.084L164.794 200.706L164.436 201.333L164.066 201.965L163.684 202.601L163.287 203.241L162.878 203.885L162.455 204.532L162.018 205.183L161.567 205.835L161.102 206.49L160.622 207.148L160.128 207.806L159.62 208.466L159.096 209.127L158.557 209.788L158.004 210.449L157.435 211.11L156.851 211.77L156.251 212.43L155.636 213.087L155.005 213.743L154.359 214.397L153.696 215.047L153.019 215.695L152.325 216.339L151.616 216.979L150.891 217.615L150.15 218.246L149.393 218.872L148.62 219.493L147.832 220.107L147.028 220.715L146.209 221.316L145.374 221.91L144.523 222.496L143.657 223.074L142.776 223.644L141.88 224.204L140.969 224.756L140.043 225.297L139.102 225.829L138.146 226.35L137.176 226.86L136.192 227.359L135.194 227.846L134.182 228.321L133.157 228.783L132.117 229.233L131.065 229.67L130 230.093L128.922 230.502L127.832 230.897L126.73 231.277L125.615 231.643L124.489 231.993L123.352 232.327L122.204 232.646L121.045 232.948L119.876 233.234L118.697 233.503L117.508 233.755L116.31 233.99L115.103 234.207L113.887 234.406L112.663 234.587L111.431 234.749L110.191 234.893L108.945 235.018L107.692 235.124L106.432 235.21L105.167 235.277L103.896 235.325L102.62 235.353L101.34 235.36L100.055 235.348L98.7662 235.315L97.4743 235.262L96.1795 235.188L94.8822 235.094L93.5829 234.978L92.282 234.842L90.98 234.685L89.6774 234.507L88.3745 234.309L87.0718 234.089L85.7699 233.847L84.4691 233.585L83.1699 233.302L81.8729 232.997L80.5783 232.672L79.2868 232.325L77.9987 231.957L76.7145 231.568L75.4347 231.158L74.1597 230.728L72.89 230.276L71.626 229.804L70.3682 229.312L69.117 228.798L67.873 228.265L66.6364 227.711L65.4078 227.137L64.1876 226.544L62.9762 225.93L61.7741 225.297L60.5816 224.645L59.3992 223.974L58.2274 223.284L57.0664 222.575L55.9167 221.847L54.7787 221.102L53.6528 220.338L52.5394 219.557L51.4388 218.758L50.3514 217.942L49.2775 217.109L48.2176 216.26L47.172 215.395L46.141 214.513L45.1249 213.616L44.124 212.704L43.1388 211.777L42.1693 210.835L41.2161 209.879L40.2793 208.909L39.3592 207.926L38.4562 206.93L37.5703 205.921L36.702 204.899L35.8514 203.866L35.0188 202.821L34.2044 201.765L33.4083 200.698L32.6308 199.621L31.8721 198.534L31.1324 197.438L30.4117 196.333L29.7103 195.219L29.0283 194.097L28.3658 192.967L27.723 191.83L27.0999 190.686L26.4967 189.536L25.9135 188.379L25.3502 187.218L24.8071 186.051L24.284 184.879L23.7812 183.704L23.2985 182.525L22.8361 181.342L22.3938 180.157L21.9718 178.97L21.57 177.78L21.1884 176.589L20.8268 175.397L20.4854 174.205L20.164 173.013L19.8625 171.82L19.5809 170.629L19.319 169.439L19.0768 168.251L18.8541 167.064L18.6509 165.88L18.4669 164.699L18.302 163.522L18.1561 162.348L18.0289 161.178L17.9204 160.013L17.8303 158.853L17.7584 157.698L17.7046 156.549L17.6685 155.406L17.65 154.269L17.6488 153.139L17.6646 152.017L17.6973 150.902L17.7466 149.795L17.8122 148.696L17.8937 147.606L17.991 146.524L18.1037 145.452L18.2316 144.389L18.3742 143.336L18.5314 142.294L18.7027 141.261L18.8878 140.239L19.0865 139.228L19.2983 138.228L19.523 137.239L19.7601 136.262L20.0093 135.297L20.2702 134.344L20.5425 133.403L20.8259 132.474L21.1198 131.558L21.424 130.655L21.7381 129.765L22.0616 128.887L22.3942 128.023L22.7355 127.172L23.0851 126.335L23.4426 125.511L23.8077 124.701L24.1798 123.904L24.5586 123.121L24.9437 122.352L25.3348 121.597L25.7313 120.855L26.1329 120.128L26.5393 119.415L26.9499 118.715L27.3644 118.029L27.7824 117.358L28.2036 116.7L28.6274 116.056L29.0535 115.426L29.4816 114.809L29.9112 114.207L30.342 113.618L30.7735 113.042L31.2054 112.48L31.6374 111.93L32.069 111.395L32.4999 110.872L32.9297 110.362L33.3581 109.864L33.7847 109.379L34.2092 108.907L34.6312 108.447L35.0504 107.999L35.4665 107.562L35.8792 107.137L36.2881 106.724L36.693 106.321L37.0935 105.93L37.4893 105.549L37.8802 105.179L38.266 104.819L38.6462 104.468L39.0207 104.128L39.3892 103.796L39.7515 103.474L40.1073 103.161L40.4564 102.856L40.7986 102.559L41.1337 102.27L41.4615 101.988L42.3992 101.186L42.6959 100.932L42.9845 100.683L43.2649 100.44L43.5368 100.202L43.8001 99.969L44.0549 99.7406L44.3008 99.5163L44.538 99.2958L44.7662 99.0787L44.9855 98.8648L45.1958 98.6535L45.3969 98.4447L45.589 98.2378L45.772 98.0326L45.9458 97.8287L46.1105 97.6256L46.2661 97.4231L46.4125 97.2209L46.5499 97.0184L46.6783 96.8154L46.7977 96.6115L46.9081 96.4064L47.0098 96.1996L47.1026 95.9909L47.1868 95.7799L47.2625 95.5662L47.3297 95.3496L47.3886 95.1296L47.4393 94.9059L47.482 94.6782L47.5168 94.4462L47.5438 94.2096L47.5634 93.9679L47.5756 93.721L47.5806 93.4685L47.5786 93.2101L47.5699 92.9455L47.5547 92.6744L47.5332 92.3966L47.5056 92.1118L47.4722 91.8196L47.4332 91.5198L47.389 91.2123L47.3396 90.8966L47.2856 90.5727L47.227 90.2402L47.1643 89.8989L47.0977 89.5487L47.0275 89.1892L46.954 88.8204L46.8776 88.442L46.6338 87.2477L46.5488 86.8293L46.4625 86.4006L46.3753 85.9613L46.2875 85.5114L46.1994 85.0508L46.1115 84.5793L46.0241 84.0969L45.9374 83.6035L45.8521 83.099L45.7682 82.5833L45.6864 82.0564L45.6069 81.5184L45.5301 80.969L45.4564 80.4084L45.3862 79.8364L45.3198 79.2533L45.2576 78.6588L45.2001 78.0531L45.1475 77.4362L45.1004 76.8081L45.0589 76.169L45.0236 75.5188L44.9949 74.8577L44.973 74.1857L44.9583 73.503L44.9513 72.8096L44.9523 72.1057L44.9617 71.3914L44.9797 70.6669L45.0069 69.9323L45.0435 69.1878L45.0899 68.4336L45.1465 67.6698L45.2135 66.8966L45.2914 66.1143L45.3804 65.3231L45.481 64.5231L45.5933 63.7146L45.7178 62.898L45.8547 62.0733L46.0043 61.2409L46.167 60.4011L46.343 59.5541L46.5327 58.7002L46.7362 57.8397L46.9539 56.973L47.1861 56.1003L47.4329 55.2219L47.6946 54.3383L47.9715 53.4496L48.2638 52.5563L48.5717 51.6587L48.8955 50.7572L49.2352 49.8521L49.5912 48.9438L49.9635 48.0327L50.3524 47.1191L50.7581 46.2034L51.1807 45.2861L51.6202 44.3675L52.077 43.448L52.551 42.528L53.0424 41.608L53.5513 40.6883L54.0779 39.7693L54.622 38.8515L55.184 37.9353L55.7637 37.0212L56.3612 36.1094L56.9767 35.2006L57.61 34.295L58.2613 33.3932L58.9305 32.4955L59.6176 31.6025L60.3226 30.7144L61.0454 29.8318L61.7861 28.9551L62.5445 28.0848L63.3206 27.2212L64.1144 26.3648L64.9257 25.516L65.7544 24.6752L66.6005 23.843L67.4637 23.0196L68.344 22.2055L69.2412 21.4012L70.1553 20.607L71.0859 19.8234L72.0329 19.0508L72.9962 18.2896L73.9755 17.5401L74.9707 16.8028L75.9815 16.0781L77.0077 15.3663L78.049 14.6678L79.1052 13.9831L80.1761 13.3124L81.2614 12.6562L82.3607 12.0147L83.4739 11.3884L84.6006 10.7776L85.7405 10.1826L86.8933 9.60371L88.0586 9.04132L89.2362 8.49571L90.4257 7.96718L91.6268 7.45603L92.8391 6.96255L94.0622 6.48702L95.2958 6.0297L96.5394 5.59086L97.7928 5.17075L99.0556 4.76961L100.327 4.38767L101.607 4.02516L102.896 3.68229L104.192 3.35925L105.495 3.05625L106.805 2.77347L108.122 2.51107L109.444 2.26922L110.772 2.04807L112.106 1.84775L113.443 1.6684L114.786 1.51013L116.132 1.37305L117.481 1.25725L118.833 1.16282L120.188 1.08982L121.544 1.03832L122.902 1.00837L124.261 1L125.621 1.01325L126.98 1.04811L128.34 1.10461L129.698 1.18273L131.056 1.28245L132.411 1.40373L133.764 1.54655L135.115 1.71083L136.462 1.89652L137.806 2.10353L139.146 2.33179L140.481 2.58118L141.812 2.8516L143.137 3.14292L144.456 3.45502L145.769 3.78774L147.075 4.14093L148.374 4.51443L149.665 4.90805L150.949 5.32162L152.224 5.75493L153.49 6.20778L154.747 6.67994L155.994 7.17119L157.231 7.68129L158.458 8.21L159.674 8.75705L160.879 9.32219L162.072 9.90513L163.254 10.5056L164.423 11.1233L165.579 11.7579L166.723 12.4091L167.853 13.0766L168.97 13.7601L170.073 14.4593L171.161 15.1737L172.235 15.9031L173.295 16.6471L174.339 17.4053L175.368 18.1774L176.381 18.963L177.378 19.7617L178.36 20.5731L179.325 21.3969L180.273 22.2326L181.205 23.0798L182.12 23.9382L183.018 24.8073L183.898 25.6867L184.761 26.576L185.606 27.4748L186.434 28.3826L187.244 29.299L188.036 30.2237L188.809 31.1561L189.565 32.0958L190.302 33.0424L191.021 33.9955L191.721 34.9546L192.403 35.9193L193.067 36.8891L193.711 37.8636L194.338 38.8424L194.945 39.825L195.535 40.811L196.105 41.8L196.657 42.7915L197.191 43.785L197.706 44.7802L198.203 45.7767L198.681 46.774L199.142 47.7716L199.584 48.7692L200.008 49.7663L200.414 50.7626L200.803 51.7576L201.173 52.7509L201.527 53.7421L201.863 54.7309L202.181 55.7168L202.483 56.6994L202.768 57.6784L203.037 58.6534L203.289 59.624L203.524 60.5899L203.744 61.5507L203.948 62.5061L204.137 63.4557L204.31 64.3992L204.468 65.3362L204.612 66.2665L204.741 67.1898L204.855 68.1057L204.956 69.0139L205.044 69.9142L205.118 70.8063L205.179 71.6899L205.227 72.5648L205.264 73.4307L205.288 74.2873L205.3 75.1345L205.301 75.9721L205.291 76.7997L205.27 77.6173L205.239 78.4246L205.198 79.2214L205.148 80.0076L205.088 80.783L205.019 81.5475L204.942 82.3009L204.857 83.0431L204.764 83.7741L204.664 84.4935L204.556 85.2015L204.442 85.8978L204.322 86.5825L204.196 87.2555L204.065 87.9166L203.928 88.5659L203.787 89.2034L203.641 89.829L203.492 90.4426L203.339 91.0444L203.183 91.6344L203.024 92.2124L202.863 92.7787L202.7 93.3332L202.535 93.876L202.369 94.4071L202.202 94.9266L202.034 95.4347L201.867 95.9314L201.699 96.4169L201.532 96.8911L201.367 97.3544L201.202 97.8067L201.039 98.2483L200.878 98.6794L200.719 99.1L200.563 99.5104L200.409 99.9107L199.97 101.053L199.832 101.415L199.698 101.769L199.569 102.113L199.444 102.449L199.325 102.777L199.212 103.096L199.104 103.408L199.003 103.712L198.907 104.01L198.818 104.3L198.736 104.584L198.661 104.861L198.593 105.133L198.532 105.398L198.478 105.659L198.433 105.914L198.395 106.165L198.365 106.411L198.343 106.653L198.329 106.892L198.324 107.127L198.327 107.359L198.339 107.588L198.359 107.815L198.388 108.04L198.426 108.264L198.473 108.486L198.529 108.707L198.594 108.928L198.667 109.148L198.75 109.369L198.842 109.59L198.942 109.812L199.052 110.036L199.171 110.261L199.298 110.488L199.435 110.717L199.58 110.949L199.734 111.184L199.896 111.423L200.068 111.665L200.247 111.911L200.435 112.162L200.632 112.418L200.836 112.679L201.048 112.945L201.268 113.217L201.496 113.495L201.731 113.78L201.974 114.072L202.224 114.37L203.013 115.312L203.289 115.642L203.571 115.981L203.859 116.328L204.152 116.685L204.45 117.051L204.754 117.427L205.062 117.813L205.375 118.209L205.691 118.615L206.012 119.032L206.336 119.46L206.663 119.899L206.993 120.349L207.326 120.81L207.661 121.283L207.997 121.768L208.336 122.265L208.675 122.774L209.016 123.296L209.356 123.829L209.697 124.376L210.038 124.935L210.378 125.506L210.717 126.091L211.055 126.688L211.391 127.299L211.724 127.922L212.056 128.559L212.384 129.209L212.709 129.872L213.03 130.548L213.348 131.237L213.66 131.94L213.968 132.656L214.271 133.385L214.568 134.127L214.858 134.883L215.143 135.651L215.42 136.432L215.69 137.227L215.953 138.034L216.208 138.854L216.454 139.686L216.691 140.531L216.919 141.388L217.137 142.258L217.346 143.14L217.544 144.033L217.732 144.938L217.908 145.855L218.073 146.783L218.226 147.722L218.367 148.672L218.496 149.633L218.612 150.604L218.714 151.586L218.803 152.577L218.878 153.578L218.939 154.589L218.986 155.609L219.018 156.637L219.035 157.674L219.036 158.719L219.022 159.773L218.992 160.833L218.945 161.902L218.882 162.977L218.803 164.058L218.707 165.146L218.593 166.24L218.462 167.339L218.314 168.443L218.147 169.552L217.963 170.666L217.76 171.783L217.54 172.904L217.3 174.028L217.042 175.155L216.765 176.284L216.469 177.415L216.154 178.548L215.82 179.682L215.467 180.816L215.094 181.951L214.701 183.085L214.289 184.219L213.858 185.352L213.407 186.483L212.936 187.612L212.445 188.739L211.935 189.863L211.405 190.983L210.855 192.1L210.286 193.213L209.697 194.32L209.088 195.423L208.46 196.521L207.812 197.612L207.145 198.697L206.458 199.775L205.753 200.845L205.028 201.908L204.284 202.963L203.521 204.009L202.74 205.046L201.94 206.073L201.121 207.091L200.285 208.098L199.43 209.094L198.558 210.08L197.668 211.053L196.76 212.015L195.835 212.964L194.894 213.901L193.936 214.825L192.961 215.734L191.97 216.63L190.964 217.512L189.941 218.379L188.904 219.232L187.851 220.068L186.784 220.889L185.703 221.695L184.607 222.484L183.498 223.256L182.376 224.011L181.24 224.749L180.092 225.47L178.932 226.173L177.76 226.857L176.576 227.524L175.382 228.172L174.176 228.801L172.961 229.411L171.736 230.001L170.501 230.573L169.257 231.124L168.004 231.656L166.744 232.168L165.475 232.659L164.2 233.13L162.917 233.581L161.628 234.011L160.333 234.42L159.032 234.808L157.727 235.176L156.417 235.522L155.102 235.847L153.784 236.151L152.463 236.434L151.139 236.695L149.812 236.935L148.484 237.154L147.154 237.351L145.824 237.527L144.493 237.681L143.162 237.814L141.831 237.926L140.501 238.017L139.173 238.086L137.846 238.134L136.522 238.162L135.2 238.168L133.882 238.153L132.567 238.118L131.256 238.062L129.95 237.986L128.648 237.889L127.352 237.772L126.062 237.635L124.778 237.478L123.5 237.302L122.23 237.106L120.967 236.891L119.712 236.657L118.464 236.405L117.226 236.133L115.996 235.844L114.776 235.536L113.566 235.211L112.365 234.868L111.175 234.508L109.996 234.131L108.828 233.738L107.671 233.328L106.526 232.902L105.392 232.46L104.272 232.004L103.163 231.532L102.068 231.045L100.986 230.545L99.917 230.03L98.8619 229.502L97.8207 228.96L96.7936 228.406L95.7809 227.839L94.7827 227.26L93.7994 226.67L92.831 226.068L91.8777 225.455L90.9398 224.832L90.0173 224.198L89.1104 223.555L88.2193 222.903L87.3441 222.242L86.4849 221.572L85.6417 220.894L84.8148 220.209L84.0041 219.516L83.2098 218.817L82.4319 218.111L81.6704 217.4L80.9254 216.683L80.1969 215.961L79.4849 215.234L78.7894 214.503L78.1105 213.768L77.448 213.029L76.8021 212.288L76.1725 211.544L75.5593 210.798L74.9624 210.05L74.3818 209.301L73.8173 208.55L73.2688 207.8L72.7363 207.049L72.2197 206.298L71.7187 205.548L71.2333 204.799L70.7633 204.051L70.3085 203.306L69.8689 202.562L69.4441 201.821L69.0341 201.082L68.6387 200.347L68.2576 199.616L67.8905 198.888L67.5374 198.165L67.198 197.446L66.8719 196.732L66.5591 196.023L66.2592 195.32L65.9719 194.623L65.6971 193.931L65.4343 193.246L65.1834 192.568L64.944 191.896L64.7159 191.232L64.4987 190.575L64.2921 189.925L64.0959 189.284L63.9096 188.65L63.733 188.025L63.5658 187.408L63.4075 186.8L63.2579 186.201L63.1167 185.611L62.9833 185.03L62.8576 184.458L62.7392 183.895L62.6277 183.343L62.5227 182.8L62.4238 182.266L62.3308 181.743L62.2432 181.229L62.1607 180.726L62.0829 180.233L62.0094 179.749L61.9399 179.276L61.8739 178.814L61.8112 178.361L61.7513 177.919L61.6939 177.487L61.4815 175.86L61.4308 175.479L61.3805 175.108L61.33 174.747L61.2791 174.395L61.2274 174.053L61.1745 173.721L61.1201 173.399L61.0639 173.086L61.0055 172.782L60.9445 172.487L60.8807 172.201L60.8138 171.924L60.7433 171.655L60.669 171.395L60.5906 171.143L60.5078 170.899L60.4203 170.663L60.3278 170.435L60.2301 170.213L60.1267 169.999L60.0176 169.792L59.9023 169.592L59.7807 169.397L59.6526 169.209L59.5176 169.027L59.3756 168.85L59.2263 168.679L59.0696 168.512L58.9052 168.35L58.7329 168.192L58.5526 168.039L58.364 167.889L58.167 167.743L57.9615 167.599L57.7474 167.458L57.5243 167.32L57.2924 167.184L57.0513 167.049L56.8011 166.916L56.5416 166.784L56.2727 166.653L55.9945 166.521L55.7067 166.39L55.4094 166.258L55.1024 166.126L54.7859 165.992L54.4597 165.857L54.1239 165.72L53.7784 165.581L53.4232 165.439L53.0584 165.294L51.9067 164.838L51.5039 164.677L51.0917 164.512L50.6702 164.341L50.2396 164.165L49.7999 163.983L49.3512 163.795L48.8938 163.6L48.4276 163.399L47.9529 163.189L47.4699 162.973L46.9786 162.748L46.4793 162.515L45.9722 162.274L45.4574 162.023L44.9352 161.763L44.4058 161.494L43.8694 161.215L43.3263 160.925L42.7766 160.625L42.2207 160.315L41.6588 159.993L41.0912 159.66L40.5181 159.315L39.9399 158.959L39.3568 158.59L38.7692 158.209L38.1773 157.816L37.5815 157.409L36.9821 156.99L36.3795 156.557L35.7738 156.111L35.1656 155.651L34.5552 155.178L33.9428 154.69L33.3289 154.189L32.7139 153.673L32.0981 153.142L31.4818 152.597L30.8656 152.037L30.2497 151.463L29.6345 150.873L29.0204 150.268L28.4079 149.649L27.7973 149.014L27.1891 148.364L26.5835 147.698L25.9812 147.017L25.3823 146.321L24.7874 145.609L24.1969 144.882L23.6112 144.14L23.0307 143.382L22.4557 142.609L21.8868 141.82L21.3244 141.016L20.7687 140.197L20.2204 139.363L19.6797 138.514L19.1471 137.649L18.6229 136.77L18.1077 135.876L17.6018 134.968L17.1056 134.045L16.6195 133.107L16.1438 132.155L15.6791 131.19L15.2256 130.21L14.7838 129.217L14.354 128.21L13.9367 127.191L13.5321 126.158L13.1407 125.112L12.7628 124.054L12.3987 122.983L12.0489 121.9L11.7136 120.806L11.3932 119.7L11.088 118.583L10.7984 117.455L10.5246 116.316L10.267 115.167L10.0258 114.008L9.80139 112.839L9.59402 111.661L9.40396 110.474L9.23149 109.279L9.07685 108.075L8.9403 106.863L8.82207 105.644L8.72241 104.418L8.64153 103.185L8.57963 101.945L8.53693 100.7L8.51362 99.449L8.50987 98.193L8.52586 96.9323L8.56175 95.6672L8.6177 94.3983L8.69383 93.126L8.79029 91.8507L8.90718 90.5728L9.04461 89.2928L9.2027 88.0111L9.38151 86.7281L9.58111 85.4444L9.80159 84.1603L10.043 82.8764L10.3053 81.593L10.5887 80.3106L10.893 79.0298L11.2183 77.7509L11.5647 76.4743L11.932 75.2007L12.3203 73.9303L12.7295 72.6638L13.1596 71.4014L13.6104 70.1438L14.082 68.8913L14.5742 67.6444L15.087 66.4035L15.6202 65.1691L16.1737 63.9417L16.7474 62.7216L17.3411 61.5094L17.9548 60.3055L18.5881 59.1102L19.241 57.924L19.9132 56.7474L20.6046 55.5808L21.315 54.4245L22.0441 53.279L22.7917 52.1447L23.5576 51.022L24.3415 49.9112L25.1432 48.8129L25.9624 47.7273L26.7988 46.6548L27.6522 45.5957L28.5222 44.5506L29.4085 43.5196L30.3109 42.5032L31.229 41.5016L32.1624 40.5152L33.1109 39.5444L34.0741 38.5893L35.0517 37.6504L36.0433 36.728L37.0484 35.8222L38.0669 34.9334L39.0982 34.0619L40.142 33.2079L41.1979 32.3716L42.2654 31.5533L43.3443 30.7532L44.4341 29.9715L45.5343 29.2085L46.6446 28.4642L47.7645 27.739L48.8936 27.033L50.0315 26.3462L51.1777 25.679L52.3318 25.0314L53.4934 24.4036L54.662 23.7956L55.8372 23.2076L57.0185 22.6397L58.2054 22.092L59.3976 21.5645L60.5945 21.0573L61.7958 20.5704L63.0009 20.1039L64.2095 19.6578L65.421 19.2321L66.6349 18.8268L67.851 18.442L69.0686 18.0776L70.2874 17.7335L71.5068 17.4097L72.7265 17.1063L73.946 16.823L75.1649 16.5598L76.3827 16.3167L77.5989 16.0935L78.8132 15.8902L80.0251 15.7066L81.2343 15.5426L82.4401 15.398L83.6423 15.2727L84.8405 15.1665L86.0342 15.0793L87.223 15.0109L88.4065 14.961L89.5843 14.9296L90.7561 14.9163L91.9215 14.9209L93.0801 14.9433L94.2315 14.9831L95.3753 15.0402L96.5113 15.1142L97.639 15.2049L98.7582 15.3121L99.8685 15.4354L100.97 15.5746L102.061 15.7294L103.143 15.8994L104.214 16.0843L105.276 16.2839L106.326 16.4978L107.366 16.7256L108.394 16.9671L109.411 17.2219L110.416 17.4895L111.409 17.7698L112.39 18.0623L113.359 18.3666L114.315 18.6825L115.258 19.0094L116.189 19.347L117.106 19.695L118.01 20.053L118.9 20.4205L119.778 20.7973L120.641 21.1828L121.491 21.5766L122.326 21.9785L123.148 22.388L123.956 22.8046L124.749 23.2281L125.529 23.6579L126.294 24.0937L127.045 24.5351L127.781 24.9816L128.504 25.4329L129.212 25.8886L129.905 26.3482L130.585 26.8114L131.25 27.2778L131.901 27.7469L132.537 28.2184L133.16 28.6918L133.768 29.1668L134.363 29.6431L134.944 30.1201L135.511 30.5976L136.064 31.0751L136.604 31.5523L137.13 32.0289L137.643 32.5044L138.143 32.9784L138.63 33.4508L139.105 33.921L139.566 34.3888L140.016 34.8538L140.453 35.3157L140.878 35.7742L141.292 36.2289L141.694 36.6796L142.084 37.1259L142.464 37.5675L142.833 38.0042L143.191 38.4358L143.539 38.8618L143.877 39.282L144.205 39.6963L144.524 40.1043L144.834 40.5058L145.134 40.9006L145.427 41.2885L145.711 41.6692L145.987 42.0426L146.255 42.4085L146.516 42.7666L146.771 43.1168L147.495 44.1187L147.725 44.4359L147.949 44.7444L148.169 45.0443L148.384 45.3354L148.595 45.6176L148.803 45.8908L149.006 46.1549L149.207 46.41L149.405 46.6559L149.6 46.8926L149.794 47.1202L149.986 47.3385L150.176 47.5475L150.366 47.7474L150.555 47.9381L150.744 48.1196L150.933 48.2919L151.123 48.4552L151.313 48.6094L151.505 48.7547L151.698 48.8911L151.894 49.0188L152.091 49.1377L152.292 49.2481L152.495 49.35L152.702 49.4437L152.912 49.5291L153.126 49.6066L153.345 49.6762L153.568 49.7381L153.796 49.7925L154.029 49.8396L154.268 49.8796L154.513 49.9126L154.764 49.939L155.021 49.959L155.286 49.9726L155.557 49.9804L155.835 49.9823L156.121 49.9788L156.414 49.9701L156.716 49.9565L157.026 49.9381L157.344 49.9155L157.671 49.8887L158.007 49.8582L158.352 49.8242L158.706 49.787L159.069 49.747L159.442 49.7045L159.825 49.6598L161.458 49.4661L161.892 49.4156L162.337 49.365L162.792 49.3147L163.258 49.265L163.734 49.2163L164.222 49.1689L164.72 49.1233L165.23 49.0798L165.75 49.0387L166.282 49.0004L166.824 48.9654L167.378 48.934L167.942 48.9066L168.517 48.8835L169.104 48.8652L169.701 48.852L170.309 48.8442L170.928 48.8424L171.558 48.8467L172.198 48.8577L172.848 48.8757L173.509 48.901L174.181 48.9341L174.862 48.9752L175.554 49.0248L176.255 49.0831L176.966 49.1507L177.686 49.2277L178.416 49.3146L179.155 49.4117L179.903 49.5193L180.66 49.6378L181.425 49.7674L182.198 49.9086L182.979 50.0616L183.768 50.2268L184.565 50.4043L185.369 50.5946L186.18 50.798L186.997 51.0146L187.821 51.2448L188.651 51.4888L189.486 51.747L190.328 52.0195L191.174 52.3066L192.025 52.6086L192.88 52.9256L193.74 53.2579L194.603 53.6057L195.47 53.9692L196.34 54.3485L197.212 54.744L198.087 55.1556L198.963 55.5837L199.841 56.0283L200.721 56.4896L201.601 56.9677L202.481 57.4627L203.361 57.9748L204.24 58.5041L205.119 59.0506L205.996 59.6144L206.872 60.1956L207.746 60.7943L208.616 61.4104L209.484 62.0441L210.349 62.6953L211.209 63.3641L212.065 64.0504L212.917 64.7543L213.763 65.4758L214.604 66.2147L215.438 66.9711L216.267 67.7449L217.088 68.5361L217.902 69.3445L218.708 70.17L219.506 71.0127L220.296 71.8723L221.076 72.7487L221.847 73.6418L222.609 74.5515L223.359 75.4777L224.1 76.42L224.829 77.3784L225.547 78.3527L226.252 79.3427L226.946 80.3481L227.627 81.3688L228.295 82.4045L228.949 83.4549L229.59 84.52L230.216 85.5993L230.828 86.6925L231.425 87.7996L232.007 88.92L232.574 90.0536L233.124 91.2001L233.658 92.3591L234.176 93.5303L234.677 94.7133L235.16 95.9079L235.627 97.1137L236.075 98.3303L236.506 99.5574L236.918 100.795L237.312 102.041L237.687 103.298L238.042 104.563L238.379 105.837L238.696 107.119L238.994 108.408L239.271 109.705L239.529 111.009L239.766 112.32L239.983 113.636L240.18 114.958L240.355 116.286L240.51 117.618L240.644 118.954L240.756 120.294L240.848 121.638L240.918 122.985L240.967 124.334L240.994 125.685L241 127.038L240.984 128.392L240.947 129.746L240.888 131.101L240.808 132.456L240.706 133.809L240.582 135.162L240.437 136.513L240.27 137.862L240.081 139.208L239.872 140.552L239.64 141.891L239.388 143.227L239.114 144.559L238.819 145.885L238.504 147.207L238.167 148.522L237.81 149.832L237.432 151.135L237.033 152.43L236.615 153.718L236.176 154.999L235.717 156.271L235.239 157.534L234.741 158.788L234.224 160.032L233.688 161.267L233.134 162.491L232.56 163.704L231.969 164.906L231.359 166.097L230.732 167.276L230.087 168.442L229.425 169.596L228.747 170.737L228.051 171.865L227.34 172.979L226.613 174.079L225.87 175.165L225.112 176.236L224.339 177.293L223.552 178.334L222.75 179.36L221.935 180.371L221.106 181.365L220.265 182.344L219.411 183.306L218.544 184.251L217.666 185.179L216.777 186.091L215.876 186.985L214.965 187.862L214.044 188.721L213.113 189.562L212.172 190.386L211.223 191.191L210.265 191.978L209.299 192.747L208.326 193.498L207.346 194.23L206.358 194.943L205.365 195.638L204.365 196.314L203.361 196.972L202.351 197.61L201.337 198.23L200.318 198.831L199.296 199.413L198.271 199.976L197.243 200.52L196.213 201.045L195.181 201.552L194.147 202.04L193.113 202.509L192.078 202.96L191.042 203.392L190.007 203.806L188.973 204.202L187.939 204.579L186.908 204.938L185.878 205.28L184.85 205.603L183.825 205.909L182.803 206.198L181.785 206.469L180.771 206.724L179.761 206.961L178.755 207.182L177.754 207.386L176.759 207.574L175.77 207.746L174.786 207.902L173.809 208.043L172.839 208.168L171.875 208.279L170.919 208.374L169.97 208.456L169.03 208.523L168.098 208.576L167.174 208.616L166.259 208.643L165.353 208.656L164.456 208.657L163.568 208.646L162.691 208.623L161.823 208.589L160.966 208.543L160.119 208.486L159.282 208.419L158.457 208.341L157.642 208.254L156.838 208.157L156.046 208.051L155.265 207.937L154.495 207.814L153.737 207.683L152.991 207.544L152.257 207.399L151.534 207.246L150.824 207.088L150.126 206.923L149.439 206.752L148.765 206.577L148.103 206.396L147.454 206.211L146.816 206.022L146.191 205.829L145.578 205.632L144.977 205.433L144.388 205.231L143.812 205.027L143.247 204.822L142.695 204.615L142.154 204.406L141.625 204.197L141.108 203.988L140.603 203.779L140.109 203.57L139.626 203.362L139.155 203.155L138.695 202.95L138.245 202.746L137.807 202.545L137.379 202.346L136.961 202.15L136.554 201.957L136.157 201.767L135.769 201.581L134.663 201.048L134.313 200.88L133.971 200.717L133.637 200.56L133.312 200.408L132.994 200.262L132.684 200.122L132.381 199.988L132.086 199.861L131.796 199.741L131.514 199.628L131.237 199.522L130.966 199.424L130.7 199.333L130.44 199.25L130.184 199.174L129.933 199.107L129.685 199.048L129.442 198.997L129.202 198.955L128.965 198.921L128.731 198.895L128.499 198.879L128.269 198.871L128.04 198.871L127.814 198.881L127.587 198.9L127.362 198.927L127.137 198.964L126.911 199.009L126.685 199.064L126.458 199.127L126.23 199.199L126 199.281L125.769 199.371L125.535 199.469L125.298 199.577L125.058 199.693L124.815 199.818L124.568 199.951L124.317 200.093L124.062 200.242L123.801 200.4L123.536 200.566L123.265 200.74L122.989 200.921L122.706 201.11L122.417 201.306L122.121 201.509L121.818 201.719L121.508 201.936L121.19 202.159L120.188 202.866L119.836 203.113L119.476 203.365L119.106 203.623L118.727 203.885L118.338 204.152L117.939 204.422L117.529 204.697L117.109 204.975L116.679 205.257L116.237 205.541L115.785 205.828L115.321 206.117L114.845 206.409L114.359 206.702L113.86 206.996L113.349 207.291L112.827 207.587L112.292 207.883L111.745 208.179L111.185 208.474L110.613 208.768L110.028 209.062L109.431 209.353L108.821 209.643L108.198 209.93L107.562 210.214L106.914 210.495L106.252 210.773L105.578 211.046L104.891 211.315L104.191 211.58L103.478 211.839L102.752 212.093L102.014 212.341L101.262 212.582L100.499 212.817L99.722 213.045L98.933 213.265L98.1316 213.478L97.3179 213.682L96.4921 213.877L95.6542 214.064L94.8044 214.241L93.9429 214.408L93.0698 214.565L92.1852 214.712L91.2895 214.847L90.3827 214.972L89.4651 215.085L88.537 215.186L87.5984 215.274L86.6496 215.35L85.691 215.413L84.7227 215.463L83.745 215.499L82.7582 215.521L81.7625 215.529L80.7583 215.523L79.7459 215.501L78.7255 215.465L77.6975 215.413L76.6621 215.345L75.6198 215.262L74.5708 215.162L73.5156 215.046L72.4544 214.913L71.3876 214.763L70.3156 214.596L69.2387 214.411L68.1574 214.209L67.072 213.99L65.9829 213.752L64.8905 213.496L63.7953 213.222L62.6975 212.93L61.5977 212.619L60.4962 212.289L59.3934 211.941L58.2899 211.574L57.1859 211.187L56.082 210.782L54.9786 210.357L53.876 209.913L52.7748 209.449L51.6754 208.967L50.5783 208.465L49.4838 207.943L48.3924 207.402L47.3045 206.842L46.2207 206.262L45.1413 205.663L44.0668 205.044L42.9977 204.406L41.9343 203.749L40.8772 203.072L39.8268 202.377L38.7835 201.662L37.7477 200.929L36.7199 200.176L35.7006 199.405L34.6901 198.616L33.6889 197.808L32.6974 196.982L31.716 196.137L30.7453 195.275L29.7854 194.395L28.837 193.498L27.9004 192.583L26.9759 191.652L26.064 190.703L25.1651 189.738L24.2795 188.756L23.4077 187.758L22.55 186.745L21.7067 185.716L20.8783 184.672L20.065 183.612L19.2672 182.539L18.4853 181.45L17.7196 180.348L16.9703 179.232L16.2379 178.103L15.5226 176.961L14.8246 175.806L14.1444 174.639L13.4821 173.46L12.8381 172.27L12.2125 171.068L11.6057 169.856L11.0179 168.633L10.4492 167.401L9.90003 166.159L9.37044 164.907L8.86067 163.648L8.37092 162.379L7.90136 161.103L7.45215 159.82L7.02345 158.53L6.61539 157.233L6.22813 155.93L5.86177 154.621L5.51643 153.308L5.1922 151.989L4.88918 150.666L4.60743 149.34L4.34703 148.01L4.10803 146.677L3.89046 145.342L3.69437 144.005L3.51976 142.666L3.36665 141.326L3.23503 139.986L3.12489 138.645L3.03619 137.305L2.9689 135.966L2.92297 134.627L2.89833 133.291L2.89492 131.957L2.91265 130.625L2.95142 129.297L3.01113 127.971L3.09165 126.65L3.19286 125.334L3.31463 124.022L3.45679 122.715L3.61919 121.414L3.80165 120.12L4.004 118.831L4.22603 117.55L4.46755 116.276L4.72835 115.01L5.0082 113.752L5.30687 112.502L5.62412 111.262L5.9597 110.031L6.31334 108.809L6.68478 107.598L7.07374 106.397L7.47993 105.206L7.90306 104.027L8.34283 102.859L8.79892 101.703L9.27102 100.559L9.7588 99.4274L10.2619 98.3084L10.7801 97.2024L11.3128 96.1095L11.8599 95.0302L12.421 93.9647L12.9956 92.9132L13.5835 91.8759L14.1841 90.8531L14.7973 89.8451L15.4224 88.8519L16.0593 87.8739L16.7075 86.9112L17.3665 85.964L18.036 85.0324L18.7155 84.1167L19.4048 83.2169L20.1032 82.3332L20.8105 81.4658L21.5262 80.6146L22.25 79.78L22.9812 78.9619L23.7197 78.1603L24.4648 77.3755L25.2163 76.6074L25.9736 75.8561L26.7364 75.1216L27.5042 74.404L28.2766 73.7033L29.0531 73.0194L29.8335 72.3523L30.6171 71.7021L31.4037 71.0687L32.1928 70.4521L32.9839 69.8522L33.7767 69.2689L34.5708 68.7022L35.3657 68.152L36.161 67.6182L36.9564 67.1006L37.7514 66.5992L38.5457 66.1139L39.3389 65.6444L40.1305 65.1907L40.9202 64.7526L41.7077 64.3299L42.4925 63.9225L43.2743 63.5301L44.0528 63.1526L44.8275 62.7898L45.5983 62.4414L46.3646 62.1072L47.1262 61.787L47.8828 61.4806L48.634 61.1876L49.3796 60.908L50.1193 60.6413L50.8527 60.3873L51.5796 60.1458L52.2996 59.9164L53.0126 59.6989L53.7183 59.4929L54.4165 59.2982L55.1068 59.1145L55.7891 58.9414L56.4631 58.7786L57.1287 58.6257L57.7856 58.4825L58.4336 58.3487L59.0727 58.2238L59.7025 58.1075L60.3229 57.9995L60.9339 57.8994L61.5351 57.8069L62.1267 57.7216L62.7083 57.6431L63.2798 57.5711L63.8413 57.5052L64.3926 57.4451L64.9337 57.3903L65.4644 57.3405L65.9847 57.2953L66.4946 57.2544L66.994 57.2174L67.483 57.1839L67.9614 57.1535L68.4294 57.1258L68.8868 57.1006L69.3339 57.0773L69.7705 57.0557L71.4136 56.9783L71.7989 56.9595L72.1742 56.94L72.5396 56.9197L72.8953 56.8982L73.2412 56.875L73.5777 56.85L73.9047 56.8227L74.2226 56.7928L74.5314 56.76L74.8313 56.7239L75.1224 56.6843L75.4051 56.6409L75.6795 56.5932L75.9458 56.5412L76.2042 56.4843L76.455 56.4225L76.6983 56.3553L76.9345 56.2825L77.1638 56.2039L77.3864 56.1192L77.6026 56.0282L77.8127 55.9306L78.0169 55.8261L78.2156 55.7147L78.4091 55.596L78.5975 55.4698L78.7813 55.336L78.9608 55.1943L79.1362 55.0447L79.308 54.8868L79.4763 54.7207L79.6416 54.546L79.8042 54.3627L79.9644 54.1707L80.1226 53.9698L80.2791 53.7599L80.4342 53.5409L80.5884 53.3128L80.7419 53.0755L80.8952 52.8288L81.0486 52.5727L81.2024 52.3073L81.357 52.0324L81.5129 51.748L81.6702 51.4542L81.8295 51.1508L81.9911 50.838L82.1553 50.5157L82.3225 50.184L82.4931 49.8429L82.6675 49.4925L83.2167 48.3858L83.4096 47.9987L83.6081 47.6027L83.8125 47.1979L84.0232 46.7844L84.2404 46.3623L84.4646 45.9319L84.6961 45.4932L84.9352 45.0464L85.1823 44.5917L85.4376 44.1293L85.7015 43.6593L85.9744 43.182L86.2565 42.6977L86.5481 42.2064L86.8495 41.7085L87.1611 41.2042L87.4831 40.6937L87.8158 40.1773L88.1595 39.6553L88.5144 39.1279L88.8808 38.5954L89.2589 38.0582L89.6491 37.5165L90.0515 36.9706L90.4663 36.4208L90.8938 35.8675L91.3342 35.311L91.7877 34.7516L92.2545 34.1896L92.7347 33.6255L93.2286 33.0595L93.7363 32.492L94.258 31.9234L94.7937 31.3541L95.3437 30.7844L95.9081 30.2146L96.4869 29.6453L97.0804 29.0767L97.6885 28.5092L98.3114 27.9433L98.9491 27.3794L99.6018 26.8177L100.269 26.2588L100.952 25.7031L101.65 25.1509L102.362 24.6027L103.09 24.0588L103.833 23.5197L104.591 22.9857L105.363 22.4574L106.151 21.935L106.954 21.4191L107.772 20.9099L108.604 20.408L109.451 19.9138L110.313 19.4276L111.189 18.9498L112.08 18.4809L112.985 18.0212L113.904 17.5712L114.837 17.1312L115.784 16.7017L116.745 16.283L117.719 15.8754L118.707 15.4795L119.707 15.0956L120.721 14.724L121.747 14.365L122.786 14.0192L123.837 13.6868L124.9 13.3682L125.974 13.0636L127.06 12.7736L128.157 12.4983L129.265 12.2382L130.384 11.9935L131.513 11.7645L132.652 11.5516L133.8 11.355L134.958 11.1751L136.125 11.0121L137.3 10.8663L138.484 10.7379L139.676 10.6273L140.875 10.5346L142.081 10.4601L143.294 10.4041L144.514 10.3666L145.739 10.3481L146.97 10.3485L148.207 10.3682L149.448 10.4074L150.693 10.4661L151.943 10.5445L153.196 10.6429L154.452 10.7613L155.711 10.8998L156.972 11.0586L158.234 11.2378L159.499 11.4375L160.764 11.6577L162.029 11.8986L163.295 12.1601L164.56 12.4424L165.824 12.7454L167.087 13.0692L168.348 13.4139L169.607 13.7794L170.863 14.1656L172.116 14.5727L173.365 15.0005L174.61 15.4491L175.851 15.9183L177.086 16.4081L178.317 16.9184L179.541 17.4491L180.759 18.0002L181.97 18.5715L183.174 19.1629L184.37 19.7743L185.558 20.4054L186.737 21.0563L187.908 21.7266L189.069 22.4163L190.22 23.125L191.361 23.8528L192.491 24.5992L193.61 25.3642L194.718 26.1474L195.814 26.9486L196.897 27.7677L197.968 28.6043L199.026 29.4581L200.07 30.3289L201.101 31.2164L202.118 32.1203L203.12 33.0403L204.107 33.9761L205.079 34.9273L206.035 35.8937L206.976 36.8748L207.901 37.8704L208.809 38.8801L209.701 39.9035L210.575 40.9403L211.432 41.99L212.272 43.0524L213.094 44.1269L213.898 45.2133L214.684 46.3112L215.451 47.42L216.2 48.5395L216.93 49.6691L217.64 50.8085L218.332 51.9573L219.003 53.115L219.656 54.2812L220.288 55.4554L220.901 56.6373L221.494 57.8263L222.066 59.022L222.619 60.2241L223.151 61.4319L223.663 62.6452L224.154 63.8633L224.624 65.086L225.074 66.3126L225.504 67.5429L225.913 68.7762L226.301 70.0122L226.668 71.2504L227.015 72.4903L227.342 73.7315L227.647 74.9736L227.933 76.2161L228.197 77.4585L228.441 78.7003L228.665 79.9413L228.869 81.1808L229.053 82.4185L229.216 83.654L229.36 84.8867L229.483 86.1163L229.588 87.3424L229.672 88.5645L229.738 89.7822L229.784 90.9951L229.811 92.2028L229.82 93.4049L229.81 94.6011L229.781 95.7908L229.735 96.9738L229.67 98.1497L229.588 99.3181L229.489 100.479L229.372 101.631L229.239 102.775L229.089 103.91L228.922 105.035L228.74 106.151L228.542 107.257L228.328 108.354L228.1 109.439L227.857 110.514L227.599 111.578L227.327 112.63L227.041 113.671L226.742 114.7L226.43 115.718L226.105 116.722L225.768 117.715L225.419 118.695L225.059 119.661L224.687 120.615L224.304 121.555L223.911 122.482L223.508 123.395L223.095 124.295L222.673 125.181L222.241 126.052L221.802 126.91L221.354 127.753L220.899 128.582L220.437 129.397L219.967 130.197L219.491 130.982L219.01 131.753L218.522 132.51L218.029 133.251L217.532 133.978L217.03 134.691L216.524 135.388L216.014 136.071L215.501 136.74L214.986 137.394L214.468 138.033L213.948 138.658L213.426 139.268L212.904 139.864L212.38 140.446L211.856 141.014L211.332 141.568L210.808 142.107L210.284 142.634L209.762 143.146L209.242 143.645L208.723 144.131L208.206 144.604L207.691 145.063L207.18 145.51L206.671 145.945L206.166 146.367L205.665 146.777L205.167 147.175L204.675 147.562L204.186 147.937L203.703 148.3L203.225 148.653L202.753 148.996L202.286 149.328L201.826 149.65L201.372 149.962L200.924 150.264L200.483 150.557L200.049 150.842L199.622 151.118L199.203 151.385L198.791 151.645L198.387 151.897L197.991 152.141L197.604 152.379L197.224 152.61L196.853 152.835L195.792 153.475L195.456 153.678L195.128 153.876L194.81 154.07L194.502 154.261L194.202 154.448L193.911 154.632L193.63 154.813L193.359 154.992L193.096 155.169L192.843 155.344L192.599 155.518L192.365 155.691L192.14 155.863L191.924 156.036L191.718 156.208L191.52 156.381L191.332 156.555L191.153 156.73L190.982 156.907L190.821 157.086L190.668 157.267L190.524 157.451L190.388 157.638L190.261 157.828L190.142 158.021L190.031 158.219L189.927 158.421L189.832 158.627L189.744 158.839L189.663 159.055L189.589 159.278L189.522 159.506L189.462 159.74L189.409 159.98L189.361 160.227L189.319 160.481L189.283 160.742L189.253 161.011L189.228 161.287L189.207 161.572L189.191 161.864L189.18 162.165L189.172 162.474L189.168 162.792L189.167 163.119L189.17 163.455L189.175 163.8L189.183 164.155L189.193 164.52L189.204 164.894L189.217 165.278L189.275 166.916L189.29 167.351L189.304 167.797L189.316 168.254L189.328 168.721L189.337 169.199L189.344 169.687L189.349 170.186L189.35 170.696L189.349 171.217L189.343 171.748L189.334 172.29L189.32 172.843L189.301 173.406L189.277 173.98L189.247 174.565L189.211 175.16L189.17 175.765L189.121 176.38L189.065 177.006L189.002 177.642L188.931 178.287L188.852 178.942L188.764 179.607L188.667 180.281L188.562 180.965L188.446 181.658L188.321 182.359L188.186 183.07L188.04 183.788L187.883 184.515L187.714 185.25L187.535 185.993L187.343 186.743L187.139 187.501L186.923 188.266L186.694 189.037L186.453 189.815L186.198 190.599L185.929 191.389L185.646 192.185L185.35 192.986L185.039 193.791L184.714 194.602L184.374 195.416L184.019 196.235L183.648 197.057L183.263 197.882L182.861 198.71L182.445 199.541L182.012 200.374L181.563 201.208L181.098 202.044L180.616 202.881L180.118 203.718L179.603 204.556L179.072 205.393L178.524 206.229L177.959 207.065L177.376 207.899L176.777 208.731L176.161 209.561L175.527 210.388L174.877 211.212L174.209 212.033L173.524 212.849L172.821 213.661L172.102 214.469L171.365 215.271L170.611 216.067L169.84 216.857L169.052 217.64L168.246 218.417L167.424 219.186L166.585 219.947L165.73 220.701L164.857 221.445L163.969 222.18L163.063 222.906L162.142 223.622L161.205 224.328L160.251 225.022L159.282 225.706L158.298 226.378L157.298 227.038L156.283 227.686L155.253 228.321L154.208 228.943L153.149 229.552L152.076 230.147L150.988 230.727L149.888 231.293L148.773 231.844L147.646 232.38L146.506 232.901L145.353 233.405L144.188 233.893L143.012 234.365L141.824 234.819L140.624 235.257L139.414 235.677L138.193 236.079L136.963 236.464L135.722 236.83L134.472 237.178L133.213 237.506L131.946 237.816L130.67 238.107L129.386 238.378L128.095 238.629L126.797 238.861L125.493 239.073L124.182 239.264L122.866 239.435L121.544 239.585L120.218 239.715L118.887 239.824L117.552 239.912L116.214 239.979L114.873 240.025L113.529 240.049L112.182 240.053L110.835 240.035L109.485 239.995L108.136 239.934L106.785 239.851L105.435 239.747L104.086 239.622L102.738 239.474L101.391 239.306L100.046 239.115L98.7038 238.904L97.3644 238.671L96.0284 238.416L94.6962 238.14L93.3683 237.843L92.0452 237.525L90.7273 237.186L89.415 236.826L88.1089 236.445L86.8093 236.044L85.5167 235.622L84.2315 235.18L82.9541 234.718L81.685 234.236L80.4247 233.734L79.1734 233.212L77.9316 232.671L76.6998 232.111L75.4784 231.532L74.2676 230.935L73.068 230.319L71.8799 229.684L70.7036 229.033L69.5395 228.363L68.3881 227.676L67.2496 226.972L66.1244 226.252L65.0128 225.515L63.9152 224.762L62.8319 223.993L61.7631 223.209L60.7092 222.41L59.6705 221.596L58.6473 220.768L57.6398 219.926L56.6483 219.071L55.6731 218.202L54.7143 217.32L53.7723 216.426L52.8473 215.52L51.9395 214.602L51.049 213.673L50.1761 212.734L49.3209 211.784L48.4837 210.823L47.6646 209.854L46.8637 208.875L46.0812 207.887L45.3172 206.892L44.5719 205.888L43.8453 204.877L43.1374 203.859L42.4486 202.835L41.7787 201.804L41.1278 200.768L40.496 199.726L39.8834 198.68L39.2899 197.63L38.7156 196.575L38.1604 195.518L37.6245 194.457L37.1076 193.394L36.6099 192.328L36.1313 191.261L35.6717 190.193L35.231 189.124L34.8093 188.054L34.4063 186.985L34.0221 185.916L33.6564 184.848L33.3092 183.782L32.9804 182.717L32.6697 181.654L32.3771 180.594L32.1025 179.537L31.8455 178.483L31.6061 177.433L31.3841 176.387L31.1792 175.345L30.9912 174.308L30.82 173.277L30.6654 172.251L30.5269 171.231L30.4045 170.218L30.2979 169.211L30.2068 168.211L30.131 167.218L30.0701 166.233L30.0239 165.256L29.9921 164.287L29.9744 163.326L29.9704 162.375L29.98 161.432L30.0027 160.498L30.0382 159.575L30.0862 158.661L30.1464 157.756L30.2184 156.863L30.3018 155.979L30.3964 155.107L30.5018 154.245L30.6175 153.394L30.7433 152.555L30.8788 151.726L31.0236 150.91L31.1772 150.105L31.3394 149.312L31.5098 148.531L31.688 147.761L31.8735 147.004L32.0661 146.26L32.2652 145.527L32.4706 144.807L32.6818 144.099L32.8985 143.404L33.1202 142.721L33.3466 142.051L33.5773 141.394L33.8119 140.748L34.0499 140.116L34.2911 139.496L34.535 138.888L34.7812 138.293L35.0294 137.71L35.2792 137.14L35.5302 136.582L35.782 136.036L36.0342 135.502L36.2866 134.98L36.5387 134.469L36.7902 133.971L37.0406 133.484L37.2898 133.009L37.5373 132.544L37.7828 132.091L38.0259 131.649L38.2663 131.218L38.5038 130.797L38.738 130.386L38.9685 129.986L39.1951 129.596L39.4175 129.215L39.6354 128.844L40.2593 127.785L40.4565 127.449L40.6478 127.121L40.833 126.802L41.012 126.49L41.1844 126.185L41.3501 125.887L41.5089 125.596L41.6605 125.311L41.8048 125.033L41.9415 124.76L42.0706 124.493L42.1919 124.231L42.3052 123.974L42.4104 123.721L42.5073 123.472L42.5959 123.227L42.676 122.986L42.7476 122.747L42.8105 122.512L42.8647 122.278L42.9101 122.047L42.9466 121.817L42.9743 121.589L42.993 121.362L43.0028 121.135L43.0036 120.908L42.9955 120.681L42.9784 120.454L42.9524 120.226L42.9175 119.997L42.8738 119.766L42.8212 119.533L42.7599 119.297L42.69 119.06L42.6114 118.819L42.5244 118.574L42.429 118.326L42.3253 118.074L42.2135 117.818L42.0937 117.557L41.966 117.29L41.8307 117.019L41.6878 116.741L41.5375 116.458L41.3801 116.168L41.2156 115.872L41.0444 115.568L40.8667 115.258L40.6826 114.939L40.4924 114.613L40.2963 114.279L39.6753 113.225L39.4582 112.855L39.2366 112.476L39.0108 112.088L38.781 111.689L38.5475 111.281L38.3106 110.862L38.0707 110.432L37.828 109.992L37.5829 109.541L37.3358 109.079L37.0869 108.606L36.8367 108.121L36.5853 107.625L36.3333 107.117L36.081 106.597L35.8287 106.065L35.5768 105.521L35.3256 104.965L35.0756 104.397L34.8271 103.817L34.5805 103.224L34.3361 102.618L34.0944 102.001L33.8557 101.37L33.6205 100.728L33.3891 100.072L33.1619 99.4045L32.9392 98.7242L32.7216 98.0313L32.5093 97.3259L32.3028 96.6081L32.1025 95.8779L31.9087 95.1354L31.7218 94.3806L31.5422 93.6137L31.3704 92.8348L31.2067 92.0438L31.0514 91.2411L30.9049 90.4266L30.7677 89.6006L30.6401 88.7631L30.5225 87.9145L30.4152 87.0547L30.3185 86.184L30.233 85.3026L30.1588 84.4108L30.0964 83.5086L30.0461 82.5963L30.0083 81.6743L29.9832 80.7426L29.9712 79.8016L29.9726 78.8514L29.9877 77.8925L30.0169 76.9251L30.0604 75.9494L30.1186 74.9657L30.1916 73.9744L30.2799 72.9757L30.3836 71.9701L30.5031 70.9577L30.6385 69.939L30.7901 68.9142L30.9583 67.8839L31.1431 66.8482L31.3448 65.8075L31.5637 64.7623L31.7998 63.7129L32.0535 62.6597L32.3249 61.6031L32.6141 60.5434L32.9214 59.4812L33.2469 58.4166L33.5907 57.3503L33.9529 56.2826L34.3337 55.2139L34.7332 54.1446L35.1515 53.0751L35.5886 52.006L36.0447 50.9375L36.5198 49.8702L37.014 48.8045L37.5273 47.7408L38.0597 46.6796L38.6113 45.6212L39.182 44.5662L39.772 43.515L40.381 42.468L41.0093 41.4257L41.6566 40.3885L42.323 39.3568L43.0084 38.3312L43.7127 37.3119L44.4358 36.2996L45.1777 35.2946L45.9382 34.2973L46.7173 33.3082L47.5148 32.3278L48.3306 31.3564L49.1644 30.3944L50.0163 29.4424L50.8859 28.5007L51.7731 27.5697L52.6778 26.6499L53.5996 25.7416L54.5385 24.8453L55.4942 23.9614L56.4664 23.0902L57.4548 22.2321L58.4594 21.3875L59.4797 20.5568L60.5156 19.7404L61.5667 18.9385L62.6327 18.1517L63.7134 17.3801L64.8084 16.6243L65.9174 15.8844L67.0401 15.1608L68.1761 14.4538L69.3252 13.7638L70.4869 13.091L71.661 12.4358L72.8469 11.7984L74.0445 11.179L75.2532 10.578L76.4727 9.99559L77.7026 9.43203L78.9426 8.88756L80.1921 8.36239L81.4508 7.85674L82.7183 7.37083L83.9941 6.90484L85.2779 6.45895L86.5692 6.03334L87.8676 5.62818L89.1725 5.24361L90.4837 4.87977L91.8006 4.5368L93.1228 4.21482L94.4498 3.91393L95.7812 3.63422L97.1165 3.37579L98.4554 3.1387L99.7972 2.92302L101.142 2.7288L102.488 2.55608L103.836 2.40489L105.185 2.27524L106.535 2.16713L107.885 2.08056L109.235 2.01551L110.585 1.97196L111.933 1.94985L113.279 1.94914L114.624 1.96976L115.966 2.01163L117.305 2.07468L118.64 2.15879L119.972 2.26386L121.299 2.38978L122.621 2.5364L123.939 2.70359L125.251 2.89119L126.556 3.09904L127.855 3.32696L129.148 3.57477L130.433 3.84228L131.71 4.12928L132.979 4.43555L134.239 4.76087L135.491 5.105L136.733 5.4677L137.966 5.84872L139.189 6.24779L140.401 6.66464L141.602 7.09899L142.792 7.55055L143.971 8.01904L145.138 8.50412L146.293 9.00551L147.436 9.52287L148.565 10.0559L149.682 10.6042L150.785 11.1675L151.875 11.7454L152.951 12.3375L154.013 12.9436L155.06 13.5632L156.093 14.196L157.111 14.8415L158.113 15.4995L159.101 16.1694L160.073 16.851L161.029 17.5437L161.97 18.2473L162.894 18.9613L163.802 19.6853L164.694 20.4189L165.569 21.1616L166.428 21.9131L167.27 22.673L168.095 23.4407L168.904 24.2159L169.695 24.9982L170.469 25.7872L171.226 26.5823L171.966 27.3832L172.689 28.1895L173.395 29.0007L174.083 29.8164L174.754 30.6361L175.408 31.4595L176.045 32.2862L176.664 33.1156L177.267 33.9474L177.852 34.7812L178.42 35.6165L178.972 36.4529L179.506 37.2901L180.024 38.1275L180.525 38.9649L181.01 39.8018L181.478 40.6379L181.93 41.4726L182.366 42.3057L182.785 43.1368L183.19 43.9654L183.578 44.7912L183.951 45.6139L184.309 46.4331L184.652 47.2485L184.98 48.0596L185.293 48.8662L185.593 49.668L185.878 50.4645L186.149 51.2555L186.406 52.0407L186.651 52.8198L186.882 53.5925L187.1 54.3585L187.306 55.1175L187.5 55.8692L187.682 56.6135L187.852 57.35L188.011 58.0785L188.159 58.7987L188.297 59.5106L188.424 60.2138L188.541 60.9081L188.649 61.5933L188.747 62.2694L188.836 62.936L188.917 63.593L188.989 64.2404L189.054 64.8778L189.111 65.5053L189.161 66.1226L189.204 66.7298L189.241 67.3266L189.272 67.9129L189.297 68.4888L189.317 69.0542L189.331 69.6089L189.342 70.1529L189.348 70.6863L189.35 71.2089L189.349 71.7208L189.345 72.222L189.338 72.7124L189.329 73.1922L189.318 73.6612L189.306 74.1197L189.292 74.5675L189.278 75.0048L189.263 75.4317L189.219 76.6505L189.206 77.0365L189.195 77.4126L189.184 77.7789L189.176 78.1355L189.171 78.4826L189.168 78.8204L189.168 79.149L189.171 79.4686L189.178 79.7795L189.189 80.0817L189.204 80.3756L189.223 80.6613L189.248 80.939L189.277 81.2091L189.312 81.4717L189.353 81.727L189.399 81.9754L189.452 82.2171L189.511 82.4523L189.576 82.6815L189.649 82.9047L189.728 83.1224L189.815 83.3348L189.909 83.5422L190.011 83.7449L190.121 83.9433L190.238 84.1377L190.364 84.3283L190.498 84.5156L190.641 84.6999L190.792 84.8814L190.952 85.0606L191.12 85.2377L191.298 85.4132L191.485 85.5874L191.68 85.7606L191.885 85.9332L192.099 86.1055L192.323 86.2779L192.555 86.4509L192.797 86.6246L193.049 86.7996L193.309 86.9761L193.579 87.1545L193.859 87.3353L194.147 87.5187L194.445 87.7051L194.752 87.8949L195.069 88.0885L195.394 88.2861L195.729 88.4883L196.785 89.1251L197.155 89.3487L197.533 89.5785L197.919 89.8149L198.313 90.0582L198.716 90.3087L199.126 90.5669L199.544 90.8329L199.969 91.1071L200.402 91.3899L200.842 91.6816L201.288 91.9824L201.741 92.2927L202.201 92.6127L202.666 92.9428L203.137 93.2832L203.614 93.6341L204.097 93.996L204.584 94.3689L205.076 94.7533L205.572 95.1492L206.073 95.557L206.577 95.9768L207.085 96.409L207.596 96.8536L208.11 97.311L208.627 97.7813L209.145 98.2646L209.666 98.7612L210.188 99.2712L210.711 99.7948L211.234 100.332L211.759 100.883L212.283 101.448L212.807 102.028L213.33 102.621L213.851 103.229L214.372 103.851L214.89 104.488L215.406 105.139L215.919 105.805L216.43 106.485L216.936 107.18L217.439 107.889L217.937 108.614L218.431 109.353L218.92 110.106L219.403 110.874L219.88 111.657L220.35 112.455L220.814 113.267L221.271 114.093L221.72 114.934L222.161 115.788L222.593 116.658L223.017 117.541L223.432 118.438L223.837 119.348L224.232 120.273L224.617 121.211L224.991 122.162L225.353 123.126L225.705 124.103L226.044 125.093L226.371 126.096L226.685 127.111L226.987 128.138L227.275 129.177L227.549 130.227L227.81 131.289L228.056 132.362L228.287 133.445L228.503 134.539L228.704 135.644L228.89 136.758L229.059 137.882L229.212 139.015L229.349 140.157L229.468 141.308L229.571 142.467L229.656 143.634L229.724 144.809L229.774 145.99L229.806 147.179L229.819 148.374L229.814 149.575L229.79 150.782L229.748 151.993L229.686 153.21L229.605 154.432L229.504 155.657L229.384 156.886L229.244 158.118L229.084 159.353L228.905 160.59L228.705 161.83L228.484 163.07L228.244 164.312L227.983 165.554L227.702 166.797L227.4 168.039L227.077 169.281L226.734 170.521L226.371 171.759L225.986 172.996L225.581 174.23L225.156 175.46L224.709 176.688L224.242 177.911L223.755 179.13L223.247 180.344L222.719 181.553L222.17 182.756L221.601 183.953L221.012 185.144L220.403 186.327L219.775 187.503L219.126 188.67L218.458 189.83L217.77 190.98L217.063 192.121L216.336 193.253L215.591 194.374L214.828 195.485L214.045 196.585L213.245 197.673L212.426 198.75L211.589 199.815L210.735 200.867L209.864 201.906L208.975 202.932L208.07 203.944L207.149 204.943L206.211 205.926L205.257 206.896L204.288 207.85L203.304 208.788L202.304 209.711L201.29 210.618L200.262 211.509L199.221 212.383L198.165 213.24L197.097 214.079L196.016 214.902L194.922 215.706L193.816 216.493L192.699 217.261L191.571 218.011L190.432 218.742L189.283 219.455L188.124 220.148L186.955 220.822L185.777 221.476L184.591 222.111L183.396 222.726L182.193 223.321L180.984 223.896L179.767 224.451L178.544 224.986L177.315 225.5L176.08 225.993L174.84 226.466L173.596 226.919L172.348 227.35L171.095 227.761L169.84 228.151L168.581 228.521L167.321 228.869L166.058 229.197L164.794 229.504L163.529 229.79L162.264 230.055L160.998 230.3L159.733 230.524L158.469 230.728L157.205 230.91L155.944 231.073L154.685 231.215L153.428 231.337L152.175 231.44L150.924 231.522L149.678 231.584L148.436 231.627L147.199 231.65L145.967 231.654L144.74 231.639L143.52 231.605L142.305 231.552L141.098 231.481L139.897 231.392L138.704 231.285L137.519 231.16L136.342 231.017L135.174 230.857L134.014 230.68L132.864 230.487L131.723 230.277L130.592 230.051L129.472 229.809L128.362 229.552L127.263 229.279L126.174 228.992L125.098 228.69L124.033 228.374L122.98 228.044L121.939 227.701L120.91 227.344L119.894 226.975L118.891 226.593L117.901 226.2L116.924 225.794L115.961 225.378L115.012 224.95L114.076 224.512L113.154 224.064L112.247 223.606L111.353 223.139L110.474 222.662L109.61 222.178L108.76 221.685L107.925 221.184L107.104 220.677L106.299 220.162L105.508 219.641L104.733 219.113L103.972 218.58L103.227 218.042L102.496 217.499L101.781 216.952L101.08 216.4L100.395 215.845L99.7244 215.287L99.069 214.726L98.4285 214.162L97.8028 213.597L97.192 213.029L96.5958 212.461L96.0143 211.892L95.4472 211.322L94.8946 210.752L94.3562 210.183L93.8319 209.614L93.3216 209.046L92.8252 208.48L92.3425 207.916L91.8732 207.353L91.4173 206.793L90.9744 206.236L90.5446 205.682L90.1274 205.132L89.7227 204.585L89.3303 204.043L88.95 203.505L88.5814 202.971L88.2244 202.443L87.8787 201.92L87.544 201.402L87.22 200.891L86.9065 200.385L86.6032 199.886L86.3098 199.394L86.026 198.908L85.7514 198.429L85.4859 197.958L85.229 197.494L84.9804 197.038L84.7398 196.59L84.507 196.15L84.2815 195.718L84.0629 195.294L83.8511 194.879L83.6455 194.472L83.446 194.075L83.252 193.686L82.5251 192.222L82.3539 191.879L82.186 191.546L82.0213 191.222L81.8593 190.907L81.6996 190.602L81.5419 190.307L81.3858 190.02L81.231 189.744L81.077 189.477L80.9236 189.219L80.7703 188.97L80.6169 188.731L80.4628 188.501L80.3079 188.281L80.1517 188.069L79.9938 187.867L79.834 187.673L79.6719 187.488L79.5072 187.312L79.3394 187.144L79.1683 186.985L78.9936 186.834L78.8149 186.69L78.6319 186.555L78.4443 186.428L78.2519 186.308L78.0542 186.195L77.851 186.089L77.642 185.99L77.4269 185.898L77.2055 185.812L76.9775 185.732L76.7427 185.659L76.5007 185.59L76.2513 185.528L75.9943 185.47L75.7295 185.417L75.4566 185.368L75.1755 185.324L74.8859 185.284L74.5876 185.247L74.2805 185.214L73.9643 185.183L73.639 185.156L73.3043 185.13L72.9601 185.107L72.6063 185.085L72.2427 185.064L71.8692 185.045L71.4858 185.026L69.8502 184.949L69.4156 184.928L68.9705 184.905L68.5149 184.88L68.0489 184.853L67.5724 184.823L67.0854 184.79L66.5879 184.754L66.08 184.713L65.5616 184.669L65.0328 184.62L64.4937 184.566L63.9443 184.507L63.3847 184.442L62.8149 184.372L62.2352 184.294L61.6455 184.21L61.046 184.119L60.4369 184.02L59.8182 183.914L59.1901 183.799L58.5527 183.676L57.9063 183.544L57.2511 183.402L56.5871 183.251L55.9146 183.09L55.2338 182.919L54.545 182.737L53.8483 182.545L53.144 182.341L52.4323 182.126L51.7135 181.898L50.9879 181.659L50.2557 181.408L49.5172 181.143L48.7726 180.866L48.0224 180.576L47.2668 180.272L46.5061 179.954L45.7406 179.622L44.9707 179.277L44.1966 178.917L43.4188 178.542L42.6376 178.152L41.8533 177.748L41.0663 177.328L40.277 176.892L39.4857 176.442L38.6928 175.975L37.8987 175.493L37.1038 174.994L36.3084 174.48L35.513 173.949L34.718 173.402L33.9238 172.838L33.1307 172.258L32.3392 171.661L31.5498 171.048L30.7627 170.417L29.9785 169.77L29.1975 169.106L28.4202 168.426L27.647 167.728L26.8783 167.013L26.1145 166.282L25.3562 165.534L24.6036 164.769L23.8572 163.987L23.1175 163.189L22.3849 162.374L21.6598 161.542L20.9425 160.694L20.2336 159.83L19.5335 158.949L18.8425 158.052L18.1612 157.139L17.4898 156.211L16.8288 155.266L16.1786 154.306L15.5396 153.331L14.9122 152.341L14.2968 151.336L13.6938 150.316L13.1036 149.281L12.5265 148.232L11.9629 147.169L11.4132 146.092L10.8777 145.002L10.3568 143.898L9.85088 142.782L9.36024 141.652L8.88521 140.511L8.42612 139.357L7.98331 138.191L7.55707 137.014L7.14772 135.826L6.75554 134.626L6.38084 133.417L6.02387 132.197L5.68493 130.968L5.36427 129.729L5.06213 128.481L4.77878 127.225L4.51443 125.96L4.26932 124.687L4.04366 123.407L3.83765 122.12L3.65149 120.827L3.48536 119.527L3.33944 118.222L3.21388 116.911L3.10885 115.595L3.02448 114.274L2.96091 112.95L2.91825 111.622L2.89662 110.291L2.8961 108.957L2.9168 107.621L2.95878 106.283L3.02211 104.944L3.10683 103.604L3.213 102.264L3.34064 100.923L3.48977 99.5832L3.66039 98.2443L3.8525 96.9067L4.06609 95.5711L4.30113 94.2378L4.55756 92.9073L4.83536 91.58L5.13444 90.2565L5.45475 88.9372L5.79619 87.6226L6.15866 86.313L6.54206 85.009L6.94627 83.711L7.37115 82.4194L7.81657 81.1347L8.28238 79.8573L8.7684 78.5877L9.27447 77.3263L9.8004 76.0734L10.346 74.8296L10.9111 73.5953L11.4954 72.3708L12.0987 71.1565L12.7208 69.9529L13.3614 68.7604L14.0203 67.5793L14.6972 66.41L15.3919 65.253L16.104 64.1084L16.8333 62.9768L17.5795 61.8584L18.3422 60.7537L19.1211 59.6629L19.916 58.5863L20.7264 57.5244L21.5521 56.4773L22.3926 55.4454L23.2477 54.429L24.1169 53.4284L25 52.4438L25.8965 51.4755L26.806 50.5238L27.7281 49.5889L28.6625 48.671L29.6088 47.7704L30.5666 46.8872L31.5353 46.0218L32.5148 45.1741L33.5044 44.3446L34.5038 43.5332L35.5126 42.7403L36.5304 41.9658L37.5566 41.21L38.5909 40.4731L39.6329 39.755L40.682 39.0559L41.738 38.3759L42.8002 37.7152L43.8683 37.0736L44.9418 36.4514L46.0203 35.8486L47.1034 35.2651L48.1905 34.7011L49.2813 34.1565L50.3752 33.6314L51.4719 33.1257L52.571 32.6393L53.6719 32.1724L54.7742 31.7248L55.8775 31.2965L56.9813 30.8874L58.0853 30.4974L59.189 30.1265L60.2919 29.7745L61.3937 29.4414L62.4938 29.127L63.592 28.8311L64.6878 28.5538L65.7807 28.2947L66.8704 28.0537L67.9566 27.8308L69.0387 27.6256L70.1164 27.438L71.1893 27.2678L72.2571 27.1147L73.3194 26.9787L74.3757 26.8593L75.4259 26.7565L76.4695 26.6699L77.5061 26.5993L78.5356 26.5444L79.5574 26.505L80.5713 26.4808L81.5771 26.4715L82.5744 26.4768L83.5628 26.4963L84.5422 26.5299L85.5123 26.5771L86.4727 26.6377L87.4233 26.7114L88.3638 26.7977L89.2939 26.8964L90.2135 27.007L91.1223 27.1294L92.0201 27.2631L92.9067 27.4077L93.7819 27.5629L94.6456 27.7283L95.4976 27.9036L96.3377 28.0883L97.1658 28.2821L97.9818 28.4847L98.7854 28.6956L99.5767 28.9144L100.356 29.1408L101.122 29.3744L101.875 29.6147L102.616 29.8615L103.344 30.1142L104.06 30.3725L104.762 30.6361L105.452 30.9044L106.128 31.1772L106.792 31.454L107.443 31.7345L108.081 32.0182L108.706 32.3048L109.319 32.5939L109.918 32.885L110.505 33.1779L111.08 33.4721L111.642 33.7673L112.191 34.063L112.728 34.359L113.253 34.6548L113.766 34.9501L114.267 35.2446L114.756 35.5378L115.234 35.8295L115.7 36.1192L116.154 36.4067L116.598 36.6917L117.03 36.9738L117.452 37.2526L117.863 37.5279L118.265 37.7994L118.655 38.0668L119.037 38.3298L119.408 38.588L119.77 38.8413L120.123 39.0893L121.13 39.7994L121.45 40.0239L121.761 40.242L122.066 40.4534L122.363 40.6579L122.653 40.8553L122.937 41.0455L123.215 41.2282L123.486 41.4033L123.753 41.5706L124.014 41.7299L124.27 41.8812L124.522 42.0242L124.77 42.159L125.013 42.2853L125.254 42.403L125.491 42.5122L125.726 42.6126L125.958 42.7042L126.188 42.7871L126.416 42.861L126.643 42.926L126.869 42.9821L127.095 43.0292L127.32 43.0674L127.546 43.0966L127.772 43.1169L127.998 43.1282L128.226 43.1307L128.456 43.1244L128.687 43.1093L128.921 43.0855L129.158 43.0531L129.397 43.0122L129.64 42.9629L129.887 42.9053L130.137 42.8395L130.392 42.7656L130.652 42.6839L130.916 42.5944L131.186 42.4972L131.462 42.3927L131.743 42.281L132.031 42.1622L132.326 42.0365L132.628 41.9042L132.936 41.7655L133.252 41.6206L133.576 41.4698L133.908 41.3133L134.249 41.1512L134.598 40.984L135.698 40.4539L136.084 40.2687L136.48 40.0796L136.885 39.8871L137.301 39.6915L137.727 39.493L138.163 39.2919L138.611 39.0887L139.069 38.8836L139.538 38.6769L140.018 38.4691L140.51 38.2605L141.014 38.0514L141.529 37.8421L142.055 37.6332L142.594 37.4248L143.144 37.2174L143.706 37.0114L144.281 36.8071L144.867 36.6049L145.466 36.4052L146.076 36.2083L146.699 36.0148L147.335 35.8248L147.982 35.6389L148.642 35.4574L149.313 35.2807L149.997 35.1092L150.694 34.9433L151.402 34.7833L152.122 34.6297L152.854 34.4828L153.598 34.343L154.354 34.2107L155.121 34.0864L155.9 33.9702L156.691 33.8627L157.492 33.7643L158.305 33.6752L159.129 33.5958L159.963 33.5266L160.808 33.4678L161.664 33.4199L162.529 33.3831L163.405 33.3579L164.291 33.3445L165.186 33.3433L166.09 33.3546L167.003 33.3788L167.926 33.4162L168.857 33.467L169.796 33.5316L170.743 33.6103L171.697 33.7034L172.659 33.8111L173.629 33.9338L174.605 34.0717L175.587 34.225L176.575 34.394L177.57 34.579L178.569 34.7802L179.574 34.9978L180.583 35.232L181.597 35.4831L182.614 35.7512L183.636 36.0366L184.66 36.3394L185.687 36.6597L186.717 36.9978L187.748 37.3538L188.781 37.7278L189.815 38.1199L190.85 38.5304L191.886 38.9592L192.921 39.4065L193.956 39.8724L194.99 40.3569L196.022 40.8601L197.053 41.382L198.081 41.9228L199.107 42.4824L200.129 43.0609L201.148 43.6582L202.163 44.2744L203.174 44.9094L204.18 45.5632L205.18 46.2358L206.175 46.9272L207.163 47.6372L208.145 48.3658L209.12 49.1129L210.087 49.8785L211.046 50.6624L211.997 51.4644L212.939 52.2846L213.872 53.1227L214.795 53.9786L215.708 54.8521L216.611 55.743L217.502 56.6513L218.383 57.5766L219.251 58.5188L220.108 59.4776L220.951 60.4529L221.782 61.4444L222.6 62.4519L223.404 63.4751L224.194 64.5137L224.97 65.5675L225.731 66.6361L226.476 67.7194L227.206 68.817L227.921 69.9285L228.619 71.0537L229.301 72.1923L229.966 73.3438L230.614 74.508L231.244 75.6846L231.857 76.8731L232.452 78.0731L233.029 79.2844L233.587 80.5065L234.127 81.7391L234.647 82.9817L235.148 84.2339L235.63 85.4954L236.093 86.7658L236.535 88.0445L236.957 89.3313L237.359 90.6256L237.741 91.9271L238.102 93.2353L238.443 94.5498L238.762 95.8701L239.061 97.1958L239.339 98.5264L239.595 99.8615L239.83 101.201L240.044 102.543L240.236 103.889L240.407 105.238L240.557 106.588L240.684 107.941L240.79 109.294L240.875 110.649L240.938 112.003L240.979 113.358L240.999 114.712L240.997 116.065L240.973 117.417L240.929 118.766L240.862 120.113L240.775 121.458L240.666 122.799L240.536 124.136L240.385 125.469L240.214 126.797L240.021 128.12L239.808 129.438L239.574 130.749L239.321 132.054L239.047 133.353L238.753 134.644L238.439 135.927L238.106 137.202L237.754 138.469L237.383 139.727L236.992 140.976L236.583 142.215L236.156 143.444L235.711 144.662L235.248 145.87L234.768 147.067L234.27 148.252L233.755 149.426L233.224 150.587L232.677 151.736L232.113 152.872L231.534 153.995L230.94 155.104L230.331 156.2L229.707 157.282L229.069 158.35L228.417 159.403L227.752 160.441L227.073 161.465L226.382 162.473L225.678 163.466L224.963 164.443L224.236 165.404L223.497 166.35L222.748 167.279L221.989 168.192L221.22 169.088L220.441 169.967L219.653 170.83L218.857 171.676L218.052 172.505L217.239 173.316L216.419 174.111L215.592 174.888L214.759 175.647L213.919 176.389L213.074 177.114L212.223 177.821L211.368 178.511L210.508 179.183L209.645 179.837L208.777 180.474L207.907 181.094L207.034 181.696L206.159 182.28L205.282 182.847L204.403 183.397L203.524 183.929L202.644 184.444L201.764 184.943L200.884 185.424L200.004 185.888L199.126 186.336L198.249 186.767L197.374 187.182L196.501 187.58L195.631 187.963L194.764 188.329L193.9 188.68L193.039 189.015L192.183 189.335L191.331 189.639L190.484 189.929L189.642 190.204L188.805 190.465L187.974 190.712L187.149 190.945L186.331 191.164L185.519 191.369L184.713 191.562L183.915 191.742L183.125 191.91L182.342 192.065L181.567 192.208L180.801 192.34L180.043 192.46L179.293 192.57L178.552 192.669L177.821 192.758L177.099 192.837L176.386 192.906L175.683 192.966L174.99 193.017L174.306 193.06L173.633 193.094L172.97 193.121L172.318 193.14L171.675 193.153L171.044 193.158L170.423 193.157L169.813 193.151L169.214 193.138L168.625 193.121L168.048 193.099L167.481 193.072L166.926 193.041L166.381 193.007L165.848 192.969L165.325 192.929L164.814 192.886L164.313 192.84L163.824 192.793L163.345 192.745L162.877 192.695L162.42 192.645L161.974 192.595L161.538 192.544L161.112 192.494L159.897 192.349L159.513 192.304L159.138 192.261L158.772 192.221L158.417 192.183L158.07 192.149L157.732 192.117L157.404 192.09L157.084 192.067L156.773 192.047L156.47 192.033L156.175 192.023L155.887 192.019L155.608 192.02L155.335 192.026L155.07 192.039L154.811 192.058L154.559 192.083L154.313 192.115L154.073 192.153L153.839 192.199L153.61 192.252L153.386 192.313L153.166 192.381L152.951 192.457L152.74 192.541L152.533 192.633L152.329 192.733L152.128 192.842L151.93 192.959L151.734 193.085L151.541 193.22L151.349 193.364L151.158 193.516L150.968 193.678L150.779 193.849L150.59 194.028L150.401 194.217L150.211 194.416L150.021 194.623L149.829 194.839L149.636 195.065L149.441 195.3L149.244 195.545L149.044 195.798L148.84 196.06L148.634 196.332L148.424 196.612L148.209 196.902L147.991 197.2L147.767 197.507L147.538 197.823L146.817 198.82L146.564 199.169L146.304 199.525L146.037 199.89L145.762 200.262L145.48 200.641L145.189 201.028L144.89 201.421L144.582 201.822L144.265 202.228L143.938 202.642L143.602 203.061L143.256 203.486L142.9 203.916L142.533 204.352L142.155 204.793L141.767 205.238L141.367 205.688L140.956 206.142L140.533 206.6L140.098 207.061L139.651 207.526L139.191 207.993L138.719 208.463L138.234 208.935L137.737 209.408L137.226 209.884L136.702 210.36L136.165 210.837L135.614 211.315L135.05 211.792L134.472 212.269L133.88 212.746L133.274 213.221L132.654 213.695L132.02 214.167L131.371 214.636L130.709 215.103L130.032 215.567L129.341 216.027L128.636 216.484L127.916 216.936L127.182 217.383L126.434 217.826L125.672 218.263L124.895 218.694L124.104 219.118L123.299 219.536L122.48 219.947L121.647 220.35L120.8 220.746L119.939 221.133L119.064 221.511L118.176 221.88L117.274 222.24L116.36 222.59L115.432 222.93L114.491 223.259L113.537 223.577L112.57 223.883L111.592 224.178L110.601 224.46L109.598 224.73L108.583 224.987L107.557 225.231L106.519 225.462L105.471 225.678L104.412 225.881L103.342 226.068L102.262 226.241L101.173 226.399L100.073 226.541L98.9646 226.667L97.8471 226.777L96.7209 226.871L95.5864 226.948L94.444 227.008L93.294 227.051L92.1367 227.077L90.9726 227.085L89.802 227.075L88.6252 227.047L87.4427 227.001L86.2548 226.936L85.062 226.852L83.8647 226.749L82.6632 226.627L81.458 226.486L80.2494 226.326L79.038 226.146L77.8241 225.946L76.6082 225.727L75.3906 225.488L74.172 225.228L72.9525 224.949L71.7328 224.649L70.5133 224.329L69.2944 223.989L68.0765 223.628L66.8601 223.247L65.6457 222.845L64.4338 222.423L63.2246 221.981L62.0188 221.518L60.8168 221.035L59.6191 220.532L58.426 220.008L57.238 219.464L56.0556 218.9L54.8793 218.316L53.7094 217.711L52.5465 217.087L51.391 216.443L50.2433 215.78L49.1038 215.097L47.973 214.394L46.8514 213.672L45.7393 212.932L44.6372 212.172L43.5454 211.394L42.4645 210.597L41.3948 209.782L40.3367 208.949L39.2907 208.098L38.257 207.23L37.2362 206.345L36.2285 205.442L35.2344 204.523L34.2542 203.587L33.2883 202.635L32.3371 201.667L31.4008 200.683L30.4798 199.684L29.5745 198.671L28.6852 197.642L27.8121 196.6L26.9557 195.543L26.1161 194.473L25.2937 193.39L24.4887 192.294L23.7015 191.186L22.9323 190.065L22.1813 188.933L21.4487 187.789L20.7348 186.635L20.0399 185.47L19.3641 184.296L18.7076 183.111L18.0706 181.918L17.4534 180.715L16.8559 179.504L16.2785 178.286L15.7212 177.06L15.1843 175.827L14.6677 174.587L14.1717 173.341L13.6962 172.09L13.2415 170.833L12.8076 169.571L12.3945 168.305L12.0024 167.036L11.6312 165.763L11.2809 164.487L10.9517 163.208L10.6435 161.928L10.3562 160.646L10.09 159.362L9.84474 158.078L9.6204 156.794L9.41692 155.511L9.23426 154.227L9.07235 152.945L8.93109 151.665L8.8104 150.387L8.71017 149.111L8.63028 147.838L8.5706 146.568L8.53101 145.303L8.51134 144.041L8.51144 142.784L8.53114 141.532L8.57026 140.286L8.62862 139.045L8.706 137.811L8.8022 136.584L8.917 135.363L9.05017 134.15L9.20148 132.945L9.37067 131.747L9.55749 130.559L9.76167 129.379L9.98294 128.209L10.221 127.048L10.4756 125.897L10.7464 124.756L11.0331 123.626L11.3355 122.507L11.6531 121.399L11.9856 120.302L12.3328 119.218L12.6942 118.145L13.0696 117.084L13.4586 116.036L13.8607 115.001L14.2757 113.978L14.7032 112.969L15.1429 111.974L15.5942 110.991L16.0569 110.023L16.5305 109.069L17.0147 108.129L17.5091 107.203L18.0133 106.292L18.5268 105.395L19.0493 104.513L19.5804 103.646L20.1196 102.794L20.6666 101.957L21.2209 101.135L21.7821 100.329L22.3498 99.5371L22.9237 98.7611L23.5032 98.0004L24.088 97.255L24.6777 96.5251L25.2718 95.8106L25.8699 95.1115L26.4717 94.4278L27.0766 93.7594L27.6844 93.1064L28.2946 92.4686L28.9068 91.8461L29.5206 91.2386L30.1356 90.6463L30.7514 90.0689L31.3676 89.5063L31.9839 88.9585L32.5998 88.4253L33.215 87.9066L33.8292 87.4023L34.4418 86.9121L35.0527 86.436L35.6613 85.9738L36.2674 85.5252L36.8707 85.09L37.4707 84.6682L38.0672 84.2595L38.6598 83.8636L39.2483 83.4803L39.8322 83.1094L40.4114 82.7507L40.9854 82.4038L41.554 82.0686L42.117 81.7448L42.6741 81.4321L43.2249 81.1302L43.7693 80.8389L44.3069 80.5577L44.8376 80.2866L45.3612 80.025L45.8774 79.7728L46.3859 79.5296L46.8867 79.2952L47.3794 79.069L47.864 78.8509L48.3403 78.6405L48.808 78.4374L49.2671 78.2414L49.7174 78.052L50.1588 77.8689L50.5911 77.6918L51.0143 77.5203L51.4282 77.354L51.8328 77.1926L53.3563 76.5886L53.7133 76.4461L54.0606 76.3064L54.3982 76.169L54.7262 76.0335L55.0445 75.8996L55.3532 75.7669L55.6523 75.6351L55.9419 75.5037L56.2219 75.3726L56.4925 75.2411L56.7537 75.1091L57.0056 74.9761L57.2484 74.8419L57.482 74.706L57.7067 74.5681L57.9225 74.4279L58.1296 74.285L58.3281 74.1392L58.5182 73.99L58.7001 73.8371L58.8739 73.6803L59.0397 73.5192L59.1979 73.3535L59.3485 73.1829L59.4918 73.0071L59.6281 72.8258L59.7575 72.6388L59.8803 72.4457L59.9967 72.2464L60.1069 72.0404L60.2113 71.8277L60.3101 71.6078L60.4036 71.3807L60.492 71.146L60.5757 70.9036L60.6548 70.6532L60.7298 70.3946L60.801 70.1276L60.8686 69.852L60.9329 69.5677L60.9944 69.2746L61.0532 68.9723L61.1098 68.6608L61.1646 68.34L61.2177 68.0096L61.2696 67.6697L61.3206 67.32L61.3712 66.9605L61.4215 66.5911L61.4721 66.2117L61.6835 64.5931L61.7405 64.1629L61.7999 63.7225L61.8621 63.2719L61.9274 62.811L61.9962 62.3399L62.069 61.8586L62.1459 61.3671L62.2276 60.8655L62.3142 60.3539L62.4062 59.8323L62.5039 59.3008L62.6077 58.7595L62.718 58.2085L62.8352 57.6479L62.9595 57.0778L63.0914 56.4984L63.2311 55.9099L63.3792 55.3123L63.5358 54.7058L63.7013 54.0906L63.8762 53.467L64.0606 52.835L64.255 52.195L64.4596 51.547L64.6748 50.8914L64.9009 50.2283L65.1382 49.5581L65.3869 48.8809L65.6475 48.1971L65.9201 47.5068L66.205 46.8105L66.5026 46.1082L66.813 45.4005L67.1365 44.6875L67.4735 43.9695L67.8241 43.2469L68.1885 42.5201L68.567 41.7892L68.9598 41.0548L69.3671 40.317L69.7891 39.5764L70.2259 38.8331L70.6778 38.0877L71.145 37.3404L71.6276 36.5916L72.1256 35.8418L72.6394 35.0912L73.169 34.3403L73.7145 33.5896L74.276 32.8392L74.8536 32.0898L75.4475 31.3416L76.0577 30.5951L76.6842 29.8507L77.3271 29.1088L77.9865 28.3699L78.6624 27.6342L79.3548 26.9023L80.0637 26.1746L80.7891 25.4515L81.5311 24.7334L82.2895 24.0208L83.0644 23.3139L83.8557 22.6134L84.6633 21.9196L85.4873 21.2329L86.3274 20.5538L87.1837 19.8826L88.0559 19.2198L88.9441 18.5657L89.8481 17.9209L90.7677 17.2857L91.7028 16.6606L92.6532 16.0458L93.6188 15.4419L94.5994 14.8492L95.5948 14.2681L96.6048 13.6991L97.6293 13.1424L98.6679 12.5985L99.7204 12.0677L100.787 11.5505L101.866 11.0471L102.959 10.558L104.065 10.0834L105.184 9.62384L106.315 9.1795L107.458 8.75076L108.612 8.33794L109.779 7.94136L110.956 7.56134L112.144 7.19817L113.343 6.85215L114.551 6.52355L115.77 6.21266L116.997 5.91975L118.234 5.64508L119.48 5.38888L120.734 5.15141L121.995 4.9329L123.264 4.73356L124.541 4.55361L125.824 4.39325L127.113 4.25267L128.408 4.13206L129.708 4.03158L131.014 3.95139L132.324 3.89165L133.638 3.85249L134.956 3.83404L136.277 3.83642L137.601 3.85973L138.927 3.90408L140.255 3.96954L141.584 4.05618L142.915 4.16407L144.246 4.29326L145.577 4.44378L146.908 4.61567L148.238 4.80894L149.566 5.02358L150.893 5.2596L152.218 5.51698L153.54 5.79568L154.858 6.09566L156.173 6.41687L157.484 6.75925L158.791 7.12271L160.092 7.50717L161.388 7.91252L162.679 8.33867L163.962 8.78548L165.239 9.25283L166.509 9.74057L167.771 10.2485L169.025 10.7766L170.271 11.3245L171.507 11.8921L172.735 12.4793L173.952 13.0857L175.159 13.7113L176.356 14.3556L177.541 15.0186L178.716 15.7L179.878 16.3994L181.028 17.1167L182.166 17.8516L183.291 18.6038L184.403 19.3729L185.501 20.1587L186.585 20.9609L187.655 21.7791L188.71 22.6131L189.75 23.4624L190.775 24.3268L191.785 25.2058L192.779 26.0992L193.756 27.0066L194.718 27.9276L195.662 28.8618L196.59 29.8088L197.501 30.7683L198.394 31.7398L199.27 32.723L200.128 33.7174L200.968 34.7226L201.789 35.7383L202.593 36.7639L203.378 37.7992L204.144 38.8435L204.891 39.8966L205.62 40.958L206.329 42.0272L207.019 43.1038L207.69 44.1874L208.341 45.2776L208.973 46.3738L209.586 47.4756L210.178 48.5826L210.751 49.6944L211.305 50.8104L211.838 51.9303L212.352 53.0536L212.847 54.1798L213.321 55.3086L213.776 56.4394L214.211 57.5718L214.626 58.7054L215.022 59.8397L215.399 60.9743L215.756 62.1087L216.094 63.2426L216.412 64.3755L216.712 65.507L216.992 66.6366L217.254 67.7639L217.497 68.8886L217.721 70.0102L217.927 71.1283L218.114 72.2424L218.284 73.3523L218.436 74.4576L218.57 75.5578L218.687 76.6525L218.786 77.7415L218.869 78.8243L218.935 79.9005L218.984 80.9699L219.017 82.0321L219.034 83.0868L219.036 84.1336L219.022 85.1722L218.993 86.2024L218.949 87.2237L218.891 88.2359L218.818 89.2388L218.732 90.2321L218.632 91.2154L218.518 92.1885L218.392 93.1513L218.253 94.1034L218.102 95.0446L217.94 95.9748L217.765 96.8936L217.58 97.8009L217.384 98.6966L217.177 99.5804L216.96 100.452L216.734 101.312L216.498 102.159L216.254 102.994L216.001 103.816L215.74 104.625L215.471 105.422L215.195 106.206L214.912 106.977L214.622 107.735L214.326 108.479L214.025 109.211L213.718 109.929L213.406 110.634L213.089 111.326L212.769 112.005L212.445 112.67L212.117 113.322L211.786 113.962L211.453 114.588L211.117 115.2L210.78 115.8L210.441 116.387L210.101 116.961L209.76 117.523L209.42 118.071L209.079 118.607L208.738 119.131L208.399 119.642L208.06 120.141L207.723 120.628L207.388 121.104L207.055 121.567L206.724 122.02L206.396 122.461L206.072 122.89L205.75 123.309L205.433 123.718L205.12 124.115L204.811 124.503L204.506 124.881L204.207 125.249L203.913 125.607L203.624 125.956L203.341 126.297L203.064 126.628L202.271 127.574L202.02 127.874L201.776 128.167L201.539 128.453L201.31 128.733L201.088 129.006L200.875 129.273L200.669 129.535L200.471 129.792L200.282 130.043L200.1 130.291L199.928 130.534L199.763 130.773L199.608 131.008L199.461 131.241L199.323 131.471L199.194 131.698L199.073 131.924L198.962 132.147L198.86 132.369L198.766 132.591L198.682 132.812L198.607 133.032L198.54 133.253L198.483 133.474L198.434 133.696L198.395 133.919L198.364 134.144L198.342 134.37L198.329 134.599L198.324 134.831L198.328 135.065L198.34 135.303L198.36 135.545L198.389 135.79L198.425 136.04L198.469 136.294L198.521 136.554L198.581 136.818L198.648 137.089L198.722 137.365L198.803 137.648L198.89 137.937L198.985 138.233L199.085 138.536L199.192 138.846L199.304 139.164L199.422 139.491L199.545 139.825L199.674 140.168L199.807 140.519L199.944 140.88L200.381 142.017L200.534 142.416L200.69 142.824L200.848 143.243L201.009 143.672L201.172 144.111L201.336 144.562L201.502 145.023L201.668 145.495L201.836 145.979L202.003 146.473L202.171 146.979L202.338 147.497L202.504 148.026L202.669 148.566L202.833 149.118L202.994 149.683L203.154 150.258L203.31 150.846L203.464 151.446L203.614 152.057L203.76 152.681L203.902 153.316L204.04 153.963L204.172 154.622L204.299 155.293L204.42 155.975L204.536 156.669L204.644 157.375L204.746 158.093L204.84 158.821L204.927 159.561L205.006 160.313L205.076 161.075L205.137 161.849L205.19 162.633L205.232 163.428L205.265 164.233L205.288 165.049L205.3 165.875L205.301 166.71L205.291 167.556L205.269 168.411L205.235 169.275L205.189 170.148L205.13 171.03L205.059 171.921L204.974 172.819L204.875 173.726L204.763 174.641L204.637 175.563L204.496 176.492L204.34 177.428L204.17 178.37L203.984 179.318L203.783 180.273L203.566 181.232L203.333 182.197L203.085 183.167L202.819 184.141L202.537 185.12L202.239 186.102L201.923 187.087L201.59 188.075L201.24 189.066L200.873 190.059L200.487 191.054L200.085 192.05L199.664 193.047L199.225 194.044L198.768 195.042L198.293 196.039L197.8 197.036L197.288 198.031L196.758 199.025L196.209 200.017L195.642 201.007L195.056 201.993L194.452 202.977L193.829 203.956L193.187 204.931L192.527 205.902L191.849 206.868L191.152 207.828L190.437 208.782L189.703 209.73L188.951 210.671L188.18 211.605L187.392 212.531L186.585 213.449L185.761 214.358L184.919 215.259L184.059 216.15L183.182 217.031L182.287 217.902L181.376 218.763L180.447 219.612L179.502 220.45L178.54 221.276L177.561 222.09L176.567 222.891L175.557 223.679L174.531 224.453L173.489 225.214L172.433 225.961L171.361 226.693L170.276 227.41L169.175 228.112L168.061 228.799L166.933 229.469L165.792 230.123L164.638 230.761L163.471 231.382L162.292 231.986L161.101 232.572L159.898 233.14L158.684 233.691L157.46 234.223L156.224 234.736L154.979 235.231L153.724 235.707L152.459 236.163L151.186 236.6L149.904 237.018L148.614 237.415L147.316 237.792L146.011 238.149L144.7 238.486L143.382 238.802L142.058 239.097L140.728 239.371L139.394 239.624L138.055 239.857L136.712 240.068L135.365 240.257L134.015 240.425L132.662 240.572L131.307 240.698L129.95 240.801L128.592 240.883L127.232 240.944L125.873 240.983L124.513 241L123.154 240.996L121.796 240.97L120.439 240.922L119.084 240.853L117.731 240.763L116.381 240.651L115.035 240.518L113.692 240.363L112.353 240.188L111.019 239.991L109.69 239.774L108.366 239.536L107.049 239.277L105.737 238.998L104.433 238.699L103.135 238.38L101.845 238.041L100.564 237.682L99.2905 237.303L98.0261 236.906L96.771 236.489L95.5255 236.054L94.29 235.6L93.0649 235.128L91.8506 234.638L90.6474 234.13L89.4557 233.604L88.2759 233.062L87.1083 232.503L85.9531 231.927L84.8108 231.335L83.6817 230.727L82.566 230.103L81.464 229.465L80.3762 228.811L79.3026 228.143L78.2436 227.461L77.1995 226.765L76.1705 226.056L75.1568 225.333L74.1588 224.598L73.1765 223.851L72.2102 223.092L71.2601 222.321L70.3265 221.54L69.4094 220.748L68.509 219.945L67.6255 219.133L66.7591 218.311L65.9099 217.48L65.0779 216.641L64.2634 215.794L63.4664 214.939L62.687 214.077L61.9253 213.207L61.1813 212.332L60.4552 211.45L59.7469 210.563L59.0565 209.671L58.3839 208.774L57.7294 207.873L57.0927 206.968L56.4739 206.06L55.8731 205.149L55.29 204.235L54.7248 203.319L54.1774 202.402L53.6476 201.483L53.1354 200.563L52.6408 199.643L52.1635 198.723L51.7036 197.804L51.2608 196.885L50.8351 195.967L50.4264 195.051L50.0343 194.137L49.6589 193.226L49.2999 192.317L48.9572 191.411L48.6305 190.509L48.3197 189.61L48.0245 188.716L47.7448 187.827L47.4803 186.942L47.2307 186.063L46.9959 185.189L46.7755 184.321L46.5694 183.46L46.3772 182.604L46.1986 181.756L46.0335 180.915L45.8814 180.081L45.7422 179.255L45.6154 178.437L45.5009 177.627L45.3982 176.825L45.3071 176.032L45.2271 175.248L45.1581 174.474L45.0996 173.708L45.0514 172.952L45.013 172.206L44.9841 171.469L44.9643 170.743L44.9534 170.027L44.9509 169.321L44.9564 168.626L44.9697 167.941L44.9903 167.267L45.0178 166.604L45.0519 165.951L45.0922 165.31L45.1384 164.68L45.19 164.061L45.2466 163.453L45.3079 162.857L45.3736 162.272L45.4431 161.698L45.5162 161.135L45.5924 160.583L45.6715 160.043L45.7529 159.514L45.8364 158.997L45.9215 158.49L46.0079 157.995L46.0953 157.51L46.1831 157.037L46.2712 156.574L46.3591 156.122L46.4464 155.681L46.5329 155.25L46.6182 154.83L46.8631 153.63L46.9401 153.25L47.0141 152.879L47.0849 152.518L47.1522 152.166L47.2157 151.823L47.2751 151.489L47.33 151.164L47.3802 150.846L47.4254 150.537L47.4654 150.236L47.4999 149.943L47.5285 149.656L47.5512 149.377L47.5676 149.105L47.5775 148.839L47.5807 148.58L47.577 148.326L47.5662 148.078L47.548 147.836L47.5223 147.598L47.489 147.365L47.4478 147.137L47.3986 146.912L47.3412 146.692L47.2756 146.474L47.2015 146.26L47.1189 146.049L47.0276 145.84L46.9276 145.633L46.8188 145.427L46.7011 145.223L46.5744 145.02L46.4387 144.817L46.2939 144.615L46.14 144.413L45.977 144.21L45.8049 144.006L45.6236 143.801L45.4332 143.595L45.2337 143.386L45.0251 143.175L44.8075 142.962L44.581 142.746L44.3454 142.526L44.1011 142.302L43.848 142.074L43.5862 141.842L43.3159 141.605L43.0371 141.363L42.75 141.116L42.4548 140.862L41.5214 140.064L41.195 139.784L40.8613 139.496L40.5203 139.201L40.1725 138.897L39.8179 138.585L39.4568 138.265L39.0894 137.935L38.716 137.596L38.3368 137.248L37.9521 136.889L37.5621 136.521L37.1672 136.142L36.7675 135.753L36.3634 135.352L35.9553 134.941L35.5433 134.518L35.1278 134.084L34.7091 133.638L34.2876 133.18L33.8635 132.71L33.4373 132.227L33.0092 131.732L32.5796 131.225L32.1489 130.704L31.7174 130.171L31.2855 129.624L30.8535 129.064L30.4219 128.491L29.991 127.904L29.5611 127.304L29.1327 126.69L28.7062 126.063L28.2819 125.421L27.8603 124.766L27.4416 124.097L27.0264 123.414L26.615 122.717L26.2079 122.006L25.8054 121.281L25.4078 120.543L25.0158 119.79L24.6295 119.023L24.2495 118.243L23.8761 117.449L23.5097 116.641L23.1508 115.82L22.7997 114.985L22.4568 114.136L22.1226 113.275L21.7973 112.4L21.4815 111.512L21.1754 110.611L20.8795 109.697L20.5942 108.771L20.3198 107.832L20.0567 106.881L19.8053 105.918L19.566 104.943L19.339 103.957L19.1248 102.959L18.9236 101.95L18.7359 100.93L18.562 99.8994L18.4022 98.8584L18.2569 97.8073L18.1263 96.7463L18.0108 95.6758L17.9106 94.5961L17.8261 93.5074L17.7575 92.4102L17.7052 91.3046L17.6694 90.1911L17.6504 89.07L17.6484 87.9416L17.6637 86.8063L17.6965 85.6644L17.7471 84.5164L17.8156 83.3626L17.9023 82.2033L18.0074 81.039L18.1311 79.8701L18.2735 78.697L18.4349 77.52L18.6153 76.3397L18.815 75.1563L19.0341 73.9703L19.2726 72.7822L19.5309 71.5923L19.8088 70.4012L20.1066 69.2092L20.4243 68.0167L20.7621 66.8243L21.1198 65.6323L21.4978 64.4413L21.8958 63.2515L22.3141 62.0636L22.7526 60.8779L23.2113 59.695L23.6902 58.5151L24.1893 57.3389L24.7086 56.1668L25.2481 54.9991L25.8076 53.8364L26.3871 52.6791L26.9867 51.5277L27.6061 50.3825L28.2452 49.2441L28.904 48.1129L29.5824 46.9894L30.2803 45.8739L30.9974 44.7669L31.7336 43.6689L32.4888 42.5802L33.2628 41.5014L34.0555 40.4327L34.8665 39.3747L35.6958 38.3278L36.5431 37.2923L37.4081 36.2686L38.2907 35.2572L39.1906 34.2584L40.1075 33.2727L41.0413 32.3004L41.9915 31.3419L42.9579 30.3975L43.9403 29.4676L44.9382 28.5525L45.9515 27.6527L46.9798 26.7683L48.0228 25.8999L49.0801 25.0476L50.1513 24.2118L51.2363 23.3928L52.3344 22.5909L53.4455 21.8063L54.5691 21.0394L55.7049 20.2904L56.8525 19.5596L58.0114 18.8472L59.1813 18.1534L60.3618 17.4785L61.5524 16.8227L62.7528 16.1862L63.9625 15.5692L65.1811 14.9719L66.4081 14.3945L67.6433 13.837L68.886 13.2998L70.1358 12.7828L71.3924 12.2863L72.6553 11.8104L73.924 11.3551L75.198 10.9206L76.477 10.507L77.7604 10.1143L79.0478 9.74259L80.3387 9.39194L81.6328 9.06237L82.9294 8.75391L84.2282 8.46659L85.5288 8.20041L86.8305 7.95536L88.1331 7.73142L89.4359 7.52857L90.7387 7.34677L92.0408 7.18595L93.3419 7.04607L94.6416 6.92704L95.9392 6.82878L97.2345 6.7512L98.527 6.69419L99.8162 6.65761L101.102 6.64136L102.383 6.64528L103.66 6.66922L104.932 6.71303L106.198 6.77653L107.459 6.85954L108.713 6.96186L109.961 7.0833L111.202 7.22364L112.435 7.38266L113.66 7.56012L114.878 7.7558L116.087 7.96943L117.287 8.20075L118.477 8.44951L119.658 8.71542L120.829 8.9982L121.99 9.29755L123.14 9.61318L124.279 9.94478L125.407 10.292L126.524 10.6546L127.629 11.0322L128.721 11.4244L129.801 11.831L130.869 12.2515L131.923 12.6856L132.965 13.133L133.993 13.5933L135.008 14.066L136.008 14.551L136.995 15.0476L137.968 15.5557L138.926 16.0747L139.869 16.6043L140.798 17.1441L141.712 17.6937L142.611 18.2526L143.495 18.8206L144.364 19.3971L145.217 19.9817L146.055 20.5742L146.878 21.1739L147.684 21.7806L148.475 22.3937L149.251 23.013L150.011 23.6379L150.754 24.2681L151.482 24.9032L152.195 25.5426L152.891 26.1861L153.572 26.8331L154.237 27.4834L154.886 28.1364L155.52 28.7918L156.138 29.4492L156.741 30.1081L157.328 30.7682L157.899 31.4291L158.456 32.0903L158.997 32.7515L159.524 33.4124L160.035 34.0724L160.532 34.7313L161.014 35.3887L161.482 36.0442L161.935 36.6975L162.375 37.3482L162.801 37.9959L163.213 38.6403L163.611 39.2812L163.996 39.918L164.369 40.5506L164.728 41.1786L165.075 41.8018L165.41 42.4197L165.733 43.0322L166.044 43.6389L166.343 44.2395L166.632 44.8339L166.909 45.4217L167.176 46.0026L167.432 46.5766L167.679 47.1432L167.916 47.7024L168.143 48.2538L168.361 48.7973L168.571 49.3327L168.772 49.8598L168.966 50.3784L169.151 50.8884L169.329 51.3896L169.5 51.8818L169.665 52.3651L169.823 52.8391L169.975 53.3038L170.122 53.7591L170.263 54.205L170.4 54.6412L170.532 55.0678L170.66 55.4848L171.138 57.0547L171.25 57.4226L171.361 57.7807L171.471 58.129L171.579 58.4676L171.686 58.7964L171.793 59.1154L171.9 59.4249L172.007 59.7248L172.114 60.0152L172.223 60.2962L172.333 60.568L172.445 60.8305L172.558 61.084L172.675 61.3286L172.793 61.5644L172.915 61.7915L173.04 62.0102L173.169 62.2205L173.302 62.4228L173.439 62.6171L173.581 62.8037L173.727 62.9827L173.879 63.1545L174.036 63.3191L174.199 63.4769L174.368 63.628L174.544 63.7728L174.726 63.9115L174.914 64.0443L175.11 64.1715L175.313 64.2935L175.524 64.4104L175.742 64.5226L175.968 64.6303L176.202 64.7339L176.445 64.8337L176.696 64.93L176.956 65.0232L177.224 65.1134L177.502 65.2012L177.788 65.2867L178.084 65.3704L178.39 65.4526L178.704 65.5337L179.029 65.6139L179.363 65.6937L179.707 65.7733L180.06 65.8533L180.424 65.9339L180.797 66.0154L181.181 66.0983L182.391 66.3589L182.815 66.4509L183.248 66.5462L183.692 66.645L184.146 66.7477L184.609 66.8548L185.082 66.9665L185.565 67.0833L186.058 67.2055L186.561 67.3336L187.073 67.4677L187.594 67.6083L188.125 67.7558L188.665 67.9105L189.213 68.0728L189.771 68.243L190.337 68.4215L190.912 68.6085L191.496 68.8045L192.087 69.0097L192.686 69.2246L193.293 69.4493L193.908 69.6843L194.53 69.9298L195.159 70.1861L195.794 70.4536L196.437 70.7325L197.085 71.0231L197.74 71.3257L198.4 71.6405L199.066 71.9679L199.736 72.308L200.412 72.6612L201.092 73.0276L201.776 73.4075L202.464 73.8011L203.156 74.2087L203.851 74.6303L204.548 75.0663L205.248 75.5169L205.95 75.9821L206.654 76.4621L207.36 76.9572L208.066 77.4675L208.773 77.993L209.48 78.534L210.187 79.0906L210.893 79.6628L211.598 80.2507L212.303 80.8545L213.005 81.4742L213.705 82.1099L214.402 82.7616L215.097 83.4294L215.788 84.1133L216.475 84.8134L217.159 85.5296L217.837 86.2619L218.51 87.0104L219.178 87.7749L219.84 88.5556L220.496 89.3523L221.145 90.1649L221.786 90.9935L222.42 91.8379L223.047 92.698L223.664 93.5737L224.273 94.465L224.873 95.3716L225.463 96.2935L226.043 97.2306L226.612 98.1826L227.171 99.1494L227.718 100.131L228.254 101.127L228.778 102.137L229.289 103.161L229.787 104.199L230.273 105.25L230.745 106.315L231.203 107.393L231.646 108.484L232.075 109.587L232.49 110.702L232.889 111.83L233.272 112.969L233.639 114.12L233.991 115.282L234.325 116.454L234.643 117.637L234.944 118.83L235.227 120.033L235.493 121.245L235.741 122.466L235.97 123.696L236.181 124.934L236.373 126.18L236.547 127.433L236.701 128.694L236.836 129.961L236.951 131.235L237.047 132.515L237.123 133.8L237.179 135.09L237.214 136.385L237.229 137.684L237.224 138.986L237.197 140.292L237.151 141.601L237.083 142.913L236.994 144.226L236.884 145.541L236.754 146.857L236.602 148.174L236.428 149.491L236.234 150.807L236.018 152.123L235.781 153.438L235.523 154.751L235.243 156.062L234.942 157.37L234.62 158.675L234.277 159.977L233.912 161.275L233.527 162.568L233.12 163.857L232.693 165.14L232.245 166.418L231.776 167.689L231.287 168.953L230.777 170.211L230.247 171.461L229.697 172.703L229.127 173.936L228.537 175.161L227.928 176.376L227.299 177.582L226.651 178.778L225.984 179.963L225.299 181.137L224.595 182.3L223.873 183.451L223.133 184.59L222.375 185.717L221.599 186.831L220.807 187.931L219.998 189.019L219.172 190.092L218.33 191.151L217.473 192.195L216.599 193.225L215.711 194.239L214.807 195.238L213.889 196.221L212.957 197.188L212.012 198.139L211.052 199.072L210.08 199.989L209.095 200.889L208.098 201.772L207.089 202.637L206.069 203.484L205.037 204.312L203.995 205.123L202.943 205.915L201.881 206.689L200.809 207.444L199.729 208.18L198.64 208.896L197.543 209.594L196.439 210.272L195.327 210.931L194.209 211.57L193.084 212.19L191.954 212.789L190.818 213.369L189.677 213.929L188.531 214.47L187.382 214.99L186.229 215.49L185.073 215.971L183.914 216.431L182.753 216.871L181.59 217.292L180.426 217.693L179.261 218.073L178.095 218.435L176.93 218.776L175.764 219.098L174.6 219.4L173.437 219.682L172.276 219.946L171.116 220.19L169.96 220.415L168.806 220.621L167.656 220.809L166.509 220.978L165.367 221.128L164.229 221.26L163.096 221.374L161.969 221.471L160.847 221.549L159.732 221.611L158.622 221.655L157.52 221.682L156.425 221.693L155.337 221.687L154.258 221.665L153.186 221.627L152.123 221.573L151.069 221.505L150.024 221.421L148.988 221.322L147.962 221.21L146.946 221.083L145.94 220.942L144.945 220.788L143.96 220.621L142.987 220.441L142.024 220.249L141.073 220.045L140.134 219.829L139.207 219.602L138.291 219.364L137.388 219.115L136.497 218.856L135.619 218.588L134.753 218.31L133.9 218.023L133.06 217.727L132.234 217.423L131.42 217.112L130.62 216.793L129.833 216.466L129.059 216.133L128.299 215.794L127.552 215.449L126.819 215.099L126.099 214.743L125.393 214.383L124.701 214.018L124.022 213.65L123.357 213.278L122.705 212.903L122.067 212.525L121.443 212.145L120.831 211.763L120.233 211.38L119.648 210.995L119.077 210.61L118.518 210.224L117.973 209.838L117.44 209.453L116.92 209.068L116.412 208.684L115.917 208.302L115.434 207.921L114.963 207.543L114.504 207.167L114.056 206.794L113.62 206.423L113.196 206.057L112.782 205.694L112.379 205.335L111.987 204.98L111.605 204.63L111.233 204.284L110.871 203.944L110.519 203.61L110.176 203.281L109.842 202.958L109.516 202.641L109.2 202.33L108.891 202.027L108.011 201.157L107.732 200.882L107.459 200.614L107.193 200.354L106.933 200.103L106.678 199.859L106.429 199.623L106.184 199.396L105.944 199.177L105.708 198.967L105.476 198.765L105.248 198.573L105.023 198.389L104.8 198.214L104.58 198.047L104.362 197.89L104.146 197.742L103.931 197.603L103.717 197.473L103.504 197.352L103.29 197.24L103.077 197.137L102.864 197.043L102.649 196.958L102.433 196.882L102.216 196.815L101.997 196.756L101.775 196.706L101.551 196.665L101.324 196.632L101.094 196.607L100.86 196.591L100.622 196.583L100.38 196.583L100.133 196.59L99.8815 196.605L99.6244 196.628L99.3618 196.657L99.0933 196.694L98.8185 196.738L98.5373 196.788L98.2493 196.845L97.9543 196.908L97.6519 196.977L97.3419 197.051L97.024 197.131L96.698 197.217L96.3637 197.307L96.0207 197.401L95.6688 197.501L95.308 197.604L94.9378 197.711L93.3602 198.17L92.9407 198.291L92.5108 198.414L92.0703 198.539L91.6192 198.664L91.1573 198.791L90.6844 198.917L90.2005 199.044L89.7054 199.171L89.1991 199.297L88.6814 199.422L88.1524 199.546L87.6119 199.668L87.0599 199.788L86.4964 199.906L85.9213 200.02L85.3346 200.131L84.7363 200.239L84.1265 200.343L83.5051 200.442L82.8721 200.537L82.2276 200.626L81.5716 200.71L80.9042 200.788L80.2255 200.859L79.5356 200.924L78.8345 200.982L78.1223 201.033L77.3992 201.075L76.6653 201.11L75.9207 201.136L75.1655 201.153L74.4 201.161L73.6242 201.159L72.8384 201.147L72.0427 201.125L71.2374 201.092L70.4226 201.048L69.5985 200.993L68.7655 200.926L67.9237 200.847L67.0733 200.755L66.2147 200.651L65.348 200.534L64.4736 200.404L63.5918 200.26L62.7028 200.103L61.8069 199.931L60.9044 199.745L59.9957 199.544L59.081 199.328L58.1607 199.098L57.2352 198.851L56.3047 198.589L55.3697 198.312L54.4304 198.018L53.4873 197.708L52.5407 197.381L51.5911 197.038L50.6386 196.678L49.6839 196.301L48.7272 195.907L47.7689 195.495L46.8095 195.066L45.8494 194.62L44.8889 194.156L43.9285 193.674L42.9686 193.174L42.0096 192.656L41.052 192.12L40.0961 191.567L39.1425 190.994L38.1914 190.404L37.2435 189.796L36.299 189.169L35.3584 188.524L34.4222 187.861L33.4908 187.18L32.5647 186.48L31.6442 185.763L30.7298 185.027L29.822 184.273L28.9211 183.501L28.0277 182.712L27.142 181.904L26.2647 181.079L25.3961 180.237L24.5366 179.377L23.6866 178.499L22.8466 177.605L22.017 176.693L21.1982 175.765L20.3905 174.82L19.5945 173.859L18.8105 172.882L18.0389 171.888L17.2801 170.879L16.5344 169.855L15.8023 168.815L15.0842 167.76L14.3803 166.69L13.6911 165.606L13.0168 164.507L12.358 163.395L11.7148 162.269L11.0877 161.129L10.4769 159.977L9.88273 158.812L9.30558 157.635L8.7457 156.446L8.20339 155.245L7.67894 154.033L7.17261 152.81L6.68467 151.577L6.21538 150.333L5.76499 149.08L5.33373 147.817L4.92183 146.546L4.52951 145.265L4.15697 143.977L3.80442 142.681L3.47203 141.378L3.15999 140.068L2.86846 138.751L2.59759 137.428L2.34754 136.1L2.11842 134.767L1.91037 133.429L1.7235 132.087L1.5579 130.741L1.41366 129.392L1.29087 128.04L1.18957 126.685L1.10984 125.329L1.05171 123.971L1.01522 122.612L1.00037 121.252" stroke="#3DD47E" stroke-width="0.46"/>
</svg>
