<svg width="137" height="160" viewBox="0 0 137 160" fill="none" xmlns="http://www.w3.org/2000/svg">
<g id="vector">
<path id="Vector" d="M129.093 47.3307C122.033 35.6707 115.413 21.9807 105.543 14.1507C88.5431 0.660677 63.5231 -1.48932 43.5831 3.37068C11.4131 11.2107 -18.5969 35.9807 -28.9869 68.0107C-34.3402 84.5107 -32.5602 100.301 -23.6469 115.381C-21.1002 119.701 -17.0435 126.001 -11.4769 134.281C-4.32688 144.931 7.79312 154.371 20.7731 156.531C22.8031 156.871 24.7231 157.901 26.6231 158.101C35.7831 159.051 42.1231 158.731 49.3031 158.411C56.1131 158.111 62.5131 155.821 69.5331 153.501C103.523 142.291 132.943 112.671 135.913 75.5707C136.333 70.3207 134.903 65.1307 134.103 59.8807C133.516 56.074 131.846 51.8907 129.093 47.3307Z" stroke="#1D1440" stroke-width="2"/>
<path id="Vector_2" d="M-15.8969 125.411C-13.2102 129.864 -10.8635 133.414 -8.85685 136.061C10.8232 162.071 49.1531 161.601 76.0531 149.581" stroke="#8F5014" stroke-width="2"/>
<path id="Vector_3" d="M76.0532 149.581C108.213 136.361 136.193 104.611 134.353 67.8207C133.773 56.2307 127.253 45.0407 120.263 35.5807" stroke="#914B11" stroke-width="2"/>
<path id="Vector_4" d="M120.263 35.5807C111.843 18.534 98.8032 8.01403 81.1432 4.0207C42.1332 -4.7993 0.513215 18.0507 -19.6568 50.8407C-29.5268 66.8907 -34.0068 86.5207 -27.6468 104.511C-25.1768 111.471 -20.1468 118.711 -15.8968 125.411" stroke="#917812" stroke-width="2"/>
<path id="Vector_5" d="M120.263 35.5807C120.55 36.5607 120.583 37.2474 120.363 37.6407" stroke="#FFBA07" stroke-width="2"/>
<path id="Vector_6" d="M120.363 37.6406C119.137 36.1006 117.403 33.4873 115.163 29.8006C111.65 24.014 107.177 19.0106 101.743 14.7906C101.651 14.7181 101.539 14.6746 101.422 14.6658C101.306 14.6571 101.189 14.6833 101.087 14.7413C100.985 14.7992 100.902 14.8862 100.85 14.9912C100.798 15.0962 100.778 15.2143 100.793 15.3306C100.927 16.404 101.433 17.274 102.313 17.9406C102.382 17.9931 102.433 18.065 102.461 18.1471C102.488 18.2291 102.49 18.3175 102.466 18.4007C102.442 18.4838 102.394 18.5579 102.327 18.6132C102.261 18.6685 102.179 18.7024 102.093 18.7106C99.6799 18.9573 97.4432 19.754 95.3832 21.1006C95.1232 21.274 94.9232 21.5006 94.7832 21.7806C93.9132 23.5506 90.9332 24.9806 89.7232 22.8206C89.5632 22.5339 89.3465 22.3073 89.0732 22.1406C86.1198 20.3539 83.0965 20.3606 80.0032 22.1606" stroke="#FFDF08" stroke-width="2"/>
<path id="Vector_7" d="M80.0032 22.1607C49.9932 10.9307 16.0632 27.0707 -1.61678 51.9107C-10.4468 64.3107 -14.6768 79.5607 -10.7368 94.3207" stroke="#EEAB0E" stroke-width="2"/>
<path id="Vector_8" d="M52.9731 119.461C53.0865 119.567 53.2065 119.627 53.3331 119.641C53.5265 119.667 53.6765 119.764 53.7832 119.931L62.1131 133.271" stroke="#FECD08" stroke-width="2"/>
<path id="Vector_9" d="M62.1132 133.271C44.7532 140.184 27.1265 141.587 9.23317 137.481C0.20317 135.401 -7.82683 130.311 -14.6268 124.251" stroke="#FEB60A" stroke-width="2"/>
<path id="Vector_10" d="M97.4232 35.8106C91.6166 30.9506 86.9432 27.944 83.4032 26.7906C80.8032 25.9406 78.0932 24.7006 75.5432 24.2206C62.5432 21.774 49.8832 23.0573 37.5632 28.0706" stroke="#EE7D0D" stroke-width="2"/>
<path id="Vector_11" d="M37.5632 28.0707C12.4432 38.2007 -11.0068 62.9507 -8.83684 91.4207C-8.53684 95.4074 -7.14017 100.417 -4.64684 106.451" stroke="#ED8210" stroke-width="2"/>
<path id="Vector_12" d="M120.363 37.6406C126.083 51.5506 123.283 70.1906 117.123 83.1506C110.617 96.8506 101.04 108.587 88.3932 118.361" stroke="#FFB107" stroke-width="2"/>
<path id="Vector_13" d="M88.3932 118.361L79.1832 105.501" stroke="#FECD08" stroke-width="2"/>
<path id="Vector_14" d="M79.1832 105.501C95.4132 92.2607 106.723 72.8707 104.073 51.3707C103.36 45.624 101.143 40.4373 97.4232 35.8107" stroke="#FFB107" stroke-width="2"/>
<path id="Vector_15" d="M97.4232 35.8106C93.2365 29.5506 87.4298 25.0006 80.0032 22.1606" stroke="#EEA20D" stroke-width="2"/>
<path id="Vector_16" d="M76.0532 149.581L72.0332 149.751C71.828 149.759 71.6272 149.689 71.4712 149.553C71.3153 149.418 71.2159 149.227 71.1932 149.021L70.5432 142.211C70.511 141.894 70.3697 141.597 70.1432 141.371C68.7232 139.944 68.0165 138.227 68.0232 136.221C68.0232 135.901 67.9499 135.597 67.8032 135.311L67.3932 134.521C67.2332 134.214 67.3232 134.044 67.6632 134.011L68.9632 133.861C69.5099 133.794 69.6299 133.531 69.3232 133.071C68.9432 132.504 68.9565 131.884 69.3632 131.211C69.5463 130.897 69.8086 130.638 70.1232 130.461C71.4632 129.681 73.1899 128.897 75.3032 128.111C76.3232 127.731 76.7199 127.181 76.4932 126.461" stroke="#FE910A" stroke-width="2"/>
<path id="Vector_17" d="M76.4932 126.461L88.3932 118.361" stroke="#FEA808" stroke-width="2"/>
<path id="Vector_18" d="M79.1832 105.501C71.6498 111.501 62.9131 116.154 52.9731 119.461" stroke="#FEA808" stroke-width="2"/>
<path id="Vector_19" d="M52.9732 119.461C53.1932 119.647 53.0432 119.681 52.5232 119.561" stroke="#FFB107" stroke-width="2"/>
<path id="Vector_20" d="M52.5232 119.561C52.4499 118.601 52.5999 117.981 52.9732 117.701C53.1789 117.549 53.3224 117.329 53.3774 117.08C53.4323 116.831 53.3951 116.571 53.2725 116.346C53.1499 116.122 52.9501 115.948 52.7097 115.857C52.4692 115.766 52.2043 115.764 51.9632 115.851C51.0432 116.191 50.4799 115.957 50.2732 115.151C49.0399 110.257 48.3799 105.354 48.2932 100.441" stroke="#FE910A" stroke-width="2"/>
<path id="Vector_21" d="M48.2932 100.441C56.3432 102.341 67.5332 107.831 71.8832 96.7507C75.1299 88.4707 78.3732 80.184 81.6132 71.8907C83.0832 68.1107 82.8332 64.9407 79.3832 62.7307" stroke="#EE7D0D" stroke-width="2"/>
<path id="Vector_22" d="M79.3832 62.7307C77.3132 58.3407 68.5832 63.9407 64.2532 66.3007" stroke="#FFBA07" stroke-width="2"/>
<path id="Vector_23" d="M64.2532 66.3007C64.1632 62.5507 64.6232 55.8407 62.7732 52.7207C62.1399 51.6541 61.4399 50.6174 60.6732 49.6107" stroke="#EE7D0D" stroke-width="2"/>
<path id="Vector_24" d="M60.6732 49.6106C59.6599 47.644 57.6465 47.1373 54.6332 48.0907" stroke="#FFBA07" stroke-width="2"/>
<path id="Vector_25" d="M54.6332 48.0907L52.6232 48.6207C52.5523 48.64 52.4781 48.6445 52.4053 48.6341C52.3325 48.6237 52.2625 48.5986 52.1998 48.5602C52.1371 48.5218 52.0828 48.471 52.0404 48.4109C51.998 48.3508 51.9684 48.2827 51.9532 48.2107C50.0332 39.2407 47.3432 30.6907 37.5632 28.0707" stroke="#FE910A" stroke-width="2"/>
<path id="Vector_26" d="M76.4932 126.461C71.8065 129.234 67.0132 131.504 62.1132 133.271" stroke="#FDAD0B" stroke-width="2"/>
<path id="Vector_27" d="M54.6332 48.0907L45.2432 55.0707" stroke="#FEBF0B" stroke-width="2"/>
<path id="Vector_28" d="M45.2431 55.0707L37.8431 60.3907" stroke="#FEB60A" stroke-width="2"/>
<path id="Vector_29" d="M37.8431 60.3907L34.0731 53.7007" stroke="#ED8210" stroke-width="2"/>
<path id="Vector_30" d="M34.0732 53.7007C29.4932 41.8107 18.2932 63.1107 16.4032 66.0607" stroke="#FEB60A" stroke-width="2"/>
<path id="Vector_31" d="M16.4032 66.0607C14.0032 69.5907 6.20323 79.5407 6.07323 83.1407C6.00656 84.8873 6.79656 86.3707 8.44323 87.5907" stroke="#FEBF0B" stroke-width="2"/>
<path id="Vector_32" d="M8.44324 87.5907C8.58324 88.724 9.25657 89.7707 10.4632 90.7307C13.0032 92.7507 20.5732 94.2307 23.8832 94.9407C32.2832 96.734 40.4199 98.5674 48.2932 100.441" stroke="#ED8210" stroke-width="2"/>
<path id="Vector_33" d="M52.5231 119.561C43.0365 122.694 33.3032 123.544 23.3232 122.111C11.4632 120.417 2.13982 115.197 -4.64685 106.451" stroke="#FEB60A" stroke-width="2"/>
<path id="Vector_34" d="M60.6732 49.6107L61.8632 66.7907C61.8899 67.1707 62.0965 67.3507 62.4832 67.3307C63.0432 67.2974 63.6332 66.954 64.2532 66.3007" stroke="#EEAB0E" stroke-width="2"/>
<path id="Vector_35" d="M79.3831 62.7307C79.2931 63.6307 79.4031 64.4007 79.1131 65.2207C76.4065 72.9341 73.2731 81.134 69.7131 89.8207" stroke="#EEAB0E" stroke-width="2"/>
<path id="Vector_36" d="M69.7132 89.8207L45.2432 55.0707" stroke="#FFDF08" stroke-width="2"/>
<path id="Vector_37" d="M8.44324 87.5907L33.1832 93.4307" stroke="#EEAB0E" stroke-width="2"/>
<path id="Vector_38" d="M34.0731 53.7007L36.5631 61.1107C36.6898 61.484 36.9131 61.554 37.2331 61.3207C37.6731 60.9873 37.8765 60.6774 37.8431 60.3907" stroke="#EEA20D" stroke-width="2"/>
<path id="Vector_39" d="M69.7132 89.8207C69.3199 91.594 68.5499 93.3874 67.4032 95.2007C64.7132 99.4707 60.6032 99.8207 55.7032 98.7207C48.2232 97.0474 40.7166 95.284 33.1832 93.4307" stroke="#EEA20D" stroke-width="2"/>
<path id="Vector_40" d="M33.1832 93.4307C34.2632 92.2307 34.3465 91.1207 33.4332 90.1007C30.5032 86.8207 27.9532 82.7807 25.2632 79.2407C22.3532 75.4007 19.9732 70.1807 16.4032 66.0607" stroke="#FFDF08" stroke-width="2"/>
<path id="Vector_41" d="M129.093 47.3307C131.846 51.8907 133.516 56.074 134.103 59.8807C134.903 65.1307 136.333 70.3207 135.913 75.5707C132.943 112.671 103.523 142.291 69.5331 153.501C62.5131 155.821 56.1131 158.111 49.3031 158.411C42.1231 158.731 35.7831 159.051 26.6231 158.101C24.7231 157.901 22.8031 156.871 20.7731 156.531C7.79312 154.371 -4.32688 144.931 -11.4769 134.281C-17.0435 126.001 -21.1002 119.701 -23.6469 115.381C-32.5602 100.301 -34.3402 84.5107 -28.9869 68.0107C-18.5969 35.9807 11.4131 11.2107 43.5831 3.37068C63.5231 -1.48932 88.5431 0.660677 105.543 14.1507C115.413 21.9807 122.033 35.6707 129.093 47.3307ZM-15.8969 125.411C-13.2102 129.864 -10.8635 133.414 -8.85688 136.061C10.8231 162.071 49.1531 161.601 76.0531 149.581C108.213 136.361 136.193 104.611 134.353 67.8207C133.773 56.2307 127.253 45.0407 120.263 35.5807C111.843 18.534 98.8031 8.01401 81.1431 4.02068C42.1331 -4.79932 0.513123 18.0507 -19.6569 50.8407C-29.5269 66.8907 -34.0069 86.5207 -27.6469 104.511C-25.1769 111.471 -20.1469 118.711 -15.8969 125.411Z" fill="#22091B"/>
<path id="Vector_42" d="M120.263 35.5807C120.55 36.5607 120.583 37.2474 120.363 37.6407C119.136 36.1007 117.403 33.4874 115.163 29.8007C111.65 24.014 107.176 19.0107 101.743 14.7907C101.651 14.7182 101.539 14.6747 101.422 14.6659C101.305 14.6571 101.189 14.6834 101.087 14.7413C100.985 14.7993 100.902 14.8863 100.85 14.9913C100.798 15.0963 100.778 15.2144 100.793 15.3307C100.926 16.404 101.433 17.274 102.313 17.9407C102.382 17.9931 102.433 18.0651 102.46 18.1472C102.488 18.2292 102.49 18.3176 102.466 18.4008C102.442 18.4839 102.394 18.558 102.327 18.6133C102.261 18.6685 102.179 18.7025 102.093 18.7107C99.6798 18.9574 97.4431 19.754 95.3831 21.1007C95.1231 21.274 94.9231 21.5007 94.7831 21.7807C93.9131 23.5507 90.9331 24.9807 89.7231 22.8207C89.5631 22.534 89.3464 22.3074 89.0731 22.1407C86.1198 20.354 83.0964 20.3607 80.0031 22.1607C49.9931 10.9307 16.0631 27.0707 -1.61691 51.9107C-10.4469 64.3107 -14.6769 79.5607 -10.7369 94.3207C-11.2169 95.414 -11.2402 96.474 -10.8069 97.5007C-10.7002 97.754 -10.7102 98.0007 -10.8369 98.2407L-12.6369 101.681C-12.6683 101.741 -12.7148 101.793 -12.7718 101.831C-12.8289 101.869 -12.8947 101.891 -12.9629 101.896C-13.0311 101.901 -13.0995 101.888 -13.1615 101.859C-13.2234 101.831 -13.2769 101.786 -13.3169 101.731L-26.0469 84.6007C-26.2669 84.3007 -26.5602 84.1474 -26.9269 84.1407L-28.6769 84.0907C-28.8236 84.0907 -28.9069 84.1607 -28.9269 84.3007C-29.4602 88.414 -29.5036 91.0474 -29.0569 92.2007C-26.8969 97.7107 -26.9969 104.351 -23.9969 109.481C-21.0969 114.454 -17.9736 119.377 -14.6269 124.251C-15.2736 124.644 -15.6969 125.031 -15.8969 125.411C-20.1469 118.711 -25.1769 111.471 -27.6469 104.511C-34.0069 86.5207 -29.5269 66.8907 -19.6569 50.8407C0.513092 18.0507 42.1331 -4.7993 81.1431 4.0207C98.8031 8.01403 111.843 18.534 120.263 35.5807Z" fill="#FFE708"/>
<path id="Vector_43" d="M120.363 37.6407C126.083 51.5507 123.283 70.1907 117.123 83.1507C110.616 96.8507 101.04 108.587 88.3931 118.361L79.1831 105.501C95.4131 92.2607 106.723 72.8707 104.073 51.3707C103.36 45.6241 101.143 40.4374 97.4231 35.8107C93.2364 29.5507 87.4298 25.0007 80.0031 22.1607C83.0964 20.3607 86.1198 20.3541 89.0731 22.1407C89.3464 22.3074 89.5631 22.5341 89.7231 22.8207C90.9331 24.9807 93.9131 23.5507 94.7831 21.7807C94.9231 21.5007 95.1231 21.2741 95.3831 21.1007C97.4431 19.7541 99.6798 18.9574 102.093 18.7107C102.179 18.7025 102.261 18.6686 102.327 18.6133C102.394 18.558 102.442 18.484 102.466 18.4008C102.49 18.3177 102.488 18.2293 102.46 18.1472C102.433 18.0651 102.382 17.9932 102.313 17.9407C101.433 17.2741 100.926 16.4041 100.793 15.3307C100.778 15.2145 100.798 15.0963 100.85 14.9913C100.902 14.8863 100.985 14.7993 101.087 14.7414C101.189 14.6834 101.305 14.6572 101.422 14.666C101.539 14.6748 101.651 14.7182 101.743 14.7907C107.176 19.0107 111.65 24.0141 115.163 29.8007C117.403 33.4874 119.136 36.1007 120.363 37.6407Z" fill="#FFD607"/>
<path id="Vector_44" d="M80.0031 22.1608C87.4298 25.0008 93.2364 29.5508 97.4231 35.8108C91.6164 30.9508 86.9431 27.9441 83.4031 26.7908C80.8031 25.9408 78.0931 24.7008 75.5431 24.2208C62.5431 21.7741 49.8831 23.0575 37.5631 28.0708C12.4431 38.2008 -11.0069 62.9508 -8.8369 91.4208C-8.5369 95.4075 -7.14023 100.417 -4.6469 106.451C-7.5869 102.617 -9.61689 98.5741 -10.7369 94.3208C-14.6769 79.5608 -10.4469 64.3108 -1.6169 51.9108C16.0631 27.0708 49.9931 10.9308 80.0031 22.1608Z" fill="#DD6E13"/>
<path id="Vector_45" d="M97.4231 35.8107C101.143 40.4374 103.36 45.6241 104.073 51.3707C106.723 72.8707 95.4131 92.2608 79.1831 105.501C71.6498 111.501 62.9131 116.154 52.9731 119.461C53.1931 119.647 53.0431 119.681 52.5231 119.561C52.4498 118.601 52.5998 117.981 52.9731 117.701C53.1788 117.549 53.3223 117.329 53.3773 117.08C53.4322 116.831 53.395 116.571 53.2724 116.346C53.1498 116.122 52.95 115.948 52.7095 115.857C52.4691 115.766 52.2042 115.764 51.9631 115.851C51.0431 116.191 50.4798 115.957 50.2731 115.151C49.0398 110.257 48.3798 105.354 48.2931 100.441C56.3431 102.341 67.5331 107.831 71.8831 96.7508C75.1298 88.4708 78.3731 80.1841 81.6131 71.8908C83.0831 68.1108 82.8331 64.9407 79.3831 62.7307C77.3131 58.3407 68.5831 63.9407 64.2531 66.3007C64.1631 62.5507 64.6231 55.8408 62.7731 52.7208C62.1398 51.6541 61.4398 50.6174 60.6731 49.6107C59.6598 47.6441 57.6464 47.1374 54.6331 48.0907L52.6231 48.6207C52.5521 48.64 52.478 48.6446 52.4052 48.6342C52.3323 48.6238 52.2624 48.5986 52.1997 48.5602C52.137 48.5218 52.0827 48.471 52.0403 48.4109C51.9979 48.3508 51.9682 48.2827 51.9531 48.2107C50.0331 39.2407 47.3431 30.6907 37.5631 28.0707C49.8831 23.0574 62.5431 21.7741 75.5431 24.2207C78.0931 24.7007 80.8031 25.9407 83.4031 26.7907C86.9431 27.9441 91.6164 30.9507 97.4231 35.8107Z" fill="#FF8C06"/>
<path id="Vector_46" d="M37.5632 28.0707C47.3432 30.6907 50.0332 39.2407 51.9532 48.2107C51.9683 48.2827 51.998 48.3508 52.0404 48.4109C52.0828 48.471 52.137 48.5218 52.1998 48.5602C52.2625 48.5986 52.3324 48.6237 52.4052 48.6341C52.478 48.6445 52.5522 48.64 52.6232 48.6207L54.6332 48.0907L45.2432 55.0707L37.8432 60.3907L34.0732 53.7007C29.4932 41.8107 18.2932 63.1107 16.4032 66.0607C14.0032 69.5907 6.20317 79.5407 6.07316 83.1407C6.0065 84.8874 6.7965 86.3707 8.44317 87.5907C8.58317 88.724 9.2565 89.7707 10.4632 90.7307C13.0032 92.7507 20.5732 94.2307 23.8832 94.9407C32.2832 96.734 40.4198 98.5674 48.2932 100.441C48.3798 105.354 49.0398 110.257 50.2732 115.151C50.4798 115.957 51.0432 116.191 51.9632 115.851C52.2042 115.764 52.4692 115.766 52.7096 115.857C52.95 115.948 53.1498 116.122 53.2724 116.346C53.3951 116.571 53.4323 116.831 53.3773 117.08C53.3224 117.329 53.1789 117.549 52.9732 117.701C52.5998 117.981 52.4498 118.601 52.5232 119.561C43.0365 122.694 33.3032 123.544 23.3232 122.111C11.4632 120.417 2.13983 115.197 -4.64684 106.451C-7.14017 100.417 -8.53684 95.4073 -8.83684 91.4207C-11.0068 62.9507 12.4432 38.2007 37.5632 28.0707Z" fill="#FC960D"/>
<path id="Vector_47" d="M120.263 35.5807C127.253 45.0407 133.773 56.2307 134.353 67.8207C136.193 104.611 108.213 136.361 76.0531 149.581L72.0331 149.751C71.8279 149.759 71.627 149.689 71.4711 149.553C71.3152 149.418 71.2158 149.227 71.1931 149.021L70.5431 142.211C70.5109 141.894 70.3696 141.597 70.1431 141.371C68.7231 139.944 68.0164 138.227 68.0231 136.221C68.0231 135.901 67.9497 135.597 67.8031 135.311L67.3931 134.521C67.2331 134.214 67.3231 134.044 67.6631 134.011L68.9631 133.861C69.5097 133.794 69.6297 133.531 69.3231 133.071C68.9431 132.504 68.9564 131.884 69.3631 131.211C69.5461 130.897 69.8085 130.638 70.1231 130.461C71.4631 129.681 73.1897 128.897 75.3031 128.111C76.3231 127.731 76.7197 127.181 76.4931 126.461L88.3931 118.361C101.04 108.587 110.616 96.8507 117.123 83.1507C123.283 70.1907 126.083 51.5507 120.363 37.6407C120.583 37.2474 120.55 36.5607 120.263 35.5807Z" fill="#FF8C06"/>
<path id="Vector_48" d="M60.6732 49.6108L61.8632 66.7908C61.8898 67.1708 62.0965 67.3508 62.4832 67.3308C63.0432 67.2974 63.6332 66.9541 64.2532 66.3008C68.5832 63.9408 77.3132 58.3408 79.3832 62.7308C79.2932 63.6308 79.4032 64.4008 79.1132 65.2208C76.4065 72.9341 73.2732 81.1341 69.7132 89.8208L45.2432 55.0708L54.6332 48.0908C57.6465 47.1374 59.6598 47.6441 60.6732 49.6108Z" fill="#FFE708"/>
<path id="Vector_49" d="M60.6731 49.6107C61.4398 50.6174 62.1398 51.6541 62.7731 52.7207C64.6231 55.8407 64.1631 62.5507 64.2531 66.3007C63.6331 66.954 63.0431 67.2974 62.4831 67.3307C62.0964 67.3507 61.8897 67.1707 61.8631 66.7907L60.6731 49.6107Z" fill="#DD6E13"/>
<path id="Vector_50" d="M34.0731 53.7007L36.5631 61.1107C36.6897 61.4841 36.9131 61.554 37.2331 61.3207C37.6731 60.9874 37.8764 60.6774 37.8431 60.3907L45.2431 55.0707L69.7131 89.8207C69.3197 91.5941 68.5497 93.3874 67.4031 95.2007C64.7131 99.4707 60.6031 99.8207 55.7031 98.7207C48.2231 97.0474 40.7164 95.284 33.1831 93.4307C34.2631 92.2307 34.3464 91.1207 33.4331 90.1007C30.5031 86.8207 27.9531 82.7807 25.2631 79.2407C22.3531 75.4007 19.9731 70.1807 16.4031 66.0607C18.2931 63.1107 29.4931 41.8107 34.0731 53.7007Z" fill="#FFD607"/>
<path id="Vector_51" d="M37.8431 60.3907C37.8765 60.6774 37.6731 60.9873 37.2331 61.3207C36.9131 61.554 36.6898 61.484 36.5631 61.1107L34.0731 53.7007L37.8431 60.3907Z" fill="#DD6E13"/>
<path id="Vector_52" d="M79.3831 62.7307C82.8331 64.9407 83.0831 68.1107 81.6131 71.8907C78.3731 80.184 75.1298 88.4707 71.8831 96.7507C67.5331 107.831 56.3431 102.341 48.2931 100.441C40.4198 98.5674 32.2831 96.7341 23.8831 94.9407C20.5731 94.2307 13.0031 92.7507 10.4631 90.7307C9.25645 89.7707 8.58312 88.724 8.44312 87.5907L33.1831 93.4307C40.7164 95.284 48.2231 97.0474 55.7031 98.7207C60.6031 99.8207 64.7131 99.4707 67.4031 95.2007C68.5498 93.3874 69.3198 91.594 69.7131 89.8207C73.2731 81.134 76.4064 72.9341 79.1131 65.2207C79.4031 64.4007 79.2931 63.6307 79.3831 62.7307Z" fill="#DD6E13"/>
<path id="Vector_53" d="M16.4031 66.0607C19.9731 70.1807 22.3531 75.4007 25.2631 79.2407C27.9531 82.7807 30.5031 86.8207 33.4331 90.1007C34.3464 91.1207 34.2631 92.2307 33.1831 93.4307L8.44311 87.5907C6.79644 86.3707 6.00644 84.8873 6.0731 83.1407C6.2031 79.5407 14.0031 69.5907 16.4031 66.0607Z" fill="#FFE708"/>
<path id="Vector_54" d="M-10.7369 94.3207C-9.61693 98.574 -7.58693 102.617 -4.64693 106.451C2.13973 115.197 11.4631 120.417 23.3231 122.111C33.3031 123.544 43.0364 122.694 52.5231 119.561C53.0431 119.681 53.1931 119.647 52.9731 119.461C53.0864 119.567 53.2064 119.627 53.3331 119.641C53.5264 119.667 53.6764 119.764 53.7831 119.931L62.1131 133.271C44.7531 140.184 27.1264 141.587 9.23307 137.481C0.203072 135.401 -7.82693 130.311 -14.6269 124.251C-17.9736 119.377 -21.0969 114.454 -23.9969 109.481C-26.9969 104.351 -26.8969 97.7107 -29.0569 92.2007C-29.5036 91.0474 -29.4603 88.414 -28.9269 84.3007C-28.9069 84.1607 -28.8236 84.0907 -28.6769 84.0907L-26.9269 84.1407C-26.5603 84.1474 -26.2669 84.3007 -26.0469 84.6007L-13.3169 101.731C-13.277 101.786 -13.2235 101.831 -13.1615 101.859C-13.0995 101.888 -13.0312 101.901 -12.9629 101.896C-12.8947 101.891 -12.8289 101.869 -12.7719 101.831C-12.7148 101.793 -12.6683 101.741 -12.6369 101.681L-10.8369 98.2407C-10.7103 98.0007 -10.7003 97.754 -10.8069 97.5007C-11.2403 96.474 -11.2169 95.414 -10.7369 94.3207Z" fill="#FFD607"/>
<path id="Vector_55" d="M79.1832 105.501L88.3932 118.361L76.4931 126.461C71.8065 129.234 67.0131 131.504 62.1131 133.271L53.7832 119.931C53.6765 119.764 53.5265 119.667 53.3331 119.641C53.2065 119.627 53.0865 119.567 52.9731 119.461C62.9131 116.154 71.6498 111.501 79.1832 105.501Z" fill="#FDC309"/>
<path id="Vector_56" d="M-14.6268 124.251C-7.82685 130.311 0.203156 135.401 9.23315 137.481C27.1265 141.587 44.7531 140.184 62.1131 133.271C67.0131 131.504 71.8065 129.234 76.4931 126.461C76.7198 127.181 76.3231 127.731 75.3031 128.111C73.1898 128.897 71.4632 129.681 70.1232 130.461C69.8086 130.638 69.5462 130.897 69.3631 131.211C68.9565 131.884 68.9432 132.504 69.3232 133.071C69.6298 133.531 69.5098 133.794 68.9632 133.861L67.6631 134.011C67.3232 134.044 67.2332 134.214 67.3932 134.521L67.8031 135.311C67.9498 135.597 68.0231 135.901 68.0231 136.221C68.0165 138.227 68.7232 139.944 70.1432 141.371C70.3697 141.597 70.511 141.894 70.5432 142.211L71.1931 149.021C71.2159 149.227 71.3152 149.418 71.4712 149.553C71.6271 149.689 71.828 149.759 72.0332 149.751L76.0531 149.581C49.1531 161.601 10.8232 162.071 -8.85685 136.061C-10.8635 133.414 -13.2102 129.864 -15.8969 125.411C-15.6969 125.031 -15.2735 124.644 -14.6268 124.251Z" fill="#FC960D"/>
</g>
</svg>
