<svg width="137" height="160" viewBox="0 0 137 160" fill="none" xmlns="http://www.w3.org/2000/svg">
<g id="vector">
<path id="Vector" d="M7.90688 47.3307C14.9669 35.6707 21.5869 21.9807 31.4569 14.1507C48.4569 0.660677 73.4769 -1.48932 93.4169 3.37068C125.587 11.2107 155.597 35.9807 165.987 68.0107C171.34 84.5107 169.56 100.301 160.647 115.381C158.1 119.701 154.044 126.001 148.477 134.281C141.327 144.931 129.207 154.371 116.227 156.531C114.197 156.871 112.277 157.901 110.377 158.101C101.217 159.051 94.8769 158.731 87.6969 158.411C80.8869 158.111 74.4869 155.821 67.4669 153.501C33.4769 142.291 4.05688 112.671 1.08688 75.5707C0.666884 70.3207 2.09688 65.1307 2.89688 59.8807C3.48355 56.074 5.15354 51.8907 7.90688 47.3307Z" stroke="#1D1440" stroke-width="2"/>
<path id="Vector_2" d="M152.897 125.411C150.21 129.864 147.864 133.414 145.857 136.061C126.177 162.071 87.8469 161.601 60.9469 149.581" stroke="#8F5014" stroke-width="2"/>
<path id="Vector_3" d="M60.9468 149.581C28.7868 136.361 0.806774 104.611 2.64677 67.8207C3.22677 56.2307 9.74677 45.0407 16.7368 35.5807" stroke="#914B11" stroke-width="2"/>
<path id="Vector_4" d="M16.7368 35.5807C25.1568 18.534 38.1968 8.01403 55.8568 4.0207C94.8668 -4.7993 136.487 18.0507 156.657 50.8407C166.527 66.8907 171.007 86.5207 164.647 104.511C162.177 111.471 157.147 118.711 152.897 125.411" stroke="#917812" stroke-width="2"/>
<path id="Vector_5" d="M16.7368 35.5807C16.4501 36.5607 16.4168 37.2474 16.6368 37.6407" stroke="#FFBA07" stroke-width="2"/>
<path id="Vector_6" d="M16.6368 37.6406C17.8635 36.1006 19.5968 33.4873 21.8368 29.8006C25.3502 24.014 29.8235 19.0106 35.2568 14.7906C35.349 14.7181 35.4606 14.6746 35.5776 14.6658C35.6945 14.6571 35.8114 14.6833 35.9133 14.7413C36.0153 14.7992 36.0977 14.8862 36.1499 14.9912C36.2022 15.0962 36.222 15.2143 36.2068 15.3306C36.0735 16.404 35.5668 17.274 34.6868 17.9406C34.618 17.9931 34.5667 18.065 34.5394 18.1471C34.5122 18.2291 34.5103 18.3175 34.5341 18.4007C34.5579 18.4838 34.6061 18.5579 34.6726 18.6132C34.7391 18.6685 34.8207 18.7024 34.9068 18.7106C37.3201 18.9573 39.5568 19.754 41.6168 21.1006C41.8768 21.274 42.0768 21.5006 42.2168 21.7806C43.0868 23.5506 46.0668 24.9806 47.2768 22.8206C47.4368 22.5339 47.6535 22.3073 47.9268 22.1406C50.8802 20.3539 53.9035 20.3606 56.9968 22.1606" stroke="#FFDF08" stroke-width="2"/>
<path id="Vector_7" d="M56.9968 22.1607C87.0068 10.9307 120.937 27.0707 138.617 51.9107C147.447 64.3107 151.677 79.5607 147.737 94.3207" stroke="#EEAB0E" stroke-width="2"/>
<path id="Vector_8" d="M84.0269 119.461C83.9135 119.567 83.7935 119.627 83.6669 119.641C83.4735 119.667 83.3235 119.764 83.2168 119.931L74.8869 133.271" stroke="#FECD08" stroke-width="2"/>
<path id="Vector_9" d="M74.8868 133.271C92.2468 140.184 109.873 141.587 127.767 137.481C136.797 135.401 144.827 130.311 151.627 124.251" stroke="#FEB60A" stroke-width="2"/>
<path id="Vector_10" d="M39.5768 35.8106C45.3834 30.9506 50.0568 27.944 53.5968 26.7906C56.1968 25.9406 58.9068 24.7006 61.4568 24.2206C74.4568 21.774 87.1168 23.0573 99.4368 28.0706" stroke="#EE7D0D" stroke-width="2"/>
<path id="Vector_11" d="M99.4368 28.0707C124.557 38.2007 148.007 62.9507 145.837 91.4207C145.537 95.4074 144.14 100.417 141.647 106.451" stroke="#ED8210" stroke-width="2"/>
<path id="Vector_12" d="M16.6368 37.6406C10.9168 51.5506 13.7168 70.1906 19.8768 83.1506C26.3835 96.8506 35.9601 108.587 48.6068 118.361" stroke="#FFB107" stroke-width="2"/>
<path id="Vector_13" d="M48.6068 118.361L57.8168 105.501" stroke="#FECD08" stroke-width="2"/>
<path id="Vector_14" d="M57.8168 105.501C41.5868 92.2607 30.2768 72.8707 32.9268 51.3707C33.6401 45.624 35.8568 40.4373 39.5768 35.8107" stroke="#FFB107" stroke-width="2"/>
<path id="Vector_15" d="M39.5768 35.8106C43.7635 29.5506 49.5702 25.0006 56.9968 22.1606" stroke="#EEA20D" stroke-width="2"/>
<path id="Vector_16" d="M60.9468 149.581L64.9668 149.751C65.172 149.759 65.3728 149.689 65.5288 149.553C65.6847 149.418 65.7841 149.227 65.8068 149.021L66.4568 142.211C66.489 141.894 66.6303 141.597 66.8568 141.371C68.2768 139.944 68.9835 138.227 68.9768 136.221C68.9768 135.901 69.0501 135.597 69.1968 135.311L69.6068 134.521C69.7668 134.214 69.6768 134.044 69.3368 134.011L68.0368 133.861C67.4901 133.794 67.3701 133.531 67.6768 133.071C68.0568 132.504 68.0435 131.884 67.6368 131.211C67.4537 130.897 67.1914 130.638 66.8768 130.461C65.5368 129.681 63.8101 128.897 61.6968 128.111C60.6768 127.731 60.2801 127.181 60.5068 126.461" stroke="#FE910A" stroke-width="2"/>
<path id="Vector_17" d="M60.5068 126.461L48.6068 118.361" stroke="#FEA808" stroke-width="2"/>
<path id="Vector_18" d="M57.8168 105.501C65.3502 111.501 74.0869 116.154 84.0269 119.461" stroke="#FEA808" stroke-width="2"/>
<path id="Vector_19" d="M84.0268 119.461C83.8068 119.647 83.9568 119.681 84.4768 119.561" stroke="#FFB107" stroke-width="2"/>
<path id="Vector_20" d="M84.4768 119.561C84.5501 118.601 84.4001 117.981 84.0268 117.701C83.8211 117.549 83.6776 117.329 83.6226 117.08C83.5677 116.831 83.6049 116.571 83.7275 116.346C83.8501 116.122 84.0499 115.948 84.2903 115.857C84.5308 115.766 84.7957 115.764 85.0368 115.851C85.9568 116.191 86.5201 115.957 86.7268 115.151C87.9601 110.257 88.6201 105.354 88.7068 100.441" stroke="#FE910A" stroke-width="2"/>
<path id="Vector_21" d="M88.7068 100.441C80.6568 102.341 69.4668 107.831 65.1168 96.7507C61.8701 88.4707 58.6268 80.184 55.3868 71.8907C53.9168 68.1107 54.1668 64.9407 57.6168 62.7307" stroke="#EE7D0D" stroke-width="2"/>
<path id="Vector_22" d="M57.6168 62.7307C59.6868 58.3407 68.4168 63.9407 72.7468 66.3007" stroke="#FFBA07" stroke-width="2"/>
<path id="Vector_23" d="M72.7468 66.3007C72.8368 62.5507 72.3768 55.8407 74.2268 52.7207C74.8601 51.6541 75.5601 50.6174 76.3268 49.6107" stroke="#EE7D0D" stroke-width="2"/>
<path id="Vector_24" d="M76.3268 49.6106C77.3401 47.644 79.3535 47.1373 82.3668 48.0907" stroke="#FFBA07" stroke-width="2"/>
<path id="Vector_25" d="M82.3668 48.0907L84.3768 48.6207C84.4477 48.64 84.5219 48.6445 84.5947 48.6341C84.6675 48.6237 84.7375 48.5986 84.8002 48.5602C84.8629 48.5218 84.9172 48.471 84.9596 48.4109C85.002 48.3508 85.0316 48.2827 85.0468 48.2107C86.9668 39.2407 89.6568 30.6907 99.4368 28.0707" stroke="#FE910A" stroke-width="2"/>
<path id="Vector_26" d="M60.5068 126.461C65.1935 129.234 69.9868 131.504 74.8868 133.271" stroke="#FDAD0B" stroke-width="2"/>
<path id="Vector_27" d="M82.3668 48.0907L91.7568 55.0707" stroke="#FEBF0B" stroke-width="2"/>
<path id="Vector_28" d="M91.7569 55.0707L99.1569 60.3907" stroke="#FEB60A" stroke-width="2"/>
<path id="Vector_29" d="M99.1569 60.3907L102.927 53.7007" stroke="#ED8210" stroke-width="2"/>
<path id="Vector_30" d="M102.927 53.7007C107.507 41.8107 118.707 63.1107 120.597 66.0607" stroke="#FEB60A" stroke-width="2"/>
<path id="Vector_31" d="M120.597 66.0607C122.997 69.5907 130.797 79.5407 130.927 83.1407C130.993 84.8873 130.203 86.3707 128.557 87.5907" stroke="#FEBF0B" stroke-width="2"/>
<path id="Vector_32" d="M128.557 87.5907C128.417 88.724 127.743 89.7707 126.537 90.7307C123.997 92.7507 116.427 94.2307 113.117 94.9407C104.717 96.734 96.5801 98.5674 88.7068 100.441" stroke="#ED8210" stroke-width="2"/>
<path id="Vector_33" d="M84.4769 119.561C93.9635 122.694 103.697 123.544 113.677 122.111C125.537 120.417 134.86 115.197 141.647 106.451" stroke="#FEB60A" stroke-width="2"/>
<path id="Vector_34" d="M76.3268 49.6107L75.1368 66.7907C75.1101 67.1707 74.9035 67.3507 74.5168 67.3307C73.9568 67.2974 73.3668 66.954 72.7468 66.3007" stroke="#EEAB0E" stroke-width="2"/>
<path id="Vector_35" d="M57.6169 62.7307C57.7069 63.6307 57.5969 64.4007 57.8869 65.2207C60.5935 72.9341 63.7269 81.134 67.2869 89.8207" stroke="#EEAB0E" stroke-width="2"/>
<path id="Vector_36" d="M67.2868 89.8207L91.7568 55.0707" stroke="#FFDF08" stroke-width="2"/>
<path id="Vector_37" d="M128.557 87.5907L103.817 93.4307" stroke="#EEAB0E" stroke-width="2"/>
<path id="Vector_38" d="M102.927 53.7007L100.437 61.1107C100.31 61.484 100.087 61.554 99.7669 61.3207C99.3269 60.9873 99.1235 60.6774 99.1569 60.3907" stroke="#EEA20D" stroke-width="2"/>
<path id="Vector_39" d="M67.2868 89.8207C67.6801 91.594 68.4501 93.3874 69.5968 95.2007C72.2868 99.4707 76.3968 99.8207 81.2968 98.7207C88.7768 97.0474 96.2834 95.284 103.817 93.4307" stroke="#EEA20D" stroke-width="2"/>
<path id="Vector_40" d="M103.817 93.4307C102.737 92.2307 102.653 91.1207 103.567 90.1007C106.497 86.8207 109.047 82.7807 111.737 79.2407C114.647 75.4007 117.027 70.1807 120.597 66.0607" stroke="#FFDF08" stroke-width="2"/>
<path id="Vector_41" d="M7.90688 47.3307C5.15355 51.8907 3.48355 56.074 2.89688 59.8807C2.09688 65.1307 0.666885 70.3207 1.08688 75.5707C4.05688 112.671 33.4769 142.291 67.4669 153.501C74.4869 155.821 80.8869 158.111 87.6969 158.411C94.8769 158.731 101.217 159.051 110.377 158.101C112.277 157.901 114.197 156.871 116.227 156.531C129.207 154.371 141.327 144.931 148.477 134.281C154.044 126.001 158.1 119.701 160.647 115.381C169.56 100.301 171.34 84.5107 165.987 68.0107C155.597 35.9807 125.587 11.2107 93.4169 3.37068C73.4769 -1.48932 48.4569 0.660677 31.4569 14.1507C21.5869 21.9807 14.9669 35.6707 7.90688 47.3307ZM152.897 125.411C150.21 129.864 147.864 133.414 145.857 136.061C126.177 162.071 87.8469 161.601 60.9469 149.581C28.7869 136.361 0.806885 104.611 2.64688 67.8207C3.22688 56.2307 9.74687 45.0407 16.7369 35.5807C25.1569 18.534 38.1969 8.01401 55.8569 4.02068C94.8669 -4.79932 136.487 18.0507 156.657 50.8407C166.527 66.8907 171.007 86.5207 164.647 104.511C162.177 111.471 157.147 118.711 152.897 125.411Z" fill="#22091B"/>
<path id="Vector_42" d="M16.7369 35.5807C16.4502 36.5607 16.4169 37.2474 16.6369 37.6407C17.8636 36.1007 19.5969 33.4874 21.8369 29.8007C25.3503 24.014 29.8236 19.0107 35.2569 14.7907C35.349 14.7182 35.4607 14.6747 35.5777 14.6659C35.6946 14.6571 35.8115 14.6834 35.9134 14.7413C36.0154 14.7993 36.0977 14.8863 36.15 14.9913C36.2023 15.0963 36.2221 15.2144 36.2069 15.3307C36.0736 16.404 35.5669 17.274 34.6869 17.9407C34.6181 17.9931 34.5668 18.0651 34.5395 18.1472C34.5123 18.2292 34.5104 18.3176 34.5342 18.4008C34.558 18.4839 34.6062 18.558 34.6727 18.6133C34.7392 18.6685 34.8208 18.7025 34.9069 18.7107C37.3202 18.9574 39.5569 19.754 41.6169 21.1007C41.8769 21.274 42.0769 21.5007 42.2169 21.7807C43.0869 23.5507 46.0669 24.9807 47.2769 22.8207C47.4369 22.534 47.6536 22.3074 47.9269 22.1407C50.8802 20.354 53.9036 20.3607 56.9969 22.1607C87.0069 10.9307 120.937 27.0707 138.617 51.9107C147.447 64.3107 151.677 79.5607 147.737 94.3207C148.217 95.414 148.24 96.474 147.807 97.5007C147.7 97.754 147.71 98.0007 147.837 98.2407L149.637 101.681C149.668 101.741 149.715 101.793 149.772 101.831C149.829 101.869 149.895 101.891 149.963 101.896C150.031 101.901 150.099 101.888 150.161 101.859C150.223 101.831 150.277 101.786 150.317 101.731L163.047 84.6007C163.267 84.3007 163.56 84.1474 163.927 84.1407L165.677 84.0907C165.824 84.0907 165.907 84.1607 165.927 84.3007C166.46 88.414 166.504 91.0474 166.057 92.2007C163.897 97.7107 163.997 104.351 160.997 109.481C158.097 114.454 154.974 119.377 151.627 124.251C152.274 124.644 152.697 125.031 152.897 125.411C157.147 118.711 162.177 111.471 164.647 104.511C171.007 86.5207 166.527 66.8907 156.657 50.8407C136.487 18.0507 94.8669 -4.7993 55.8569 4.0207C38.1969 8.01403 25.1569 18.534 16.7369 35.5807Z" fill="#FFE708"/>
<path id="Vector_43" d="M16.6369 37.6407C10.9169 51.5507 13.7169 70.1907 19.8769 83.1507C26.3836 96.8507 35.9602 108.587 48.6069 118.361L57.8169 105.501C41.5869 92.2607 30.2769 72.8707 32.9269 51.3707C33.6402 45.6241 35.8569 40.4374 39.5769 35.8107C43.7636 29.5507 49.5702 25.0007 56.9969 22.1607C53.9036 20.3607 50.8802 20.3541 47.9269 22.1407C47.6536 22.3074 47.4369 22.5341 47.2769 22.8207C46.0669 24.9807 43.0869 23.5507 42.2169 21.7807C42.0769 21.5007 41.8769 21.2741 41.6169 21.1007C39.5569 19.7541 37.3202 18.9574 34.9069 18.7107C34.8208 18.7025 34.7392 18.6686 34.6727 18.6133C34.6062 18.558 34.5579 18.484 34.5342 18.4008C34.5104 18.3177 34.5123 18.2293 34.5395 18.1472C34.5668 18.0651 34.6181 17.9932 34.6869 17.9407C35.5669 17.2741 36.0736 16.4041 36.2069 15.3307C36.2221 15.2145 36.2023 15.0963 36.15 14.9913C36.0977 14.8863 36.0154 14.7993 35.9134 14.7414C35.8115 14.6834 35.6946 14.6572 35.5776 14.666C35.4607 14.6748 35.349 14.7182 35.2569 14.7907C29.8236 19.0107 25.3502 24.0141 21.8369 29.8007C19.5969 33.4874 17.8636 36.1007 16.6369 37.6407Z" fill="#FFD607"/>
<path id="Vector_44" d="M56.9969 22.1608C49.5702 25.0008 43.7636 29.5508 39.5769 35.8108C45.3836 30.9508 50.0569 27.9441 53.5969 26.7908C56.1969 25.9408 58.9069 24.7008 61.4569 24.2208C74.4569 21.7741 87.1169 23.0575 99.4369 28.0708C124.557 38.2008 148.007 62.9508 145.837 91.4208C145.537 95.4075 144.14 100.417 141.647 106.451C144.587 102.617 146.617 98.5741 147.737 94.3208C151.677 79.5608 147.447 64.3108 138.617 51.9108C120.937 27.0708 87.0069 10.9308 56.9969 22.1608Z" fill="#DD6E13"/>
<path id="Vector_45" d="M39.5769 35.8107C35.8569 40.4374 33.6402 45.6241 32.9269 51.3707C30.2769 72.8707 41.5869 92.2608 57.8169 105.501C65.3502 111.501 74.0869 116.154 84.0269 119.461C83.8069 119.647 83.9569 119.681 84.4769 119.561C84.5502 118.601 84.4002 117.981 84.0269 117.701C83.8212 117.549 83.6777 117.329 83.6227 117.08C83.5678 116.831 83.605 116.571 83.7276 116.346C83.8502 116.122 84.05 115.948 84.2905 115.857C84.5309 115.766 84.7958 115.764 85.0369 115.851C85.9569 116.191 86.5202 115.957 86.7269 115.151C87.9602 110.257 88.6202 105.354 88.7069 100.441C80.6569 102.341 69.4669 107.831 65.1169 96.7508C61.8702 88.4708 58.6269 80.1841 55.3869 71.8908C53.9169 68.1108 54.1669 64.9407 57.6169 62.7307C59.6869 58.3407 68.4169 63.9407 72.7469 66.3007C72.8369 62.5507 72.3769 55.8408 74.2269 52.7208C74.8602 51.6541 75.5602 50.6174 76.3269 49.6107C77.3402 47.6441 79.3536 47.1374 82.3669 48.0907L84.3769 48.6207C84.4479 48.64 84.522 48.6446 84.5948 48.6342C84.6677 48.6238 84.7376 48.5986 84.8003 48.5602C84.863 48.5218 84.9173 48.471 84.9597 48.4109C85.0021 48.3508 85.0318 48.2827 85.0469 48.2107C86.9669 39.2407 89.6569 30.6907 99.4369 28.0707C87.1169 23.0574 74.4569 21.7741 61.4569 24.2207C58.9069 24.7007 56.1969 25.9407 53.5969 26.7907C50.0569 27.9441 45.3836 30.9507 39.5769 35.8107Z" fill="#FF8C06"/>
<path id="Vector_46" d="M99.4368 28.0707C89.6568 30.6907 86.9668 39.2407 85.0468 48.2107C85.0317 48.2827 85.002 48.3508 84.9596 48.4109C84.9172 48.471 84.863 48.5218 84.8002 48.5602C84.7375 48.5986 84.6676 48.6237 84.5948 48.6341C84.522 48.6445 84.4478 48.64 84.3768 48.6207L82.3668 48.0907L91.7568 55.0707L99.1568 60.3907L102.927 53.7007C107.507 41.8107 118.707 63.1107 120.597 66.0607C122.997 69.5907 130.797 79.5407 130.927 83.1407C130.994 84.8874 130.203 86.3707 128.557 87.5907C128.417 88.724 127.744 89.7707 126.537 90.7307C123.997 92.7507 116.427 94.2307 113.117 94.9407C104.717 96.734 96.5802 98.5674 88.7068 100.441C88.6202 105.354 87.9602 110.257 86.7268 115.151C86.5202 115.957 85.9568 116.191 85.0368 115.851C84.7958 115.764 84.5308 115.766 84.2904 115.857C84.05 115.948 83.8502 116.122 83.7276 116.346C83.6049 116.571 83.5677 116.831 83.6227 117.08C83.6776 117.329 83.8211 117.549 84.0268 117.701C84.4002 117.981 84.5502 118.601 84.4768 119.561C93.9635 122.694 103.697 123.544 113.677 122.111C125.537 120.417 134.86 115.197 141.647 106.451C144.14 100.417 145.537 95.4073 145.837 91.4207C148.007 62.9507 124.557 38.2007 99.4368 28.0707Z" fill="#FC960D"/>
<path id="Vector_47" d="M16.7369 35.5807C9.74692 45.0407 3.22692 56.2307 2.64692 67.8207C0.806923 104.611 28.7869 136.361 60.9469 149.581L64.9669 149.751C65.1721 149.759 65.373 149.689 65.5289 149.553C65.6848 149.418 65.7842 149.227 65.8069 149.021L66.4569 142.211C66.4891 141.894 66.6304 141.597 66.8569 141.371C68.2769 139.944 68.9836 138.227 68.9769 136.221C68.9769 135.901 69.0503 135.597 69.1969 135.311L69.6069 134.521C69.7669 134.214 69.6769 134.044 69.3369 134.011L68.0369 133.861C67.4903 133.794 67.3703 133.531 67.6769 133.071C68.0569 132.504 68.0436 131.884 67.6369 131.211C67.4539 130.897 67.1915 130.638 66.8769 130.461C65.5369 129.681 63.8103 128.897 61.6969 128.111C60.6769 127.731 60.2803 127.181 60.5069 126.461L48.6069 118.361C35.9602 108.587 26.3836 96.8507 19.8769 83.1507C13.7169 70.1907 10.9169 51.5507 16.6369 37.6407C16.4169 37.2474 16.4503 36.5607 16.7369 35.5807Z" fill="#FF8C06"/>
<path id="Vector_48" d="M76.3268 49.6108L75.1368 66.7908C75.1102 67.1708 74.9035 67.3508 74.5168 67.3308C73.9568 67.2974 73.3668 66.9541 72.7468 66.3008C68.4168 63.9408 59.6868 58.3408 57.6168 62.7308C57.7068 63.6308 57.5968 64.4008 57.8868 65.2208C60.5935 72.9341 63.7268 81.1341 67.2868 89.8208L91.7568 55.0708L82.3668 48.0908C79.3535 47.1374 77.3402 47.6441 76.3268 49.6108Z" fill="#FFE708"/>
<path id="Vector_49" d="M76.3269 49.6107C75.5602 50.6174 74.8602 51.6541 74.2269 52.7207C72.3769 55.8407 72.8369 62.5507 72.7469 66.3007C73.3669 66.954 73.9569 67.2974 74.5169 67.3307C74.9036 67.3507 75.1103 67.1707 75.1369 66.7907L76.3269 49.6107Z" fill="#DD6E13"/>
<path id="Vector_50" d="M102.927 53.7007L100.437 61.1107C100.31 61.4841 100.087 61.554 99.7669 61.3207C99.3269 60.9874 99.1236 60.6774 99.1569 60.3907L91.7569 55.0707L67.2869 89.8207C67.6803 91.5941 68.4503 93.3874 69.5969 95.2007C72.2869 99.4707 76.3969 99.8207 81.2969 98.7207C88.7769 97.0474 96.2836 95.284 103.817 93.4307C102.737 92.2307 102.654 91.1207 103.567 90.1007C106.497 86.8207 109.047 82.7807 111.737 79.2407C114.647 75.4007 117.027 70.1807 120.597 66.0607C118.707 63.1107 107.507 41.8107 102.927 53.7007Z" fill="#FFD607"/>
<path id="Vector_51" d="M99.1569 60.3907C99.1235 60.6774 99.3269 60.9873 99.7669 61.3207C100.087 61.554 100.31 61.484 100.437 61.1107L102.927 53.7007L99.1569 60.3907Z" fill="#DD6E13"/>
<path id="Vector_52" d="M57.6169 62.7307C54.1669 64.9407 53.9169 68.1107 55.3869 71.8907C58.6269 80.184 61.8702 88.4707 65.1169 96.7507C69.4669 107.831 80.6569 102.341 88.7069 100.441C96.5802 98.5674 104.717 96.7341 113.117 94.9407C116.427 94.2307 123.997 92.7507 126.537 90.7307C127.744 89.7707 128.417 88.724 128.557 87.5907L103.817 93.4307C96.2836 95.284 88.7769 97.0474 81.2969 98.7207C76.3969 99.8207 72.2869 99.4707 69.5969 95.2007C68.4502 93.3874 67.6802 91.594 67.2869 89.8207C63.7269 81.134 60.5936 72.9341 57.8869 65.2207C57.5969 64.4007 57.7069 63.6307 57.6169 62.7307Z" fill="#DD6E13"/>
<path id="Vector_53" d="M120.597 66.0607C117.027 70.1807 114.647 75.4007 111.737 79.2407C109.047 82.7807 106.497 86.8207 103.567 90.1007C102.654 91.1207 102.737 92.2307 103.817 93.4307L128.557 87.5907C130.204 86.3707 130.994 84.8873 130.927 83.1407C130.797 79.5407 122.997 69.5907 120.597 66.0607Z" fill="#FFE708"/>
<path id="Vector_54" d="M147.737 94.3207C146.617 98.574 144.587 102.617 141.647 106.451C134.86 115.197 125.537 120.417 113.677 122.111C103.697 123.544 93.9636 122.694 84.4769 119.561C83.9569 119.681 83.8069 119.647 84.0269 119.461C83.9136 119.567 83.7936 119.627 83.6669 119.641C83.4736 119.667 83.3236 119.764 83.2169 119.931L74.8869 133.271C92.2469 140.184 109.874 141.587 127.767 137.481C136.797 135.401 144.827 130.311 151.627 124.251C154.974 119.377 158.097 114.454 160.997 109.481C163.997 104.351 163.897 97.7107 166.057 92.2007C166.504 91.0474 166.46 88.414 165.927 84.3007C165.907 84.1607 165.824 84.0907 165.677 84.0907L163.927 84.1407C163.56 84.1474 163.267 84.3007 163.047 84.6007L150.317 101.731C150.277 101.786 150.223 101.831 150.161 101.859C150.1 101.888 150.031 101.901 149.963 101.896C149.895 101.891 149.829 101.869 149.772 101.831C149.715 101.793 149.668 101.741 149.637 101.681L147.837 98.2407C147.71 98.0007 147.7 97.754 147.807 97.5007C148.24 96.474 148.217 95.414 147.737 94.3207Z" fill="#FFD607"/>
<path id="Vector_55" d="M57.8168 105.501L48.6068 118.361L60.5069 126.461C65.1935 129.234 69.9869 131.504 74.8869 133.271L83.2168 119.931C83.3235 119.764 83.4735 119.667 83.6669 119.641C83.7935 119.627 83.9135 119.567 84.0269 119.461C74.0869 116.154 65.3502 111.501 57.8168 105.501Z" fill="#FDC309"/>
<path id="Vector_56" d="M151.627 124.251C144.827 130.311 136.797 135.401 127.767 137.481C109.874 141.587 92.2469 140.184 74.8869 133.271C69.9869 131.504 65.1935 129.234 60.5069 126.461C60.2802 127.181 60.6769 127.731 61.6969 128.111C63.8102 128.897 65.5368 129.681 66.8768 130.461C67.1914 130.638 67.4538 130.897 67.6369 131.211C68.0435 131.884 68.0568 132.504 67.6768 133.071C67.3702 133.531 67.4902 133.794 68.0368 133.861L69.3369 134.011C69.6768 134.044 69.7668 134.214 69.6068 134.521L69.1969 135.311C69.0502 135.597 68.9769 135.901 68.9769 136.221C68.9835 138.227 68.2768 139.944 66.8568 141.371C66.6303 141.597 66.489 141.894 66.4568 142.211L65.8069 149.021C65.7841 149.227 65.6848 149.418 65.5288 149.553C65.3729 149.689 65.172 149.759 64.9668 149.751L60.9469 149.581C87.8469 161.601 126.177 162.071 145.857 136.061C147.864 133.414 150.21 129.864 152.897 125.411C152.697 125.031 152.274 124.644 151.627 124.251Z" fill="#FC960D"/>
</g>
</svg>
