<svg width="18" height="19" viewBox="0 0 18 19" fill="none" xmlns="http://www.w3.org/2000/svg">
<g id="svg2079324386" clip-path="url(#clip0_1_240)">
<path id="Vector" d="M13 0.52002H5C2.239 0.52002 0 2.75902 0 5.52002V13.52C0 16.281 2.239 18.52 5 18.52H13C15.761 18.52 18 16.281 18 13.52V5.52002C18 2.75902 15.761 0.52002 13 0.52002ZM16.25 13.52C16.244 15.313 14.793 16.764 13 16.77H5C3.207 16.764 1.755 15.313 1.75 13.52V5.52002C1.755 3.72702 3.207 2.27502 5 2.27002H13C14.793 2.27502 16.244 3.72702 16.25 5.52002V13.52ZM13.75 5.77002C14.302 5.77002 14.75 5.32202 14.75 4.77002C14.75 4.21802 14.302 3.77002 13.75 3.77002C13.198 3.77002 12.75 4.21802 12.75 4.77002C12.75 5.32202 13.198 5.77002 13.75 5.77002ZM9 5.02002C6.515 5.02002 4.5 7.03502 4.5 9.52002C4.5 12.005 6.515 14.02 9 14.02C11.485 14.02 13.5 12.005 13.5 9.52002C13.503 8.32602 13.029 7.18002 12.185 6.33502C11.34 5.49102 10.194 5.01702 9 5.02002ZM6.25 9.52002C6.25 11.039 7.481 12.27 9 12.27C10.519 12.27 11.75 11.039 11.75 9.52002C11.75 8.00102 10.519 6.77002 9 6.77002C7.481 6.77002 6.25 8.00102 6.25 9.52002Z" fill="#FAF9FB"/>
</g>
<defs>
<clipPath id="clip0_1_240">
<rect width="18" height="18" fill="white" transform="translate(0 0.52002)"/>
</clipPath>
</defs>
</svg>
