<svg width="65" height="66" viewBox="0 0 65 66" fill="none" xmlns="http://www.w3.org/2000/svg">
<g id="svg1691964797" clip-path="url(#clip0_1_68)">
<path id="Vector" d="M0.667007 32.09C0.667007 14.417 14.993 0.0899658 32.667 0.0899658C50.34 0.0899658 64.667 14.417 64.667 32.09C64.667 49.763 50.34 64.09 32.667 64.09C14.993 64.09 0.667007 49.763 0.667007 32.09Z" fill="#F5EFF9"/>
<g id="ss1691964797_2">
<path id="Vector_2" d="M30.344 42.632V36.337L24.979 39.485L23.156 36.284L28.521 33.11L23.156 29.963L24.979 26.763L30.344 29.91V23.589H33.989V29.91L39.354 26.763L41.177 29.963L35.812 33.11L41.177 36.284L39.354 39.485L33.989 36.337V42.632H30.344Z" fill="#8039DA"/>
</g>
</g>
<defs>
<clipPath id="clip0_1_68">
<rect width="65" height="65" fill="white" transform="translate(0 0.0899658)"/>
</clipPath>
</defs>
</svg>
