<svg width="262" height="591" viewBox="0 0 262 591" fill="none" xmlns="http://www.w3.org/2000/svg">
<g opacity="0.9">
<path d="M128.934 468.958C50.7994 396.821 52.9044 259.746 133.899 162.781C214.672 65.9111 343.731 45.9194 421.865 118.057C500 190.194 497.833 327.425 416.9 424.234C335.966 521.043 207.007 541.251 128.934 468.958Z" fill="url(#paint0_linear_1_1283)"/>
<path d="M131.414 465.953C54.6466 395.037 56.7457 260.288 136.28 165.111C215.814 69.9344 342.556 50.1608 419.323 121.077C496.252 192.054 493.991 326.742 414.557 422.136C334.861 517.252 208.12 537.026 131.414 465.953Z" fill="url(#paint1_linear_1_1283)"/>
<path d="M320.115 116.125C320.276 116.186 320.437 116.247 320.821 116.212C347.986 119.625 373.71 130.926 394.762 150.335C458.378 209.272 456.567 321.07 390.705 399.958C342.944 457.318 274.516 481.601 216.105 468.217C213.403 467.558 210.7 466.899 207.898 466.023C188.805 460.447 171.211 450.593 155.885 436.39C92.2076 377.609 94.0797 265.655 159.942 186.767C203.776 134.207 265.179 109.431 320.115 116.125Z" fill="url(#paint2_linear_1_1283)"/>
<path d="M313.262 115.752C340.693 119.081 366.622 130.461 387.975 150.169C451.709 209.171 449.938 321.049 384.004 399.97C343.361 448.566 288.165 473.374 236.594 471.544C289.871 475.632 348.406 450.825 390.618 400.127C456.613 321.05 458.384 209.172 394.588 150.326C373.236 130.618 347.406 119.455 319.876 115.909C315.246 115.422 310.555 115.091 305.803 114.917C308.248 115.3 310.755 115.526 313.262 115.752Z" fill="url(#paint3_linear_1_1283)"/>
<path d="M159.949 186.772C93.9852 265.85 92.1853 377.705 155.916 436.522C180.764 459.52 212.026 470.933 244.845 471.805C214.54 469.726 185.906 458.225 162.624 436.895C98.8934 378.077 100.693 266.222 166.657 187.145C206.936 138.957 261.711 114.176 312.718 115.436C259.745 111.64 201.957 136.544 159.949 186.772Z" fill="url(#paint4_linear_1_1283)"/>
<path d="M389.862 95.2041L427.503 115.838C438.767 122.053 449.477 129.674 459.249 138.737C537.389 210.863 535.261 348.034 454.37 444.779C428.81 475.344 398.665 498.261 366.747 512.974L329.106 492.341C361.024 477.627 391.33 454.771 416.729 424.146C497.459 327.339 499.748 190.23 421.608 118.103C411.836 109.041 401.126 101.419 389.862 95.2041Z" fill="url(#paint5_linear_1_1283)"/>
<path d="M329.176 492.508L366.827 513.12C314.54 537.213 257.658 539.562 209.83 517.977L172.179 497.365C220.008 518.95 276.889 516.602 329.176 492.508Z" fill="url(#paint6_linear_1_1283)"/>
<path d="M261.576 512.127C262.176 512.014 262.879 512.109 263.479 511.996L301.232 532.315C300.631 532.428 299.87 532.48 299.328 532.445L261.576 512.127Z" fill="url(#paint7_linear_1_1283)"/>
</g>
<defs>
<linearGradient id="paint0_linear_1_1283" x1="455.637" y1="376.383" x2="98.8572" y2="204.304" gradientUnits="userSpaceOnUse">
<stop stop-color="#DAD7C8"/>
<stop offset="0.5425" stop-color="#E3B16E"/>
<stop offset="1" stop-color="#EA9226"/>
</linearGradient>
<linearGradient id="paint1_linear_1_1283" x1="554.81" y1="295.344" x2="-58.4602" y2="295.136" gradientUnits="userSpaceOnUse">
<stop stop-color="#E7A547"/>
<stop offset="0.0312" stop-color="#E89739"/>
<stop offset="0.0986" stop-color="#EB8020"/>
<stop offset="0.1604" stop-color="#EC7111"/>
<stop offset="0.2107" stop-color="#ED6C0C"/>
<stop offset="0.3249" stop-color="#E98E31"/>
<stop offset="0.5566" stop-color="#E2D178"/>
<stop offset="0.6048" stop-color="#E3CC73"/>
<stop offset="0.6641" stop-color="#E4BF64"/>
<stop offset="0.7293" stop-color="#E7A84B"/>
<stop offset="0.7981" stop-color="#EA8928"/>
<stop offset="0.8437" stop-color="#ED710D"/>
<stop offset="0.8924" stop-color="#E7670A"/>
<stop offset="0.9746" stop-color="#D64D03"/>
<stop offset="1" stop-color="#D04300"/>
</linearGradient>
<linearGradient id="paint2_linear_1_1283" x1="639.016" y1="439.027" x2="75.1066" y2="202.888" gradientUnits="userSpaceOnUse">
<stop stop-color="#750900"/>
<stop offset="0.1041" stop-color="#8D1C00"/>
<stop offset="0.3232" stop-color="#CA4B00"/>
<stop offset="0.3356" stop-color="#CE4E00"/>
<stop offset="0.553" stop-color="#EA9226"/>
<stop offset="0.577" stop-color="#E99A2E"/>
<stop offset="0.652" stop-color="#E7AF41"/>
<stop offset="0.7363" stop-color="#E6BE4F"/>
<stop offset="0.8366" stop-color="#E5C657"/>
<stop offset="0.9946" stop-color="#E5C959"/>
</linearGradient>
<linearGradient id="paint3_linear_1_1283" x1="253.938" y1="561.137" x2="416.142" y2="59.3763" gradientUnits="userSpaceOnUse">
<stop stop-color="#AD3A00"/>
<stop offset="0.0209" stop-color="#B6520F"/>
<stop offset="0.0643" stop-color="#C77E2A"/>
<stop offset="0.1062" stop-color="#D4A13F"/>
<stop offset="0.1455" stop-color="#DDBA4F"/>
<stop offset="0.1814" stop-color="#E3C958"/>
<stop offset="0.2107" stop-color="#E5CE5B"/>
<stop offset="0.5566" stop-color="#E2D178"/>
<stop offset="0.6317" stop-color="#E3D073"/>
<stop offset="0.7241" stop-color="#E4CF64"/>
<stop offset="0.7634" stop-color="#E5CE5B"/>
<stop offset="0.8534" stop-color="#C8822C"/>
<stop offset="0.943" stop-color="#AD3A00"/>
<stop offset="0.9537" stop-color="#C04603"/>
<stop offset="0.9711" stop-color="#D95606"/>
<stop offset="0.987" stop-color="#E86008"/>
<stop offset="1" stop-color="#ED6309"/>
</linearGradient>
<linearGradient id="paint4_linear_1_1283" x1="24.8743" y1="232.619" x2="394.626" y2="327.209" gradientUnits="userSpaceOnUse">
<stop stop-color="#750900"/>
<stop offset="0.1041" stop-color="#8D1C00"/>
<stop offset="0.3232" stop-color="#CA4B00"/>
<stop offset="0.3356" stop-color="#CE4E00"/>
<stop offset="0.553" stop-color="#EA9226"/>
<stop offset="0.7854" stop-color="#E5C959"/>
<stop offset="0.8507" stop-color="#E5C656"/>
<stop offset="0.9038" stop-color="#E6BC4D"/>
<stop offset="0.9525" stop-color="#E8AB3D"/>
<stop offset="0.9984" stop-color="#EA9327"/>
<stop offset="1" stop-color="#EA9226"/>
</linearGradient>
<linearGradient id="paint5_linear_1_1283" x1="156.309" y1="508.022" x2="479.544" y2="203.343" gradientUnits="userSpaceOnUse">
<stop stop-color="#EA8A28"/>
<stop offset="0.000399974" stop-color="#E98928"/>
<stop offset="0.0274" stop-color="#C35F1A"/>
<stop offset="0.0536" stop-color="#A43D0E"/>
<stop offset="0.0785" stop-color="#8F2506"/>
<stop offset="0.1015" stop-color="#821702"/>
<stop offset="0.1209" stop-color="#7D1200"/>
<stop offset="0.1748" stop-color="#952603"/>
<stop offset="0.2882" stop-color="#D25A0A"/>
<stop offset="0.3342" stop-color="#ED710D"/>
<stop offset="0.3358" stop-color="#ED730F"/>
<stop offset="0.3739" stop-color="#E99434"/>
<stop offset="0.4119" stop-color="#E6AF52"/>
<stop offset="0.4492" stop-color="#E4C267"/>
<stop offset="0.4857" stop-color="#E2CD74"/>
<stop offset="0.5203" stop-color="#E2D178"/>
<stop offset="0.542" stop-color="#E3CB71"/>
<stop offset="0.5733" stop-color="#E5BA5E"/>
<stop offset="0.6105" stop-color="#E89D3E"/>
<stop offset="0.6519" stop-color="#EC7613"/>
<stop offset="0.6572" stop-color="#ED710D"/>
<stop offset="0.6769" stop-color="#E1670C"/>
<stop offset="0.7755" stop-color="#AB3905"/>
<stop offset="0.8493" stop-color="#8A1D01"/>
<stop offset="0.8895" stop-color="#7D1200"/>
<stop offset="0.9075" stop-color="#811702"/>
<stop offset="0.9284" stop-color="#8E2506"/>
<stop offset="0.9507" stop-color="#A33C0E"/>
<stop offset="0.974" stop-color="#C15C19"/>
<stop offset="0.9978" stop-color="#E68627"/>
<stop offset="1" stop-color="#EA8A28"/>
</linearGradient>
<linearGradient id="paint6_linear_1_1283" x1="206.658" y1="560.969" x2="528.38" y2="256.753" gradientUnits="userSpaceOnUse">
<stop stop-color="#EA8A28"/>
<stop offset="0.000399974" stop-color="#E98928"/>
<stop offset="0.0274" stop-color="#C35F1A"/>
<stop offset="0.0536" stop-color="#A43D0E"/>
<stop offset="0.0785" stop-color="#8F2506"/>
<stop offset="0.1015" stop-color="#821702"/>
<stop offset="0.1209" stop-color="#7D1200"/>
<stop offset="0.1748" stop-color="#952603"/>
<stop offset="0.2882" stop-color="#D25A0A"/>
<stop offset="0.3342" stop-color="#ED710D"/>
<stop offset="0.3358" stop-color="#ED730F"/>
<stop offset="0.3739" stop-color="#E99434"/>
<stop offset="0.4119" stop-color="#E6AF52"/>
<stop offset="0.4492" stop-color="#E4C267"/>
<stop offset="0.4857" stop-color="#E2CD74"/>
<stop offset="0.5203" stop-color="#E2D178"/>
<stop offset="0.542" stop-color="#E3CB71"/>
<stop offset="0.5733" stop-color="#E5BA5E"/>
<stop offset="0.6105" stop-color="#E89D3E"/>
<stop offset="0.6519" stop-color="#EC7613"/>
<stop offset="0.6572" stop-color="#ED710D"/>
<stop offset="0.6769" stop-color="#E1670C"/>
<stop offset="0.7755" stop-color="#AB3905"/>
<stop offset="0.8493" stop-color="#8A1D01"/>
<stop offset="0.8895" stop-color="#7D1200"/>
<stop offset="0.9075" stop-color="#811702"/>
<stop offset="0.9284" stop-color="#8E2506"/>
<stop offset="0.9507" stop-color="#A33C0E"/>
<stop offset="0.974" stop-color="#C15C19"/>
<stop offset="0.9978" stop-color="#E68627"/>
<stop offset="1" stop-color="#EA8A28"/>
</linearGradient>
<linearGradient id="paint7_linear_1_1283" x1="280.745" y1="518.088" x2="246.418" y2="99.782" gradientUnits="userSpaceOnUse">
<stop stop-color="#EA8A28"/>
<stop offset="0.000399974" stop-color="#E98928"/>
<stop offset="0.0274" stop-color="#C35F1A"/>
<stop offset="0.0536" stop-color="#A43D0E"/>
<stop offset="0.0785" stop-color="#8F2506"/>
<stop offset="0.1015" stop-color="#821702"/>
<stop offset="0.1209" stop-color="#7D1200"/>
<stop offset="0.1748" stop-color="#952603"/>
<stop offset="0.2882" stop-color="#D25A0A"/>
<stop offset="0.3342" stop-color="#ED710D"/>
<stop offset="0.3358" stop-color="#ED730F"/>
<stop offset="0.3739" stop-color="#E99434"/>
<stop offset="0.4119" stop-color="#E6AF52"/>
<stop offset="0.4492" stop-color="#E4C267"/>
<stop offset="0.4857" stop-color="#E2CD74"/>
<stop offset="0.5203" stop-color="#E2D178"/>
<stop offset="0.542" stop-color="#E3CB71"/>
<stop offset="0.5733" stop-color="#E5BA5E"/>
<stop offset="0.6105" stop-color="#E89D3E"/>
<stop offset="0.6519" stop-color="#EC7613"/>
<stop offset="0.6572" stop-color="#ED710D"/>
<stop offset="0.6769" stop-color="#E1670C"/>
<stop offset="0.7755" stop-color="#AB3905"/>
<stop offset="0.8493" stop-color="#8A1D01"/>
<stop offset="0.8895" stop-color="#7D1200"/>
<stop offset="0.9075" stop-color="#811702"/>
<stop offset="0.9284" stop-color="#8E2506"/>
<stop offset="0.9507" stop-color="#A33C0E"/>
<stop offset="0.974" stop-color="#C15C19"/>
<stop offset="0.9978" stop-color="#E68627"/>
<stop offset="1" stop-color="#EA8A28"/>
</linearGradient>
</defs>
</svg>
