<svg width="59" height="54" viewBox="0 0 59 54" fill="none" xmlns="http://www.w3.org/2000/svg">
<g id="logo" clip-path="url(#clip0_194_1103)">
<g id="cherry">
<g id="Group">
<path id="Vector" d="M41.8023 21.3616C39.6335 17.3973 37.0834 13.6231 34.2125 10.1162C36.3413 8.70153 38.5707 7.58548 40.8544 6.82154C41.9268 6.46158 42.5013 5.31567 42.1374 4.25778C41.772 3.20147 40.6118 2.63716 39.5346 2.99398C34.0912 4.81423 28.9334 8.30698 24.6199 13.0934C21.0149 17.0939 17.9525 21.9746 15.2587 28.017C14.7448 29.1707 14.2406 30.4157 14.223 31.8304C14.2086 32.9464 15.1167 33.8628 16.2497 33.877H16.2753C17.3971 33.877 18.3115 32.9889 18.3259 31.8807C18.3339 31.2236 18.6578 30.4471 19.0153 29.6423C21.5351 23.9913 24.3709 19.4564 27.6871 15.7766C28.7276 14.6213 29.8239 13.5618 30.9586 12.5841C33.6954 15.9165 36.1243 19.5052 38.1861 23.2777C39.4149 25.5239 40.7028 28.1852 40.9373 30.8951C41.0283 31.9483 41.9252 32.7437 42.98 32.7437C43.0375 32.7437 43.0981 32.7405 43.1572 32.7358C44.2854 32.6399 45.1232 31.6622 45.0259 30.5493C44.7259 27.1037 43.2274 23.9693 41.7991 21.3584L41.8023 21.3616Z" fill="url(#paint0_linear_194_1103)"/>
<g id="Group_2">
<path id="Vector_2" d="M41.8232 27.1715L41.82 27.1746L41.8168 27.1715C39.1837 24.5778 34.8957 24.3719 32.1636 26.8634C29.3517 29.4271 27.5947 33.0959 27.6139 37.175C27.6458 44.5048 33.6158 50.6996 41.046 51.0878C49.2439 51.517 56.0278 45.0958 56.0278 37.1137C56.0278 33.0566 54.2723 29.4098 51.4717 26.8587C48.7396 24.3704 44.4548 24.581 41.8232 27.1715Z" fill="url(#paint1_linear_194_1103)"/>
<path id="Vector_3" opacity="0.2" d="M41.0459 45.003C34.637 44.6682 29.3261 40.0122 27.9616 34.0359C27.7318 35.045 27.6089 36.0951 27.6121 37.175C27.644 44.5047 33.6141 50.6995 41.0459 51.0878C49.2437 51.5169 56.0276 45.0957 56.0276 37.1137C56.0276 36.0683 55.9095 35.0513 55.6877 34.072C54.2243 40.575 48.1697 45.3771 41.0443 45.003H41.0459Z" fill="#2B003A"/>
<g id="Group_3" opacity="0.3">
<path id="Vector_4" d="M50.3289 31.3605C49.6251 32.1575 48.0724 31.961 46.8627 30.9235C45.6531 29.8861 45.243 28.3991 45.9467 27.6021C46.6505 26.8052 48.2032 27.0017 49.4129 28.0391C50.6225 29.0766 51.0327 30.5636 50.3289 31.3605Z" fill="#F2F2F2"/>
</g>
<g id="Group_4" opacity="0.3">
<path id="Vector_5" d="M51.8098 34.036C52.4453 34.036 52.9604 33.5285 52.9604 32.9026C52.9604 32.2767 52.4453 31.7693 51.8098 31.7693C51.1744 31.7693 50.6592 32.2767 50.6592 32.9026C50.6592 33.5285 51.1744 34.036 51.8098 34.036Z" fill="#F2F2F2"/>
</g>
</g>
<g id="Group_5">
<path id="Vector_6" d="M17.1962 27.1715L17.193 27.1746L17.1898 27.1715C14.5567 24.5778 10.2687 24.3719 7.53658 26.8634C4.72472 29.4271 2.9677 33.0959 2.98685 37.175C3.01877 44.5048 8.9888 50.6996 16.419 51.0878C24.6168 51.517 31.4008 45.0958 31.4008 37.1137C31.4008 33.0566 29.6453 29.4098 26.8446 26.8587C24.1126 24.3704 19.8277 24.581 17.1962 27.1715Z" fill="url(#paint2_linear_194_1103)"/>
<path id="Vector_7" opacity="0.2" d="M16.4173 45.003C10.0084 44.6682 4.69745 40.0122 3.33301 34.0359C3.10321 35.045 2.98033 36.0951 2.98352 37.175C3.01544 44.5047 8.98547 50.6995 16.4173 51.0878C24.6151 51.5169 31.399 45.0957 31.399 37.1137C31.399 36.0683 31.2809 35.0513 31.0591 34.072C29.5957 40.575 23.5411 45.3771 16.4157 45.003H16.4173Z" fill="#2B003A"/>
<g id="Group_6" opacity="0.3">
<path id="Vector_8" d="M25.7003 31.3605C24.9965 32.1575 23.4438 31.961 22.2341 30.9235C21.0245 29.8861 20.6144 28.3991 21.3181 27.6021C22.0219 26.8052 23.5746 27.0017 24.7843 28.0391C25.9939 29.0766 26.4041 30.5636 25.7003 31.3605Z" fill="#F2F2F2"/>
</g>
<g id="Group_7" opacity="0.3">
<path id="Vector_9" d="M27.1828 34.036C27.8183 34.036 28.3334 33.5285 28.3334 32.9026C28.3334 32.2767 27.8183 31.7693 27.1828 31.7693C26.5474 31.7693 26.0322 32.2767 26.0322 32.9026C26.0322 33.5285 26.5474 34.036 27.1828 34.036Z" fill="#F2F2F2"/>
</g>
</g>
<path id="Vector_10" d="M40.1953 2.88715C41.0506 2.88715 41.847 3.41688 42.1374 4.25784C42.5013 5.31573 41.9268 6.46164 40.8544 6.8216C38.5707 7.58554 36.3413 8.70159 34.2125 10.1163C37.0834 13.6232 39.6335 17.3973 41.8023 21.3616C42.5348 22.7009 43.2832 24.1785 43.8817 25.7645C44.8328 25.3307 45.8621 25.1106 46.8882 25.1106C48.5383 25.1106 50.1788 25.6812 51.4731 26.8601C53.5524 28.7542 55.0525 31.252 55.6893 34.072C55.7978 34.5545 55.8824 35.0465 55.9382 35.5464C55.9382 35.5543 55.9398 35.5621 55.9414 35.57C55.9669 35.7948 55.9845 36.0227 55.9989 36.2506C56.0005 36.2805 56.0037 36.3103 56.0068 36.3402C56.0212 36.5964 56.0292 36.8526 56.0292 37.112C56.0292 37.6103 56.0021 38.1039 55.951 38.5896C55.8999 39.0753 55.8217 39.5532 55.7212 40.0232C54.6631 44.951 50.9736 48.9216 46.1669 50.4401C45.9387 50.5124 45.7073 50.58 45.4727 50.6397C45.203 50.7105 44.9285 50.7718 44.6524 50.8252C43.7348 51.0075 42.7853 51.105 41.8119 51.105C41.5581 51.105 41.3028 51.0987 41.0459 51.0846C36.1355 50.8284 31.8746 48.0288 29.5319 44.0488C27.786 47.0542 24.9438 49.3618 21.5383 50.4385C21.3101 50.5108 21.0787 50.5784 20.8441 50.6382C20.5744 50.7089 20.2999 50.7702 20.0239 50.8236C19.1063 51.006 18.1567 51.1034 17.1833 51.1034C16.9295 51.1034 16.6742 51.0971 16.4173 51.083C10.7409 50.7859 5.92783 47.0982 3.95218 42.1091C3.34097 40.5655 2.99308 38.9024 2.9851 37.1702C2.9851 37.1639 2.9851 37.1576 2.9851 37.1513C2.9851 36.8919 2.99148 36.6341 3.00425 36.3779C3.00585 36.3402 3.01063 36.3041 3.01223 36.2663C3.02659 36.0368 3.04415 35.8089 3.06968 35.5826C3.07128 35.5668 3.07447 35.5495 3.07606 35.5338C3.13351 35.0245 3.22128 34.5247 3.33299 34.0327C3.97292 31.23 5.46663 28.7448 7.53484 26.8601C8.83066 25.678 10.4776 25.1043 12.1309 25.1043C13.5033 25.1043 14.8821 25.5004 16.0678 26.2722C18.5637 21.0284 21.3692 16.6962 24.6183 13.0903C28.9318 8.30389 34.0896 4.81115 39.533 2.99089C39.7516 2.91859 39.975 2.88401 40.1937 2.88401M21.1984 25.1845C21.5495 25.1326 21.9022 25.1059 22.2549 25.1059C23.9049 25.1059 25.5487 25.6765 26.8429 26.8554C27.8882 27.808 28.7882 28.913 29.5047 30.1359C30.2213 28.9161 31.1181 27.8127 32.1602 26.8617C33.4544 25.6812 35.0982 25.109 36.7515 25.109C37.6387 25.109 38.5276 25.2741 39.367 25.5979C38.992 24.7884 38.5883 24.0087 38.1877 23.2762C36.1243 19.5052 33.6954 15.915 30.9602 12.5826C29.8255 13.5587 28.7292 14.6198 27.6887 15.7751C25.2949 18.43 23.1549 21.5408 21.2 25.186M40.1953 0.86412C39.7484 0.86412 39.3064 0.936428 38.8803 1.07633C33.0954 3.01133 27.636 6.70214 23.0863 11.7495C20.0941 15.0693 17.4769 18.9519 15.1183 23.5748C14.1624 23.251 13.1554 23.0844 12.1324 23.0844C9.89189 23.0844 7.76464 23.8987 6.14327 25.3778C3.71919 27.5879 2.05632 30.4283 1.33341 33.5894C1.20414 34.1584 1.1052 34.7353 1.03977 35.309L1.03339 35.3531C1.00307 35.6234 0.982324 35.8859 0.966365 36.1484C0.963173 36.1893 0.959982 36.2302 0.95679 36.2726C0.940831 36.5634 0.934448 36.8511 0.934448 37.1309C0.934448 37.145 0.934448 37.1592 0.934448 37.1717C0.942427 39.1036 1.31585 41.0087 2.04196 42.8447C4.37827 48.7456 9.97966 52.7728 16.3104 53.1029C16.6008 53.1186 16.8944 53.1265 17.1849 53.1265C18.2716 53.1265 19.3648 53.018 20.4324 52.8058C20.7787 52.7366 21.0867 52.6675 21.374 52.592C21.6389 52.5229 21.9054 52.4458 22.1671 52.3625C25.0524 51.4508 27.5929 49.7752 29.5383 47.5368C32.414 50.8409 36.5009 52.8718 40.9373 53.1029C41.2278 53.1186 41.5214 53.1265 41.8119 53.1265C42.8986 53.1265 43.9918 53.018 45.0594 52.8058C45.4057 52.7366 45.7137 52.6675 45.9993 52.592C46.2642 52.5229 46.5307 52.4458 46.7925 52.3625C52.3332 50.6114 56.5239 46.0419 57.7272 40.4381C57.8437 39.8974 57.9314 39.3457 57.9905 38.7986C58.0495 38.2422 58.0798 37.6732 58.0798 37.1104C58.0798 36.8212 58.0719 36.5241 58.0543 36.227C58.0527 36.1862 58.0495 36.1484 58.0447 36.1091C58.0288 35.8639 58.008 35.603 57.9793 35.3452C57.9793 35.3326 57.9761 35.3153 57.9729 35.298C57.9107 34.7463 57.8149 34.182 57.6889 33.6287C56.9707 30.4472 55.3015 27.5926 52.8614 25.37C51.2433 23.8955 49.1208 23.0828 46.8834 23.0828C46.2722 23.0828 45.6578 23.1457 45.0546 23.2668C44.5551 22.168 44.0396 21.1934 43.6056 20.3981C41.7496 17.0043 39.6096 13.7301 37.2318 10.6397C38.6425 9.85064 40.074 9.21088 41.5102 8.73145C43.6519 8.01467 44.8025 5.71499 44.0764 3.6055C43.5098 1.96445 41.9491 0.862549 40.1905 0.862549L40.1953 0.86412ZM24.5832 23.3878C26.0242 21.0347 27.5562 18.9661 29.2223 17.1159C29.6994 16.5862 30.2005 16.0659 30.7208 15.5598C32.5767 17.9742 34.2683 20.5144 35.77 23.1394C33.8981 23.3406 32.1491 24.1187 30.7687 25.3778C30.3234 25.7849 29.9021 26.2141 29.5063 26.6652C29.109 26.2125 28.6861 25.7802 28.2377 25.3731C27.1956 24.4237 25.9428 23.7478 24.5848 23.3894L24.5832 23.3878Z" fill="url(#paint3_linear_194_1103)"/>
<path id="Vector_11" d="M40.1953 0.865709C41.9523 0.865709 43.5146 1.96761 44.0812 3.60867C44.8073 5.71815 43.6567 8.01783 41.5151 8.73461C40.0788 9.21561 38.6473 9.8538 37.2366 10.6429C39.6144 13.7332 41.7528 17.0075 43.6104 20.4012C44.0445 21.1966 44.5615 22.1712 45.0594 23.2699C45.6626 23.1489 46.277 23.086 46.8882 23.086C49.124 23.086 51.2465 23.8987 52.8663 25.3731C55.3063 27.5942 56.9755 30.4503 57.6937 33.6318C57.8181 34.1852 57.9139 34.7479 57.9777 35.3012C57.9793 35.3169 57.9825 35.3358 57.9841 35.3484C58.0128 35.6061 58.0336 35.8655 58.0495 36.1123C58.0527 36.1516 58.0559 36.1893 58.0591 36.2302C58.0751 36.5273 58.0846 36.8244 58.0846 37.1136C58.0846 37.6763 58.0543 38.2438 57.9953 38.8018C57.9362 39.3504 57.8485 39.9021 57.732 40.4413C56.5287 46.0451 52.3396 50.613 46.7973 52.3657C46.534 52.449 46.2691 52.526 46.0041 52.5952C45.7185 52.6706 45.4105 52.7398 45.0642 52.809C43.9966 53.0212 42.9034 53.1296 41.8167 53.1296C41.5262 53.1296 41.2326 53.1218 40.9421 53.106C36.5057 52.875 32.4188 50.8441 29.5431 47.54C27.5977 49.7799 25.0572 51.454 22.1719 52.3657C21.9086 52.449 21.6437 52.526 21.3788 52.5952C21.0931 52.6706 20.7851 52.7398 20.4372 52.809C19.3696 53.0212 18.278 53.1296 17.1897 53.1296C16.8992 53.1296 16.6056 53.1218 16.3152 53.106C9.98447 52.7759 4.38308 48.7488 2.04677 42.8479C1.32066 41.0135 0.947238 39.1068 0.939259 37.1749C0.939259 37.1623 0.939259 37.1482 0.939259 37.134C0.939259 36.8527 0.945643 36.565 0.961601 36.2758C0.963197 36.2349 0.966388 36.1925 0.971176 36.1516C0.987134 35.8891 1.00788 35.6282 1.0382 35.3562L1.04458 35.3122C1.11001 34.7385 1.20896 34.1616 1.33822 33.5925C2.06113 30.4299 3.724 27.5911 6.14808 25.381C7.77104 23.9018 9.8983 23.0876 12.1373 23.0876C13.1602 23.0876 14.1672 23.2542 15.1231 23.578C17.4817 18.9551 20.0989 15.0725 23.0911 11.7526C27.6408 6.7053 33.1002 3.01449 38.8851 1.07949C39.3112 0.938017 39.7532 0.867281 40.2001 0.867281M40.2001 0.152069C39.675 0.152069 39.1548 0.236952 38.6537 0.402001C32.7491 2.3763 27.1812 6.13784 22.5485 11.2779C19.6233 14.5239 17.0684 18.2713 14.7528 22.7182C13.9023 22.4887 13.0245 22.3724 12.1373 22.3724C9.71318 22.3724 7.41198 23.2542 5.65337 24.856C3.12077 27.1651 1.3829 30.1328 0.628071 33.4354C0.492425 34.0295 0.388695 34.6331 0.320074 35.232L0.315286 35.2619C0.281773 35.5606 0.259432 35.8341 0.243473 36.1076C0.240282 36.1359 0.23709 36.1862 0.233898 36.2365C0.21794 36.5367 0.209961 36.8385 0.209961 37.1325V37.1718C0.21794 39.1916 0.607324 41.1864 1.36694 43.1041C3.80698 49.2659 9.65892 53.4707 16.2737 53.8165C16.5737 53.8323 16.8801 53.8401 17.1865 53.8401C18.3211 53.8401 19.4622 53.7269 20.5777 53.5053C20.9367 53.4346 21.2591 53.3607 21.5607 53.2821C21.832 53.2114 22.1113 53.1312 22.3905 53.0432C25.1226 52.1802 27.5786 50.6523 29.5399 48.6057C32.5417 51.7464 36.5456 53.5902 40.9007 53.8165C41.2007 53.8323 41.5071 53.8401 41.8135 53.8401C42.9481 53.8401 44.0891 53.7269 45.2046 53.5053C45.5685 53.433 45.8908 53.3591 46.1877 53.2821C46.459 53.2114 46.7382 53.1312 47.0175 53.0432C52.8056 51.2135 57.183 46.4396 58.4389 40.5859C58.5602 40.0216 58.6528 39.4447 58.7134 38.8725C58.7756 38.2909 58.8076 37.6983 58.8076 37.1105C58.8076 36.8071 58.798 36.4958 58.782 36.1877C58.7788 36.139 58.7756 36.0919 58.7709 36.0447C58.7565 35.8089 58.7342 35.537 58.7038 35.2682L58.6959 35.2069C58.632 34.641 58.5315 34.0531 58.4006 33.4762C57.6506 30.1517 55.9063 27.1682 53.3578 24.8481C51.6039 23.2511 49.3059 22.3724 46.8882 22.3724C46.4223 22.3724 45.9531 22.4054 45.4871 22.4714C45.0387 21.5251 44.5982 20.6999 44.2487 20.0633C42.5109 16.8849 40.5177 13.7977 38.3202 10.874C39.4548 10.2845 40.6054 9.79407 41.7496 9.41053C44.2695 8.56642 45.6243 5.85962 44.7706 3.3776C44.1035 1.44731 42.2667 0.148926 40.1985 0.148926L40.2001 0.152069Z" fill="#683600"/>
</g>
<path id="Vector_12" d="M42.1741 6.9851C41.282 7.27118 40.5831 7.96125 40.2926 8.83836C40.0022 7.95967 39.3016 7.27118 38.4111 6.9851C39.3032 6.69901 40.0022 6.00895 40.2926 5.13184C40.5831 6.01052 41.2836 6.69901 42.1741 6.9851Z" fill="white"/>
<path id="Vector_13" d="M49.44 25.5068C48.824 25.7048 48.3404 26.1811 48.1378 26.7895C47.9367 26.1827 47.4532 25.7064 46.8356 25.5068C47.4516 25.3087 47.9351 24.8324 48.1378 24.2241C48.3389 24.8309 48.8224 25.3072 49.44 25.5068Z" fill="white"/>
</g>
</g>
<defs>
<linearGradient id="paint0_linear_194_1103" x1="29.6292" y1="33.877" x2="29.6292" y2="2.88709" gradientUnits="userSpaceOnUse">
<stop stop-color="#3D6B00"/>
<stop offset="0.06" stop-color="#427302"/>
<stop offset="0.16" stop-color="#538A0A"/>
<stop offset="0.29" stop-color="#6DAF16"/>
<stop offset="0.43" stop-color="#91E227"/>
<stop offset="0.5" stop-color="#A6FF31"/>
<stop offset="0.69" stop-color="#83D11C"/>
<stop offset="0.89" stop-color="#61A407"/>
<stop offset="1" stop-color="#549300"/>
</linearGradient>
<linearGradient id="paint1_linear_194_1103" x1="41.82" y1="51.1083" x2="41.82" y2="25.106" gradientUnits="userSpaceOnUse">
<stop stop-color="#6B0000"/>
<stop offset="0.06" stop-color="#730202"/>
<stop offset="0.16" stop-color="#8A0A0A"/>
<stop offset="0.29" stop-color="#AF1616"/>
<stop offset="0.43" stop-color="#E22727"/>
<stop offset="0.5" stop-color="#FF3131"/>
<stop offset="0.69" stop-color="#D11C1C"/>
<stop offset="0.89" stop-color="#A40707"/>
<stop offset="1" stop-color="#930000"/>
</linearGradient>
<linearGradient id="paint2_linear_194_1103" x1="17.193" y1="-4.82129" x2="17.193" y2="-4.82129" gradientUnits="userSpaceOnUse">
<stop stop-color="#6B0000"/>
<stop offset="0.06" stop-color="#730202"/>
<stop offset="0.16" stop-color="#8A0A0A"/>
<stop offset="0.29" stop-color="#AF1616"/>
<stop offset="0.43" stop-color="#E22727"/>
<stop offset="0.5" stop-color="#FF3131"/>
<stop offset="0.69" stop-color="#D11C1C"/>
<stop offset="0.89" stop-color="#A40707"/>
<stop offset="1" stop-color="#930000"/>
</linearGradient>
<linearGradient id="paint3_linear_194_1103" x1="29.5063" y1="53.128" x2="29.5063" y2="0.865695" gradientUnits="userSpaceOnUse">
<stop stop-color="#BE6D00"/>
<stop offset="0.03" stop-color="#C57C0E"/>
<stop offset="0.12" stop-color="#DAA736"/>
<stop offset="0.21" stop-color="#EAC956"/>
<stop offset="0.29" stop-color="#F5E16C"/>
<stop offset="0.37" stop-color="#FCEF7A"/>
<stop offset="0.43" stop-color="#FFF57F"/>
<stop offset="0.57" stop-color="#E8C552"/>
<stop offset="0.7" stop-color="#D59F2E"/>
<stop offset="0.82" stop-color="#C88315"/>
<stop offset="0.92" stop-color="#C07205"/>
<stop offset="1" stop-color="#BE6D00"/>
</linearGradient>
<clipPath id="clip0_194_1103">
<rect width="59" height="54" fill="white"/>
</clipPath>
</defs>
</svg>
