<svg width="25" height="24" viewBox="0 0 25 24" fill="none" xmlns="http://www.w3.org/2000/svg">
<rect x="1" y="0.5" width="23" height="23" rx="11.5" stroke="white"/>
<path d="M17.2537 11.138L13.0905 7.29037C13.0113 7.22031 12.9179 7.16539 12.8157 7.12877C12.613 7.0518 12.3856 7.0518 12.1829 7.12877C12.0807 7.16539 11.9873 7.22031 11.9081 7.29037L7.74487 11.138C7.66724 11.2097 7.60566 11.2949 7.56364 11.3887C7.52163 11.4824 7.5 11.5829 7.5 11.6844C7.5 11.8893 7.58808 12.0858 7.74487 12.2307C7.90167 12.3756 8.11432 12.457 8.33605 12.457C8.55779 12.457 8.77044 12.3756 8.92723 12.2307L11.6666 9.69129V16.3015C11.6666 16.5056 11.7544 16.7013 11.9105 16.8457C12.0667 16.99 12.2785 17.071 12.4993 17.071C12.7201 17.071 12.9319 16.99 13.0881 16.8457C13.2442 16.7013 13.3319 16.5056 13.3319 16.3015V9.69129L16.0713 12.2307C16.1488 12.3029 16.2408 12.3601 16.3423 12.3992C16.4438 12.4382 16.5526 12.4584 16.6625 12.4584C16.7724 12.4584 16.8813 12.4382 16.9827 12.3992C17.0842 12.3601 17.1763 12.3029 17.2537 12.2307C17.3317 12.1592 17.3937 12.0741 17.436 11.9803C17.4782 11.8865 17.5 11.786 17.5 11.6844C17.5 11.5828 17.4782 11.4822 17.436 11.3884C17.3937 11.2946 17.3317 11.2095 17.2537 11.138Z" fill="white"/>
</svg>
