<svg width="16" height="16" viewBox="0 0 16 16" fill="none" xmlns="http://www.w3.org/2000/svg">
<g id="material-symbols:login">
<g id="Vector">
<path d="M8 13.625V12.375H12.375V3.625H8V2.375H12.375C12.7188 2.375 13.0131 2.4975 13.2581 2.7425C13.5031 2.9875 13.6254 3.28167 13.625 3.625V12.375C13.625 12.7188 13.5025 13.0131 13.2575 13.2581C13.0125 13.5031 12.7183 13.6254 12.375 13.625H8ZM6.75 11.125L5.89062 10.2188L7.48438 8.625H2.375V7.375H7.48438L5.89062 5.78125L6.75 4.875L9.875 8L6.75 11.125Z" fill="white"/>
<path d="M8 13.625V12.375H12.375V3.625H8V2.375H12.375C12.7188 2.375 13.0131 2.4975 13.2581 2.7425C13.5031 2.9875 13.6254 3.28167 13.625 3.625V12.375C13.625 12.7188 13.5025 13.0131 13.2575 13.2581C13.0125 13.5031 12.7183 13.6254 12.375 13.625H8ZM6.75 11.125L5.89062 10.2188L7.48438 8.625H2.375V7.375H7.48438L5.89062 5.78125L6.75 4.875L9.875 8L6.75 11.125Z" fill="url(#paint0_linear_1_446)"/>
</g>
</g>
<defs>
<linearGradient id="paint0_linear_1_446" x1="2.97573" y1="3.78125" x2="15.3293" y2="6.51866" gradientUnits="userSpaceOnUse">
<stop stop-color="#0559D0"/>
<stop offset="1" stop-color="#0EC8FF"/>
</linearGradient>
</defs>
</svg>
